%TF.GenerationSoftware,KiCad,Pcbnew,9.0.4*%
%TF.CreationDate,2025-09-01T14:21:50+02:00*%
%TF.ProjectId,rp2350_gpio_card,72703233-3530-45f6-9770-696f5f636172,X1*%
%TF.SameCoordinates,Original*%
%TF.FileFunction,Copper,L2,Bot*%
%TF.FilePolarity,Positive*%
%FSLAX46Y46*%
G04 Gerber Fmt 4.6, Leading zero omitted, Abs format (unit mm)*
G04 Created by KiCad (PCBNEW 9.0.4) date 2025-09-01 14:21:50*
%MOMM*%
%LPD*%
G01*
G04 APERTURE LIST*
G04 Aperture macros list*
%AMRoundRect*
0 Rectangle with rounded corners*
0 $1 Rounding radius*
0 $2 $3 $4 $5 $6 $7 $8 $9 X,Y pos of 4 corners*
0 Add a 4 corners polygon primitive as box body*
4,1,4,$2,$3,$4,$5,$6,$7,$8,$9,$2,$3,0*
0 Add four circle primitives for the rounded corners*
1,1,$1+$1,$2,$3*
1,1,$1+$1,$4,$5*
1,1,$1+$1,$6,$7*
1,1,$1+$1,$8,$9*
0 Add four rect primitives between the rounded corners*
20,1,$1+$1,$2,$3,$4,$5,0*
20,1,$1+$1,$4,$5,$6,$7,0*
20,1,$1+$1,$6,$7,$8,$9,0*
20,1,$1+$1,$8,$9,$2,$3,0*%
G04 Aperture macros list end*
%TA.AperFunction,SMDPad,CuDef*%
%ADD10R,0.380000X1.000000*%
%TD*%
%TA.AperFunction,SMDPad,CuDef*%
%ADD11R,0.700000X1.150000*%
%TD*%
%TA.AperFunction,ComponentPad*%
%ADD12C,0.600000*%
%TD*%
%TA.AperFunction,SMDPad,CuDef*%
%ADD13R,1.500000X1.500000*%
%TD*%
%TA.AperFunction,SMDPad,CuDef*%
%ADD14RoundRect,0.250000X-0.250000X1.000000X-0.250000X-1.000000X0.250000X-1.000000X0.250000X1.000000X0*%
%TD*%
%TA.AperFunction,ViaPad*%
%ADD15C,0.800000*%
%TD*%
%TA.AperFunction,ViaPad*%
%ADD16C,0.500000*%
%TD*%
%TA.AperFunction,Conductor*%
%ADD17C,0.152400*%
%TD*%
%TA.AperFunction,Conductor*%
%ADD18C,0.200000*%
%TD*%
G04 APERTURE END LIST*
D10*
%TO.P,P1,B1,GND*%
%TO.N,GND*%
X106305183Y-54186434D03*
%TO.P,P1,B2*%
%TO.N,N/C*%
X105805183Y-54186434D03*
%TO.P,P1,B3*%
X105305183Y-54186434D03*
%TO.P,P1,B4,VBUS*%
%TO.N,VBUS*%
X104805183Y-54186434D03*
%TO.P,P1,B5,VCONN*%
%TO.N,unconnected-(P1-VCONN-PadB5)*%
X104305183Y-54186434D03*
%TO.P,P1,B8*%
%TO.N,N/C*%
X102805183Y-54186434D03*
%TO.P,P1,B9,VBUS*%
%TO.N,VBUS*%
X102305183Y-54186434D03*
%TO.P,P1,B10*%
%TO.N,N/C*%
X101805183Y-54186434D03*
%TO.P,P1,B11*%
X101305183Y-54186434D03*
%TO.P,P1,B12,GND*%
%TO.N,GND*%
X100805183Y-54186434D03*
D11*
%TO.P,P1,S1,SHIELD*%
X106975183Y-55026434D03*
%TD*%
D12*
%TO.P,U1,61,GND*%
%TO.N,GND*%
X105380183Y-68171434D03*
X106755183Y-68171434D03*
X108130183Y-68171434D03*
X105380183Y-66796434D03*
X106755183Y-66796434D03*
X108130183Y-66796434D03*
X105380183Y-65421434D03*
X106755183Y-65421434D03*
X108130183Y-65421434D03*
%TD*%
D13*
%TO.P,TP3,1,1*%
%TO.N,GND*%
X97855183Y-53146434D03*
%TD*%
%TO.P,TP4,1,1*%
%TO.N,GND*%
X109255183Y-53146434D03*
%TD*%
D14*
%TO.P,J1,1,Pin_1*%
%TO.N,/QSPI_SS*%
X92125183Y-79600000D03*
%TO.P,J1,2,Pin_2*%
%TO.N,/GPIO9*%
X94665183Y-79600000D03*
%TO.P,J1,3,Pin_3*%
%TO.N,/GPIO10*%
X97205183Y-79600000D03*
%TO.P,J1,4,Pin_4*%
%TO.N,/GPIO11*%
X99745183Y-79600000D03*
%TO.P,J1,5,Pin_5*%
%TO.N,/GPIO12*%
X102285183Y-79600000D03*
%TO.P,J1,6,Pin_6*%
%TO.N,/GPIO13*%
X104825183Y-79600000D03*
%TO.P,J1,7,Pin_7*%
%TO.N,GND*%
X107365183Y-79600000D03*
%TO.P,J1,8,Pin_8*%
%TO.N,/GPIO27_ADC1*%
X109905183Y-79600000D03*
%TO.P,J1,9,Pin_9*%
%TO.N,/GPIO28_ADC2*%
X112445183Y-79600000D03*
%TO.P,J1,10,Pin_10*%
%TO.N,/GPIO29_ADC3*%
X114985183Y-79600000D03*
%TD*%
D15*
%TO.N,+1V1*%
X110100000Y-61500000D03*
X100382403Y-63516978D03*
%TO.N,VBUS*%
X104800000Y-55700000D03*
X98800000Y-56246434D03*
%TO.N,+3.3V*%
X112700000Y-68272634D03*
X112700000Y-65100000D03*
%TO.N,/GPIO27_ADC1*%
X106685028Y-60729793D03*
%TO.N,/GPIO29_ADC3*%
X104755183Y-60700000D03*
%TO.N,/GPIO11*%
X110555183Y-72771434D03*
%TO.N,/QSPI_SS*%
X102130183Y-70996434D03*
%TO.N,/RUN*%
X111500000Y-66300000D03*
X111500000Y-68272634D03*
%TO.N,/GPIO10*%
X109680183Y-72196434D03*
%TO.N,/GPIO9*%
X108755502Y-71815683D03*
%TO.N,/GPIO28_ADC2*%
X106005183Y-59996434D03*
%TO.N,/GPIO0*%
X103601588Y-72897192D03*
X93100000Y-76400000D03*
%TO.N,/USB_D+*%
X101600000Y-58300000D03*
X97900000Y-63900000D03*
%TO.N,/USB_D-*%
X103200000Y-57900000D03*
X99000000Y-63400000D03*
%TO.N,/GPIO13*%
X111055183Y-74896434D03*
%TO.N,/GPIO12*%
X110405183Y-74046434D03*
D16*
%TO.N,GND*%
X97413183Y-52717934D03*
X97413183Y-53606934D03*
X109732183Y-52717934D03*
X109732183Y-53606934D03*
X98302183Y-53606934D03*
D15*
X105400000Y-57700000D03*
X113180183Y-57596434D03*
X115293837Y-67562455D03*
X98005183Y-69996434D03*
D16*
X108779683Y-52717934D03*
X98302183Y-52717934D03*
D15*
X103000000Y-60800000D03*
D16*
X108779683Y-53606934D03*
D15*
X113800000Y-76100000D03*
X93920000Y-63620000D03*
X105900000Y-55400000D03*
X92200000Y-68400000D03*
X97630183Y-57546434D03*
X100835997Y-61643989D03*
%TD*%
D17*
%TO.N,+1V1*%
X101000000Y-62300000D02*
X100382403Y-62917597D01*
X110100000Y-61500000D02*
X109300000Y-62300000D01*
X100382403Y-62917597D02*
X100382403Y-63516978D01*
X100382403Y-63516978D02*
X100316978Y-63516978D01*
X109300000Y-62300000D02*
X101000000Y-62300000D01*
D18*
%TO.N,VBUS*%
X102200000Y-56800000D02*
X101700000Y-56300000D01*
X102300000Y-55189634D02*
X102305183Y-55194817D01*
X103742294Y-56800000D02*
X102200000Y-56800000D01*
D17*
X104805183Y-54186434D02*
X104805183Y-55694817D01*
X102305183Y-54186434D02*
X102305183Y-54994817D01*
X104800000Y-55700000D02*
X104800000Y-55742294D01*
X104805183Y-55694817D02*
X104800000Y-55700000D01*
D18*
X98853566Y-56300000D02*
X98800000Y-56246434D01*
D17*
X102305183Y-54994817D02*
X102300000Y-55000000D01*
D18*
X101700000Y-56300000D02*
X98853566Y-56300000D01*
X102305183Y-55194817D02*
X101200000Y-56300000D01*
X102300000Y-55000000D02*
X102300000Y-55189634D01*
X104800000Y-55742294D02*
X103742294Y-56800000D01*
D17*
%TO.N,+3.3V*%
X112700000Y-68272634D02*
X112700000Y-65100000D01*
%TO.N,/GPIO27_ADC1*%
X106682383Y-60726940D02*
X106685028Y-60729585D01*
X106685028Y-60729585D02*
X106685028Y-60729793D01*
X107405183Y-58696434D02*
X106682383Y-59419234D01*
X109905183Y-77471434D02*
X111800000Y-75576617D01*
X111800000Y-75576617D02*
X111800000Y-70200000D01*
X109905183Y-80196434D02*
X109905183Y-77471434D01*
X113994383Y-62135634D02*
X110555183Y-58696434D01*
X113994383Y-68005617D02*
X113994383Y-62135634D01*
X111800000Y-70200000D02*
X113994383Y-68005617D01*
X110555183Y-58696434D02*
X107405183Y-58696434D01*
X106682383Y-59419234D02*
X106682383Y-60726940D01*
%TO.N,/GPIO29_ADC3*%
X111505183Y-57746434D02*
X114555183Y-60796434D01*
X112400000Y-70411288D02*
X112400000Y-73241251D01*
X104755183Y-59546434D02*
X106555183Y-57746434D01*
X112400000Y-73241251D02*
X114985183Y-75826434D01*
X106555183Y-57746434D02*
X111505183Y-57746434D01*
X114985183Y-75826434D02*
X114985183Y-80196434D01*
X114555183Y-60796434D02*
X114555183Y-68256105D01*
X104755183Y-60700000D02*
X104755183Y-59546434D01*
X114555183Y-68256105D02*
X112400000Y-70411288D01*
%TO.N,/GPIO11*%
X104906966Y-73693034D02*
X102403566Y-76196434D01*
X99745183Y-77006434D02*
X99745183Y-80196434D01*
X102403566Y-76196434D02*
X100555183Y-76196434D01*
X100555183Y-76196434D02*
X99745183Y-77006434D01*
X109633583Y-73693034D02*
X104906966Y-73693034D01*
X110555183Y-72771434D02*
X109633583Y-73693034D01*
%TO.N,/QSPI_SS*%
X93993911Y-73800000D02*
X92125183Y-75668728D01*
X101076617Y-73800000D02*
X93993911Y-73800000D01*
X92125183Y-75668728D02*
X92125183Y-80196434D01*
X102130183Y-72746434D02*
X101076617Y-73800000D01*
X102130183Y-70996434D02*
X102130183Y-72746434D01*
%TO.N,/RUN*%
X111500000Y-66300000D02*
X111500000Y-68272634D01*
%TO.N,/GPIO10*%
X97205183Y-76746434D02*
X97205183Y-80196434D01*
X109680183Y-72196434D02*
X109680183Y-72205729D01*
X109680183Y-72205729D02*
X108789478Y-73096434D01*
X108789478Y-73096434D02*
X105028720Y-73096434D01*
X105028720Y-73096434D02*
X102282120Y-75843034D01*
X98108583Y-75843034D02*
X97205183Y-76746434D01*
X102282120Y-75843034D02*
X98108583Y-75843034D01*
%TO.N,/GPIO9*%
X101955289Y-75500000D02*
X96201617Y-75500000D01*
X94665183Y-77036434D02*
X94665183Y-80196434D01*
X104855289Y-72600000D02*
X101955289Y-75500000D01*
X108755502Y-71815683D02*
X107971185Y-72600000D01*
X107971185Y-72600000D02*
X104855289Y-72600000D01*
X96201617Y-75500000D02*
X94665183Y-77036434D01*
%TO.N,/GPIO28_ADC2*%
X107150113Y-58146434D02*
X111255183Y-58146434D01*
X112119600Y-73510851D02*
X112445183Y-73836434D01*
X111255183Y-58146434D02*
X114274783Y-61166034D01*
X106005183Y-59291364D02*
X107150113Y-58146434D01*
X112445183Y-73836434D02*
X112445183Y-80196434D01*
X112119600Y-70295143D02*
X112119600Y-73510851D01*
X114274783Y-68139959D02*
X112119600Y-70295143D01*
X114274783Y-61166034D02*
X114274783Y-68139959D01*
X106005183Y-59996434D02*
X106005183Y-59291364D01*
%TO.N,/GPIO0*%
X103601588Y-72897192D02*
X102221946Y-74276834D01*
X102221946Y-74276834D02*
X95223166Y-74276834D01*
X95223166Y-74276834D02*
X93100000Y-76400000D01*
D18*
%TO.N,/USB_D+*%
X101600000Y-58300000D02*
X97900000Y-62000000D01*
X97900000Y-62000000D02*
X97900000Y-63900000D01*
%TO.N,/USB_D-*%
X101000420Y-60099580D02*
X99000000Y-62100000D01*
X101008749Y-60099580D02*
X101000420Y-60099580D01*
X99000000Y-62100000D02*
X99000000Y-63400000D01*
X103200000Y-57900000D02*
X103200000Y-57908329D01*
X103200000Y-57908329D02*
X101008749Y-60099580D01*
D17*
%TO.N,/GPIO13*%
X104825183Y-76726434D02*
X104825183Y-80196434D01*
X106655183Y-74896434D02*
X104825183Y-76726434D01*
X111055183Y-74896434D02*
X106655183Y-74896434D01*
%TO.N,/GPIO12*%
X102285183Y-80196434D02*
X102285183Y-76816434D01*
X102285183Y-76816434D02*
X105055183Y-74046434D01*
X110405183Y-74046434D02*
X105055183Y-74046434D01*
%TO.N,GND*%
X106305183Y-54356434D02*
X106975183Y-55026434D01*
X106305183Y-54186434D02*
X106305183Y-54356434D01*
%TD*%
%TA.AperFunction,Conductor*%
%TO.N,GND*%
G36*
X115250053Y-52364590D02*
G01*
X115295920Y-52417297D01*
X115307223Y-52467302D01*
X115355497Y-55894787D01*
X115355498Y-55894788D01*
X116281019Y-55894788D01*
X116348058Y-55914473D01*
X116393813Y-55967277D01*
X116405018Y-56019266D01*
X116346345Y-71244830D01*
X116326402Y-71311793D01*
X116273422Y-71357344D01*
X116204226Y-71367021D01*
X116140783Y-71337751D01*
X116104415Y-71282670D01*
X116082487Y-71215183D01*
X116060403Y-71147215D01*
X115967470Y-70964824D01*
X115959739Y-70954183D01*
X115847154Y-70799220D01*
X115702396Y-70654462D01*
X115536796Y-70534149D01*
X115536795Y-70534148D01*
X115536793Y-70534147D01*
X115479836Y-70505125D01*
X115354406Y-70441215D01*
X115159717Y-70377956D01*
X114985178Y-70350312D01*
X114957535Y-70345934D01*
X114752831Y-70345934D01*
X114728512Y-70349785D01*
X114550648Y-70377956D01*
X114355959Y-70441215D01*
X114173569Y-70534149D01*
X114007969Y-70654462D01*
X113863211Y-70799220D01*
X113742898Y-70964820D01*
X113649964Y-71147210D01*
X113586705Y-71341899D01*
X113554683Y-71544082D01*
X113554683Y-71748785D01*
X113586705Y-71950968D01*
X113649964Y-72145657D01*
X113683697Y-72211860D01*
X113726921Y-72296692D01*
X113742898Y-72328047D01*
X113863211Y-72493647D01*
X114007969Y-72638405D01*
X114162932Y-72750990D01*
X114173573Y-72758721D01*
X114287756Y-72816900D01*
X114355959Y-72851652D01*
X114355961Y-72851652D01*
X114355964Y-72851654D01*
X114455432Y-72883973D01*
X114550648Y-72914911D01*
X114651740Y-72930922D01*
X114752831Y-72946934D01*
X114752832Y-72946934D01*
X114957534Y-72946934D01*
X114957535Y-72946934D01*
X115159717Y-72914911D01*
X115354402Y-72851654D01*
X115356687Y-72850490D01*
X115359010Y-72849306D01*
X115536793Y-72758721D01*
X115647777Y-72678087D01*
X115702396Y-72638405D01*
X115702398Y-72638402D01*
X115702402Y-72638400D01*
X115847149Y-72493653D01*
X115847151Y-72493649D01*
X115847154Y-72493647D01*
X115903078Y-72416673D01*
X115967470Y-72328044D01*
X116060403Y-72145653D01*
X116101280Y-72019846D01*
X116140716Y-71962173D01*
X116205075Y-71934974D01*
X116273921Y-71946889D01*
X116325397Y-71994133D01*
X116343209Y-72058644D01*
X116305973Y-81721507D01*
X116286030Y-81788470D01*
X116233050Y-81834021D01*
X116182217Y-81845029D01*
X90879741Y-81894544D01*
X90812663Y-81874990D01*
X90766805Y-81822276D01*
X90755498Y-81770544D01*
X90755498Y-78545730D01*
X91424683Y-78545730D01*
X91424683Y-80654269D01*
X91427536Y-80684699D01*
X91427536Y-80684701D01*
X91472389Y-80812880D01*
X91472390Y-80812882D01*
X91553033Y-80922150D01*
X91662301Y-81002793D01*
X91705028Y-81017744D01*
X91790482Y-81047646D01*
X91820913Y-81050500D01*
X91820917Y-81050500D01*
X92429453Y-81050500D01*
X92459882Y-81047646D01*
X92459884Y-81047646D01*
X92523973Y-81025219D01*
X92588065Y-81002793D01*
X92697333Y-80922150D01*
X92777976Y-80812882D01*
X92800402Y-80748790D01*
X92822829Y-80684701D01*
X92822829Y-80684699D01*
X92825683Y-80654269D01*
X92825683Y-78545730D01*
X92822829Y-78515300D01*
X92822829Y-78515298D01*
X92777976Y-78387119D01*
X92777975Y-78387117D01*
X92697333Y-78277850D01*
X92588065Y-78197207D01*
X92484927Y-78161117D01*
X92428152Y-78120395D01*
X92402405Y-78055442D01*
X92401883Y-78044076D01*
X92401883Y-76850429D01*
X92421568Y-76783390D01*
X92474372Y-76737635D01*
X92543530Y-76727691D01*
X92607086Y-76756716D01*
X92613338Y-76763363D01*
X92613733Y-76762969D01*
X92619480Y-76768716D01*
X92731284Y-76880520D01*
X92731286Y-76880521D01*
X92731290Y-76880524D01*
X92818800Y-76931047D01*
X92868216Y-76959577D01*
X93020943Y-77000500D01*
X93020945Y-77000500D01*
X93179055Y-77000500D01*
X93179057Y-77000500D01*
X93331784Y-76959577D01*
X93468716Y-76880520D01*
X93580520Y-76768716D01*
X93659577Y-76631784D01*
X93700500Y-76479057D01*
X93700500Y-76320943D01*
X93691529Y-76287463D01*
X93693190Y-76217615D01*
X93723620Y-76167691D01*
X95301460Y-74589853D01*
X95362783Y-74556368D01*
X95389141Y-74553534D01*
X102211080Y-74553534D01*
X102278119Y-74573219D01*
X102323874Y-74626023D01*
X102333818Y-74695181D01*
X102304793Y-74758737D01*
X102298761Y-74765215D01*
X101876995Y-75186981D01*
X101815672Y-75220466D01*
X101789314Y-75223300D01*
X96165183Y-75223300D01*
X96094813Y-75242155D01*
X96094812Y-75242155D01*
X96031724Y-75278581D01*
X96031715Y-75278587D01*
X94443770Y-76866532D01*
X94443764Y-76866541D01*
X94407340Y-76929627D01*
X94407339Y-76929631D01*
X94397099Y-76967849D01*
X94393198Y-76982409D01*
X94388483Y-77000005D01*
X94388483Y-78044076D01*
X94368798Y-78111115D01*
X94315994Y-78156870D01*
X94305439Y-78161117D01*
X94202300Y-78197207D01*
X94093033Y-78277850D01*
X94012390Y-78387117D01*
X94012389Y-78387119D01*
X93967536Y-78515298D01*
X93967536Y-78515300D01*
X93964683Y-78545730D01*
X93964683Y-80654269D01*
X93967536Y-80684699D01*
X93967536Y-80684701D01*
X94012389Y-80812880D01*
X94012390Y-80812882D01*
X94093033Y-80922150D01*
X94202301Y-81002793D01*
X94245028Y-81017744D01*
X94330482Y-81047646D01*
X94360913Y-81050500D01*
X94360917Y-81050500D01*
X94969453Y-81050500D01*
X94999882Y-81047646D01*
X94999884Y-81047646D01*
X95063973Y-81025219D01*
X95128065Y-81002793D01*
X95237333Y-80922150D01*
X95317976Y-80812882D01*
X95340402Y-80748790D01*
X95362829Y-80684701D01*
X95362829Y-80684699D01*
X95365683Y-80654269D01*
X95365683Y-78545730D01*
X95362829Y-78515300D01*
X95362829Y-78515298D01*
X95317976Y-78387119D01*
X95317975Y-78387117D01*
X95237333Y-78277850D01*
X95128065Y-78197207D01*
X95024927Y-78161117D01*
X94968152Y-78120395D01*
X94942405Y-78055442D01*
X94941883Y-78044076D01*
X94941883Y-77202409D01*
X94961568Y-77135370D01*
X94978202Y-77114728D01*
X96279911Y-75813019D01*
X96341234Y-75779534D01*
X96367592Y-75776700D01*
X97484242Y-75776700D01*
X97551281Y-75796385D01*
X97597036Y-75849189D01*
X97606980Y-75918347D01*
X97577955Y-75981903D01*
X97571923Y-75988381D01*
X96983770Y-76576532D01*
X96983768Y-76576535D01*
X96947337Y-76639633D01*
X96943114Y-76655396D01*
X96943114Y-76655398D01*
X96928483Y-76710002D01*
X96928483Y-78044076D01*
X96908798Y-78111115D01*
X96855994Y-78156870D01*
X96845439Y-78161117D01*
X96742300Y-78197207D01*
X96633033Y-78277850D01*
X96552390Y-78387117D01*
X96552389Y-78387119D01*
X96507536Y-78515298D01*
X96507536Y-78515300D01*
X96504683Y-78545730D01*
X96504683Y-80654269D01*
X96507536Y-80684699D01*
X96507536Y-80684701D01*
X96552389Y-80812880D01*
X96552390Y-80812882D01*
X96633033Y-80922150D01*
X96742301Y-81002793D01*
X96785028Y-81017744D01*
X96870482Y-81047646D01*
X96900913Y-81050500D01*
X96900917Y-81050500D01*
X97509453Y-81050500D01*
X97539882Y-81047646D01*
X97539884Y-81047646D01*
X97603973Y-81025219D01*
X97668065Y-81002793D01*
X97777333Y-80922150D01*
X97857976Y-80812882D01*
X97880402Y-80748790D01*
X97902829Y-80684701D01*
X97902829Y-80684699D01*
X97905683Y-80654269D01*
X97905683Y-78545730D01*
X97902829Y-78515300D01*
X97902829Y-78515298D01*
X97857976Y-78387119D01*
X97857975Y-78387117D01*
X97777333Y-78277850D01*
X97668065Y-78197207D01*
X97564927Y-78161117D01*
X97508152Y-78120395D01*
X97482405Y-78055442D01*
X97481883Y-78044076D01*
X97481883Y-76912409D01*
X97501568Y-76845370D01*
X97518202Y-76824728D01*
X98186877Y-76156053D01*
X98248200Y-76122568D01*
X98274558Y-76119734D01*
X99941208Y-76119734D01*
X100008247Y-76139419D01*
X100054002Y-76192223D01*
X100063946Y-76261381D01*
X100034921Y-76324937D01*
X100028889Y-76331415D01*
X99523770Y-76836532D01*
X99523768Y-76836535D01*
X99487337Y-76899633D01*
X99483114Y-76915396D01*
X99483114Y-76915398D01*
X99468483Y-76970002D01*
X99468483Y-78044076D01*
X99448798Y-78111115D01*
X99395994Y-78156870D01*
X99385439Y-78161117D01*
X99282300Y-78197207D01*
X99173033Y-78277850D01*
X99092390Y-78387117D01*
X99092389Y-78387119D01*
X99047536Y-78515298D01*
X99047536Y-78515300D01*
X99044683Y-78545730D01*
X99044683Y-80654269D01*
X99047536Y-80684699D01*
X99047536Y-80684701D01*
X99092389Y-80812880D01*
X99092390Y-80812882D01*
X99173033Y-80922150D01*
X99282301Y-81002793D01*
X99325028Y-81017744D01*
X99410482Y-81047646D01*
X99440913Y-81050500D01*
X99440917Y-81050500D01*
X100049453Y-81050500D01*
X100079882Y-81047646D01*
X100079884Y-81047646D01*
X100143973Y-81025219D01*
X100208065Y-81002793D01*
X100317333Y-80922150D01*
X100397976Y-80812882D01*
X100420402Y-80748790D01*
X100442829Y-80684701D01*
X100442829Y-80684699D01*
X100445683Y-80654269D01*
X100445683Y-78545730D01*
X100442829Y-78515300D01*
X100442829Y-78515298D01*
X100397976Y-78387119D01*
X100397975Y-78387117D01*
X100317333Y-78277850D01*
X100208065Y-78197207D01*
X100104927Y-78161117D01*
X100048152Y-78120395D01*
X100022405Y-78055442D01*
X100021883Y-78044076D01*
X100021883Y-77172409D01*
X100041568Y-77105370D01*
X100058202Y-77084728D01*
X100633477Y-76509453D01*
X100694800Y-76475968D01*
X100721158Y-76473134D01*
X101949107Y-76473134D01*
X101980440Y-76482334D01*
X102012116Y-76490336D01*
X102013792Y-76492127D01*
X102016146Y-76492819D01*
X102037528Y-76517495D01*
X102059853Y-76541355D01*
X102060294Y-76543769D01*
X102061901Y-76545623D01*
X102066549Y-76577948D01*
X102072429Y-76610083D01*
X102071555Y-76612770D01*
X102071845Y-76614781D01*
X102063785Y-76644303D01*
X102060633Y-76651965D01*
X102027339Y-76709631D01*
X102011508Y-76768716D01*
X102009446Y-76776411D01*
X102009443Y-76776419D01*
X102008483Y-76780003D01*
X102008483Y-78044076D01*
X101988798Y-78111115D01*
X101935994Y-78156870D01*
X101925439Y-78161117D01*
X101822300Y-78197207D01*
X101713033Y-78277850D01*
X101632390Y-78387117D01*
X101632389Y-78387119D01*
X101587536Y-78515298D01*
X101587536Y-78515300D01*
X101584683Y-78545730D01*
X101584683Y-80654269D01*
X101587536Y-80684699D01*
X101587536Y-80684701D01*
X101632389Y-80812880D01*
X101632390Y-80812882D01*
X101713033Y-80922150D01*
X101822301Y-81002793D01*
X101865028Y-81017744D01*
X101950482Y-81047646D01*
X101980913Y-81050500D01*
X101980917Y-81050500D01*
X102589453Y-81050500D01*
X102619882Y-81047646D01*
X102619884Y-81047646D01*
X102683973Y-81025219D01*
X102748065Y-81002793D01*
X102857333Y-80922150D01*
X102937976Y-80812882D01*
X102960402Y-80748790D01*
X102982829Y-80684701D01*
X102982829Y-80684699D01*
X102985683Y-80654269D01*
X102985683Y-78545730D01*
X102982829Y-78515300D01*
X102982829Y-78515298D01*
X102937976Y-78387119D01*
X102937975Y-78387117D01*
X102857333Y-78277850D01*
X102748065Y-78197207D01*
X102644927Y-78161117D01*
X102588152Y-78120395D01*
X102562405Y-78055442D01*
X102561883Y-78044076D01*
X102561883Y-76982409D01*
X102581568Y-76915370D01*
X102598202Y-76894728D01*
X105133477Y-74359453D01*
X105194800Y-74325968D01*
X105221158Y-74323134D01*
X109799946Y-74323134D01*
X109809491Y-74325936D01*
X109819359Y-74324663D01*
X109842457Y-74335617D01*
X109866985Y-74342819D01*
X109875183Y-74351135D01*
X109882490Y-74354601D01*
X109900890Y-74377215D01*
X109905216Y-74381604D01*
X109906310Y-74383362D01*
X109924663Y-74415150D01*
X109928464Y-74418951D01*
X109935469Y-74430204D01*
X109943268Y-74458253D01*
X109953769Y-74485414D01*
X109952517Y-74491518D01*
X109954186Y-74497520D01*
X109945581Y-74525334D01*
X109939732Y-74553859D01*
X109935379Y-74558316D01*
X109933538Y-74564269D01*
X109911260Y-74583017D01*
X109890919Y-74603850D01*
X109884517Y-74605524D01*
X109880080Y-74609259D01*
X109860655Y-74611766D01*
X109830199Y-74619734D01*
X106618749Y-74619734D01*
X106548379Y-74638589D01*
X106548378Y-74638589D01*
X106485290Y-74675015D01*
X106485281Y-74675021D01*
X104603770Y-76556532D01*
X104603768Y-76556535D01*
X104567337Y-76619633D01*
X104563114Y-76635396D01*
X104563114Y-76635398D01*
X104548483Y-76690002D01*
X104548483Y-78044076D01*
X104528798Y-78111115D01*
X104475994Y-78156870D01*
X104465439Y-78161117D01*
X104362300Y-78197207D01*
X104253033Y-78277850D01*
X104172390Y-78387117D01*
X104172389Y-78387119D01*
X104127536Y-78515298D01*
X104127536Y-78515300D01*
X104124683Y-78545730D01*
X104124683Y-80654269D01*
X104127536Y-80684699D01*
X104127536Y-80684701D01*
X104172389Y-80812880D01*
X104172390Y-80812882D01*
X104253033Y-80922150D01*
X104362301Y-81002793D01*
X104405028Y-81017744D01*
X104490482Y-81047646D01*
X104520913Y-81050500D01*
X104520917Y-81050500D01*
X105129453Y-81050500D01*
X105159882Y-81047646D01*
X105159884Y-81047646D01*
X105223973Y-81025219D01*
X105288065Y-81002793D01*
X105397333Y-80922150D01*
X105477976Y-80812882D01*
X105500402Y-80748790D01*
X105522829Y-80684701D01*
X105522829Y-80684699D01*
X105525683Y-80654269D01*
X105525683Y-80649986D01*
X106365184Y-80649986D01*
X106375677Y-80752697D01*
X106430824Y-80919119D01*
X106430826Y-80919124D01*
X106522867Y-81068345D01*
X106646837Y-81192315D01*
X106796058Y-81284356D01*
X106796063Y-81284358D01*
X106962485Y-81339505D01*
X106962492Y-81339506D01*
X107065202Y-81349999D01*
X107615183Y-81349999D01*
X107665155Y-81349999D01*
X107665169Y-81349998D01*
X107767880Y-81339505D01*
X107934302Y-81284358D01*
X107934307Y-81284356D01*
X108083528Y-81192315D01*
X108207498Y-81068345D01*
X108299539Y-80919124D01*
X108299541Y-80919119D01*
X108354688Y-80752697D01*
X108354689Y-80752690D01*
X108365182Y-80649986D01*
X108365183Y-80649973D01*
X108365183Y-79850000D01*
X107615183Y-79850000D01*
X107615183Y-81349999D01*
X107065202Y-81349999D01*
X107115182Y-81349998D01*
X107115183Y-81349998D01*
X107115183Y-79850000D01*
X106365184Y-79850000D01*
X106365184Y-80649986D01*
X105525683Y-80649986D01*
X105525683Y-78550013D01*
X106365183Y-78550013D01*
X106365183Y-79350000D01*
X107115183Y-79350000D01*
X107615183Y-79350000D01*
X108365182Y-79350000D01*
X108365182Y-78550028D01*
X108365181Y-78550013D01*
X108354688Y-78447302D01*
X108299541Y-78280880D01*
X108299539Y-78280875D01*
X108207498Y-78131654D01*
X108083528Y-78007684D01*
X107934307Y-77915643D01*
X107934302Y-77915641D01*
X107767880Y-77860494D01*
X107767873Y-77860493D01*
X107665169Y-77850000D01*
X107615183Y-77850000D01*
X107615183Y-79350000D01*
X107115183Y-79350000D01*
X107115183Y-77850000D01*
X107115182Y-77849999D01*
X107065212Y-77850000D01*
X107065194Y-77850001D01*
X106962485Y-77860494D01*
X106796063Y-77915641D01*
X106796058Y-77915643D01*
X106646837Y-78007684D01*
X106522867Y-78131654D01*
X106430826Y-78280875D01*
X106430824Y-78280880D01*
X106375677Y-78447302D01*
X106375676Y-78447309D01*
X106365183Y-78550013D01*
X105525683Y-78550013D01*
X105525683Y-78545730D01*
X105522829Y-78515300D01*
X105522829Y-78515298D01*
X105477976Y-78387119D01*
X105477975Y-78387117D01*
X105397333Y-78277850D01*
X105288065Y-78197207D01*
X105184927Y-78161117D01*
X105128152Y-78120395D01*
X105102405Y-78055442D01*
X105101883Y-78044076D01*
X105101883Y-76892409D01*
X105121568Y-76825370D01*
X105138202Y-76804728D01*
X106733477Y-75209453D01*
X106794800Y-75175968D01*
X106821158Y-75173134D01*
X110449946Y-75173134D01*
X110516985Y-75192819D01*
X110557333Y-75235134D01*
X110574660Y-75265146D01*
X110574662Y-75265149D01*
X110574663Y-75265150D01*
X110686467Y-75376954D01*
X110686469Y-75376955D01*
X110686473Y-75376958D01*
X110823392Y-75456007D01*
X110823399Y-75456011D01*
X110976126Y-75496934D01*
X110976128Y-75496934D01*
X111134238Y-75496934D01*
X111134240Y-75496934D01*
X111170985Y-75487088D01*
X111240834Y-75488750D01*
X111298697Y-75527911D01*
X111326202Y-75592139D01*
X111314616Y-75661042D01*
X111290760Y-75694543D01*
X109683770Y-77301532D01*
X109683768Y-77301535D01*
X109647337Y-77364633D01*
X109643114Y-77380396D01*
X109643114Y-77380398D01*
X109628483Y-77435002D01*
X109628483Y-78044076D01*
X109608798Y-78111115D01*
X109555994Y-78156870D01*
X109545439Y-78161117D01*
X109442300Y-78197207D01*
X109333033Y-78277850D01*
X109252390Y-78387117D01*
X109252389Y-78387119D01*
X109207536Y-78515298D01*
X109207536Y-78515300D01*
X109204683Y-78545730D01*
X109204683Y-80654269D01*
X109207536Y-80684699D01*
X109207536Y-80684701D01*
X109252389Y-80812880D01*
X109252390Y-80812882D01*
X109333033Y-80922150D01*
X109442301Y-81002793D01*
X109485028Y-81017744D01*
X109570482Y-81047646D01*
X109600913Y-81050500D01*
X109600917Y-81050500D01*
X110209453Y-81050500D01*
X110239882Y-81047646D01*
X110239884Y-81047646D01*
X110303973Y-81025219D01*
X110368065Y-81002793D01*
X110477333Y-80922150D01*
X110557976Y-80812882D01*
X110580402Y-80748790D01*
X110602829Y-80684701D01*
X110602829Y-80684699D01*
X110605683Y-80654269D01*
X110605683Y-78545730D01*
X110602829Y-78515300D01*
X110602829Y-78515298D01*
X110557976Y-78387119D01*
X110557975Y-78387117D01*
X110477333Y-78277850D01*
X110368065Y-78197207D01*
X110264927Y-78161117D01*
X110208152Y-78120395D01*
X110182405Y-78055442D01*
X110181883Y-78044076D01*
X110181883Y-77637409D01*
X110201568Y-77570370D01*
X110218202Y-77549728D01*
X111956802Y-75811128D01*
X112018125Y-75777643D01*
X112087817Y-75782627D01*
X112143750Y-75824499D01*
X112168167Y-75889963D01*
X112168483Y-75898809D01*
X112168483Y-78044076D01*
X112148798Y-78111115D01*
X112095994Y-78156870D01*
X112085439Y-78161117D01*
X111982300Y-78197207D01*
X111873033Y-78277850D01*
X111792390Y-78387117D01*
X111792389Y-78387119D01*
X111747536Y-78515298D01*
X111747536Y-78515300D01*
X111744683Y-78545730D01*
X111744683Y-80654269D01*
X111747536Y-80684699D01*
X111747536Y-80684701D01*
X111792389Y-80812880D01*
X111792390Y-80812882D01*
X111873033Y-80922150D01*
X111982301Y-81002793D01*
X112025028Y-81017744D01*
X112110482Y-81047646D01*
X112140913Y-81050500D01*
X112140917Y-81050500D01*
X112749453Y-81050500D01*
X112779882Y-81047646D01*
X112779884Y-81047646D01*
X112843973Y-81025219D01*
X112908065Y-81002793D01*
X113017333Y-80922150D01*
X113097976Y-80812882D01*
X113120402Y-80748790D01*
X113142829Y-80684701D01*
X113142829Y-80684699D01*
X113145683Y-80654269D01*
X113145683Y-78545730D01*
X113142829Y-78515300D01*
X113142829Y-78515298D01*
X113097976Y-78387119D01*
X113097975Y-78387117D01*
X113017333Y-78277850D01*
X112908065Y-78197207D01*
X112804927Y-78161117D01*
X112748152Y-78120395D01*
X112722405Y-78055442D01*
X112721883Y-78044076D01*
X112721883Y-74253809D01*
X112741568Y-74186770D01*
X112794372Y-74141015D01*
X112863530Y-74131071D01*
X112927086Y-74160096D01*
X112933564Y-74166128D01*
X114672164Y-75904728D01*
X114705649Y-75966051D01*
X114708483Y-75992409D01*
X114708483Y-78044076D01*
X114688798Y-78111115D01*
X114635994Y-78156870D01*
X114625439Y-78161117D01*
X114522300Y-78197207D01*
X114413033Y-78277850D01*
X114332390Y-78387117D01*
X114332389Y-78387119D01*
X114287536Y-78515298D01*
X114287536Y-78515300D01*
X114284683Y-78545730D01*
X114284683Y-80654269D01*
X114287536Y-80684699D01*
X114287536Y-80684701D01*
X114332389Y-80812880D01*
X114332390Y-80812882D01*
X114413033Y-80922150D01*
X114522301Y-81002793D01*
X114565028Y-81017744D01*
X114650482Y-81047646D01*
X114680913Y-81050500D01*
X114680917Y-81050500D01*
X115289453Y-81050500D01*
X115319882Y-81047646D01*
X115319884Y-81047646D01*
X115383973Y-81025219D01*
X115448065Y-81002793D01*
X115557333Y-80922150D01*
X115637976Y-80812882D01*
X115660402Y-80748790D01*
X115682829Y-80684701D01*
X115682829Y-80684699D01*
X115685683Y-80654269D01*
X115685683Y-78545730D01*
X115682829Y-78515300D01*
X115682829Y-78515298D01*
X115637976Y-78387119D01*
X115637975Y-78387117D01*
X115557333Y-78277850D01*
X115448065Y-78197207D01*
X115344927Y-78161117D01*
X115288152Y-78120395D01*
X115262405Y-78055442D01*
X115261883Y-78044076D01*
X115261883Y-75790009D01*
X115261882Y-75790002D01*
X115247252Y-75735398D01*
X115247251Y-75735396D01*
X115243028Y-75719633D01*
X115222120Y-75683420D01*
X115206598Y-75656536D01*
X115206597Y-75656535D01*
X115206595Y-75656532D01*
X112713019Y-73162956D01*
X112679534Y-73101633D01*
X112676700Y-73075275D01*
X112676700Y-70577263D01*
X112696385Y-70510224D01*
X112713019Y-70489582D01*
X114776595Y-68426006D01*
X114776598Y-68426003D01*
X114792835Y-68397880D01*
X114813027Y-68362909D01*
X114813027Y-68362908D01*
X114831882Y-68292538D01*
X114831883Y-68292532D01*
X114831883Y-60760009D01*
X114831882Y-60760002D01*
X114813027Y-60689632D01*
X114813027Y-60689630D01*
X114776601Y-60626542D01*
X114776598Y-60626536D01*
X114725081Y-60575019D01*
X113218901Y-59068839D01*
X111675084Y-57525021D01*
X111675075Y-57525015D01*
X111611987Y-57488589D01*
X111541616Y-57469734D01*
X111541611Y-57469734D01*
X106518755Y-57469734D01*
X106518753Y-57469734D01*
X106448380Y-57488590D01*
X106429487Y-57499499D01*
X106429485Y-57499500D01*
X106385288Y-57525017D01*
X106385282Y-57525021D01*
X104533770Y-59376532D01*
X104533768Y-59376535D01*
X104497337Y-59439633D01*
X104493114Y-59455396D01*
X104493114Y-59455398D01*
X104478483Y-59510002D01*
X104478483Y-60094763D01*
X104458798Y-60161802D01*
X104416483Y-60202150D01*
X104386470Y-60219477D01*
X104386465Y-60219481D01*
X104274664Y-60331282D01*
X104274658Y-60331290D01*
X104195609Y-60468209D01*
X104195606Y-60468216D01*
X104154683Y-60620943D01*
X104154683Y-60779057D01*
X104162666Y-60808848D01*
X104195606Y-60931783D01*
X104195609Y-60931790D01*
X104274658Y-61068709D01*
X104274662Y-61068714D01*
X104274663Y-61068716D01*
X104386467Y-61180520D01*
X104386469Y-61180521D01*
X104386473Y-61180524D01*
X104523392Y-61259573D01*
X104523399Y-61259577D01*
X104676126Y-61300500D01*
X104676128Y-61300500D01*
X104834238Y-61300500D01*
X104834240Y-61300500D01*
X104986967Y-61259577D01*
X105123899Y-61180520D01*
X105235703Y-61068716D01*
X105314760Y-60931784D01*
X105355683Y-60779057D01*
X105355683Y-60620943D01*
X105319979Y-60487693D01*
X105321642Y-60417847D01*
X105360804Y-60359984D01*
X105425033Y-60332480D01*
X105493935Y-60344066D01*
X105527435Y-60367922D01*
X105636467Y-60476954D01*
X105636469Y-60476955D01*
X105636473Y-60476958D01*
X105773392Y-60556007D01*
X105773399Y-60556011D01*
X105926126Y-60596934D01*
X105926128Y-60596934D01*
X105960528Y-60596934D01*
X106027567Y-60616619D01*
X106073322Y-60669423D01*
X106084528Y-60720934D01*
X106084528Y-60808849D01*
X106125451Y-60961576D01*
X106125454Y-60961583D01*
X106204503Y-61098502D01*
X106204507Y-61098507D01*
X106204508Y-61098509D01*
X106316312Y-61210313D01*
X106316314Y-61210314D01*
X106316318Y-61210317D01*
X106416604Y-61268216D01*
X106453244Y-61289370D01*
X106605971Y-61330293D01*
X106605973Y-61330293D01*
X106764083Y-61330293D01*
X106764085Y-61330293D01*
X106916812Y-61289370D01*
X107053744Y-61210313D01*
X107165548Y-61098509D01*
X107244605Y-60961577D01*
X107285528Y-60808850D01*
X107285528Y-60650736D01*
X107244605Y-60498009D01*
X107167900Y-60365150D01*
X107165552Y-60361083D01*
X107165546Y-60361075D01*
X107053746Y-60249275D01*
X107053744Y-60249273D01*
X107021083Y-60230416D01*
X106972867Y-60179849D01*
X106959083Y-60123029D01*
X106959083Y-59585209D01*
X106978768Y-59518170D01*
X106995402Y-59497528D01*
X107483477Y-59009453D01*
X107544800Y-58975968D01*
X107571158Y-58973134D01*
X110389208Y-58973134D01*
X110456247Y-58992819D01*
X110476889Y-59009453D01*
X113681364Y-62213928D01*
X113714849Y-62275251D01*
X113717683Y-62301609D01*
X113717683Y-67839642D01*
X113697998Y-67906681D01*
X113681364Y-67927323D01*
X113476587Y-68132099D01*
X113415264Y-68165584D01*
X113345572Y-68160600D01*
X113289639Y-68118728D01*
X113269132Y-68076512D01*
X113259577Y-68040850D01*
X113220450Y-67973079D01*
X113180524Y-67903924D01*
X113180518Y-67903916D01*
X113068717Y-67792115D01*
X113068712Y-67792111D01*
X113038700Y-67774784D01*
X112990485Y-67724217D01*
X112976700Y-67667397D01*
X112976700Y-65705236D01*
X112996385Y-65638197D01*
X113038699Y-65597849D01*
X113068716Y-65580520D01*
X113180520Y-65468716D01*
X113259577Y-65331784D01*
X113300500Y-65179057D01*
X113300500Y-65020943D01*
X113259577Y-64868216D01*
X113259573Y-64868209D01*
X113180524Y-64731290D01*
X113180518Y-64731282D01*
X113068717Y-64619481D01*
X113068709Y-64619475D01*
X112931790Y-64540426D01*
X112931786Y-64540424D01*
X112931784Y-64540423D01*
X112779057Y-64499500D01*
X112620943Y-64499500D01*
X112468216Y-64540423D01*
X112468209Y-64540426D01*
X112331290Y-64619475D01*
X112331282Y-64619481D01*
X112219481Y-64731282D01*
X112219475Y-64731290D01*
X112140426Y-64868209D01*
X112140423Y-64868216D01*
X112099500Y-65020943D01*
X112099500Y-65179056D01*
X112140423Y-65331783D01*
X112140426Y-65331790D01*
X112219475Y-65468709D01*
X112219479Y-65468714D01*
X112219480Y-65468716D01*
X112331284Y-65580520D01*
X112361300Y-65597849D01*
X112409514Y-65648413D01*
X112423300Y-65705236D01*
X112423300Y-67667397D01*
X112403615Y-67734436D01*
X112361300Y-67774784D01*
X112331287Y-67792111D01*
X112331282Y-67792115D01*
X112219481Y-67903916D01*
X112219477Y-67903921D01*
X112207387Y-67924863D01*
X112156820Y-67973079D01*
X112088213Y-67986302D01*
X112023348Y-67960334D01*
X111992613Y-67924863D01*
X111980522Y-67903921D01*
X111980518Y-67903916D01*
X111868717Y-67792115D01*
X111868712Y-67792111D01*
X111838700Y-67774784D01*
X111790485Y-67724217D01*
X111776700Y-67667397D01*
X111776700Y-66905236D01*
X111796385Y-66838197D01*
X111838699Y-66797849D01*
X111868716Y-66780520D01*
X111980520Y-66668716D01*
X112059577Y-66531784D01*
X112100500Y-66379057D01*
X112100500Y-66220943D01*
X112059577Y-66068216D01*
X112059573Y-66068209D01*
X111980524Y-65931290D01*
X111980518Y-65931282D01*
X111868717Y-65819481D01*
X111868709Y-65819475D01*
X111731790Y-65740426D01*
X111731786Y-65740424D01*
X111731784Y-65740423D01*
X111579057Y-65699500D01*
X111420943Y-65699500D01*
X111268216Y-65740423D01*
X111268209Y-65740426D01*
X111131290Y-65819475D01*
X111131282Y-65819481D01*
X111019481Y-65931282D01*
X111019475Y-65931290D01*
X110940426Y-66068209D01*
X110940423Y-66068216D01*
X110899500Y-66220943D01*
X110899500Y-66379056D01*
X110940423Y-66531783D01*
X110940426Y-66531790D01*
X111019475Y-66668709D01*
X111019479Y-66668714D01*
X111019480Y-66668716D01*
X111131284Y-66780520D01*
X111161300Y-66797849D01*
X111209514Y-66848413D01*
X111223300Y-66905236D01*
X111223300Y-67667397D01*
X111203615Y-67734436D01*
X111161300Y-67774784D01*
X111131287Y-67792111D01*
X111131282Y-67792115D01*
X111019481Y-67903916D01*
X111019475Y-67903924D01*
X110940426Y-68040843D01*
X110940423Y-68040850D01*
X110899500Y-68193577D01*
X110899500Y-68351690D01*
X110940423Y-68504417D01*
X110940426Y-68504424D01*
X111019475Y-68641343D01*
X111019479Y-68641348D01*
X111019480Y-68641350D01*
X111131284Y-68753154D01*
X111131286Y-68753155D01*
X111131290Y-68753158D01*
X111268209Y-68832207D01*
X111268216Y-68832211D01*
X111420943Y-68873134D01*
X111420945Y-68873134D01*
X111579055Y-68873134D01*
X111579057Y-68873134D01*
X111731784Y-68832211D01*
X111868716Y-68753154D01*
X111980520Y-68641350D01*
X111992612Y-68620406D01*
X112043178Y-68572189D01*
X112111785Y-68558965D01*
X112176650Y-68584932D01*
X112207388Y-68620406D01*
X112219477Y-68641346D01*
X112219479Y-68641349D01*
X112219480Y-68641350D01*
X112331284Y-68753154D01*
X112331286Y-68753155D01*
X112331290Y-68753158D01*
X112468209Y-68832207D01*
X112468216Y-68832211D01*
X112503877Y-68841766D01*
X112563536Y-68878129D01*
X112594066Y-68940975D01*
X112585772Y-69010351D01*
X112559464Y-69049221D01*
X111578587Y-70030098D01*
X111578585Y-70030101D01*
X111542154Y-70093199D01*
X111537931Y-70108962D01*
X111537931Y-70108964D01*
X111523300Y-70163568D01*
X111523300Y-74258529D01*
X111503615Y-74325568D01*
X111450811Y-74371323D01*
X111381653Y-74381267D01*
X111337301Y-74365917D01*
X111286967Y-74336857D01*
X111282339Y-74335617D01*
X111134240Y-74295934D01*
X111121613Y-74295934D01*
X111054574Y-74276249D01*
X111008819Y-74223445D01*
X110998875Y-74154287D01*
X111001838Y-74139843D01*
X111005682Y-74125495D01*
X111005683Y-74125489D01*
X111005683Y-73967379D01*
X111005683Y-73967377D01*
X110964760Y-73814650D01*
X110949635Y-73788453D01*
X110885707Y-73677724D01*
X110885701Y-73677716D01*
X110773900Y-73565915D01*
X110773892Y-73565909D01*
X110759402Y-73557543D01*
X110711187Y-73506976D01*
X110697965Y-73438369D01*
X110723933Y-73373504D01*
X110780848Y-73332976D01*
X110786127Y-73331358D01*
X110786956Y-73331013D01*
X110786967Y-73331011D01*
X110923899Y-73251954D01*
X111035703Y-73140150D01*
X111114760Y-73003218D01*
X111155683Y-72850491D01*
X111155683Y-72692377D01*
X111114760Y-72539650D01*
X111088204Y-72493653D01*
X111035707Y-72402724D01*
X111035701Y-72402716D01*
X110923900Y-72290915D01*
X110923892Y-72290909D01*
X110786973Y-72211860D01*
X110786969Y-72211858D01*
X110786967Y-72211857D01*
X110634240Y-72170934D01*
X110476126Y-72170934D01*
X110426937Y-72184113D01*
X110357088Y-72182451D01*
X110299226Y-72143288D01*
X110275071Y-72096435D01*
X110239760Y-71964650D01*
X110207917Y-71909495D01*
X110160707Y-71827724D01*
X110160701Y-71827716D01*
X110048900Y-71715915D01*
X110048892Y-71715909D01*
X109911973Y-71636860D01*
X109911969Y-71636858D01*
X109911967Y-71636857D01*
X109759240Y-71595934D01*
X109601126Y-71595934D01*
X109451325Y-71636073D01*
X109381475Y-71634410D01*
X109323613Y-71595247D01*
X109311848Y-71578303D01*
X109236022Y-71446967D01*
X109124218Y-71335163D01*
X109124216Y-71335162D01*
X109124211Y-71335158D01*
X108987292Y-71256109D01*
X108987288Y-71256107D01*
X108987286Y-71256106D01*
X108834559Y-71215183D01*
X108676445Y-71215183D01*
X108523718Y-71256106D01*
X108523711Y-71256109D01*
X108386792Y-71335158D01*
X108386784Y-71335164D01*
X108274983Y-71446965D01*
X108274977Y-71446973D01*
X108195928Y-71583892D01*
X108195925Y-71583899D01*
X108155002Y-71736626D01*
X108155002Y-71894744D01*
X108163972Y-71928220D01*
X108162308Y-71998069D01*
X108131878Y-72047992D01*
X107892889Y-72286982D01*
X107831569Y-72320466D01*
X107805210Y-72323300D01*
X104818859Y-72323300D01*
X104748486Y-72342156D01*
X104733135Y-72351020D01*
X104733133Y-72351021D01*
X104685394Y-72378583D01*
X104685388Y-72378587D01*
X104361922Y-72702053D01*
X104300599Y-72735538D01*
X104230907Y-72730554D01*
X104174974Y-72688682D01*
X104165606Y-72672228D01*
X104165229Y-72672446D01*
X104082112Y-72528482D01*
X104082106Y-72528474D01*
X103970305Y-72416673D01*
X103970297Y-72416667D01*
X103833378Y-72337618D01*
X103833374Y-72337616D01*
X103833372Y-72337615D01*
X103680645Y-72296692D01*
X103522531Y-72296692D01*
X103369804Y-72337615D01*
X103369797Y-72337618D01*
X103232878Y-72416667D01*
X103232870Y-72416673D01*
X103121069Y-72528474D01*
X103121063Y-72528482D01*
X103042014Y-72665401D01*
X103042011Y-72665408D01*
X103001088Y-72818135D01*
X103001088Y-72976253D01*
X103010058Y-73009729D01*
X103008394Y-73079578D01*
X102977964Y-73129501D01*
X102143652Y-73963815D01*
X102082329Y-73997300D01*
X102055971Y-74000134D01*
X101567158Y-74000134D01*
X101500119Y-73980449D01*
X101454364Y-73927645D01*
X101444420Y-73858487D01*
X101473445Y-73794931D01*
X101479477Y-73788453D01*
X101913652Y-73354278D01*
X102351598Y-72916332D01*
X102352879Y-72914112D01*
X102375449Y-72875022D01*
X102375450Y-72875019D01*
X102377517Y-72871439D01*
X102388027Y-72853236D01*
X102406883Y-72782862D01*
X102406883Y-71601670D01*
X102426568Y-71534631D01*
X102468882Y-71494283D01*
X102498899Y-71476954D01*
X102610703Y-71365150D01*
X102689760Y-71228218D01*
X102730683Y-71075491D01*
X102730683Y-70917377D01*
X102689760Y-70764650D01*
X102626144Y-70654462D01*
X102610707Y-70627724D01*
X102610701Y-70627716D01*
X102498900Y-70515915D01*
X102498892Y-70515909D01*
X102361973Y-70436860D01*
X102361969Y-70436858D01*
X102361967Y-70436857D01*
X102209240Y-70395934D01*
X102051126Y-70395934D01*
X101898399Y-70436857D01*
X101898392Y-70436860D01*
X101761473Y-70515909D01*
X101761465Y-70515915D01*
X101649664Y-70627716D01*
X101649658Y-70627724D01*
X101570609Y-70764643D01*
X101570606Y-70764650D01*
X101529683Y-70917377D01*
X101529683Y-71075491D01*
X101567114Y-71215183D01*
X101570606Y-71228217D01*
X101570609Y-71228224D01*
X101649658Y-71365143D01*
X101649662Y-71365148D01*
X101649663Y-71365150D01*
X101761467Y-71476954D01*
X101791483Y-71494283D01*
X101839697Y-71544847D01*
X101853483Y-71601670D01*
X101853483Y-72580459D01*
X101833798Y-72647498D01*
X101817164Y-72668140D01*
X100998323Y-73486981D01*
X100937000Y-73520466D01*
X100910642Y-73523300D01*
X93957481Y-73523300D01*
X93887107Y-73542156D01*
X93850823Y-73563105D01*
X93845960Y-73565914D01*
X93839439Y-73569678D01*
X93824013Y-73578584D01*
X93824011Y-73578586D01*
X91903770Y-75498826D01*
X91903764Y-75498835D01*
X91867338Y-75561923D01*
X91867338Y-75561925D01*
X91855793Y-75605016D01*
X91855793Y-75605017D01*
X91848483Y-75632298D01*
X91848483Y-78044076D01*
X91828798Y-78111115D01*
X91775994Y-78156870D01*
X91765439Y-78161117D01*
X91662300Y-78197207D01*
X91553033Y-78277850D01*
X91472390Y-78387117D01*
X91472389Y-78387119D01*
X91427536Y-78515298D01*
X91427536Y-78515300D01*
X91424683Y-78545730D01*
X90755498Y-78545730D01*
X90755498Y-72022289D01*
X90775183Y-71955250D01*
X90827987Y-71909495D01*
X90897145Y-71899551D01*
X90960701Y-71928576D01*
X90997429Y-71983970D01*
X91049964Y-72145657D01*
X91083697Y-72211860D01*
X91126921Y-72296692D01*
X91142898Y-72328047D01*
X91263211Y-72493647D01*
X91407969Y-72638405D01*
X91562932Y-72750990D01*
X91573573Y-72758721D01*
X91687756Y-72816900D01*
X91755959Y-72851652D01*
X91755961Y-72851652D01*
X91755964Y-72851654D01*
X91855432Y-72883973D01*
X91950648Y-72914911D01*
X92051740Y-72930922D01*
X92152831Y-72946934D01*
X92152832Y-72946934D01*
X92357534Y-72946934D01*
X92357535Y-72946934D01*
X92559717Y-72914911D01*
X92754402Y-72851654D01*
X92756687Y-72850490D01*
X92759010Y-72849306D01*
X92936793Y-72758721D01*
X93047777Y-72678087D01*
X93102396Y-72638405D01*
X93102398Y-72638402D01*
X93102402Y-72638400D01*
X93247149Y-72493653D01*
X93247151Y-72493649D01*
X93247154Y-72493647D01*
X93303078Y-72416673D01*
X93367470Y-72328044D01*
X93460403Y-72145653D01*
X93523660Y-71950968D01*
X93555683Y-71748786D01*
X93555683Y-71544082D01*
X93545051Y-71476954D01*
X93523660Y-71341899D01*
X93460401Y-71147210D01*
X93423857Y-71075489D01*
X93367470Y-70964824D01*
X93359739Y-70954183D01*
X93247154Y-70799220D01*
X93102396Y-70654462D01*
X92936796Y-70534149D01*
X92936795Y-70534148D01*
X92936793Y-70534147D01*
X92879836Y-70505125D01*
X92754406Y-70441215D01*
X92559717Y-70377956D01*
X92385178Y-70350312D01*
X92357535Y-70345934D01*
X92152831Y-70345934D01*
X92128512Y-70349785D01*
X91950648Y-70377956D01*
X91755959Y-70441215D01*
X91573569Y-70534149D01*
X91407969Y-70654462D01*
X91263211Y-70799220D01*
X91142898Y-70964820D01*
X91049964Y-71147210D01*
X90997429Y-71308897D01*
X90957991Y-71366572D01*
X90893632Y-71393770D01*
X90824786Y-71381855D01*
X90773310Y-71334611D01*
X90755498Y-71270578D01*
X90755498Y-55918788D01*
X90775183Y-55851749D01*
X90827987Y-55805994D01*
X90879498Y-55794788D01*
X91755498Y-55794788D01*
X91755498Y-53944278D01*
X96605183Y-53944278D01*
X96611584Y-54003806D01*
X96611586Y-54003813D01*
X96661828Y-54138520D01*
X96661832Y-54138527D01*
X96747992Y-54253621D01*
X96747995Y-54253624D01*
X96863089Y-54339784D01*
X96863096Y-54339788D01*
X96997803Y-54390030D01*
X96997810Y-54390032D01*
X97057338Y-54396433D01*
X97057355Y-54396434D01*
X97605183Y-54396434D01*
X97605183Y-53396434D01*
X96605183Y-53396434D01*
X96605183Y-53944278D01*
X91755498Y-53944278D01*
X91755498Y-52518525D01*
X91775183Y-52451486D01*
X91827987Y-52405731D01*
X91879233Y-52394525D01*
X96480923Y-52384755D01*
X96548001Y-52404296D01*
X96593868Y-52457003D01*
X96605183Y-52508754D01*
X96605183Y-52896434D01*
X97731183Y-52896434D01*
X97798222Y-52916119D01*
X97843977Y-52968923D01*
X97855183Y-53020434D01*
X97855183Y-53146434D01*
X97981183Y-53146434D01*
X98048222Y-53166119D01*
X98093977Y-53218923D01*
X98105183Y-53270434D01*
X98105183Y-54396434D01*
X98653011Y-54396434D01*
X98653027Y-54396433D01*
X98712555Y-54390032D01*
X98712562Y-54390030D01*
X98847269Y-54339788D01*
X98847271Y-54339786D01*
X98962369Y-54253624D01*
X98962371Y-54253622D01*
X98987203Y-54220451D01*
X98992627Y-54216390D01*
X98995656Y-54210329D01*
X99020240Y-54195719D01*
X99043136Y-54178579D01*
X99051317Y-54177250D01*
X99055720Y-54174634D01*
X99072155Y-54173865D01*
X99090809Y-54170836D01*
X99101395Y-54171206D01*
X99103628Y-54171932D01*
X99122131Y-54171932D01*
X99122176Y-54171934D01*
X100020321Y-54171934D01*
X100087360Y-54191619D01*
X100133115Y-54244423D01*
X100143059Y-54313581D01*
X100115183Y-54374621D01*
X100115183Y-54734278D01*
X100121584Y-54793806D01*
X100121586Y-54793813D01*
X100171828Y-54928520D01*
X100171832Y-54928527D01*
X100257992Y-55043621D01*
X100257995Y-55043624D01*
X100373089Y-55129784D01*
X100373096Y-55129788D01*
X100507803Y-55180030D01*
X100507810Y-55180032D01*
X100567338Y-55186433D01*
X100567355Y-55186434D01*
X100615183Y-55186434D01*
X100615183Y-54376434D01*
X100407319Y-54376434D01*
X100340280Y-54356749D01*
X100294525Y-54303945D01*
X100284581Y-54234787D01*
X100313606Y-54171231D01*
X100326734Y-54158190D01*
X100343791Y-54143604D01*
X100354786Y-54140033D01*
X100438200Y-54079440D01*
X100469983Y-54035702D01*
X100481108Y-54026190D01*
X100500167Y-54017636D01*
X100516715Y-54004879D01*
X100537141Y-54001043D01*
X100544853Y-53997583D01*
X100550803Y-53998478D01*
X100561693Y-53996434D01*
X100681183Y-53996434D01*
X100748222Y-54016119D01*
X100793977Y-54068923D01*
X100805183Y-54120434D01*
X100805183Y-54186434D01*
X100811210Y-54192461D01*
X100857722Y-54206119D01*
X100903477Y-54258923D01*
X100914683Y-54310434D01*
X100914683Y-54706186D01*
X100926314Y-54764663D01*
X100926315Y-54764664D01*
X100974285Y-54836455D01*
X100995163Y-54903132D01*
X100995183Y-54905346D01*
X100995183Y-55186434D01*
X101043011Y-55186434D01*
X101043027Y-55186433D01*
X101102555Y-55180032D01*
X101102562Y-55180030D01*
X101237269Y-55129788D01*
X101237276Y-55129784D01*
X101352369Y-55043624D01*
X101433325Y-54935483D01*
X101455450Y-54918919D01*
X101475378Y-54899783D01*
X101484711Y-54897015D01*
X101489259Y-54893612D01*
X101508689Y-54888120D01*
X101514726Y-54886934D01*
X101514931Y-54886934D01*
X101531210Y-54883695D01*
X101531280Y-54883682D01*
X101531911Y-54883740D01*
X101579378Y-54883740D01*
X101581882Y-54884238D01*
X101595433Y-54886934D01*
X101875500Y-54886934D01*
X101884185Y-54889484D01*
X101893147Y-54888196D01*
X101917187Y-54899174D01*
X101942539Y-54906619D01*
X101948466Y-54913459D01*
X101956703Y-54917221D01*
X101970992Y-54939455D01*
X101988294Y-54959423D01*
X101990581Y-54969937D01*
X101994477Y-54975999D01*
X101999500Y-55010934D01*
X101999500Y-55024167D01*
X101979815Y-55091206D01*
X101963181Y-55111848D01*
X101111848Y-55963181D01*
X101050525Y-55996666D01*
X101024167Y-55999500D01*
X99422422Y-55999500D01*
X99355383Y-55979815D01*
X99315034Y-55937499D01*
X99314095Y-55935872D01*
X99280520Y-55877718D01*
X99168716Y-55765914D01*
X99168714Y-55765913D01*
X99168709Y-55765909D01*
X99031790Y-55686860D01*
X99031786Y-55686858D01*
X99031784Y-55686857D01*
X98879057Y-55645934D01*
X98720943Y-55645934D01*
X98568216Y-55686857D01*
X98568209Y-55686860D01*
X98431290Y-55765909D01*
X98431282Y-55765915D01*
X98319481Y-55877716D01*
X98319475Y-55877724D01*
X98240426Y-56014643D01*
X98240423Y-56014650D01*
X98199500Y-56167377D01*
X98199500Y-56325491D01*
X98202536Y-56336819D01*
X98240423Y-56478217D01*
X98240426Y-56478224D01*
X98319475Y-56615143D01*
X98319479Y-56615148D01*
X98319480Y-56615150D01*
X98431284Y-56726954D01*
X98431286Y-56726955D01*
X98431290Y-56726958D01*
X98568209Y-56806007D01*
X98568216Y-56806011D01*
X98720943Y-56846934D01*
X98720945Y-56846934D01*
X98879055Y-56846934D01*
X98879057Y-56846934D01*
X99031784Y-56806011D01*
X99168716Y-56726954D01*
X99258851Y-56636819D01*
X99320174Y-56603334D01*
X99346532Y-56600500D01*
X101160438Y-56600500D01*
X101239562Y-56600500D01*
X101524167Y-56600500D01*
X101591206Y-56620185D01*
X101611848Y-56636819D01*
X102015489Y-57040460D01*
X102074829Y-57074720D01*
X102084008Y-57080020D01*
X102084012Y-57080022D01*
X102160438Y-57100500D01*
X102160440Y-57100500D01*
X102924052Y-57100500D01*
X102991091Y-57120185D01*
X103036846Y-57172989D01*
X103046790Y-57242147D01*
X103017765Y-57305703D01*
X102975252Y-57336357D01*
X102975254Y-57336359D01*
X102975236Y-57336368D01*
X102971502Y-57339062D01*
X102968211Y-57340424D01*
X102831290Y-57419475D01*
X102831282Y-57419481D01*
X102719481Y-57531282D01*
X102719475Y-57531290D01*
X102640426Y-57668209D01*
X102640423Y-57668216D01*
X102599500Y-57820943D01*
X102599500Y-57979057D01*
X102603117Y-57992559D01*
X102602832Y-58004558D01*
X102607027Y-58015805D01*
X102602016Y-58038839D01*
X102601455Y-58062407D01*
X102594355Y-58074054D01*
X102592175Y-58084078D01*
X102571024Y-58112332D01*
X102407716Y-58275640D01*
X102346393Y-58309125D01*
X102276701Y-58304141D01*
X102220768Y-58262269D01*
X102200262Y-58220057D01*
X102159577Y-58068216D01*
X102129318Y-58015805D01*
X102080524Y-57931290D01*
X102080518Y-57931282D01*
X101968717Y-57819481D01*
X101968709Y-57819475D01*
X101831790Y-57740426D01*
X101831786Y-57740424D01*
X101831784Y-57740423D01*
X101679057Y-57699500D01*
X101520943Y-57699500D01*
X101368216Y-57740423D01*
X101368209Y-57740426D01*
X101231290Y-57819475D01*
X101231282Y-57819481D01*
X101119481Y-57931282D01*
X101119475Y-57931290D01*
X101040426Y-58068209D01*
X101040423Y-58068216D01*
X100999500Y-58220943D01*
X100999500Y-58379057D01*
X101001358Y-58385992D01*
X100999693Y-58455842D01*
X100969263Y-58505764D01*
X97715489Y-61759540D01*
X97659541Y-61815487D01*
X97659535Y-61815495D01*
X97619982Y-61884004D01*
X97619979Y-61884009D01*
X97599500Y-61960439D01*
X97599500Y-63308504D01*
X97579815Y-63375543D01*
X97537501Y-63415890D01*
X97531290Y-63419475D01*
X97531281Y-63419482D01*
X97419481Y-63531282D01*
X97419475Y-63531290D01*
X97340426Y-63668209D01*
X97340423Y-63668216D01*
X97299500Y-63820943D01*
X97299500Y-63979057D01*
X97336590Y-64117477D01*
X97340423Y-64131783D01*
X97340426Y-64131790D01*
X97419475Y-64268709D01*
X97419479Y-64268714D01*
X97419480Y-64268716D01*
X97531284Y-64380520D01*
X97531286Y-64380521D01*
X97531290Y-64380524D01*
X97668209Y-64459573D01*
X97668216Y-64459577D01*
X97820943Y-64500500D01*
X97820945Y-64500500D01*
X97979055Y-64500500D01*
X97979057Y-64500500D01*
X98131784Y-64459577D01*
X98268716Y-64380520D01*
X98380520Y-64268716D01*
X98459577Y-64131784D01*
X98499063Y-63984419D01*
X98535426Y-63924762D01*
X98598272Y-63894233D01*
X98667648Y-63902527D01*
X98680834Y-63909127D01*
X98768216Y-63959577D01*
X98920943Y-64000500D01*
X98920945Y-64000500D01*
X99079055Y-64000500D01*
X99079057Y-64000500D01*
X99231784Y-63959577D01*
X99368716Y-63880520D01*
X99480520Y-63768716D01*
X99538543Y-63668216D01*
X99559574Y-63631790D01*
X99559575Y-63631787D01*
X99559577Y-63631784D01*
X99559577Y-63631780D01*
X99560598Y-63629318D01*
X99562020Y-63627552D01*
X99563641Y-63624746D01*
X99564078Y-63624998D01*
X99604437Y-63574912D01*
X99670731Y-63552845D01*
X99738430Y-63570122D01*
X99786043Y-63621257D01*
X99794934Y-63644668D01*
X99801242Y-63668209D01*
X99822826Y-63748761D01*
X99822829Y-63748768D01*
X99901878Y-63885687D01*
X99901882Y-63885692D01*
X99901883Y-63885694D01*
X100013687Y-63997498D01*
X100013689Y-63997499D01*
X100013693Y-63997502D01*
X100150612Y-64076551D01*
X100150619Y-64076555D01*
X100303346Y-64117478D01*
X100303348Y-64117478D01*
X100461458Y-64117478D01*
X100461460Y-64117478D01*
X100614187Y-64076555D01*
X100751119Y-63997498D01*
X100862923Y-63885694D01*
X100941980Y-63748762D01*
X100982903Y-63596035D01*
X100982903Y-63437921D01*
X100941980Y-63285194D01*
X100907752Y-63225908D01*
X100862927Y-63148268D01*
X100862921Y-63148260D01*
X100790667Y-63076006D01*
X100757182Y-63014683D01*
X100762166Y-62944991D01*
X100790662Y-62900649D01*
X101078296Y-62613016D01*
X101139617Y-62579534D01*
X101165975Y-62576700D01*
X109336428Y-62576700D01*
X109336433Y-62576699D01*
X109406803Y-62557844D01*
X109406804Y-62557844D01*
X109441775Y-62537652D01*
X109469898Y-62521415D01*
X109867692Y-62123619D01*
X109929011Y-62090137D01*
X109987462Y-62091528D01*
X110020943Y-62100500D01*
X110020945Y-62100500D01*
X110179055Y-62100500D01*
X110179057Y-62100500D01*
X110331784Y-62059577D01*
X110468716Y-61980520D01*
X110580520Y-61868716D01*
X110659577Y-61731784D01*
X110700500Y-61579057D01*
X110700500Y-61420943D01*
X110659577Y-61268216D01*
X110654587Y-61259573D01*
X110580524Y-61131290D01*
X110580518Y-61131282D01*
X110468717Y-61019481D01*
X110468709Y-61019475D01*
X110331790Y-60940426D01*
X110331786Y-60940424D01*
X110331784Y-60940423D01*
X110179057Y-60899500D01*
X110020943Y-60899500D01*
X109868216Y-60940423D01*
X109868209Y-60940426D01*
X109731290Y-61019475D01*
X109731282Y-61019481D01*
X109619481Y-61131282D01*
X109619475Y-61131290D01*
X109540426Y-61268209D01*
X109540423Y-61268216D01*
X109499500Y-61420943D01*
X109499500Y-61579061D01*
X109508470Y-61612537D01*
X109506806Y-61682386D01*
X109476376Y-61732309D01*
X109221704Y-61986982D01*
X109160384Y-62020466D01*
X109134025Y-62023300D01*
X100963566Y-62023300D01*
X100893196Y-62042155D01*
X100893195Y-62042155D01*
X100830107Y-62078581D01*
X100830098Y-62078587D01*
X100160990Y-62747695D01*
X100160988Y-62747698D01*
X100124557Y-62810796D01*
X100121980Y-62820417D01*
X100121978Y-62820425D01*
X100105703Y-62881169D01*
X100105703Y-62921649D01*
X100104131Y-62931426D01*
X100093181Y-62954382D01*
X100086018Y-62978780D01*
X100077815Y-62986601D01*
X100074053Y-62994490D01*
X100061179Y-63002464D01*
X100043703Y-63019128D01*
X100013690Y-63036455D01*
X100013685Y-63036459D01*
X99901884Y-63148260D01*
X99901878Y-63148268D01*
X99822824Y-63285195D01*
X99821798Y-63287673D01*
X99820374Y-63289439D01*
X99818762Y-63292232D01*
X99818326Y-63291980D01*
X99777952Y-63342073D01*
X99711656Y-63364132D01*
X99643959Y-63346847D01*
X99596352Y-63295706D01*
X99587470Y-63272315D01*
X99559577Y-63168216D01*
X99483508Y-63036459D01*
X99480524Y-63031290D01*
X99480518Y-63031282D01*
X99368718Y-62919482D01*
X99368716Y-62919480D01*
X99368713Y-62919478D01*
X99368709Y-62919475D01*
X99362499Y-62915890D01*
X99314284Y-62865323D01*
X99300500Y-62808504D01*
X99300500Y-62275832D01*
X99320185Y-62208793D01*
X99336814Y-62188156D01*
X101162027Y-60362942D01*
X101166510Y-60358679D01*
X101176278Y-60349843D01*
X101193260Y-60340040D01*
X101249209Y-60284091D01*
X103000805Y-58532493D01*
X103062126Y-58499010D01*
X103112784Y-58500217D01*
X103112887Y-58499439D01*
X103120125Y-58500392D01*
X103120580Y-58500402D01*
X103120943Y-58500500D01*
X103120947Y-58500500D01*
X103279055Y-58500500D01*
X103279057Y-58500500D01*
X103431784Y-58459577D01*
X103568716Y-58380520D01*
X103680520Y-58268716D01*
X103759577Y-58131784D01*
X103800500Y-57979057D01*
X103800500Y-57820943D01*
X103759577Y-57668216D01*
X103759573Y-57668209D01*
X103680524Y-57531290D01*
X103680518Y-57531282D01*
X103568717Y-57419481D01*
X103568709Y-57419475D01*
X103431788Y-57340424D01*
X103428498Y-57339062D01*
X103426148Y-57337168D01*
X103424746Y-57336359D01*
X103424872Y-57336140D01*
X103374093Y-57295222D01*
X103352027Y-57228928D01*
X103369305Y-57161229D01*
X103420441Y-57113617D01*
X103475948Y-57100500D01*
X103781854Y-57100500D01*
X103781856Y-57100500D01*
X103858283Y-57080021D01*
X103926805Y-57040460D01*
X103982754Y-56984511D01*
X104630445Y-56336818D01*
X104691768Y-56303334D01*
X104718126Y-56300500D01*
X104879055Y-56300500D01*
X104879057Y-56300500D01*
X105031784Y-56259577D01*
X105168716Y-56180520D01*
X105280520Y-56068716D01*
X105359577Y-55931784D01*
X105400500Y-55779057D01*
X105400500Y-55620943D01*
X105359577Y-55468216D01*
X105359573Y-55468209D01*
X105280524Y-55331290D01*
X105280518Y-55331282D01*
X105168718Y-55219482D01*
X105168716Y-55219480D01*
X105143880Y-55205140D01*
X105135598Y-55196455D01*
X105124680Y-55191469D01*
X105111934Y-55171636D01*
X105095667Y-55154575D01*
X105092451Y-55141319D01*
X105086906Y-55132691D01*
X105081883Y-55097756D01*
X105081883Y-55010934D01*
X105101568Y-54943895D01*
X105154372Y-54898140D01*
X105205883Y-54886934D01*
X105514932Y-54886934D01*
X105528484Y-54884238D01*
X105530987Y-54883739D01*
X105539159Y-54883730D01*
X105543839Y-54881876D01*
X105578291Y-54883682D01*
X105579087Y-54883682D01*
X105595435Y-54886934D01*
X105595640Y-54886934D01*
X105601677Y-54888120D01*
X105627546Y-54901574D01*
X105654599Y-54912461D01*
X105660892Y-54918917D01*
X105663664Y-54920359D01*
X105665609Y-54923756D01*
X105677039Y-54935482D01*
X105757995Y-55043624D01*
X105873089Y-55129784D01*
X105873096Y-55129788D01*
X106007803Y-55180030D01*
X106007802Y-55180030D01*
X106014438Y-55180744D01*
X106078989Y-55207482D01*
X106118837Y-55264875D01*
X106125183Y-55304034D01*
X106125183Y-55649278D01*
X106131584Y-55708806D01*
X106131586Y-55708813D01*
X106181828Y-55843520D01*
X106181832Y-55843527D01*
X106267992Y-55958621D01*
X106267995Y-55958624D01*
X106383089Y-56044784D01*
X106383096Y-56044788D01*
X106517803Y-56095030D01*
X106517810Y-56095032D01*
X106577338Y-56101433D01*
X106577355Y-56101434D01*
X106725183Y-56101434D01*
X107225183Y-56101434D01*
X107373011Y-56101434D01*
X107373027Y-56101433D01*
X107432555Y-56095032D01*
X107432562Y-56095030D01*
X107567269Y-56044788D01*
X107567276Y-56044784D01*
X107682370Y-55958624D01*
X107682373Y-55958621D01*
X107768533Y-55843527D01*
X107768537Y-55843520D01*
X107818779Y-55708813D01*
X107818781Y-55708806D01*
X107825182Y-55649278D01*
X107825183Y-55649261D01*
X107825183Y-55276434D01*
X107225183Y-55276434D01*
X107225183Y-56101434D01*
X106725183Y-56101434D01*
X106725183Y-55150434D01*
X106744868Y-55083395D01*
X106797672Y-55037640D01*
X106849183Y-55026434D01*
X106975183Y-55026434D01*
X106975183Y-54900434D01*
X106994868Y-54833395D01*
X107047672Y-54787640D01*
X107099183Y-54776434D01*
X107825183Y-54776434D01*
X107825183Y-54403606D01*
X107825182Y-54403589D01*
X107818781Y-54344061D01*
X107818779Y-54344053D01*
X107816995Y-54339269D01*
X107814808Y-54308711D01*
X107810423Y-54278393D01*
X107812338Y-54274188D01*
X107812009Y-54269578D01*
X107826694Y-54242683D01*
X107839393Y-54214813D01*
X107843277Y-54212311D01*
X107845493Y-54208254D01*
X107872385Y-54193569D01*
X107898138Y-54176987D01*
X107904408Y-54176082D01*
X107906816Y-54174768D01*
X107933068Y-54171934D01*
X107955182Y-54171934D01*
X107965745Y-54171934D01*
X107965772Y-54171905D01*
X107989856Y-54171884D01*
X107990739Y-54171884D01*
X107990787Y-54171898D01*
X107990855Y-54171884D01*
X108006731Y-54171886D01*
X108006731Y-54171885D01*
X108016496Y-54171887D01*
X108016495Y-54173800D01*
X108073755Y-54181199D01*
X108123127Y-54220406D01*
X108147990Y-54253619D01*
X108147997Y-54253625D01*
X108263089Y-54339784D01*
X108263096Y-54339788D01*
X108397803Y-54390030D01*
X108397810Y-54390032D01*
X108457338Y-54396433D01*
X108457355Y-54396434D01*
X109005183Y-54396434D01*
X109505183Y-54396434D01*
X110053011Y-54396434D01*
X110053027Y-54396433D01*
X110112555Y-54390032D01*
X110112562Y-54390030D01*
X110247269Y-54339788D01*
X110247276Y-54339784D01*
X110362370Y-54253624D01*
X110362373Y-54253621D01*
X110448533Y-54138527D01*
X110448537Y-54138520D01*
X110498779Y-54003813D01*
X110498781Y-54003806D01*
X110505182Y-53944278D01*
X110505183Y-53944261D01*
X110505183Y-53396434D01*
X109505183Y-53396434D01*
X109505183Y-54396434D01*
X109005183Y-54396434D01*
X109005183Y-53270434D01*
X109024868Y-53203395D01*
X109077672Y-53157640D01*
X109129183Y-53146434D01*
X109255183Y-53146434D01*
X109255183Y-53020434D01*
X109274868Y-52953395D01*
X109327672Y-52907640D01*
X109379183Y-52896434D01*
X110505183Y-52896434D01*
X110505183Y-52478716D01*
X110524868Y-52411677D01*
X110577672Y-52365922D01*
X110628916Y-52354716D01*
X115182972Y-52345048D01*
X115250053Y-52364590D01*
G37*
%TD.AperFunction*%
%TD*%
M02*
