%TF.GenerationSoftware,KiCad,Pcbnew,9.0.4*%
%TF.CreationDate,2025-09-09T09:39:30+02:00*%
%TF.ProjectId,rp2350_gpio_card,72703233-3530-45f6-9770-696f5f636172,X1*%
%TF.SameCoordinates,Original*%
%TF.FileFunction,Copper,L3,Inr*%
%TF.FilePolarity,Positive*%
%FSLAX46Y46*%
G04 Gerber Fmt 4.6, Leading zero omitted, Abs format (unit mm)*
G04 Created by KiCad (PCBNEW 9.0.4) date 2025-09-09 09:39:30*
%MOMM*%
%LPD*%
G01*
G04 APERTURE LIST*
%TA.AperFunction,ComponentPad*%
%ADD10C,0.600000*%
%TD*%
%TA.AperFunction,ViaPad*%
%ADD11C,0.800000*%
%TD*%
%TA.AperFunction,ViaPad*%
%ADD12C,0.600000*%
%TD*%
G04 APERTURE END LIST*
D10*
%TO.N,GND*%
%TO.C,U1*%
X105380183Y-68171434D03*
X106755183Y-68171434D03*
X108130183Y-68171434D03*
X105380183Y-66796434D03*
X106755183Y-66796434D03*
X108130183Y-66796434D03*
X105380183Y-65421434D03*
X106755183Y-65421434D03*
X108130183Y-65421434D03*
%TD*%
D11*
%TO.N,+1V1*%
X110100000Y-61500000D03*
X100382403Y-63516978D03*
%TO.N,VBUS*%
X104800000Y-55700000D03*
X98800000Y-56246434D03*
%TO.N,+3.3V*%
X112700000Y-68272634D03*
X112700000Y-65100000D03*
%TO.N,/GPIO27_ADC1*%
X106685028Y-60729793D03*
%TO.N,/GPIO29_ADC3*%
X104755183Y-60700000D03*
%TO.N,/GPIO11*%
X110555183Y-72771434D03*
%TO.N,/QSPI_SS*%
X102130183Y-70996434D03*
%TO.N,/RUN*%
X111500000Y-66300000D03*
X111500000Y-68272634D03*
%TO.N,/GPIO10*%
X109680183Y-72196434D03*
%TO.N,/GPIO9*%
X108755502Y-71815683D03*
%TO.N,/GPIO28_ADC2*%
X106005183Y-59996434D03*
%TO.N,/GPIO0*%
X103601588Y-72897192D03*
X93100000Y-76400000D03*
%TO.N,/USB_D+*%
X101600000Y-58300000D03*
X97900000Y-63900000D03*
%TO.N,/USB_D-*%
X103200000Y-57900000D03*
X99000000Y-63400000D03*
%TO.N,/GPIO13*%
X111055183Y-74896434D03*
%TO.N,/GPIO12*%
X110405183Y-74046434D03*
%TO.N,GND*%
X97900000Y-55050000D03*
X105400000Y-57700000D03*
X113180183Y-57596434D03*
X98005183Y-69996434D03*
X103000000Y-60800000D03*
X113800000Y-76100000D03*
X93920000Y-63620000D03*
D12*
X115300000Y-67200000D03*
D11*
X105900000Y-55400000D03*
X92200000Y-68400000D03*
X97630183Y-57546434D03*
X100835997Y-61643989D03*
%TD*%
M02*
