%TF.GenerationSoftware,KiCad,Pcbnew,9.0.4*%
%TF.CreationDate,2025-09-09T09:39:30+02:00*%
%TF.ProjectId,rp2350_gpio_card,72703233-3530-45f6-9770-696f5f636172,X1*%
%TF.SameCoordinates,Original*%
%TF.FileFunction,Copper,L1,Top*%
%TF.FilePolarity,Positive*%
%FSLAX46Y46*%
G04 Gerber Fmt 4.6, Leading zero omitted, Abs format (unit mm)*
G04 Created by KiCad (PCBNEW 9.0.4) date 2025-09-09 09:39:30*
%MOMM*%
%LPD*%
G01*
G04 APERTURE LIST*
G04 Aperture macros list*
%AMRoundRect*
0 Rectangle with rounded corners*
0 $1 Rounding radius*
0 $2 $3 $4 $5 $6 $7 $8 $9 X,Y pos of 4 corners*
0 Add a 4 corners polygon primitive as box body*
4,1,4,$2,$3,$4,$5,$6,$7,$8,$9,$2,$3,0*
0 Add four circle primitives for the rounded corners*
1,1,$1+$1,$2,$3*
1,1,$1+$1,$4,$5*
1,1,$1+$1,$6,$7*
1,1,$1+$1,$8,$9*
0 Add four rect primitives between the rounded corners*
20,1,$1+$1,$2,$3,$4,$5,0*
20,1,$1+$1,$4,$5,$6,$7,0*
20,1,$1+$1,$6,$7,$8,$9,0*
20,1,$1+$1,$8,$9,$2,$3,0*%
%AMFreePoly0*
4,1,18,-0.437500,0.050000,-0.433694,0.069134,-0.422855,0.085355,-0.406634,0.096194,-0.387500,0.100000,0.387500,0.100000,0.437500,0.050000,0.437500,-0.050000,0.433694,-0.069134,0.422855,-0.085355,0.406634,-0.096194,0.387500,-0.100000,-0.387500,-0.100000,-0.406634,-0.096194,-0.422855,-0.085355,-0.433694,-0.069134,-0.437500,-0.050000,-0.437500,0.050000,-0.437500,0.050000,$1*%
%AMFreePoly1*
4,1,18,-0.437500,0.050000,-0.433694,0.069134,-0.422855,0.085355,-0.406634,0.096194,-0.387500,0.100000,0.387500,0.100000,0.406634,0.096194,0.422855,0.085355,0.433694,0.069134,0.437500,0.050000,0.437500,-0.050000,0.387500,-0.100000,-0.387500,-0.100000,-0.406634,-0.096194,-0.422855,-0.085355,-0.433694,-0.069134,-0.437500,-0.050000,-0.437500,0.050000,-0.437500,0.050000,$1*%
%AMFreePoly2*
4,1,18,-0.100000,0.387500,-0.050000,0.437500,0.050000,0.437500,0.069134,0.433694,0.085355,0.422855,0.096194,0.406634,0.100000,0.387500,0.100000,-0.387500,0.096194,-0.406634,0.085355,-0.422855,0.069134,-0.433694,0.050000,-0.437500,-0.050000,-0.437500,-0.069134,-0.433694,-0.085355,-0.422855,-0.096194,-0.406634,-0.100000,-0.387500,-0.100000,0.387500,-0.100000,0.387500,$1*%
%AMFreePoly3*
4,1,18,-0.100000,0.387500,-0.096194,0.406634,-0.085355,0.422855,-0.069134,0.433694,-0.050000,0.437500,0.050000,0.437500,0.100000,0.387500,0.100000,-0.387500,0.096194,-0.406634,0.085355,-0.422855,0.069134,-0.433694,0.050000,-0.437500,-0.050000,-0.437500,-0.069134,-0.433694,-0.085355,-0.422855,-0.096194,-0.406634,-0.100000,-0.387500,-0.100000,0.387500,-0.100000,0.387500,$1*%
%AMFreePoly4*
4,1,18,-0.437500,0.050000,-0.433694,0.069134,-0.422855,0.085355,-0.406634,0.096194,-0.387500,0.100000,0.387500,0.100000,0.406634,0.096194,0.422855,0.085355,0.433694,0.069134,0.437500,0.050000,0.437500,-0.050000,0.433694,-0.069134,0.422855,-0.085355,0.406634,-0.096194,0.387500,-0.100000,-0.387500,-0.100000,-0.437500,-0.050000,-0.437500,0.050000,-0.437500,0.050000,$1*%
%AMFreePoly5*
4,1,18,-0.437500,0.050000,-0.387500,0.100000,0.387500,0.100000,0.406634,0.096194,0.422855,0.085355,0.433694,0.069134,0.437500,0.050000,0.437500,-0.050000,0.433694,-0.069134,0.422855,-0.085355,0.406634,-0.096194,0.387500,-0.100000,-0.387500,-0.100000,-0.406634,-0.096194,-0.422855,-0.085355,-0.433694,-0.069134,-0.437500,-0.050000,-0.437500,0.050000,-0.437500,0.050000,$1*%
%AMFreePoly6*
4,1,18,-0.100000,0.387500,-0.096194,0.406634,-0.085355,0.422855,-0.069134,0.433694,-0.050000,0.437500,0.050000,0.437500,0.069134,0.433694,0.085355,0.422855,0.096194,0.406634,0.100000,0.387500,0.100000,-0.387500,0.050000,-0.437500,-0.050000,-0.437500,-0.069134,-0.433694,-0.085355,-0.422855,-0.096194,-0.406634,-0.100000,-0.387500,-0.100000,0.387500,-0.100000,0.387500,$1*%
%AMFreePoly7*
4,1,18,-0.100000,0.387500,-0.096194,0.406634,-0.085355,0.422855,-0.069134,0.433694,-0.050000,0.437500,0.050000,0.437500,0.069134,0.433694,0.085355,0.422855,0.096194,0.406634,0.100000,0.387500,0.100000,-0.387500,0.096194,-0.406634,0.085355,-0.422855,0.069134,-0.433694,0.050000,-0.437500,-0.050000,-0.437500,-0.100000,-0.387500,-0.100000,0.387500,-0.100000,0.387500,$1*%
G04 Aperture macros list end*
%TA.AperFunction,SMDPad,CuDef*%
%ADD10RoundRect,0.200000X0.200000X0.275000X-0.200000X0.275000X-0.200000X-0.275000X0.200000X-0.275000X0*%
%TD*%
%TA.AperFunction,SMDPad,CuDef*%
%ADD11R,0.380000X1.000000*%
%TD*%
%TA.AperFunction,SMDPad,CuDef*%
%ADD12R,0.700000X1.150000*%
%TD*%
%TA.AperFunction,SMDPad,CuDef*%
%ADD13RoundRect,0.135000X0.185000X-0.135000X0.185000X0.135000X-0.185000X0.135000X-0.185000X-0.135000X0*%
%TD*%
%TA.AperFunction,SMDPad,CuDef*%
%ADD14RoundRect,0.250000X0.475000X-0.250000X0.475000X0.250000X-0.475000X0.250000X-0.475000X-0.250000X0*%
%TD*%
%TA.AperFunction,SMDPad,CuDef*%
%ADD15RoundRect,0.135000X-0.185000X0.135000X-0.185000X-0.135000X0.185000X-0.135000X0.185000X0.135000X0*%
%TD*%
%TA.AperFunction,SMDPad,CuDef*%
%ADD16RoundRect,0.250000X0.450000X0.350000X-0.450000X0.350000X-0.450000X-0.350000X0.450000X-0.350000X0*%
%TD*%
%TA.AperFunction,SMDPad,CuDef*%
%ADD17R,0.530000X0.470000*%
%TD*%
%TA.AperFunction,SMDPad,CuDef*%
%ADD18RoundRect,0.140000X0.140000X0.170000X-0.140000X0.170000X-0.140000X-0.170000X0.140000X-0.170000X0*%
%TD*%
%TA.AperFunction,SMDPad,CuDef*%
%ADD19RoundRect,0.250000X-0.250000X-0.475000X0.250000X-0.475000X0.250000X0.475000X-0.250000X0.475000X0*%
%TD*%
%TA.AperFunction,SMDPad,CuDef*%
%ADD20RoundRect,0.140000X-0.140000X-0.170000X0.140000X-0.170000X0.140000X0.170000X-0.140000X0.170000X0*%
%TD*%
%TA.AperFunction,SMDPad,CuDef*%
%ADD21RoundRect,0.140000X-0.170000X0.140000X-0.170000X-0.140000X0.170000X-0.140000X0.170000X0.140000X0*%
%TD*%
%TA.AperFunction,SMDPad,CuDef*%
%ADD22RoundRect,0.250000X-0.250000X1.000000X-0.250000X-1.000000X0.250000X-1.000000X0.250000X1.000000X0*%
%TD*%
%TA.AperFunction,SMDPad,CuDef*%
%ADD23RoundRect,0.135000X-0.135000X-0.185000X0.135000X-0.185000X0.135000X0.185000X-0.135000X0.185000X0*%
%TD*%
%TA.AperFunction,SMDPad,CuDef*%
%ADD24RoundRect,0.150000X-0.150000X0.512500X-0.150000X-0.512500X0.150000X-0.512500X0.150000X0.512500X0*%
%TD*%
%TA.AperFunction,SMDPad,CuDef*%
%ADD25RoundRect,0.140000X0.170000X-0.140000X0.170000X0.140000X-0.170000X0.140000X-0.170000X-0.140000X0*%
%TD*%
%TA.AperFunction,SMDPad,CuDef*%
%ADD26RoundRect,0.125000X0.125000X-0.250000X0.125000X0.250000X-0.125000X0.250000X-0.125000X-0.250000X0*%
%TD*%
%TA.AperFunction,HeatsinkPad*%
%ADD27R,4.300000X3.400000*%
%TD*%
%TA.AperFunction,SMDPad,CuDef*%
%ADD28RoundRect,0.135000X0.135000X0.185000X-0.135000X0.185000X-0.135000X-0.185000X0.135000X-0.185000X0*%
%TD*%
%TA.AperFunction,SMDPad,CuDef*%
%ADD29FreePoly0,90.000000*%
%TD*%
%TA.AperFunction,SMDPad,CuDef*%
%ADD30RoundRect,0.050000X0.050000X-0.387500X0.050000X0.387500X-0.050000X0.387500X-0.050000X-0.387500X0*%
%TD*%
%TA.AperFunction,SMDPad,CuDef*%
%ADD31FreePoly1,90.000000*%
%TD*%
%TA.AperFunction,SMDPad,CuDef*%
%ADD32FreePoly2,90.000000*%
%TD*%
%TA.AperFunction,SMDPad,CuDef*%
%ADD33RoundRect,0.050000X0.387500X-0.050000X0.387500X0.050000X-0.387500X0.050000X-0.387500X-0.050000X0*%
%TD*%
%TA.AperFunction,SMDPad,CuDef*%
%ADD34FreePoly3,90.000000*%
%TD*%
%TA.AperFunction,SMDPad,CuDef*%
%ADD35FreePoly4,90.000000*%
%TD*%
%TA.AperFunction,SMDPad,CuDef*%
%ADD36FreePoly5,90.000000*%
%TD*%
%TA.AperFunction,SMDPad,CuDef*%
%ADD37FreePoly6,90.000000*%
%TD*%
%TA.AperFunction,SMDPad,CuDef*%
%ADD38FreePoly7,90.000000*%
%TD*%
%TA.AperFunction,ComponentPad*%
%ADD39C,0.600000*%
%TD*%
%TA.AperFunction,SMDPad,CuDef*%
%ADD40RoundRect,0.153000X1.547000X1.547000X-1.547000X1.547000X-1.547000X-1.547000X1.547000X-1.547000X0*%
%TD*%
%TA.AperFunction,SMDPad,CuDef*%
%ADD41R,1.700000X0.700000*%
%TD*%
%TA.AperFunction,ViaPad*%
%ADD42C,0.800000*%
%TD*%
%TA.AperFunction,ViaPad*%
%ADD43C,0.600000*%
%TD*%
%TA.AperFunction,Conductor*%
%ADD44C,0.152400*%
%TD*%
%TA.AperFunction,Conductor*%
%ADD45C,0.254000*%
%TD*%
%TA.AperFunction,Conductor*%
%ADD46C,0.200000*%
%TD*%
%TA.AperFunction,Conductor*%
%ADD47C,0.250000*%
%TD*%
G04 APERTURE END LIST*
D10*
%TO.P,R4,1*%
%TO.N,Net-(P1-CC)*%
X100530183Y-57546434D03*
%TO.P,R4,2*%
%TO.N,GND*%
X98880183Y-57546434D03*
%TD*%
D11*
%TO.P,P1,A1,GND*%
%TO.N,GND*%
X100805183Y-54186434D03*
%TO.P,P1,A2*%
%TO.N,N/C*%
X101305183Y-54186434D03*
%TO.P,P1,A3*%
X101805183Y-54186434D03*
%TO.P,P1,A4,VBUS*%
%TO.N,VBUS*%
X102305183Y-54186434D03*
%TO.P,P1,A5,CC*%
%TO.N,Net-(P1-CC)*%
X102805183Y-54186434D03*
%TO.P,P1,A6,D+*%
%TO.N,/USB_D+*%
X103305183Y-54186434D03*
%TO.P,P1,A7,D-*%
%TO.N,/USB_D-*%
X103805183Y-54186434D03*
%TO.P,P1,A8*%
%TO.N,N/C*%
X104305183Y-54186434D03*
%TO.P,P1,A9,VBUS*%
%TO.N,VBUS*%
X104805183Y-54186434D03*
%TO.P,P1,A10*%
%TO.N,N/C*%
X105305183Y-54186434D03*
%TO.P,P1,A11*%
X105805183Y-54186434D03*
%TO.P,P1,A12,GND*%
%TO.N,GND*%
X106305183Y-54186434D03*
D12*
%TO.P,P1,S1,SHIELD*%
X100135183Y-55026434D03*
%TD*%
D13*
%TO.P,R8,1*%
%TO.N,/XOUT*%
X114300000Y-66110000D03*
%TO.P,R8,2*%
%TO.N,Net-(C16-Pad1)*%
X114300000Y-65090000D03*
%TD*%
D14*
%TO.P,C19,1*%
%TO.N,VBUS*%
X94055183Y-55046434D03*
%TO.P,C19,2*%
%TO.N,GND*%
X94055183Y-53146434D03*
%TD*%
D15*
%TO.P,R5,1*%
%TO.N,+3.3V*%
X94700000Y-67390000D03*
%TO.P,R5,2*%
%TO.N,/FLASH_SS*%
X94700000Y-68410000D03*
%TD*%
D16*
%TO.P,Y1,1,1*%
%TO.N,/XIN*%
X114235183Y-60726434D03*
%TO.P,Y1,2,2*%
%TO.N,GND*%
X112035183Y-60726434D03*
%TO.P,Y1,3,3*%
%TO.N,Net-(C16-Pad1)*%
X112035183Y-62426434D03*
%TO.P,Y1,4,4*%
%TO.N,GND*%
X114235183Y-62426434D03*
%TD*%
D17*
%TO.P,C1,1*%
%TO.N,+3.3V*%
X93905000Y-65635000D03*
%TO.P,C1,2*%
%TO.N,GND*%
X93905000Y-64605000D03*
%TD*%
D18*
%TO.P,C9,1*%
%TO.N,+3.3V*%
X107480000Y-57700000D03*
%TO.P,C9,2*%
%TO.N,GND*%
X106520000Y-57700000D03*
%TD*%
D19*
%TO.P,C2,1*%
%TO.N,+3.3V*%
X109855183Y-56746434D03*
%TO.P,C2,2*%
%TO.N,GND*%
X111755183Y-56746434D03*
%TD*%
D20*
%TO.P,C10,1*%
%TO.N,+3.3V*%
X108075183Y-61646434D03*
%TO.P,C10,2*%
%TO.N,GND*%
X109035183Y-61646434D03*
%TD*%
D21*
%TO.P,C17,1*%
%TO.N,+3.3V*%
X93600000Y-67420000D03*
%TO.P,C17,2*%
%TO.N,GND*%
X93600000Y-68380000D03*
%TD*%
D22*
%TO.P,J2,1,Pin_1*%
%TO.N,/RUN*%
X114985183Y-79600000D03*
%TO.P,J2,2,Pin_2*%
%TO.N,+3.3V*%
X112445183Y-79600000D03*
%TO.P,J2,3,Pin_3*%
%TO.N,/GPIO7*%
X109905183Y-79600000D03*
%TO.P,J2,4,Pin_4*%
%TO.N,/GPIO6*%
X107365183Y-79600000D03*
%TO.P,J2,5,Pin_5*%
%TO.N,/GPIO5*%
X104825183Y-79600000D03*
%TO.P,J2,6,Pin_6*%
%TO.N,/GPIO4*%
X102285183Y-79600000D03*
%TO.P,J2,7,Pin_7*%
%TO.N,/GPIO3*%
X99745183Y-79600000D03*
%TO.P,J2,8,Pin_8*%
%TO.N,/GPIO2*%
X97205183Y-79600000D03*
%TO.P,J2,9,Pin_9*%
%TO.N,/GPIO1*%
X94665183Y-79600000D03*
%TO.P,J2,10,Pin_10*%
%TO.N,/GPIO0*%
X92125183Y-79600000D03*
%TD*%
D18*
%TO.P,C8,1*%
%TO.N,+3.3V*%
X103980000Y-62000000D03*
%TO.P,C8,2*%
%TO.N,GND*%
X103020000Y-62000000D03*
%TD*%
D17*
%TO.P,C3,1*%
%TO.N,+1V1*%
X95400000Y-62585000D03*
%TO.P,C3,2*%
%TO.N,GND*%
X95400000Y-63615000D03*
%TD*%
D21*
%TO.P,C5,1*%
%TO.N,/VREG_AVDD*%
X92605000Y-62640000D03*
%TO.P,C5,2*%
%TO.N,GND*%
X92605000Y-63600000D03*
%TD*%
D23*
%TO.P,R3,1*%
%TO.N,/USB_D-*%
X98990000Y-64400000D03*
%TO.P,R3,2*%
%TO.N,Net-(U1-USB_DM)*%
X100010000Y-64400000D03*
%TD*%
D24*
%TO.P,U4,1,VIN*%
%TO.N,VBUS*%
X94067683Y-57208934D03*
%TO.P,U4,2,GND*%
%TO.N,GND*%
X93117683Y-57208934D03*
%TO.P,U4,3,EN*%
%TO.N,VBUS*%
X92167683Y-57208934D03*
%TO.P,U4,4,NC*%
%TO.N,unconnected-(U4-NC-Pad4)*%
X92167683Y-59483934D03*
%TO.P,U4,5,VOUT*%
%TO.N,+3.3V*%
X94067683Y-59483934D03*
%TD*%
D15*
%TO.P,R1,1*%
%TO.N,+3.3V*%
X94100000Y-60990000D03*
%TO.P,R1,2*%
%TO.N,/VREG_AVDD*%
X94100000Y-62010000D03*
%TD*%
D23*
%TO.P,R7,1*%
%TO.N,/GPIO0*%
X94090000Y-74200000D03*
%TO.P,R7,2*%
%TO.N,/FLASH_SS*%
X95110000Y-74200000D03*
%TD*%
D25*
%TO.P,C15,1*%
%TO.N,/XIN*%
X114235183Y-58526434D03*
%TO.P,C15,2*%
%TO.N,GND*%
X114235183Y-57566434D03*
%TD*%
D23*
%TO.P,R2,1*%
%TO.N,/USB_D+*%
X97890000Y-65400000D03*
%TO.P,R2,2*%
%TO.N,Net-(U1-USB_DP)*%
X98910000Y-65400000D03*
%TD*%
D14*
%TO.P,C21,1*%
%TO.N,+3.3V*%
X96005183Y-59446434D03*
%TO.P,C21,2*%
%TO.N,GND*%
X96005183Y-57546434D03*
%TD*%
D20*
%TO.P,C12,1*%
%TO.N,+3.3V*%
X113720000Y-68300000D03*
%TO.P,C12,2*%
%TO.N,GND*%
X114680000Y-68300000D03*
%TD*%
D25*
%TO.P,C4,1*%
%TO.N,+1V1*%
X110005183Y-60576434D03*
%TO.P,C4,2*%
%TO.N,GND*%
X110005183Y-59616434D03*
%TD*%
D26*
%TO.P,U2,1,~{CS}*%
%TO.N,/FLASH_SS*%
X96100183Y-72696434D03*
%TO.P,U2,2,DO/IO_{1}*%
%TO.N,/QSPI_SD1*%
X97370183Y-72696434D03*
%TO.P,U2,3,~{WP}/IO_{2}*%
%TO.N,/QSPI_SD2*%
X98640183Y-72696434D03*
%TO.P,U2,4,GND*%
%TO.N,GND*%
X99910183Y-72696434D03*
%TO.P,U2,5,DI/IO_{0}*%
%TO.N,/QSPI_SD0*%
X99910183Y-67296434D03*
%TO.P,U2,6,CLK*%
%TO.N,/QSPI_SCLK*%
X98640183Y-67296434D03*
%TO.P,U2,7,~{HOLD}/~{RESET}/IO_{3}*%
%TO.N,/QSPI_SD3*%
X97370183Y-67296434D03*
%TO.P,U2,8,VCC*%
%TO.N,+3.3V*%
X96100183Y-67296434D03*
D27*
%TO.P,U2,9,EP*%
%TO.N,GND*%
X98005183Y-69996434D03*
%TD*%
D25*
%TO.P,C6,1*%
%TO.N,+1V1*%
X109005183Y-60576434D03*
%TO.P,C6,2*%
%TO.N,GND*%
X109005183Y-59616434D03*
%TD*%
%TO.P,C7,1*%
%TO.N,+1V1*%
X108005183Y-60576434D03*
%TO.P,C7,2*%
%TO.N,GND*%
X108005183Y-59616434D03*
%TD*%
%TO.P,C13,1*%
%TO.N,+3.3V*%
X112455183Y-76176434D03*
%TO.P,C13,2*%
%TO.N,GND*%
X112455183Y-75216434D03*
%TD*%
D28*
%TO.P,R6,1*%
%TO.N,/QSPI_SS*%
X97120000Y-74200000D03*
%TO.P,R6,2*%
%TO.N,/FLASH_SS*%
X96100000Y-74200000D03*
%TD*%
D18*
%TO.P,C14,1*%
%TO.N,+3.3V*%
X107480000Y-56700000D03*
%TO.P,C14,2*%
%TO.N,GND*%
X106520000Y-56700000D03*
%TD*%
D20*
%TO.P,C16,1*%
%TO.N,Net-(C16-Pad1)*%
X113405183Y-63956434D03*
%TO.P,C16,2*%
%TO.N,GND*%
X114365183Y-63956434D03*
%TD*%
D29*
%TO.P,U1,1,IOVDD*%
%TO.N,+3.3V*%
X103955183Y-70233934D03*
D30*
%TO.P,U1,2,GPIO0*%
%TO.N,/GPIO0*%
X104355183Y-70233934D03*
%TO.P,U1,3,GPIO1*%
%TO.N,/GPIO1*%
X104755183Y-70233934D03*
%TO.P,U1,4,GPIO2*%
%TO.N,/GPIO2*%
X105155183Y-70233934D03*
%TO.P,U1,5,GPIO3*%
%TO.N,/GPIO3*%
X105555183Y-70233934D03*
%TO.P,U1,6,DVDD*%
%TO.N,+1V1*%
X105955183Y-70233934D03*
%TO.P,U1,7,GPIO4*%
%TO.N,/GPIO4*%
X106355183Y-70233934D03*
%TO.P,U1,8,GPIO5*%
%TO.N,/GPIO5*%
X106755183Y-70233934D03*
%TO.P,U1,9,GPIO6*%
%TO.N,/GPIO6*%
X107155183Y-70233934D03*
%TO.P,U1,10,GPIO7*%
%TO.N,/GPIO7*%
X107555183Y-70233934D03*
%TO.P,U1,11,IOVDD*%
%TO.N,+3.3V*%
X107955183Y-70233934D03*
%TO.P,U1,12,GPIO8*%
%TO.N,/GPIO8*%
X108355183Y-70233934D03*
%TO.P,U1,13,GPIO9*%
%TO.N,/GPIO9*%
X108755183Y-70233934D03*
%TO.P,U1,14,GPIO10*%
%TO.N,/GPIO10*%
X109155183Y-70233934D03*
D31*
%TO.P,U1,15,GPIO11*%
%TO.N,/GPIO11*%
X109555183Y-70233934D03*
D32*
%TO.P,U1,16,GPIO12*%
%TO.N,/GPIO12*%
X110192683Y-69596434D03*
D33*
%TO.P,U1,17,GPIO13*%
%TO.N,/GPIO13*%
X110192683Y-69196434D03*
%TO.P,U1,18,GPIO14*%
%TO.N,/GPIO14*%
X110192683Y-68796434D03*
%TO.P,U1,19,GPIO15*%
%TO.N,/GPIO15*%
X110192683Y-68396434D03*
%TO.P,U1,20,IOVDD*%
%TO.N,+3.3V*%
X110192683Y-67996434D03*
%TO.P,U1,21,XIN*%
%TO.N,/XIN*%
X110192683Y-67596434D03*
%TO.P,U1,22,XOUT*%
%TO.N,/XOUT*%
X110192683Y-67196434D03*
%TO.P,U1,23,DVDD*%
%TO.N,+1V1*%
X110192683Y-66796434D03*
%TO.P,U1,24,SWCLK*%
%TO.N,/SWCLK*%
X110192683Y-66396434D03*
%TO.P,U1,25,SWD*%
%TO.N,/SWD*%
X110192683Y-65996434D03*
%TO.P,U1,26,RUN*%
%TO.N,/RUN*%
X110192683Y-65596434D03*
%TO.P,U1,27,GPIO16*%
%TO.N,/GPIO16*%
X110192683Y-65196434D03*
%TO.P,U1,28,GPIO17*%
%TO.N,/GPIO17*%
X110192683Y-64796434D03*
%TO.P,U1,29,GPIO18*%
%TO.N,/GPIO18*%
X110192683Y-64396434D03*
D34*
%TO.P,U1,30,IOVDD*%
%TO.N,+3.3V*%
X110192683Y-63996434D03*
D35*
%TO.P,U1,31,GPIO19*%
%TO.N,/GPIO19*%
X109555183Y-63358934D03*
D30*
%TO.P,U1,32,GPIO20*%
%TO.N,/GPIO20*%
X109155183Y-63358934D03*
%TO.P,U1,33,GPIO21*%
%TO.N,/GPIO21*%
X108755183Y-63358934D03*
%TO.P,U1,34,GPIO22*%
%TO.N,/GPIO22*%
X108355183Y-63358934D03*
%TO.P,U1,35,GPIO23*%
%TO.N,/GPIO23*%
X107955183Y-63358934D03*
%TO.P,U1,36,GPIO24*%
%TO.N,/GPIO24*%
X107555183Y-63358934D03*
%TO.P,U1,37,GPIO25*%
%TO.N,/GPIO25*%
X107155183Y-63358934D03*
%TO.P,U1,38,IOVDD*%
%TO.N,+3.3V*%
X106755183Y-63358934D03*
%TO.P,U1,39,DVDD*%
%TO.N,+1V1*%
X106355183Y-63358934D03*
%TO.P,U1,40,GPIO26_ADC0*%
%TO.N,/GPIO26_ADC0*%
X105955183Y-63358934D03*
%TO.P,U1,41,GPIO27_ADC1*%
%TO.N,/GPIO27_ADC1*%
X105555183Y-63358934D03*
%TO.P,U1,42,GPIO28_ADC2*%
%TO.N,/GPIO28_ADC2*%
X105155183Y-63358934D03*
%TO.P,U1,43,GPIO29_ADC3*%
%TO.N,/GPIO29_ADC3*%
X104755183Y-63358934D03*
%TO.P,U1,44,ADC_AVDD*%
%TO.N,+3.3V*%
X104355183Y-63358934D03*
D36*
%TO.P,U1,45,IOVDD*%
X103955183Y-63358934D03*
D37*
%TO.P,U1,46,VREG_AVDD*%
%TO.N,/VREG_AVDD*%
X103317683Y-63996434D03*
D33*
%TO.P,U1,47,VREG_PGND*%
%TO.N,GND*%
X103317683Y-64396434D03*
%TO.P,U1,48,VREG_LX*%
%TO.N,/VREG_LX*%
X103317683Y-64796434D03*
%TO.P,U1,49,VREG_VIN*%
%TO.N,+3.3V*%
X103317683Y-65196434D03*
%TO.P,U1,50,VREG_FB*%
%TO.N,+1V1*%
X103317683Y-65596434D03*
%TO.P,U1,51,USB_DM*%
%TO.N,Net-(U1-USB_DM)*%
X103317683Y-65996434D03*
%TO.P,U1,52,USB_DP*%
%TO.N,Net-(U1-USB_DP)*%
X103317683Y-66396434D03*
%TO.P,U1,53,USB_OTP_VDD*%
%TO.N,+3.3V*%
X103317683Y-66796434D03*
%TO.P,U1,54,QSPI_IOVDD*%
X103317683Y-67196434D03*
%TO.P,U1,55,QSPI_SD3*%
%TO.N,/QSPI_SD3*%
X103317683Y-67596434D03*
%TO.P,U1,56,QSPI_SCLK*%
%TO.N,/QSPI_SCLK*%
X103317683Y-67996434D03*
%TO.P,U1,57,QSPI_SD0*%
%TO.N,/QSPI_SD0*%
X103317683Y-68396434D03*
%TO.P,U1,58,QSPI_SD2*%
%TO.N,/QSPI_SD2*%
X103317683Y-68796434D03*
%TO.P,U1,59,QSPI_SD1*%
%TO.N,/QSPI_SD1*%
X103317683Y-69196434D03*
D38*
%TO.P,U1,60,QSPI_SS*%
%TO.N,/QSPI_SS*%
X103317683Y-69596434D03*
D39*
%TO.P,U1,61,GND*%
%TO.N,GND*%
X105380183Y-68171434D03*
X106755183Y-68171434D03*
X108130183Y-68171434D03*
X105380183Y-66796434D03*
X106755183Y-66796434D03*
D40*
X106755183Y-66796434D03*
D39*
X108130183Y-66796434D03*
X105380183Y-65421434D03*
X106755183Y-65421434D03*
X108130183Y-65421434D03*
%TD*%
D41*
%TO.P,L1,1,1*%
%TO.N,+1V1*%
X98018156Y-62400000D03*
%TO.P,L1,2,2*%
%TO.N,/VREG_LX*%
X98018156Y-61000000D03*
%TD*%
D42*
%TO.N,+1V1*%
X110100000Y-61500000D03*
X100382403Y-63516978D03*
%TO.N,VBUS*%
X104800000Y-55700000D03*
X98800000Y-56246434D03*
%TO.N,+3.3V*%
X112700000Y-68272634D03*
X112700000Y-65100000D03*
%TO.N,/GPIO27_ADC1*%
X106685028Y-60729793D03*
%TO.N,/GPIO29_ADC3*%
X104755183Y-60700000D03*
%TO.N,/GPIO11*%
X110555183Y-72771434D03*
%TO.N,/QSPI_SS*%
X102130183Y-70996434D03*
%TO.N,/RUN*%
X111500000Y-66300000D03*
X111500000Y-68272634D03*
%TO.N,/GPIO10*%
X109680183Y-72196434D03*
%TO.N,/GPIO9*%
X108755502Y-71815683D03*
%TO.N,/GPIO28_ADC2*%
X106005183Y-59996434D03*
%TO.N,/GPIO0*%
X103601588Y-72897192D03*
X93100000Y-76400000D03*
%TO.N,/USB_D+*%
X101600000Y-58300000D03*
X97900000Y-63900000D03*
%TO.N,/USB_D-*%
X103200000Y-57900000D03*
X99000000Y-63400000D03*
%TO.N,/GPIO13*%
X111055183Y-74896434D03*
%TO.N,/GPIO12*%
X110405183Y-74046434D03*
%TO.N,GND*%
X97900000Y-55050000D03*
X105400000Y-57700000D03*
X113180183Y-57596434D03*
X98005183Y-69996434D03*
X103000000Y-60800000D03*
X113800000Y-76100000D03*
X93920000Y-63620000D03*
D43*
X115300000Y-67200000D03*
D42*
X105900000Y-55400000D03*
X92200000Y-68400000D03*
X97630183Y-57546434D03*
X100835997Y-61643989D03*
%TD*%
D44*
%TO.N,+1V1*%
X109000000Y-66373821D02*
X109422613Y-66796434D01*
X99200000Y-62400000D02*
X98018156Y-62400000D01*
X100382403Y-63516978D02*
X100316978Y-63516978D01*
X100382403Y-63516978D02*
X100382403Y-63582403D01*
X108005183Y-60576434D02*
X109005183Y-60576434D01*
X106355183Y-62246650D02*
X108005183Y-60596651D01*
X110100000Y-61500000D02*
X110100000Y-60471251D01*
X106355183Y-63358934D02*
X106355183Y-62246650D01*
X100382403Y-63582403D02*
X102396434Y-65596434D01*
X109422613Y-66796434D02*
X110192683Y-66796434D01*
X106800000Y-64500000D02*
X106355183Y-64055183D01*
X105955183Y-70233934D02*
X105955183Y-69644817D01*
X110100000Y-60671251D02*
X110005183Y-60576434D01*
X108500000Y-64500000D02*
X106800000Y-64500000D01*
X95400000Y-62585000D02*
X97833156Y-62585000D01*
X108005183Y-60596651D02*
X108005183Y-60576434D01*
X108600000Y-68900000D02*
X109000000Y-68500000D01*
X106700000Y-68900000D02*
X108600000Y-68900000D01*
X102396434Y-65596434D02*
X103317683Y-65596434D01*
X105955183Y-69644817D02*
X106700000Y-68900000D01*
X109000000Y-65000000D02*
X108500000Y-64500000D01*
X106355183Y-64055183D02*
X106355183Y-63358934D01*
X97918156Y-62300000D02*
X98018156Y-62400000D01*
X109000000Y-66373821D02*
X109000000Y-65000000D01*
X100316978Y-63516978D02*
X99200000Y-62400000D01*
X97833156Y-62585000D02*
X98018156Y-62400000D01*
X109005183Y-60576434D02*
X110005183Y-60576434D01*
X109000000Y-68500000D02*
X109000000Y-66373821D01*
D45*
%TO.N,VBUS*%
X102300183Y-55636434D02*
X102300183Y-54926434D01*
X102300183Y-54926434D02*
X102305183Y-54921434D01*
X101690183Y-56246434D02*
X102300183Y-55636434D01*
X92167683Y-58008934D02*
X92555183Y-58396434D01*
X94067683Y-57208934D02*
X94067683Y-55058934D01*
D44*
X104805183Y-54186434D02*
X104805183Y-55694817D01*
D45*
X95030183Y-56246434D02*
X94067683Y-57208934D01*
X94067683Y-58033934D02*
X94067683Y-57208934D01*
D44*
X102305183Y-54186434D02*
X102305183Y-54921434D01*
D45*
X98800000Y-56246434D02*
X95030183Y-56246434D01*
D44*
X94067683Y-55058934D02*
X94055183Y-55046434D01*
X104805183Y-55694817D02*
X104800000Y-55700000D01*
D45*
X93705183Y-58396434D02*
X94067683Y-58033934D01*
X92167683Y-57208934D02*
X92167683Y-58008934D01*
X98800000Y-56246434D02*
X101690183Y-56246434D01*
X92555183Y-58396434D02*
X93705183Y-58396434D01*
D44*
%TO.N,/VREG_AVDD*%
X93235000Y-62010000D02*
X92605000Y-62640000D01*
X102462800Y-63662800D02*
X102796434Y-63996434D01*
X102462800Y-62313086D02*
X102462800Y-63662800D01*
X100522514Y-60372800D02*
X102462800Y-62313086D01*
X94100000Y-62010000D02*
X93235000Y-62010000D01*
X96727200Y-60372800D02*
X100522514Y-60372800D01*
X103314117Y-64000000D02*
X103317683Y-63996434D01*
X94100000Y-62010000D02*
X95090000Y-62010000D01*
X102796434Y-63996434D02*
X103317683Y-63996434D01*
X95090000Y-62010000D02*
X96727200Y-60372800D01*
%TO.N,/XIN*%
X109842683Y-67596434D02*
X114003566Y-67596434D01*
X114003566Y-67596434D02*
X115300000Y-66300000D01*
X115300000Y-66300000D02*
X115300000Y-61791251D01*
X115300000Y-61791251D02*
X114235183Y-60726434D01*
X114235183Y-60726434D02*
X114235183Y-58526434D01*
%TO.N,Net-(C16-Pad1)*%
X114300000Y-64851251D02*
X113405183Y-63956434D01*
X113405183Y-63956434D02*
X112035183Y-62586434D01*
X112035183Y-62586434D02*
X112035183Y-62426434D01*
X112025183Y-62436434D02*
X112035183Y-62426434D01*
X114300000Y-65090000D02*
X114300000Y-64851251D01*
%TO.N,+3.3V*%
X108075183Y-61646434D02*
X107455183Y-61646434D01*
D46*
X107955183Y-73521434D02*
X112445183Y-78011434D01*
D44*
X107955183Y-70233934D02*
X107932383Y-70256734D01*
X94105183Y-59446434D02*
X94067683Y-59483934D01*
D45*
X96005183Y-59446434D02*
X94105183Y-59446434D01*
D44*
X112727366Y-68300000D02*
X112700000Y-68272634D01*
X106755183Y-62346434D02*
X106755183Y-63358934D01*
D46*
X107955183Y-70233934D02*
X107955183Y-73521434D01*
D44*
X112700000Y-65100000D02*
X111596434Y-63996434D01*
X112445183Y-76186434D02*
X112455183Y-76176434D01*
X111596434Y-63996434D02*
X110192683Y-63996434D01*
X107455183Y-61646434D02*
X106755183Y-62346434D01*
D46*
X112445183Y-80196434D02*
X112445183Y-76186434D01*
D44*
X113720000Y-68300000D02*
X112727366Y-68300000D01*
%TO.N,/GPIO27_ADC1*%
X106685028Y-60729793D02*
X106681383Y-60733438D01*
X105555183Y-62496434D02*
X105555183Y-63358934D01*
X106681383Y-60733438D02*
X106681383Y-61370234D01*
X106681383Y-61370234D02*
X105555183Y-62496434D01*
%TO.N,/GPIO29_ADC3*%
X104755183Y-60700000D02*
X104755183Y-63358934D01*
%TO.N,/GPIO11*%
X110555183Y-71771434D02*
X109555183Y-70771434D01*
X110555183Y-72771434D02*
X110555183Y-71771434D01*
X110555183Y-72771434D02*
X110580183Y-72746434D01*
X109555183Y-70771434D02*
X109555183Y-70233934D01*
%TO.N,/QSPI_SS*%
X102555183Y-69596434D02*
X102130183Y-70021434D01*
X97496834Y-74576834D02*
X101071329Y-74576834D01*
X102130183Y-73517980D02*
X102130183Y-70996434D01*
X97120000Y-74200000D02*
X97496834Y-74576834D01*
X101071329Y-74576834D02*
X102130183Y-73517980D01*
X102130183Y-70021434D02*
X102130183Y-70996434D01*
X103317683Y-69596434D02*
X102555183Y-69596434D01*
%TO.N,/RUN*%
X111500000Y-65800000D02*
X111296434Y-65596434D01*
X112380400Y-70150323D02*
X112380400Y-73546651D01*
X111500000Y-69269922D02*
X112380400Y-70150323D01*
X111500000Y-66300000D02*
X111500000Y-65800000D01*
X114985183Y-76151434D02*
X114985183Y-80196434D01*
X111500000Y-68272634D02*
X111500000Y-69269922D01*
X111296434Y-65596434D02*
X110192683Y-65596434D01*
X112380400Y-73546651D02*
X114985183Y-76151434D01*
%TO.N,/GPIO10*%
X109680183Y-71396218D02*
X109155183Y-70871218D01*
X109155183Y-70871218D02*
X109155183Y-70233934D01*
X109680183Y-72196434D02*
X109680183Y-71396218D01*
%TO.N,/GPIO9*%
X108755502Y-71815683D02*
X108755183Y-71815364D01*
X108755183Y-71815364D02*
X108755183Y-70233934D01*
%TO.N,/GPIO28_ADC2*%
X106005183Y-61496434D02*
X105155183Y-62346434D01*
X105155183Y-62346434D02*
X105155183Y-63358934D01*
X106005183Y-59996434D02*
X106005183Y-61496434D01*
%TO.N,/GPIO2*%
X102997951Y-75803234D02*
X98305183Y-75803234D01*
X105155183Y-70233934D02*
X105155183Y-73646002D01*
X105155183Y-73646002D02*
X102997951Y-75803234D01*
X98305183Y-75803234D02*
X97205183Y-76903234D01*
X97205183Y-76903234D02*
X97205183Y-80196434D01*
%TO.N,/GPIO1*%
X94665183Y-76706434D02*
X94665183Y-80196434D01*
X104755183Y-73546218D02*
X102851567Y-75449834D01*
X104755183Y-70233934D02*
X104755183Y-73546218D01*
X102851567Y-75449834D02*
X95901783Y-75449834D01*
X94655183Y-76696434D02*
X94665183Y-76706434D01*
X95901783Y-75449834D02*
X94655183Y-76696434D01*
%TO.N,/GPIO5*%
X106755183Y-73846218D02*
X104825183Y-75776218D01*
X106755183Y-70233934D02*
X106755183Y-73846218D01*
X104825183Y-75776218D02*
X104825183Y-80196434D01*
%TO.N,/GPIO4*%
X106355183Y-73571434D02*
X102285183Y-77641434D01*
X106355183Y-70233934D02*
X106355183Y-73571434D01*
X102285183Y-77641434D02*
X102285183Y-80196434D01*
%TO.N,/GPIO6*%
X107155183Y-70233934D02*
X107155183Y-79986434D01*
X107155183Y-79986434D02*
X107365183Y-80196434D01*
%TO.N,/GPIO0*%
X94090000Y-74200000D02*
X94090000Y-75410000D01*
X104355183Y-72143597D02*
X103601588Y-72897192D01*
X94090000Y-75410000D02*
X93100000Y-76400000D01*
X92125183Y-77374817D02*
X92125183Y-79600000D01*
X104355183Y-72044817D02*
X104355183Y-72143597D01*
X104355183Y-70233934D02*
X104355183Y-72044817D01*
X93100000Y-76400000D02*
X92125183Y-77374817D01*
%TO.N,/GPIO3*%
X99745183Y-77066634D02*
X99745183Y-80196434D01*
X103144335Y-76156634D02*
X100655183Y-76156634D01*
X100655183Y-76156634D02*
X99745183Y-77066634D01*
X105555183Y-73745785D02*
X103144335Y-76156634D01*
X105555183Y-70233934D02*
X105555183Y-73745785D01*
%TO.N,/GPIO7*%
X109905183Y-76746434D02*
X109905183Y-80196434D01*
X107555183Y-74396434D02*
X109905183Y-76746434D01*
X107555183Y-70233934D02*
X107555183Y-74396434D01*
%TO.N,/VREG_LX*%
X102619565Y-64796434D02*
X98823131Y-61000000D01*
X103317683Y-64796434D02*
X102619565Y-64796434D01*
X98823131Y-61000000D02*
X98018156Y-61000000D01*
%TO.N,Net-(P1-CC)*%
X102805183Y-56571434D02*
X102805183Y-54186434D01*
X100530183Y-57546434D02*
X101830183Y-57546434D01*
X101830183Y-57546434D02*
X102805183Y-56571434D01*
D46*
%TO.N,/USB_D+*%
X103305183Y-56652878D02*
X101658061Y-58300000D01*
X101658061Y-58300000D02*
X101600000Y-58300000D01*
X103305183Y-56652878D02*
X103305183Y-54971434D01*
X97900000Y-63900000D02*
X97900000Y-65390000D01*
X97900000Y-65390000D02*
X97890000Y-65400000D01*
D44*
X103305183Y-54186434D02*
X103305183Y-54971434D01*
%TO.N,/USB_D-*%
X103805183Y-54186434D02*
X103805183Y-54961434D01*
D46*
X103200000Y-57900000D02*
X103805183Y-57294817D01*
X99000000Y-64390000D02*
X98990000Y-64400000D01*
X99000000Y-63400000D02*
X99000000Y-64390000D01*
X103805183Y-57294817D02*
X103805183Y-54961434D01*
%TO.N,Net-(U1-USB_DP)*%
X103317683Y-66396434D02*
X102005183Y-66396434D01*
X102005183Y-66396434D02*
X101008749Y-65400000D01*
X101008749Y-65400000D02*
X98910000Y-65400000D01*
%TO.N,Net-(U1-USB_DM)*%
X103317683Y-65996434D02*
X102205183Y-65996434D01*
X100608749Y-64400000D02*
X100010000Y-64400000D01*
X100100000Y-64190000D02*
X100090000Y-64200000D01*
X102205183Y-65996434D02*
X100608749Y-64400000D01*
D44*
%TO.N,/FLASH_SS*%
X94700000Y-68410000D02*
X94900000Y-68610000D01*
X96100183Y-72696434D02*
X96100183Y-74199817D01*
X94900000Y-68610000D02*
X94900000Y-71496251D01*
X96100000Y-74200000D02*
X95110000Y-74200000D01*
X94900000Y-71496251D02*
X96100183Y-72696434D01*
X96100183Y-74199817D02*
X96100000Y-74200000D01*
X96090000Y-72706617D02*
X96100183Y-72696434D01*
%TO.N,/XOUT*%
X113803566Y-67196434D02*
X109842683Y-67196434D01*
X114300000Y-66700000D02*
X113803566Y-67196434D01*
X114300000Y-66110000D02*
X114300000Y-66700000D01*
%TO.N,/QSPI_SCLK*%
X101100000Y-66500000D02*
X102596434Y-67996434D01*
X98640183Y-67296434D02*
X99436617Y-66500000D01*
X102596434Y-67996434D02*
X103317683Y-67996434D01*
X99436617Y-66500000D02*
X101100000Y-66500000D01*
%TO.N,/QSPI_SD1*%
X98396434Y-74296434D02*
X97370183Y-73270183D01*
X100955183Y-74296434D02*
X98396434Y-74296434D01*
X101358583Y-69841417D02*
X101358583Y-73893034D01*
X103317683Y-69196434D02*
X102003566Y-69196434D01*
X97370183Y-73270183D02*
X97370183Y-72696434D01*
X102003566Y-69196434D02*
X101358583Y-69841417D01*
X101358583Y-73893034D02*
X100955183Y-74296434D01*
%TO.N,/GPIO13*%
X112100000Y-74557817D02*
X111761383Y-74896434D01*
X111761383Y-74896434D02*
X111055183Y-74896434D01*
X111029966Y-69196434D02*
X112100000Y-70266468D01*
X110192683Y-69196434D02*
X111029966Y-69196434D01*
X112100000Y-70266468D02*
X112100000Y-74557817D01*
%TO.N,/QSPI_SD3*%
X97370183Y-67296434D02*
X98566617Y-66100000D01*
X102774979Y-67596434D02*
X103317683Y-67596434D01*
X101278545Y-66100000D02*
X102774979Y-67596434D01*
X98566617Y-66100000D02*
X101278545Y-66100000D01*
%TO.N,/GPIO12*%
X111800000Y-70466251D02*
X110930183Y-69596434D01*
X111405183Y-74046434D02*
X111800000Y-73651617D01*
X110405183Y-74046434D02*
X111405183Y-74046434D01*
X111800000Y-73651617D02*
X111800000Y-70466251D01*
X110930183Y-69596434D02*
X110192683Y-69596434D01*
%TO.N,/QSPI_SD2*%
X103317683Y-68796434D02*
X101803565Y-68796434D01*
X98951783Y-73943034D02*
X98640183Y-73631434D01*
X100558583Y-73943034D02*
X98951783Y-73943034D01*
X101803565Y-68796434D02*
X101005183Y-69594816D01*
X101005183Y-69594816D02*
X101005183Y-73496434D01*
X98640183Y-73631434D02*
X98640183Y-72696434D01*
X101005183Y-73496434D02*
X100558583Y-73943034D01*
%TO.N,/QSPI_SD0*%
X101010183Y-68396434D02*
X103317683Y-68396434D01*
X99910183Y-67296434D02*
X101010183Y-68396434D01*
D45*
%TO.N,GND*%
X96005183Y-57546434D02*
X97630183Y-57546434D01*
D44*
X113210183Y-57566434D02*
X113180183Y-57596434D01*
X106305183Y-54994817D02*
X105900000Y-55400000D01*
X102796434Y-64396434D02*
X103317683Y-64396434D01*
D45*
X95996434Y-53146434D02*
X94055183Y-53146434D01*
D44*
X103020000Y-62000000D02*
X103020000Y-60820000D01*
X112035183Y-60864817D02*
X112035183Y-60726434D01*
D47*
X99910183Y-72696434D02*
X99910183Y-71901434D01*
D44*
X114680000Y-68300000D02*
X114680000Y-67820000D01*
X106520000Y-57700000D02*
X105400000Y-57700000D01*
X102796434Y-64396434D02*
X100835997Y-62435997D01*
X93920000Y-63620000D02*
X95395000Y-63620000D01*
D45*
X97923566Y-55026434D02*
X97900000Y-55050000D01*
D44*
X114235183Y-62426434D02*
X112535183Y-60726434D01*
X95395000Y-63620000D02*
X95400000Y-63615000D01*
D47*
X99910183Y-71901434D02*
X98005183Y-69996434D01*
D44*
X109005183Y-59616434D02*
X110005183Y-59616434D01*
X100805183Y-54186434D02*
X100805183Y-54356434D01*
X110005183Y-59616434D02*
X110925183Y-59616434D01*
X93117683Y-57208934D02*
X92980183Y-57071434D01*
X93905000Y-64605000D02*
X93905000Y-63635000D01*
X112035183Y-60726434D02*
X112035183Y-58741434D01*
D47*
X112916434Y-75216434D02*
X113800000Y-76100000D01*
D44*
X114365183Y-62556434D02*
X114235183Y-62426434D01*
X106305183Y-54186434D02*
X106305183Y-54994817D01*
X92605000Y-63600000D02*
X93900000Y-63600000D01*
X114365183Y-63956434D02*
X114365183Y-62556434D01*
X113180183Y-57246434D02*
X113180183Y-57596434D01*
X110700000Y-62200000D02*
X112035183Y-60864817D01*
D45*
X97900000Y-55050000D02*
X95996434Y-53146434D01*
D44*
X111755183Y-56746434D02*
X112680183Y-56746434D01*
D45*
X100135183Y-55026434D02*
X97923566Y-55026434D01*
D44*
X103020000Y-60820000D02*
X103000000Y-60800000D01*
X93600000Y-68380000D02*
X92220000Y-68380000D01*
D47*
X112455183Y-75216434D02*
X112916434Y-75216434D01*
D44*
X114680000Y-67820000D02*
X115300000Y-67200000D01*
X112535183Y-60726434D02*
X112035183Y-60726434D01*
X106520000Y-57700000D02*
X106520000Y-56700000D01*
X114680000Y-68300000D02*
X114680000Y-68176292D01*
D45*
X100135183Y-55026434D02*
X100523566Y-55026434D01*
D44*
X109588749Y-62200000D02*
X110700000Y-62200000D01*
X92220000Y-68380000D02*
X92200000Y-68400000D01*
X92980183Y-57071434D02*
X92980183Y-54221434D01*
X100835997Y-62435997D02*
X100835997Y-61643989D01*
X114235183Y-57566434D02*
X113210183Y-57566434D01*
X112680183Y-56746434D02*
X113180183Y-57246434D01*
X108005183Y-59616434D02*
X109005183Y-59616434D01*
D45*
X97630183Y-57546434D02*
X98880183Y-57546434D01*
X100523566Y-55026434D02*
X100787183Y-54762817D01*
D44*
X109035183Y-61646434D02*
X109588749Y-62200000D01*
X92980183Y-54221434D02*
X94055183Y-53146434D01*
X112035183Y-58741434D02*
X113180183Y-57596434D01*
D45*
X100787183Y-54762817D02*
X100787183Y-54284878D01*
D44*
X110925183Y-59616434D02*
X112035183Y-60726434D01*
%TD*%
%TA.AperFunction,Conductor*%
%TO.N,+3.3V*%
G36*
X108268222Y-61666119D02*
G01*
X108313977Y-61718923D01*
X108325183Y-61770434D01*
X108325183Y-62450937D01*
X108471378Y-62408465D01*
X108610557Y-62326155D01*
X108610566Y-62326148D01*
X108724897Y-62211817D01*
X108724904Y-62211808D01*
X108749504Y-62170213D01*
X108800573Y-62122529D01*
X108856236Y-62109334D01*
X109122725Y-62109334D01*
X109189764Y-62129019D01*
X109210406Y-62145653D01*
X109458973Y-62394221D01*
X109458974Y-62394221D01*
X109458975Y-62394222D01*
X109508295Y-62414650D01*
X109508298Y-62414652D01*
X109508299Y-62414652D01*
X109511141Y-62415829D01*
X109543178Y-62429100D01*
X110745570Y-62429100D01*
X110745571Y-62429100D01*
X110777611Y-62415828D01*
X110777613Y-62415828D01*
X110801632Y-62405878D01*
X110829775Y-62394222D01*
X110970604Y-62253392D01*
X111031924Y-62219909D01*
X111101616Y-62224893D01*
X111157550Y-62266764D01*
X111181967Y-62332229D01*
X111182283Y-62341075D01*
X111182283Y-62808147D01*
X111197224Y-62902484D01*
X111197225Y-62902485D01*
X111197226Y-62902489D01*
X111255167Y-63016205D01*
X111255168Y-63016206D01*
X111255171Y-63016210D01*
X111345406Y-63106445D01*
X111345410Y-63106448D01*
X111345412Y-63106450D01*
X111459128Y-63164391D01*
X111459130Y-63164391D01*
X111459132Y-63164392D01*
X111553470Y-63179334D01*
X111553475Y-63179334D01*
X112252724Y-63179334D01*
X112319763Y-63199019D01*
X112340405Y-63215653D01*
X112935964Y-63811211D01*
X112969449Y-63872534D01*
X112972283Y-63898892D01*
X112972283Y-64170169D01*
X112975124Y-64194655D01*
X112975124Y-64194657D01*
X113019353Y-64294826D01*
X113019355Y-64294830D01*
X113096787Y-64372262D01*
X113196962Y-64416493D01*
X113221449Y-64419334D01*
X113492724Y-64419334D01*
X113559763Y-64439019D01*
X113580405Y-64455653D01*
X113825821Y-64701069D01*
X113859306Y-64762392D01*
X113854322Y-64832084D01*
X113851575Y-64838834D01*
X113829894Y-64887937D01*
X113829893Y-64887942D01*
X113827100Y-64912014D01*
X113827100Y-65267985D01*
X113829893Y-65292057D01*
X113829893Y-65292059D01*
X113863082Y-65367223D01*
X113873369Y-65390521D01*
X113949479Y-65466631D01*
X113980364Y-65480268D01*
X113994627Y-65486566D01*
X114048003Y-65531652D01*
X114068530Y-65598439D01*
X114049691Y-65665721D01*
X113997468Y-65712137D01*
X113994627Y-65713434D01*
X113949478Y-65733369D01*
X113873369Y-65809478D01*
X113829893Y-65907940D01*
X113829893Y-65907942D01*
X113827100Y-65932014D01*
X113827100Y-66287985D01*
X113829893Y-66312057D01*
X113829893Y-66312059D01*
X113868073Y-66398526D01*
X113873369Y-66410521D01*
X113949479Y-66486631D01*
X113950299Y-66486993D01*
X113951549Y-66488049D01*
X113958958Y-66493124D01*
X113958444Y-66493873D01*
X114003675Y-66532078D01*
X114024203Y-66598863D01*
X114005365Y-66666146D01*
X113987894Y-66688108D01*
X113744988Y-66931015D01*
X113683665Y-66964500D01*
X113657307Y-66967334D01*
X111911681Y-66967334D01*
X111844642Y-66947649D01*
X111798887Y-66894845D01*
X111788943Y-66825687D01*
X111817968Y-66762131D01*
X111836190Y-66744962D01*
X111839487Y-66742431D01*
X111839486Y-66742431D01*
X111839489Y-66742430D01*
X111942430Y-66639489D01*
X112015221Y-66513411D01*
X112052900Y-66372791D01*
X112052900Y-66227209D01*
X112015221Y-66086589D01*
X111942430Y-65960511D01*
X111839489Y-65857570D01*
X111786610Y-65827040D01*
X111738396Y-65776475D01*
X111733899Y-65766740D01*
X111729100Y-65755048D01*
X111729100Y-65754429D01*
X111701211Y-65687100D01*
X111694222Y-65670226D01*
X111694221Y-65670225D01*
X111694221Y-65670224D01*
X111426208Y-65402211D01*
X111353269Y-65372000D01*
X111353268Y-65371999D01*
X111342007Y-65367334D01*
X111342005Y-65367334D01*
X110907083Y-65367334D01*
X110906706Y-65367223D01*
X110906329Y-65367332D01*
X110873151Y-65357370D01*
X110840044Y-65347649D01*
X110839787Y-65347353D01*
X110839411Y-65347240D01*
X110816889Y-65320927D01*
X110794289Y-65294845D01*
X110794147Y-65294356D01*
X110793978Y-65294159D01*
X110793662Y-65292687D01*
X110784240Y-65260234D01*
X110783083Y-65251824D01*
X110783083Y-65126450D01*
X110771311Y-65067266D01*
X110754160Y-65041598D01*
X110750272Y-65013334D01*
X110751392Y-65005861D01*
X110749135Y-64998652D01*
X110756503Y-64971787D01*
X110760636Y-64944238D01*
X110765618Y-64938558D01*
X110767617Y-64931271D01*
X110769997Y-64927567D01*
X110771311Y-64925602D01*
X110783083Y-64866418D01*
X110783083Y-64726450D01*
X110771311Y-64667266D01*
X110770015Y-64665326D01*
X110768489Y-64660455D01*
X110766638Y-64655985D01*
X110767037Y-64655819D01*
X110749135Y-64598652D01*
X110767617Y-64531271D01*
X110769997Y-64527567D01*
X110771311Y-64525602D01*
X110783083Y-64466418D01*
X110783083Y-64326450D01*
X110771311Y-64267266D01*
X110726466Y-64200151D01*
X110659351Y-64155306D01*
X110600167Y-64143534D01*
X109785199Y-64143534D01*
X109726015Y-64155306D01*
X109681802Y-64184848D01*
X109681800Y-64184849D01*
X109667152Y-64194637D01*
X109658900Y-64200151D01*
X109614055Y-64267266D01*
X109605487Y-64310345D01*
X109602283Y-64326451D01*
X109602283Y-64466416D01*
X109614055Y-64525603D01*
X109615353Y-64527545D01*
X109616879Y-64532420D01*
X109618728Y-64536883D01*
X109618328Y-64537048D01*
X109636230Y-64594223D01*
X109617744Y-64661603D01*
X109615353Y-64665323D01*
X109614055Y-64667264D01*
X109608694Y-64694219D01*
X109602283Y-64726450D01*
X109602283Y-64866418D01*
X109607583Y-64893064D01*
X109614055Y-64925603D01*
X109615353Y-64927545D01*
X109616879Y-64932420D01*
X109618728Y-64936883D01*
X109618328Y-64937048D01*
X109636230Y-64994223D01*
X109617744Y-65061603D01*
X109615353Y-65065323D01*
X109614055Y-65067264D01*
X109614055Y-65067266D01*
X109602283Y-65126450D01*
X109602283Y-65266418D01*
X109602595Y-65267985D01*
X109614055Y-65325603D01*
X109615353Y-65327545D01*
X109616879Y-65332420D01*
X109618728Y-65336883D01*
X109618328Y-65337048D01*
X109636230Y-65394223D01*
X109617744Y-65461603D01*
X109615353Y-65465323D01*
X109614055Y-65467264D01*
X109614055Y-65467266D01*
X109602283Y-65526450D01*
X109602283Y-65666418D01*
X109606324Y-65686732D01*
X109614055Y-65725603D01*
X109615353Y-65727545D01*
X109616879Y-65732420D01*
X109618728Y-65736883D01*
X109618328Y-65737048D01*
X109636230Y-65794223D01*
X109617744Y-65861603D01*
X109615353Y-65865323D01*
X109614055Y-65867264D01*
X109602283Y-65926451D01*
X109602283Y-66066416D01*
X109614055Y-66125603D01*
X109615353Y-66127545D01*
X109616879Y-66132420D01*
X109618728Y-66136883D01*
X109618328Y-66137048D01*
X109636230Y-66194223D01*
X109633422Y-66222765D01*
X109628425Y-66245759D01*
X109614055Y-66267266D01*
X109602283Y-66326450D01*
X109602283Y-66366061D01*
X109599455Y-66379076D01*
X109588839Y-66398526D01*
X109582598Y-66419784D01*
X109572430Y-66428593D01*
X109565984Y-66440407D01*
X109546536Y-66451031D01*
X109529794Y-66465539D01*
X109516476Y-66467453D01*
X109504668Y-66473905D01*
X109482568Y-66472329D01*
X109460636Y-66475483D01*
X109448395Y-66469892D01*
X109434975Y-66468936D01*
X109417236Y-66455662D01*
X109397080Y-66446458D01*
X109390602Y-66440426D01*
X109265419Y-66315243D01*
X109231934Y-66253920D01*
X109229100Y-66227562D01*
X109229100Y-64954430D01*
X109229099Y-64954427D01*
X109227362Y-64950234D01*
X109205238Y-64896821D01*
X109194222Y-64870226D01*
X108629775Y-64305778D01*
X108570233Y-64281115D01*
X108570232Y-64281114D01*
X108545571Y-64270900D01*
X106946259Y-64270900D01*
X106879220Y-64251215D01*
X106858578Y-64234581D01*
X106620602Y-63996605D01*
X106605898Y-63969677D01*
X106589306Y-63943859D01*
X106588414Y-63937658D01*
X106587117Y-63935282D01*
X106584283Y-63908924D01*
X106584283Y-63879304D01*
X106593723Y-63831848D01*
X106596306Y-63825609D01*
X106596311Y-63825602D01*
X106608083Y-63766418D01*
X106608083Y-62951450D01*
X106902283Y-62951450D01*
X106902283Y-63766418D01*
X106914055Y-63825602D01*
X106958900Y-63892717D01*
X107026015Y-63937562D01*
X107085199Y-63949334D01*
X107085200Y-63949334D01*
X107225166Y-63949334D01*
X107225167Y-63949334D01*
X107284351Y-63937562D01*
X107286290Y-63936266D01*
X107291161Y-63934740D01*
X107295632Y-63932889D01*
X107295797Y-63933288D01*
X107352965Y-63915386D01*
X107420346Y-63933868D01*
X107424049Y-63936248D01*
X107426015Y-63937562D01*
X107485199Y-63949334D01*
X107485200Y-63949334D01*
X107625166Y-63949334D01*
X107625167Y-63949334D01*
X107684351Y-63937562D01*
X107686290Y-63936266D01*
X107691161Y-63934740D01*
X107695632Y-63932889D01*
X107695797Y-63933288D01*
X107752965Y-63915386D01*
X107820346Y-63933868D01*
X107824049Y-63936248D01*
X107826015Y-63937562D01*
X107885199Y-63949334D01*
X107885200Y-63949334D01*
X108025166Y-63949334D01*
X108025167Y-63949334D01*
X108084351Y-63937562D01*
X108086290Y-63936266D01*
X108091161Y-63934740D01*
X108095632Y-63932889D01*
X108095797Y-63933288D01*
X108152965Y-63915386D01*
X108220346Y-63933868D01*
X108224049Y-63936248D01*
X108226015Y-63937562D01*
X108285199Y-63949334D01*
X108285200Y-63949334D01*
X108425166Y-63949334D01*
X108425167Y-63949334D01*
X108484351Y-63937562D01*
X108486290Y-63936266D01*
X108491161Y-63934740D01*
X108495632Y-63932889D01*
X108495797Y-63933288D01*
X108552965Y-63915386D01*
X108620346Y-63933868D01*
X108624049Y-63936248D01*
X108626015Y-63937562D01*
X108685199Y-63949334D01*
X108685200Y-63949334D01*
X108825166Y-63949334D01*
X108825167Y-63949334D01*
X108884351Y-63937562D01*
X108886290Y-63936266D01*
X108891161Y-63934740D01*
X108895632Y-63932889D01*
X108895797Y-63933288D01*
X108952965Y-63915386D01*
X109020346Y-63933868D01*
X109024049Y-63936248D01*
X109026015Y-63937562D01*
X109085199Y-63949334D01*
X109085200Y-63949334D01*
X109225166Y-63949334D01*
X109225167Y-63949334D01*
X109284351Y-63937562D01*
X109286290Y-63936266D01*
X109291161Y-63934740D01*
X109295632Y-63932889D01*
X109295797Y-63933288D01*
X109352965Y-63915386D01*
X109420346Y-63933868D01*
X109424049Y-63936248D01*
X109426015Y-63937562D01*
X109485199Y-63949334D01*
X109485200Y-63949334D01*
X109603830Y-63949334D01*
X109668517Y-63949334D01*
X109784799Y-63833052D01*
X109784805Y-63833045D01*
X109808082Y-63776848D01*
X109808083Y-63776838D01*
X109808083Y-62951450D01*
X109796311Y-62892266D01*
X109751466Y-62825151D01*
X109684351Y-62780306D01*
X109625167Y-62768534D01*
X109485199Y-62768534D01*
X109465471Y-62772458D01*
X109426013Y-62780306D01*
X109424072Y-62781604D01*
X109419196Y-62783130D01*
X109414734Y-62784979D01*
X109414568Y-62784579D01*
X109411737Y-62785465D01*
X109401601Y-62793485D01*
X109379033Y-62795705D01*
X109357394Y-62802481D01*
X109344929Y-62799061D01*
X109332067Y-62800327D01*
X109311881Y-62789994D01*
X109290014Y-62783995D01*
X109286294Y-62781604D01*
X109284352Y-62780306D01*
X109254759Y-62774420D01*
X109225167Y-62768534D01*
X109085199Y-62768534D01*
X109065471Y-62772458D01*
X109026013Y-62780306D01*
X109024072Y-62781604D01*
X109019196Y-62783130D01*
X109014734Y-62784979D01*
X109014568Y-62784579D01*
X108957394Y-62802481D01*
X108890014Y-62783995D01*
X108886294Y-62781604D01*
X108884352Y-62780306D01*
X108854759Y-62774420D01*
X108825167Y-62768534D01*
X108685199Y-62768534D01*
X108665471Y-62772458D01*
X108626013Y-62780306D01*
X108624072Y-62781604D01*
X108619196Y-62783130D01*
X108614734Y-62784979D01*
X108614568Y-62784579D01*
X108557394Y-62802481D01*
X108490014Y-62783995D01*
X108486294Y-62781604D01*
X108484352Y-62780306D01*
X108454759Y-62774420D01*
X108425167Y-62768534D01*
X108285199Y-62768534D01*
X108265471Y-62772458D01*
X108226013Y-62780306D01*
X108224072Y-62781604D01*
X108219196Y-62783130D01*
X108214734Y-62784979D01*
X108214568Y-62784579D01*
X108157394Y-62802481D01*
X108090014Y-62783995D01*
X108086294Y-62781604D01*
X108084352Y-62780306D01*
X108054759Y-62774420D01*
X108025167Y-62768534D01*
X107885199Y-62768534D01*
X107865471Y-62772458D01*
X107826013Y-62780306D01*
X107824072Y-62781604D01*
X107819196Y-62783130D01*
X107814734Y-62784979D01*
X107814568Y-62784579D01*
X107757394Y-62802481D01*
X107690014Y-62783995D01*
X107686294Y-62781604D01*
X107684352Y-62780306D01*
X107654759Y-62774420D01*
X107625167Y-62768534D01*
X107485199Y-62768534D01*
X107465471Y-62772458D01*
X107426013Y-62780306D01*
X107424072Y-62781604D01*
X107419196Y-62783130D01*
X107414734Y-62784979D01*
X107414568Y-62784579D01*
X107357394Y-62802481D01*
X107290014Y-62783995D01*
X107286294Y-62781604D01*
X107284352Y-62780306D01*
X107254759Y-62774420D01*
X107225167Y-62768534D01*
X107085199Y-62768534D01*
X107026015Y-62780306D01*
X106958900Y-62825151D01*
X106914055Y-62892266D01*
X106902283Y-62951450D01*
X106608083Y-62951450D01*
X106603863Y-62930233D01*
X106596312Y-62892269D01*
X106593721Y-62886014D01*
X106584283Y-62838563D01*
X106584283Y-62392908D01*
X106603968Y-62325869D01*
X106620597Y-62305232D01*
X107086719Y-61839110D01*
X107148040Y-61805627D01*
X107217732Y-61810611D01*
X107273665Y-61852483D01*
X107295843Y-61911305D01*
X107296899Y-61911113D01*
X107297958Y-61916916D01*
X107298016Y-61917068D01*
X107298037Y-61917344D01*
X107343152Y-62072630D01*
X107425461Y-62211808D01*
X107425468Y-62211817D01*
X107539799Y-62326148D01*
X107539808Y-62326155D01*
X107678987Y-62408465D01*
X107825183Y-62450938D01*
X107825183Y-61770434D01*
X107844868Y-61703395D01*
X107897672Y-61657640D01*
X107949183Y-61646434D01*
X108201183Y-61646434D01*
X108268222Y-61666119D01*
G37*
%TD.AperFunction*%
%TA.AperFunction,Conductor*%
G36*
X93133631Y-52666619D02*
G01*
X93179386Y-52719423D01*
X93189330Y-52788581D01*
X93189065Y-52790332D01*
X93177283Y-52864720D01*
X93177283Y-53428147D01*
X93192225Y-53522487D01*
X93192226Y-53522491D01*
X93206312Y-53550136D01*
X93219208Y-53618805D01*
X93192931Y-53683545D01*
X93183508Y-53694111D01*
X92785963Y-54091656D01*
X92785960Y-54091661D01*
X92777116Y-54113014D01*
X92777115Y-54113016D01*
X92751083Y-54175861D01*
X92751083Y-56402107D01*
X92731398Y-56469146D01*
X92678594Y-56514901D01*
X92609436Y-56524845D01*
X92545880Y-56495820D01*
X92539402Y-56489788D01*
X92491830Y-56442216D01*
X92491828Y-56442214D01*
X92409889Y-56406034D01*
X92388234Y-56396472D01*
X92362910Y-56393534D01*
X92362909Y-56393534D01*
X91972457Y-56393534D01*
X91972455Y-56393534D01*
X91947132Y-56396472D01*
X91947130Y-56396472D01*
X91843542Y-56442212D01*
X91843540Y-56442213D01*
X91843538Y-56442214D01*
X91843537Y-56442214D01*
X91843535Y-56442216D01*
X91763465Y-56522286D01*
X91763461Y-56522293D01*
X91717721Y-56625881D01*
X91717721Y-56625883D01*
X91714783Y-56651206D01*
X91714783Y-57766661D01*
X91717721Y-57791984D01*
X91717721Y-57791986D01*
X91746157Y-57856386D01*
X91763463Y-57895579D01*
X91763465Y-57895581D01*
X91851663Y-57983779D01*
X91849226Y-57986215D01*
X91881065Y-58025217D01*
X91886581Y-58041300D01*
X91906856Y-58116966D01*
X91906858Y-58116971D01*
X91921555Y-58142428D01*
X91943706Y-58180794D01*
X91943708Y-58180797D01*
X92219764Y-58456853D01*
X92253249Y-58518176D01*
X92248265Y-58587868D01*
X92206393Y-58643801D01*
X92140929Y-58668218D01*
X92132083Y-58668534D01*
X91972455Y-58668534D01*
X91947132Y-58671472D01*
X91947130Y-58671472D01*
X91843542Y-58717212D01*
X91843540Y-58717213D01*
X91843538Y-58717214D01*
X91843537Y-58717214D01*
X91843535Y-58717216D01*
X91763465Y-58797286D01*
X91763461Y-58797293D01*
X91717721Y-58900881D01*
X91717721Y-58900883D01*
X91714783Y-58926206D01*
X91714783Y-60041661D01*
X91717721Y-60066984D01*
X91717721Y-60066986D01*
X91754038Y-60149234D01*
X91763463Y-60170579D01*
X91843538Y-60250654D01*
X91947133Y-60296396D01*
X91972457Y-60299334D01*
X91972458Y-60299334D01*
X92362908Y-60299334D01*
X92362909Y-60299334D01*
X92388233Y-60296396D01*
X92491828Y-60250654D01*
X92571903Y-60170579D01*
X92617645Y-60066984D01*
X92618214Y-60062083D01*
X93267683Y-60062083D01*
X93270582Y-60098923D01*
X93270583Y-60098929D01*
X93316399Y-60256627D01*
X93316400Y-60256630D01*
X93386440Y-60375061D01*
X93403623Y-60442785D01*
X93386440Y-60501303D01*
X93327595Y-60600805D01*
X93287156Y-60740000D01*
X93817683Y-60740000D01*
X93817683Y-59733934D01*
X94317683Y-59733934D01*
X94317683Y-60093327D01*
X94347166Y-60147321D01*
X94350000Y-60173679D01*
X94350000Y-60740000D01*
X94912844Y-60740000D01*
X94872404Y-60600805D01*
X94790735Y-60462710D01*
X94789248Y-60460792D01*
X94788550Y-60459014D01*
X94786765Y-60455996D01*
X94787252Y-60455707D01*
X94781597Y-60441303D01*
X94769632Y-60424123D01*
X94769086Y-60409435D01*
X94763715Y-60395754D01*
X94767815Y-60375222D01*
X94767038Y-60354301D01*
X94776643Y-60331018D01*
X94777398Y-60327238D01*
X94780498Y-60321674D01*
X94815910Y-60261795D01*
X94866979Y-60214112D01*
X94935720Y-60201608D01*
X95000310Y-60228253D01*
X95010323Y-60237235D01*
X95061837Y-60288749D01*
X95211058Y-60380790D01*
X95211063Y-60380792D01*
X95377485Y-60435939D01*
X95377492Y-60435940D01*
X95480202Y-60446433D01*
X95755182Y-60446433D01*
X95755183Y-60446432D01*
X95755183Y-59696434D01*
X94997683Y-59696434D01*
X94996502Y-59697615D01*
X94935179Y-59731100D01*
X94908821Y-59733934D01*
X94317683Y-59733934D01*
X93817683Y-59733934D01*
X93267683Y-59733934D01*
X93267683Y-60062083D01*
X92618214Y-60062083D01*
X92620583Y-60041660D01*
X92620583Y-58926208D01*
X92617645Y-58900884D01*
X92595362Y-58850420D01*
X92586291Y-58781143D01*
X92616114Y-58717958D01*
X92675363Y-58680926D01*
X92708797Y-58676334D01*
X93161389Y-58676334D01*
X93228428Y-58696019D01*
X93274183Y-58748823D01*
X93284127Y-58817981D01*
X93280465Y-58834930D01*
X93270583Y-58868941D01*
X93270582Y-58868944D01*
X93267683Y-58905784D01*
X93267683Y-59233934D01*
X94650183Y-59233934D01*
X94651364Y-59232753D01*
X94712687Y-59199268D01*
X94739045Y-59196434D01*
X97230182Y-59196434D01*
X97230182Y-59146462D01*
X97230181Y-59146447D01*
X97219688Y-59043736D01*
X97164541Y-58877314D01*
X97164539Y-58877309D01*
X97072498Y-58728088D01*
X96948528Y-58604118D01*
X96799307Y-58512077D01*
X96799302Y-58512075D01*
X96632880Y-58456928D01*
X96632873Y-58456927D01*
X96530169Y-58446434D01*
X96527335Y-58446434D01*
X96460296Y-58426749D01*
X96414541Y-58373945D01*
X96404597Y-58304787D01*
X96433622Y-58241231D01*
X96492400Y-58203457D01*
X96507937Y-58199961D01*
X96606233Y-58184392D01*
X96606233Y-58184391D01*
X96606238Y-58184391D01*
X96719954Y-58126450D01*
X96810199Y-58036205D01*
X96868140Y-57922489D01*
X96868140Y-57922484D01*
X96868142Y-57922482D01*
X96871158Y-57913203D01*
X96874665Y-57914342D01*
X96881398Y-57900146D01*
X96895563Y-57869131D01*
X96896347Y-57868627D01*
X96896746Y-57867786D01*
X96925649Y-57849795D01*
X96954341Y-57831357D01*
X96955553Y-57831182D01*
X96956064Y-57830865D01*
X96989276Y-57826334D01*
X97081758Y-57826334D01*
X97148797Y-57846019D01*
X97181587Y-57880408D01*
X97182805Y-57879474D01*
X97187751Y-57885920D01*
X97187753Y-57885923D01*
X97290694Y-57988864D01*
X97290695Y-57988865D01*
X97290697Y-57988866D01*
X97317295Y-58004222D01*
X97416772Y-58061655D01*
X97557392Y-58099334D01*
X97557394Y-58099334D01*
X97702971Y-58099334D01*
X97702974Y-58099334D01*
X97843594Y-58061655D01*
X97969672Y-57988864D01*
X98072613Y-57885923D01*
X98072617Y-57885915D01*
X98077561Y-57879474D01*
X98079196Y-57880729D01*
X98079908Y-57880050D01*
X98084895Y-57869131D01*
X98104726Y-57856386D01*
X98121788Y-57840118D01*
X98135044Y-57836902D01*
X98143673Y-57831357D01*
X98178608Y-57826334D01*
X98215874Y-57826334D01*
X98282913Y-57846019D01*
X98328668Y-57898823D01*
X98333338Y-57914660D01*
X98334434Y-57914322D01*
X98337275Y-57923519D01*
X98389005Y-58029334D01*
X98472282Y-58112611D01*
X98472283Y-58112611D01*
X98472285Y-58112613D01*
X98578095Y-58164340D01*
X98646689Y-58174334D01*
X98646694Y-58174334D01*
X99113672Y-58174334D01*
X99113677Y-58174334D01*
X99182271Y-58164340D01*
X99288081Y-58112613D01*
X99371362Y-58029332D01*
X99423089Y-57923522D01*
X99433083Y-57854928D01*
X99433083Y-57237940D01*
X99423089Y-57169346D01*
X99371362Y-57063536D01*
X99371360Y-57063534D01*
X99371360Y-57063533D01*
X99288083Y-56980256D01*
X99182269Y-56928527D01*
X99170099Y-56926754D01*
X99106598Y-56897608D01*
X99068936Y-56838758D01*
X99069070Y-56768888D01*
X99102196Y-56714511D01*
X99113007Y-56704153D01*
X99139489Y-56688864D01*
X99242430Y-56585923D01*
X99249878Y-56573022D01*
X99262641Y-56560795D01*
X99278597Y-56552520D01*
X99291605Y-56540118D01*
X99312107Y-56535144D01*
X99324668Y-56528631D01*
X99334994Y-56529592D01*
X99348425Y-56526334D01*
X101727031Y-56526334D01*
X101727033Y-56526334D01*
X101798220Y-56507259D01*
X101862045Y-56470410D01*
X102364402Y-55968053D01*
X102425725Y-55934568D01*
X102495417Y-55939552D01*
X102551350Y-55981424D01*
X102575767Y-56046888D01*
X102576083Y-56055734D01*
X102576083Y-56425175D01*
X102556398Y-56492214D01*
X102539764Y-56512856D01*
X101771605Y-57281015D01*
X101710282Y-57314500D01*
X101683924Y-57317334D01*
X101201893Y-57317334D01*
X101134854Y-57297649D01*
X101089099Y-57244845D01*
X101079189Y-57211215D01*
X101073089Y-57169346D01*
X101021362Y-57063536D01*
X101021360Y-57063534D01*
X101021360Y-57063533D01*
X100938083Y-56980256D01*
X100832271Y-56928528D01*
X100832264Y-56928527D01*
X100763677Y-56918534D01*
X100296689Y-56918534D01*
X100240271Y-56926754D01*
X100228094Y-56928528D01*
X100122282Y-56980256D01*
X100039005Y-57063533D01*
X99987277Y-57169345D01*
X99986651Y-57173642D01*
X99977283Y-57237940D01*
X99977283Y-57854928D01*
X99987277Y-57923522D01*
X100026138Y-58003015D01*
X100039005Y-58029334D01*
X100122282Y-58112611D01*
X100122283Y-58112611D01*
X100122285Y-58112613D01*
X100228095Y-58164340D01*
X100296689Y-58174334D01*
X100296694Y-58174334D01*
X100763672Y-58174334D01*
X100763677Y-58174334D01*
X100832271Y-58164340D01*
X100841030Y-58160058D01*
X100868639Y-58146561D01*
X100937513Y-58134801D01*
X101001810Y-58162145D01*
X101041117Y-58219909D01*
X101047100Y-58257961D01*
X101047100Y-58372791D01*
X101084779Y-58513411D01*
X101084780Y-58513412D01*
X101084780Y-58513413D01*
X101157567Y-58639485D01*
X101157569Y-58639488D01*
X101157570Y-58639489D01*
X101260511Y-58742430D01*
X101386589Y-58815221D01*
X101527209Y-58852900D01*
X101527211Y-58852900D01*
X101672788Y-58852900D01*
X101672791Y-58852900D01*
X101813411Y-58815221D01*
X101939489Y-58742430D01*
X102042430Y-58639489D01*
X102115221Y-58513411D01*
X102152900Y-58372791D01*
X102152900Y-58227209D01*
X102152900Y-58219081D01*
X102155239Y-58219081D01*
X102164152Y-58161903D01*
X102188645Y-58127068D01*
X102435419Y-57880295D01*
X102496742Y-57846810D01*
X102566434Y-57851794D01*
X102622367Y-57893666D01*
X102646784Y-57959130D01*
X102647100Y-57967976D01*
X102647100Y-57972791D01*
X102684779Y-58113411D01*
X102684779Y-58113412D01*
X102684780Y-58113413D01*
X102757567Y-58239485D01*
X102757569Y-58239488D01*
X102757570Y-58239489D01*
X102860511Y-58342430D01*
X102860512Y-58342431D01*
X102860514Y-58342432D01*
X102908525Y-58370151D01*
X102986589Y-58415221D01*
X103127209Y-58452900D01*
X103127211Y-58452900D01*
X103272788Y-58452900D01*
X103272791Y-58452900D01*
X103413411Y-58415221D01*
X103539489Y-58342430D01*
X103642430Y-58239489D01*
X103715221Y-58113411D01*
X103752900Y-57972791D01*
X103752900Y-57827209D01*
X103745551Y-57799782D01*
X103745836Y-57787783D01*
X103741641Y-57776535D01*
X103746651Y-57753501D01*
X103747212Y-57729934D01*
X103754312Y-57718284D01*
X103756493Y-57708262D01*
X103777641Y-57680011D01*
X103830443Y-57627209D01*
X104847100Y-57627209D01*
X104847100Y-57772791D01*
X104884779Y-57913411D01*
X104884780Y-57913412D01*
X104884780Y-57913413D01*
X104957567Y-58039485D01*
X104957569Y-58039488D01*
X104957570Y-58039489D01*
X105060511Y-58142430D01*
X105060512Y-58142431D01*
X105060514Y-58142432D01*
X105098460Y-58164340D01*
X105186589Y-58215221D01*
X105327209Y-58252900D01*
X105327211Y-58252900D01*
X105472788Y-58252900D01*
X105472791Y-58252900D01*
X105613411Y-58215221D01*
X105739489Y-58142430D01*
X105842430Y-58039489D01*
X105870367Y-57991099D01*
X105879054Y-57982816D01*
X105884041Y-57971897D01*
X105903872Y-57959152D01*
X105920934Y-57942884D01*
X105934190Y-57939668D01*
X105942819Y-57934123D01*
X105977754Y-57929100D01*
X106005115Y-57929100D01*
X106072154Y-57948785D01*
X106117909Y-58001589D01*
X106118548Y-58003011D01*
X106119083Y-58004222D01*
X106134170Y-58038393D01*
X106134171Y-58038395D01*
X106134172Y-58038396D01*
X106211604Y-58115828D01*
X106311779Y-58160059D01*
X106336266Y-58162900D01*
X106336267Y-58162900D01*
X106698947Y-58162900D01*
X106765986Y-58182585D01*
X106805679Y-58223779D01*
X106830278Y-58265374D01*
X106830285Y-58265383D01*
X106944616Y-58379714D01*
X106944625Y-58379721D01*
X107083804Y-58462031D01*
X107230000Y-58504504D01*
X107230000Y-58504503D01*
X107730000Y-58504503D01*
X107876195Y-58462031D01*
X108015374Y-58379721D01*
X108015383Y-58379714D01*
X108129714Y-58265383D01*
X108129721Y-58265374D01*
X108212031Y-58126195D01*
X108212033Y-58126190D01*
X108257144Y-57970918D01*
X108257145Y-57970912D01*
X108258790Y-57950000D01*
X107730000Y-57950000D01*
X107730000Y-58504503D01*
X107230000Y-58504503D01*
X107230000Y-57450000D01*
X107730000Y-57450000D01*
X108258790Y-57450000D01*
X108257145Y-57429089D01*
X108212032Y-57273805D01*
X108210621Y-57271420D01*
X108855184Y-57271420D01*
X108865677Y-57374131D01*
X108920824Y-57540553D01*
X108920826Y-57540558D01*
X109012867Y-57689779D01*
X109136837Y-57813749D01*
X109286058Y-57905790D01*
X109286063Y-57905792D01*
X109452485Y-57960939D01*
X109452492Y-57960940D01*
X109555202Y-57971433D01*
X109605182Y-57971432D01*
X109605183Y-57971432D01*
X109605183Y-56996434D01*
X108855184Y-56996434D01*
X108855184Y-57271420D01*
X108210621Y-57271420D01*
X108205715Y-57263125D01*
X108188530Y-57195402D01*
X108205715Y-57136875D01*
X108212031Y-57126195D01*
X108257145Y-56970910D01*
X108258790Y-56950000D01*
X107730000Y-56950000D01*
X107730000Y-57450000D01*
X107230000Y-57450000D01*
X107230000Y-55895494D01*
X107730000Y-55895494D01*
X107730000Y-56450000D01*
X108258790Y-56450000D01*
X108257145Y-56429089D01*
X108212031Y-56273804D01*
X108181067Y-56221447D01*
X108855183Y-56221447D01*
X108855183Y-56496434D01*
X109605183Y-56496434D01*
X109605183Y-55521434D01*
X109605182Y-55521433D01*
X109555212Y-55521434D01*
X109555194Y-55521435D01*
X109452485Y-55531928D01*
X109286063Y-55587075D01*
X109286058Y-55587077D01*
X109136837Y-55679118D01*
X109012867Y-55803088D01*
X108920826Y-55952309D01*
X108920824Y-55952314D01*
X108865677Y-56118736D01*
X108865676Y-56118743D01*
X108855183Y-56221447D01*
X108181067Y-56221447D01*
X108129721Y-56134625D01*
X108129714Y-56134616D01*
X108015383Y-56020285D01*
X108015374Y-56020278D01*
X107876193Y-55937967D01*
X107876190Y-55937965D01*
X107730001Y-55895493D01*
X107730000Y-55895494D01*
X107230000Y-55895494D01*
X107229998Y-55895493D01*
X107083809Y-55937965D01*
X107083806Y-55937967D01*
X106944625Y-56020278D01*
X106944620Y-56020282D01*
X106830282Y-56134621D01*
X106830276Y-56134629D01*
X106805678Y-56176222D01*
X106754609Y-56223905D01*
X106698947Y-56237100D01*
X106336264Y-56237100D01*
X106311778Y-56239941D01*
X106311776Y-56239941D01*
X106211607Y-56284170D01*
X106211602Y-56284173D01*
X106134173Y-56361602D01*
X106134170Y-56361607D01*
X106089941Y-56461776D01*
X106089941Y-56461778D01*
X106087100Y-56486264D01*
X106087100Y-56913735D01*
X106089941Y-56938221D01*
X106089941Y-56938223D01*
X106134170Y-57038392D01*
X106134173Y-57038397D01*
X106208095Y-57112319D01*
X106208799Y-57113609D01*
X106210076Y-57114345D01*
X106225495Y-57144185D01*
X106241580Y-57173642D01*
X106241475Y-57175109D01*
X106242151Y-57176418D01*
X106238991Y-57209841D01*
X106236596Y-57243334D01*
X106235668Y-57244987D01*
X106235575Y-57245977D01*
X106232469Y-57250690D01*
X106217957Y-57276560D01*
X106212183Y-57283916D01*
X106211604Y-57284172D01*
X106134172Y-57361604D01*
X106112264Y-57411220D01*
X106102658Y-57423460D01*
X106086373Y-57435079D01*
X106073465Y-57450362D01*
X106058514Y-57454957D01*
X106045782Y-57464042D01*
X106025800Y-57465012D01*
X106006679Y-57470890D01*
X106005115Y-57470900D01*
X105977754Y-57470900D01*
X105910715Y-57451215D01*
X105870367Y-57408900D01*
X105856441Y-57384779D01*
X105842430Y-57360511D01*
X105739489Y-57257570D01*
X105739488Y-57257569D01*
X105739485Y-57257567D01*
X105613413Y-57184780D01*
X105613412Y-57184779D01*
X105613411Y-57184779D01*
X105472791Y-57147100D01*
X105327209Y-57147100D01*
X105186589Y-57184779D01*
X105186587Y-57184780D01*
X105186586Y-57184780D01*
X105060514Y-57257567D01*
X105060509Y-57257571D01*
X104957571Y-57360509D01*
X104957567Y-57360514D01*
X104884780Y-57486586D01*
X104884780Y-57486587D01*
X104884779Y-57486589D01*
X104847100Y-57627209D01*
X103830443Y-57627209D01*
X103936518Y-57521135D01*
X103936526Y-57521129D01*
X103948438Y-57509216D01*
X103948440Y-57509216D01*
X104019582Y-57438074D01*
X104048883Y-57367334D01*
X104058084Y-57345122D01*
X104058084Y-57244512D01*
X104058083Y-57244509D01*
X104058083Y-55983536D01*
X104077768Y-55916497D01*
X104130572Y-55870742D01*
X104199730Y-55860798D01*
X104263286Y-55889823D01*
X104289470Y-55921536D01*
X104357567Y-56039485D01*
X104357569Y-56039488D01*
X104357570Y-56039489D01*
X104460511Y-56142430D01*
X104460512Y-56142431D01*
X104460514Y-56142432D01*
X104502408Y-56166619D01*
X104586589Y-56215221D01*
X104727209Y-56252900D01*
X104727211Y-56252900D01*
X104872788Y-56252900D01*
X104872791Y-56252900D01*
X105013411Y-56215221D01*
X105139489Y-56142430D01*
X105242430Y-56039489D01*
X105315221Y-55913411D01*
X105326470Y-55871427D01*
X105362831Y-55811772D01*
X105425677Y-55781241D01*
X105495053Y-55789535D01*
X105533924Y-55815843D01*
X105560511Y-55842430D01*
X105560512Y-55842431D01*
X105560514Y-55842432D01*
X105609549Y-55870742D01*
X105686589Y-55915221D01*
X105827209Y-55952900D01*
X105827211Y-55952900D01*
X105972788Y-55952900D01*
X105972791Y-55952900D01*
X106113411Y-55915221D01*
X106239489Y-55842430D01*
X106342430Y-55739489D01*
X106415221Y-55613411D01*
X106452900Y-55472791D01*
X106452900Y-55327209D01*
X106438438Y-55273237D01*
X106440101Y-55203390D01*
X106452727Y-55175964D01*
X106460318Y-55163677D01*
X106499405Y-55124592D01*
X106525948Y-55060511D01*
X106534283Y-55040388D01*
X106534283Y-54910477D01*
X106553968Y-54843438D01*
X106556575Y-54839544D01*
X106569949Y-54820366D01*
X106605417Y-54796668D01*
X106639211Y-54746092D01*
X106646178Y-54711064D01*
X106661025Y-54689777D01*
X106668851Y-54683497D01*
X106673501Y-54674608D01*
X106695642Y-54661999D01*
X106715520Y-54646050D01*
X106725499Y-54644998D01*
X106734217Y-54640034D01*
X106780431Y-54639208D01*
X106785005Y-54638727D01*
X106785773Y-54639113D01*
X106786925Y-54639093D01*
X106826317Y-54646930D01*
X106829993Y-54646930D01*
X106830047Y-54646934D01*
X106839291Y-54646934D01*
X106905155Y-54646934D01*
X106971047Y-54646938D01*
X106971062Y-54646934D01*
X107789291Y-54646934D01*
X107955155Y-54646934D01*
X108021075Y-54646934D01*
X108028923Y-54646934D01*
X108029617Y-54646887D01*
X108033992Y-54646888D01*
X108188640Y-54616136D01*
X108334318Y-54555807D01*
X108465427Y-54468217D01*
X108576930Y-54356733D01*
X108664542Y-54225639D01*
X108686935Y-54171591D01*
X108724896Y-54079974D01*
X108724896Y-54079973D01*
X108724897Y-54079971D01*
X108755674Y-53925329D01*
X108755675Y-53912354D01*
X108755683Y-53912326D01*
X108755683Y-53846377D01*
X108755691Y-53780599D01*
X108755690Y-53780595D01*
X108755691Y-53772589D01*
X108755683Y-53772451D01*
X108755683Y-52770934D01*
X108775368Y-52703895D01*
X108828172Y-52658140D01*
X108879683Y-52646934D01*
X114930683Y-52646934D01*
X114997722Y-52666619D01*
X115043477Y-52719423D01*
X115054683Y-52770934D01*
X115054683Y-55272489D01*
X115054680Y-55280578D01*
X115054675Y-55280599D01*
X115054676Y-55293375D01*
X115054676Y-55295160D01*
X115054660Y-55295214D01*
X115054675Y-55425328D01*
X115054675Y-55425329D01*
X115065249Y-55478463D01*
X115082514Y-55565219D01*
X115085450Y-55579969D01*
X115085450Y-55579971D01*
X115145796Y-55725632D01*
X115145797Y-55725634D01*
X115145799Y-55725638D01*
X115233405Y-55856735D01*
X115233407Y-55856737D01*
X115233408Y-55856738D01*
X115233410Y-55856741D01*
X115328985Y-55952309D01*
X115344901Y-55968224D01*
X115476003Y-56055822D01*
X115621674Y-56116164D01*
X115776317Y-56146930D01*
X115780000Y-56146930D01*
X115789279Y-56146930D01*
X115789291Y-56146934D01*
X115855154Y-56146934D01*
X115855157Y-56146934D01*
X115921047Y-56146938D01*
X115921051Y-56146936D01*
X115929099Y-56146937D01*
X115929162Y-56146934D01*
X115930683Y-56146934D01*
X115997722Y-56166619D01*
X116043477Y-56219423D01*
X116054683Y-56270934D01*
X116054683Y-70636676D01*
X116034998Y-70703715D01*
X115982194Y-70749470D01*
X115913036Y-70759414D01*
X115849480Y-70730389D01*
X115843002Y-70724357D01*
X115734969Y-70616324D01*
X115563003Y-70491385D01*
X115373597Y-70394878D01*
X115373596Y-70394877D01*
X115373595Y-70394877D01*
X115171426Y-70329188D01*
X115171424Y-70329187D01*
X115171423Y-70329187D01*
X115010140Y-70303642D01*
X114961470Y-70295934D01*
X114748896Y-70295934D01*
X114700225Y-70303642D01*
X114538943Y-70329187D01*
X114336768Y-70394878D01*
X114147362Y-70491385D01*
X113975396Y-70616324D01*
X113825073Y-70766647D01*
X113700134Y-70938613D01*
X113603627Y-71128019D01*
X113537936Y-71330194D01*
X113504683Y-71540147D01*
X113504683Y-71752720D01*
X113521190Y-71856945D01*
X113537937Y-71962677D01*
X113602015Y-72159889D01*
X113603627Y-72164848D01*
X113700134Y-72354254D01*
X113825073Y-72526220D01*
X113975396Y-72676543D01*
X114147362Y-72801482D01*
X114147364Y-72801483D01*
X114147367Y-72801485D01*
X114336771Y-72897991D01*
X114538940Y-72963680D01*
X114748896Y-72996934D01*
X114748897Y-72996934D01*
X114961469Y-72996934D01*
X114961470Y-72996934D01*
X115171426Y-72963680D01*
X115373595Y-72897991D01*
X115562999Y-72801485D01*
X115669159Y-72724356D01*
X115734969Y-72676543D01*
X115734971Y-72676540D01*
X115734975Y-72676538D01*
X115843002Y-72568511D01*
X115904325Y-72535026D01*
X115974017Y-72540010D01*
X116029950Y-72581882D01*
X116054367Y-72647346D01*
X116054683Y-72656192D01*
X116054683Y-81521934D01*
X116034998Y-81588973D01*
X115982194Y-81634728D01*
X115930683Y-81645934D01*
X91179683Y-81645934D01*
X91112644Y-81626249D01*
X91066889Y-81573445D01*
X91055683Y-81521934D01*
X91055683Y-78568286D01*
X91472283Y-78568286D01*
X91472283Y-80631713D01*
X91487224Y-80726050D01*
X91487225Y-80726053D01*
X91487226Y-80726055D01*
X91500801Y-80752697D01*
X91545168Y-80839772D01*
X91545171Y-80839776D01*
X91635406Y-80930011D01*
X91635410Y-80930014D01*
X91635412Y-80930016D01*
X91749128Y-80987957D01*
X91749130Y-80987957D01*
X91749132Y-80987958D01*
X91843470Y-81002900D01*
X91843475Y-81002900D01*
X92406896Y-81002900D01*
X92501233Y-80987958D01*
X92501233Y-80987957D01*
X92501238Y-80987957D01*
X92614954Y-80930016D01*
X92705199Y-80839771D01*
X92763140Y-80726055D01*
X92763141Y-80726050D01*
X92778083Y-80631713D01*
X92778083Y-78568286D01*
X94012283Y-78568286D01*
X94012283Y-80631713D01*
X94027224Y-80726050D01*
X94027225Y-80726053D01*
X94027226Y-80726055D01*
X94040801Y-80752697D01*
X94085168Y-80839772D01*
X94085171Y-80839776D01*
X94175406Y-80930011D01*
X94175410Y-80930014D01*
X94175412Y-80930016D01*
X94289128Y-80987957D01*
X94289130Y-80987957D01*
X94289132Y-80987958D01*
X94383470Y-81002900D01*
X94383475Y-81002900D01*
X94946896Y-81002900D01*
X95041233Y-80987958D01*
X95041233Y-80987957D01*
X95041238Y-80987957D01*
X95154954Y-80930016D01*
X95245199Y-80839771D01*
X95303140Y-80726055D01*
X95303141Y-80726050D01*
X95318083Y-80631713D01*
X95318083Y-78568286D01*
X95303141Y-78473949D01*
X95303140Y-78473947D01*
X95303140Y-78473945D01*
X95245199Y-78360229D01*
X95245197Y-78360227D01*
X95245194Y-78360223D01*
X95154959Y-78269988D01*
X95154955Y-78269985D01*
X95154954Y-78269984D01*
X95041238Y-78212043D01*
X95041237Y-78212042D01*
X95041234Y-78212041D01*
X94998884Y-78205334D01*
X94935750Y-78175404D01*
X94898819Y-78116093D01*
X94894283Y-78082861D01*
X94894283Y-76832692D01*
X94913968Y-76765653D01*
X94930602Y-76745011D01*
X95960360Y-75715253D01*
X96021683Y-75681768D01*
X96048041Y-75678934D01*
X97806124Y-75678934D01*
X97873163Y-75698619D01*
X97918918Y-75751423D01*
X97928862Y-75820581D01*
X97899837Y-75884137D01*
X97893805Y-75890615D01*
X97010961Y-76773457D01*
X97003282Y-76791999D01*
X97003280Y-76792004D01*
X96976083Y-76857660D01*
X96976083Y-78082861D01*
X96956398Y-78149900D01*
X96903594Y-78195655D01*
X96871482Y-78205334D01*
X96829131Y-78212041D01*
X96715410Y-78269985D01*
X96715406Y-78269988D01*
X96625171Y-78360223D01*
X96625168Y-78360227D01*
X96567224Y-78473949D01*
X96552283Y-78568286D01*
X96552283Y-80631713D01*
X96567224Y-80726050D01*
X96567225Y-80726053D01*
X96567226Y-80726055D01*
X96580801Y-80752697D01*
X96625168Y-80839772D01*
X96625171Y-80839776D01*
X96715406Y-80930011D01*
X96715410Y-80930014D01*
X96715412Y-80930016D01*
X96829128Y-80987957D01*
X96829130Y-80987957D01*
X96829132Y-80987958D01*
X96923470Y-81002900D01*
X96923475Y-81002900D01*
X97486896Y-81002900D01*
X97581233Y-80987958D01*
X97581233Y-80987957D01*
X97581238Y-80987957D01*
X97694954Y-80930016D01*
X97785199Y-80839771D01*
X97843140Y-80726055D01*
X97843141Y-80726050D01*
X97858083Y-80631713D01*
X97858083Y-78568286D01*
X97843141Y-78473949D01*
X97843140Y-78473947D01*
X97843140Y-78473945D01*
X97785199Y-78360229D01*
X97785197Y-78360227D01*
X97785194Y-78360223D01*
X97694959Y-78269988D01*
X97694955Y-78269985D01*
X97694954Y-78269984D01*
X97581238Y-78212043D01*
X97581237Y-78212042D01*
X97581234Y-78212041D01*
X97538884Y-78205334D01*
X97475750Y-78175404D01*
X97438819Y-78116093D01*
X97434283Y-78082861D01*
X97434283Y-77049493D01*
X97453968Y-76982454D01*
X97470602Y-76961812D01*
X98363761Y-76068653D01*
X98425084Y-76035168D01*
X98451442Y-76032334D01*
X100156125Y-76032334D01*
X100223164Y-76052019D01*
X100268919Y-76104823D01*
X100278863Y-76173981D01*
X100249838Y-76237537D01*
X100243806Y-76244015D01*
X99550961Y-76936857D01*
X99550961Y-76936858D01*
X99544317Y-76952899D01*
X99544317Y-76952900D01*
X99516083Y-77021061D01*
X99516083Y-78082861D01*
X99496398Y-78149900D01*
X99443594Y-78195655D01*
X99411482Y-78205334D01*
X99369131Y-78212041D01*
X99255410Y-78269985D01*
X99255406Y-78269988D01*
X99165171Y-78360223D01*
X99165168Y-78360227D01*
X99107224Y-78473949D01*
X99092283Y-78568286D01*
X99092283Y-80631713D01*
X99107224Y-80726050D01*
X99107225Y-80726053D01*
X99107226Y-80726055D01*
X99120801Y-80752697D01*
X99165168Y-80839772D01*
X99165171Y-80839776D01*
X99255406Y-80930011D01*
X99255410Y-80930014D01*
X99255412Y-80930016D01*
X99369128Y-80987957D01*
X99369130Y-80987957D01*
X99369132Y-80987958D01*
X99463470Y-81002900D01*
X99463475Y-81002900D01*
X100026896Y-81002900D01*
X100121233Y-80987958D01*
X100121233Y-80987957D01*
X100121238Y-80987957D01*
X100234954Y-80930016D01*
X100325199Y-80839771D01*
X100383140Y-80726055D01*
X100383141Y-80726050D01*
X100398083Y-80631713D01*
X100398083Y-78568286D01*
X100383141Y-78473949D01*
X100383140Y-78473947D01*
X100383140Y-78473945D01*
X100325199Y-78360229D01*
X100325197Y-78360227D01*
X100325194Y-78360223D01*
X100234959Y-78269988D01*
X100234955Y-78269985D01*
X100234954Y-78269984D01*
X100121238Y-78212043D01*
X100121237Y-78212042D01*
X100121234Y-78212041D01*
X100078884Y-78205334D01*
X100015750Y-78175404D01*
X99978819Y-78116093D01*
X99974283Y-78082861D01*
X99974283Y-77212892D01*
X99993968Y-77145853D01*
X100010602Y-77125211D01*
X100713760Y-76422053D01*
X100775083Y-76388568D01*
X100801441Y-76385734D01*
X102917523Y-76385734D01*
X102984562Y-76405419D01*
X103030317Y-76458223D01*
X103040261Y-76527381D01*
X103011236Y-76590937D01*
X103005204Y-76597415D01*
X102090963Y-77511656D01*
X102090958Y-77511664D01*
X102067194Y-77569038D01*
X102067193Y-77569040D01*
X102056084Y-77595858D01*
X102056083Y-77595864D01*
X102056083Y-78082861D01*
X102036398Y-78149900D01*
X101983594Y-78195655D01*
X101951482Y-78205334D01*
X101909131Y-78212041D01*
X101795410Y-78269985D01*
X101795406Y-78269988D01*
X101705171Y-78360223D01*
X101705168Y-78360227D01*
X101647224Y-78473949D01*
X101632283Y-78568286D01*
X101632283Y-80631713D01*
X101647224Y-80726050D01*
X101647225Y-80726053D01*
X101647226Y-80726055D01*
X101660801Y-80752697D01*
X101705168Y-80839772D01*
X101705171Y-80839776D01*
X101795406Y-80930011D01*
X101795410Y-80930014D01*
X101795412Y-80930016D01*
X101909128Y-80987957D01*
X101909130Y-80987957D01*
X101909132Y-80987958D01*
X102003470Y-81002900D01*
X102003475Y-81002900D01*
X102566896Y-81002900D01*
X102661233Y-80987958D01*
X102661233Y-80987957D01*
X102661238Y-80987957D01*
X102774954Y-80930016D01*
X102865199Y-80839771D01*
X102923140Y-80726055D01*
X102923141Y-80726050D01*
X102938083Y-80631713D01*
X102938083Y-78568286D01*
X102923141Y-78473949D01*
X102923140Y-78473947D01*
X102923140Y-78473945D01*
X102865199Y-78360229D01*
X102865197Y-78360227D01*
X102865194Y-78360223D01*
X102774959Y-78269988D01*
X102774955Y-78269985D01*
X102774954Y-78269984D01*
X102661238Y-78212043D01*
X102661237Y-78212042D01*
X102661234Y-78212041D01*
X102618884Y-78205334D01*
X102555750Y-78175404D01*
X102518819Y-78116093D01*
X102514283Y-78082861D01*
X102514283Y-77787693D01*
X102533968Y-77720654D01*
X102550602Y-77700012D01*
X104384402Y-75866212D01*
X104445725Y-75832727D01*
X104515417Y-75837711D01*
X104571350Y-75879583D01*
X104595767Y-75945047D01*
X104596083Y-75953893D01*
X104596083Y-78082861D01*
X104576398Y-78149900D01*
X104523594Y-78195655D01*
X104491482Y-78205334D01*
X104449131Y-78212041D01*
X104335410Y-78269985D01*
X104335406Y-78269988D01*
X104245171Y-78360223D01*
X104245168Y-78360227D01*
X104187224Y-78473949D01*
X104172283Y-78568286D01*
X104172283Y-80631713D01*
X104187224Y-80726050D01*
X104187225Y-80726053D01*
X104187226Y-80726055D01*
X104200801Y-80752697D01*
X104245168Y-80839772D01*
X104245171Y-80839776D01*
X104335406Y-80930011D01*
X104335410Y-80930014D01*
X104335412Y-80930016D01*
X104449128Y-80987957D01*
X104449130Y-80987957D01*
X104449132Y-80987958D01*
X104543470Y-81002900D01*
X104543475Y-81002900D01*
X105106896Y-81002900D01*
X105201233Y-80987958D01*
X105201233Y-80987957D01*
X105201238Y-80987957D01*
X105314954Y-80930016D01*
X105405199Y-80839771D01*
X105463140Y-80726055D01*
X105463141Y-80726050D01*
X105478083Y-80631713D01*
X105478083Y-78568286D01*
X105463141Y-78473949D01*
X105463140Y-78473947D01*
X105463140Y-78473945D01*
X105405199Y-78360229D01*
X105405197Y-78360227D01*
X105405194Y-78360223D01*
X105314959Y-78269988D01*
X105314955Y-78269985D01*
X105314954Y-78269984D01*
X105201238Y-78212043D01*
X105201237Y-78212042D01*
X105201234Y-78212041D01*
X105158884Y-78205334D01*
X105095750Y-78175404D01*
X105058819Y-78116093D01*
X105054283Y-78082861D01*
X105054283Y-75922477D01*
X105073968Y-75855438D01*
X105090602Y-75834796D01*
X106714402Y-74210996D01*
X106775725Y-74177511D01*
X106845417Y-74182495D01*
X106901350Y-74224367D01*
X106925767Y-74289831D01*
X106926083Y-74298677D01*
X106926083Y-78169987D01*
X106906398Y-78237026D01*
X106882043Y-78262814D01*
X106882312Y-78263083D01*
X106785171Y-78360223D01*
X106785168Y-78360227D01*
X106727224Y-78473949D01*
X106712283Y-78568286D01*
X106712283Y-80631713D01*
X106727224Y-80726050D01*
X106727225Y-80726053D01*
X106727226Y-80726055D01*
X106740801Y-80752697D01*
X106785168Y-80839772D01*
X106785171Y-80839776D01*
X106875406Y-80930011D01*
X106875410Y-80930014D01*
X106875412Y-80930016D01*
X106989128Y-80987957D01*
X106989130Y-80987957D01*
X106989132Y-80987958D01*
X107083470Y-81002900D01*
X107083475Y-81002900D01*
X107646896Y-81002900D01*
X107741233Y-80987958D01*
X107741233Y-80987957D01*
X107741238Y-80987957D01*
X107854954Y-80930016D01*
X107945199Y-80839771D01*
X108003140Y-80726055D01*
X108003141Y-80726050D01*
X108018083Y-80631713D01*
X108018083Y-78568286D01*
X108003141Y-78473949D01*
X108003140Y-78473947D01*
X108003140Y-78473945D01*
X107945199Y-78360229D01*
X107945197Y-78360227D01*
X107945194Y-78360223D01*
X107854959Y-78269988D01*
X107854955Y-78269985D01*
X107854954Y-78269984D01*
X107741238Y-78212043D01*
X107741236Y-78212042D01*
X107741233Y-78212041D01*
X107646896Y-78197100D01*
X107646891Y-78197100D01*
X107508283Y-78197100D01*
X107441244Y-78177415D01*
X107395489Y-78124611D01*
X107384283Y-78073100D01*
X107384283Y-74848893D01*
X107403968Y-74781854D01*
X107456772Y-74736099D01*
X107525930Y-74726155D01*
X107589486Y-74755180D01*
X107595964Y-74761212D01*
X109639764Y-76805012D01*
X109673249Y-76866335D01*
X109676083Y-76892693D01*
X109676083Y-78082861D01*
X109656398Y-78149900D01*
X109603594Y-78195655D01*
X109571482Y-78205334D01*
X109529131Y-78212041D01*
X109415410Y-78269985D01*
X109415406Y-78269988D01*
X109325171Y-78360223D01*
X109325168Y-78360227D01*
X109267224Y-78473949D01*
X109252283Y-78568286D01*
X109252283Y-80631713D01*
X109267224Y-80726050D01*
X109267225Y-80726053D01*
X109267226Y-80726055D01*
X109280801Y-80752697D01*
X109325168Y-80839772D01*
X109325171Y-80839776D01*
X109415406Y-80930011D01*
X109415410Y-80930014D01*
X109415412Y-80930016D01*
X109529128Y-80987957D01*
X109529130Y-80987957D01*
X109529132Y-80987958D01*
X109623470Y-81002900D01*
X109623475Y-81002900D01*
X110186896Y-81002900D01*
X110281233Y-80987958D01*
X110281233Y-80987957D01*
X110281238Y-80987957D01*
X110394954Y-80930016D01*
X110485199Y-80839771D01*
X110543140Y-80726055D01*
X110543141Y-80726050D01*
X110555189Y-80649986D01*
X111445184Y-80649986D01*
X111455677Y-80752697D01*
X111510824Y-80919119D01*
X111510826Y-80919124D01*
X111602867Y-81068345D01*
X111726837Y-81192315D01*
X111876058Y-81284356D01*
X111876063Y-81284358D01*
X112042485Y-81339505D01*
X112042492Y-81339506D01*
X112145202Y-81349999D01*
X112695183Y-81349999D01*
X112745155Y-81349999D01*
X112745169Y-81349998D01*
X112847880Y-81339505D01*
X113014302Y-81284358D01*
X113014307Y-81284356D01*
X113163528Y-81192315D01*
X113287498Y-81068345D01*
X113379539Y-80919124D01*
X113379541Y-80919119D01*
X113434688Y-80752697D01*
X113434689Y-80752690D01*
X113445182Y-80649986D01*
X113445183Y-80649973D01*
X113445183Y-79850000D01*
X112695183Y-79850000D01*
X112695183Y-81349999D01*
X112145202Y-81349999D01*
X112195182Y-81349998D01*
X112195183Y-81349998D01*
X112195183Y-79850000D01*
X111445184Y-79850000D01*
X111445184Y-80649986D01*
X110555189Y-80649986D01*
X110558083Y-80631713D01*
X110558083Y-78568287D01*
X110557763Y-78566268D01*
X110557763Y-78566266D01*
X110557762Y-78566262D01*
X110555188Y-78550013D01*
X111445183Y-78550013D01*
X111445183Y-79350000D01*
X112195183Y-79350000D01*
X112695183Y-79350000D01*
X113445182Y-79350000D01*
X113445182Y-78550028D01*
X113445181Y-78550013D01*
X113434688Y-78447302D01*
X113379541Y-78280880D01*
X113379539Y-78280875D01*
X113287498Y-78131654D01*
X113163528Y-78007684D01*
X113014307Y-77915643D01*
X113014302Y-77915641D01*
X112847880Y-77860494D01*
X112847873Y-77860493D01*
X112745169Y-77850000D01*
X112695183Y-77850000D01*
X112695183Y-79350000D01*
X112195183Y-79350000D01*
X112195183Y-77850000D01*
X112195182Y-77849999D01*
X112145212Y-77850000D01*
X112145194Y-77850001D01*
X112042485Y-77860494D01*
X111876063Y-77915641D01*
X111876058Y-77915643D01*
X111726837Y-78007684D01*
X111602867Y-78131654D01*
X111510826Y-78280875D01*
X111510824Y-78280880D01*
X111455677Y-78447302D01*
X111455676Y-78447309D01*
X111445183Y-78550013D01*
X110555188Y-78550013D01*
X110543141Y-78473949D01*
X110543140Y-78473947D01*
X110543140Y-78473945D01*
X110485199Y-78360229D01*
X110485197Y-78360227D01*
X110485194Y-78360223D01*
X110394959Y-78269988D01*
X110394955Y-78269985D01*
X110394954Y-78269984D01*
X110281238Y-78212043D01*
X110281237Y-78212042D01*
X110281234Y-78212041D01*
X110238884Y-78205334D01*
X110175750Y-78175404D01*
X110138819Y-78116093D01*
X110134283Y-78082861D01*
X110134283Y-76700864D01*
X110134283Y-76700863D01*
X110114416Y-76652900D01*
X110099405Y-76616659D01*
X109909180Y-76426434D01*
X111650679Y-76426434D01*
X111693151Y-76572629D01*
X111775461Y-76711808D01*
X111775468Y-76711817D01*
X111889799Y-76826148D01*
X111889808Y-76826155D01*
X112028987Y-76908465D01*
X112184272Y-76953579D01*
X112205183Y-76955223D01*
X112205183Y-76426434D01*
X111650679Y-76426434D01*
X109909180Y-76426434D01*
X107820602Y-74337856D01*
X107787117Y-74276533D01*
X107784283Y-74250175D01*
X107784283Y-70754304D01*
X107793723Y-70706848D01*
X107796306Y-70700609D01*
X107796311Y-70700602D01*
X107808083Y-70641418D01*
X107808083Y-69826450D01*
X107796311Y-69767266D01*
X107751466Y-69700151D01*
X107684351Y-69655306D01*
X107625167Y-69643534D01*
X107485199Y-69643534D01*
X107465471Y-69647458D01*
X107426013Y-69655306D01*
X107424072Y-69656604D01*
X107419196Y-69658130D01*
X107414734Y-69659979D01*
X107414568Y-69659579D01*
X107357394Y-69677481D01*
X107290014Y-69658995D01*
X107286294Y-69656604D01*
X107284352Y-69655306D01*
X107254759Y-69649420D01*
X107225167Y-69643534D01*
X107085199Y-69643534D01*
X107065471Y-69647458D01*
X107026013Y-69655306D01*
X107024072Y-69656604D01*
X107019196Y-69658130D01*
X107014734Y-69659979D01*
X107014568Y-69659579D01*
X106957394Y-69677481D01*
X106890014Y-69658995D01*
X106886294Y-69656604D01*
X106884352Y-69655306D01*
X106854759Y-69649420D01*
X106825167Y-69643534D01*
X106685199Y-69643534D01*
X106665471Y-69647458D01*
X106626013Y-69655306D01*
X106624072Y-69656604D01*
X106619196Y-69658130D01*
X106614734Y-69659979D01*
X106614568Y-69659579D01*
X106604995Y-69662577D01*
X106587985Y-69673084D01*
X106572331Y-69672804D01*
X106557394Y-69677481D01*
X106538117Y-69672192D01*
X106518127Y-69671835D01*
X106493012Y-69659817D01*
X106490014Y-69658995D01*
X106486290Y-69656601D01*
X106480699Y-69652865D01*
X106435895Y-69599252D01*
X106427189Y-69529927D01*
X106457346Y-69466900D01*
X106461868Y-69462127D01*
X106758580Y-69165416D01*
X106819901Y-69131934D01*
X106846259Y-69129100D01*
X108645569Y-69129100D01*
X108645570Y-69129100D01*
X108645571Y-69129100D01*
X108670233Y-69118884D01*
X108729775Y-69094222D01*
X109194221Y-68629775D01*
X109202785Y-68609100D01*
X109229100Y-68545571D01*
X109229100Y-67147201D01*
X109248785Y-67080162D01*
X109301589Y-67034407D01*
X109355411Y-67023223D01*
X109372219Y-67023536D01*
X109377042Y-67025534D01*
X109377043Y-67025534D01*
X109468183Y-67025534D01*
X109479414Y-67025534D01*
X109480594Y-67025556D01*
X109512872Y-67035690D01*
X109545322Y-67045219D01*
X109546107Y-67046125D01*
X109547255Y-67046486D01*
X109568958Y-67072496D01*
X109591077Y-67098023D01*
X109591366Y-67099351D01*
X109592018Y-67100133D01*
X109592666Y-67105330D01*
X109602283Y-67149534D01*
X109602283Y-67266418D01*
X109608253Y-67296434D01*
X109614055Y-67325603D01*
X109615353Y-67327545D01*
X109616879Y-67332420D01*
X109618728Y-67336883D01*
X109618328Y-67337048D01*
X109636230Y-67394223D01*
X109617744Y-67461603D01*
X109615353Y-67465323D01*
X109614055Y-67467264D01*
X109611902Y-67478089D01*
X109602283Y-67526450D01*
X109602283Y-67666418D01*
X109614055Y-67725602D01*
X109658900Y-67792717D01*
X109726015Y-67837562D01*
X109785199Y-67849334D01*
X109785200Y-67849334D01*
X110600166Y-67849334D01*
X110600167Y-67849334D01*
X110659351Y-67837562D01*
X110659356Y-67837558D01*
X110665600Y-67834973D01*
X110673778Y-67833346D01*
X110678119Y-67830557D01*
X110713054Y-67825534D01*
X110904925Y-67825534D01*
X110971964Y-67845219D01*
X111017719Y-67898023D01*
X111027663Y-67967181D01*
X111012312Y-68011534D01*
X110984780Y-68059220D01*
X110984779Y-68059221D01*
X110971682Y-68108103D01*
X110954720Y-68171404D01*
X110918356Y-68231063D01*
X110855509Y-68261592D01*
X110786133Y-68253297D01*
X110732255Y-68208812D01*
X110731844Y-68208200D01*
X110729790Y-68205126D01*
X110726466Y-68200151D01*
X110659351Y-68155306D01*
X110600167Y-68143534D01*
X109785199Y-68143534D01*
X109726015Y-68155306D01*
X109658900Y-68200151D01*
X109614055Y-68267266D01*
X109602283Y-68326450D01*
X109602283Y-68466418D01*
X109606658Y-68488412D01*
X109614055Y-68525603D01*
X109615353Y-68527545D01*
X109616879Y-68532420D01*
X109618728Y-68536883D01*
X109618328Y-68537048D01*
X109636230Y-68594223D01*
X109617744Y-68661603D01*
X109615353Y-68665323D01*
X109614055Y-68667264D01*
X109602283Y-68726451D01*
X109602283Y-68866416D01*
X109614055Y-68925603D01*
X109615353Y-68927545D01*
X109616879Y-68932420D01*
X109618728Y-68936883D01*
X109618328Y-68937048D01*
X109636230Y-68994223D01*
X109617744Y-69061603D01*
X109615353Y-69065323D01*
X109614055Y-69067264D01*
X109614055Y-69067266D01*
X109602838Y-69123663D01*
X109602283Y-69126451D01*
X109602283Y-69266416D01*
X109614055Y-69325603D01*
X109615353Y-69327545D01*
X109616879Y-69332420D01*
X109618728Y-69336883D01*
X109618328Y-69337048D01*
X109636230Y-69394223D01*
X109631806Y-69429333D01*
X109626488Y-69448658D01*
X109614055Y-69467266D01*
X109602283Y-69526450D01*
X109602283Y-69536621D01*
X109597912Y-69552506D01*
X109584871Y-69573579D01*
X109575592Y-69596556D01*
X109566808Y-69602770D01*
X109561147Y-69611920D01*
X109538783Y-69622598D01*
X109518555Y-69636910D01*
X109500655Y-69640803D01*
X109498096Y-69642026D01*
X109496161Y-69641781D01*
X109490519Y-69643009D01*
X109485207Y-69643532D01*
X109426013Y-69655306D01*
X109424072Y-69656604D01*
X109419196Y-69658130D01*
X109414734Y-69659979D01*
X109414568Y-69659579D01*
X109357394Y-69677481D01*
X109290014Y-69658995D01*
X109286294Y-69656604D01*
X109284352Y-69655306D01*
X109254759Y-69649420D01*
X109225167Y-69643534D01*
X109085199Y-69643534D01*
X109065471Y-69647458D01*
X109026013Y-69655306D01*
X109024072Y-69656604D01*
X109019196Y-69658130D01*
X109014734Y-69659979D01*
X109014568Y-69659579D01*
X108957394Y-69677481D01*
X108890014Y-69658995D01*
X108886294Y-69656604D01*
X108884352Y-69655306D01*
X108854759Y-69649420D01*
X108825167Y-69643534D01*
X108685199Y-69643534D01*
X108665471Y-69647458D01*
X108626013Y-69655306D01*
X108624072Y-69656604D01*
X108619196Y-69658130D01*
X108614734Y-69659979D01*
X108614568Y-69659579D01*
X108557394Y-69677481D01*
X108490014Y-69658995D01*
X108486294Y-69656604D01*
X108484352Y-69655306D01*
X108454759Y-69649420D01*
X108425167Y-69643534D01*
X108285199Y-69643534D01*
X108226015Y-69655306D01*
X108158900Y-69700151D01*
X108114055Y-69767266D01*
X108102283Y-69826450D01*
X108102283Y-70641418D01*
X108114055Y-70700602D01*
X108158900Y-70767717D01*
X108226015Y-70812562D01*
X108285199Y-70824334D01*
X108285200Y-70824334D01*
X108402083Y-70824334D01*
X108469122Y-70844019D01*
X108514877Y-70896823D01*
X108526083Y-70948334D01*
X108526083Y-71238112D01*
X108506398Y-71305151D01*
X108464084Y-71345498D01*
X108416019Y-71373249D01*
X108416010Y-71373255D01*
X108313073Y-71476192D01*
X108313069Y-71476197D01*
X108240282Y-71602269D01*
X108240282Y-71602270D01*
X108240281Y-71602272D01*
X108202602Y-71742892D01*
X108202602Y-71888474D01*
X108240281Y-72029094D01*
X108240282Y-72029095D01*
X108240282Y-72029096D01*
X108313069Y-72155168D01*
X108313071Y-72155171D01*
X108313072Y-72155172D01*
X108416013Y-72258113D01*
X108416014Y-72258114D01*
X108416016Y-72258115D01*
X108465456Y-72286659D01*
X108542091Y-72330904D01*
X108682711Y-72368583D01*
X108682713Y-72368583D01*
X108828290Y-72368583D01*
X108828293Y-72368583D01*
X108968913Y-72330904D01*
X108980427Y-72324256D01*
X109048324Y-72307782D01*
X109114352Y-72330632D01*
X109157544Y-72385552D01*
X109162202Y-72399545D01*
X109164961Y-72409843D01*
X109164963Y-72409847D01*
X109237750Y-72535919D01*
X109237752Y-72535922D01*
X109237753Y-72535923D01*
X109340694Y-72638864D01*
X109466772Y-72711655D01*
X109607392Y-72749334D01*
X109607394Y-72749334D01*
X109752971Y-72749334D01*
X109752974Y-72749334D01*
X109846192Y-72724356D01*
X109916039Y-72726019D01*
X109973902Y-72765181D01*
X110001406Y-72829409D01*
X110002283Y-72844131D01*
X110002283Y-72844225D01*
X110039962Y-72984845D01*
X110039963Y-72984846D01*
X110039963Y-72984847D01*
X110112750Y-73110919D01*
X110112752Y-73110922D01*
X110112753Y-73110923D01*
X110215694Y-73213864D01*
X110215696Y-73213865D01*
X110215700Y-73213868D01*
X110324283Y-73276558D01*
X110372499Y-73327124D01*
X110385723Y-73395731D01*
X110359755Y-73460596D01*
X110302841Y-73501125D01*
X110294382Y-73503718D01*
X110268197Y-73510734D01*
X110191770Y-73531213D01*
X110191769Y-73531214D01*
X110065697Y-73604001D01*
X110065692Y-73604005D01*
X109962754Y-73706943D01*
X109962750Y-73706948D01*
X109889963Y-73833020D01*
X109889963Y-73833021D01*
X109889962Y-73833023D01*
X109852283Y-73973643D01*
X109852283Y-74119225D01*
X109889962Y-74259845D01*
X109889963Y-74259846D01*
X109889963Y-74259847D01*
X109962750Y-74385919D01*
X109962752Y-74385922D01*
X109962753Y-74385923D01*
X110065694Y-74488864D01*
X110065695Y-74488865D01*
X110065697Y-74488866D01*
X110128733Y-74525259D01*
X110191772Y-74561655D01*
X110332392Y-74599334D01*
X110332394Y-74599334D01*
X110400787Y-74599334D01*
X110467826Y-74619019D01*
X110513581Y-74671823D01*
X110523525Y-74740981D01*
X110520564Y-74755414D01*
X110502283Y-74823643D01*
X110502283Y-74969225D01*
X110539962Y-75109845D01*
X110539963Y-75109846D01*
X110539963Y-75109847D01*
X110612750Y-75235919D01*
X110612752Y-75235922D01*
X110612753Y-75235923D01*
X110715694Y-75338864D01*
X110715695Y-75338865D01*
X110715697Y-75338866D01*
X110737443Y-75351421D01*
X110841772Y-75411655D01*
X110982392Y-75449334D01*
X110982394Y-75449334D01*
X111127971Y-75449334D01*
X111127974Y-75449334D01*
X111268594Y-75411655D01*
X111394672Y-75338864D01*
X111497613Y-75235923D01*
X111525550Y-75187533D01*
X111531340Y-75182012D01*
X111534189Y-75174535D01*
X111556263Y-75158248D01*
X111576117Y-75139318D01*
X111585411Y-75136743D01*
X111590412Y-75133054D01*
X111613417Y-75128985D01*
X111624951Y-75125791D01*
X111628933Y-75125534D01*
X111715813Y-75125534D01*
X111806953Y-75125534D01*
X111806954Y-75125534D01*
X111831616Y-75115318D01*
X111839807Y-75111925D01*
X111860297Y-75110603D01*
X111875154Y-75113943D01*
X111890293Y-75112315D01*
X111908549Y-75121452D01*
X111928465Y-75125930D01*
X111939155Y-75136770D01*
X111952774Y-75143586D01*
X111963192Y-75161143D01*
X111977526Y-75175677D01*
X111980659Y-75190577D01*
X111988430Y-75203673D01*
X111992283Y-75234346D01*
X111992283Y-75395380D01*
X111972598Y-75462419D01*
X111931407Y-75502110D01*
X111889812Y-75526710D01*
X111889804Y-75526716D01*
X111775465Y-75641054D01*
X111775461Y-75641059D01*
X111693151Y-75780238D01*
X111650679Y-75926434D01*
X112331183Y-75926434D01*
X112398222Y-75946119D01*
X112443977Y-75998923D01*
X112455183Y-76050434D01*
X112455183Y-76176434D01*
X112581183Y-76176434D01*
X112648222Y-76196119D01*
X112693977Y-76248923D01*
X112705183Y-76300434D01*
X112705183Y-76955223D01*
X112726093Y-76953579D01*
X112881378Y-76908465D01*
X113020557Y-76826155D01*
X113020566Y-76826148D01*
X113134897Y-76711817D01*
X113134904Y-76711808D01*
X113217214Y-76572630D01*
X113220286Y-76562055D01*
X113257890Y-76503168D01*
X113321361Y-76473959D01*
X113390548Y-76483702D01*
X113427045Y-76508964D01*
X113460511Y-76542430D01*
X113460512Y-76542431D01*
X113460514Y-76542432D01*
X113512817Y-76572629D01*
X113586589Y-76615221D01*
X113727209Y-76652900D01*
X113727211Y-76652900D01*
X113872788Y-76652900D01*
X113872791Y-76652900D01*
X114013411Y-76615221D01*
X114139489Y-76542430D01*
X114242430Y-76439489D01*
X114315221Y-76313411D01*
X114352900Y-76172791D01*
X114352900Y-76142509D01*
X114359138Y-76121263D01*
X114360718Y-76099175D01*
X114368790Y-76088391D01*
X114372585Y-76075470D01*
X114389318Y-76060970D01*
X114402590Y-76043242D01*
X114415210Y-76038534D01*
X114425389Y-76029715D01*
X114447306Y-76026563D01*
X114468054Y-76018825D01*
X114481214Y-76021687D01*
X114494547Y-76019771D01*
X114514690Y-76028970D01*
X114536327Y-76033677D01*
X114554052Y-76046945D01*
X114558103Y-76048796D01*
X114564581Y-76054828D01*
X114719764Y-76210011D01*
X114753249Y-76271334D01*
X114756083Y-76297692D01*
X114756083Y-78082861D01*
X114736398Y-78149900D01*
X114683594Y-78195655D01*
X114651482Y-78205334D01*
X114609131Y-78212041D01*
X114495410Y-78269985D01*
X114495406Y-78269988D01*
X114405171Y-78360223D01*
X114405168Y-78360227D01*
X114347224Y-78473949D01*
X114332283Y-78568286D01*
X114332283Y-80631713D01*
X114347224Y-80726050D01*
X114347225Y-80726053D01*
X114347226Y-80726055D01*
X114360801Y-80752697D01*
X114405168Y-80839772D01*
X114405171Y-80839776D01*
X114495406Y-80930011D01*
X114495410Y-80930014D01*
X114495412Y-80930016D01*
X114609128Y-80987957D01*
X114609130Y-80987957D01*
X114609132Y-80987958D01*
X114703470Y-81002900D01*
X114703475Y-81002900D01*
X115266896Y-81002900D01*
X115361233Y-80987958D01*
X115361233Y-80987957D01*
X115361238Y-80987957D01*
X115474954Y-80930016D01*
X115565199Y-80839771D01*
X115623140Y-80726055D01*
X115623141Y-80726050D01*
X115638083Y-80631713D01*
X115638083Y-78568286D01*
X115623141Y-78473949D01*
X115623140Y-78473947D01*
X115623140Y-78473945D01*
X115565199Y-78360229D01*
X115565197Y-78360227D01*
X115565194Y-78360223D01*
X115474959Y-78269988D01*
X115474955Y-78269985D01*
X115474954Y-78269984D01*
X115361238Y-78212043D01*
X115361237Y-78212042D01*
X115361234Y-78212041D01*
X115318884Y-78205334D01*
X115255750Y-78175404D01*
X115218819Y-78116093D01*
X115214283Y-78082861D01*
X115214283Y-76105864D01*
X115214283Y-76105863D01*
X115179404Y-76021659D01*
X115114958Y-75957213D01*
X113883900Y-74726155D01*
X112645819Y-73488073D01*
X112612334Y-73426750D01*
X112609500Y-73400392D01*
X112609500Y-70104753D01*
X112609498Y-70104747D01*
X112593865Y-70067005D01*
X112593863Y-70067002D01*
X112574622Y-70020548D01*
X112175465Y-69621391D01*
X111765419Y-69211344D01*
X111731934Y-69150021D01*
X111729100Y-69123663D01*
X111729100Y-68850388D01*
X111748785Y-68783349D01*
X111791100Y-68743000D01*
X111839489Y-68715064D01*
X111942430Y-68612123D01*
X111978297Y-68550000D01*
X112941210Y-68550000D01*
X112942854Y-68570910D01*
X112987968Y-68726195D01*
X113070278Y-68865374D01*
X113070285Y-68865383D01*
X113184616Y-68979714D01*
X113184625Y-68979721D01*
X113323804Y-69062031D01*
X113470000Y-69104504D01*
X113470000Y-68550000D01*
X112941210Y-68550000D01*
X111978297Y-68550000D01*
X112015221Y-68486045D01*
X112052900Y-68345425D01*
X112052900Y-68199843D01*
X112015221Y-68059223D01*
X111987688Y-68011534D01*
X111971215Y-67943633D01*
X111994068Y-67877607D01*
X112048989Y-67834416D01*
X112095075Y-67825534D01*
X112836840Y-67825534D01*
X112903879Y-67845219D01*
X112949634Y-67898023D01*
X112959578Y-67967181D01*
X112955916Y-67984129D01*
X112942855Y-68029081D01*
X112942854Y-68029087D01*
X112941209Y-68049999D01*
X112941210Y-68050000D01*
X113596000Y-68050000D01*
X113663039Y-68069685D01*
X113708794Y-68122489D01*
X113720000Y-68174000D01*
X113720000Y-68300000D01*
X113846000Y-68300000D01*
X113913039Y-68319685D01*
X113958794Y-68372489D01*
X113970000Y-68424000D01*
X113970000Y-69104503D01*
X114116195Y-69062031D01*
X114255374Y-68979721D01*
X114255383Y-68979714D01*
X114369714Y-68865383D01*
X114369721Y-68865374D01*
X114394321Y-68823779D01*
X114445390Y-68776095D01*
X114501053Y-68762900D01*
X114863733Y-68762900D01*
X114863734Y-68762900D01*
X114888221Y-68760059D01*
X114988396Y-68715828D01*
X115065828Y-68638396D01*
X115110059Y-68538221D01*
X115112900Y-68513734D01*
X115112900Y-68086266D01*
X115110059Y-68061779D01*
X115109500Y-68060514D01*
X115077085Y-67987100D01*
X115065828Y-67961604D01*
X115051790Y-67947566D01*
X115047451Y-67939620D01*
X115040204Y-67934195D01*
X115030969Y-67909435D01*
X115018305Y-67886243D01*
X115018950Y-67877213D01*
X115015787Y-67868731D01*
X115021403Y-67842910D01*
X115023289Y-67816551D01*
X115029107Y-67807497D01*
X115030639Y-67800458D01*
X115051787Y-67772207D01*
X115135917Y-67688077D01*
X115197238Y-67654594D01*
X115232247Y-67653137D01*
X115232247Y-67652900D01*
X115237946Y-67652900D01*
X115239796Y-67652823D01*
X115240370Y-67652898D01*
X115240375Y-67652900D01*
X115240380Y-67652900D01*
X115359623Y-67652900D01*
X115359625Y-67652900D01*
X115474813Y-67622036D01*
X115578087Y-67562410D01*
X115662410Y-67478087D01*
X115722036Y-67374813D01*
X115752900Y-67259625D01*
X115752900Y-67140375D01*
X115722036Y-67025187D01*
X115662410Y-66921913D01*
X115578087Y-66837590D01*
X115474813Y-66777964D01*
X115422965Y-66764071D01*
X115363306Y-66727707D01*
X115332777Y-66664859D01*
X115341072Y-66595484D01*
X115367375Y-66556620D01*
X115494222Y-66429774D01*
X115523409Y-66359309D01*
X115529100Y-66345571D01*
X115529100Y-61745680D01*
X115507785Y-61694221D01*
X115494222Y-61661477D01*
X115312079Y-61479334D01*
X115112633Y-61279887D01*
X115079148Y-61218564D01*
X115077841Y-61172807D01*
X115088083Y-61108146D01*
X115088083Y-60344720D01*
X115073141Y-60250383D01*
X115073140Y-60250381D01*
X115073140Y-60250379D01*
X115015199Y-60136663D01*
X115015197Y-60136661D01*
X115015194Y-60136657D01*
X114924959Y-60046422D01*
X114924955Y-60046419D01*
X114924954Y-60046418D01*
X114811238Y-59988477D01*
X114811236Y-59988476D01*
X114811233Y-59988475D01*
X114716896Y-59973534D01*
X114716891Y-59973534D01*
X114588283Y-59973534D01*
X114521244Y-59953849D01*
X114475489Y-59901045D01*
X114464283Y-59849534D01*
X114464283Y-59041319D01*
X114483968Y-58974280D01*
X114536772Y-58928525D01*
X114538198Y-58927884D01*
X114541998Y-58926206D01*
X114573579Y-58912262D01*
X114651011Y-58834830D01*
X114695242Y-58734655D01*
X114698083Y-58710168D01*
X114698083Y-58342700D01*
X114695242Y-58318213D01*
X114651011Y-58218038D01*
X114573579Y-58140606D01*
X114567088Y-58134115D01*
X114533603Y-58072792D01*
X114538587Y-58003100D01*
X114567088Y-57958753D01*
X114603359Y-57922482D01*
X114651011Y-57874830D01*
X114695242Y-57774655D01*
X114698083Y-57750168D01*
X114698083Y-57382700D01*
X114695242Y-57358213D01*
X114651011Y-57258038D01*
X114573579Y-57180606D01*
X114573576Y-57180604D01*
X114573575Y-57180604D01*
X114473405Y-57136375D01*
X114448918Y-57133534D01*
X114448917Y-57133534D01*
X114021449Y-57133534D01*
X114021447Y-57133534D01*
X113996961Y-57136375D01*
X113996959Y-57136375D01*
X113896790Y-57180604D01*
X113896785Y-57180607D01*
X113811230Y-57266163D01*
X113808920Y-57263853D01*
X113769402Y-57296091D01*
X113699979Y-57303977D01*
X113637313Y-57273077D01*
X113622884Y-57257300D01*
X113622617Y-57256952D01*
X113622613Y-57256945D01*
X113519672Y-57154004D01*
X113519671Y-57154003D01*
X113519668Y-57154001D01*
X113393597Y-57081214D01*
X113393592Y-57081212D01*
X113351049Y-57069812D01*
X113295464Y-57037719D01*
X113057079Y-56799334D01*
X112809958Y-56552212D01*
X112750416Y-56527549D01*
X112750415Y-56527548D01*
X112725754Y-56517334D01*
X112532083Y-56517334D01*
X112465044Y-56497649D01*
X112419289Y-56444845D01*
X112408083Y-56393334D01*
X112408083Y-56239720D01*
X112393141Y-56145383D01*
X112393140Y-56145381D01*
X112393140Y-56145379D01*
X112335199Y-56031663D01*
X112335197Y-56031661D01*
X112335194Y-56031657D01*
X112244959Y-55941422D01*
X112244955Y-55941419D01*
X112244954Y-55941418D01*
X112131238Y-55883477D01*
X112131236Y-55883476D01*
X112131233Y-55883475D01*
X112036896Y-55868534D01*
X112036891Y-55868534D01*
X111473475Y-55868534D01*
X111473470Y-55868534D01*
X111379132Y-55883475D01*
X111265410Y-55941419D01*
X111265406Y-55941422D01*
X111175171Y-56031657D01*
X111175168Y-56031661D01*
X111117224Y-56145383D01*
X111101655Y-56243685D01*
X111071726Y-56306820D01*
X111012414Y-56343751D01*
X110942552Y-56342753D01*
X110884319Y-56304143D01*
X110856205Y-56240179D01*
X110855182Y-56224287D01*
X110855182Y-56221462D01*
X110855181Y-56221446D01*
X110844688Y-56118736D01*
X110789541Y-55952314D01*
X110789539Y-55952309D01*
X110697498Y-55803088D01*
X110573528Y-55679118D01*
X110424307Y-55587077D01*
X110424302Y-55587075D01*
X110257880Y-55531928D01*
X110257873Y-55531927D01*
X110155169Y-55521434D01*
X110105183Y-55521434D01*
X110105183Y-57971433D01*
X110155155Y-57971433D01*
X110155169Y-57971432D01*
X110257880Y-57960939D01*
X110424302Y-57905792D01*
X110424307Y-57905790D01*
X110573528Y-57813749D01*
X110697498Y-57689779D01*
X110789539Y-57540558D01*
X110789541Y-57540553D01*
X110844688Y-57374131D01*
X110844689Y-57374124D01*
X110855182Y-57271420D01*
X110855182Y-57268607D01*
X110874855Y-57201564D01*
X110927652Y-57155800D01*
X110996809Y-57145845D01*
X111060369Y-57174859D01*
X111098153Y-57233631D01*
X111101655Y-57249187D01*
X111117224Y-57347484D01*
X111117225Y-57347487D01*
X111117226Y-57347489D01*
X111173315Y-57457570D01*
X111175168Y-57461206D01*
X111175171Y-57461210D01*
X111265406Y-57551445D01*
X111265410Y-57551448D01*
X111265412Y-57551450D01*
X111379128Y-57609391D01*
X111379130Y-57609391D01*
X111379132Y-57609392D01*
X111473470Y-57624334D01*
X111473475Y-57624334D01*
X112036896Y-57624334D01*
X112131233Y-57609392D01*
X112131233Y-57609391D01*
X112131238Y-57609391D01*
X112244954Y-57551450D01*
X112335199Y-57461205D01*
X112393140Y-57347489D01*
X112393515Y-57345122D01*
X112408083Y-57253147D01*
X112408083Y-57099534D01*
X112410633Y-57090848D01*
X112409345Y-57081887D01*
X112420323Y-57057846D01*
X112427768Y-57032495D01*
X112434608Y-57026567D01*
X112438370Y-57018331D01*
X112460604Y-57004041D01*
X112480572Y-56986740D01*
X112491086Y-56984452D01*
X112497148Y-56980557D01*
X112532083Y-56975534D01*
X112533924Y-56975534D01*
X112600963Y-56995219D01*
X112621605Y-57011853D01*
X112717669Y-57107917D01*
X112751154Y-57169240D01*
X112746170Y-57238932D01*
X112737376Y-57257597D01*
X112664962Y-57383022D01*
X112664962Y-57383023D01*
X112627283Y-57523643D01*
X112627283Y-57523645D01*
X112627283Y-57669226D01*
X112641744Y-57723196D01*
X112640081Y-57793045D01*
X112609650Y-57842969D01*
X111840960Y-58611659D01*
X111817404Y-58668532D01*
X111817403Y-58668534D01*
X111806083Y-58695861D01*
X111806083Y-59849534D01*
X111803532Y-59858219D01*
X111804821Y-59867181D01*
X111793842Y-59891221D01*
X111786398Y-59916573D01*
X111779557Y-59922500D01*
X111775796Y-59930737D01*
X111753561Y-59945026D01*
X111733594Y-59962328D01*
X111723079Y-59964615D01*
X111717018Y-59968511D01*
X111682083Y-59973534D01*
X111657642Y-59973534D01*
X111590603Y-59953849D01*
X111569961Y-59937215D01*
X111054958Y-59422212D01*
X111021161Y-59408213D01*
X110995416Y-59397549D01*
X110995415Y-59397548D01*
X110970754Y-59387334D01*
X110536822Y-59387334D01*
X110469783Y-59367649D01*
X110424028Y-59314845D01*
X110423386Y-59313418D01*
X110421011Y-59308038D01*
X110343579Y-59230606D01*
X110343576Y-59230604D01*
X110343575Y-59230604D01*
X110243405Y-59186375D01*
X110218918Y-59183534D01*
X110218917Y-59183534D01*
X109791449Y-59183534D01*
X109791447Y-59183534D01*
X109766961Y-59186375D01*
X109766959Y-59186375D01*
X109666790Y-59230604D01*
X109666785Y-59230607D01*
X109592864Y-59304529D01*
X109531541Y-59338014D01*
X109461849Y-59333030D01*
X109417502Y-59304529D01*
X109343580Y-59230607D01*
X109343579Y-59230606D01*
X109343576Y-59230604D01*
X109343575Y-59230604D01*
X109243405Y-59186375D01*
X109218918Y-59183534D01*
X109218917Y-59183534D01*
X108791449Y-59183534D01*
X108791447Y-59183534D01*
X108766961Y-59186375D01*
X108766959Y-59186375D01*
X108666790Y-59230604D01*
X108666785Y-59230607D01*
X108592864Y-59304529D01*
X108531541Y-59338014D01*
X108461849Y-59333030D01*
X108417502Y-59304529D01*
X108343580Y-59230607D01*
X108343579Y-59230606D01*
X108343576Y-59230604D01*
X108343575Y-59230604D01*
X108243405Y-59186375D01*
X108218918Y-59183534D01*
X108218917Y-59183534D01*
X107791449Y-59183534D01*
X107791447Y-59183534D01*
X107766961Y-59186375D01*
X107766959Y-59186375D01*
X107666790Y-59230604D01*
X107666785Y-59230607D01*
X107589356Y-59308036D01*
X107589353Y-59308041D01*
X107545124Y-59408210D01*
X107545124Y-59408212D01*
X107542283Y-59432698D01*
X107542283Y-59800169D01*
X107545124Y-59824655D01*
X107545124Y-59824657D01*
X107589353Y-59924826D01*
X107589356Y-59924831D01*
X107673278Y-60008753D01*
X107706763Y-60070076D01*
X107701779Y-60139768D01*
X107673278Y-60184115D01*
X107589356Y-60268036D01*
X107589353Y-60268041D01*
X107545124Y-60368210D01*
X107545124Y-60368212D01*
X107542283Y-60392698D01*
X107542283Y-60684191D01*
X107533638Y-60713631D01*
X107527115Y-60743618D01*
X107523360Y-60748633D01*
X107522598Y-60751230D01*
X107505964Y-60771872D01*
X107449609Y-60828227D01*
X107388286Y-60861712D01*
X107318594Y-60856728D01*
X107262661Y-60814856D01*
X107238244Y-60749392D01*
X107237928Y-60740546D01*
X107237928Y-60657004D01*
X107237928Y-60657002D01*
X107200249Y-60516382D01*
X107128842Y-60392701D01*
X107127460Y-60390307D01*
X107127456Y-60390302D01*
X107024518Y-60287364D01*
X107024513Y-60287360D01*
X106898441Y-60214573D01*
X106898440Y-60214572D01*
X106898439Y-60214572D01*
X106757819Y-60176893D01*
X106682083Y-60176893D01*
X106615044Y-60157208D01*
X106569289Y-60104404D01*
X106558083Y-60052893D01*
X106558083Y-59923645D01*
X106558083Y-59923643D01*
X106520404Y-59783023D01*
X106447613Y-59656945D01*
X106344672Y-59554004D01*
X106344671Y-59554003D01*
X106344668Y-59554001D01*
X106218596Y-59481214D01*
X106218595Y-59481213D01*
X106218594Y-59481213D01*
X106077974Y-59443534D01*
X105932392Y-59443534D01*
X105791772Y-59481213D01*
X105791770Y-59481214D01*
X105791769Y-59481214D01*
X105665697Y-59554001D01*
X105665692Y-59554005D01*
X105562754Y-59656943D01*
X105562750Y-59656948D01*
X105489963Y-59783020D01*
X105489963Y-59783021D01*
X105489962Y-59783023D01*
X105452283Y-59923643D01*
X105452283Y-60069225D01*
X105489962Y-60209845D01*
X105489963Y-60209846D01*
X105489963Y-60209847D01*
X105562750Y-60335919D01*
X105562752Y-60335922D01*
X105562753Y-60335923D01*
X105665694Y-60438864D01*
X105714082Y-60466800D01*
X105762298Y-60517367D01*
X105776083Y-60574188D01*
X105776083Y-61350175D01*
X105756398Y-61417214D01*
X105739764Y-61437856D01*
X105195964Y-61981656D01*
X105134641Y-62015141D01*
X105064949Y-62010157D01*
X105009016Y-61968285D01*
X104984599Y-61902821D01*
X104984283Y-61893975D01*
X104984283Y-61277754D01*
X105003968Y-61210715D01*
X105046283Y-61170366D01*
X105094672Y-61142430D01*
X105197613Y-61039489D01*
X105270404Y-60913411D01*
X105308083Y-60772791D01*
X105308083Y-60627209D01*
X105270404Y-60486589D01*
X105209321Y-60380790D01*
X105197615Y-60360514D01*
X105197611Y-60360509D01*
X105094673Y-60257571D01*
X105094668Y-60257567D01*
X104968596Y-60184780D01*
X104968595Y-60184779D01*
X104968594Y-60184779D01*
X104827974Y-60147100D01*
X104682392Y-60147100D01*
X104541772Y-60184779D01*
X104541770Y-60184780D01*
X104541769Y-60184780D01*
X104415697Y-60257567D01*
X104415692Y-60257571D01*
X104312754Y-60360509D01*
X104312750Y-60360514D01*
X104239963Y-60486586D01*
X104239963Y-60486587D01*
X104239962Y-60486589D01*
X104202283Y-60627209D01*
X104202283Y-60772791D01*
X104239962Y-60913411D01*
X104239963Y-60913412D01*
X104239963Y-60913413D01*
X104295611Y-61009798D01*
X104312084Y-61077698D01*
X104289231Y-61143725D01*
X104262677Y-61170958D01*
X104230000Y-61195493D01*
X104230000Y-62804503D01*
X104353965Y-62768489D01*
X104423835Y-62768689D01*
X104482505Y-62806631D01*
X104511348Y-62870270D01*
X104510178Y-62911755D01*
X104502891Y-62948392D01*
X104502283Y-62951450D01*
X104502283Y-63766418D01*
X104514055Y-63825602D01*
X104558900Y-63892717D01*
X104626015Y-63937562D01*
X104685199Y-63949334D01*
X104685200Y-63949334D01*
X104825166Y-63949334D01*
X104825167Y-63949334D01*
X104884351Y-63937562D01*
X104886290Y-63936266D01*
X104891161Y-63934740D01*
X104895632Y-63932889D01*
X104895797Y-63933288D01*
X104952965Y-63915386D01*
X105020346Y-63933868D01*
X105024049Y-63936248D01*
X105026015Y-63937562D01*
X105085199Y-63949334D01*
X105085200Y-63949334D01*
X105225166Y-63949334D01*
X105225167Y-63949334D01*
X105284351Y-63937562D01*
X105286290Y-63936266D01*
X105291161Y-63934740D01*
X105295632Y-63932889D01*
X105295797Y-63933288D01*
X105352965Y-63915386D01*
X105420346Y-63933868D01*
X105424049Y-63936248D01*
X105426015Y-63937562D01*
X105485199Y-63949334D01*
X105485200Y-63949334D01*
X105625166Y-63949334D01*
X105625167Y-63949334D01*
X105684351Y-63937562D01*
X105686290Y-63936266D01*
X105691161Y-63934740D01*
X105695632Y-63932889D01*
X105695797Y-63933288D01*
X105752965Y-63915386D01*
X105772083Y-63916523D01*
X105800347Y-63920411D01*
X105826015Y-63937562D01*
X105885199Y-63949334D01*
X106010573Y-63949334D01*
X106018983Y-63950491D01*
X106043420Y-63961472D01*
X106069122Y-63969019D01*
X106074801Y-63975573D01*
X106082714Y-63979129D01*
X106097336Y-64001580D01*
X106114877Y-64021823D01*
X106117061Y-64031865D01*
X106120846Y-64037676D01*
X106120918Y-64049593D01*
X106126083Y-64073334D01*
X106126083Y-64100751D01*
X106126084Y-64100756D01*
X106160958Y-64184952D01*
X106160959Y-64184954D01*
X106160961Y-64184958D01*
X106670225Y-64694222D01*
X106696179Y-64704972D01*
X106750583Y-64748813D01*
X106772649Y-64815107D01*
X106755370Y-64882806D01*
X106704234Y-64930417D01*
X106648728Y-64943534D01*
X105162515Y-64943534D01*
X105162492Y-64943536D01*
X105136936Y-64946500D01*
X105136933Y-64946501D01*
X105032318Y-64992692D01*
X105032310Y-64992698D01*
X104951447Y-65073561D01*
X104951443Y-65073568D01*
X104905250Y-65178182D01*
X104905250Y-65178184D01*
X104902283Y-65203757D01*
X104902283Y-68389101D01*
X104902285Y-68389124D01*
X104905249Y-68414680D01*
X104905250Y-68414683D01*
X104951441Y-68519298D01*
X104951444Y-68519302D01*
X104951445Y-68519304D01*
X105032313Y-68600172D01*
X105136934Y-68646367D01*
X105162508Y-68649334D01*
X106327309Y-68649333D01*
X106394346Y-68669018D01*
X106440101Y-68721821D01*
X106450045Y-68790980D01*
X106421020Y-68854536D01*
X106414988Y-68861014D01*
X105760963Y-69515039D01*
X105760960Y-69515044D01*
X105757008Y-69524585D01*
X105745444Y-69552506D01*
X105744824Y-69554002D01*
X105744822Y-69554006D01*
X105739444Y-69566989D01*
X105695602Y-69621391D01*
X105629308Y-69643455D01*
X105624884Y-69643534D01*
X105485199Y-69643534D01*
X105465471Y-69647458D01*
X105426013Y-69655306D01*
X105424072Y-69656604D01*
X105419196Y-69658130D01*
X105414734Y-69659979D01*
X105414568Y-69659579D01*
X105357394Y-69677481D01*
X105290014Y-69658995D01*
X105286294Y-69656604D01*
X105284352Y-69655306D01*
X105254759Y-69649420D01*
X105225167Y-69643534D01*
X105085199Y-69643534D01*
X105065471Y-69647458D01*
X105026013Y-69655306D01*
X105024072Y-69656604D01*
X105019196Y-69658130D01*
X105014734Y-69659979D01*
X105014568Y-69659579D01*
X104957394Y-69677481D01*
X104890014Y-69658995D01*
X104886294Y-69656604D01*
X104884352Y-69655306D01*
X104854759Y-69649420D01*
X104825167Y-69643534D01*
X104685199Y-69643534D01*
X104665471Y-69647458D01*
X104626013Y-69655306D01*
X104624072Y-69656604D01*
X104619196Y-69658130D01*
X104614734Y-69659979D01*
X104614568Y-69659579D01*
X104557394Y-69677481D01*
X104490014Y-69658995D01*
X104486294Y-69656604D01*
X104484352Y-69655306D01*
X104454759Y-69649420D01*
X104425167Y-69643534D01*
X104285199Y-69643534D01*
X104226015Y-69655306D01*
X104158900Y-69700151D01*
X104114055Y-69767266D01*
X104102283Y-69826450D01*
X104102283Y-70641418D01*
X104114055Y-70700602D01*
X104114057Y-70700605D01*
X104116643Y-70706848D01*
X104126083Y-70754304D01*
X104126083Y-71997337D01*
X104106398Y-72064376D01*
X104089764Y-72085018D01*
X103848122Y-72326659D01*
X103786799Y-72360144D01*
X103728348Y-72358753D01*
X103674379Y-72344292D01*
X103528797Y-72344292D01*
X103388177Y-72381971D01*
X103388175Y-72381972D01*
X103388174Y-72381972D01*
X103262102Y-72454759D01*
X103262097Y-72454763D01*
X103159159Y-72557701D01*
X103159155Y-72557706D01*
X103086368Y-72683778D01*
X103086368Y-72683779D01*
X103086367Y-72683781D01*
X103048688Y-72824401D01*
X103048688Y-72969983D01*
X103086367Y-73110603D01*
X103086368Y-73110604D01*
X103086368Y-73110605D01*
X103159155Y-73236677D01*
X103159157Y-73236680D01*
X103159158Y-73236681D01*
X103262099Y-73339622D01*
X103388177Y-73412413D01*
X103528797Y-73450092D01*
X103528799Y-73450092D01*
X103674376Y-73450092D01*
X103674379Y-73450092D01*
X103814999Y-73412413D01*
X103941077Y-73339622D01*
X104044018Y-73236681D01*
X104116809Y-73110603D01*
X104154488Y-72969983D01*
X104154488Y-72824401D01*
X104140026Y-72770428D01*
X104141689Y-72700579D01*
X104172116Y-72650659D01*
X104314405Y-72508371D01*
X104375725Y-72474889D01*
X104445417Y-72479873D01*
X104501350Y-72521745D01*
X104525767Y-72587209D01*
X104526083Y-72596055D01*
X104526083Y-73399959D01*
X104506398Y-73466998D01*
X104489764Y-73487640D01*
X102792989Y-75184415D01*
X102731666Y-75217900D01*
X102705308Y-75220734D01*
X95856211Y-75220734D01*
X95838773Y-75227957D01*
X95821334Y-75235181D01*
X95772008Y-75255612D01*
X95772007Y-75255613D01*
X94507967Y-76519652D01*
X94460963Y-76566656D01*
X94460958Y-76566664D01*
X94426084Y-76650860D01*
X94426083Y-76650865D01*
X94426083Y-76742006D01*
X94426642Y-76743354D01*
X94436083Y-76790811D01*
X94436083Y-78082861D01*
X94416398Y-78149900D01*
X94363594Y-78195655D01*
X94331482Y-78205334D01*
X94289131Y-78212041D01*
X94175410Y-78269985D01*
X94175406Y-78269988D01*
X94085171Y-78360223D01*
X94085168Y-78360227D01*
X94027224Y-78473949D01*
X94012283Y-78568286D01*
X92778083Y-78568286D01*
X92763141Y-78473949D01*
X92763140Y-78473947D01*
X92763140Y-78473945D01*
X92705199Y-78360229D01*
X92705197Y-78360227D01*
X92705194Y-78360223D01*
X92614959Y-78269988D01*
X92614955Y-78269985D01*
X92614954Y-78269984D01*
X92501238Y-78212043D01*
X92501237Y-78212042D01*
X92501234Y-78212041D01*
X92458884Y-78205334D01*
X92395750Y-78175404D01*
X92358819Y-78116093D01*
X92354283Y-78082861D01*
X92354283Y-77521074D01*
X92373968Y-77454035D01*
X92390598Y-77433397D01*
X92853463Y-76970531D01*
X92914786Y-76937047D01*
X92973236Y-76938437D01*
X93027209Y-76952900D01*
X93027211Y-76952900D01*
X93172788Y-76952900D01*
X93172791Y-76952900D01*
X93313411Y-76915221D01*
X93439489Y-76842430D01*
X93542430Y-76739489D01*
X93615221Y-76613411D01*
X93652900Y-76472791D01*
X93652900Y-76327209D01*
X93638438Y-76273236D01*
X93640101Y-76203387D01*
X93670530Y-76153465D01*
X94284221Y-75539775D01*
X94319100Y-75455571D01*
X94319100Y-74738965D01*
X94338785Y-74671926D01*
X94348853Y-74658383D01*
X94367195Y-74636930D01*
X94390521Y-74626631D01*
X94466631Y-74550521D01*
X94493920Y-74488715D01*
X94505753Y-74474877D01*
X94520382Y-74465338D01*
X94531652Y-74451996D01*
X94549042Y-74446650D01*
X94564281Y-74436715D01*
X94581744Y-74436599D01*
X94598438Y-74431469D01*
X94615956Y-74436374D01*
X94634149Y-74436254D01*
X94648902Y-74445598D01*
X94665720Y-74450307D01*
X94677805Y-74463904D01*
X94693175Y-74473639D01*
X94700534Y-74489477D01*
X94712137Y-74502531D01*
X94713434Y-74505373D01*
X94728434Y-74539345D01*
X94733369Y-74550521D01*
X94809479Y-74626631D01*
X94907943Y-74670107D01*
X94932016Y-74672900D01*
X94932017Y-74672900D01*
X95287983Y-74672900D01*
X95287984Y-74672900D01*
X95312057Y-74670107D01*
X95410521Y-74626631D01*
X95486631Y-74550521D01*
X95491566Y-74539343D01*
X95536651Y-74485968D01*
X95603437Y-74465440D01*
X95670719Y-74484278D01*
X95717136Y-74536501D01*
X95718414Y-74539300D01*
X95723369Y-74550521D01*
X95799479Y-74626631D01*
X95897943Y-74670107D01*
X95922016Y-74672900D01*
X95922017Y-74672900D01*
X96277983Y-74672900D01*
X96277984Y-74672900D01*
X96302057Y-74670107D01*
X96400521Y-74626631D01*
X96476631Y-74550521D01*
X96496566Y-74505373D01*
X96541652Y-74451996D01*
X96608438Y-74431469D01*
X96675720Y-74450307D01*
X96722137Y-74502531D01*
X96723434Y-74505373D01*
X96738434Y-74539345D01*
X96743369Y-74550521D01*
X96819479Y-74626631D01*
X96917943Y-74670107D01*
X96942016Y-74672900D01*
X97217542Y-74672900D01*
X97284581Y-74692585D01*
X97290060Y-74696316D01*
X97298159Y-74702155D01*
X97367060Y-74771056D01*
X97416385Y-74791486D01*
X97451263Y-74805934D01*
X101116898Y-74805934D01*
X101116899Y-74805934D01*
X101116900Y-74805934D01*
X101141562Y-74795718D01*
X101201104Y-74771056D01*
X102324405Y-73647754D01*
X102347587Y-73591788D01*
X102359283Y-73563551D01*
X102359283Y-71574188D01*
X102378968Y-71507149D01*
X102421283Y-71466800D01*
X102469672Y-71438864D01*
X102572613Y-71335923D01*
X102645404Y-71209845D01*
X102683083Y-71069225D01*
X102683083Y-70923643D01*
X102645404Y-70783023D01*
X102603814Y-70710986D01*
X102572615Y-70656948D01*
X102572611Y-70656943D01*
X102469673Y-70554005D01*
X102469672Y-70554004D01*
X102443511Y-70538900D01*
X102421281Y-70526065D01*
X102373066Y-70475497D01*
X102359283Y-70418679D01*
X102359283Y-70167692D01*
X102378968Y-70100653D01*
X102395602Y-70080011D01*
X102613760Y-69861853D01*
X102640687Y-69847149D01*
X102666506Y-69830557D01*
X102672706Y-69829665D01*
X102675083Y-69828368D01*
X102701441Y-69825534D01*
X102797312Y-69825534D01*
X102844766Y-69834973D01*
X102851011Y-69837559D01*
X102851015Y-69837562D01*
X102910199Y-69849334D01*
X102910200Y-69849334D01*
X103768517Y-69849334D01*
X103884799Y-69733052D01*
X103884805Y-69733045D01*
X103908082Y-69676848D01*
X103908083Y-69676838D01*
X103908083Y-69526450D01*
X103896311Y-69467266D01*
X103895015Y-69465326D01*
X103893489Y-69460455D01*
X103891638Y-69455985D01*
X103892037Y-69455819D01*
X103874135Y-69398652D01*
X103892617Y-69331271D01*
X103894997Y-69327567D01*
X103896311Y-69325602D01*
X103908083Y-69266418D01*
X103908083Y-69126450D01*
X103896311Y-69067266D01*
X103895015Y-69065326D01*
X103893489Y-69060455D01*
X103891638Y-69055985D01*
X103892037Y-69055819D01*
X103874135Y-68998652D01*
X103892617Y-68931271D01*
X103894997Y-68927567D01*
X103896311Y-68925602D01*
X103908083Y-68866418D01*
X103908083Y-68726450D01*
X103896311Y-68667266D01*
X103895015Y-68665326D01*
X103893489Y-68660455D01*
X103891638Y-68655985D01*
X103892037Y-68655819D01*
X103874135Y-68598652D01*
X103892617Y-68531271D01*
X103894997Y-68527567D01*
X103896311Y-68525602D01*
X103908083Y-68466418D01*
X103908083Y-68326450D01*
X103896311Y-68267266D01*
X103895015Y-68265326D01*
X103893489Y-68260455D01*
X103891638Y-68255985D01*
X103892037Y-68255819D01*
X103874135Y-68198652D01*
X103892617Y-68131271D01*
X103894997Y-68127567D01*
X103896311Y-68125602D01*
X103908083Y-68066418D01*
X103908083Y-67926450D01*
X103896311Y-67867266D01*
X103895015Y-67865326D01*
X103893489Y-67860455D01*
X103891638Y-67855985D01*
X103892037Y-67855819D01*
X103874135Y-67798652D01*
X103892617Y-67731271D01*
X103894997Y-67727567D01*
X103896311Y-67725602D01*
X103908083Y-67666418D01*
X103908083Y-67526450D01*
X103896311Y-67467266D01*
X103851466Y-67400151D01*
X103784351Y-67355306D01*
X103725167Y-67343534D01*
X102910199Y-67343534D01*
X102910186Y-67343534D01*
X102910166Y-67343536D01*
X102910155Y-67343534D01*
X102904108Y-67343534D01*
X102904108Y-67342385D01*
X102841523Y-67330505D01*
X102810354Y-67307812D01*
X102363557Y-66861015D01*
X102330072Y-66799692D01*
X102335056Y-66730000D01*
X102376928Y-66674067D01*
X102442392Y-66649650D01*
X102451238Y-66649334D01*
X103725166Y-66649334D01*
X103725167Y-66649334D01*
X103784351Y-66637562D01*
X103851466Y-66592717D01*
X103896311Y-66525602D01*
X103908083Y-66466418D01*
X103908083Y-66326450D01*
X103896311Y-66267266D01*
X103895015Y-66265326D01*
X103893489Y-66260455D01*
X103891638Y-66255985D01*
X103892037Y-66255819D01*
X103874135Y-66198652D01*
X103892617Y-66131271D01*
X103894997Y-66127567D01*
X103896311Y-66125602D01*
X103908083Y-66066418D01*
X103908083Y-65926450D01*
X103896311Y-65867266D01*
X103895015Y-65865326D01*
X103893489Y-65860455D01*
X103891638Y-65855985D01*
X103892037Y-65855819D01*
X103874135Y-65798652D01*
X103892617Y-65731271D01*
X103894997Y-65727567D01*
X103896311Y-65725602D01*
X103908083Y-65666418D01*
X103908083Y-65526450D01*
X103896311Y-65467266D01*
X103851466Y-65400151D01*
X103784351Y-65355306D01*
X103725167Y-65343534D01*
X102910199Y-65343534D01*
X102851015Y-65355306D01*
X102844766Y-65357895D01*
X102836728Y-65358759D01*
X102797312Y-65367334D01*
X102542693Y-65367334D01*
X102475654Y-65347649D01*
X102455012Y-65331015D01*
X100939109Y-63815112D01*
X100905624Y-63753789D01*
X100907014Y-63695341D01*
X100912175Y-63676081D01*
X100948539Y-63616423D01*
X101011386Y-63585894D01*
X101080761Y-63594189D01*
X101119630Y-63620496D01*
X101780249Y-64281114D01*
X102425344Y-64926209D01*
X102489790Y-64990655D01*
X102573994Y-65025534D01*
X102797312Y-65025534D01*
X102808398Y-65027739D01*
X102814959Y-65026796D01*
X102823680Y-65030778D01*
X102844766Y-65034973D01*
X102851011Y-65037559D01*
X102851015Y-65037562D01*
X102910199Y-65049334D01*
X102910200Y-65049334D01*
X103725166Y-65049334D01*
X103725167Y-65049334D01*
X103784351Y-65037562D01*
X103851466Y-64992717D01*
X103896311Y-64925602D01*
X103908083Y-64866418D01*
X103908083Y-64726450D01*
X103896311Y-64667266D01*
X103895015Y-64665326D01*
X103893489Y-64660455D01*
X103891638Y-64655985D01*
X103892037Y-64655819D01*
X103874135Y-64598652D01*
X103892617Y-64531271D01*
X103894997Y-64527567D01*
X103896311Y-64525602D01*
X103908083Y-64466418D01*
X103908083Y-64326450D01*
X103896311Y-64267266D01*
X103895015Y-64265326D01*
X103893489Y-64260455D01*
X103891638Y-64255985D01*
X103892037Y-64255819D01*
X103874135Y-64198652D01*
X103892617Y-64131271D01*
X103894997Y-64127567D01*
X103896311Y-64125602D01*
X103908083Y-64066418D01*
X103908083Y-63883100D01*
X103791801Y-63766818D01*
X103791794Y-63766812D01*
X103791793Y-63766811D01*
X103749962Y-63749485D01*
X103735597Y-63743535D01*
X103735599Y-63743535D01*
X103735594Y-63743534D01*
X103735587Y-63743534D01*
X102918893Y-63743534D01*
X102889452Y-63734889D01*
X102859466Y-63728366D01*
X102854450Y-63724611D01*
X102851854Y-63723849D01*
X102831212Y-63707215D01*
X102728219Y-63604222D01*
X102694734Y-63542899D01*
X102691900Y-63516541D01*
X102691900Y-62585369D01*
X102711585Y-62518330D01*
X102764389Y-62472575D01*
X102830195Y-62462196D01*
X102836254Y-62462899D01*
X102836264Y-62462899D01*
X102836266Y-62462900D01*
X102836267Y-62462900D01*
X103198947Y-62462900D01*
X103265986Y-62482585D01*
X103305679Y-62523779D01*
X103330278Y-62565374D01*
X103330285Y-62565383D01*
X103444616Y-62679714D01*
X103444625Y-62679721D01*
X103583804Y-62762031D01*
X103730000Y-62804504D01*
X103730000Y-61195494D01*
X103729998Y-61195493D01*
X103641833Y-61221108D01*
X103571964Y-61220909D01*
X103513294Y-61182967D01*
X103484450Y-61119328D01*
X103494591Y-61050199D01*
X103499842Y-61040047D01*
X103515221Y-61013411D01*
X103552900Y-60872791D01*
X103552900Y-60727209D01*
X103515221Y-60586589D01*
X103457485Y-60486587D01*
X103442432Y-60460514D01*
X103442428Y-60460509D01*
X103339490Y-60357571D01*
X103339485Y-60357567D01*
X103213413Y-60284780D01*
X103213412Y-60284779D01*
X103213411Y-60284779D01*
X103072791Y-60247100D01*
X102927209Y-60247100D01*
X102786589Y-60284779D01*
X102786587Y-60284780D01*
X102786586Y-60284780D01*
X102660514Y-60357567D01*
X102660509Y-60357571D01*
X102557571Y-60460509D01*
X102557567Y-60460514D01*
X102484780Y-60586586D01*
X102484780Y-60586587D01*
X102484779Y-60586589D01*
X102447100Y-60727209D01*
X102447100Y-60872791D01*
X102484779Y-61013411D01*
X102484780Y-61013412D01*
X102484780Y-61013413D01*
X102557567Y-61139485D01*
X102557569Y-61139488D01*
X102557570Y-61139489D01*
X102660511Y-61242430D01*
X102728900Y-61281914D01*
X102737183Y-61290601D01*
X102748103Y-61295588D01*
X102760848Y-61315419D01*
X102777115Y-61332480D01*
X102780331Y-61345736D01*
X102785877Y-61354366D01*
X102790900Y-61389301D01*
X102790900Y-61468361D01*
X102771215Y-61535400D01*
X102718411Y-61581155D01*
X102716987Y-61581795D01*
X102711608Y-61584170D01*
X102711606Y-61584171D01*
X102711604Y-61584172D01*
X102711603Y-61584172D01*
X102711601Y-61584174D01*
X102634173Y-61661602D01*
X102634170Y-61661607D01*
X102589941Y-61761776D01*
X102589941Y-61761778D01*
X102587100Y-61786264D01*
X102587100Y-61814027D01*
X102567415Y-61881066D01*
X102514611Y-61926821D01*
X102445453Y-61936765D01*
X102381897Y-61907740D01*
X102375419Y-61901708D01*
X100652288Y-60178577D01*
X100600696Y-60157208D01*
X100576293Y-60147100D01*
X100568085Y-60143700D01*
X97293798Y-60143700D01*
X97226759Y-60124015D01*
X97181004Y-60071211D01*
X97171060Y-60002053D01*
X97176092Y-59980696D01*
X97219688Y-59849131D01*
X97219689Y-59849124D01*
X97230182Y-59746420D01*
X97230183Y-59746407D01*
X97230183Y-59696434D01*
X96255183Y-59696434D01*
X96255183Y-60469458D01*
X96235498Y-60536497D01*
X96218864Y-60557139D01*
X95031422Y-61744581D01*
X95004494Y-61759284D01*
X94978676Y-61775877D01*
X94972475Y-61776768D01*
X94970099Y-61778066D01*
X94943741Y-61780900D01*
X94826488Y-61780900D01*
X94759449Y-61761215D01*
X94713694Y-61708411D01*
X94703750Y-61639253D01*
X94732775Y-61575697D01*
X94738807Y-61569219D01*
X94790731Y-61517294D01*
X94790738Y-61517285D01*
X94872404Y-61379194D01*
X94912844Y-61240000D01*
X93287156Y-61240000D01*
X93327595Y-61379194D01*
X93409261Y-61517285D01*
X93409268Y-61517294D01*
X93461193Y-61569219D01*
X93470054Y-61585448D01*
X93482986Y-61598665D01*
X93486451Y-61615476D01*
X93494678Y-61630542D01*
X93493358Y-61648986D01*
X93497092Y-61667096D01*
X93490918Y-61683111D01*
X93489694Y-61700234D01*
X93478612Y-61715036D01*
X93471962Y-61732290D01*
X93458107Y-61742426D01*
X93447822Y-61756167D01*
X93430499Y-61762628D01*
X93415575Y-61773548D01*
X93388564Y-61778269D01*
X93382358Y-61780584D01*
X93381007Y-61780673D01*
X93377258Y-61780900D01*
X93189429Y-61780900D01*
X93176475Y-61786266D01*
X93136208Y-61802944D01*
X93105225Y-61815778D01*
X92750222Y-62170781D01*
X92688899Y-62204266D01*
X92662541Y-62207100D01*
X92391264Y-62207100D01*
X92366778Y-62209941D01*
X92366776Y-62209941D01*
X92266607Y-62254170D01*
X92266602Y-62254173D01*
X92189173Y-62331602D01*
X92189170Y-62331607D01*
X92144941Y-62431776D01*
X92144941Y-62431778D01*
X92142100Y-62456264D01*
X92142100Y-62823735D01*
X92144941Y-62848221D01*
X92144941Y-62848223D01*
X92189170Y-62948392D01*
X92189173Y-62948397D01*
X92273095Y-63032319D01*
X92306580Y-63093642D01*
X92301596Y-63163334D01*
X92273095Y-63207681D01*
X92189173Y-63291602D01*
X92189170Y-63291607D01*
X92144941Y-63391776D01*
X92144941Y-63391778D01*
X92142100Y-63416264D01*
X92142100Y-63783735D01*
X92144941Y-63808221D01*
X92144941Y-63808223D01*
X92187323Y-63904208D01*
X92189172Y-63908396D01*
X92266604Y-63985828D01*
X92366779Y-64030059D01*
X92391266Y-64032900D01*
X92391267Y-64032900D01*
X92818733Y-64032900D01*
X92818734Y-64032900D01*
X92843221Y-64030059D01*
X92943396Y-63985828D01*
X93020828Y-63908396D01*
X93023203Y-63903014D01*
X93035202Y-63888810D01*
X93042926Y-63871897D01*
X93057278Y-63862673D01*
X93068288Y-63849639D01*
X93086061Y-63844175D01*
X93101704Y-63834123D01*
X93133759Y-63829513D01*
X93135074Y-63829110D01*
X93136639Y-63829100D01*
X93330698Y-63829100D01*
X93397737Y-63848785D01*
X93438085Y-63891100D01*
X93477567Y-63959485D01*
X93477571Y-63959490D01*
X93571639Y-64053558D01*
X93605124Y-64114881D01*
X93600140Y-64184573D01*
X93558268Y-64240506D01*
X93552851Y-64244340D01*
X93529766Y-64259765D01*
X93495971Y-64310343D01*
X93495970Y-64310345D01*
X93487100Y-64354940D01*
X93487100Y-64837286D01*
X93467415Y-64904325D01*
X93414611Y-64950080D01*
X93406437Y-64953466D01*
X93397917Y-64956644D01*
X93397914Y-64956645D01*
X93282809Y-65042813D01*
X93196649Y-65157906D01*
X93196645Y-65157913D01*
X93146403Y-65292620D01*
X93146401Y-65292627D01*
X93140000Y-65352155D01*
X93140000Y-65400000D01*
X94670000Y-65400000D01*
X94670000Y-65352172D01*
X94669999Y-65352155D01*
X94663598Y-65292627D01*
X94663596Y-65292620D01*
X94613354Y-65157913D01*
X94613350Y-65157906D01*
X94527190Y-65042812D01*
X94527187Y-65042809D01*
X94412092Y-64956648D01*
X94412088Y-64956646D01*
X94403562Y-64953466D01*
X94347630Y-64911593D01*
X94323215Y-64846128D01*
X94322899Y-64837312D01*
X94322899Y-64354944D01*
X94314028Y-64310342D01*
X94314026Y-64310340D01*
X94314026Y-64310338D01*
X94280235Y-64259767D01*
X94280234Y-64259766D01*
X94275135Y-64256359D01*
X94264694Y-64243867D01*
X94250929Y-64235167D01*
X94242749Y-64217609D01*
X94230330Y-64202750D01*
X94228300Y-64186594D01*
X94221423Y-64171833D01*
X94224034Y-64152640D01*
X94221620Y-64133425D01*
X94228741Y-64118039D01*
X94230842Y-64102601D01*
X94246230Y-64080257D01*
X94249698Y-64072766D01*
X94257574Y-64063535D01*
X94259489Y-64062430D01*
X94362430Y-63959489D01*
X94396051Y-63901254D01*
X94403428Y-63892610D01*
X94423543Y-63879465D01*
X94440934Y-63862884D01*
X94453636Y-63859802D01*
X94461918Y-63854391D01*
X94476396Y-63854281D01*
X94497754Y-63849100D01*
X94884228Y-63849100D01*
X94951267Y-63868785D01*
X94987330Y-63904208D01*
X95015564Y-63946463D01*
X95024766Y-63960234D01*
X95075342Y-63994028D01*
X95075343Y-63994028D01*
X95075345Y-63994029D01*
X95097642Y-63998464D01*
X95119943Y-64002900D01*
X95680056Y-64002899D01*
X95724658Y-63994028D01*
X95775234Y-63960234D01*
X95809028Y-63909658D01*
X95817900Y-63865057D01*
X95817899Y-63364944D01*
X95809028Y-63320342D01*
X95809026Y-63320340D01*
X95809026Y-63320338D01*
X95775234Y-63269766D01*
X95750920Y-63253520D01*
X95724658Y-63235972D01*
X95724657Y-63235971D01*
X95724656Y-63235971D01*
X95724654Y-63235970D01*
X95680059Y-63227100D01*
X95119945Y-63227100D01*
X95075341Y-63235972D01*
X95075338Y-63235973D01*
X95024766Y-63269765D01*
X95010174Y-63291604D01*
X94998618Y-63308900D01*
X94984188Y-63330496D01*
X94981754Y-63328870D01*
X94949609Y-63368758D01*
X94883315Y-63390821D01*
X94878892Y-63390900D01*
X94497754Y-63390900D01*
X94430715Y-63371215D01*
X94390367Y-63328900D01*
X94385426Y-63320342D01*
X94362430Y-63280511D01*
X94259489Y-63177570D01*
X94259488Y-63177569D01*
X94259485Y-63177567D01*
X94133413Y-63104780D01*
X94133412Y-63104779D01*
X94133411Y-63104779D01*
X93992791Y-63067100D01*
X93847209Y-63067100D01*
X93706589Y-63104779D01*
X93706587Y-63104780D01*
X93706586Y-63104780D01*
X93580514Y-63177567D01*
X93580509Y-63177571D01*
X93477571Y-63280509D01*
X93477567Y-63280514D01*
X93461179Y-63308900D01*
X93452491Y-63317183D01*
X93447505Y-63328103D01*
X93427673Y-63340847D01*
X93410612Y-63357116D01*
X93397355Y-63360331D01*
X93388727Y-63365877D01*
X93353792Y-63370900D01*
X93136639Y-63370900D01*
X93069600Y-63351215D01*
X93023845Y-63298411D01*
X93023203Y-63296984D01*
X93020828Y-63291604D01*
X92943396Y-63214172D01*
X92936905Y-63207681D01*
X92903420Y-63146358D01*
X92908404Y-63076666D01*
X92936905Y-63032319D01*
X92978523Y-62990701D01*
X93020828Y-62948396D01*
X93065059Y-62848221D01*
X93067900Y-62823734D01*
X93067900Y-62552458D01*
X93087585Y-62485419D01*
X93104219Y-62464777D01*
X93293577Y-62275419D01*
X93320504Y-62260715D01*
X93346323Y-62244123D01*
X93352523Y-62243231D01*
X93354900Y-62241934D01*
X93381258Y-62239100D01*
X93561035Y-62239100D01*
X93628074Y-62258785D01*
X93665500Y-62301977D01*
X93666873Y-62301038D01*
X93673368Y-62310519D01*
X93673369Y-62310521D01*
X93749479Y-62386631D01*
X93847943Y-62430107D01*
X93872016Y-62432900D01*
X93872017Y-62432900D01*
X94327983Y-62432900D01*
X94327984Y-62432900D01*
X94352057Y-62430107D01*
X94450521Y-62386631D01*
X94526631Y-62310521D01*
X94526633Y-62310515D01*
X94533127Y-62301038D01*
X94534723Y-62302131D01*
X94537527Y-62298811D01*
X94545252Y-62281897D01*
X94559604Y-62272673D01*
X94570613Y-62259640D01*
X94588386Y-62254176D01*
X94604030Y-62244123D01*
X94636083Y-62239514D01*
X94637399Y-62239110D01*
X94638965Y-62239100D01*
X94858100Y-62239100D01*
X94925139Y-62258785D01*
X94970894Y-62311589D01*
X94982100Y-62363100D01*
X94982100Y-62835054D01*
X94990972Y-62879658D01*
X94990973Y-62879661D01*
X95019654Y-62922584D01*
X95024766Y-62930234D01*
X95075342Y-62964028D01*
X95075343Y-62964028D01*
X95075345Y-62964029D01*
X95097642Y-62968464D01*
X95119943Y-62972900D01*
X95680056Y-62972899D01*
X95724658Y-62964028D01*
X95775234Y-62930234D01*
X95809028Y-62879658D01*
X95809028Y-62879656D01*
X95815812Y-62869504D01*
X95819512Y-62871976D01*
X95848382Y-62836198D01*
X95914691Y-62814176D01*
X95919037Y-62814100D01*
X96960817Y-62814100D01*
X97027856Y-62833785D01*
X97047648Y-62853232D01*
X97049284Y-62851596D01*
X97057922Y-62860234D01*
X97108498Y-62894028D01*
X97108500Y-62894028D01*
X97108501Y-62894029D01*
X97130798Y-62898464D01*
X97153099Y-62902900D01*
X98433792Y-62902899D01*
X98500831Y-62922584D01*
X98546586Y-62975387D01*
X98556530Y-63044546D01*
X98541180Y-63088898D01*
X98484779Y-63186588D01*
X98478415Y-63210341D01*
X98447100Y-63327209D01*
X98447100Y-63327211D01*
X98447100Y-63365819D01*
X98427415Y-63432858D01*
X98374611Y-63478613D01*
X98305453Y-63488557D01*
X98246581Y-63461671D01*
X98245934Y-63462516D01*
X98242263Y-63459699D01*
X98241897Y-63459532D01*
X98241201Y-63458884D01*
X98239485Y-63457567D01*
X98113413Y-63384780D01*
X98113412Y-63384779D01*
X98113411Y-63384779D01*
X97972791Y-63347100D01*
X97827209Y-63347100D01*
X97686589Y-63384779D01*
X97686587Y-63384780D01*
X97686586Y-63384780D01*
X97560514Y-63457567D01*
X97560509Y-63457571D01*
X97457571Y-63560509D01*
X97457567Y-63560514D01*
X97384780Y-63686586D01*
X97384780Y-63686587D01*
X97384779Y-63686589D01*
X97347100Y-63827209D01*
X97347100Y-63972791D01*
X97384779Y-64113411D01*
X97384780Y-64113412D01*
X97384780Y-64113413D01*
X97457567Y-64239485D01*
X97457569Y-64239488D01*
X97457570Y-64239489D01*
X97560511Y-64342430D01*
X97582184Y-64354943D01*
X97585098Y-64356625D01*
X97633314Y-64407191D01*
X97647100Y-64464013D01*
X97647100Y-64868536D01*
X97627415Y-64935575D01*
X97593176Y-64970836D01*
X97589480Y-64973367D01*
X97513368Y-65049480D01*
X97469893Y-65147940D01*
X97469893Y-65147942D01*
X97467100Y-65172014D01*
X97467100Y-65627985D01*
X97469893Y-65652057D01*
X97469893Y-65652059D01*
X97505795Y-65733368D01*
X97513369Y-65750521D01*
X97589479Y-65826631D01*
X97687943Y-65870107D01*
X97712016Y-65872900D01*
X97712017Y-65872900D01*
X98067983Y-65872900D01*
X98067984Y-65872900D01*
X98092057Y-65870107D01*
X98166501Y-65837236D01*
X98235777Y-65828165D01*
X98298962Y-65857988D01*
X98335994Y-65917237D01*
X98335114Y-65987101D01*
X98304267Y-66038352D01*
X97610403Y-66732215D01*
X97549080Y-66765700D01*
X97522722Y-66768534D01*
X97203694Y-66768534D01*
X97203685Y-66768535D01*
X97180454Y-66771229D01*
X97180453Y-66771229D01*
X97085411Y-66813195D01*
X97018916Y-66879690D01*
X96957592Y-66913174D01*
X96887901Y-66908189D01*
X96831967Y-66866318D01*
X96812159Y-66826604D01*
X96803339Y-66796246D01*
X96803338Y-66796245D01*
X96722956Y-66660325D01*
X96722950Y-66660317D01*
X96611299Y-66548666D01*
X96611291Y-66548660D01*
X96475371Y-66468278D01*
X96475370Y-66468277D01*
X96350183Y-66431906D01*
X96350183Y-67172434D01*
X96330498Y-67239473D01*
X96277694Y-67285228D01*
X96226183Y-67296434D01*
X96100183Y-67296434D01*
X96100183Y-67422434D01*
X96080498Y-67489473D01*
X96027694Y-67535228D01*
X95976183Y-67546434D01*
X95650000Y-67546434D01*
X95637348Y-67559085D01*
X95630315Y-67583039D01*
X95577511Y-67628794D01*
X95526000Y-67640000D01*
X94534747Y-67640000D01*
X94484996Y-67667166D01*
X94458638Y-67670000D01*
X92795496Y-67670000D01*
X92837968Y-67816195D01*
X92924252Y-67962093D01*
X92921775Y-67963557D01*
X92922110Y-67964412D01*
X92931622Y-67975389D01*
X92934626Y-67996281D01*
X92942341Y-68015927D01*
X92939498Y-68030169D01*
X92941566Y-68044547D01*
X92932797Y-68063747D01*
X92928667Y-68084445D01*
X92918574Y-68094890D01*
X92912541Y-68108103D01*
X92894783Y-68119514D01*
X92880119Y-68134693D01*
X92864906Y-68138715D01*
X92853763Y-68145877D01*
X92818828Y-68150900D01*
X92766208Y-68150900D01*
X92699169Y-68131215D01*
X92658821Y-68088900D01*
X92642432Y-68060514D01*
X92642428Y-68060509D01*
X92539490Y-67957571D01*
X92539485Y-67957567D01*
X92413413Y-67884780D01*
X92413412Y-67884779D01*
X92413411Y-67884779D01*
X92272791Y-67847100D01*
X92127209Y-67847100D01*
X91986589Y-67884779D01*
X91986587Y-67884780D01*
X91986586Y-67884780D01*
X91860514Y-67957567D01*
X91860509Y-67957571D01*
X91757571Y-68060509D01*
X91757567Y-68060514D01*
X91684780Y-68186586D01*
X91684780Y-68186587D01*
X91684779Y-68186589D01*
X91647100Y-68327209D01*
X91647100Y-68472791D01*
X91684779Y-68613411D01*
X91703143Y-68645219D01*
X91757567Y-68739485D01*
X91757569Y-68739488D01*
X91757570Y-68739489D01*
X91860511Y-68842430D01*
X91860512Y-68842431D01*
X91860514Y-68842432D01*
X91923550Y-68878825D01*
X91986589Y-68915221D01*
X92127209Y-68952900D01*
X92127211Y-68952900D01*
X92272788Y-68952900D01*
X92272791Y-68952900D01*
X92413411Y-68915221D01*
X92539489Y-68842430D01*
X92642430Y-68739489D01*
X92662383Y-68704929D01*
X92681915Y-68671100D01*
X92732482Y-68622884D01*
X92789302Y-68609100D01*
X93068361Y-68609100D01*
X93135400Y-68628785D01*
X93181155Y-68681589D01*
X93181772Y-68682960D01*
X93184172Y-68688396D01*
X93261604Y-68765828D01*
X93361779Y-68810059D01*
X93386266Y-68812900D01*
X93386267Y-68812900D01*
X93813733Y-68812900D01*
X93813734Y-68812900D01*
X93838221Y-68810059D01*
X93938396Y-68765828D01*
X94015828Y-68688396D01*
X94026279Y-68664727D01*
X94071363Y-68611350D01*
X94138149Y-68590821D01*
X94205432Y-68609658D01*
X94251849Y-68661880D01*
X94253148Y-68664725D01*
X94273368Y-68710520D01*
X94273369Y-68710521D01*
X94349479Y-68786631D01*
X94447943Y-68830107D01*
X94472016Y-68832900D01*
X94546900Y-68832900D01*
X94613939Y-68852585D01*
X94659694Y-68905389D01*
X94670900Y-68956900D01*
X94670900Y-71541819D01*
X94670901Y-71541824D01*
X94705775Y-71626020D01*
X94705776Y-71626022D01*
X94705778Y-71626026D01*
X94705780Y-71626028D01*
X95660964Y-72581212D01*
X95694449Y-72642535D01*
X95697283Y-72668893D01*
X95697283Y-72987922D01*
X95697284Y-72987931D01*
X95699978Y-73011162D01*
X95699978Y-73011163D01*
X95741945Y-73106207D01*
X95815407Y-73179669D01*
X95817153Y-73180865D01*
X95819598Y-73183860D01*
X95823535Y-73187797D01*
X95823137Y-73188194D01*
X95861340Y-73234988D01*
X95871083Y-73283169D01*
X95871083Y-73660954D01*
X95851398Y-73727993D01*
X95836998Y-73746343D01*
X95819892Y-73764355D01*
X95799479Y-73773369D01*
X95723369Y-73849479D01*
X95709738Y-73880348D01*
X95694915Y-73895958D01*
X95682561Y-73903123D01*
X95673347Y-73914032D01*
X95652942Y-73920303D01*
X95634477Y-73931014D01*
X95620211Y-73930363D01*
X95606561Y-73934559D01*
X95586005Y-73928803D01*
X95564680Y-73927831D01*
X95553029Y-73919570D01*
X95539279Y-73915720D01*
X95525098Y-73899764D01*
X95507684Y-73887417D01*
X95502349Y-73874169D01*
X95492863Y-73863496D01*
X95491566Y-73860656D01*
X95486631Y-73849479D01*
X95410521Y-73773369D01*
X95369676Y-73755334D01*
X95312058Y-73729893D01*
X95287985Y-73727100D01*
X95287984Y-73727100D01*
X94932016Y-73727100D01*
X94932014Y-73727100D01*
X94907942Y-73729893D01*
X94907940Y-73729893D01*
X94809478Y-73773369D01*
X94733369Y-73849478D01*
X94713434Y-73894627D01*
X94668348Y-73948003D01*
X94601561Y-73968530D01*
X94534279Y-73949691D01*
X94487863Y-73897468D01*
X94486566Y-73894627D01*
X94471566Y-73860656D01*
X94466631Y-73849479D01*
X94390521Y-73773369D01*
X94349676Y-73755334D01*
X94292058Y-73729893D01*
X94267985Y-73727100D01*
X94267984Y-73727100D01*
X93912016Y-73727100D01*
X93912014Y-73727100D01*
X93887942Y-73729893D01*
X93887940Y-73729893D01*
X93789478Y-73773369D01*
X93713369Y-73849478D01*
X93669893Y-73947940D01*
X93669893Y-73947942D01*
X93667100Y-73972014D01*
X93667100Y-74427985D01*
X93669893Y-74452057D01*
X93669893Y-74452059D01*
X93708434Y-74539345D01*
X93713369Y-74550521D01*
X93789479Y-74626631D01*
X93789481Y-74626632D01*
X93798962Y-74633127D01*
X93797868Y-74634723D01*
X93840360Y-74670613D01*
X93860890Y-74737399D01*
X93860900Y-74738965D01*
X93860900Y-75263740D01*
X93841215Y-75330779D01*
X93824581Y-75351421D01*
X93346534Y-75829467D01*
X93285211Y-75862952D01*
X93226760Y-75861561D01*
X93172791Y-75847100D01*
X93027209Y-75847100D01*
X92886589Y-75884779D01*
X92886587Y-75884780D01*
X92886586Y-75884780D01*
X92760514Y-75957567D01*
X92760509Y-75957571D01*
X92657571Y-76060509D01*
X92657567Y-76060514D01*
X92584780Y-76186586D01*
X92584780Y-76186587D01*
X92584779Y-76186589D01*
X92547100Y-76327209D01*
X92547100Y-76327211D01*
X92547100Y-76472792D01*
X92561561Y-76526762D01*
X92559898Y-76596611D01*
X92529467Y-76646535D01*
X91930960Y-77245042D01*
X91917720Y-77277007D01*
X91909964Y-77295734D01*
X91909964Y-77295735D01*
X91896083Y-77329244D01*
X91896083Y-78082861D01*
X91876398Y-78149900D01*
X91823594Y-78195655D01*
X91791482Y-78205334D01*
X91749131Y-78212041D01*
X91635410Y-78269985D01*
X91635406Y-78269988D01*
X91545171Y-78360223D01*
X91545168Y-78360227D01*
X91487224Y-78473949D01*
X91472283Y-78568286D01*
X91055683Y-78568286D01*
X91055683Y-72656192D01*
X91075368Y-72589153D01*
X91128172Y-72543398D01*
X91197330Y-72533454D01*
X91260886Y-72562479D01*
X91267364Y-72568511D01*
X91375396Y-72676543D01*
X91547362Y-72801482D01*
X91547364Y-72801483D01*
X91547367Y-72801485D01*
X91736771Y-72897991D01*
X91938940Y-72963680D01*
X92148896Y-72996934D01*
X92148897Y-72996934D01*
X92361469Y-72996934D01*
X92361470Y-72996934D01*
X92571426Y-72963680D01*
X92773595Y-72897991D01*
X92962999Y-72801485D01*
X93069159Y-72724356D01*
X93134969Y-72676543D01*
X93134971Y-72676540D01*
X93134975Y-72676538D01*
X93285287Y-72526226D01*
X93285289Y-72526222D01*
X93285292Y-72526220D01*
X93410231Y-72354254D01*
X93410230Y-72354254D01*
X93410234Y-72354250D01*
X93506740Y-72164846D01*
X93572429Y-71962677D01*
X93605683Y-71752721D01*
X93605683Y-71540147D01*
X93572429Y-71330191D01*
X93506740Y-71128022D01*
X93410234Y-70938618D01*
X93410232Y-70938615D01*
X93410231Y-70938613D01*
X93285292Y-70766647D01*
X93134969Y-70616324D01*
X92963003Y-70491385D01*
X92773597Y-70394878D01*
X92773596Y-70394877D01*
X92773595Y-70394877D01*
X92571426Y-70329188D01*
X92571424Y-70329187D01*
X92571423Y-70329187D01*
X92410140Y-70303642D01*
X92361470Y-70295934D01*
X92148896Y-70295934D01*
X92100225Y-70303642D01*
X91938943Y-70329187D01*
X91736768Y-70394878D01*
X91547362Y-70491385D01*
X91375396Y-70616324D01*
X91375392Y-70616328D01*
X91267364Y-70724357D01*
X91206041Y-70757842D01*
X91136349Y-70752858D01*
X91080416Y-70710986D01*
X91055999Y-70645522D01*
X91055683Y-70636676D01*
X91055683Y-67170000D01*
X92795496Y-67170000D01*
X93350000Y-67170000D01*
X93350000Y-66641210D01*
X93349999Y-66641209D01*
X93850000Y-66641209D01*
X93850000Y-67140000D01*
X94450000Y-67140000D01*
X94450000Y-66620068D01*
X94950000Y-66620068D01*
X94950000Y-67140000D01*
X95220183Y-67140000D01*
X95232834Y-67127348D01*
X95239868Y-67103395D01*
X95292672Y-67057640D01*
X95344183Y-67046434D01*
X95850183Y-67046434D01*
X95850183Y-66431906D01*
X95724995Y-66468277D01*
X95724994Y-66468278D01*
X95589074Y-66548660D01*
X95589066Y-66548666D01*
X95477415Y-66660317D01*
X95477408Y-66660326D01*
X95449706Y-66707169D01*
X95398637Y-66754853D01*
X95329895Y-66767356D01*
X95279853Y-66750780D01*
X95139191Y-66667593D01*
X95139188Y-66667592D01*
X94985130Y-66622834D01*
X94950000Y-66620068D01*
X94450000Y-66620068D01*
X94449999Y-66620068D01*
X94414869Y-66622834D01*
X94414868Y-66622834D01*
X94260812Y-66667592D01*
X94260807Y-66667593D01*
X94189395Y-66709826D01*
X94121670Y-66727007D01*
X94063155Y-66709826D01*
X94026193Y-66687967D01*
X94026190Y-66687966D01*
X93870918Y-66642855D01*
X93870912Y-66642854D01*
X93850000Y-66641209D01*
X93349999Y-66641209D01*
X93329087Y-66642854D01*
X93329081Y-66642855D01*
X93173809Y-66687966D01*
X93173804Y-66687968D01*
X93034625Y-66770278D01*
X93034616Y-66770285D01*
X92920285Y-66884616D01*
X92920278Y-66884625D01*
X92837968Y-67023804D01*
X92795496Y-67170000D01*
X91055683Y-67170000D01*
X91055683Y-65917844D01*
X93140000Y-65917844D01*
X93146401Y-65977372D01*
X93146403Y-65977379D01*
X93196645Y-66112086D01*
X93196649Y-66112093D01*
X93282809Y-66227187D01*
X93282812Y-66227190D01*
X93397906Y-66313350D01*
X93397913Y-66313354D01*
X93532620Y-66363596D01*
X93532627Y-66363598D01*
X93592155Y-66369999D01*
X93592172Y-66370000D01*
X93670000Y-66370000D01*
X94140000Y-66370000D01*
X94217828Y-66370000D01*
X94217844Y-66369999D01*
X94277372Y-66363598D01*
X94277379Y-66363596D01*
X94412086Y-66313354D01*
X94412093Y-66313350D01*
X94527187Y-66227190D01*
X94527190Y-66227187D01*
X94613350Y-66112093D01*
X94613354Y-66112086D01*
X94663596Y-65977379D01*
X94663598Y-65977372D01*
X94669999Y-65917844D01*
X94670000Y-65917827D01*
X94670000Y-65870000D01*
X94140000Y-65870000D01*
X94140000Y-66370000D01*
X93670000Y-66370000D01*
X93670000Y-65870000D01*
X93140000Y-65870000D01*
X93140000Y-65917844D01*
X91055683Y-65917844D01*
X91055683Y-56270934D01*
X91058228Y-56262265D01*
X91056940Y-56253325D01*
X91067917Y-56229267D01*
X91075368Y-56203895D01*
X91082194Y-56197979D01*
X91085945Y-56189761D01*
X91108187Y-56175456D01*
X91128172Y-56158140D01*
X91138666Y-56155855D01*
X91144711Y-56151968D01*
X91179567Y-56146950D01*
X91179644Y-56146934D01*
X91255155Y-56146934D01*
X91321075Y-56146934D01*
X91321239Y-56146889D01*
X91327908Y-56146887D01*
X91329578Y-56146887D01*
X91329585Y-56146889D01*
X91329613Y-56146887D01*
X91333992Y-56146888D01*
X91488640Y-56116136D01*
X91634318Y-56055807D01*
X91765427Y-55968217D01*
X91876930Y-55856733D01*
X91964542Y-55725639D01*
X92024897Y-55579971D01*
X92055674Y-55425329D01*
X92055675Y-55412354D01*
X92055683Y-55412326D01*
X92055683Y-55346377D01*
X92055691Y-55280599D01*
X92055690Y-55280595D01*
X92055691Y-55272589D01*
X92055683Y-55272451D01*
X92055683Y-52770934D01*
X92075368Y-52703895D01*
X92128172Y-52658140D01*
X92179683Y-52646934D01*
X93066592Y-52646934D01*
X93133631Y-52666619D01*
G37*
%TD.AperFunction*%
%TD*%
M02*
