M48
; DRILL file {KiCad 9.0.4} date 2025-09-09T15:17:23+0200
; FORMAT={-:-/ absolute / inch / decimal}
; #@! TF.CreationDate,2025-09-09T15:17:23+02:00
; #@! TF.GenerationSoftware,Kicad,Pcbnew,9.0.4
; #@! TF.FileFunction,Plated,1,4,PTH
FMAT,2
INCH
; #@! TA.AperFunction,Plated,PTH,ComponentDrill
T1C0.0098
; #@! TA.AperFunction,Plated,PTH,ViaDrill
T2C0.0118
; #@! TA.AperFunction,Plated,PTH,ViaDrill
T3C0.0157
%
G90
G05
T1
X4.1488Y-2.5756
X4.1488Y-2.6298
X4.1488Y-2.6839
X4.203Y-2.5756
X4.203Y-2.6298
X4.203Y-2.6839
X4.2571Y-2.5756
X4.2571Y-2.6298
X4.2571Y-2.6839
T2
X3.7736Y-2.5433
X3.7736Y-2.5807
X3.9587Y-2.5276
X3.9646Y-2.4646
X4.0098Y-2.4429
X4.5394Y-2.6457
T3
X3.6299Y-2.6929
X3.6654Y-3.0079
X3.8437Y-2.2656
X3.8543Y-2.1673
X3.8585Y-2.7558
X3.8898Y-2.2144
X4.0Y-2.2953
X4.0209Y-2.7951
X4.0551Y-2.3937
X4.063Y-2.2795
X4.0788Y-2.87
X4.1242Y-2.3898
X4.126Y-2.1929
X4.1496Y-2.2717
X4.1693Y-2.1811
X4.1734Y-2.3621
X4.2002Y-2.3909
X4.2817Y-2.8274
X4.3181Y-2.8424
X4.3346Y-2.4213
X4.3467Y-2.9152
X4.3526Y-2.865
X4.3723Y-2.9487
X4.3898Y-2.6102
X4.3898Y-2.6879
X4.437Y-2.563
X4.437Y-2.6879
X4.4559Y-2.2676
X4.4803Y-2.9961
M30
