%TF.GenerationSoftware,KiCad,Pcbnew,9.0.4*%
%TF.CreationDate,2025-09-09T09:39:30+02:00*%
%TF.ProjectId,rp2350_gpio_card,72703233-3530-45f6-9770-696f5f636172,X1*%
%TF.SameCoordinates,Original*%
%TF.FileFunction,Legend,Top*%
%TF.FilePolarity,Positive*%
%FSLAX46Y46*%
G04 Gerber Fmt 4.6, Leading zero omitted, Abs format (unit mm)*
G04 Created by KiCad (PCBNEW 9.0.4) date 2025-09-09 09:39:30*
%MOMM*%
%LPD*%
G01*
G04 APERTURE LIST*
G04 Aperture macros list*
%AMRoundRect*
0 Rectangle with rounded corners*
0 $1 Rounding radius*
0 $2 $3 $4 $5 $6 $7 $8 $9 X,Y pos of 4 corners*
0 Add a 4 corners polygon primitive as box body*
4,1,4,$2,$3,$4,$5,$6,$7,$8,$9,$2,$3,0*
0 Add four circle primitives for the rounded corners*
1,1,$1+$1,$2,$3*
1,1,$1+$1,$4,$5*
1,1,$1+$1,$6,$7*
1,1,$1+$1,$8,$9*
0 Add four rect primitives between the rounded corners*
20,1,$1+$1,$2,$3,$4,$5,0*
20,1,$1+$1,$4,$5,$6,$7,0*
20,1,$1+$1,$6,$7,$8,$9,0*
20,1,$1+$1,$8,$9,$2,$3,0*%
%AMFreePoly0*
4,1,18,-0.437500,0.050000,-0.433694,0.069134,-0.422855,0.085355,-0.406634,0.096194,-0.387500,0.100000,0.387500,0.100000,0.437500,0.050000,0.437500,-0.050000,0.433694,-0.069134,0.422855,-0.085355,0.406634,-0.096194,0.387500,-0.100000,-0.387500,-0.100000,-0.406634,-0.096194,-0.422855,-0.085355,-0.433694,-0.069134,-0.437500,-0.050000,-0.437500,0.050000,-0.437500,0.050000,$1*%
%AMFreePoly1*
4,1,18,-0.437500,0.050000,-0.433694,0.069134,-0.422855,0.085355,-0.406634,0.096194,-0.387500,0.100000,0.387500,0.100000,0.406634,0.096194,0.422855,0.085355,0.433694,0.069134,0.437500,0.050000,0.437500,-0.050000,0.387500,-0.100000,-0.387500,-0.100000,-0.406634,-0.096194,-0.422855,-0.085355,-0.433694,-0.069134,-0.437500,-0.050000,-0.437500,0.050000,-0.437500,0.050000,$1*%
%AMFreePoly2*
4,1,18,-0.100000,0.387500,-0.050000,0.437500,0.050000,0.437500,0.069134,0.433694,0.085355,0.422855,0.096194,0.406634,0.100000,0.387500,0.100000,-0.387500,0.096194,-0.406634,0.085355,-0.422855,0.069134,-0.433694,0.050000,-0.437500,-0.050000,-0.437500,-0.069134,-0.433694,-0.085355,-0.422855,-0.096194,-0.406634,-0.100000,-0.387500,-0.100000,0.387500,-0.100000,0.387500,$1*%
%AMFreePoly3*
4,1,18,-0.100000,0.387500,-0.096194,0.406634,-0.085355,0.422855,-0.069134,0.433694,-0.050000,0.437500,0.050000,0.437500,0.100000,0.387500,0.100000,-0.387500,0.096194,-0.406634,0.085355,-0.422855,0.069134,-0.433694,0.050000,-0.437500,-0.050000,-0.437500,-0.069134,-0.433694,-0.085355,-0.422855,-0.096194,-0.406634,-0.100000,-0.387500,-0.100000,0.387500,-0.100000,0.387500,$1*%
%AMFreePoly4*
4,1,18,-0.437500,0.050000,-0.433694,0.069134,-0.422855,0.085355,-0.406634,0.096194,-0.387500,0.100000,0.387500,0.100000,0.406634,0.096194,0.422855,0.085355,0.433694,0.069134,0.437500,0.050000,0.437500,-0.050000,0.433694,-0.069134,0.422855,-0.085355,0.406634,-0.096194,0.387500,-0.100000,-0.387500,-0.100000,-0.437500,-0.050000,-0.437500,0.050000,-0.437500,0.050000,$1*%
%AMFreePoly5*
4,1,18,-0.437500,0.050000,-0.387500,0.100000,0.387500,0.100000,0.406634,0.096194,0.422855,0.085355,0.433694,0.069134,0.437500,0.050000,0.437500,-0.050000,0.433694,-0.069134,0.422855,-0.085355,0.406634,-0.096194,0.387500,-0.100000,-0.387500,-0.100000,-0.406634,-0.096194,-0.422855,-0.085355,-0.433694,-0.069134,-0.437500,-0.050000,-0.437500,0.050000,-0.437500,0.050000,$1*%
%AMFreePoly6*
4,1,18,-0.100000,0.387500,-0.096194,0.406634,-0.085355,0.422855,-0.069134,0.433694,-0.050000,0.437500,0.050000,0.437500,0.069134,0.433694,0.085355,0.422855,0.096194,0.406634,0.100000,0.387500,0.100000,-0.387500,0.050000,-0.437500,-0.050000,-0.437500,-0.069134,-0.433694,-0.085355,-0.422855,-0.096194,-0.406634,-0.100000,-0.387500,-0.100000,0.387500,-0.100000,0.387500,$1*%
%AMFreePoly7*
4,1,18,-0.100000,0.387500,-0.096194,0.406634,-0.085355,0.422855,-0.069134,0.433694,-0.050000,0.437500,0.050000,0.437500,0.069134,0.433694,0.085355,0.422855,0.096194,0.406634,0.100000,0.387500,0.100000,-0.387500,0.096194,-0.406634,0.085355,-0.422855,0.069134,-0.433694,0.050000,-0.437500,-0.050000,-0.437500,-0.100000,-0.387500,-0.100000,0.387500,-0.100000,0.387500,$1*%
G04 Aperture macros list end*
%ADD10C,0.067397*%
%ADD11C,0.000000*%
%ADD12C,0.067349*%
%ADD13C,0.067351*%
%ADD14C,0.125000*%
%ADD15C,0.201600*%
%ADD16C,0.062500*%
%ADD17C,0.101600*%
%ADD18C,0.070000*%
%ADD19C,0.120000*%
%ADD20C,0.191421*%
%ADD21RoundRect,0.200000X0.200000X0.275000X-0.200000X0.275000X-0.200000X-0.275000X0.200000X-0.275000X0*%
%ADD22R,0.380000X1.000000*%
%ADD23R,0.700000X1.150000*%
%ADD24C,2.200000*%
%ADD25RoundRect,0.135000X0.185000X-0.135000X0.185000X0.135000X-0.185000X0.135000X-0.185000X-0.135000X0*%
%ADD26RoundRect,0.250000X0.475000X-0.250000X0.475000X0.250000X-0.475000X0.250000X-0.475000X-0.250000X0*%
%ADD27RoundRect,0.135000X-0.185000X0.135000X-0.185000X-0.135000X0.185000X-0.135000X0.185000X0.135000X0*%
%ADD28RoundRect,0.250000X0.450000X0.350000X-0.450000X0.350000X-0.450000X-0.350000X0.450000X-0.350000X0*%
%ADD29R,0.530000X0.470000*%
%ADD30RoundRect,0.140000X0.140000X0.170000X-0.140000X0.170000X-0.140000X-0.170000X0.140000X-0.170000X0*%
%ADD31RoundRect,0.250000X-0.250000X-0.475000X0.250000X-0.475000X0.250000X0.475000X-0.250000X0.475000X0*%
%ADD32RoundRect,0.140000X-0.140000X-0.170000X0.140000X-0.170000X0.140000X0.170000X-0.140000X0.170000X0*%
%ADD33RoundRect,0.140000X-0.170000X0.140000X-0.170000X-0.140000X0.170000X-0.140000X0.170000X0.140000X0*%
%ADD34RoundRect,0.250000X-0.250000X1.000000X-0.250000X-1.000000X0.250000X-1.000000X0.250000X1.000000X0*%
%ADD35RoundRect,0.135000X-0.135000X-0.185000X0.135000X-0.185000X0.135000X0.185000X-0.135000X0.185000X0*%
%ADD36RoundRect,0.150000X-0.150000X0.512500X-0.150000X-0.512500X0.150000X-0.512500X0.150000X0.512500X0*%
%ADD37RoundRect,0.140000X0.170000X-0.140000X0.170000X0.140000X-0.170000X0.140000X-0.170000X-0.140000X0*%
%ADD38RoundRect,0.125000X0.125000X-0.250000X0.125000X0.250000X-0.125000X0.250000X-0.125000X-0.250000X0*%
%ADD39R,4.300000X3.400000*%
%ADD40RoundRect,0.135000X0.135000X0.185000X-0.135000X0.185000X-0.135000X-0.185000X0.135000X-0.185000X0*%
%ADD41FreePoly0,90.000000*%
%ADD42RoundRect,0.050000X0.050000X-0.387500X0.050000X0.387500X-0.050000X0.387500X-0.050000X-0.387500X0*%
%ADD43FreePoly1,90.000000*%
%ADD44FreePoly2,90.000000*%
%ADD45RoundRect,0.050000X0.387500X-0.050000X0.387500X0.050000X-0.387500X0.050000X-0.387500X-0.050000X0*%
%ADD46FreePoly3,90.000000*%
%ADD47FreePoly4,90.000000*%
%ADD48FreePoly5,90.000000*%
%ADD49FreePoly6,90.000000*%
%ADD50FreePoly7,90.000000*%
%ADD51RoundRect,0.153000X1.547000X1.547000X-1.547000X1.547000X-1.547000X-1.547000X1.547000X-1.547000X0*%
%ADD52R,1.700000X0.700000*%
G04 APERTURE END LIST*
D10*
X105193814Y-59205883D02*
X105337633Y-58685326D01*
X105571711Y-58685326D01*
X105335649Y-59442111D01*
X105050987Y-59442111D01*
X104814925Y-58685326D01*
X105049003Y-58685326D01*
X105193814Y-59205883D01*
D11*
G36*
X105525873Y-59852699D02*
G01*
X105526685Y-59852761D01*
X105527485Y-59852863D01*
X105528272Y-59853003D01*
X105529045Y-59853182D01*
X105529804Y-59853397D01*
X105530547Y-59853649D01*
X105531273Y-59853935D01*
X105531981Y-59854255D01*
X105532670Y-59854608D01*
X105533340Y-59854993D01*
X105533989Y-59855409D01*
X105534615Y-59855855D01*
X105535219Y-59856329D01*
X105535800Y-59856832D01*
X105536355Y-59857361D01*
X105536884Y-59857916D01*
X105537387Y-59858496D01*
X105537861Y-59859100D01*
X105538307Y-59859727D01*
X105538723Y-59860376D01*
X105539108Y-59861045D01*
X105539461Y-59861735D01*
X105539781Y-59862443D01*
X105540067Y-59863169D01*
X105540319Y-59863912D01*
X105540534Y-59864670D01*
X105540713Y-59865444D01*
X105540853Y-59866231D01*
X105540955Y-59867031D01*
X105541017Y-59867843D01*
X105541038Y-59868666D01*
X105541038Y-60139878D01*
X105541017Y-60140700D01*
X105540955Y-60141512D01*
X105540853Y-60142312D01*
X105540713Y-60143100D01*
X105540534Y-60143873D01*
X105540319Y-60144632D01*
X105540067Y-60145375D01*
X105539781Y-60146101D01*
X105539461Y-60146809D01*
X105539108Y-60147498D01*
X105538723Y-60148168D01*
X105538307Y-60148816D01*
X105537861Y-60149443D01*
X105537387Y-60150047D01*
X105536884Y-60150627D01*
X105536355Y-60151182D01*
X105535800Y-60151712D01*
X105535219Y-60152214D01*
X105534615Y-60152689D01*
X105533989Y-60153135D01*
X105533340Y-60153550D01*
X105532670Y-60153935D01*
X105531981Y-60154288D01*
X105531273Y-60154609D01*
X105530547Y-60154895D01*
X105529804Y-60155146D01*
X105529045Y-60155362D01*
X105528272Y-60155540D01*
X105527485Y-60155681D01*
X105526685Y-60155782D01*
X105525873Y-60155844D01*
X105525050Y-60155865D01*
X105410315Y-60155865D01*
X105409492Y-60155844D01*
X105408680Y-60155782D01*
X105407880Y-60155681D01*
X105407093Y-60155540D01*
X105406319Y-60155362D01*
X105405561Y-60155146D01*
X105404818Y-60154895D01*
X105404092Y-60154609D01*
X105403384Y-60154288D01*
X105402694Y-60153935D01*
X105402025Y-60153550D01*
X105401376Y-60153135D01*
X105400749Y-60152689D01*
X105400146Y-60152214D01*
X105399565Y-60151712D01*
X105399010Y-60151182D01*
X105398481Y-60150627D01*
X105397978Y-60150047D01*
X105397504Y-60149443D01*
X105397058Y-60148816D01*
X105396642Y-60148168D01*
X105396257Y-60147498D01*
X105395904Y-60146809D01*
X105395584Y-60146101D01*
X105395298Y-60145375D01*
X105395046Y-60144632D01*
X105394831Y-60143873D01*
X105394653Y-60143100D01*
X105394512Y-60142312D01*
X105394410Y-60141512D01*
X105394349Y-60140700D01*
X105394328Y-60139878D01*
X105394328Y-59868666D01*
X105394349Y-59867843D01*
X105394410Y-59867031D01*
X105394512Y-59866231D01*
X105394653Y-59865444D01*
X105394831Y-59864670D01*
X105395046Y-59863912D01*
X105395298Y-59863169D01*
X105395584Y-59862443D01*
X105395904Y-59861735D01*
X105396257Y-59861045D01*
X105396642Y-59860376D01*
X105397058Y-59859727D01*
X105397504Y-59859100D01*
X105397978Y-59858496D01*
X105398481Y-59857916D01*
X105399010Y-59857361D01*
X105399565Y-59856832D01*
X105400146Y-59856329D01*
X105400749Y-59855855D01*
X105401376Y-59855409D01*
X105402025Y-59854993D01*
X105402694Y-59854608D01*
X105403384Y-59854255D01*
X105404092Y-59853935D01*
X105404818Y-59853649D01*
X105405561Y-59853397D01*
X105406319Y-59853182D01*
X105407093Y-59853003D01*
X105407880Y-59852863D01*
X105408680Y-59852761D01*
X105409492Y-59852699D01*
X105410315Y-59852679D01*
X105525050Y-59852679D01*
X105525873Y-59852699D01*
G37*
G36*
X101524861Y-59661830D02*
G01*
X101289912Y-59662285D01*
X101289912Y-58468562D01*
X101524861Y-58468108D01*
X101524861Y-59661830D01*
G37*
D12*
X105794085Y-58201496D02*
X105808103Y-58202562D01*
X105821917Y-58204317D01*
X105835510Y-58206744D01*
X105848864Y-58209826D01*
X105861963Y-58213546D01*
X105874788Y-58217886D01*
X105887323Y-58222828D01*
X105899550Y-58228356D01*
X105911451Y-58234451D01*
X105923011Y-58241098D01*
X105934210Y-58248277D01*
X105945032Y-58255973D01*
X105955459Y-58264167D01*
X105965475Y-58272843D01*
X105975061Y-58281983D01*
X105984201Y-58291569D01*
X105992876Y-58301584D01*
X106001071Y-58312012D01*
X106008766Y-58322834D01*
X106015946Y-58334033D01*
X106022592Y-58345592D01*
X106028688Y-58357494D01*
X106034216Y-58369721D01*
X106039158Y-58382255D01*
X106043498Y-58395081D01*
X106047217Y-58408179D01*
X106050299Y-58421534D01*
X106052727Y-58435126D01*
X106054482Y-58448940D01*
X106055548Y-58462958D01*
X106055907Y-58477163D01*
X106055907Y-59650273D01*
X106055548Y-59664477D01*
X106054482Y-59678495D01*
X106052727Y-59692309D01*
X106050299Y-59705902D01*
X106047217Y-59719256D01*
X106043498Y-59732355D01*
X106039158Y-59745180D01*
X106034216Y-59757715D01*
X106028688Y-59769942D01*
X106022592Y-59781843D01*
X106015946Y-59793402D01*
X106008766Y-59804602D01*
X106001071Y-59815424D01*
X105992876Y-59825851D01*
X105984201Y-59835867D01*
X105975061Y-59845453D01*
X105965475Y-59854592D01*
X105955459Y-59863268D01*
X105945032Y-59871462D01*
X105934210Y-59879158D01*
X105923011Y-59886338D01*
X105911451Y-59892984D01*
X105899550Y-59899080D01*
X105887323Y-59904607D01*
X105874788Y-59909550D01*
X105861963Y-59913889D01*
X105848864Y-59917609D01*
X105835510Y-59920691D01*
X105821917Y-59923119D01*
X105808103Y-59924874D01*
X105794085Y-59925940D01*
X105779881Y-59926299D01*
X104606754Y-59926299D01*
X104592550Y-59925940D01*
X104578532Y-59924874D01*
X104564718Y-59923119D01*
X104551126Y-59920691D01*
X104537771Y-59917609D01*
X104524673Y-59913889D01*
X104511847Y-59909550D01*
X104499313Y-59904607D01*
X104487086Y-59899080D01*
X104475184Y-59892984D01*
X104463625Y-59886338D01*
X104452426Y-59879158D01*
X104441604Y-59871462D01*
X104431176Y-59863268D01*
X104421161Y-59854592D01*
X104411574Y-59845453D01*
X104402435Y-59835867D01*
X104393759Y-59825851D01*
X104385565Y-59815424D01*
X104377869Y-59804602D01*
X104370689Y-59793402D01*
X104364043Y-59781843D01*
X104357947Y-59769942D01*
X104352420Y-59757715D01*
X104347477Y-59745180D01*
X104343138Y-59732355D01*
X104339418Y-59719256D01*
X104336336Y-59705902D01*
X104333909Y-59692309D01*
X104332153Y-59678495D01*
X104331087Y-59664477D01*
X104330728Y-59650273D01*
X104330728Y-58477163D01*
X104331087Y-58462958D01*
X104332153Y-58448940D01*
X104333909Y-58435126D01*
X104336336Y-58421534D01*
X104339418Y-58408179D01*
X104343138Y-58395081D01*
X104347477Y-58382255D01*
X104352420Y-58369721D01*
X104357947Y-58357494D01*
X104364043Y-58345592D01*
X104370689Y-58334033D01*
X104377869Y-58322834D01*
X104385565Y-58312012D01*
X104393759Y-58301584D01*
X104402435Y-58291569D01*
X104411574Y-58281983D01*
X104421161Y-58272843D01*
X104431176Y-58264167D01*
X104441604Y-58255973D01*
X104452426Y-58248277D01*
X104463625Y-58241098D01*
X104475184Y-58234451D01*
X104487086Y-58228356D01*
X104499313Y-58222828D01*
X104511847Y-58217886D01*
X104524673Y-58213546D01*
X104537771Y-58209826D01*
X104551126Y-58206744D01*
X104564718Y-58204317D01*
X104578532Y-58202562D01*
X104592550Y-58201496D01*
X104606754Y-58201136D01*
X105779881Y-58201136D01*
X105794085Y-58201496D01*
D11*
G36*
X104387780Y-58983776D02*
G01*
X104388592Y-58983838D01*
X104389392Y-58983940D01*
X104390179Y-58984080D01*
X104390952Y-58984259D01*
X104391711Y-58984474D01*
X104392454Y-58984726D01*
X104393180Y-58985012D01*
X104393888Y-58985332D01*
X104394577Y-58985685D01*
X104395247Y-58986070D01*
X104395895Y-58986486D01*
X104396522Y-58986932D01*
X104397126Y-58987406D01*
X104397706Y-58987909D01*
X104398261Y-58988438D01*
X104398791Y-58988993D01*
X104399293Y-58989573D01*
X104399768Y-58990177D01*
X104400213Y-58990804D01*
X104400629Y-58991453D01*
X104401014Y-58992122D01*
X104401367Y-58992812D01*
X104401687Y-58993520D01*
X104401974Y-58994246D01*
X104402225Y-58994988D01*
X104402440Y-58995747D01*
X104402619Y-58996521D01*
X104402760Y-58997308D01*
X104402861Y-58998108D01*
X104402923Y-58998920D01*
X104402944Y-58999742D01*
X104402944Y-59114479D01*
X104402923Y-59115301D01*
X104402861Y-59116113D01*
X104402760Y-59116913D01*
X104402619Y-59117700D01*
X104402440Y-59118474D01*
X104402225Y-59119232D01*
X104401974Y-59119975D01*
X104401687Y-59120701D01*
X104401367Y-59121409D01*
X104401014Y-59122099D01*
X104400629Y-59122768D01*
X104400213Y-59123417D01*
X104399768Y-59124044D01*
X104399293Y-59124648D01*
X104398791Y-59125228D01*
X104398261Y-59125783D01*
X104397706Y-59126312D01*
X104397126Y-59126815D01*
X104396522Y-59127289D01*
X104395895Y-59127735D01*
X104395247Y-59128151D01*
X104394577Y-59128536D01*
X104393888Y-59128889D01*
X104393180Y-59129209D01*
X104392454Y-59129495D01*
X104391711Y-59129747D01*
X104390952Y-59129962D01*
X104390179Y-59130141D01*
X104389392Y-59130281D01*
X104388592Y-59130383D01*
X104387780Y-59130445D01*
X104386957Y-59130465D01*
X104115730Y-59130465D01*
X104114908Y-59130445D01*
X104114096Y-59130383D01*
X104113296Y-59130281D01*
X104112508Y-59130141D01*
X104111735Y-59129962D01*
X104110976Y-59129747D01*
X104110233Y-59129495D01*
X104109507Y-59129209D01*
X104108799Y-59128889D01*
X104108110Y-59128536D01*
X104107440Y-59128151D01*
X104106792Y-59127735D01*
X104106165Y-59127289D01*
X104105561Y-59126815D01*
X104104981Y-59126312D01*
X104104426Y-59125783D01*
X104103896Y-59125228D01*
X104103394Y-59124648D01*
X104102919Y-59124044D01*
X104102474Y-59123417D01*
X104102058Y-59122768D01*
X104101673Y-59122099D01*
X104101320Y-59121409D01*
X104101000Y-59120701D01*
X104100713Y-59119975D01*
X104100462Y-59119232D01*
X104100247Y-59118474D01*
X104100068Y-59117700D01*
X104099928Y-59116913D01*
X104099826Y-59116113D01*
X104099764Y-59115301D01*
X104099743Y-59114479D01*
X104099743Y-58999742D01*
X104099764Y-58998920D01*
X104099826Y-58998108D01*
X104099928Y-58997308D01*
X104100068Y-58996521D01*
X104100247Y-58995747D01*
X104100462Y-58994988D01*
X104100713Y-58994246D01*
X104101000Y-58993520D01*
X104101320Y-58992812D01*
X104101673Y-58992122D01*
X104102058Y-58991453D01*
X104102474Y-58990804D01*
X104102919Y-58990177D01*
X104103394Y-58989573D01*
X104103896Y-58988993D01*
X104104426Y-58988438D01*
X104104981Y-58987909D01*
X104105561Y-58987406D01*
X104106165Y-58986932D01*
X104106792Y-58986486D01*
X104107440Y-58986070D01*
X104108110Y-58985685D01*
X104108799Y-58985332D01*
X104109507Y-58985012D01*
X104110233Y-58984726D01*
X104110976Y-58984474D01*
X104111735Y-58984259D01*
X104112508Y-58984080D01*
X104113296Y-58983940D01*
X104114096Y-58983838D01*
X104114908Y-58983776D01*
X104115730Y-58983756D01*
X104386957Y-58983756D01*
X104387780Y-58983776D01*
G37*
G36*
X101076625Y-59662698D02*
G01*
X100843343Y-59663149D01*
X100843343Y-58839717D01*
X100545074Y-59663727D01*
X100341785Y-59664120D01*
X100043516Y-58844648D01*
X100043516Y-59664698D01*
X99808567Y-59665153D01*
X99808567Y-58484957D01*
X100093505Y-58484405D01*
X100446761Y-59371404D01*
X100793353Y-58483049D01*
X101076625Y-58482501D01*
X101076625Y-59662698D01*
G37*
G36*
X104390905Y-59264748D02*
G01*
X104391717Y-59264810D01*
X104392517Y-59264911D01*
X104393304Y-59265052D01*
X104394078Y-59265230D01*
X104394836Y-59265446D01*
X104395579Y-59265697D01*
X104396305Y-59265984D01*
X104397013Y-59266304D01*
X104397703Y-59266657D01*
X104398372Y-59267042D01*
X104399021Y-59267458D01*
X104399647Y-59267903D01*
X104400251Y-59268378D01*
X104400831Y-59268880D01*
X104401387Y-59269410D01*
X104401916Y-59269965D01*
X104402419Y-59270545D01*
X104402893Y-59271149D01*
X104403339Y-59271776D01*
X104403755Y-59272424D01*
X104404140Y-59273094D01*
X104404493Y-59273783D01*
X104404813Y-59274491D01*
X104405099Y-59275217D01*
X104405350Y-59275960D01*
X104405566Y-59276719D01*
X104405744Y-59277492D01*
X104405885Y-59278279D01*
X104405987Y-59279079D01*
X104406048Y-59279891D01*
X104406069Y-59280714D01*
X104406069Y-59395450D01*
X104406048Y-59396273D01*
X104405987Y-59397085D01*
X104405885Y-59397885D01*
X104405744Y-59398672D01*
X104405566Y-59399445D01*
X104405350Y-59400204D01*
X104405099Y-59400947D01*
X104404813Y-59401673D01*
X104404493Y-59402381D01*
X104404140Y-59403070D01*
X104403755Y-59403740D01*
X104403339Y-59404388D01*
X104402893Y-59405015D01*
X104402419Y-59405619D01*
X104401916Y-59406199D01*
X104401387Y-59406755D01*
X104400831Y-59407284D01*
X104400251Y-59407786D01*
X104399647Y-59408261D01*
X104399021Y-59408707D01*
X104398372Y-59409122D01*
X104397703Y-59409507D01*
X104397013Y-59409860D01*
X104396305Y-59410181D01*
X104395579Y-59410467D01*
X104394836Y-59410718D01*
X104394078Y-59410934D01*
X104393304Y-59411112D01*
X104392517Y-59411253D01*
X104391717Y-59411354D01*
X104390905Y-59411416D01*
X104390082Y-59411437D01*
X104118856Y-59411437D01*
X104118033Y-59411416D01*
X104117221Y-59411354D01*
X104116421Y-59411253D01*
X104115634Y-59411112D01*
X104114860Y-59410934D01*
X104114102Y-59410718D01*
X104113359Y-59410467D01*
X104112633Y-59410181D01*
X104111925Y-59409860D01*
X104111235Y-59409507D01*
X104110566Y-59409122D01*
X104109917Y-59408707D01*
X104109290Y-59408261D01*
X104108686Y-59407786D01*
X104108106Y-59407284D01*
X104107551Y-59406755D01*
X104107022Y-59406199D01*
X104106519Y-59405619D01*
X104106045Y-59405015D01*
X104105599Y-59404388D01*
X104105183Y-59403740D01*
X104104798Y-59403070D01*
X104104445Y-59402381D01*
X104104125Y-59401673D01*
X104103839Y-59400947D01*
X104103588Y-59400204D01*
X104103372Y-59399445D01*
X104103194Y-59398672D01*
X104103053Y-59397885D01*
X104102951Y-59397085D01*
X104102890Y-59396273D01*
X104102869Y-59395450D01*
X104102869Y-59280714D01*
X104102890Y-59279891D01*
X104102951Y-59279079D01*
X104103053Y-59278279D01*
X104103194Y-59277492D01*
X104103372Y-59276719D01*
X104103588Y-59275960D01*
X104103839Y-59275217D01*
X104104125Y-59274491D01*
X104104445Y-59273783D01*
X104104798Y-59273094D01*
X104105183Y-59272424D01*
X104105599Y-59271776D01*
X104106045Y-59271149D01*
X104106519Y-59270545D01*
X104107022Y-59269965D01*
X104107551Y-59269410D01*
X104108106Y-59268880D01*
X104108686Y-59268378D01*
X104109290Y-59267903D01*
X104109917Y-59267458D01*
X104110566Y-59267042D01*
X104111235Y-59266657D01*
X104111925Y-59266304D01*
X104112633Y-59265984D01*
X104113359Y-59265697D01*
X104114102Y-59265446D01*
X104114860Y-59265230D01*
X104115634Y-59265052D01*
X104116421Y-59264911D01*
X104117221Y-59264810D01*
X104118033Y-59264748D01*
X104118856Y-59264727D01*
X104390082Y-59264727D01*
X104390905Y-59264748D01*
G37*
G36*
X98336920Y-58457728D02*
G01*
X98359350Y-58458754D01*
X98381181Y-58460496D01*
X98402413Y-58462951D01*
X98423047Y-58466121D01*
X98443082Y-58470006D01*
X98462518Y-58474605D01*
X98481355Y-58479919D01*
X98499593Y-58485947D01*
X98517232Y-58492689D01*
X98534273Y-58500146D01*
X98550715Y-58508317D01*
X98566558Y-58517203D01*
X98581802Y-58526804D01*
X98596447Y-58537119D01*
X98610493Y-58548148D01*
X98624071Y-58559772D01*
X98636894Y-58571874D01*
X98648961Y-58584452D01*
X98660274Y-58597507D01*
X98670832Y-58611040D01*
X98680634Y-58625049D01*
X98689682Y-58639536D01*
X98697974Y-58654500D01*
X98705512Y-58669940D01*
X98712294Y-58685858D01*
X98718321Y-58702252D01*
X98723594Y-58719124D01*
X98728111Y-58736472D01*
X98731873Y-58754298D01*
X98734880Y-58772601D01*
X98737132Y-58791380D01*
X98483854Y-58791870D01*
X98482474Y-58783934D01*
X98480834Y-58776183D01*
X98478933Y-58768618D01*
X98476772Y-58761238D01*
X98474351Y-58754043D01*
X98471669Y-58747034D01*
X98468727Y-58740210D01*
X98465525Y-58733572D01*
X98462062Y-58727119D01*
X98458339Y-58720852D01*
X98454355Y-58714770D01*
X98450111Y-58708874D01*
X98445607Y-58703163D01*
X98440843Y-58697637D01*
X98435818Y-58692297D01*
X98430532Y-58687142D01*
X98424993Y-58682034D01*
X98419207Y-58677257D01*
X98413173Y-58672810D01*
X98406892Y-58668694D01*
X98400363Y-58664909D01*
X98393587Y-58661455D01*
X98386564Y-58658331D01*
X98379293Y-58655538D01*
X98371775Y-58653076D01*
X98364010Y-58650944D01*
X98355998Y-58649143D01*
X98347738Y-58647673D01*
X98339230Y-58646534D01*
X98330476Y-58645725D01*
X98321474Y-58645247D01*
X98312224Y-58645100D01*
X98304199Y-58645254D01*
X98296368Y-58645686D01*
X98288733Y-58646394D01*
X98281294Y-58647379D01*
X98274049Y-58648642D01*
X98267000Y-58650181D01*
X98260146Y-58651997D01*
X98253487Y-58654091D01*
X98247024Y-58656461D01*
X98240755Y-58659109D01*
X98234683Y-58662033D01*
X98228805Y-58665235D01*
X98223123Y-58668713D01*
X98217635Y-58672469D01*
X98212344Y-58676501D01*
X98207247Y-58680811D01*
X98202404Y-58685173D01*
X98197874Y-58689785D01*
X98193656Y-58694648D01*
X98189751Y-58699761D01*
X98186158Y-58705124D01*
X98182877Y-58710738D01*
X98179909Y-58716602D01*
X98177254Y-58722716D01*
X98174910Y-58729081D01*
X98172880Y-58735697D01*
X98171161Y-58742562D01*
X98169755Y-58749678D01*
X98168662Y-58757045D01*
X98167881Y-58764662D01*
X98167412Y-58772529D01*
X98167256Y-58780647D01*
X98167373Y-58787133D01*
X98167724Y-58793486D01*
X98168310Y-58799707D01*
X98169130Y-58805795D01*
X98170185Y-58811750D01*
X98171474Y-58817573D01*
X98172997Y-58823264D01*
X98174754Y-58828821D01*
X98176746Y-58834247D01*
X98178972Y-58839539D01*
X98181432Y-58844699D01*
X98184127Y-58849727D01*
X98187056Y-58854622D01*
X98190220Y-58859384D01*
X98193617Y-58864014D01*
X98197249Y-58868511D01*
X98201265Y-58872684D01*
X98205399Y-58876764D01*
X98209649Y-58880752D01*
X98214017Y-58884647D01*
X98218501Y-58888449D01*
X98223103Y-58892159D01*
X98227822Y-58895776D01*
X98232658Y-58899300D01*
X98237612Y-58902732D01*
X98242682Y-58906070D01*
X98247870Y-58909317D01*
X98253175Y-58912470D01*
X98258597Y-58915531D01*
X98264136Y-58918499D01*
X98269792Y-58921374D01*
X98275565Y-58924157D01*
X98288167Y-58929707D01*
X98301810Y-58935414D01*
X98316494Y-58941277D01*
X98332220Y-58947297D01*
X98348987Y-58953473D01*
X98366796Y-58959805D01*
X98385646Y-58966294D01*
X98405537Y-58972940D01*
X98433188Y-58982952D01*
X98459484Y-58992808D01*
X98484427Y-59002509D01*
X98508015Y-59012053D01*
X98530250Y-59021442D01*
X98551131Y-59030674D01*
X98570658Y-59039751D01*
X98588831Y-59048672D01*
X98597702Y-59053232D01*
X98606405Y-59058070D01*
X98614938Y-59063185D01*
X98623302Y-59068578D01*
X98631497Y-59074249D01*
X98639523Y-59080198D01*
X98647379Y-59086424D01*
X98655066Y-59092928D01*
X98662584Y-59099710D01*
X98669933Y-59106770D01*
X98677112Y-59114107D01*
X98684122Y-59121722D01*
X98690963Y-59129615D01*
X98697635Y-59137785D01*
X98704138Y-59146233D01*
X98710471Y-59154959D01*
X98716524Y-59163996D01*
X98722187Y-59173376D01*
X98727460Y-59183102D01*
X98732341Y-59193171D01*
X98736832Y-59203585D01*
X98740933Y-59214342D01*
X98744643Y-59225445D01*
X98747963Y-59236891D01*
X98750892Y-59248681D01*
X98753430Y-59260816D01*
X98755578Y-59273295D01*
X98757336Y-59286119D01*
X98758702Y-59299286D01*
X98759679Y-59312798D01*
X98760265Y-59326654D01*
X98760460Y-59340854D01*
X98760285Y-59352212D01*
X98759757Y-59363467D01*
X98758879Y-59374618D01*
X98757649Y-59385663D01*
X98756067Y-59396604D01*
X98754134Y-59407439D01*
X98751849Y-59418170D01*
X98749213Y-59428796D01*
X98746226Y-59439316D01*
X98742886Y-59449732D01*
X98739196Y-59460042D01*
X98735154Y-59470248D01*
X98730760Y-59480349D01*
X98726015Y-59490344D01*
X98720919Y-59500235D01*
X98715471Y-59510020D01*
X98709678Y-59519430D01*
X98703546Y-59528616D01*
X98697076Y-59537578D01*
X98690268Y-59546316D01*
X98683121Y-59554830D01*
X98675636Y-59563121D01*
X98667812Y-59571187D01*
X98659649Y-59579029D01*
X98651149Y-59586648D01*
X98642310Y-59594043D01*
X98633132Y-59601214D01*
X98623616Y-59608161D01*
X98613761Y-59614884D01*
X98603568Y-59621383D01*
X98593036Y-59627658D01*
X98582166Y-59633710D01*
X98570977Y-59639260D01*
X98559489Y-59644454D01*
X98547701Y-59649291D01*
X98535614Y-59653773D01*
X98523227Y-59657898D01*
X98510541Y-59661668D01*
X98497556Y-59665081D01*
X98484271Y-59668139D01*
X98470687Y-59670840D01*
X98456803Y-59673185D01*
X98442620Y-59675174D01*
X98428137Y-59676807D01*
X98413355Y-59678084D01*
X98398274Y-59679005D01*
X98382893Y-59679569D01*
X98367213Y-59679778D01*
X98351696Y-59679643D01*
X98336387Y-59679177D01*
X98321286Y-59678381D01*
X98306393Y-59677254D01*
X98291709Y-59675796D01*
X98277233Y-59674008D01*
X98262965Y-59671889D01*
X98248905Y-59669439D01*
X98235054Y-59666659D01*
X98221411Y-59663548D01*
X98207977Y-59660107D01*
X98194751Y-59656335D01*
X98181732Y-59652232D01*
X98168923Y-59647798D01*
X98156321Y-59643034D01*
X98143928Y-59637940D01*
X98131789Y-59632323D01*
X98119949Y-59626415D01*
X98108409Y-59620216D01*
X98097168Y-59613725D01*
X98086226Y-59606944D01*
X98075584Y-59599871D01*
X98065241Y-59592507D01*
X98055198Y-59584851D01*
X98045454Y-59576905D01*
X98036009Y-59568667D01*
X98026864Y-59560138D01*
X98018018Y-59551318D01*
X98009472Y-59542207D01*
X98001225Y-59532804D01*
X97993277Y-59523111D01*
X97985629Y-59513126D01*
X97978534Y-59502889D01*
X97971830Y-59492440D01*
X97965516Y-59481779D01*
X97959593Y-59470905D01*
X97954061Y-59459820D01*
X97948918Y-59448522D01*
X97944167Y-59437013D01*
X97939806Y-59425291D01*
X97935835Y-59413357D01*
X97932255Y-59401212D01*
X97929066Y-59388854D01*
X97926267Y-59376284D01*
X97923859Y-59363502D01*
X97921841Y-59350508D01*
X97920214Y-59337301D01*
X97918977Y-59323883D01*
X98168923Y-59323399D01*
X98170121Y-59332393D01*
X98171631Y-59341200D01*
X98173453Y-59349823D01*
X98175588Y-59358260D01*
X98178035Y-59366511D01*
X98180795Y-59374577D01*
X98183867Y-59382457D01*
X98187252Y-59390151D01*
X98190949Y-59397660D01*
X98194959Y-59404984D01*
X98199281Y-59412122D01*
X98203915Y-59419074D01*
X98208862Y-59425841D01*
X98214121Y-59432422D01*
X98219693Y-59438818D01*
X98225577Y-59445028D01*
X98231949Y-59450749D01*
X98238569Y-59456099D01*
X98245436Y-59461079D01*
X98252550Y-59465689D01*
X98259912Y-59469928D01*
X98267521Y-59473797D01*
X98275377Y-59477295D01*
X98283481Y-59480423D01*
X98291832Y-59483181D01*
X98300431Y-59485569D01*
X98309276Y-59487586D01*
X98318369Y-59489232D01*
X98327710Y-59490509D01*
X98337298Y-59491415D01*
X98347133Y-59491950D01*
X98357215Y-59492116D01*
X98366243Y-59491947D01*
X98374998Y-59491474D01*
X98383479Y-59490698D01*
X98391687Y-59489619D01*
X98399622Y-59488237D01*
X98407283Y-59486551D01*
X98414670Y-59484562D01*
X98421785Y-59482270D01*
X98428626Y-59479674D01*
X98435193Y-59476775D01*
X98441488Y-59473573D01*
X98447508Y-59470067D01*
X98453256Y-59466258D01*
X98458730Y-59462146D01*
X98463931Y-59457730D01*
X98468858Y-59453011D01*
X98473701Y-59447844D01*
X98478231Y-59442505D01*
X98482449Y-59436995D01*
X98486354Y-59431314D01*
X98489947Y-59425462D01*
X98493227Y-59419439D01*
X98496196Y-59413244D01*
X98498851Y-59406879D01*
X98501194Y-59400343D01*
X98503225Y-59393635D01*
X98504944Y-59386756D01*
X98506350Y-59379706D01*
X98507443Y-59372485D01*
X98508224Y-59365093D01*
X98508693Y-59357529D01*
X98508849Y-59349795D01*
X98508725Y-59342900D01*
X98508354Y-59336164D01*
X98507736Y-59329587D01*
X98506870Y-59323168D01*
X98505757Y-59316909D01*
X98504397Y-59310809D01*
X98502789Y-59304868D01*
X98500934Y-59299086D01*
X98498832Y-59293462D01*
X98496482Y-59287998D01*
X98493885Y-59282693D01*
X98491040Y-59277546D01*
X98487949Y-59272559D01*
X98484609Y-59267730D01*
X98481023Y-59263061D01*
X98477189Y-59258550D01*
X98473167Y-59253967D01*
X98469014Y-59249504D01*
X98464731Y-59245160D01*
X98460318Y-59240935D01*
X98455774Y-59236829D01*
X98451101Y-59232842D01*
X98446297Y-59228974D01*
X98441364Y-59225225D01*
X98436299Y-59221596D01*
X98431105Y-59218086D01*
X98425781Y-59214695D01*
X98420326Y-59211423D01*
X98414742Y-59208270D01*
X98409027Y-59205237D01*
X98403182Y-59202322D01*
X98397206Y-59199527D01*
X98384553Y-59193951D01*
X98370754Y-59188165D01*
X98355809Y-59182171D01*
X98339719Y-59175967D01*
X98322483Y-59169554D01*
X98304102Y-59162931D01*
X98284575Y-59156100D01*
X98263902Y-59149060D01*
X98237033Y-59139839D01*
X98211413Y-59130668D01*
X98187044Y-59121548D01*
X98163924Y-59112478D01*
X98142054Y-59103459D01*
X98121433Y-59094490D01*
X98102062Y-59085572D01*
X98083941Y-59076703D01*
X98075271Y-59071945D01*
X98066757Y-59066935D01*
X98058400Y-59061674D01*
X98050198Y-59056161D01*
X98042153Y-59050398D01*
X98034264Y-59044383D01*
X98026532Y-59038117D01*
X98018955Y-59031599D01*
X98011535Y-59024830D01*
X98004271Y-59017810D01*
X97997163Y-59010539D01*
X97990211Y-59003016D01*
X97983416Y-58995242D01*
X97976777Y-58987217D01*
X97970294Y-58978941D01*
X97963967Y-58970413D01*
X97958115Y-58961594D01*
X97952641Y-58952444D01*
X97947545Y-58942963D01*
X97942826Y-58933151D01*
X97938484Y-58923008D01*
X97934520Y-58912534D01*
X97930934Y-58901729D01*
X97927725Y-58890593D01*
X97924894Y-58879126D01*
X97922440Y-58867328D01*
X97920363Y-58855199D01*
X97918664Y-58842739D01*
X97917343Y-58829948D01*
X97916399Y-58816826D01*
X97915833Y-58803373D01*
X97915644Y-58789589D01*
X97916067Y-58770613D01*
X97917337Y-58752150D01*
X97919452Y-58734201D01*
X97922414Y-58716765D01*
X97926221Y-58699843D01*
X97930875Y-58683434D01*
X97936375Y-58667539D01*
X97942722Y-58652157D01*
X97949914Y-58637289D01*
X97957953Y-58622935D01*
X97966838Y-58609094D01*
X97976569Y-58595766D01*
X97987146Y-58582952D01*
X97998569Y-58570652D01*
X98010838Y-58558865D01*
X98023954Y-58547592D01*
X98037974Y-58536713D01*
X98052542Y-58526533D01*
X98067655Y-58517052D01*
X98083316Y-58508270D01*
X98099524Y-58500188D01*
X98116278Y-58492804D01*
X98133579Y-58486120D01*
X98151426Y-58480134D01*
X98169821Y-58474847D01*
X98188762Y-58470260D01*
X98208250Y-58466372D01*
X98228284Y-58463182D01*
X98248866Y-58460692D01*
X98269994Y-58458901D01*
X98291669Y-58457809D01*
X98313891Y-58457416D01*
X98336920Y-58457728D01*
G37*
G36*
X99635273Y-58661139D02*
G01*
X99168707Y-58662040D01*
X99168707Y-58971461D01*
X99585283Y-58970656D01*
X99585283Y-59153264D01*
X99168707Y-59154070D01*
X99168707Y-59475327D01*
X99635272Y-59474424D01*
X99635272Y-59665488D01*
X98933758Y-59666846D01*
X98933758Y-58473124D01*
X99635273Y-58471765D01*
X99635273Y-58661139D01*
G37*
G36*
X106271727Y-58983776D02*
G01*
X106272539Y-58983838D01*
X106273339Y-58983939D01*
X106274127Y-58984080D01*
X106274900Y-58984258D01*
X106275659Y-58984474D01*
X106276402Y-58984725D01*
X106277128Y-58985011D01*
X106277836Y-58985331D01*
X106278525Y-58985685D01*
X106279195Y-58986069D01*
X106279843Y-58986485D01*
X106280470Y-58986931D01*
X106281074Y-58987406D01*
X106281654Y-58987908D01*
X106282209Y-58988437D01*
X106282739Y-58988993D01*
X106283241Y-58989573D01*
X106283716Y-58990177D01*
X106284162Y-58990803D01*
X106284577Y-58991452D01*
X106284962Y-58992122D01*
X106285315Y-58992811D01*
X106285636Y-58993519D01*
X106285922Y-58994245D01*
X106286173Y-58994988D01*
X106286389Y-58995747D01*
X106286567Y-58996520D01*
X106286708Y-58997307D01*
X106286809Y-58998107D01*
X106286871Y-58998919D01*
X106286892Y-58999742D01*
X106286892Y-59114478D01*
X106286871Y-59115301D01*
X106286809Y-59116113D01*
X106286708Y-59116913D01*
X106286567Y-59117700D01*
X106286389Y-59118473D01*
X106286173Y-59119232D01*
X106285922Y-59119975D01*
X106285636Y-59120701D01*
X106285315Y-59121409D01*
X106284962Y-59122098D01*
X106284577Y-59122768D01*
X106284162Y-59123416D01*
X106283716Y-59124043D01*
X106283241Y-59124647D01*
X106282739Y-59125227D01*
X106282209Y-59125782D01*
X106281654Y-59126312D01*
X106281074Y-59126814D01*
X106280470Y-59127289D01*
X106279843Y-59127734D01*
X106279195Y-59128150D01*
X106278525Y-59128535D01*
X106277836Y-59128888D01*
X106277128Y-59129208D01*
X106276402Y-59129495D01*
X106275659Y-59129746D01*
X106274900Y-59129961D01*
X106274127Y-59130140D01*
X106273339Y-59130281D01*
X106272539Y-59130382D01*
X106271727Y-59130444D01*
X106270905Y-59130465D01*
X105999692Y-59130465D01*
X105998869Y-59130444D01*
X105998058Y-59130382D01*
X105997258Y-59130281D01*
X105996470Y-59130140D01*
X105995697Y-59129961D01*
X105994938Y-59129746D01*
X105994195Y-59129495D01*
X105993469Y-59129208D01*
X105992761Y-59128888D01*
X105992072Y-59128535D01*
X105991402Y-59128150D01*
X105990754Y-59127734D01*
X105990127Y-59127289D01*
X105989523Y-59126814D01*
X105988943Y-59126312D01*
X105988388Y-59125782D01*
X105987858Y-59125227D01*
X105987356Y-59124647D01*
X105986881Y-59124043D01*
X105986436Y-59123416D01*
X105986020Y-59122768D01*
X105985635Y-59122098D01*
X105985282Y-59121409D01*
X105984962Y-59120701D01*
X105984675Y-59119975D01*
X105984424Y-59119232D01*
X105984209Y-59118473D01*
X105984030Y-59117700D01*
X105983890Y-59116913D01*
X105983788Y-59116113D01*
X105983726Y-59115301D01*
X105983705Y-59114478D01*
X105983705Y-58999742D01*
X105983726Y-58998919D01*
X105983788Y-58998107D01*
X105983890Y-58997307D01*
X105984030Y-58996520D01*
X105984209Y-58995747D01*
X105984424Y-58994988D01*
X105984675Y-58994245D01*
X105984962Y-58993519D01*
X105985282Y-58992811D01*
X105985635Y-58992122D01*
X105986020Y-58991452D01*
X105986436Y-58990803D01*
X105986881Y-58990177D01*
X105987356Y-58989573D01*
X105987858Y-58988993D01*
X105988388Y-58988437D01*
X105988943Y-58987908D01*
X105989523Y-58987406D01*
X105990127Y-58986931D01*
X105990754Y-58986485D01*
X105991402Y-58986069D01*
X105992072Y-58985685D01*
X105992761Y-58985331D01*
X105993469Y-58985011D01*
X105994195Y-58984725D01*
X105994938Y-58984474D01*
X105995697Y-58984258D01*
X105996470Y-58984080D01*
X105997258Y-58983939D01*
X105998058Y-58983838D01*
X105998869Y-58983776D01*
X105999692Y-58983755D01*
X106270905Y-58983755D01*
X106271727Y-58983776D01*
G37*
G36*
X105525867Y-57971592D02*
G01*
X105526679Y-57971654D01*
X105527479Y-57971755D01*
X105528266Y-57971896D01*
X105529040Y-57972074D01*
X105529798Y-57972290D01*
X105530541Y-57972541D01*
X105531267Y-57972827D01*
X105531975Y-57973148D01*
X105532665Y-57973501D01*
X105533334Y-57973885D01*
X105533983Y-57974301D01*
X105534610Y-57974747D01*
X105535213Y-57975222D01*
X105535794Y-57975724D01*
X105536349Y-57976253D01*
X105536878Y-57976809D01*
X105537381Y-57977389D01*
X105537855Y-57977993D01*
X105538301Y-57978619D01*
X105538717Y-57979268D01*
X105539102Y-57979938D01*
X105539455Y-57980627D01*
X105539775Y-57981335D01*
X105540061Y-57982061D01*
X105540313Y-57982804D01*
X105540528Y-57983562D01*
X105540706Y-57984336D01*
X105540847Y-57985123D01*
X105540949Y-57985923D01*
X105541010Y-57986735D01*
X105541031Y-57987558D01*
X105541031Y-58258784D01*
X105541010Y-58259607D01*
X105540949Y-58260419D01*
X105540847Y-58261219D01*
X105540706Y-58262006D01*
X105540528Y-58262780D01*
X105540313Y-58263538D01*
X105540061Y-58264281D01*
X105539775Y-58265007D01*
X105539455Y-58265715D01*
X105539102Y-58266405D01*
X105538717Y-58267074D01*
X105538301Y-58267723D01*
X105537855Y-58268350D01*
X105537381Y-58268954D01*
X105536878Y-58269534D01*
X105536349Y-58270089D01*
X105535794Y-58270618D01*
X105535213Y-58271121D01*
X105534610Y-58271595D01*
X105533983Y-58272041D01*
X105533334Y-58272457D01*
X105532665Y-58272842D01*
X105531975Y-58273195D01*
X105531267Y-58273515D01*
X105530541Y-58273801D01*
X105529798Y-58274053D01*
X105529040Y-58274268D01*
X105528266Y-58274447D01*
X105527479Y-58274587D01*
X105526679Y-58274689D01*
X105525867Y-58274751D01*
X105525044Y-58274771D01*
X105410308Y-58274771D01*
X105409486Y-58274751D01*
X105408674Y-58274689D01*
X105407874Y-58274587D01*
X105407086Y-58274447D01*
X105406313Y-58274268D01*
X105405554Y-58274053D01*
X105404812Y-58273801D01*
X105404086Y-58273515D01*
X105403377Y-58273195D01*
X105402688Y-58272842D01*
X105402019Y-58272457D01*
X105401370Y-58272041D01*
X105400743Y-58271595D01*
X105400139Y-58271121D01*
X105399559Y-58270618D01*
X105399004Y-58270089D01*
X105398475Y-58269534D01*
X105397972Y-58268954D01*
X105397497Y-58268350D01*
X105397052Y-58267723D01*
X105396636Y-58267074D01*
X105396251Y-58266405D01*
X105395898Y-58265715D01*
X105395578Y-58265007D01*
X105395292Y-58264281D01*
X105395040Y-58263538D01*
X105394825Y-58262780D01*
X105394646Y-58262006D01*
X105394506Y-58261219D01*
X105394404Y-58260419D01*
X105394342Y-58259607D01*
X105394321Y-58258784D01*
X105394321Y-57987558D01*
X105394342Y-57986735D01*
X105394404Y-57985923D01*
X105394506Y-57985123D01*
X105394646Y-57984336D01*
X105394825Y-57983562D01*
X105395040Y-57982804D01*
X105395292Y-57982061D01*
X105395578Y-57981335D01*
X105395898Y-57980627D01*
X105396251Y-57979938D01*
X105396636Y-57979268D01*
X105397052Y-57978619D01*
X105397497Y-57977993D01*
X105397972Y-57977389D01*
X105398475Y-57976809D01*
X105399004Y-57976253D01*
X105399559Y-57975724D01*
X105400139Y-57975222D01*
X105400743Y-57974747D01*
X105401370Y-57974301D01*
X105402019Y-57973885D01*
X105402688Y-57973501D01*
X105403377Y-57973148D01*
X105404086Y-57972827D01*
X105404812Y-57972541D01*
X105405554Y-57972290D01*
X105406313Y-57972074D01*
X105407086Y-57971896D01*
X105407874Y-57971755D01*
X105408674Y-57971654D01*
X105409486Y-57971592D01*
X105410308Y-57971571D01*
X105525044Y-57971571D01*
X105525867Y-57971592D01*
G37*
D13*
X102537973Y-58655520D02*
X102213043Y-58656148D01*
X102213043Y-59660497D01*
X101978094Y-59660953D01*
X101978094Y-58656603D01*
X101654831Y-58657229D01*
X101654831Y-58467856D01*
X102537973Y-58466146D01*
X102537973Y-58655520D01*
D11*
G36*
X104977143Y-57973290D02*
G01*
X104977955Y-57973352D01*
X104978755Y-57973454D01*
X104979543Y-57973594D01*
X104980316Y-57973773D01*
X104981075Y-57973988D01*
X104981818Y-57974239D01*
X104982544Y-57974526D01*
X104983252Y-57974846D01*
X104983941Y-57975199D01*
X104984611Y-57975584D01*
X104985259Y-57976000D01*
X104985886Y-57976445D01*
X104986490Y-57976920D01*
X104987070Y-57977422D01*
X104987625Y-57977952D01*
X104988155Y-57978507D01*
X104988657Y-57979087D01*
X104989132Y-57979691D01*
X104989577Y-57980318D01*
X104989993Y-57980966D01*
X104990378Y-57981636D01*
X104990731Y-57982325D01*
X104991051Y-57983033D01*
X104991338Y-57983759D01*
X104991589Y-57984502D01*
X104991804Y-57985261D01*
X104991983Y-57986034D01*
X104992123Y-57986822D01*
X104992225Y-57987622D01*
X104992287Y-57988433D01*
X104992308Y-57989256D01*
X104992308Y-58260483D01*
X104992287Y-58261305D01*
X104992225Y-58262117D01*
X104992123Y-58262917D01*
X104991983Y-58263705D01*
X104991804Y-58264478D01*
X104991589Y-58265237D01*
X104991338Y-58265980D01*
X104991051Y-58266706D01*
X104990731Y-58267414D01*
X104990378Y-58268103D01*
X104989993Y-58268773D01*
X104989577Y-58269421D01*
X104989132Y-58270048D01*
X104988657Y-58270652D01*
X104988155Y-58271232D01*
X104987625Y-58271787D01*
X104987070Y-58272317D01*
X104986490Y-58272819D01*
X104985886Y-58273294D01*
X104985259Y-58273739D01*
X104984611Y-58274155D01*
X104983941Y-58274540D01*
X104983252Y-58274893D01*
X104982544Y-58275213D01*
X104981818Y-58275500D01*
X104981075Y-58275751D01*
X104980316Y-58275966D01*
X104979543Y-58276145D01*
X104978755Y-58276285D01*
X104977955Y-58276387D01*
X104977143Y-58276449D01*
X104976321Y-58276470D01*
X104861585Y-58276470D01*
X104860762Y-58276449D01*
X104859950Y-58276387D01*
X104859150Y-58276285D01*
X104858363Y-58276145D01*
X104857589Y-58275966D01*
X104856831Y-58275751D01*
X104856088Y-58275500D01*
X104855362Y-58275213D01*
X104854654Y-58274893D01*
X104853964Y-58274540D01*
X104853295Y-58274155D01*
X104852646Y-58273739D01*
X104852020Y-58273294D01*
X104851416Y-58272819D01*
X104850836Y-58272317D01*
X104850280Y-58271787D01*
X104849751Y-58271232D01*
X104849248Y-58270652D01*
X104848774Y-58270048D01*
X104848328Y-58269421D01*
X104847912Y-58268773D01*
X104847527Y-58268103D01*
X104847174Y-58267414D01*
X104846854Y-58266706D01*
X104846568Y-58265980D01*
X104846317Y-58265237D01*
X104846101Y-58264478D01*
X104845923Y-58263705D01*
X104845782Y-58262917D01*
X104845680Y-58262117D01*
X104845619Y-58261305D01*
X104845598Y-58260483D01*
X104845598Y-57989256D01*
X104845619Y-57988433D01*
X104845680Y-57987622D01*
X104845782Y-57986822D01*
X104845923Y-57986034D01*
X104846101Y-57985261D01*
X104846317Y-57984502D01*
X104846568Y-57983759D01*
X104846854Y-57983033D01*
X104847174Y-57982325D01*
X104847527Y-57981636D01*
X104847912Y-57980966D01*
X104848328Y-57980318D01*
X104848774Y-57979691D01*
X104849248Y-57979087D01*
X104849751Y-57978507D01*
X104850280Y-57977952D01*
X104850836Y-57977422D01*
X104851416Y-57976920D01*
X104852020Y-57976445D01*
X104852646Y-57976000D01*
X104853295Y-57975584D01*
X104853964Y-57975199D01*
X104854654Y-57974846D01*
X104855362Y-57974526D01*
X104856088Y-57974239D01*
X104856831Y-57973988D01*
X104857589Y-57973773D01*
X104858363Y-57973594D01*
X104859150Y-57973454D01*
X104859950Y-57973352D01*
X104860762Y-57973290D01*
X104861585Y-57973269D01*
X104976321Y-57973269D01*
X104977143Y-57973290D01*
G37*
G36*
X105258106Y-59854127D02*
G01*
X105258918Y-59854189D01*
X105259718Y-59854290D01*
X105260505Y-59854431D01*
X105261279Y-59854609D01*
X105262037Y-59854825D01*
X105262780Y-59855076D01*
X105263506Y-59855362D01*
X105264214Y-59855682D01*
X105264903Y-59856035D01*
X105265573Y-59856420D01*
X105266221Y-59856836D01*
X105266848Y-59857282D01*
X105267452Y-59857756D01*
X105268032Y-59858259D01*
X105268587Y-59858788D01*
X105269116Y-59859343D01*
X105269619Y-59859923D01*
X105270093Y-59860527D01*
X105270539Y-59861154D01*
X105270955Y-59861803D01*
X105271340Y-59862472D01*
X105271693Y-59863161D01*
X105272013Y-59863870D01*
X105272299Y-59864596D01*
X105272551Y-59865338D01*
X105272766Y-59866097D01*
X105272944Y-59866870D01*
X105273085Y-59867658D01*
X105273187Y-59868458D01*
X105273248Y-59869269D01*
X105273269Y-59870092D01*
X105273269Y-60141306D01*
X105273248Y-60142129D01*
X105273187Y-60142941D01*
X105273085Y-60143741D01*
X105272944Y-60144528D01*
X105272766Y-60145301D01*
X105272551Y-60146060D01*
X105272299Y-60146803D01*
X105272013Y-60147529D01*
X105271693Y-60148237D01*
X105271340Y-60148926D01*
X105270955Y-60149596D01*
X105270539Y-60150244D01*
X105270093Y-60150871D01*
X105269619Y-60151475D01*
X105269116Y-60152055D01*
X105268587Y-60152610D01*
X105268032Y-60153139D01*
X105267452Y-60153642D01*
X105266848Y-60154116D01*
X105266221Y-60154562D01*
X105265573Y-60154978D01*
X105264903Y-60155363D01*
X105264214Y-60155716D01*
X105263506Y-60156036D01*
X105262780Y-60156322D01*
X105262037Y-60156574D01*
X105261279Y-60156789D01*
X105260505Y-60156967D01*
X105259718Y-60157108D01*
X105258918Y-60157210D01*
X105258106Y-60157271D01*
X105257284Y-60157292D01*
X105142556Y-60157292D01*
X105141733Y-60157271D01*
X105140922Y-60157210D01*
X105140122Y-60157108D01*
X105139334Y-60156967D01*
X105138561Y-60156789D01*
X105137802Y-60156574D01*
X105137060Y-60156322D01*
X105136334Y-60156036D01*
X105135626Y-60155716D01*
X105134936Y-60155363D01*
X105134267Y-60154978D01*
X105133618Y-60154562D01*
X105132992Y-60154116D01*
X105132388Y-60153642D01*
X105131808Y-60153139D01*
X105131252Y-60152610D01*
X105130723Y-60152055D01*
X105130221Y-60151475D01*
X105129746Y-60150871D01*
X105129300Y-60150244D01*
X105128885Y-60149596D01*
X105128500Y-60148926D01*
X105128147Y-60148237D01*
X105127827Y-60147529D01*
X105127540Y-60146803D01*
X105127289Y-60146060D01*
X105127074Y-60145301D01*
X105126895Y-60144528D01*
X105126755Y-60143741D01*
X105126653Y-60142941D01*
X105126591Y-60142129D01*
X105126570Y-60141306D01*
X105126570Y-59870092D01*
X105126591Y-59869269D01*
X105126653Y-59868458D01*
X105126755Y-59867658D01*
X105126895Y-59866870D01*
X105127074Y-59866097D01*
X105127289Y-59865338D01*
X105127540Y-59864596D01*
X105127827Y-59863870D01*
X105128147Y-59863161D01*
X105128500Y-59862472D01*
X105128885Y-59861803D01*
X105129300Y-59861154D01*
X105129746Y-59860527D01*
X105130221Y-59859923D01*
X105130723Y-59859343D01*
X105131252Y-59858788D01*
X105131808Y-59858259D01*
X105132388Y-59857756D01*
X105132992Y-59857282D01*
X105133618Y-59856836D01*
X105134267Y-59856420D01*
X105134936Y-59856035D01*
X105135626Y-59855682D01*
X105136334Y-59855362D01*
X105137060Y-59855076D01*
X105137802Y-59854825D01*
X105138561Y-59854609D01*
X105139334Y-59854431D01*
X105140122Y-59854290D01*
X105140922Y-59854189D01*
X105141733Y-59854127D01*
X105142556Y-59854106D01*
X105257284Y-59854106D01*
X105258106Y-59854127D01*
G37*
G36*
X106268602Y-59264735D02*
G01*
X106269414Y-59264797D01*
X106270214Y-59264898D01*
X106271001Y-59265039D01*
X106271774Y-59265217D01*
X106272533Y-59265433D01*
X106273276Y-59265684D01*
X106274002Y-59265970D01*
X106274710Y-59266291D01*
X106275399Y-59266644D01*
X106276069Y-59267029D01*
X106276717Y-59267445D01*
X106277344Y-59267890D01*
X106277948Y-59268365D01*
X106278528Y-59268867D01*
X106279083Y-59269397D01*
X106279613Y-59269952D01*
X106280115Y-59270532D01*
X106280590Y-59271136D01*
X106281036Y-59271763D01*
X106281451Y-59272412D01*
X106281836Y-59273081D01*
X106282189Y-59273770D01*
X106282510Y-59274479D01*
X106282796Y-59275205D01*
X106283047Y-59275947D01*
X106283263Y-59276706D01*
X106283441Y-59277480D01*
X106283582Y-59278267D01*
X106283683Y-59279067D01*
X106283745Y-59279879D01*
X106283766Y-59280701D01*
X106283766Y-59395437D01*
X106283745Y-59396260D01*
X106283683Y-59397072D01*
X106283582Y-59397872D01*
X106283441Y-59398659D01*
X106283263Y-59399432D01*
X106283047Y-59400191D01*
X106282796Y-59400934D01*
X106282510Y-59401660D01*
X106282189Y-59402368D01*
X106281836Y-59403057D01*
X106281451Y-59403727D01*
X106281036Y-59404375D01*
X106280590Y-59405002D01*
X106280115Y-59405606D01*
X106279613Y-59406186D01*
X106279083Y-59406741D01*
X106278528Y-59407271D01*
X106277948Y-59407773D01*
X106277344Y-59408248D01*
X106276717Y-59408693D01*
X106276069Y-59409109D01*
X106275399Y-59409494D01*
X106274710Y-59409847D01*
X106274002Y-59410167D01*
X106273276Y-59410454D01*
X106272533Y-59410705D01*
X106271774Y-59410921D01*
X106271001Y-59411099D01*
X106270214Y-59411240D01*
X106269414Y-59411341D01*
X106268602Y-59411403D01*
X106267779Y-59411424D01*
X105996567Y-59411424D01*
X105995744Y-59411403D01*
X105994932Y-59411341D01*
X105994132Y-59411240D01*
X105993345Y-59411099D01*
X105992571Y-59410921D01*
X105991813Y-59410705D01*
X105991070Y-59410454D01*
X105990344Y-59410167D01*
X105989636Y-59409847D01*
X105988947Y-59409494D01*
X105988277Y-59409109D01*
X105987628Y-59408693D01*
X105987002Y-59408248D01*
X105986398Y-59407773D01*
X105985818Y-59407271D01*
X105985262Y-59406741D01*
X105984733Y-59406186D01*
X105984231Y-59405606D01*
X105983756Y-59405002D01*
X105983310Y-59404375D01*
X105982894Y-59403727D01*
X105982509Y-59403057D01*
X105982156Y-59402368D01*
X105981836Y-59401660D01*
X105981550Y-59400934D01*
X105981299Y-59400191D01*
X105981083Y-59399432D01*
X105980905Y-59398659D01*
X105980764Y-59397872D01*
X105980662Y-59397072D01*
X105980601Y-59396260D01*
X105980580Y-59395437D01*
X105980580Y-59280701D01*
X105980601Y-59279879D01*
X105980662Y-59279067D01*
X105980764Y-59278267D01*
X105980905Y-59277480D01*
X105981083Y-59276706D01*
X105981299Y-59275947D01*
X105981550Y-59275205D01*
X105981836Y-59274479D01*
X105982156Y-59273770D01*
X105982509Y-59273081D01*
X105982894Y-59272412D01*
X105983310Y-59271763D01*
X105983756Y-59271136D01*
X105984231Y-59270532D01*
X105984733Y-59269952D01*
X105985262Y-59269397D01*
X105985818Y-59268867D01*
X105986398Y-59268365D01*
X105987002Y-59267890D01*
X105987628Y-59267445D01*
X105988277Y-59267029D01*
X105988947Y-59266644D01*
X105989636Y-59266291D01*
X105990344Y-59265970D01*
X105991070Y-59265684D01*
X105991813Y-59265433D01*
X105992571Y-59265217D01*
X105993345Y-59265039D01*
X105994132Y-59264898D01*
X105994932Y-59264797D01*
X105995744Y-59264735D01*
X105996567Y-59264714D01*
X106267779Y-59264714D01*
X106268602Y-59264735D01*
G37*
G36*
X104389207Y-58716024D02*
G01*
X104390019Y-58716086D01*
X104390819Y-58716188D01*
X104391606Y-58716328D01*
X104392379Y-58716507D01*
X104393138Y-58716722D01*
X104393881Y-58716974D01*
X104394607Y-58717260D01*
X104395315Y-58717580D01*
X104396004Y-58717933D01*
X104396674Y-58718318D01*
X104397322Y-58718734D01*
X104397949Y-58719180D01*
X104398553Y-58719654D01*
X104399133Y-58720157D01*
X104399688Y-58720686D01*
X104400218Y-58721241D01*
X104400720Y-58721821D01*
X104401195Y-58722425D01*
X104401641Y-58723052D01*
X104402056Y-58723701D01*
X104402441Y-58724370D01*
X104402794Y-58725060D01*
X104403115Y-58725768D01*
X104403401Y-58726494D01*
X104403652Y-58727237D01*
X104403868Y-58727995D01*
X104404046Y-58728769D01*
X104404187Y-58729556D01*
X104404288Y-58730356D01*
X104404350Y-58731168D01*
X104404371Y-58731990D01*
X104404371Y-58846727D01*
X104404350Y-58847549D01*
X104404288Y-58848361D01*
X104404187Y-58849161D01*
X104404046Y-58849948D01*
X104403868Y-58850722D01*
X104403652Y-58851481D01*
X104403401Y-58852223D01*
X104403115Y-58852949D01*
X104402794Y-58853657D01*
X104402441Y-58854347D01*
X104402056Y-58855016D01*
X104401641Y-58855665D01*
X104401195Y-58856292D01*
X104400720Y-58856896D01*
X104400218Y-58857476D01*
X104399688Y-58858031D01*
X104399133Y-58858560D01*
X104398553Y-58859063D01*
X104397949Y-58859537D01*
X104397322Y-58859983D01*
X104396674Y-58860399D01*
X104396004Y-58860784D01*
X104395315Y-58861137D01*
X104394607Y-58861457D01*
X104393881Y-58861743D01*
X104393138Y-58861995D01*
X104392379Y-58862210D01*
X104391606Y-58862389D01*
X104390819Y-58862529D01*
X104390019Y-58862631D01*
X104389207Y-58862693D01*
X104388384Y-58862713D01*
X104117157Y-58862713D01*
X104116335Y-58862693D01*
X104115523Y-58862631D01*
X104114723Y-58862529D01*
X104113935Y-58862389D01*
X104113162Y-58862210D01*
X104112403Y-58861995D01*
X104111660Y-58861743D01*
X104110934Y-58861457D01*
X104110226Y-58861137D01*
X104109537Y-58860784D01*
X104108867Y-58860399D01*
X104108219Y-58859983D01*
X104107592Y-58859537D01*
X104106988Y-58859063D01*
X104106408Y-58858560D01*
X104105853Y-58858031D01*
X104105323Y-58857476D01*
X104104821Y-58856896D01*
X104104346Y-58856292D01*
X104103901Y-58855665D01*
X104103485Y-58855016D01*
X104103100Y-58854347D01*
X104102747Y-58853657D01*
X104102427Y-58852949D01*
X104102141Y-58852223D01*
X104101889Y-58851481D01*
X104101674Y-58850722D01*
X104101495Y-58849948D01*
X104101355Y-58849161D01*
X104101253Y-58848361D01*
X104101191Y-58847549D01*
X104101171Y-58846727D01*
X104101171Y-58731990D01*
X104101191Y-58731168D01*
X104101253Y-58730356D01*
X104101355Y-58729556D01*
X104101495Y-58728769D01*
X104101674Y-58727995D01*
X104101889Y-58727237D01*
X104102141Y-58726494D01*
X104102427Y-58725768D01*
X104102747Y-58725060D01*
X104103100Y-58724370D01*
X104103485Y-58723701D01*
X104103901Y-58723052D01*
X104104346Y-58722425D01*
X104104821Y-58721821D01*
X104105323Y-58721241D01*
X104105853Y-58720686D01*
X104106408Y-58720157D01*
X104106988Y-58719654D01*
X104107592Y-58719180D01*
X104108219Y-58718734D01*
X104108867Y-58718318D01*
X104109537Y-58717933D01*
X104110226Y-58717580D01*
X104110934Y-58717260D01*
X104111660Y-58716974D01*
X104112403Y-58716722D01*
X104113162Y-58716507D01*
X104113935Y-58716328D01*
X104114723Y-58716188D01*
X104115523Y-58716086D01*
X104116335Y-58716024D01*
X104117157Y-58716004D01*
X104388384Y-58716004D01*
X104389207Y-58716024D01*
G37*
G36*
X105258115Y-57970165D02*
G01*
X105258927Y-57970227D01*
X105259727Y-57970328D01*
X105260515Y-57970469D01*
X105261288Y-57970647D01*
X105262047Y-57970863D01*
X105262789Y-57971114D01*
X105263515Y-57971400D01*
X105264224Y-57971720D01*
X105264913Y-57972073D01*
X105265582Y-57972458D01*
X105266231Y-57972874D01*
X105266858Y-57973320D01*
X105267462Y-57973795D01*
X105268042Y-57974297D01*
X105268597Y-57974826D01*
X105269126Y-57975382D01*
X105269629Y-57975962D01*
X105270104Y-57976566D01*
X105270549Y-57977192D01*
X105270965Y-57977841D01*
X105271350Y-57978510D01*
X105271703Y-57979200D01*
X105272023Y-57979908D01*
X105272309Y-57980634D01*
X105272561Y-57981377D01*
X105272776Y-57982135D01*
X105272955Y-57982909D01*
X105273095Y-57983696D01*
X105273197Y-57984496D01*
X105273259Y-57985308D01*
X105273280Y-57986131D01*
X105273280Y-58257357D01*
X105273259Y-58258180D01*
X105273197Y-58258992D01*
X105273095Y-58259792D01*
X105272955Y-58260579D01*
X105272776Y-58261353D01*
X105272561Y-58262111D01*
X105272309Y-58262854D01*
X105272023Y-58263580D01*
X105271703Y-58264288D01*
X105271350Y-58264978D01*
X105270965Y-58265647D01*
X105270549Y-58266296D01*
X105270104Y-58266923D01*
X105269629Y-58267527D01*
X105269126Y-58268107D01*
X105268597Y-58268662D01*
X105268042Y-58269191D01*
X105267462Y-58269694D01*
X105266858Y-58270168D01*
X105266231Y-58270614D01*
X105265582Y-58271030D01*
X105264913Y-58271415D01*
X105264224Y-58271768D01*
X105263515Y-58272088D01*
X105262789Y-58272374D01*
X105262047Y-58272626D01*
X105261288Y-58272841D01*
X105260515Y-58273019D01*
X105259727Y-58273160D01*
X105258927Y-58273262D01*
X105258115Y-58273323D01*
X105257293Y-58273344D01*
X105142557Y-58273344D01*
X105141734Y-58273323D01*
X105140922Y-58273262D01*
X105140122Y-58273160D01*
X105139335Y-58273019D01*
X105138561Y-58272841D01*
X105137803Y-58272626D01*
X105137060Y-58272374D01*
X105136334Y-58272088D01*
X105135626Y-58271768D01*
X105134936Y-58271415D01*
X105134267Y-58271030D01*
X105133618Y-58270614D01*
X105132991Y-58270168D01*
X105132388Y-58269694D01*
X105131807Y-58269191D01*
X105131252Y-58268662D01*
X105130723Y-58268107D01*
X105130220Y-58267527D01*
X105129746Y-58266923D01*
X105129300Y-58266296D01*
X105128884Y-58265647D01*
X105128499Y-58264978D01*
X105128146Y-58264288D01*
X105127826Y-58263580D01*
X105127540Y-58262854D01*
X105127288Y-58262111D01*
X105127073Y-58261353D01*
X105126895Y-58260579D01*
X105126754Y-58259792D01*
X105126652Y-58258992D01*
X105126591Y-58258180D01*
X105126570Y-58257357D01*
X105126570Y-57986131D01*
X105126591Y-57985308D01*
X105126652Y-57984496D01*
X105126754Y-57983696D01*
X105126895Y-57982909D01*
X105127073Y-57982135D01*
X105127288Y-57981377D01*
X105127540Y-57980634D01*
X105127826Y-57979908D01*
X105128146Y-57979200D01*
X105128499Y-57978510D01*
X105128884Y-57977841D01*
X105129300Y-57977192D01*
X105129746Y-57976566D01*
X105130220Y-57975962D01*
X105130723Y-57975382D01*
X105131252Y-57974826D01*
X105131807Y-57974297D01*
X105132388Y-57973795D01*
X105132991Y-57973320D01*
X105133618Y-57972874D01*
X105134267Y-57972458D01*
X105134936Y-57972073D01*
X105135626Y-57971720D01*
X105136334Y-57971400D01*
X105137060Y-57971114D01*
X105137803Y-57970863D01*
X105138561Y-57970647D01*
X105139335Y-57970469D01*
X105140122Y-57970328D01*
X105140922Y-57970227D01*
X105141734Y-57970165D01*
X105142557Y-57970144D01*
X105257293Y-57970144D01*
X105258115Y-57970165D01*
G37*
D12*
X105563095Y-58411230D02*
X105578252Y-58412382D01*
X105593189Y-58414280D01*
X105607886Y-58416905D01*
X105622326Y-58420238D01*
X105636489Y-58424260D01*
X105650356Y-58428952D01*
X105663910Y-58434296D01*
X105677130Y-58440273D01*
X105689999Y-58446864D01*
X105702498Y-58454050D01*
X105714607Y-58461813D01*
X105726308Y-58470134D01*
X105737583Y-58478995D01*
X105748413Y-58488375D01*
X105758778Y-58498258D01*
X105768660Y-58508623D01*
X105778041Y-58519452D01*
X105786901Y-58530727D01*
X105795222Y-58542429D01*
X105802985Y-58554538D01*
X105810172Y-58567037D01*
X105816763Y-58579905D01*
X105822740Y-58593126D01*
X105828084Y-58606679D01*
X105832776Y-58620547D01*
X105836798Y-58634710D01*
X105840131Y-58649150D01*
X105842755Y-58663847D01*
X105844653Y-58678784D01*
X105845806Y-58693941D01*
X105846194Y-58709299D01*
X105846194Y-59418137D01*
X105845806Y-59433495D01*
X105844653Y-59448652D01*
X105842755Y-59463589D01*
X105840131Y-59478286D01*
X105836798Y-59492726D01*
X105832776Y-59506889D01*
X105828084Y-59520756D01*
X105822740Y-59534310D01*
X105816763Y-59547530D01*
X105810172Y-59560399D01*
X105802985Y-59572898D01*
X105795222Y-59585007D01*
X105786901Y-59596708D01*
X105778041Y-59607983D01*
X105768660Y-59618813D01*
X105758778Y-59629178D01*
X105748413Y-59639060D01*
X105737583Y-59648441D01*
X105726308Y-59657301D01*
X105714607Y-59665622D01*
X105702498Y-59673385D01*
X105689999Y-59680572D01*
X105677130Y-59687163D01*
X105663910Y-59693140D01*
X105650356Y-59698484D01*
X105636489Y-59703176D01*
X105622326Y-59707198D01*
X105607886Y-59710530D01*
X105593189Y-59713155D01*
X105578252Y-59715053D01*
X105563095Y-59716206D01*
X105547737Y-59716594D01*
X104838899Y-59716594D01*
X104823540Y-59716206D01*
X104808384Y-59715053D01*
X104793447Y-59713155D01*
X104778750Y-59710530D01*
X104764310Y-59707198D01*
X104750147Y-59703176D01*
X104736279Y-59698484D01*
X104722726Y-59693140D01*
X104709506Y-59687163D01*
X104696637Y-59680572D01*
X104684138Y-59673385D01*
X104672029Y-59665622D01*
X104660327Y-59657301D01*
X104649053Y-59648441D01*
X104638223Y-59639060D01*
X104627858Y-59629178D01*
X104617976Y-59618813D01*
X104608595Y-59607983D01*
X104599735Y-59596708D01*
X104591414Y-59585007D01*
X104583650Y-59572898D01*
X104576464Y-59560399D01*
X104569873Y-59547530D01*
X104563896Y-59534310D01*
X104558552Y-59520756D01*
X104553860Y-59506889D01*
X104549838Y-59492726D01*
X104546505Y-59478286D01*
X104543881Y-59463589D01*
X104541983Y-59448652D01*
X104540830Y-59433495D01*
X104540442Y-59418137D01*
X104540442Y-58709299D01*
X104540830Y-58693941D01*
X104541983Y-58678784D01*
X104543881Y-58663847D01*
X104546505Y-58649150D01*
X104549838Y-58634710D01*
X104553860Y-58620547D01*
X104558552Y-58606679D01*
X104563896Y-58593126D01*
X104569873Y-58579905D01*
X104576464Y-58567037D01*
X104583650Y-58554538D01*
X104591414Y-58542429D01*
X104599735Y-58530727D01*
X104608595Y-58519452D01*
X104617976Y-58508623D01*
X104627858Y-58498258D01*
X104638223Y-58488375D01*
X104649053Y-58478995D01*
X104660327Y-58470134D01*
X104672029Y-58461813D01*
X104684138Y-58454050D01*
X104696637Y-58446864D01*
X104709506Y-58440273D01*
X104722726Y-58434296D01*
X104736279Y-58428952D01*
X104750147Y-58424260D01*
X104764310Y-58420238D01*
X104778750Y-58416905D01*
X104793447Y-58414280D01*
X104808384Y-58412382D01*
X104823540Y-58411230D01*
X104838899Y-58410841D01*
X105547737Y-58410841D01*
X105563095Y-58411230D01*
D11*
G36*
X104977156Y-59851001D02*
G01*
X104977968Y-59851063D01*
X104978768Y-59851165D01*
X104979555Y-59851305D01*
X104980329Y-59851484D01*
X104981087Y-59851699D01*
X104981830Y-59851951D01*
X104982556Y-59852237D01*
X104983264Y-59852557D01*
X104983954Y-59852910D01*
X104984623Y-59853295D01*
X104985272Y-59853711D01*
X104985899Y-59854157D01*
X104986503Y-59854631D01*
X104987083Y-59855134D01*
X104987638Y-59855663D01*
X104988167Y-59856218D01*
X104988670Y-59856798D01*
X104989145Y-59857402D01*
X104989590Y-59858029D01*
X104990006Y-59858678D01*
X104990391Y-59859347D01*
X104990744Y-59860036D01*
X104991064Y-59860745D01*
X104991351Y-59861471D01*
X104991602Y-59862213D01*
X104991817Y-59862972D01*
X104991996Y-59863746D01*
X104992137Y-59864533D01*
X104992238Y-59865333D01*
X104992300Y-59866145D01*
X104992321Y-59866968D01*
X104992321Y-60138180D01*
X104992300Y-60139002D01*
X104992238Y-60139814D01*
X104992137Y-60140614D01*
X104991996Y-60141402D01*
X104991817Y-60142175D01*
X104991602Y-60142934D01*
X104991351Y-60143677D01*
X104991064Y-60144403D01*
X104990744Y-60145111D01*
X104990391Y-60145800D01*
X104990006Y-60146470D01*
X104989590Y-60147118D01*
X104989145Y-60147745D01*
X104988670Y-60148349D01*
X104988167Y-60148929D01*
X104987638Y-60149484D01*
X104987083Y-60150014D01*
X104986503Y-60150516D01*
X104985899Y-60150991D01*
X104985272Y-60151436D01*
X104984623Y-60151852D01*
X104983954Y-60152237D01*
X104983264Y-60152590D01*
X104982556Y-60152910D01*
X104981830Y-60153197D01*
X104981087Y-60153448D01*
X104980329Y-60153663D01*
X104979555Y-60153842D01*
X104978768Y-60153982D01*
X104977968Y-60154084D01*
X104977156Y-60154146D01*
X104976333Y-60154167D01*
X104861598Y-60154167D01*
X104860775Y-60154146D01*
X104859963Y-60154084D01*
X104859163Y-60153982D01*
X104858376Y-60153842D01*
X104857603Y-60153663D01*
X104856844Y-60153448D01*
X104856101Y-60153197D01*
X104855375Y-60152910D01*
X104854667Y-60152590D01*
X104853978Y-60152237D01*
X104853308Y-60151852D01*
X104852660Y-60151436D01*
X104852033Y-60150991D01*
X104851429Y-60150516D01*
X104850849Y-60150014D01*
X104850293Y-60149484D01*
X104849764Y-60148929D01*
X104849262Y-60148349D01*
X104848787Y-60147745D01*
X104848341Y-60147118D01*
X104847925Y-60146470D01*
X104847541Y-60145800D01*
X104847187Y-60145111D01*
X104846867Y-60144403D01*
X104846581Y-60143677D01*
X104846330Y-60142934D01*
X104846114Y-60142175D01*
X104845936Y-60141402D01*
X104845795Y-60140614D01*
X104845694Y-60139814D01*
X104845632Y-60139002D01*
X104845611Y-60138180D01*
X104845611Y-59866968D01*
X104845632Y-59866145D01*
X104845694Y-59865333D01*
X104845795Y-59864533D01*
X104845936Y-59863746D01*
X104846114Y-59862972D01*
X104846330Y-59862213D01*
X104846581Y-59861471D01*
X104846867Y-59860745D01*
X104847187Y-59860036D01*
X104847541Y-59859347D01*
X104847925Y-59858678D01*
X104848341Y-59858029D01*
X104848787Y-59857402D01*
X104849262Y-59856798D01*
X104849764Y-59856218D01*
X104850293Y-59855663D01*
X104850849Y-59855134D01*
X104851429Y-59854631D01*
X104852033Y-59854157D01*
X104852660Y-59853711D01*
X104853308Y-59853295D01*
X104853978Y-59852910D01*
X104854667Y-59852557D01*
X104855375Y-59852237D01*
X104856101Y-59851951D01*
X104856844Y-59851699D01*
X104857603Y-59851484D01*
X104858376Y-59851305D01*
X104859163Y-59851165D01*
X104859963Y-59851063D01*
X104860775Y-59851001D01*
X104861598Y-59850981D01*
X104976333Y-59850981D01*
X104977156Y-59851001D01*
G37*
G36*
X106270300Y-58716018D02*
G01*
X106271112Y-58716080D01*
X106271912Y-58716182D01*
X106272699Y-58716322D01*
X106273473Y-58716501D01*
X106274231Y-58716716D01*
X106274974Y-58716968D01*
X106275700Y-58717254D01*
X106276408Y-58717574D01*
X106277098Y-58717927D01*
X106277767Y-58718312D01*
X106278416Y-58718728D01*
X106279043Y-58719174D01*
X106279646Y-58719648D01*
X106280227Y-58720151D01*
X106280782Y-58720680D01*
X106281311Y-58721235D01*
X106281814Y-58721815D01*
X106282288Y-58722419D01*
X106282734Y-58723046D01*
X106283150Y-58723695D01*
X106283535Y-58724364D01*
X106283888Y-58725054D01*
X106284208Y-58725762D01*
X106284494Y-58726488D01*
X106284746Y-58727231D01*
X106284961Y-58727989D01*
X106285139Y-58728763D01*
X106285280Y-58729550D01*
X106285382Y-58730350D01*
X106285443Y-58731162D01*
X106285464Y-58731985D01*
X106285464Y-58846720D01*
X106285443Y-58847543D01*
X106285382Y-58848355D01*
X106285280Y-58849155D01*
X106285139Y-58849942D01*
X106284961Y-58850716D01*
X106284746Y-58851474D01*
X106284494Y-58852217D01*
X106284208Y-58852943D01*
X106283888Y-58853651D01*
X106283535Y-58854340D01*
X106283150Y-58855010D01*
X106282734Y-58855659D01*
X106282288Y-58856285D01*
X106281814Y-58856889D01*
X106281311Y-58857469D01*
X106280782Y-58858025D01*
X106280227Y-58858554D01*
X106279646Y-58859056D01*
X106279043Y-58859531D01*
X106278416Y-58859977D01*
X106277767Y-58860393D01*
X106277098Y-58860778D01*
X106276408Y-58861131D01*
X106275700Y-58861451D01*
X106274974Y-58861737D01*
X106274231Y-58861988D01*
X106273473Y-58862204D01*
X106272699Y-58862382D01*
X106271912Y-58862523D01*
X106271112Y-58862625D01*
X106270300Y-58862686D01*
X106269477Y-58862707D01*
X105998265Y-58862707D01*
X105997442Y-58862686D01*
X105996630Y-58862625D01*
X105995830Y-58862523D01*
X105995043Y-58862382D01*
X105994270Y-58862204D01*
X105993511Y-58861988D01*
X105992768Y-58861737D01*
X105992042Y-58861451D01*
X105991334Y-58861131D01*
X105990644Y-58860778D01*
X105989975Y-58860393D01*
X105989326Y-58859977D01*
X105988700Y-58859531D01*
X105988096Y-58859056D01*
X105987515Y-58858554D01*
X105986960Y-58858025D01*
X105986431Y-58857469D01*
X105985928Y-58856889D01*
X105985454Y-58856285D01*
X105985008Y-58855659D01*
X105984592Y-58855010D01*
X105984207Y-58854340D01*
X105983854Y-58853651D01*
X105983534Y-58852943D01*
X105983248Y-58852217D01*
X105982996Y-58851474D01*
X105982781Y-58850716D01*
X105982602Y-58849942D01*
X105982462Y-58849155D01*
X105982360Y-58848355D01*
X105982298Y-58847543D01*
X105982278Y-58846720D01*
X105982278Y-58731985D01*
X105982298Y-58731162D01*
X105982360Y-58730350D01*
X105982462Y-58729550D01*
X105982602Y-58728763D01*
X105982781Y-58727989D01*
X105982996Y-58727231D01*
X105983248Y-58726488D01*
X105983534Y-58725762D01*
X105983854Y-58725054D01*
X105984207Y-58724364D01*
X105984592Y-58723695D01*
X105985008Y-58723046D01*
X105985454Y-58722419D01*
X105985928Y-58721815D01*
X105986431Y-58721235D01*
X105986960Y-58720680D01*
X105987515Y-58720151D01*
X105988096Y-58719648D01*
X105988700Y-58719174D01*
X105989326Y-58718728D01*
X105989975Y-58718312D01*
X105990644Y-58717927D01*
X105991334Y-58717574D01*
X105992042Y-58717254D01*
X105992768Y-58716968D01*
X105993511Y-58716716D01*
X105994270Y-58716501D01*
X105995043Y-58716322D01*
X105995830Y-58716182D01*
X105996630Y-58716080D01*
X105997442Y-58716018D01*
X105998265Y-58715997D01*
X106269477Y-58715997D01*
X106270300Y-58716018D01*
G37*
D13*
X103219493Y-58447918D02*
X103239989Y-58448182D01*
X103260239Y-58449055D01*
X103280241Y-58450535D01*
X103299996Y-58452623D01*
X103319503Y-58455320D01*
X103338764Y-58458625D01*
X103357776Y-58462538D01*
X103376542Y-58467059D01*
X103395060Y-58472188D01*
X103413331Y-58477925D01*
X103431354Y-58484270D01*
X103449131Y-58491224D01*
X103466659Y-58498785D01*
X103483941Y-58506955D01*
X103500975Y-58515733D01*
X103517762Y-58525119D01*
X103534405Y-58535053D01*
X103550593Y-58545477D01*
X103566325Y-58556391D01*
X103581602Y-58567794D01*
X103596423Y-58579687D01*
X103610788Y-58592070D01*
X103624698Y-58604942D01*
X103638152Y-58618304D01*
X103651151Y-58632155D01*
X103663693Y-58646496D01*
X103675781Y-58661327D01*
X103687412Y-58676647D01*
X103698588Y-58692457D01*
X103709309Y-58708757D01*
X103719573Y-58725546D01*
X103729382Y-58742824D01*
X103738866Y-58760282D01*
X103747738Y-58778032D01*
X103755998Y-58796074D01*
X103763646Y-58814407D01*
X103770682Y-58833032D01*
X103777107Y-58851949D01*
X103782919Y-58871158D01*
X103788120Y-58890659D01*
X103792709Y-58910451D01*
X103796686Y-58930535D01*
X103800051Y-58950911D01*
X103802804Y-58971579D01*
X103804946Y-58992538D01*
X103806475Y-59013789D01*
X103807393Y-59035332D01*
X103807699Y-59057167D01*
X103807393Y-59079010D01*
X103806475Y-59100576D01*
X103804946Y-59121866D01*
X103802804Y-59142880D01*
X103800051Y-59163618D01*
X103796686Y-59184080D01*
X103792709Y-59204265D01*
X103788120Y-59224174D01*
X103782919Y-59243807D01*
X103777107Y-59263163D01*
X103770682Y-59282244D01*
X103763646Y-59301048D01*
X103755998Y-59319576D01*
X103747738Y-59337828D01*
X103738866Y-59355803D01*
X103729382Y-59373502D01*
X103719573Y-59390819D01*
X103709309Y-59407649D01*
X103698588Y-59423990D01*
X103687412Y-59439843D01*
X103675781Y-59455209D01*
X103663693Y-59470086D01*
X103651151Y-59484476D01*
X103638152Y-59498378D01*
X103624698Y-59511792D01*
X103610788Y-59524718D01*
X103596423Y-59537156D01*
X103581602Y-59549106D01*
X103566325Y-59560569D01*
X103550593Y-59571543D01*
X103534405Y-59582030D01*
X103517762Y-59592028D01*
X103500975Y-59601479D01*
X103483941Y-59610323D01*
X103466659Y-59618560D01*
X103449131Y-59626190D01*
X103431354Y-59633212D01*
X103413331Y-59639627D01*
X103395060Y-59645435D01*
X103376542Y-59650636D01*
X103357776Y-59655230D01*
X103338764Y-59659216D01*
X103319503Y-59662596D01*
X103299996Y-59665368D01*
X103280241Y-59667533D01*
X103260239Y-59669091D01*
X103239989Y-59670041D01*
X103219493Y-59670385D01*
X103198989Y-59670121D01*
X103178720Y-59669249D01*
X103158685Y-59667768D01*
X103138885Y-59665680D01*
X103119319Y-59662983D01*
X103099987Y-59659678D01*
X103080889Y-59655766D01*
X103062026Y-59651245D01*
X103043397Y-59646116D01*
X103025003Y-59640379D01*
X103006843Y-59634034D01*
X102988917Y-59627080D01*
X102971225Y-59619519D01*
X102953768Y-59611350D01*
X102936545Y-59602572D01*
X102919557Y-59593186D01*
X102903108Y-59583252D01*
X102887090Y-59572828D01*
X102871501Y-59561914D01*
X102856342Y-59550510D01*
X102841612Y-59538617D01*
X102827312Y-59526235D01*
X102813441Y-59513362D01*
X102800000Y-59500000D01*
X102786988Y-59486149D01*
X102774407Y-59471808D01*
X102762254Y-59456977D01*
X102750532Y-59441657D01*
X102739238Y-59425847D01*
X102728375Y-59409548D01*
X102717941Y-59392759D01*
X102707936Y-59375480D01*
X102698655Y-59357817D01*
X102689972Y-59339876D01*
X102681887Y-59321655D01*
X102674402Y-59303157D01*
X102667516Y-59284379D01*
X102661228Y-59265324D01*
X102655539Y-59245989D01*
X102650449Y-59226376D01*
X102645958Y-59206484D01*
X102642066Y-59186314D01*
X102638772Y-59165865D01*
X102636077Y-59145138D01*
X102633981Y-59124132D01*
X102632484Y-59102848D01*
X102631586Y-59081285D01*
X102631287Y-59059443D01*
X102631293Y-59058979D01*
X102871235Y-59058979D01*
X102871404Y-59073661D01*
X102871912Y-59088118D01*
X102872758Y-59102349D01*
X102873943Y-59116355D01*
X102875466Y-59130137D01*
X102877327Y-59143693D01*
X102879527Y-59157023D01*
X102882066Y-59170129D01*
X102884943Y-59183009D01*
X102888158Y-59195664D01*
X102891712Y-59208094D01*
X102895604Y-59220299D01*
X102899835Y-59232279D01*
X102904404Y-59244033D01*
X102909312Y-59255562D01*
X102914558Y-59266866D01*
X102920312Y-59277687D01*
X102926327Y-59288190D01*
X102932601Y-59298376D01*
X102939136Y-59308244D01*
X102945932Y-59317794D01*
X102952988Y-59327027D01*
X102960304Y-59335943D01*
X102967880Y-59344540D01*
X102975717Y-59352821D01*
X102983814Y-59360784D01*
X102992172Y-59368429D01*
X103000790Y-59375757D01*
X103009668Y-59382767D01*
X103018807Y-59389460D01*
X103028206Y-59395836D01*
X103037865Y-59401894D01*
X103047752Y-59407608D01*
X103057835Y-59412952D01*
X103068112Y-59417925D01*
X103078585Y-59422528D01*
X103089254Y-59426761D01*
X103100117Y-59430624D01*
X103111176Y-59434116D01*
X103122430Y-59437238D01*
X103133880Y-59439990D01*
X103145524Y-59442371D01*
X103157364Y-59444383D01*
X103169399Y-59446024D01*
X103181630Y-59447295D01*
X103194055Y-59448195D01*
X103206676Y-59448726D01*
X103219493Y-59448886D01*
X103232309Y-59448676D01*
X103244930Y-59448097D01*
X103257355Y-59447148D01*
X103269586Y-59445830D01*
X103281621Y-59444142D01*
X103293461Y-59442085D01*
X103305105Y-59439658D01*
X103316555Y-59436862D01*
X103327809Y-59433696D01*
X103338867Y-59430161D01*
X103349731Y-59426257D01*
X103360399Y-59421982D01*
X103370872Y-59417339D01*
X103381150Y-59412325D01*
X103391232Y-59406943D01*
X103401119Y-59401190D01*
X103410772Y-59395095D01*
X103420152Y-59388684D01*
X103429258Y-59381956D01*
X103438090Y-59374911D01*
X103446650Y-59367550D01*
X103454936Y-59359873D01*
X103462948Y-59351879D01*
X103470687Y-59343568D01*
X103478153Y-59334941D01*
X103485346Y-59325997D01*
X103492265Y-59316737D01*
X103498910Y-59307160D01*
X103505283Y-59297267D01*
X103511382Y-59287058D01*
X103517207Y-59276531D01*
X103522759Y-59265689D01*
X103528207Y-59254364D01*
X103533304Y-59242816D01*
X103538049Y-59231043D01*
X103542443Y-59219047D01*
X103546485Y-59206827D01*
X103550175Y-59194383D01*
X103553514Y-59181715D01*
X103556502Y-59168824D01*
X103559138Y-59155708D01*
X103561423Y-59142369D01*
X103563356Y-59128805D01*
X103564938Y-59115018D01*
X103566168Y-59101007D01*
X103567046Y-59086772D01*
X103567574Y-59072313D01*
X103567749Y-59057631D01*
X103567574Y-59042955D01*
X103567046Y-59028518D01*
X103566168Y-59014320D01*
X103564938Y-59000360D01*
X103563356Y-58986638D01*
X103561423Y-58973155D01*
X103559138Y-58959910D01*
X103556502Y-58946904D01*
X103553514Y-58934136D01*
X103550175Y-58921607D01*
X103546485Y-58909316D01*
X103542443Y-58897263D01*
X103538049Y-58885449D01*
X103533304Y-58873874D01*
X103528207Y-58862537D01*
X103522759Y-58851438D01*
X103517207Y-58840412D01*
X103511382Y-58829717D01*
X103505283Y-58819352D01*
X103498910Y-58809319D01*
X103492265Y-58799616D01*
X103485346Y-58790244D01*
X103478153Y-58781203D01*
X103470687Y-58772492D01*
X103462948Y-58764112D01*
X103454936Y-58756063D01*
X103446650Y-58748345D01*
X103438090Y-58740957D01*
X103429258Y-58733901D01*
X103420152Y-58727175D01*
X103410772Y-58720780D01*
X103401119Y-58714715D01*
X103391232Y-58709002D01*
X103381150Y-58703658D01*
X103370872Y-58698685D01*
X103360399Y-58694082D01*
X103349731Y-58689849D01*
X103338867Y-58685987D01*
X103327808Y-58682494D01*
X103316554Y-58679372D01*
X103305105Y-58676621D01*
X103293460Y-58674239D01*
X103281620Y-58672228D01*
X103269585Y-58670586D01*
X103257355Y-58669316D01*
X103244929Y-58668415D01*
X103232309Y-58667885D01*
X103219493Y-58667725D01*
X103206676Y-58667934D01*
X103194055Y-58668514D01*
X103181629Y-58669462D01*
X103169399Y-58670780D01*
X103157364Y-58672468D01*
X103145524Y-58674525D01*
X103133879Y-58676952D01*
X103122430Y-58679748D01*
X103111176Y-58682914D01*
X103100117Y-58686449D01*
X103089254Y-58690354D01*
X103078585Y-58694628D01*
X103068112Y-58699272D01*
X103057835Y-58704285D01*
X103047752Y-58709667D01*
X103037865Y-58715419D01*
X103028206Y-58721521D01*
X103018807Y-58727952D01*
X103009668Y-58734713D01*
X103000790Y-58741804D01*
X102992172Y-58749225D01*
X102983814Y-58756975D01*
X102975717Y-58765055D01*
X102967880Y-58773465D01*
X102960304Y-58782205D01*
X102952988Y-58791274D01*
X102945932Y-58800674D01*
X102939136Y-58810402D01*
X102932601Y-58820461D01*
X102926327Y-58830849D01*
X102920312Y-58841568D01*
X102914558Y-58852615D01*
X102909312Y-58863735D01*
X102904404Y-58875091D01*
X102899835Y-58886685D01*
X102895604Y-58898515D01*
X102891712Y-58910583D01*
X102888158Y-58922888D01*
X102884943Y-58935430D01*
X102882066Y-58948209D01*
X102879527Y-58961225D01*
X102877327Y-58974479D01*
X102875466Y-58987969D01*
X102873943Y-59001697D01*
X102872758Y-59015662D01*
X102871912Y-59029864D01*
X102871404Y-59044303D01*
X102871235Y-59058979D01*
X102631293Y-59058979D01*
X102631586Y-59037607D01*
X102632484Y-59016061D01*
X102633981Y-58994804D01*
X102636077Y-58973836D01*
X102638772Y-58953158D01*
X102642066Y-58932769D01*
X102645958Y-58912670D01*
X102650449Y-58892860D01*
X102655539Y-58873340D01*
X102661228Y-58854109D01*
X102667516Y-58835167D01*
X102674402Y-58816515D01*
X102681887Y-58798153D01*
X102689972Y-58780080D01*
X102698655Y-58762296D01*
X102707936Y-58744802D01*
X102717941Y-58727484D01*
X102728375Y-58710655D01*
X102739238Y-58694313D01*
X102750532Y-58678460D01*
X102762254Y-58663094D01*
X102774407Y-58648216D01*
X102786988Y-58633826D01*
X102800000Y-58619924D01*
X102813441Y-58606511D01*
X102827312Y-58593585D01*
X102841612Y-58581147D01*
X102856342Y-58569196D01*
X102871501Y-58557734D01*
X102887090Y-58546760D01*
X102903108Y-58536274D01*
X102919557Y-58526276D01*
X102936545Y-58516824D01*
X102953768Y-58507980D01*
X102971225Y-58499743D01*
X102988917Y-58492113D01*
X103006843Y-58485091D01*
X103025003Y-58478675D01*
X103043397Y-58472867D01*
X103062026Y-58467666D01*
X103080889Y-58463072D01*
X103099987Y-58459086D01*
X103119319Y-58455706D01*
X103138885Y-58452934D01*
X103158685Y-58450769D01*
X103178720Y-58449211D01*
X103198989Y-58448260D01*
X103219493Y-58447917D01*
X103219493Y-58447918D01*
D14*
X103391759Y-72611175D02*
X103058426Y-72134984D01*
X102820331Y-72611175D02*
X102820331Y-71611175D01*
X102820331Y-71611175D02*
X103201283Y-71611175D01*
X103201283Y-71611175D02*
X103296521Y-71658794D01*
X103296521Y-71658794D02*
X103344140Y-71706413D01*
X103344140Y-71706413D02*
X103391759Y-71801651D01*
X103391759Y-71801651D02*
X103391759Y-71944508D01*
X103391759Y-71944508D02*
X103344140Y-72039746D01*
X103344140Y-72039746D02*
X103296521Y-72087365D01*
X103296521Y-72087365D02*
X103201283Y-72134984D01*
X103201283Y-72134984D02*
X102820331Y-72134984D01*
X103820331Y-72611175D02*
X103820331Y-71611175D01*
X103820331Y-71611175D02*
X104201283Y-71611175D01*
X104201283Y-71611175D02*
X104296521Y-71658794D01*
X104296521Y-71658794D02*
X104344140Y-71706413D01*
X104344140Y-71706413D02*
X104391759Y-71801651D01*
X104391759Y-71801651D02*
X104391759Y-71944508D01*
X104391759Y-71944508D02*
X104344140Y-72039746D01*
X104344140Y-72039746D02*
X104296521Y-72087365D01*
X104296521Y-72087365D02*
X104201283Y-72134984D01*
X104201283Y-72134984D02*
X103820331Y-72134984D01*
X104772712Y-71706413D02*
X104820331Y-71658794D01*
X104820331Y-71658794D02*
X104915569Y-71611175D01*
X104915569Y-71611175D02*
X105153664Y-71611175D01*
X105153664Y-71611175D02*
X105248902Y-71658794D01*
X105248902Y-71658794D02*
X105296521Y-71706413D01*
X105296521Y-71706413D02*
X105344140Y-71801651D01*
X105344140Y-71801651D02*
X105344140Y-71896889D01*
X105344140Y-71896889D02*
X105296521Y-72039746D01*
X105296521Y-72039746D02*
X104725093Y-72611175D01*
X104725093Y-72611175D02*
X105344140Y-72611175D01*
X105677474Y-71611175D02*
X106296521Y-71611175D01*
X106296521Y-71611175D02*
X105963188Y-71992127D01*
X105963188Y-71992127D02*
X106106045Y-71992127D01*
X106106045Y-71992127D02*
X106201283Y-72039746D01*
X106201283Y-72039746D02*
X106248902Y-72087365D01*
X106248902Y-72087365D02*
X106296521Y-72182603D01*
X106296521Y-72182603D02*
X106296521Y-72420698D01*
X106296521Y-72420698D02*
X106248902Y-72515936D01*
X106248902Y-72515936D02*
X106201283Y-72563556D01*
X106201283Y-72563556D02*
X106106045Y-72611175D01*
X106106045Y-72611175D02*
X105820331Y-72611175D01*
X105820331Y-72611175D02*
X105725093Y-72563556D01*
X105725093Y-72563556D02*
X105677474Y-72515936D01*
X107201283Y-71611175D02*
X106725093Y-71611175D01*
X106725093Y-71611175D02*
X106677474Y-72087365D01*
X106677474Y-72087365D02*
X106725093Y-72039746D01*
X106725093Y-72039746D02*
X106820331Y-71992127D01*
X106820331Y-71992127D02*
X107058426Y-71992127D01*
X107058426Y-71992127D02*
X107153664Y-72039746D01*
X107153664Y-72039746D02*
X107201283Y-72087365D01*
X107201283Y-72087365D02*
X107248902Y-72182603D01*
X107248902Y-72182603D02*
X107248902Y-72420698D01*
X107248902Y-72420698D02*
X107201283Y-72515936D01*
X107201283Y-72515936D02*
X107153664Y-72563556D01*
X107153664Y-72563556D02*
X107058426Y-72611175D01*
X107058426Y-72611175D02*
X106820331Y-72611175D01*
X106820331Y-72611175D02*
X106725093Y-72563556D01*
X106725093Y-72563556D02*
X106677474Y-72515936D01*
X107867950Y-71611175D02*
X107963188Y-71611175D01*
X107963188Y-71611175D02*
X108058426Y-71658794D01*
X108058426Y-71658794D02*
X108106045Y-71706413D01*
X108106045Y-71706413D02*
X108153664Y-71801651D01*
X108153664Y-71801651D02*
X108201283Y-71992127D01*
X108201283Y-71992127D02*
X108201283Y-72230222D01*
X108201283Y-72230222D02*
X108153664Y-72420698D01*
X108153664Y-72420698D02*
X108106045Y-72515936D01*
X108106045Y-72515936D02*
X108058426Y-72563556D01*
X108058426Y-72563556D02*
X107963188Y-72611175D01*
X107963188Y-72611175D02*
X107867950Y-72611175D01*
X107867950Y-72611175D02*
X107772712Y-72563556D01*
X107772712Y-72563556D02*
X107725093Y-72515936D01*
X107725093Y-72515936D02*
X107677474Y-72420698D01*
X107677474Y-72420698D02*
X107629855Y-72230222D01*
X107629855Y-72230222D02*
X107629855Y-71992127D01*
X107629855Y-71992127D02*
X107677474Y-71801651D01*
X107677474Y-71801651D02*
X107725093Y-71706413D01*
X107725093Y-71706413D02*
X107772712Y-71658794D01*
X107772712Y-71658794D02*
X107867950Y-71611175D01*
X109915569Y-71658794D02*
X109820331Y-71611175D01*
X109820331Y-71611175D02*
X109677474Y-71611175D01*
X109677474Y-71611175D02*
X109534617Y-71658794D01*
X109534617Y-71658794D02*
X109439379Y-71754032D01*
X109439379Y-71754032D02*
X109391760Y-71849270D01*
X109391760Y-71849270D02*
X109344141Y-72039746D01*
X109344141Y-72039746D02*
X109344141Y-72182603D01*
X109344141Y-72182603D02*
X109391760Y-72373079D01*
X109391760Y-72373079D02*
X109439379Y-72468317D01*
X109439379Y-72468317D02*
X109534617Y-72563556D01*
X109534617Y-72563556D02*
X109677474Y-72611175D01*
X109677474Y-72611175D02*
X109772712Y-72611175D01*
X109772712Y-72611175D02*
X109915569Y-72563556D01*
X109915569Y-72563556D02*
X109963188Y-72515936D01*
X109963188Y-72515936D02*
X109963188Y-72182603D01*
X109963188Y-72182603D02*
X109772712Y-72182603D01*
X110391760Y-72611175D02*
X110391760Y-71611175D01*
X110391760Y-71611175D02*
X110772712Y-71611175D01*
X110772712Y-71611175D02*
X110867950Y-71658794D01*
X110867950Y-71658794D02*
X110915569Y-71706413D01*
X110915569Y-71706413D02*
X110963188Y-71801651D01*
X110963188Y-71801651D02*
X110963188Y-71944508D01*
X110963188Y-71944508D02*
X110915569Y-72039746D01*
X110915569Y-72039746D02*
X110867950Y-72087365D01*
X110867950Y-72087365D02*
X110772712Y-72134984D01*
X110772712Y-72134984D02*
X110391760Y-72134984D01*
X111391760Y-72611175D02*
X111391760Y-71611175D01*
X112058426Y-71611175D02*
X112248902Y-71611175D01*
X112248902Y-71611175D02*
X112344140Y-71658794D01*
X112344140Y-71658794D02*
X112439378Y-71754032D01*
X112439378Y-71754032D02*
X112486997Y-71944508D01*
X112486997Y-71944508D02*
X112486997Y-72277841D01*
X112486997Y-72277841D02*
X112439378Y-72468317D01*
X112439378Y-72468317D02*
X112344140Y-72563556D01*
X112344140Y-72563556D02*
X112248902Y-72611175D01*
X112248902Y-72611175D02*
X112058426Y-72611175D01*
X112058426Y-72611175D02*
X111963188Y-72563556D01*
X111963188Y-72563556D02*
X111867950Y-72468317D01*
X111867950Y-72468317D02*
X111820331Y-72277841D01*
X111820331Y-72277841D02*
X111820331Y-71944508D01*
X111820331Y-71944508D02*
X111867950Y-71754032D01*
X111867950Y-71754032D02*
X111963188Y-71658794D01*
X111963188Y-71658794D02*
X112058426Y-71611175D01*
X102820331Y-73697309D02*
X103153664Y-73697309D01*
X103296521Y-74221119D02*
X102820331Y-74221119D01*
X102820331Y-74221119D02*
X102820331Y-73221119D01*
X102820331Y-73221119D02*
X103296521Y-73221119D01*
X103629855Y-73221119D02*
X104296521Y-74221119D01*
X104296521Y-73221119D02*
X103629855Y-74221119D01*
X104677474Y-74221119D02*
X104677474Y-73221119D01*
X104677474Y-73221119D02*
X105058426Y-73221119D01*
X105058426Y-73221119D02*
X105153664Y-73268738D01*
X105153664Y-73268738D02*
X105201283Y-73316357D01*
X105201283Y-73316357D02*
X105248902Y-73411595D01*
X105248902Y-73411595D02*
X105248902Y-73554452D01*
X105248902Y-73554452D02*
X105201283Y-73649690D01*
X105201283Y-73649690D02*
X105153664Y-73697309D01*
X105153664Y-73697309D02*
X105058426Y-73744928D01*
X105058426Y-73744928D02*
X104677474Y-73744928D01*
X105629855Y-73935404D02*
X106106045Y-73935404D01*
X105534617Y-74221119D02*
X105867950Y-73221119D01*
X105867950Y-73221119D02*
X106201283Y-74221119D01*
X106534617Y-74221119D02*
X106534617Y-73221119D01*
X106534617Y-73221119D02*
X107106045Y-74221119D01*
X107106045Y-74221119D02*
X107106045Y-73221119D01*
X107534617Y-74173500D02*
X107677474Y-74221119D01*
X107677474Y-74221119D02*
X107915569Y-74221119D01*
X107915569Y-74221119D02*
X108010807Y-74173500D01*
X108010807Y-74173500D02*
X108058426Y-74125880D01*
X108058426Y-74125880D02*
X108106045Y-74030642D01*
X108106045Y-74030642D02*
X108106045Y-73935404D01*
X108106045Y-73935404D02*
X108058426Y-73840166D01*
X108058426Y-73840166D02*
X108010807Y-73792547D01*
X108010807Y-73792547D02*
X107915569Y-73744928D01*
X107915569Y-73744928D02*
X107725093Y-73697309D01*
X107725093Y-73697309D02*
X107629855Y-73649690D01*
X107629855Y-73649690D02*
X107582236Y-73602071D01*
X107582236Y-73602071D02*
X107534617Y-73506833D01*
X107534617Y-73506833D02*
X107534617Y-73411595D01*
X107534617Y-73411595D02*
X107582236Y-73316357D01*
X107582236Y-73316357D02*
X107629855Y-73268738D01*
X107629855Y-73268738D02*
X107725093Y-73221119D01*
X107725093Y-73221119D02*
X107963188Y-73221119D01*
X107963188Y-73221119D02*
X108106045Y-73268738D01*
X108534617Y-74221119D02*
X108534617Y-73221119D01*
X109201283Y-73221119D02*
X109391759Y-73221119D01*
X109391759Y-73221119D02*
X109486997Y-73268738D01*
X109486997Y-73268738D02*
X109582235Y-73363976D01*
X109582235Y-73363976D02*
X109629854Y-73554452D01*
X109629854Y-73554452D02*
X109629854Y-73887785D01*
X109629854Y-73887785D02*
X109582235Y-74078261D01*
X109582235Y-74078261D02*
X109486997Y-74173500D01*
X109486997Y-74173500D02*
X109391759Y-74221119D01*
X109391759Y-74221119D02*
X109201283Y-74221119D01*
X109201283Y-74221119D02*
X109106045Y-74173500D01*
X109106045Y-74173500D02*
X109010807Y-74078261D01*
X109010807Y-74078261D02*
X108963188Y-73887785D01*
X108963188Y-73887785D02*
X108963188Y-73554452D01*
X108963188Y-73554452D02*
X109010807Y-73363976D01*
X109010807Y-73363976D02*
X109106045Y-73268738D01*
X109106045Y-73268738D02*
X109201283Y-73221119D01*
X110058426Y-74221119D02*
X110058426Y-73221119D01*
X110058426Y-73221119D02*
X110629854Y-74221119D01*
X110629854Y-74221119D02*
X110629854Y-73221119D01*
X112439378Y-74125880D02*
X112391759Y-74173500D01*
X112391759Y-74173500D02*
X112248902Y-74221119D01*
X112248902Y-74221119D02*
X112153664Y-74221119D01*
X112153664Y-74221119D02*
X112010807Y-74173500D01*
X112010807Y-74173500D02*
X111915569Y-74078261D01*
X111915569Y-74078261D02*
X111867950Y-73983023D01*
X111867950Y-73983023D02*
X111820331Y-73792547D01*
X111820331Y-73792547D02*
X111820331Y-73649690D01*
X111820331Y-73649690D02*
X111867950Y-73459214D01*
X111867950Y-73459214D02*
X111915569Y-73363976D01*
X111915569Y-73363976D02*
X112010807Y-73268738D01*
X112010807Y-73268738D02*
X112153664Y-73221119D01*
X112153664Y-73221119D02*
X112248902Y-73221119D01*
X112248902Y-73221119D02*
X112391759Y-73268738D01*
X112391759Y-73268738D02*
X112439378Y-73316357D01*
X112820331Y-73935404D02*
X113296521Y-73935404D01*
X112725093Y-74221119D02*
X113058426Y-73221119D01*
X113058426Y-73221119D02*
X113391759Y-74221119D01*
X114296521Y-74221119D02*
X113963188Y-73744928D01*
X113725093Y-74221119D02*
X113725093Y-73221119D01*
X113725093Y-73221119D02*
X114106045Y-73221119D01*
X114106045Y-73221119D02*
X114201283Y-73268738D01*
X114201283Y-73268738D02*
X114248902Y-73316357D01*
X114248902Y-73316357D02*
X114296521Y-73411595D01*
X114296521Y-73411595D02*
X114296521Y-73554452D01*
X114296521Y-73554452D02*
X114248902Y-73649690D01*
X114248902Y-73649690D02*
X114201283Y-73697309D01*
X114201283Y-73697309D02*
X114106045Y-73744928D01*
X114106045Y-73744928D02*
X113725093Y-73744928D01*
X114725093Y-74221119D02*
X114725093Y-73221119D01*
X114725093Y-73221119D02*
X114963188Y-73221119D01*
X114963188Y-73221119D02*
X115106045Y-73268738D01*
X115106045Y-73268738D02*
X115201283Y-73363976D01*
X115201283Y-73363976D02*
X115248902Y-73459214D01*
X115248902Y-73459214D02*
X115296521Y-73649690D01*
X115296521Y-73649690D02*
X115296521Y-73792547D01*
X115296521Y-73792547D02*
X115248902Y-73983023D01*
X115248902Y-73983023D02*
X115201283Y-74078261D01*
X115201283Y-74078261D02*
X115106045Y-74173500D01*
X115106045Y-74173500D02*
X114963188Y-74221119D01*
X114963188Y-74221119D02*
X114725093Y-74221119D01*
D15*
G36*
X100256446Y-77979046D02*
G01*
X99215514Y-77979046D01*
X99215514Y-76747470D01*
X99326625Y-76747470D01*
X99326625Y-76786800D01*
X99341676Y-76823136D01*
X99369487Y-76850947D01*
X99405823Y-76865998D01*
X99425488Y-76867935D01*
X99822395Y-76867935D01*
X99635342Y-77081710D01*
X99629265Y-77090210D01*
X99627390Y-77092086D01*
X99626653Y-77093865D01*
X99623851Y-77097785D01*
X99618606Y-77113292D01*
X99612339Y-77128422D01*
X99612339Y-77131821D01*
X99611250Y-77135041D01*
X99612339Y-77151377D01*
X99612339Y-77167752D01*
X99613639Y-77170892D01*
X99613866Y-77174285D01*
X99621124Y-77188961D01*
X99627390Y-77204088D01*
X99629794Y-77206492D01*
X99631301Y-77209539D01*
X99643620Y-77220318D01*
X99655201Y-77231899D01*
X99658342Y-77233200D01*
X99660900Y-77235438D01*
X99676407Y-77240682D01*
X99691537Y-77246950D01*
X99696332Y-77247422D01*
X99698156Y-77248039D01*
X99700802Y-77247862D01*
X99711202Y-77248887D01*
X99830264Y-77248887D01*
X99889587Y-77278548D01*
X99914073Y-77303035D01*
X99943735Y-77362358D01*
X99943735Y-77552863D01*
X99914073Y-77612185D01*
X99889585Y-77636674D01*
X99830264Y-77666335D01*
X99592140Y-77666335D01*
X99532818Y-77636674D01*
X99496765Y-77600620D01*
X99481490Y-77588085D01*
X99445154Y-77573033D01*
X99405824Y-77573033D01*
X99369487Y-77588083D01*
X99341677Y-77615894D01*
X99326625Y-77652230D01*
X99326625Y-77691560D01*
X99341675Y-77727897D01*
X99354211Y-77743172D01*
X99401830Y-77790792D01*
X99409561Y-77797136D01*
X99411305Y-77799147D01*
X99414337Y-77801055D01*
X99417105Y-77803327D01*
X99419562Y-77804344D01*
X99428028Y-77809674D01*
X99523266Y-77857293D01*
X99541721Y-77864355D01*
X99545333Y-77864611D01*
X99548680Y-77865998D01*
X99568345Y-77867935D01*
X99854059Y-77867935D01*
X99873724Y-77865998D01*
X99877070Y-77864611D01*
X99880683Y-77864355D01*
X99899138Y-77857293D01*
X99994376Y-77809674D01*
X100002841Y-77804344D01*
X100005299Y-77803327D01*
X100008066Y-77801055D01*
X100011099Y-77799147D01*
X100012842Y-77797136D01*
X100020574Y-77790792D01*
X100068193Y-77743172D01*
X100074537Y-77735441D01*
X100076547Y-77733698D01*
X100078455Y-77730666D01*
X100080728Y-77727897D01*
X100081746Y-77725438D01*
X100087074Y-77716975D01*
X100134693Y-77621737D01*
X100141755Y-77603282D01*
X100142011Y-77599669D01*
X100143398Y-77596323D01*
X100145335Y-77576658D01*
X100145335Y-77338563D01*
X100143398Y-77318898D01*
X100142011Y-77315551D01*
X100141755Y-77311939D01*
X100134693Y-77293484D01*
X100087074Y-77198246D01*
X100081747Y-77189784D01*
X100080728Y-77187323D01*
X100078453Y-77184551D01*
X100076547Y-77181523D01*
X100074538Y-77179780D01*
X100068192Y-77172048D01*
X100020573Y-77124430D01*
X100012843Y-77118086D01*
X100011099Y-77116075D01*
X100008066Y-77114166D01*
X100005298Y-77111894D01*
X100002839Y-77110875D01*
X99994376Y-77105548D01*
X99916454Y-77066587D01*
X100120395Y-76833512D01*
X100126473Y-76825009D01*
X100128347Y-76823136D01*
X100129082Y-76821359D01*
X100131887Y-76817437D01*
X100137133Y-76801924D01*
X100143398Y-76786800D01*
X100143398Y-76783400D01*
X100144487Y-76780180D01*
X100143398Y-76763843D01*
X100143398Y-76747470D01*
X100142097Y-76744329D01*
X100141871Y-76740937D01*
X100134611Y-76726257D01*
X100128347Y-76711134D01*
X100125943Y-76708730D01*
X100124436Y-76705682D01*
X100112108Y-76694895D01*
X100100536Y-76683323D01*
X100097396Y-76682022D01*
X100094837Y-76679783D01*
X100079322Y-76674535D01*
X100064200Y-76668272D01*
X100059404Y-76667799D01*
X100057581Y-76667183D01*
X100054934Y-76667359D01*
X100044535Y-76666335D01*
X99425488Y-76666335D01*
X99405823Y-76668272D01*
X99369487Y-76683323D01*
X99341676Y-76711134D01*
X99326625Y-76747470D01*
X99215514Y-76747470D01*
X99215514Y-76555224D01*
X100256446Y-76555224D01*
X100256446Y-77979046D01*
G37*
G36*
X102752128Y-77977109D02*
G01*
X101711988Y-77977109D01*
X101711988Y-77421194D01*
X101823099Y-77421194D01*
X101824244Y-77437305D01*
X101824244Y-77453466D01*
X101825630Y-77456812D01*
X101825887Y-77460425D01*
X101833111Y-77474874D01*
X101839295Y-77489802D01*
X101841856Y-77492363D01*
X101843476Y-77495603D01*
X101855683Y-77506190D01*
X101867106Y-77517613D01*
X101870451Y-77518998D01*
X101873188Y-77521372D01*
X101888513Y-77526480D01*
X101903442Y-77532664D01*
X101908584Y-77533170D01*
X101910500Y-77533809D01*
X101913152Y-77533620D01*
X101923107Y-77534601D01*
X102298497Y-77534601D01*
X102298497Y-77767135D01*
X102300434Y-77786800D01*
X102315485Y-77823136D01*
X102343296Y-77850947D01*
X102379632Y-77865998D01*
X102418962Y-77865998D01*
X102455298Y-77850947D01*
X102483109Y-77823136D01*
X102498160Y-77786800D01*
X102500097Y-77767135D01*
X102500097Y-77534601D01*
X102542154Y-77534601D01*
X102561819Y-77532664D01*
X102598155Y-77517613D01*
X102625966Y-77489802D01*
X102641017Y-77453466D01*
X102641017Y-77414136D01*
X102625966Y-77377800D01*
X102598155Y-77349989D01*
X102561819Y-77334938D01*
X102542154Y-77333001D01*
X102500097Y-77333001D01*
X102500097Y-77100468D01*
X102498160Y-77080803D01*
X102483109Y-77044467D01*
X102455298Y-77016656D01*
X102418962Y-77001605D01*
X102379632Y-77001605D01*
X102343296Y-77016656D01*
X102315485Y-77044467D01*
X102300434Y-77080803D01*
X102298497Y-77100468D01*
X102298497Y-77333001D01*
X102062959Y-77333001D01*
X102256829Y-76751392D01*
X102261210Y-76732124D01*
X102258422Y-76692893D01*
X102240833Y-76657715D01*
X102211121Y-76631945D01*
X102173809Y-76619508D01*
X102134578Y-76622296D01*
X102099400Y-76639886D01*
X102073631Y-76669597D01*
X102065575Y-76687641D01*
X101827480Y-77401925D01*
X101825263Y-77411675D01*
X101824244Y-77414136D01*
X101824244Y-77416157D01*
X101823099Y-77421194D01*
X101711988Y-77421194D01*
X101711988Y-76508397D01*
X102752128Y-76508397D01*
X102752128Y-77977109D01*
G37*
G36*
X110402360Y-77977341D02*
G01*
X109315514Y-77977341D01*
X109315514Y-76747470D01*
X109426625Y-76747470D01*
X109426625Y-76786800D01*
X109441676Y-76823136D01*
X109469487Y-76850947D01*
X109505823Y-76865998D01*
X109525488Y-76867935D01*
X110039287Y-76867935D01*
X109670933Y-77727428D01*
X109664967Y-77746266D01*
X109664488Y-77785593D01*
X109679095Y-77822111D01*
X109706564Y-77850258D01*
X109742714Y-77865751D01*
X109782041Y-77866230D01*
X109818559Y-77851623D01*
X109846706Y-77824154D01*
X109856233Y-77806842D01*
X110284804Y-76806842D01*
X110290770Y-76788004D01*
X110290777Y-76787377D01*
X110291017Y-76786800D01*
X110291017Y-76767724D01*
X110291249Y-76748677D01*
X110291017Y-76748097D01*
X110291017Y-76747470D01*
X110283707Y-76729822D01*
X110276642Y-76712160D01*
X110276205Y-76711713D01*
X110275966Y-76711134D01*
X110262482Y-76697650D01*
X110249173Y-76684012D01*
X110248597Y-76683765D01*
X110248155Y-76683323D01*
X110230518Y-76676017D01*
X110213023Y-76668520D01*
X110212399Y-76668512D01*
X110211819Y-76668272D01*
X110192154Y-76666335D01*
X109525488Y-76666335D01*
X109505823Y-76668272D01*
X109469487Y-76683323D01*
X109441676Y-76711134D01*
X109426625Y-76747470D01*
X109315514Y-76747470D01*
X109315514Y-76555224D01*
X110402360Y-76555224D01*
X110402360Y-77977341D01*
G37*
G36*
X105306446Y-77979046D02*
G01*
X104311667Y-77979046D01*
X104311667Y-77253055D01*
X104422778Y-77253055D01*
X104424244Y-77257913D01*
X104424244Y-77262990D01*
X104429884Y-77276606D01*
X104434139Y-77290708D01*
X104437351Y-77294635D01*
X104439295Y-77299326D01*
X104449713Y-77309744D01*
X104459044Y-77321149D01*
X104463518Y-77323549D01*
X104467106Y-77327137D01*
X104480713Y-77332773D01*
X104493702Y-77339741D01*
X104498753Y-77340246D01*
X104503442Y-77342188D01*
X104518175Y-77342188D01*
X104532837Y-77343654D01*
X104537696Y-77342188D01*
X104542772Y-77342188D01*
X104556388Y-77336547D01*
X104570490Y-77332293D01*
X104574417Y-77329080D01*
X104579108Y-77327137D01*
X104594383Y-77314601D01*
X104630436Y-77278548D01*
X104689759Y-77248887D01*
X104880264Y-77248887D01*
X104939587Y-77278548D01*
X104964073Y-77303035D01*
X104993735Y-77362358D01*
X104993735Y-77552863D01*
X104964073Y-77612185D01*
X104939585Y-77636674D01*
X104880264Y-77666335D01*
X104689759Y-77666335D01*
X104630437Y-77636674D01*
X104594384Y-77600620D01*
X104579109Y-77588085D01*
X104542773Y-77573033D01*
X104503443Y-77573033D01*
X104467106Y-77588083D01*
X104439296Y-77615894D01*
X104424244Y-77652230D01*
X104424244Y-77691560D01*
X104439294Y-77727897D01*
X104451830Y-77743172D01*
X104499449Y-77790792D01*
X104507180Y-77797136D01*
X104508924Y-77799147D01*
X104511956Y-77801055D01*
X104514724Y-77803327D01*
X104517181Y-77804344D01*
X104525647Y-77809674D01*
X104620885Y-77857293D01*
X104639340Y-77864355D01*
X104642952Y-77864611D01*
X104646299Y-77865998D01*
X104665964Y-77867935D01*
X104904059Y-77867935D01*
X104923724Y-77865998D01*
X104927070Y-77864611D01*
X104930683Y-77864355D01*
X104949138Y-77857293D01*
X105044376Y-77809674D01*
X105052841Y-77804344D01*
X105055299Y-77803327D01*
X105058066Y-77801055D01*
X105061099Y-77799147D01*
X105062842Y-77797136D01*
X105070574Y-77790792D01*
X105118193Y-77743172D01*
X105124537Y-77735441D01*
X105126547Y-77733698D01*
X105128455Y-77730666D01*
X105130728Y-77727897D01*
X105131746Y-77725438D01*
X105137074Y-77716975D01*
X105184693Y-77621737D01*
X105191755Y-77603282D01*
X105192011Y-77599669D01*
X105193398Y-77596323D01*
X105195335Y-77576658D01*
X105195335Y-77338563D01*
X105193398Y-77318898D01*
X105192011Y-77315551D01*
X105191755Y-77311939D01*
X105184693Y-77293484D01*
X105137074Y-77198246D01*
X105131747Y-77189784D01*
X105130728Y-77187323D01*
X105128453Y-77184551D01*
X105126547Y-77181523D01*
X105124538Y-77179780D01*
X105118192Y-77172048D01*
X105070573Y-77124430D01*
X105062843Y-77118086D01*
X105061099Y-77116075D01*
X105058066Y-77114166D01*
X105055298Y-77111894D01*
X105052839Y-77110875D01*
X105044376Y-77105548D01*
X104949138Y-77057929D01*
X104930683Y-77050867D01*
X104927070Y-77050610D01*
X104923724Y-77049224D01*
X104904059Y-77047287D01*
X104665964Y-77047287D01*
X104646299Y-77049224D01*
X104643712Y-77050295D01*
X104661949Y-76867935D01*
X105046916Y-76867935D01*
X105066581Y-76865998D01*
X105102917Y-76850947D01*
X105130728Y-76823136D01*
X105145779Y-76786800D01*
X105145779Y-76747470D01*
X105130728Y-76711134D01*
X105102917Y-76683323D01*
X105066581Y-76668272D01*
X105046916Y-76666335D01*
X104570726Y-76666335D01*
X104563451Y-76667051D01*
X104560996Y-76666806D01*
X104558597Y-76667529D01*
X104551061Y-76668272D01*
X104537444Y-76673912D01*
X104523343Y-76678167D01*
X104519415Y-76681379D01*
X104514725Y-76683323D01*
X104504306Y-76693741D01*
X104492902Y-76703072D01*
X104490501Y-76707546D01*
X104486914Y-76711134D01*
X104481277Y-76724741D01*
X104474310Y-76737730D01*
X104472821Y-76745156D01*
X104471863Y-76747470D01*
X104471863Y-76749936D01*
X104470426Y-76757105D01*
X104422807Y-77233295D01*
X104422778Y-77253055D01*
X104311667Y-77253055D01*
X104311667Y-76555224D01*
X105306446Y-76555224D01*
X105306446Y-77979046D01*
G37*
G36*
X107439587Y-77278548D02*
G01*
X107464073Y-77303035D01*
X107493735Y-77362358D01*
X107493735Y-77552863D01*
X107464073Y-77612185D01*
X107439585Y-77636674D01*
X107380264Y-77666335D01*
X107237378Y-77666335D01*
X107178056Y-77636674D01*
X107153568Y-77612185D01*
X107123907Y-77552863D01*
X107123907Y-77362358D01*
X107153568Y-77303034D01*
X107178055Y-77278548D01*
X107237378Y-77248887D01*
X107380264Y-77248887D01*
X107439587Y-77278548D01*
G37*
G36*
X107806446Y-77979046D02*
G01*
X106811196Y-77979046D01*
X106811196Y-77195706D01*
X106922307Y-77195706D01*
X106922307Y-77576658D01*
X106924244Y-77596323D01*
X106925630Y-77599669D01*
X106925887Y-77603282D01*
X106932949Y-77621737D01*
X106980568Y-77716975D01*
X106985892Y-77725434D01*
X106986913Y-77727897D01*
X106989189Y-77730670D01*
X106991095Y-77733698D01*
X106993102Y-77735439D01*
X106999449Y-77743172D01*
X107047068Y-77790792D01*
X107054799Y-77797136D01*
X107056543Y-77799147D01*
X107059575Y-77801055D01*
X107062343Y-77803327D01*
X107064800Y-77804344D01*
X107073266Y-77809674D01*
X107168504Y-77857293D01*
X107186959Y-77864355D01*
X107190571Y-77864611D01*
X107193918Y-77865998D01*
X107213583Y-77867935D01*
X107404059Y-77867935D01*
X107423724Y-77865998D01*
X107427070Y-77864611D01*
X107430683Y-77864355D01*
X107449138Y-77857293D01*
X107544376Y-77809674D01*
X107552841Y-77804344D01*
X107555299Y-77803327D01*
X107558066Y-77801055D01*
X107561099Y-77799147D01*
X107562842Y-77797136D01*
X107570574Y-77790792D01*
X107618193Y-77743172D01*
X107624537Y-77735441D01*
X107626547Y-77733698D01*
X107628455Y-77730666D01*
X107630728Y-77727897D01*
X107631746Y-77725438D01*
X107637074Y-77716975D01*
X107684693Y-77621737D01*
X107691755Y-77603282D01*
X107692011Y-77599669D01*
X107693398Y-77596323D01*
X107695335Y-77576658D01*
X107695335Y-77338563D01*
X107693398Y-77318898D01*
X107692011Y-77315551D01*
X107691755Y-77311939D01*
X107684693Y-77293484D01*
X107637074Y-77198246D01*
X107631747Y-77189784D01*
X107630728Y-77187323D01*
X107628453Y-77184551D01*
X107626547Y-77181523D01*
X107624538Y-77179780D01*
X107618192Y-77172048D01*
X107570573Y-77124430D01*
X107562843Y-77118086D01*
X107561099Y-77116075D01*
X107558066Y-77114166D01*
X107555298Y-77111894D01*
X107552839Y-77110875D01*
X107544376Y-77105548D01*
X107449138Y-77057929D01*
X107430683Y-77050867D01*
X107427070Y-77050610D01*
X107423724Y-77049224D01*
X107404059Y-77047287D01*
X107213583Y-77047287D01*
X107193918Y-77049224D01*
X107190571Y-77050610D01*
X107186959Y-77050867D01*
X107168504Y-77057929D01*
X107160446Y-77061958D01*
X107164281Y-77046618D01*
X107244300Y-76926588D01*
X107273293Y-76897596D01*
X107332616Y-76867935D01*
X107499297Y-76867935D01*
X107518962Y-76865998D01*
X107555298Y-76850947D01*
X107583109Y-76823136D01*
X107598160Y-76786800D01*
X107598160Y-76747470D01*
X107583109Y-76711134D01*
X107555298Y-76683323D01*
X107518962Y-76668272D01*
X107499297Y-76666335D01*
X107308821Y-76666335D01*
X107289156Y-76668272D01*
X107285809Y-76669658D01*
X107282197Y-76669915D01*
X107263742Y-76676977D01*
X107168504Y-76724596D01*
X107160042Y-76729922D01*
X107157581Y-76730942D01*
X107154809Y-76733216D01*
X107151781Y-76735123D01*
X107150038Y-76737131D01*
X107142306Y-76743478D01*
X107094688Y-76791097D01*
X107094644Y-76791149D01*
X107094613Y-76791171D01*
X107087914Y-76799350D01*
X107082152Y-76806372D01*
X107082139Y-76806402D01*
X107082093Y-76806459D01*
X106986855Y-76949316D01*
X106981065Y-76960175D01*
X106979584Y-76962175D01*
X106978739Y-76964538D01*
X106977559Y-76966753D01*
X106977075Y-76969195D01*
X106972936Y-76980783D01*
X106925317Y-77171258D01*
X106924812Y-77174668D01*
X106924244Y-77176041D01*
X106923514Y-77183443D01*
X106922426Y-77190806D01*
X106922644Y-77192276D01*
X106922307Y-77195706D01*
X106811196Y-77195706D01*
X106811196Y-76555224D01*
X107806446Y-76555224D01*
X107806446Y-77979046D01*
G37*
G36*
X92191968Y-76897596D02*
G01*
X92216454Y-76922083D01*
X92251809Y-76992793D01*
X92293735Y-77160494D01*
X92293735Y-77373774D01*
X92251809Y-77541475D01*
X92216454Y-77612185D01*
X92191966Y-77636674D01*
X92132645Y-77666335D01*
X92084997Y-77666335D01*
X92025675Y-77636674D01*
X92001187Y-77612185D01*
X91965832Y-77541476D01*
X91923907Y-77373774D01*
X91923907Y-77160495D01*
X91965832Y-76992793D01*
X92001187Y-76922082D01*
X92025674Y-76897596D01*
X92084997Y-76867935D01*
X92132645Y-76867935D01*
X92191968Y-76897596D01*
G37*
G36*
X92606446Y-77979046D02*
G01*
X91611196Y-77979046D01*
X91611196Y-77148087D01*
X91722307Y-77148087D01*
X91722307Y-77386182D01*
X91722644Y-77389611D01*
X91722426Y-77391082D01*
X91723514Y-77398444D01*
X91724244Y-77405847D01*
X91724812Y-77407219D01*
X91725317Y-77410630D01*
X91772936Y-77601105D01*
X91773454Y-77602556D01*
X91773506Y-77603282D01*
X91776636Y-77611463D01*
X91779584Y-77619713D01*
X91780017Y-77620297D01*
X91780568Y-77621737D01*
X91828187Y-77716975D01*
X91833511Y-77725434D01*
X91834532Y-77727897D01*
X91836808Y-77730670D01*
X91838714Y-77733698D01*
X91840721Y-77735439D01*
X91847068Y-77743172D01*
X91894687Y-77790792D01*
X91902418Y-77797136D01*
X91904162Y-77799147D01*
X91907194Y-77801055D01*
X91909962Y-77803327D01*
X91912419Y-77804344D01*
X91920885Y-77809674D01*
X92016123Y-77857293D01*
X92034578Y-77864355D01*
X92038190Y-77864611D01*
X92041537Y-77865998D01*
X92061202Y-77867935D01*
X92156440Y-77867935D01*
X92176105Y-77865998D01*
X92179451Y-77864611D01*
X92183064Y-77864355D01*
X92201519Y-77857293D01*
X92296757Y-77809674D01*
X92305222Y-77804344D01*
X92307680Y-77803327D01*
X92310447Y-77801055D01*
X92313480Y-77799147D01*
X92315223Y-77797136D01*
X92322955Y-77790792D01*
X92370574Y-77743172D01*
X92376918Y-77735441D01*
X92378928Y-77733698D01*
X92380836Y-77730666D01*
X92383109Y-77727897D01*
X92384127Y-77725438D01*
X92389455Y-77716975D01*
X92437074Y-77621737D01*
X92437623Y-77620299D01*
X92438058Y-77619714D01*
X92441010Y-77611449D01*
X92444136Y-77603282D01*
X92444187Y-77602557D01*
X92444706Y-77601106D01*
X92492325Y-77410630D01*
X92492829Y-77407219D01*
X92493398Y-77405847D01*
X92494127Y-77398444D01*
X92495216Y-77391082D01*
X92494997Y-77389611D01*
X92495335Y-77386182D01*
X92495335Y-77148087D01*
X92494997Y-77144657D01*
X92495216Y-77143187D01*
X92494127Y-77135824D01*
X92493398Y-77128422D01*
X92492829Y-77127049D01*
X92492325Y-77123639D01*
X92444706Y-76933163D01*
X92444187Y-76931711D01*
X92444136Y-76930987D01*
X92441010Y-76922819D01*
X92438058Y-76914555D01*
X92437623Y-76913969D01*
X92437074Y-76912532D01*
X92389455Y-76817294D01*
X92384128Y-76808832D01*
X92383109Y-76806371D01*
X92380834Y-76803599D01*
X92378928Y-76800571D01*
X92376919Y-76798828D01*
X92370573Y-76791096D01*
X92322954Y-76743478D01*
X92315224Y-76737134D01*
X92313480Y-76735123D01*
X92310447Y-76733214D01*
X92307679Y-76730942D01*
X92305220Y-76729923D01*
X92296757Y-76724596D01*
X92201519Y-76676977D01*
X92183064Y-76669915D01*
X92179451Y-76669658D01*
X92176105Y-76668272D01*
X92156440Y-76666335D01*
X92061202Y-76666335D01*
X92041537Y-76668272D01*
X92038190Y-76669658D01*
X92034578Y-76669915D01*
X92016123Y-76676977D01*
X91920885Y-76724596D01*
X91912423Y-76729922D01*
X91909962Y-76730942D01*
X91907190Y-76733216D01*
X91904162Y-76735123D01*
X91902419Y-76737131D01*
X91894687Y-76743478D01*
X91847069Y-76791097D01*
X91840725Y-76798826D01*
X91838714Y-76800571D01*
X91836805Y-76803603D01*
X91834533Y-76806372D01*
X91833514Y-76808830D01*
X91828187Y-76817294D01*
X91780568Y-76912532D01*
X91780017Y-76913971D01*
X91779584Y-76914556D01*
X91776636Y-76922805D01*
X91773506Y-76930987D01*
X91773454Y-76931712D01*
X91772936Y-76933164D01*
X91725317Y-77123639D01*
X91724812Y-77127049D01*
X91724244Y-77128422D01*
X91723514Y-77135824D01*
X91722426Y-77143187D01*
X91722644Y-77144657D01*
X91722307Y-77148087D01*
X91611196Y-77148087D01*
X91611196Y-76555224D01*
X92606446Y-76555224D01*
X92606446Y-77979046D01*
G37*
G36*
X95154509Y-77979046D02*
G01*
X94161988Y-77979046D01*
X94161988Y-77040242D01*
X94273099Y-77040242D01*
X94275887Y-77079473D01*
X94293476Y-77114651D01*
X94323188Y-77140420D01*
X94360500Y-77152857D01*
X94399731Y-77150069D01*
X94418186Y-77143007D01*
X94513424Y-77095388D01*
X94521887Y-77090060D01*
X94524346Y-77089042D01*
X94527114Y-77086769D01*
X94530147Y-77084861D01*
X94531891Y-77082849D01*
X94539621Y-77076506D01*
X94558021Y-77058106D01*
X94558021Y-77666335D01*
X94373107Y-77666335D01*
X94353442Y-77668272D01*
X94317106Y-77683323D01*
X94289295Y-77711134D01*
X94274244Y-77747470D01*
X94274244Y-77786800D01*
X94289295Y-77823136D01*
X94317106Y-77850947D01*
X94353442Y-77865998D01*
X94373107Y-77867935D01*
X94944535Y-77867935D01*
X94964200Y-77865998D01*
X95000536Y-77850947D01*
X95028347Y-77823136D01*
X95043398Y-77786800D01*
X95043398Y-77747470D01*
X95028347Y-77711134D01*
X95000536Y-77683323D01*
X94964200Y-77668272D01*
X94944535Y-77666335D01*
X94759621Y-77666335D01*
X94759621Y-76767135D01*
X94759614Y-76767064D01*
X94759621Y-76767030D01*
X94759600Y-76766928D01*
X94757684Y-76747470D01*
X94753864Y-76738248D01*
X94751907Y-76728463D01*
X94746412Y-76720257D01*
X94742633Y-76711134D01*
X94735577Y-76704078D01*
X94730023Y-76695784D01*
X94721803Y-76690304D01*
X94714822Y-76683323D01*
X94705602Y-76679504D01*
X94697298Y-76673968D01*
X94687610Y-76672051D01*
X94678486Y-76668272D01*
X94668507Y-76668272D01*
X94658716Y-76666335D01*
X94649032Y-76668272D01*
X94639156Y-76668272D01*
X94629934Y-76672091D01*
X94620149Y-76674049D01*
X94611943Y-76679543D01*
X94602820Y-76683323D01*
X94595764Y-76690378D01*
X94587470Y-76695933D01*
X94575076Y-76711066D01*
X94575009Y-76711134D01*
X94574996Y-76711164D01*
X94574950Y-76711221D01*
X94485246Y-76845777D01*
X94408636Y-76922387D01*
X94328028Y-76962691D01*
X94311305Y-76973218D01*
X94285536Y-77002930D01*
X94273099Y-77040242D01*
X94161988Y-77040242D01*
X94161988Y-76555224D01*
X95154509Y-76555224D01*
X95154509Y-77979046D01*
G37*
G36*
X115137206Y-76897596D02*
G01*
X115161692Y-76922083D01*
X115191354Y-76981406D01*
X115191354Y-77076673D01*
X115161692Y-77135995D01*
X115137206Y-77160482D01*
X115077883Y-77190144D01*
X114821526Y-77190144D01*
X114821526Y-76867935D01*
X115077883Y-76867935D01*
X115137206Y-76897596D01*
G37*
G36*
X115504065Y-77979022D02*
G01*
X114508815Y-77979022D01*
X114508815Y-76767135D01*
X114619926Y-76767135D01*
X114619926Y-77767135D01*
X114621863Y-77786800D01*
X114636914Y-77823136D01*
X114664725Y-77850947D01*
X114701061Y-77865998D01*
X114740391Y-77865998D01*
X114776727Y-77850947D01*
X114804538Y-77823136D01*
X114819589Y-77786800D01*
X114821526Y-77767135D01*
X114821526Y-77391744D01*
X114906338Y-77391744D01*
X115209575Y-77824940D01*
X115222439Y-77839940D01*
X115255607Y-77861076D01*
X115294339Y-77867911D01*
X115332738Y-77859404D01*
X115364958Y-77836850D01*
X115386095Y-77803682D01*
X115392930Y-77764950D01*
X115384423Y-77726551D01*
X115374733Y-77709330D01*
X115145350Y-77381640D01*
X115146757Y-77381102D01*
X115241995Y-77333483D01*
X115250458Y-77328155D01*
X115252917Y-77327137D01*
X115255685Y-77324864D01*
X115258718Y-77322956D01*
X115260462Y-77320944D01*
X115268192Y-77314601D01*
X115315811Y-77266983D01*
X115322157Y-77259250D01*
X115324166Y-77257508D01*
X115326072Y-77254479D01*
X115328347Y-77251708D01*
X115329366Y-77249246D01*
X115334693Y-77240785D01*
X115382312Y-77145547D01*
X115389374Y-77127092D01*
X115389630Y-77123479D01*
X115391017Y-77120133D01*
X115392954Y-77100468D01*
X115392954Y-76957611D01*
X115391017Y-76937946D01*
X115389630Y-76934599D01*
X115389374Y-76930987D01*
X115382312Y-76912532D01*
X115334693Y-76817294D01*
X115329366Y-76808832D01*
X115328347Y-76806371D01*
X115326072Y-76803599D01*
X115324166Y-76800571D01*
X115322157Y-76798828D01*
X115315811Y-76791096D01*
X115268192Y-76743478D01*
X115260462Y-76737134D01*
X115258718Y-76735123D01*
X115255685Y-76733214D01*
X115252917Y-76730942D01*
X115250458Y-76729923D01*
X115241995Y-76724596D01*
X115146757Y-76676977D01*
X115128302Y-76669915D01*
X115124689Y-76669658D01*
X115121343Y-76668272D01*
X115101678Y-76666335D01*
X114720726Y-76666335D01*
X114701061Y-76668272D01*
X114664725Y-76683323D01*
X114636914Y-76711134D01*
X114621863Y-76747470D01*
X114619926Y-76767135D01*
X114508815Y-76767135D01*
X114508815Y-76555224D01*
X115504065Y-76555224D01*
X115504065Y-77979022D01*
G37*
G36*
X97756446Y-77979046D02*
G01*
X96715514Y-77979046D01*
X96715514Y-77747470D01*
X96826625Y-77747470D01*
X96826625Y-77786800D01*
X96841676Y-77823137D01*
X96856951Y-77838411D01*
X96869487Y-77850947D01*
X96905823Y-77865998D01*
X96925488Y-77867935D01*
X97544535Y-77867935D01*
X97564200Y-77865998D01*
X97600536Y-77850947D01*
X97628347Y-77823136D01*
X97643398Y-77786800D01*
X97643398Y-77747470D01*
X97628347Y-77711134D01*
X97600536Y-77683323D01*
X97564200Y-77668272D01*
X97544535Y-77666335D01*
X97168840Y-77666335D01*
X97568192Y-77266982D01*
X97580728Y-77251707D01*
X97582113Y-77248361D01*
X97584487Y-77245625D01*
X97592543Y-77227582D01*
X97640162Y-77084725D01*
X97642379Y-77074973D01*
X97643398Y-77072514D01*
X97643749Y-77068947D01*
X97644543Y-77065457D01*
X97644354Y-77062803D01*
X97645335Y-77052849D01*
X97645335Y-76957611D01*
X97643398Y-76937946D01*
X97642011Y-76934599D01*
X97641755Y-76930987D01*
X97634693Y-76912532D01*
X97587074Y-76817294D01*
X97581747Y-76808832D01*
X97580728Y-76806371D01*
X97578453Y-76803599D01*
X97576547Y-76800571D01*
X97574538Y-76798828D01*
X97568192Y-76791096D01*
X97520573Y-76743478D01*
X97512843Y-76737134D01*
X97511099Y-76735123D01*
X97508066Y-76733214D01*
X97505298Y-76730942D01*
X97502839Y-76729923D01*
X97494376Y-76724596D01*
X97399138Y-76676977D01*
X97380683Y-76669915D01*
X97377070Y-76669658D01*
X97373724Y-76668272D01*
X97354059Y-76666335D01*
X97115964Y-76666335D01*
X97096299Y-76668272D01*
X97092952Y-76669658D01*
X97089340Y-76669915D01*
X97070885Y-76676977D01*
X96975647Y-76724596D01*
X96967185Y-76729922D01*
X96964724Y-76730942D01*
X96961952Y-76733216D01*
X96958924Y-76735123D01*
X96957181Y-76737131D01*
X96949449Y-76743478D01*
X96901831Y-76791097D01*
X96889295Y-76806372D01*
X96874244Y-76842708D01*
X96874244Y-76882038D01*
X96889295Y-76918374D01*
X96917106Y-76946185D01*
X96953442Y-76961236D01*
X96992772Y-76961236D01*
X97029108Y-76946185D01*
X97044383Y-76933649D01*
X97080436Y-76897596D01*
X97139759Y-76867935D01*
X97330264Y-76867935D01*
X97389587Y-76897596D01*
X97414073Y-76922083D01*
X97443735Y-76981406D01*
X97443735Y-77036492D01*
X97408813Y-77141256D01*
X96854212Y-77695859D01*
X96841676Y-77711134D01*
X96826625Y-77747470D01*
X96715514Y-77747470D01*
X96715514Y-76555224D01*
X97756446Y-76555224D01*
X97756446Y-77979046D01*
G37*
G36*
X114009271Y-77979046D02*
G01*
X111016750Y-77979046D01*
X111016750Y-76779742D01*
X111127861Y-76779742D01*
X111132242Y-76799011D01*
X111465575Y-77799010D01*
X111473631Y-77817054D01*
X111478349Y-77822494D01*
X111481571Y-77828937D01*
X111491121Y-77837220D01*
X111499400Y-77846765D01*
X111505839Y-77849984D01*
X111511283Y-77854706D01*
X111523275Y-77858703D01*
X111534578Y-77864355D01*
X111541762Y-77864865D01*
X111548595Y-77867143D01*
X111561202Y-77866247D01*
X111573809Y-77867143D01*
X111580641Y-77864865D01*
X111587826Y-77864355D01*
X111599130Y-77858702D01*
X111611121Y-77854706D01*
X111616562Y-77849986D01*
X111623004Y-77846766D01*
X111631284Y-77837217D01*
X111640833Y-77828937D01*
X111644053Y-77822495D01*
X111648773Y-77817054D01*
X111656829Y-77799011D01*
X111857930Y-77195706D01*
X112079450Y-77195706D01*
X112079450Y-77338563D01*
X112079787Y-77341992D01*
X112079569Y-77343463D01*
X112080657Y-77350825D01*
X112081387Y-77358228D01*
X112081955Y-77359600D01*
X112082460Y-77363011D01*
X112130079Y-77553486D01*
X112130597Y-77554937D01*
X112130649Y-77555663D01*
X112133779Y-77563844D01*
X112136727Y-77572094D01*
X112137160Y-77572678D01*
X112137711Y-77574118D01*
X112185330Y-77669356D01*
X112190657Y-77677819D01*
X112191676Y-77680278D01*
X112193948Y-77683047D01*
X112195857Y-77686079D01*
X112197866Y-77687821D01*
X112204211Y-77695553D01*
X112299450Y-77790792D01*
X112314724Y-77803328D01*
X112318071Y-77804714D01*
X112320807Y-77807087D01*
X112338850Y-77815143D01*
X112481707Y-77862762D01*
X112491458Y-77864979D01*
X112493918Y-77865998D01*
X112497484Y-77866349D01*
X112500975Y-77867143D01*
X112503628Y-77866954D01*
X112513583Y-77867935D01*
X112608821Y-77867935D01*
X112618775Y-77866954D01*
X112621428Y-77867143D01*
X112624918Y-77866349D01*
X112628486Y-77865998D01*
X112630946Y-77864978D01*
X112640697Y-77862762D01*
X112783553Y-77815143D01*
X112801597Y-77807087D01*
X112804334Y-77804712D01*
X112807680Y-77803327D01*
X112822955Y-77790792D01*
X112870574Y-77743172D01*
X112883109Y-77727897D01*
X112898160Y-77691560D01*
X112898159Y-77652230D01*
X112883108Y-77615894D01*
X112855297Y-77588084D01*
X112818961Y-77573033D01*
X112779631Y-77573034D01*
X112743295Y-77588085D01*
X112728020Y-77600620D01*
X112697226Y-77631414D01*
X112592464Y-77666335D01*
X112529939Y-77666335D01*
X112425177Y-77631414D01*
X112358330Y-77564566D01*
X112322975Y-77493857D01*
X112281050Y-77326155D01*
X112281050Y-77208114D01*
X112284152Y-77195706D01*
X113079450Y-77195706D01*
X113079450Y-77338563D01*
X113079787Y-77341992D01*
X113079569Y-77343463D01*
X113080657Y-77350825D01*
X113081387Y-77358228D01*
X113081955Y-77359600D01*
X113082460Y-77363011D01*
X113130079Y-77553486D01*
X113130597Y-77554937D01*
X113130649Y-77555663D01*
X113133779Y-77563844D01*
X113136727Y-77572094D01*
X113137160Y-77572678D01*
X113137711Y-77574118D01*
X113185330Y-77669356D01*
X113190657Y-77677819D01*
X113191676Y-77680278D01*
X113193948Y-77683047D01*
X113195857Y-77686079D01*
X113197866Y-77687821D01*
X113204211Y-77695553D01*
X113299450Y-77790792D01*
X113314724Y-77803328D01*
X113318071Y-77804714D01*
X113320807Y-77807087D01*
X113338850Y-77815143D01*
X113481707Y-77862762D01*
X113491458Y-77864979D01*
X113493918Y-77865998D01*
X113497484Y-77866349D01*
X113500975Y-77867143D01*
X113503628Y-77866954D01*
X113513583Y-77867935D01*
X113608821Y-77867935D01*
X113618775Y-77866954D01*
X113621428Y-77867143D01*
X113624918Y-77866349D01*
X113628486Y-77865998D01*
X113630946Y-77864978D01*
X113640697Y-77862762D01*
X113783553Y-77815143D01*
X113801597Y-77807087D01*
X113804334Y-77804712D01*
X113807680Y-77803327D01*
X113822955Y-77790792D01*
X113870574Y-77743172D01*
X113883109Y-77727897D01*
X113898160Y-77691560D01*
X113898159Y-77652230D01*
X113883108Y-77615894D01*
X113855297Y-77588084D01*
X113818961Y-77573033D01*
X113779631Y-77573034D01*
X113743295Y-77588085D01*
X113728020Y-77600620D01*
X113697226Y-77631414D01*
X113592464Y-77666335D01*
X113529939Y-77666335D01*
X113425177Y-77631414D01*
X113358330Y-77564566D01*
X113322975Y-77493857D01*
X113281050Y-77326155D01*
X113281050Y-77208114D01*
X113322975Y-77040412D01*
X113358331Y-76969701D01*
X113425175Y-76902856D01*
X113529939Y-76867935D01*
X113592464Y-76867935D01*
X113697227Y-76902856D01*
X113728020Y-76933649D01*
X113743295Y-76946185D01*
X113779631Y-76961235D01*
X113818962Y-76961235D01*
X113855298Y-76946185D01*
X113883109Y-76918374D01*
X113898159Y-76882038D01*
X113898159Y-76842707D01*
X113883109Y-76806371D01*
X113870573Y-76791096D01*
X113822954Y-76743478D01*
X113807679Y-76730942D01*
X113804333Y-76729556D01*
X113801597Y-76727183D01*
X113783553Y-76719127D01*
X113640697Y-76671508D01*
X113630946Y-76669291D01*
X113628486Y-76668272D01*
X113624918Y-76667920D01*
X113621428Y-76667127D01*
X113618775Y-76667315D01*
X113608821Y-76666335D01*
X113513583Y-76666335D01*
X113503628Y-76667315D01*
X113500975Y-76667127D01*
X113497484Y-76667920D01*
X113493918Y-76668272D01*
X113491458Y-76669290D01*
X113481707Y-76671508D01*
X113338850Y-76719127D01*
X113320807Y-76727183D01*
X113318070Y-76729556D01*
X113314725Y-76730942D01*
X113299450Y-76743478D01*
X113204212Y-76838716D01*
X113197868Y-76846445D01*
X113195857Y-76848190D01*
X113193948Y-76851222D01*
X113191676Y-76853991D01*
X113190657Y-76856449D01*
X113185330Y-76864913D01*
X113137711Y-76960151D01*
X113137160Y-76961590D01*
X113136727Y-76962175D01*
X113133779Y-76970424D01*
X113130649Y-76978606D01*
X113130597Y-76979331D01*
X113130079Y-76980783D01*
X113082460Y-77171258D01*
X113081955Y-77174668D01*
X113081387Y-77176041D01*
X113080657Y-77183443D01*
X113079569Y-77190806D01*
X113079787Y-77192276D01*
X113079450Y-77195706D01*
X112284152Y-77195706D01*
X112322975Y-77040412D01*
X112358331Y-76969701D01*
X112425175Y-76902856D01*
X112529939Y-76867935D01*
X112592464Y-76867935D01*
X112697227Y-76902856D01*
X112728020Y-76933649D01*
X112743295Y-76946185D01*
X112779631Y-76961235D01*
X112818962Y-76961235D01*
X112855298Y-76946185D01*
X112883109Y-76918374D01*
X112898159Y-76882038D01*
X112898159Y-76842707D01*
X112883109Y-76806371D01*
X112870573Y-76791096D01*
X112822954Y-76743478D01*
X112807679Y-76730942D01*
X112804333Y-76729556D01*
X112801597Y-76727183D01*
X112783553Y-76719127D01*
X112640697Y-76671508D01*
X112630946Y-76669291D01*
X112628486Y-76668272D01*
X112624918Y-76667920D01*
X112621428Y-76667127D01*
X112618775Y-76667315D01*
X112608821Y-76666335D01*
X112513583Y-76666335D01*
X112503628Y-76667315D01*
X112500975Y-76667127D01*
X112497484Y-76667920D01*
X112493918Y-76668272D01*
X112491458Y-76669290D01*
X112481707Y-76671508D01*
X112338850Y-76719127D01*
X112320807Y-76727183D01*
X112318070Y-76729556D01*
X112314725Y-76730942D01*
X112299450Y-76743478D01*
X112204212Y-76838716D01*
X112197868Y-76846445D01*
X112195857Y-76848190D01*
X112193948Y-76851222D01*
X112191676Y-76853991D01*
X112190657Y-76856449D01*
X112185330Y-76864913D01*
X112137711Y-76960151D01*
X112137160Y-76961590D01*
X112136727Y-76962175D01*
X112133779Y-76970424D01*
X112130649Y-76978606D01*
X112130597Y-76979331D01*
X112130079Y-76980783D01*
X112082460Y-77171258D01*
X112081955Y-77174668D01*
X112081387Y-77176041D01*
X112080657Y-77183443D01*
X112079569Y-77190806D01*
X112079787Y-77192276D01*
X112079450Y-77195706D01*
X111857930Y-77195706D01*
X111990162Y-76799011D01*
X111994543Y-76779743D01*
X111991755Y-76740512D01*
X111974166Y-76705333D01*
X111944454Y-76679564D01*
X111907142Y-76667127D01*
X111867911Y-76669915D01*
X111832733Y-76687505D01*
X111806964Y-76717216D01*
X111798908Y-76735260D01*
X111561202Y-77448377D01*
X111323496Y-76735259D01*
X111315440Y-76717216D01*
X111289671Y-76687504D01*
X111254493Y-76669915D01*
X111215262Y-76667127D01*
X111177950Y-76679564D01*
X111148238Y-76705333D01*
X111130649Y-76740511D01*
X111127861Y-76779742D01*
X111016750Y-76779742D01*
X111016750Y-76555224D01*
X114009271Y-76555224D01*
X114009271Y-77979046D01*
G37*
D16*
X99616666Y-56628059D02*
X99450000Y-56389964D01*
X99330952Y-56628059D02*
X99330952Y-56128059D01*
X99330952Y-56128059D02*
X99521428Y-56128059D01*
X99521428Y-56128059D02*
X99569047Y-56151869D01*
X99569047Y-56151869D02*
X99592857Y-56175678D01*
X99592857Y-56175678D02*
X99616666Y-56223297D01*
X99616666Y-56223297D02*
X99616666Y-56294726D01*
X99616666Y-56294726D02*
X99592857Y-56342345D01*
X99592857Y-56342345D02*
X99569047Y-56366154D01*
X99569047Y-56366154D02*
X99521428Y-56389964D01*
X99521428Y-56389964D02*
X99330952Y-56389964D01*
X100045238Y-56294726D02*
X100045238Y-56628059D01*
X99926190Y-56104250D02*
X99807143Y-56461392D01*
X99807143Y-56461392D02*
X100116666Y-56461392D01*
D17*
X103123988Y-55464978D02*
X103123988Y-54880778D01*
X103123988Y-54880778D02*
X103346540Y-54880778D01*
X103346540Y-54880778D02*
X103402178Y-54908597D01*
X103402178Y-54908597D02*
X103429997Y-54936416D01*
X103429997Y-54936416D02*
X103457816Y-54992054D01*
X103457816Y-54992054D02*
X103457816Y-55075511D01*
X103457816Y-55075511D02*
X103429997Y-55131149D01*
X103429997Y-55131149D02*
X103402178Y-55158968D01*
X103402178Y-55158968D02*
X103346540Y-55186787D01*
X103346540Y-55186787D02*
X103123988Y-55186787D01*
X104014197Y-55464978D02*
X103680369Y-55464978D01*
X103847283Y-55464978D02*
X103847283Y-54880778D01*
X103847283Y-54880778D02*
X103791645Y-54964235D01*
X103791645Y-54964235D02*
X103736007Y-55019873D01*
X103736007Y-55019873D02*
X103680369Y-55047692D01*
D16*
X115378059Y-65683333D02*
X115139964Y-65849999D01*
X115378059Y-65969047D02*
X114878059Y-65969047D01*
X114878059Y-65969047D02*
X114878059Y-65778571D01*
X114878059Y-65778571D02*
X114901869Y-65730952D01*
X114901869Y-65730952D02*
X114925678Y-65707142D01*
X114925678Y-65707142D02*
X114973297Y-65683333D01*
X114973297Y-65683333D02*
X115044726Y-65683333D01*
X115044726Y-65683333D02*
X115092345Y-65707142D01*
X115092345Y-65707142D02*
X115116154Y-65730952D01*
X115116154Y-65730952D02*
X115139964Y-65778571D01*
X115139964Y-65778571D02*
X115139964Y-65969047D01*
X115092345Y-65397618D02*
X115068535Y-65445237D01*
X115068535Y-65445237D02*
X115044726Y-65469047D01*
X115044726Y-65469047D02*
X114997107Y-65492856D01*
X114997107Y-65492856D02*
X114973297Y-65492856D01*
X114973297Y-65492856D02*
X114925678Y-65469047D01*
X114925678Y-65469047D02*
X114901869Y-65445237D01*
X114901869Y-65445237D02*
X114878059Y-65397618D01*
X114878059Y-65397618D02*
X114878059Y-65302380D01*
X114878059Y-65302380D02*
X114901869Y-65254761D01*
X114901869Y-65254761D02*
X114925678Y-65230952D01*
X114925678Y-65230952D02*
X114973297Y-65207142D01*
X114973297Y-65207142D02*
X114997107Y-65207142D01*
X114997107Y-65207142D02*
X115044726Y-65230952D01*
X115044726Y-65230952D02*
X115068535Y-65254761D01*
X115068535Y-65254761D02*
X115092345Y-65302380D01*
X115092345Y-65302380D02*
X115092345Y-65397618D01*
X115092345Y-65397618D02*
X115116154Y-65445237D01*
X115116154Y-65445237D02*
X115139964Y-65469047D01*
X115139964Y-65469047D02*
X115187583Y-65492856D01*
X115187583Y-65492856D02*
X115282821Y-65492856D01*
X115282821Y-65492856D02*
X115330440Y-65469047D01*
X115330440Y-65469047D02*
X115354250Y-65445237D01*
X115354250Y-65445237D02*
X115378059Y-65397618D01*
X115378059Y-65397618D02*
X115378059Y-65302380D01*
X115378059Y-65302380D02*
X115354250Y-65254761D01*
X115354250Y-65254761D02*
X115330440Y-65230952D01*
X115330440Y-65230952D02*
X115282821Y-65207142D01*
X115282821Y-65207142D02*
X115187583Y-65207142D01*
X115187583Y-65207142D02*
X115139964Y-65230952D01*
X115139964Y-65230952D02*
X115116154Y-65254761D01*
X115116154Y-65254761D02*
X115092345Y-65302380D01*
X92780440Y-54521428D02*
X92804250Y-54545237D01*
X92804250Y-54545237D02*
X92828059Y-54616666D01*
X92828059Y-54616666D02*
X92828059Y-54664285D01*
X92828059Y-54664285D02*
X92804250Y-54735713D01*
X92804250Y-54735713D02*
X92756630Y-54783332D01*
X92756630Y-54783332D02*
X92709011Y-54807142D01*
X92709011Y-54807142D02*
X92613773Y-54830951D01*
X92613773Y-54830951D02*
X92542345Y-54830951D01*
X92542345Y-54830951D02*
X92447107Y-54807142D01*
X92447107Y-54807142D02*
X92399488Y-54783332D01*
X92399488Y-54783332D02*
X92351869Y-54735713D01*
X92351869Y-54735713D02*
X92328059Y-54664285D01*
X92328059Y-54664285D02*
X92328059Y-54616666D01*
X92328059Y-54616666D02*
X92351869Y-54545237D01*
X92351869Y-54545237D02*
X92375678Y-54521428D01*
X92828059Y-54045237D02*
X92828059Y-54330951D01*
X92828059Y-54188094D02*
X92328059Y-54188094D01*
X92328059Y-54188094D02*
X92399488Y-54235713D01*
X92399488Y-54235713D02*
X92447107Y-54283332D01*
X92447107Y-54283332D02*
X92470916Y-54330951D01*
X92828059Y-53807142D02*
X92828059Y-53711904D01*
X92828059Y-53711904D02*
X92804250Y-53664285D01*
X92804250Y-53664285D02*
X92780440Y-53640476D01*
X92780440Y-53640476D02*
X92709011Y-53592857D01*
X92709011Y-53592857D02*
X92613773Y-53569047D01*
X92613773Y-53569047D02*
X92423297Y-53569047D01*
X92423297Y-53569047D02*
X92375678Y-53592857D01*
X92375678Y-53592857D02*
X92351869Y-53616666D01*
X92351869Y-53616666D02*
X92328059Y-53664285D01*
X92328059Y-53664285D02*
X92328059Y-53759523D01*
X92328059Y-53759523D02*
X92351869Y-53807142D01*
X92351869Y-53807142D02*
X92375678Y-53830952D01*
X92375678Y-53830952D02*
X92423297Y-53854761D01*
X92423297Y-53854761D02*
X92542345Y-53854761D01*
X92542345Y-53854761D02*
X92589964Y-53830952D01*
X92589964Y-53830952D02*
X92613773Y-53807142D01*
X92613773Y-53807142D02*
X92637583Y-53759523D01*
X92637583Y-53759523D02*
X92637583Y-53664285D01*
X92637583Y-53664285D02*
X92613773Y-53616666D01*
X92613773Y-53616666D02*
X92589964Y-53592857D01*
X92589964Y-53592857D02*
X92542345Y-53569047D01*
D18*
X94927669Y-69383333D02*
X94689574Y-69549999D01*
X94927669Y-69669047D02*
X94427669Y-69669047D01*
X94427669Y-69669047D02*
X94427669Y-69478571D01*
X94427669Y-69478571D02*
X94451479Y-69430952D01*
X94451479Y-69430952D02*
X94475288Y-69407142D01*
X94475288Y-69407142D02*
X94522907Y-69383333D01*
X94522907Y-69383333D02*
X94594336Y-69383333D01*
X94594336Y-69383333D02*
X94641955Y-69407142D01*
X94641955Y-69407142D02*
X94665764Y-69430952D01*
X94665764Y-69430952D02*
X94689574Y-69478571D01*
X94689574Y-69478571D02*
X94689574Y-69669047D01*
X94427669Y-68930952D02*
X94427669Y-69169047D01*
X94427669Y-69169047D02*
X94665764Y-69192856D01*
X94665764Y-69192856D02*
X94641955Y-69169047D01*
X94641955Y-69169047D02*
X94618145Y-69121428D01*
X94618145Y-69121428D02*
X94618145Y-69002380D01*
X94618145Y-69002380D02*
X94641955Y-68954761D01*
X94641955Y-68954761D02*
X94665764Y-68930952D01*
X94665764Y-68930952D02*
X94713383Y-68907142D01*
X94713383Y-68907142D02*
X94832431Y-68907142D01*
X94832431Y-68907142D02*
X94880050Y-68930952D01*
X94880050Y-68930952D02*
X94903860Y-68954761D01*
X94903860Y-68954761D02*
X94927669Y-69002380D01*
X94927669Y-69002380D02*
X94927669Y-69121428D01*
X94927669Y-69121428D02*
X94903860Y-69169047D01*
X94903860Y-69169047D02*
X94880050Y-69192856D01*
D16*
X115639964Y-61788094D02*
X115878059Y-61788094D01*
X115378059Y-61954760D02*
X115639964Y-61788094D01*
X115639964Y-61788094D02*
X115378059Y-61621427D01*
X115878059Y-61192856D02*
X115878059Y-61478570D01*
X115878059Y-61335713D02*
X115378059Y-61335713D01*
X115378059Y-61335713D02*
X115449488Y-61383332D01*
X115449488Y-61383332D02*
X115497107Y-61430951D01*
X115497107Y-61430951D02*
X115520916Y-61478570D01*
X93180440Y-65233333D02*
X93204250Y-65257142D01*
X93204250Y-65257142D02*
X93228059Y-65328571D01*
X93228059Y-65328571D02*
X93228059Y-65376190D01*
X93228059Y-65376190D02*
X93204250Y-65447618D01*
X93204250Y-65447618D02*
X93156630Y-65495237D01*
X93156630Y-65495237D02*
X93109011Y-65519047D01*
X93109011Y-65519047D02*
X93013773Y-65542856D01*
X93013773Y-65542856D02*
X92942345Y-65542856D01*
X92942345Y-65542856D02*
X92847107Y-65519047D01*
X92847107Y-65519047D02*
X92799488Y-65495237D01*
X92799488Y-65495237D02*
X92751869Y-65447618D01*
X92751869Y-65447618D02*
X92728059Y-65376190D01*
X92728059Y-65376190D02*
X92728059Y-65328571D01*
X92728059Y-65328571D02*
X92751869Y-65257142D01*
X92751869Y-65257142D02*
X92775678Y-65233333D01*
X93228059Y-64757142D02*
X93228059Y-65042856D01*
X93228059Y-64899999D02*
X92728059Y-64899999D01*
X92728059Y-64899999D02*
X92799488Y-64947618D01*
X92799488Y-64947618D02*
X92847107Y-64995237D01*
X92847107Y-64995237D02*
X92870916Y-65042856D01*
X106916666Y-58730440D02*
X106892857Y-58754250D01*
X106892857Y-58754250D02*
X106821428Y-58778059D01*
X106821428Y-58778059D02*
X106773809Y-58778059D01*
X106773809Y-58778059D02*
X106702381Y-58754250D01*
X106702381Y-58754250D02*
X106654762Y-58706630D01*
X106654762Y-58706630D02*
X106630952Y-58659011D01*
X106630952Y-58659011D02*
X106607143Y-58563773D01*
X106607143Y-58563773D02*
X106607143Y-58492345D01*
X106607143Y-58492345D02*
X106630952Y-58397107D01*
X106630952Y-58397107D02*
X106654762Y-58349488D01*
X106654762Y-58349488D02*
X106702381Y-58301869D01*
X106702381Y-58301869D02*
X106773809Y-58278059D01*
X106773809Y-58278059D02*
X106821428Y-58278059D01*
X106821428Y-58278059D02*
X106892857Y-58301869D01*
X106892857Y-58301869D02*
X106916666Y-58325678D01*
X107154762Y-58778059D02*
X107250000Y-58778059D01*
X107250000Y-58778059D02*
X107297619Y-58754250D01*
X107297619Y-58754250D02*
X107321428Y-58730440D01*
X107321428Y-58730440D02*
X107369047Y-58659011D01*
X107369047Y-58659011D02*
X107392857Y-58563773D01*
X107392857Y-58563773D02*
X107392857Y-58373297D01*
X107392857Y-58373297D02*
X107369047Y-58325678D01*
X107369047Y-58325678D02*
X107345238Y-58301869D01*
X107345238Y-58301869D02*
X107297619Y-58278059D01*
X107297619Y-58278059D02*
X107202381Y-58278059D01*
X107202381Y-58278059D02*
X107154762Y-58301869D01*
X107154762Y-58301869D02*
X107130952Y-58325678D01*
X107130952Y-58325678D02*
X107107143Y-58373297D01*
X107107143Y-58373297D02*
X107107143Y-58492345D01*
X107107143Y-58492345D02*
X107130952Y-58539964D01*
X107130952Y-58539964D02*
X107154762Y-58563773D01*
X107154762Y-58563773D02*
X107202381Y-58587583D01*
X107202381Y-58587583D02*
X107297619Y-58587583D01*
X107297619Y-58587583D02*
X107345238Y-58563773D01*
X107345238Y-58563773D02*
X107369047Y-58539964D01*
X107369047Y-58539964D02*
X107392857Y-58492345D01*
X110716666Y-55480440D02*
X110692857Y-55504250D01*
X110692857Y-55504250D02*
X110621428Y-55528059D01*
X110621428Y-55528059D02*
X110573809Y-55528059D01*
X110573809Y-55528059D02*
X110502381Y-55504250D01*
X110502381Y-55504250D02*
X110454762Y-55456630D01*
X110454762Y-55456630D02*
X110430952Y-55409011D01*
X110430952Y-55409011D02*
X110407143Y-55313773D01*
X110407143Y-55313773D02*
X110407143Y-55242345D01*
X110407143Y-55242345D02*
X110430952Y-55147107D01*
X110430952Y-55147107D02*
X110454762Y-55099488D01*
X110454762Y-55099488D02*
X110502381Y-55051869D01*
X110502381Y-55051869D02*
X110573809Y-55028059D01*
X110573809Y-55028059D02*
X110621428Y-55028059D01*
X110621428Y-55028059D02*
X110692857Y-55051869D01*
X110692857Y-55051869D02*
X110716666Y-55075678D01*
X110907143Y-55075678D02*
X110930952Y-55051869D01*
X110930952Y-55051869D02*
X110978571Y-55028059D01*
X110978571Y-55028059D02*
X111097619Y-55028059D01*
X111097619Y-55028059D02*
X111145238Y-55051869D01*
X111145238Y-55051869D02*
X111169047Y-55075678D01*
X111169047Y-55075678D02*
X111192857Y-55123297D01*
X111192857Y-55123297D02*
X111192857Y-55170916D01*
X111192857Y-55170916D02*
X111169047Y-55242345D01*
X111169047Y-55242345D02*
X110883333Y-55528059D01*
X110883333Y-55528059D02*
X111192857Y-55528059D01*
X106628571Y-61880440D02*
X106604762Y-61904250D01*
X106604762Y-61904250D02*
X106533333Y-61928059D01*
X106533333Y-61928059D02*
X106485714Y-61928059D01*
X106485714Y-61928059D02*
X106414286Y-61904250D01*
X106414286Y-61904250D02*
X106366667Y-61856630D01*
X106366667Y-61856630D02*
X106342857Y-61809011D01*
X106342857Y-61809011D02*
X106319048Y-61713773D01*
X106319048Y-61713773D02*
X106319048Y-61642345D01*
X106319048Y-61642345D02*
X106342857Y-61547107D01*
X106342857Y-61547107D02*
X106366667Y-61499488D01*
X106366667Y-61499488D02*
X106414286Y-61451869D01*
X106414286Y-61451869D02*
X106485714Y-61428059D01*
X106485714Y-61428059D02*
X106533333Y-61428059D01*
X106533333Y-61428059D02*
X106604762Y-61451869D01*
X106604762Y-61451869D02*
X106628571Y-61475678D01*
X107104762Y-61928059D02*
X106819048Y-61928059D01*
X106961905Y-61928059D02*
X106961905Y-61428059D01*
X106961905Y-61428059D02*
X106914286Y-61499488D01*
X106914286Y-61499488D02*
X106866667Y-61547107D01*
X106866667Y-61547107D02*
X106819048Y-61570916D01*
X107414285Y-61428059D02*
X107461904Y-61428059D01*
X107461904Y-61428059D02*
X107509523Y-61451869D01*
X107509523Y-61451869D02*
X107533333Y-61475678D01*
X107533333Y-61475678D02*
X107557142Y-61523297D01*
X107557142Y-61523297D02*
X107580952Y-61618535D01*
X107580952Y-61618535D02*
X107580952Y-61737583D01*
X107580952Y-61737583D02*
X107557142Y-61832821D01*
X107557142Y-61832821D02*
X107533333Y-61880440D01*
X107533333Y-61880440D02*
X107509523Y-61904250D01*
X107509523Y-61904250D02*
X107461904Y-61928059D01*
X107461904Y-61928059D02*
X107414285Y-61928059D01*
X107414285Y-61928059D02*
X107366666Y-61904250D01*
X107366666Y-61904250D02*
X107342857Y-61880440D01*
X107342857Y-61880440D02*
X107319047Y-61832821D01*
X107319047Y-61832821D02*
X107295238Y-61737583D01*
X107295238Y-61737583D02*
X107295238Y-61618535D01*
X107295238Y-61618535D02*
X107319047Y-61523297D01*
X107319047Y-61523297D02*
X107342857Y-61475678D01*
X107342857Y-61475678D02*
X107366666Y-61451869D01*
X107366666Y-61451869D02*
X107414285Y-61428059D01*
D18*
X93780050Y-69871428D02*
X93803860Y-69895237D01*
X93803860Y-69895237D02*
X93827669Y-69966666D01*
X93827669Y-69966666D02*
X93827669Y-70014285D01*
X93827669Y-70014285D02*
X93803860Y-70085713D01*
X93803860Y-70085713D02*
X93756240Y-70133332D01*
X93756240Y-70133332D02*
X93708621Y-70157142D01*
X93708621Y-70157142D02*
X93613383Y-70180951D01*
X93613383Y-70180951D02*
X93541955Y-70180951D01*
X93541955Y-70180951D02*
X93446717Y-70157142D01*
X93446717Y-70157142D02*
X93399098Y-70133332D01*
X93399098Y-70133332D02*
X93351479Y-70085713D01*
X93351479Y-70085713D02*
X93327669Y-70014285D01*
X93327669Y-70014285D02*
X93327669Y-69966666D01*
X93327669Y-69966666D02*
X93351479Y-69895237D01*
X93351479Y-69895237D02*
X93375288Y-69871428D01*
X93827669Y-69395237D02*
X93827669Y-69680951D01*
X93827669Y-69538094D02*
X93327669Y-69538094D01*
X93327669Y-69538094D02*
X93399098Y-69585713D01*
X93399098Y-69585713D02*
X93446717Y-69633332D01*
X93446717Y-69633332D02*
X93470526Y-69680951D01*
X93327669Y-69228571D02*
X93327669Y-68895238D01*
X93327669Y-68895238D02*
X93827669Y-69109523D01*
D16*
X101966666Y-62180440D02*
X101942857Y-62204250D01*
X101942857Y-62204250D02*
X101871428Y-62228059D01*
X101871428Y-62228059D02*
X101823809Y-62228059D01*
X101823809Y-62228059D02*
X101752381Y-62204250D01*
X101752381Y-62204250D02*
X101704762Y-62156630D01*
X101704762Y-62156630D02*
X101680952Y-62109011D01*
X101680952Y-62109011D02*
X101657143Y-62013773D01*
X101657143Y-62013773D02*
X101657143Y-61942345D01*
X101657143Y-61942345D02*
X101680952Y-61847107D01*
X101680952Y-61847107D02*
X101704762Y-61799488D01*
X101704762Y-61799488D02*
X101752381Y-61751869D01*
X101752381Y-61751869D02*
X101823809Y-61728059D01*
X101823809Y-61728059D02*
X101871428Y-61728059D01*
X101871428Y-61728059D02*
X101942857Y-61751869D01*
X101942857Y-61751869D02*
X101966666Y-61775678D01*
X102252381Y-61942345D02*
X102204762Y-61918535D01*
X102204762Y-61918535D02*
X102180952Y-61894726D01*
X102180952Y-61894726D02*
X102157143Y-61847107D01*
X102157143Y-61847107D02*
X102157143Y-61823297D01*
X102157143Y-61823297D02*
X102180952Y-61775678D01*
X102180952Y-61775678D02*
X102204762Y-61751869D01*
X102204762Y-61751869D02*
X102252381Y-61728059D01*
X102252381Y-61728059D02*
X102347619Y-61728059D01*
X102347619Y-61728059D02*
X102395238Y-61751869D01*
X102395238Y-61751869D02*
X102419047Y-61775678D01*
X102419047Y-61775678D02*
X102442857Y-61823297D01*
X102442857Y-61823297D02*
X102442857Y-61847107D01*
X102442857Y-61847107D02*
X102419047Y-61894726D01*
X102419047Y-61894726D02*
X102395238Y-61918535D01*
X102395238Y-61918535D02*
X102347619Y-61942345D01*
X102347619Y-61942345D02*
X102252381Y-61942345D01*
X102252381Y-61942345D02*
X102204762Y-61966154D01*
X102204762Y-61966154D02*
X102180952Y-61989964D01*
X102180952Y-61989964D02*
X102157143Y-62037583D01*
X102157143Y-62037583D02*
X102157143Y-62132821D01*
X102157143Y-62132821D02*
X102180952Y-62180440D01*
X102180952Y-62180440D02*
X102204762Y-62204250D01*
X102204762Y-62204250D02*
X102252381Y-62228059D01*
X102252381Y-62228059D02*
X102347619Y-62228059D01*
X102347619Y-62228059D02*
X102395238Y-62204250D01*
X102395238Y-62204250D02*
X102419047Y-62180440D01*
X102419047Y-62180440D02*
X102442857Y-62132821D01*
X102442857Y-62132821D02*
X102442857Y-62037583D01*
X102442857Y-62037583D02*
X102419047Y-61989964D01*
X102419047Y-61989964D02*
X102395238Y-61966154D01*
X102395238Y-61966154D02*
X102347619Y-61942345D01*
X96430440Y-63433333D02*
X96454250Y-63457142D01*
X96454250Y-63457142D02*
X96478059Y-63528571D01*
X96478059Y-63528571D02*
X96478059Y-63576190D01*
X96478059Y-63576190D02*
X96454250Y-63647618D01*
X96454250Y-63647618D02*
X96406630Y-63695237D01*
X96406630Y-63695237D02*
X96359011Y-63719047D01*
X96359011Y-63719047D02*
X96263773Y-63742856D01*
X96263773Y-63742856D02*
X96192345Y-63742856D01*
X96192345Y-63742856D02*
X96097107Y-63719047D01*
X96097107Y-63719047D02*
X96049488Y-63695237D01*
X96049488Y-63695237D02*
X96001869Y-63647618D01*
X96001869Y-63647618D02*
X95978059Y-63576190D01*
X95978059Y-63576190D02*
X95978059Y-63528571D01*
X95978059Y-63528571D02*
X96001869Y-63457142D01*
X96001869Y-63457142D02*
X96025678Y-63433333D01*
X95978059Y-63266666D02*
X95978059Y-62957142D01*
X95978059Y-62957142D02*
X96168535Y-63123809D01*
X96168535Y-63123809D02*
X96168535Y-63052380D01*
X96168535Y-63052380D02*
X96192345Y-63004761D01*
X96192345Y-63004761D02*
X96216154Y-62980952D01*
X96216154Y-62980952D02*
X96263773Y-62957142D01*
X96263773Y-62957142D02*
X96382821Y-62957142D01*
X96382821Y-62957142D02*
X96430440Y-62980952D01*
X96430440Y-62980952D02*
X96454250Y-63004761D01*
X96454250Y-63004761D02*
X96478059Y-63052380D01*
X96478059Y-63052380D02*
X96478059Y-63195237D01*
X96478059Y-63195237D02*
X96454250Y-63242856D01*
X96454250Y-63242856D02*
X96430440Y-63266666D01*
X91930440Y-63283333D02*
X91954250Y-63307142D01*
X91954250Y-63307142D02*
X91978059Y-63378571D01*
X91978059Y-63378571D02*
X91978059Y-63426190D01*
X91978059Y-63426190D02*
X91954250Y-63497618D01*
X91954250Y-63497618D02*
X91906630Y-63545237D01*
X91906630Y-63545237D02*
X91859011Y-63569047D01*
X91859011Y-63569047D02*
X91763773Y-63592856D01*
X91763773Y-63592856D02*
X91692345Y-63592856D01*
X91692345Y-63592856D02*
X91597107Y-63569047D01*
X91597107Y-63569047D02*
X91549488Y-63545237D01*
X91549488Y-63545237D02*
X91501869Y-63497618D01*
X91501869Y-63497618D02*
X91478059Y-63426190D01*
X91478059Y-63426190D02*
X91478059Y-63378571D01*
X91478059Y-63378571D02*
X91501869Y-63307142D01*
X91501869Y-63307142D02*
X91525678Y-63283333D01*
X91478059Y-62830952D02*
X91478059Y-63069047D01*
X91478059Y-63069047D02*
X91716154Y-63092856D01*
X91716154Y-63092856D02*
X91692345Y-63069047D01*
X91692345Y-63069047D02*
X91668535Y-63021428D01*
X91668535Y-63021428D02*
X91668535Y-62902380D01*
X91668535Y-62902380D02*
X91692345Y-62854761D01*
X91692345Y-62854761D02*
X91716154Y-62830952D01*
X91716154Y-62830952D02*
X91763773Y-62807142D01*
X91763773Y-62807142D02*
X91882821Y-62807142D01*
X91882821Y-62807142D02*
X91930440Y-62830952D01*
X91930440Y-62830952D02*
X91954250Y-62854761D01*
X91954250Y-62854761D02*
X91978059Y-62902380D01*
X91978059Y-62902380D02*
X91978059Y-63021428D01*
X91978059Y-63021428D02*
X91954250Y-63069047D01*
X91954250Y-63069047D02*
X91930440Y-63092856D01*
X100866666Y-64628059D02*
X100700000Y-64389964D01*
X100580952Y-64628059D02*
X100580952Y-64128059D01*
X100580952Y-64128059D02*
X100771428Y-64128059D01*
X100771428Y-64128059D02*
X100819047Y-64151869D01*
X100819047Y-64151869D02*
X100842857Y-64175678D01*
X100842857Y-64175678D02*
X100866666Y-64223297D01*
X100866666Y-64223297D02*
X100866666Y-64294726D01*
X100866666Y-64294726D02*
X100842857Y-64342345D01*
X100842857Y-64342345D02*
X100819047Y-64366154D01*
X100819047Y-64366154D02*
X100771428Y-64389964D01*
X100771428Y-64389964D02*
X100580952Y-64389964D01*
X101033333Y-64128059D02*
X101342857Y-64128059D01*
X101342857Y-64128059D02*
X101176190Y-64318535D01*
X101176190Y-64318535D02*
X101247619Y-64318535D01*
X101247619Y-64318535D02*
X101295238Y-64342345D01*
X101295238Y-64342345D02*
X101319047Y-64366154D01*
X101319047Y-64366154D02*
X101342857Y-64413773D01*
X101342857Y-64413773D02*
X101342857Y-64532821D01*
X101342857Y-64532821D02*
X101319047Y-64580440D01*
X101319047Y-64580440D02*
X101295238Y-64604250D01*
X101295238Y-64604250D02*
X101247619Y-64628059D01*
X101247619Y-64628059D02*
X101104762Y-64628059D01*
X101104762Y-64628059D02*
X101057143Y-64604250D01*
X101057143Y-64604250D02*
X101033333Y-64580440D01*
X91819047Y-55728059D02*
X91819047Y-56132821D01*
X91819047Y-56132821D02*
X91842857Y-56180440D01*
X91842857Y-56180440D02*
X91866666Y-56204250D01*
X91866666Y-56204250D02*
X91914285Y-56228059D01*
X91914285Y-56228059D02*
X92009523Y-56228059D01*
X92009523Y-56228059D02*
X92057142Y-56204250D01*
X92057142Y-56204250D02*
X92080952Y-56180440D01*
X92080952Y-56180440D02*
X92104761Y-56132821D01*
X92104761Y-56132821D02*
X92104761Y-55728059D01*
X92557143Y-55894726D02*
X92557143Y-56228059D01*
X92438095Y-55704250D02*
X92319048Y-56061392D01*
X92319048Y-56061392D02*
X92628571Y-56061392D01*
X93478059Y-61433333D02*
X93239964Y-61599999D01*
X93478059Y-61719047D02*
X92978059Y-61719047D01*
X92978059Y-61719047D02*
X92978059Y-61528571D01*
X92978059Y-61528571D02*
X93001869Y-61480952D01*
X93001869Y-61480952D02*
X93025678Y-61457142D01*
X93025678Y-61457142D02*
X93073297Y-61433333D01*
X93073297Y-61433333D02*
X93144726Y-61433333D01*
X93144726Y-61433333D02*
X93192345Y-61457142D01*
X93192345Y-61457142D02*
X93216154Y-61480952D01*
X93216154Y-61480952D02*
X93239964Y-61528571D01*
X93239964Y-61528571D02*
X93239964Y-61719047D01*
X93478059Y-60957142D02*
X93478059Y-61242856D01*
X93478059Y-61099999D02*
X92978059Y-61099999D01*
X92978059Y-61099999D02*
X93049488Y-61147618D01*
X93049488Y-61147618D02*
X93097107Y-61195237D01*
X93097107Y-61195237D02*
X93120916Y-61242856D01*
D18*
X94516666Y-75177669D02*
X94350000Y-74939574D01*
X94230952Y-75177669D02*
X94230952Y-74677669D01*
X94230952Y-74677669D02*
X94421428Y-74677669D01*
X94421428Y-74677669D02*
X94469047Y-74701479D01*
X94469047Y-74701479D02*
X94492857Y-74725288D01*
X94492857Y-74725288D02*
X94516666Y-74772907D01*
X94516666Y-74772907D02*
X94516666Y-74844336D01*
X94516666Y-74844336D02*
X94492857Y-74891955D01*
X94492857Y-74891955D02*
X94469047Y-74915764D01*
X94469047Y-74915764D02*
X94421428Y-74939574D01*
X94421428Y-74939574D02*
X94230952Y-74939574D01*
X94683333Y-74677669D02*
X95016666Y-74677669D01*
X95016666Y-74677669D02*
X94802381Y-75177669D01*
D16*
X115415623Y-58367862D02*
X115439433Y-58391671D01*
X115439433Y-58391671D02*
X115463242Y-58463100D01*
X115463242Y-58463100D02*
X115463242Y-58510719D01*
X115463242Y-58510719D02*
X115439433Y-58582147D01*
X115439433Y-58582147D02*
X115391813Y-58629766D01*
X115391813Y-58629766D02*
X115344194Y-58653576D01*
X115344194Y-58653576D02*
X115248956Y-58677385D01*
X115248956Y-58677385D02*
X115177528Y-58677385D01*
X115177528Y-58677385D02*
X115082290Y-58653576D01*
X115082290Y-58653576D02*
X115034671Y-58629766D01*
X115034671Y-58629766D02*
X114987052Y-58582147D01*
X114987052Y-58582147D02*
X114963242Y-58510719D01*
X114963242Y-58510719D02*
X114963242Y-58463100D01*
X114963242Y-58463100D02*
X114987052Y-58391671D01*
X114987052Y-58391671D02*
X115010861Y-58367862D01*
X115463242Y-57891671D02*
X115463242Y-58177385D01*
X115463242Y-58034528D02*
X114963242Y-58034528D01*
X114963242Y-58034528D02*
X115034671Y-58082147D01*
X115034671Y-58082147D02*
X115082290Y-58129766D01*
X115082290Y-58129766D02*
X115106099Y-58177385D01*
X114963242Y-57439291D02*
X114963242Y-57677386D01*
X114963242Y-57677386D02*
X115201337Y-57701195D01*
X115201337Y-57701195D02*
X115177528Y-57677386D01*
X115177528Y-57677386D02*
X115153718Y-57629767D01*
X115153718Y-57629767D02*
X115153718Y-57510719D01*
X115153718Y-57510719D02*
X115177528Y-57463100D01*
X115177528Y-57463100D02*
X115201337Y-57439291D01*
X115201337Y-57439291D02*
X115248956Y-57415481D01*
X115248956Y-57415481D02*
X115368004Y-57415481D01*
X115368004Y-57415481D02*
X115415623Y-57439291D01*
X115415623Y-57439291D02*
X115439433Y-57463100D01*
X115439433Y-57463100D02*
X115463242Y-57510719D01*
X115463242Y-57510719D02*
X115463242Y-57629767D01*
X115463242Y-57629767D02*
X115439433Y-57677386D01*
X115439433Y-57677386D02*
X115415623Y-57701195D01*
X99716666Y-65628059D02*
X99550000Y-65389964D01*
X99430952Y-65628059D02*
X99430952Y-65128059D01*
X99430952Y-65128059D02*
X99621428Y-65128059D01*
X99621428Y-65128059D02*
X99669047Y-65151869D01*
X99669047Y-65151869D02*
X99692857Y-65175678D01*
X99692857Y-65175678D02*
X99716666Y-65223297D01*
X99716666Y-65223297D02*
X99716666Y-65294726D01*
X99716666Y-65294726D02*
X99692857Y-65342345D01*
X99692857Y-65342345D02*
X99669047Y-65366154D01*
X99669047Y-65366154D02*
X99621428Y-65389964D01*
X99621428Y-65389964D02*
X99430952Y-65389964D01*
X99907143Y-65175678D02*
X99930952Y-65151869D01*
X99930952Y-65151869D02*
X99978571Y-65128059D01*
X99978571Y-65128059D02*
X100097619Y-65128059D01*
X100097619Y-65128059D02*
X100145238Y-65151869D01*
X100145238Y-65151869D02*
X100169047Y-65175678D01*
X100169047Y-65175678D02*
X100192857Y-65223297D01*
X100192857Y-65223297D02*
X100192857Y-65270916D01*
X100192857Y-65270916D02*
X100169047Y-65342345D01*
X100169047Y-65342345D02*
X99883333Y-65628059D01*
X99883333Y-65628059D02*
X100192857Y-65628059D01*
X95678571Y-56680440D02*
X95654762Y-56704250D01*
X95654762Y-56704250D02*
X95583333Y-56728059D01*
X95583333Y-56728059D02*
X95535714Y-56728059D01*
X95535714Y-56728059D02*
X95464286Y-56704250D01*
X95464286Y-56704250D02*
X95416667Y-56656630D01*
X95416667Y-56656630D02*
X95392857Y-56609011D01*
X95392857Y-56609011D02*
X95369048Y-56513773D01*
X95369048Y-56513773D02*
X95369048Y-56442345D01*
X95369048Y-56442345D02*
X95392857Y-56347107D01*
X95392857Y-56347107D02*
X95416667Y-56299488D01*
X95416667Y-56299488D02*
X95464286Y-56251869D01*
X95464286Y-56251869D02*
X95535714Y-56228059D01*
X95535714Y-56228059D02*
X95583333Y-56228059D01*
X95583333Y-56228059D02*
X95654762Y-56251869D01*
X95654762Y-56251869D02*
X95678571Y-56275678D01*
X95869048Y-56275678D02*
X95892857Y-56251869D01*
X95892857Y-56251869D02*
X95940476Y-56228059D01*
X95940476Y-56228059D02*
X96059524Y-56228059D01*
X96059524Y-56228059D02*
X96107143Y-56251869D01*
X96107143Y-56251869D02*
X96130952Y-56275678D01*
X96130952Y-56275678D02*
X96154762Y-56323297D01*
X96154762Y-56323297D02*
X96154762Y-56370916D01*
X96154762Y-56370916D02*
X96130952Y-56442345D01*
X96130952Y-56442345D02*
X95845238Y-56728059D01*
X95845238Y-56728059D02*
X96154762Y-56728059D01*
X96630952Y-56728059D02*
X96345238Y-56728059D01*
X96488095Y-56728059D02*
X96488095Y-56228059D01*
X96488095Y-56228059D02*
X96440476Y-56299488D01*
X96440476Y-56299488D02*
X96392857Y-56347107D01*
X96392857Y-56347107D02*
X96345238Y-56370916D01*
X113828571Y-67680440D02*
X113804762Y-67704250D01*
X113804762Y-67704250D02*
X113733333Y-67728059D01*
X113733333Y-67728059D02*
X113685714Y-67728059D01*
X113685714Y-67728059D02*
X113614286Y-67704250D01*
X113614286Y-67704250D02*
X113566667Y-67656630D01*
X113566667Y-67656630D02*
X113542857Y-67609011D01*
X113542857Y-67609011D02*
X113519048Y-67513773D01*
X113519048Y-67513773D02*
X113519048Y-67442345D01*
X113519048Y-67442345D02*
X113542857Y-67347107D01*
X113542857Y-67347107D02*
X113566667Y-67299488D01*
X113566667Y-67299488D02*
X113614286Y-67251869D01*
X113614286Y-67251869D02*
X113685714Y-67228059D01*
X113685714Y-67228059D02*
X113733333Y-67228059D01*
X113733333Y-67228059D02*
X113804762Y-67251869D01*
X113804762Y-67251869D02*
X113828571Y-67275678D01*
X114304762Y-67728059D02*
X114019048Y-67728059D01*
X114161905Y-67728059D02*
X114161905Y-67228059D01*
X114161905Y-67228059D02*
X114114286Y-67299488D01*
X114114286Y-67299488D02*
X114066667Y-67347107D01*
X114066667Y-67347107D02*
X114019048Y-67370916D01*
X114495238Y-67275678D02*
X114519047Y-67251869D01*
X114519047Y-67251869D02*
X114566666Y-67228059D01*
X114566666Y-67228059D02*
X114685714Y-67228059D01*
X114685714Y-67228059D02*
X114733333Y-67251869D01*
X114733333Y-67251869D02*
X114757142Y-67275678D01*
X114757142Y-67275678D02*
X114780952Y-67323297D01*
X114780952Y-67323297D02*
X114780952Y-67370916D01*
X114780952Y-67370916D02*
X114757142Y-67442345D01*
X114757142Y-67442345D02*
X114471428Y-67728059D01*
X114471428Y-67728059D02*
X114780952Y-67728059D01*
X110185623Y-58733333D02*
X110209433Y-58757142D01*
X110209433Y-58757142D02*
X110233242Y-58828571D01*
X110233242Y-58828571D02*
X110233242Y-58876190D01*
X110233242Y-58876190D02*
X110209433Y-58947618D01*
X110209433Y-58947618D02*
X110161813Y-58995237D01*
X110161813Y-58995237D02*
X110114194Y-59019047D01*
X110114194Y-59019047D02*
X110018956Y-59042856D01*
X110018956Y-59042856D02*
X109947528Y-59042856D01*
X109947528Y-59042856D02*
X109852290Y-59019047D01*
X109852290Y-59019047D02*
X109804671Y-58995237D01*
X109804671Y-58995237D02*
X109757052Y-58947618D01*
X109757052Y-58947618D02*
X109733242Y-58876190D01*
X109733242Y-58876190D02*
X109733242Y-58828571D01*
X109733242Y-58828571D02*
X109757052Y-58757142D01*
X109757052Y-58757142D02*
X109780861Y-58733333D01*
X109899909Y-58304761D02*
X110233242Y-58304761D01*
X109709433Y-58423809D02*
X110066575Y-58542856D01*
X110066575Y-58542856D02*
X110066575Y-58233333D01*
X95769047Y-66028059D02*
X95769047Y-66432821D01*
X95769047Y-66432821D02*
X95792857Y-66480440D01*
X95792857Y-66480440D02*
X95816666Y-66504250D01*
X95816666Y-66504250D02*
X95864285Y-66528059D01*
X95864285Y-66528059D02*
X95959523Y-66528059D01*
X95959523Y-66528059D02*
X96007142Y-66504250D01*
X96007142Y-66504250D02*
X96030952Y-66480440D01*
X96030952Y-66480440D02*
X96054761Y-66432821D01*
X96054761Y-66432821D02*
X96054761Y-66028059D01*
X96269048Y-66075678D02*
X96292857Y-66051869D01*
X96292857Y-66051869D02*
X96340476Y-66028059D01*
X96340476Y-66028059D02*
X96459524Y-66028059D01*
X96459524Y-66028059D02*
X96507143Y-66051869D01*
X96507143Y-66051869D02*
X96530952Y-66075678D01*
X96530952Y-66075678D02*
X96554762Y-66123297D01*
X96554762Y-66123297D02*
X96554762Y-66170916D01*
X96554762Y-66170916D02*
X96530952Y-66242345D01*
X96530952Y-66242345D02*
X96245238Y-66528059D01*
X96245238Y-66528059D02*
X96554762Y-66528059D01*
X109180440Y-58733333D02*
X109204250Y-58757142D01*
X109204250Y-58757142D02*
X109228059Y-58828571D01*
X109228059Y-58828571D02*
X109228059Y-58876190D01*
X109228059Y-58876190D02*
X109204250Y-58947618D01*
X109204250Y-58947618D02*
X109156630Y-58995237D01*
X109156630Y-58995237D02*
X109109011Y-59019047D01*
X109109011Y-59019047D02*
X109013773Y-59042856D01*
X109013773Y-59042856D02*
X108942345Y-59042856D01*
X108942345Y-59042856D02*
X108847107Y-59019047D01*
X108847107Y-59019047D02*
X108799488Y-58995237D01*
X108799488Y-58995237D02*
X108751869Y-58947618D01*
X108751869Y-58947618D02*
X108728059Y-58876190D01*
X108728059Y-58876190D02*
X108728059Y-58828571D01*
X108728059Y-58828571D02*
X108751869Y-58757142D01*
X108751869Y-58757142D02*
X108775678Y-58733333D01*
X108728059Y-58304761D02*
X108728059Y-58399999D01*
X108728059Y-58399999D02*
X108751869Y-58447618D01*
X108751869Y-58447618D02*
X108775678Y-58471428D01*
X108775678Y-58471428D02*
X108847107Y-58519047D01*
X108847107Y-58519047D02*
X108942345Y-58542856D01*
X108942345Y-58542856D02*
X109132821Y-58542856D01*
X109132821Y-58542856D02*
X109180440Y-58519047D01*
X109180440Y-58519047D02*
X109204250Y-58495237D01*
X109204250Y-58495237D02*
X109228059Y-58447618D01*
X109228059Y-58447618D02*
X109228059Y-58352380D01*
X109228059Y-58352380D02*
X109204250Y-58304761D01*
X109204250Y-58304761D02*
X109180440Y-58280952D01*
X109180440Y-58280952D02*
X109132821Y-58257142D01*
X109132821Y-58257142D02*
X109013773Y-58257142D01*
X109013773Y-58257142D02*
X108966154Y-58280952D01*
X108966154Y-58280952D02*
X108942345Y-58304761D01*
X108942345Y-58304761D02*
X108918535Y-58352380D01*
X108918535Y-58352380D02*
X108918535Y-58447618D01*
X108918535Y-58447618D02*
X108942345Y-58495237D01*
X108942345Y-58495237D02*
X108966154Y-58519047D01*
X108966154Y-58519047D02*
X109013773Y-58542856D01*
X108180440Y-58733333D02*
X108204250Y-58757142D01*
X108204250Y-58757142D02*
X108228059Y-58828571D01*
X108228059Y-58828571D02*
X108228059Y-58876190D01*
X108228059Y-58876190D02*
X108204250Y-58947618D01*
X108204250Y-58947618D02*
X108156630Y-58995237D01*
X108156630Y-58995237D02*
X108109011Y-59019047D01*
X108109011Y-59019047D02*
X108013773Y-59042856D01*
X108013773Y-59042856D02*
X107942345Y-59042856D01*
X107942345Y-59042856D02*
X107847107Y-59019047D01*
X107847107Y-59019047D02*
X107799488Y-58995237D01*
X107799488Y-58995237D02*
X107751869Y-58947618D01*
X107751869Y-58947618D02*
X107728059Y-58876190D01*
X107728059Y-58876190D02*
X107728059Y-58828571D01*
X107728059Y-58828571D02*
X107751869Y-58757142D01*
X107751869Y-58757142D02*
X107775678Y-58733333D01*
X107728059Y-58566666D02*
X107728059Y-58233333D01*
X107728059Y-58233333D02*
X108228059Y-58447618D01*
D18*
X111830050Y-75910026D02*
X111853860Y-75933835D01*
X111853860Y-75933835D02*
X111877669Y-76005264D01*
X111877669Y-76005264D02*
X111877669Y-76052883D01*
X111877669Y-76052883D02*
X111853860Y-76124311D01*
X111853860Y-76124311D02*
X111806240Y-76171930D01*
X111806240Y-76171930D02*
X111758621Y-76195740D01*
X111758621Y-76195740D02*
X111663383Y-76219549D01*
X111663383Y-76219549D02*
X111591955Y-76219549D01*
X111591955Y-76219549D02*
X111496717Y-76195740D01*
X111496717Y-76195740D02*
X111449098Y-76171930D01*
X111449098Y-76171930D02*
X111401479Y-76124311D01*
X111401479Y-76124311D02*
X111377669Y-76052883D01*
X111377669Y-76052883D02*
X111377669Y-76005264D01*
X111377669Y-76005264D02*
X111401479Y-75933835D01*
X111401479Y-75933835D02*
X111425288Y-75910026D01*
X111877669Y-75433835D02*
X111877669Y-75719549D01*
X111877669Y-75576692D02*
X111377669Y-75576692D01*
X111377669Y-75576692D02*
X111449098Y-75624311D01*
X111449098Y-75624311D02*
X111496717Y-75671930D01*
X111496717Y-75671930D02*
X111520526Y-75719549D01*
X111377669Y-75267169D02*
X111377669Y-74957645D01*
X111377669Y-74957645D02*
X111568145Y-75124312D01*
X111568145Y-75124312D02*
X111568145Y-75052883D01*
X111568145Y-75052883D02*
X111591955Y-75005264D01*
X111591955Y-75005264D02*
X111615764Y-74981455D01*
X111615764Y-74981455D02*
X111663383Y-74957645D01*
X111663383Y-74957645D02*
X111782431Y-74957645D01*
X111782431Y-74957645D02*
X111830050Y-74981455D01*
X111830050Y-74981455D02*
X111853860Y-75005264D01*
X111853860Y-75005264D02*
X111877669Y-75052883D01*
X111877669Y-75052883D02*
X111877669Y-75195740D01*
X111877669Y-75195740D02*
X111853860Y-75243359D01*
X111853860Y-75243359D02*
X111830050Y-75267169D01*
X96516666Y-75177669D02*
X96350000Y-74939574D01*
X96230952Y-75177669D02*
X96230952Y-74677669D01*
X96230952Y-74677669D02*
X96421428Y-74677669D01*
X96421428Y-74677669D02*
X96469047Y-74701479D01*
X96469047Y-74701479D02*
X96492857Y-74725288D01*
X96492857Y-74725288D02*
X96516666Y-74772907D01*
X96516666Y-74772907D02*
X96516666Y-74844336D01*
X96516666Y-74844336D02*
X96492857Y-74891955D01*
X96492857Y-74891955D02*
X96469047Y-74915764D01*
X96469047Y-74915764D02*
X96421428Y-74939574D01*
X96421428Y-74939574D02*
X96230952Y-74939574D01*
X96945238Y-74677669D02*
X96850000Y-74677669D01*
X96850000Y-74677669D02*
X96802381Y-74701479D01*
X96802381Y-74701479D02*
X96778571Y-74725288D01*
X96778571Y-74725288D02*
X96730952Y-74796717D01*
X96730952Y-74796717D02*
X96707143Y-74891955D01*
X96707143Y-74891955D02*
X96707143Y-75082431D01*
X96707143Y-75082431D02*
X96730952Y-75130050D01*
X96730952Y-75130050D02*
X96754762Y-75153860D01*
X96754762Y-75153860D02*
X96802381Y-75177669D01*
X96802381Y-75177669D02*
X96897619Y-75177669D01*
X96897619Y-75177669D02*
X96945238Y-75153860D01*
X96945238Y-75153860D02*
X96969047Y-75130050D01*
X96969047Y-75130050D02*
X96992857Y-75082431D01*
X96992857Y-75082431D02*
X96992857Y-74963383D01*
X96992857Y-74963383D02*
X96969047Y-74915764D01*
X96969047Y-74915764D02*
X96945238Y-74891955D01*
X96945238Y-74891955D02*
X96897619Y-74868145D01*
X96897619Y-74868145D02*
X96802381Y-74868145D01*
X96802381Y-74868145D02*
X96754762Y-74891955D01*
X96754762Y-74891955D02*
X96730952Y-74915764D01*
X96730952Y-74915764D02*
X96707143Y-74963383D01*
D16*
X106678571Y-55980440D02*
X106654762Y-56004250D01*
X106654762Y-56004250D02*
X106583333Y-56028059D01*
X106583333Y-56028059D02*
X106535714Y-56028059D01*
X106535714Y-56028059D02*
X106464286Y-56004250D01*
X106464286Y-56004250D02*
X106416667Y-55956630D01*
X106416667Y-55956630D02*
X106392857Y-55909011D01*
X106392857Y-55909011D02*
X106369048Y-55813773D01*
X106369048Y-55813773D02*
X106369048Y-55742345D01*
X106369048Y-55742345D02*
X106392857Y-55647107D01*
X106392857Y-55647107D02*
X106416667Y-55599488D01*
X106416667Y-55599488D02*
X106464286Y-55551869D01*
X106464286Y-55551869D02*
X106535714Y-55528059D01*
X106535714Y-55528059D02*
X106583333Y-55528059D01*
X106583333Y-55528059D02*
X106654762Y-55551869D01*
X106654762Y-55551869D02*
X106678571Y-55575678D01*
X107154762Y-56028059D02*
X106869048Y-56028059D01*
X107011905Y-56028059D02*
X107011905Y-55528059D01*
X107011905Y-55528059D02*
X106964286Y-55599488D01*
X106964286Y-55599488D02*
X106916667Y-55647107D01*
X106916667Y-55647107D02*
X106869048Y-55670916D01*
X107583333Y-55694726D02*
X107583333Y-56028059D01*
X107464285Y-55504250D02*
X107345238Y-55861392D01*
X107345238Y-55861392D02*
X107654761Y-55861392D01*
X111878571Y-64130440D02*
X111854762Y-64154250D01*
X111854762Y-64154250D02*
X111783333Y-64178059D01*
X111783333Y-64178059D02*
X111735714Y-64178059D01*
X111735714Y-64178059D02*
X111664286Y-64154250D01*
X111664286Y-64154250D02*
X111616667Y-64106630D01*
X111616667Y-64106630D02*
X111592857Y-64059011D01*
X111592857Y-64059011D02*
X111569048Y-63963773D01*
X111569048Y-63963773D02*
X111569048Y-63892345D01*
X111569048Y-63892345D02*
X111592857Y-63797107D01*
X111592857Y-63797107D02*
X111616667Y-63749488D01*
X111616667Y-63749488D02*
X111664286Y-63701869D01*
X111664286Y-63701869D02*
X111735714Y-63678059D01*
X111735714Y-63678059D02*
X111783333Y-63678059D01*
X111783333Y-63678059D02*
X111854762Y-63701869D01*
X111854762Y-63701869D02*
X111878571Y-63725678D01*
X112354762Y-64178059D02*
X112069048Y-64178059D01*
X112211905Y-64178059D02*
X112211905Y-63678059D01*
X112211905Y-63678059D02*
X112164286Y-63749488D01*
X112164286Y-63749488D02*
X112116667Y-63797107D01*
X112116667Y-63797107D02*
X112069048Y-63820916D01*
X112783333Y-63678059D02*
X112688095Y-63678059D01*
X112688095Y-63678059D02*
X112640476Y-63701869D01*
X112640476Y-63701869D02*
X112616666Y-63725678D01*
X112616666Y-63725678D02*
X112569047Y-63797107D01*
X112569047Y-63797107D02*
X112545238Y-63892345D01*
X112545238Y-63892345D02*
X112545238Y-64082821D01*
X112545238Y-64082821D02*
X112569047Y-64130440D01*
X112569047Y-64130440D02*
X112592857Y-64154250D01*
X112592857Y-64154250D02*
X112640476Y-64178059D01*
X112640476Y-64178059D02*
X112735714Y-64178059D01*
X112735714Y-64178059D02*
X112783333Y-64154250D01*
X112783333Y-64154250D02*
X112807142Y-64130440D01*
X112807142Y-64130440D02*
X112830952Y-64082821D01*
X112830952Y-64082821D02*
X112830952Y-63963773D01*
X112830952Y-63963773D02*
X112807142Y-63916154D01*
X112807142Y-63916154D02*
X112783333Y-63892345D01*
X112783333Y-63892345D02*
X112735714Y-63868535D01*
X112735714Y-63868535D02*
X112640476Y-63868535D01*
X112640476Y-63868535D02*
X112592857Y-63892345D01*
X112592857Y-63892345D02*
X112569047Y-63916154D01*
X112569047Y-63916154D02*
X112545238Y-63963773D01*
X111019047Y-69778059D02*
X111019047Y-70182821D01*
X111019047Y-70182821D02*
X111042857Y-70230440D01*
X111042857Y-70230440D02*
X111066666Y-70254250D01*
X111066666Y-70254250D02*
X111114285Y-70278059D01*
X111114285Y-70278059D02*
X111209523Y-70278059D01*
X111209523Y-70278059D02*
X111257142Y-70254250D01*
X111257142Y-70254250D02*
X111280952Y-70230440D01*
X111280952Y-70230440D02*
X111304761Y-70182821D01*
X111304761Y-70182821D02*
X111304761Y-69778059D01*
X111804762Y-70278059D02*
X111519048Y-70278059D01*
X111661905Y-70278059D02*
X111661905Y-69778059D01*
X111661905Y-69778059D02*
X111614286Y-69849488D01*
X111614286Y-69849488D02*
X111566667Y-69897107D01*
X111566667Y-69897107D02*
X111519048Y-69920916D01*
X96416666Y-61728059D02*
X96178571Y-61728059D01*
X96178571Y-61728059D02*
X96178571Y-61228059D01*
X96845238Y-61728059D02*
X96559524Y-61728059D01*
X96702381Y-61728059D02*
X96702381Y-61228059D01*
X96702381Y-61228059D02*
X96654762Y-61299488D01*
X96654762Y-61299488D02*
X96607143Y-61347107D01*
X96607143Y-61347107D02*
X96559524Y-61370916D01*
D19*
%TO.C,R4*%
X99942441Y-57023934D02*
X99467925Y-57023934D01*
X99942441Y-58068934D02*
X99467925Y-58068934D01*
%TO.C,R8*%
X113920000Y-65753641D02*
X113920000Y-65446359D01*
X114680000Y-65753641D02*
X114680000Y-65446359D01*
%TO.C,C19*%
X93320183Y-54357686D02*
X93320183Y-53835182D01*
X94790183Y-54357686D02*
X94790183Y-53835182D01*
%TO.C,R5*%
X94320000Y-67746359D02*
X94320000Y-68053641D01*
X95080000Y-67746359D02*
X95080000Y-68053641D01*
%TO.C,Y1*%
X115195183Y-59866434D02*
X111075183Y-59866434D01*
X115195183Y-63286434D02*
X115195183Y-59866434D01*
%TO.C,C9*%
X107107836Y-57340000D02*
X106892164Y-57340000D01*
X107107836Y-58060000D02*
X106892164Y-58060000D01*
%TO.C,C2*%
X110543931Y-56011434D02*
X111066435Y-56011434D01*
X110543931Y-57481434D02*
X111066435Y-57481434D01*
%TO.C,C10*%
X108447347Y-61286434D02*
X108663019Y-61286434D01*
X108447347Y-62006434D02*
X108663019Y-62006434D01*
%TO.C,C17*%
X93240000Y-67792164D02*
X93240000Y-68007836D01*
X93960000Y-67792164D02*
X93960000Y-68007836D01*
%TO.C,J2*%
X116275183Y-79940000D02*
X115805183Y-79600000D01*
X116275183Y-79260000D01*
X116275183Y-79940000D01*
G36*
X116275183Y-79940000D02*
G01*
X115805183Y-79600000D01*
X116275183Y-79260000D01*
X116275183Y-79940000D01*
G37*
%TO.C,C8*%
X103607836Y-61640000D02*
X103392164Y-61640000D01*
X103607836Y-62360000D02*
X103392164Y-62360000D01*
%TO.C,C5*%
X92245000Y-63012164D02*
X92245000Y-63227836D01*
X92965000Y-63012164D02*
X92965000Y-63227836D01*
%TO.C,R3*%
X99346359Y-64020000D02*
X99653641Y-64020000D01*
X99346359Y-64780000D02*
X99653641Y-64780000D01*
%TO.C,U4*%
X91557683Y-58346434D02*
X91557683Y-57546434D01*
X91557683Y-58346434D02*
X91557683Y-59146434D01*
X94677683Y-58346434D02*
X94677683Y-57546434D01*
X94677683Y-58346434D02*
X94677683Y-59146434D01*
X94957683Y-57286434D02*
X94627683Y-57046434D01*
X94957683Y-56806434D01*
X94957683Y-57286434D01*
G36*
X94957683Y-57286434D02*
G01*
X94627683Y-57046434D01*
X94957683Y-56806434D01*
X94957683Y-57286434D01*
G37*
%TO.C,R1*%
X93720000Y-61346359D02*
X93720000Y-61653641D01*
X94480000Y-61346359D02*
X94480000Y-61653641D01*
%TO.C,R7*%
X94446359Y-73820000D02*
X94753641Y-73820000D01*
X94446359Y-74580000D02*
X94753641Y-74580000D01*
%TO.C,C15*%
X113875183Y-58154270D02*
X113875183Y-57938598D01*
X114595183Y-58154270D02*
X114595183Y-57938598D01*
%TO.C,R2*%
X98246359Y-65020000D02*
X98553641Y-65020000D01*
X98246359Y-65780000D02*
X98553641Y-65780000D01*
%TO.C,C21*%
X95270183Y-58757686D02*
X95270183Y-58235182D01*
X96740183Y-58757686D02*
X96740183Y-58235182D01*
%TO.C,C12*%
X114092164Y-67940000D02*
X114307836Y-67940000D01*
X114092164Y-68660000D02*
X114307836Y-68660000D01*
%TO.C,C4*%
X109645183Y-60204270D02*
X109645183Y-59988598D01*
X110365183Y-60204270D02*
X110365183Y-59988598D01*
%TO.C,U2*%
X95395183Y-72986434D02*
X95395183Y-66996434D01*
X100615183Y-72996434D02*
X100615183Y-66996434D01*
X95695183Y-73706434D02*
X95215183Y-73226434D01*
X95695183Y-73226434D01*
X95695183Y-73706434D01*
G36*
X95695183Y-73706434D02*
G01*
X95215183Y-73226434D01*
X95695183Y-73226434D01*
X95695183Y-73706434D01*
G37*
%TO.C,C6*%
X108645183Y-60204270D02*
X108645183Y-59988598D01*
X109365183Y-60204270D02*
X109365183Y-59988598D01*
%TO.C,C7*%
X107645183Y-60204270D02*
X107645183Y-59988598D01*
X108365183Y-60204270D02*
X108365183Y-59988598D01*
%TO.C,C13*%
X112095183Y-75804270D02*
X112095183Y-75588598D01*
X112815183Y-75804270D02*
X112815183Y-75588598D01*
%TO.C,R6*%
X96763641Y-73820000D02*
X96456359Y-73820000D01*
X96763641Y-74580000D02*
X96456359Y-74580000D01*
%TO.C,C14*%
X107107836Y-56340000D02*
X106892164Y-56340000D01*
X107107836Y-57060000D02*
X106892164Y-57060000D01*
%TO.C,C16*%
X113777347Y-63596434D02*
X113993019Y-63596434D01*
X113777347Y-64316434D02*
X113993019Y-64316434D01*
%TO.C,U1*%
X103145183Y-63186434D02*
X103595183Y-63186434D01*
X103145183Y-63636434D02*
X103145183Y-63186434D01*
X103145183Y-69956434D02*
X103145183Y-70406434D01*
X110365183Y-63186434D02*
X109915183Y-63186434D01*
X110365183Y-63636434D02*
X110365183Y-63186434D01*
X110365183Y-69956434D02*
X110365183Y-70406434D01*
X110365183Y-70406434D02*
X109915183Y-70406434D01*
%TO.C,L1*%
D20*
X96813866Y-62600000D02*
G75*
G02*
X96622446Y-62600000I-95710J0D01*
G01*
X96622446Y-62600000D02*
G75*
G02*
X96813866Y-62600000I95710J0D01*
G01*
%TD*%
%LPC*%
D21*
%TO.C,R4*%
X100530183Y-57546434D03*
X98880183Y-57546434D03*
%TD*%
D22*
%TO.C,P1*%
X100805183Y-54186434D03*
X101305183Y-54186434D03*
X101805183Y-54186434D03*
X102305183Y-54186434D03*
X102805183Y-54186434D03*
X103305183Y-54186434D03*
X103805183Y-54186434D03*
X104305183Y-54186434D03*
X104805183Y-54186434D03*
X105305183Y-54186434D03*
X105805183Y-54186434D03*
X106305183Y-54186434D03*
D23*
X100135183Y-55026434D03*
%TD*%
D24*
%TO.C,H1*%
X92255183Y-71646434D03*
%TD*%
%TO.C,H2*%
X114855183Y-71646434D03*
%TD*%
D25*
%TO.C,R8*%
X114300000Y-66110000D03*
X114300000Y-65090000D03*
%TD*%
D26*
%TO.C,C19*%
X94055183Y-55046434D03*
X94055183Y-53146434D03*
%TD*%
D27*
%TO.C,R5*%
X94700000Y-67390000D03*
X94700000Y-68410000D03*
%TD*%
D28*
%TO.C,Y1*%
X114235183Y-60726434D03*
X112035183Y-60726434D03*
X112035183Y-62426434D03*
X114235183Y-62426434D03*
%TD*%
D29*
%TO.C,C1*%
X93905000Y-65635000D03*
X93905000Y-64605000D03*
%TD*%
D30*
%TO.C,C9*%
X107480000Y-57700000D03*
X106520000Y-57700000D03*
%TD*%
D31*
%TO.C,C2*%
X109855183Y-56746434D03*
X111755183Y-56746434D03*
%TD*%
D32*
%TO.C,C10*%
X108075183Y-61646434D03*
X109035183Y-61646434D03*
%TD*%
D33*
%TO.C,C17*%
X93600000Y-67420000D03*
X93600000Y-68380000D03*
%TD*%
D34*
%TO.C,J2*%
X114985183Y-79600000D03*
X112445183Y-79600000D03*
X109905183Y-79600000D03*
X107365183Y-79600000D03*
X104825183Y-79600000D03*
X102285183Y-79600000D03*
X99745183Y-79600000D03*
X97205183Y-79600000D03*
X94665183Y-79600000D03*
X92125183Y-79600000D03*
%TD*%
D30*
%TO.C,C8*%
X103980000Y-62000000D03*
X103020000Y-62000000D03*
%TD*%
D29*
%TO.C,C3*%
X95400000Y-62585000D03*
X95400000Y-63615000D03*
%TD*%
D33*
%TO.C,C5*%
X92605000Y-62640000D03*
X92605000Y-63600000D03*
%TD*%
D35*
%TO.C,R3*%
X98990000Y-64400000D03*
X100010000Y-64400000D03*
%TD*%
D36*
%TO.C,U4*%
X94067683Y-57208934D03*
X93117683Y-57208934D03*
X92167683Y-57208934D03*
X92167683Y-59483934D03*
X94067683Y-59483934D03*
%TD*%
D27*
%TO.C,R1*%
X94100000Y-60990000D03*
X94100000Y-62010000D03*
%TD*%
D35*
%TO.C,R7*%
X94090000Y-74200000D03*
X95110000Y-74200000D03*
%TD*%
D37*
%TO.C,C15*%
X114235183Y-58526434D03*
X114235183Y-57566434D03*
%TD*%
D35*
%TO.C,R2*%
X97890000Y-65400000D03*
X98910000Y-65400000D03*
%TD*%
D26*
%TO.C,C21*%
X96005183Y-59446434D03*
X96005183Y-57546434D03*
%TD*%
D32*
%TO.C,C12*%
X113720000Y-68300000D03*
X114680000Y-68300000D03*
%TD*%
D37*
%TO.C,C4*%
X110005183Y-60576434D03*
X110005183Y-59616434D03*
%TD*%
D38*
%TO.C,U2*%
X96100183Y-72696434D03*
X97370183Y-72696434D03*
X98640183Y-72696434D03*
X99910183Y-72696434D03*
X99910183Y-67296434D03*
X98640183Y-67296434D03*
X97370183Y-67296434D03*
X96100183Y-67296434D03*
D39*
X98005183Y-69996434D03*
%TD*%
D37*
%TO.C,C6*%
X109005183Y-60576434D03*
X109005183Y-59616434D03*
%TD*%
%TO.C,C7*%
X108005183Y-60576434D03*
X108005183Y-59616434D03*
%TD*%
%TO.C,C13*%
X112455183Y-76176434D03*
X112455183Y-75216434D03*
%TD*%
D40*
%TO.C,R6*%
X97120000Y-74200000D03*
X96100000Y-74200000D03*
%TD*%
D30*
%TO.C,C14*%
X107480000Y-56700000D03*
X106520000Y-56700000D03*
%TD*%
D32*
%TO.C,C16*%
X113405183Y-63956434D03*
X114365183Y-63956434D03*
%TD*%
D41*
%TO.C,U1*%
X103955183Y-70233934D03*
D42*
X104355183Y-70233934D03*
X104755183Y-70233934D03*
X105155183Y-70233934D03*
X105555183Y-70233934D03*
X105955183Y-70233934D03*
X106355183Y-70233934D03*
X106755183Y-70233934D03*
X107155183Y-70233934D03*
X107555183Y-70233934D03*
X107955183Y-70233934D03*
X108355183Y-70233934D03*
X108755183Y-70233934D03*
X109155183Y-70233934D03*
D43*
X109555183Y-70233934D03*
D44*
X110192683Y-69596434D03*
D45*
X110192683Y-69196434D03*
X110192683Y-68796434D03*
X110192683Y-68396434D03*
X110192683Y-67996434D03*
X110192683Y-67596434D03*
X110192683Y-67196434D03*
X110192683Y-66796434D03*
X110192683Y-66396434D03*
X110192683Y-65996434D03*
X110192683Y-65596434D03*
X110192683Y-65196434D03*
X110192683Y-64796434D03*
X110192683Y-64396434D03*
D46*
X110192683Y-63996434D03*
D47*
X109555183Y-63358934D03*
D42*
X109155183Y-63358934D03*
X108755183Y-63358934D03*
X108355183Y-63358934D03*
X107955183Y-63358934D03*
X107555183Y-63358934D03*
X107155183Y-63358934D03*
X106755183Y-63358934D03*
X106355183Y-63358934D03*
X105955183Y-63358934D03*
X105555183Y-63358934D03*
X105155183Y-63358934D03*
X104755183Y-63358934D03*
X104355183Y-63358934D03*
D48*
X103955183Y-63358934D03*
D49*
X103317683Y-63996434D03*
D45*
X103317683Y-64396434D03*
X103317683Y-64796434D03*
X103317683Y-65196434D03*
X103317683Y-65596434D03*
X103317683Y-65996434D03*
X103317683Y-66396434D03*
X103317683Y-66796434D03*
X103317683Y-67196434D03*
X103317683Y-67596434D03*
X103317683Y-67996434D03*
X103317683Y-68396434D03*
X103317683Y-68796434D03*
X103317683Y-69196434D03*
D50*
X103317683Y-69596434D03*
D51*
X106755183Y-66796434D03*
%TD*%
D52*
%TO.C,L1*%
X98018156Y-62400000D03*
X98018156Y-61000000D03*
%TD*%
%LPD*%
M02*
