%TF.GenerationSoftware,KiCad,Pcbnew,9.0.4*%
%TF.CreationDate,2025-09-18T12:16:13+02:00*%
%TF.ProjectId,rp2350_gpio_card,72703233-3530-45f6-9770-696f5f636172,X1*%
%TF.SameCoordinates,Original*%
%TF.FileFunction,Paste,Top*%
%TF.FilePolarity,Positive*%
%FSLAX46Y46*%
G04 Gerber Fmt 4.6, Leading zero omitted, Abs format (unit mm)*
G04 Created by KiCad (PCBNEW 9.0.4) date 2025-09-18 12:16:13*
%MOMM*%
%LPD*%
G01*
G04 APERTURE LIST*
G04 Aperture macros list*
%AMRoundRect*
0 Rectangle with rounded corners*
0 $1 Rounding radius*
0 $2 $3 $4 $5 $6 $7 $8 $9 X,Y pos of 4 corners*
0 Add a 4 corners polygon primitive as box body*
4,1,4,$2,$3,$4,$5,$6,$7,$8,$9,$2,$3,0*
0 Add four circle primitives for the rounded corners*
1,1,$1+$1,$2,$3*
1,1,$1+$1,$4,$5*
1,1,$1+$1,$6,$7*
1,1,$1+$1,$8,$9*
0 Add four rect primitives between the rounded corners*
20,1,$1+$1,$2,$3,$4,$5,0*
20,1,$1+$1,$4,$5,$6,$7,0*
20,1,$1+$1,$6,$7,$8,$9,0*
20,1,$1+$1,$8,$9,$2,$3,0*%
%AMFreePoly0*
4,1,18,-0.437500,0.050000,-0.433694,0.069134,-0.422855,0.085355,-0.406634,0.096194,-0.387500,0.100000,0.387500,0.100000,0.437500,0.050000,0.437500,-0.050000,0.433694,-0.069134,0.422855,-0.085355,0.406634,-0.096194,0.387500,-0.100000,-0.387500,-0.100000,-0.406634,-0.096194,-0.422855,-0.085355,-0.433694,-0.069134,-0.437500,-0.050000,-0.437500,0.050000,-0.437500,0.050000,$1*%
%AMFreePoly1*
4,1,18,-0.437500,0.050000,-0.433694,0.069134,-0.422855,0.085355,-0.406634,0.096194,-0.387500,0.100000,0.387500,0.100000,0.406634,0.096194,0.422855,0.085355,0.433694,0.069134,0.437500,0.050000,0.437500,-0.050000,0.387500,-0.100000,-0.387500,-0.100000,-0.406634,-0.096194,-0.422855,-0.085355,-0.433694,-0.069134,-0.437500,-0.050000,-0.437500,0.050000,-0.437500,0.050000,$1*%
%AMFreePoly2*
4,1,18,-0.100000,0.387500,-0.050000,0.437500,0.050000,0.437500,0.069134,0.433694,0.085355,0.422855,0.096194,0.406634,0.100000,0.387500,0.100000,-0.387500,0.096194,-0.406634,0.085355,-0.422855,0.069134,-0.433694,0.050000,-0.437500,-0.050000,-0.437500,-0.069134,-0.433694,-0.085355,-0.422855,-0.096194,-0.406634,-0.100000,-0.387500,-0.100000,0.387500,-0.100000,0.387500,$1*%
%AMFreePoly3*
4,1,18,-0.100000,0.387500,-0.096194,0.406634,-0.085355,0.422855,-0.069134,0.433694,-0.050000,0.437500,0.050000,0.437500,0.100000,0.387500,0.100000,-0.387500,0.096194,-0.406634,0.085355,-0.422855,0.069134,-0.433694,0.050000,-0.437500,-0.050000,-0.437500,-0.069134,-0.433694,-0.085355,-0.422855,-0.096194,-0.406634,-0.100000,-0.387500,-0.100000,0.387500,-0.100000,0.387500,$1*%
%AMFreePoly4*
4,1,18,-0.437500,0.050000,-0.433694,0.069134,-0.422855,0.085355,-0.406634,0.096194,-0.387500,0.100000,0.387500,0.100000,0.406634,0.096194,0.422855,0.085355,0.433694,0.069134,0.437500,0.050000,0.437500,-0.050000,0.433694,-0.069134,0.422855,-0.085355,0.406634,-0.096194,0.387500,-0.100000,-0.387500,-0.100000,-0.437500,-0.050000,-0.437500,0.050000,-0.437500,0.050000,$1*%
%AMFreePoly5*
4,1,18,-0.437500,0.050000,-0.387500,0.100000,0.387500,0.100000,0.406634,0.096194,0.422855,0.085355,0.433694,0.069134,0.437500,0.050000,0.437500,-0.050000,0.433694,-0.069134,0.422855,-0.085355,0.406634,-0.096194,0.387500,-0.100000,-0.387500,-0.100000,-0.406634,-0.096194,-0.422855,-0.085355,-0.433694,-0.069134,-0.437500,-0.050000,-0.437500,0.050000,-0.437500,0.050000,$1*%
%AMFreePoly6*
4,1,18,-0.100000,0.387500,-0.096194,0.406634,-0.085355,0.422855,-0.069134,0.433694,-0.050000,0.437500,0.050000,0.437500,0.069134,0.433694,0.085355,0.422855,0.096194,0.406634,0.100000,0.387500,0.100000,-0.387500,0.050000,-0.437500,-0.050000,-0.437500,-0.069134,-0.433694,-0.085355,-0.422855,-0.096194,-0.406634,-0.100000,-0.387500,-0.100000,0.387500,-0.100000,0.387500,$1*%
%AMFreePoly7*
4,1,18,-0.100000,0.387500,-0.096194,0.406634,-0.085355,0.422855,-0.069134,0.433694,-0.050000,0.437500,0.050000,0.437500,0.069134,0.433694,0.085355,0.422855,0.096194,0.406634,0.100000,0.387500,0.100000,-0.387500,0.096194,-0.406634,0.085355,-0.422855,0.069134,-0.433694,0.050000,-0.437500,-0.050000,-0.437500,-0.100000,-0.387500,-0.100000,0.387500,-0.100000,0.387500,$1*%
G04 Aperture macros list end*
%ADD10RoundRect,0.200000X0.200000X0.275000X-0.200000X0.275000X-0.200000X-0.275000X0.200000X-0.275000X0*%
%ADD11R,0.380000X1.000000*%
%ADD12R,0.700000X1.150000*%
%ADD13RoundRect,0.135000X0.185000X-0.135000X0.185000X0.135000X-0.185000X0.135000X-0.185000X-0.135000X0*%
%ADD14RoundRect,0.250000X0.475000X-0.250000X0.475000X0.250000X-0.475000X0.250000X-0.475000X-0.250000X0*%
%ADD15RoundRect,0.135000X-0.185000X0.135000X-0.185000X-0.135000X0.185000X-0.135000X0.185000X0.135000X0*%
%ADD16RoundRect,0.250000X0.450000X0.350000X-0.450000X0.350000X-0.450000X-0.350000X0.450000X-0.350000X0*%
%ADD17R,0.530000X0.470000*%
%ADD18RoundRect,0.140000X-0.140000X-0.170000X0.140000X-0.170000X0.140000X0.170000X-0.140000X0.170000X0*%
%ADD19RoundRect,0.250000X-0.250000X-0.475000X0.250000X-0.475000X0.250000X0.475000X-0.250000X0.475000X0*%
%ADD20RoundRect,0.140000X0.140000X0.170000X-0.140000X0.170000X-0.140000X-0.170000X0.140000X-0.170000X0*%
%ADD21RoundRect,0.250000X-0.250000X1.000000X-0.250000X-1.000000X0.250000X-1.000000X0.250000X1.000000X0*%
%ADD22RoundRect,0.135000X-0.135000X-0.185000X0.135000X-0.185000X0.135000X0.185000X-0.135000X0.185000X0*%
%ADD23RoundRect,0.150000X-0.150000X0.512500X-0.150000X-0.512500X0.150000X-0.512500X0.150000X0.512500X0*%
%ADD24RoundRect,0.140000X0.170000X-0.140000X0.170000X0.140000X-0.170000X0.140000X-0.170000X-0.140000X0*%
%ADD25RoundRect,0.250000X-0.475000X0.250000X-0.475000X-0.250000X0.475000X-0.250000X0.475000X0.250000X0*%
%ADD26RoundRect,0.250000X0.615000X-0.435000X0.615000X0.435000X-0.615000X0.435000X-0.615000X-0.435000X0*%
%ADD27RoundRect,0.125000X0.125000X-0.250000X0.125000X0.250000X-0.125000X0.250000X-0.125000X-0.250000X0*%
%ADD28RoundRect,0.135000X0.135000X0.185000X-0.135000X0.185000X-0.135000X-0.185000X0.135000X-0.185000X0*%
%ADD29RoundRect,0.250000X0.350000X-0.350000X0.350000X0.350000X-0.350000X0.350000X-0.350000X-0.350000X0*%
%ADD30FreePoly0,90.000000*%
%ADD31RoundRect,0.050000X0.050000X-0.387500X0.050000X0.387500X-0.050000X0.387500X-0.050000X-0.387500X0*%
%ADD32FreePoly1,90.000000*%
%ADD33FreePoly2,90.000000*%
%ADD34RoundRect,0.050000X0.387500X-0.050000X0.387500X0.050000X-0.387500X0.050000X-0.387500X-0.050000X0*%
%ADD35FreePoly3,90.000000*%
%ADD36FreePoly4,90.000000*%
%ADD37FreePoly5,90.000000*%
%ADD38FreePoly6,90.000000*%
%ADD39FreePoly7,90.000000*%
%ADD40R,1.700000X0.700000*%
G04 APERTURE END LIST*
D10*
%TO.C,R4*%
X100530183Y-57546434D03*
X98880183Y-57546434D03*
%TD*%
D11*
%TO.C,P1*%
X100805183Y-54186434D03*
X101305183Y-54186434D03*
X101805183Y-54186434D03*
X102305183Y-54186434D03*
X102805183Y-54186434D03*
X103305183Y-54186434D03*
X103805183Y-54186434D03*
X104305183Y-54186434D03*
X104805183Y-54186434D03*
X105305183Y-54186434D03*
X105805183Y-54186434D03*
X106305183Y-54186434D03*
D12*
X100135183Y-55026434D03*
%TD*%
D13*
%TO.C,R8*%
X114300000Y-66110000D03*
X114300000Y-65090000D03*
%TD*%
D14*
%TO.C,C19*%
X94055183Y-55046434D03*
X94055183Y-53146434D03*
%TD*%
D15*
%TO.C,R5*%
X94700000Y-67390000D03*
X94700000Y-68410000D03*
%TD*%
D16*
%TO.C,Y1*%
X114235183Y-60726434D03*
X112035183Y-60726434D03*
X112035183Y-62426434D03*
X114235183Y-62426434D03*
%TD*%
D17*
%TO.C,C1*%
X99750000Y-63615000D03*
X99750000Y-62585000D03*
%TD*%
D18*
%TO.C,C9*%
X102780000Y-71480000D03*
X103740000Y-71480000D03*
%TD*%
D19*
%TO.C,C2*%
X111280000Y-56000000D03*
X113180000Y-56000000D03*
%TD*%
D18*
%TO.C,C10*%
X107400000Y-61646434D03*
X108360000Y-61646434D03*
%TD*%
D20*
%TO.C,C17*%
X103980000Y-60850000D03*
X103020000Y-60850000D03*
%TD*%
D21*
%TO.C,J2*%
X114985183Y-79600000D03*
X112445183Y-79600000D03*
X109905183Y-79600000D03*
X107365183Y-79600000D03*
X104825183Y-79600000D03*
X102285183Y-79600000D03*
X99745183Y-79600000D03*
X97205183Y-79600000D03*
X94665183Y-79600000D03*
X92125183Y-79600000D03*
%TD*%
D20*
%TO.C,C8*%
X103980000Y-62000000D03*
X103020000Y-62000000D03*
%TD*%
D17*
%TO.C,C3*%
X98500000Y-63565000D03*
X98500000Y-62535000D03*
%TD*%
D18*
%TO.C,C5*%
X100820000Y-60850000D03*
X101780000Y-60850000D03*
%TD*%
D22*
%TO.C,R3*%
X98590000Y-64750000D03*
X99610000Y-64750000D03*
%TD*%
D23*
%TO.C,U4*%
X94067683Y-57208934D03*
X93117683Y-57208934D03*
X92167683Y-57208934D03*
X92167683Y-59483934D03*
X94067683Y-59483934D03*
%TD*%
D22*
%TO.C,R1*%
X98790000Y-60860000D03*
X99810000Y-60860000D03*
%TD*%
%TO.C,R7*%
X94090000Y-74200000D03*
X95110000Y-74200000D03*
%TD*%
D24*
%TO.C,C15*%
X114235183Y-58526434D03*
X114235183Y-57566434D03*
%TD*%
D22*
%TO.C,R2*%
X98590000Y-65700000D03*
X99610000Y-65700000D03*
%TD*%
D25*
%TO.C,C21*%
X92600000Y-61200000D03*
X92600000Y-63100000D03*
%TD*%
D18*
%TO.C,C12*%
X111440000Y-64160000D03*
X112400000Y-64160000D03*
%TD*%
D24*
%TO.C,C4*%
X110005183Y-60576434D03*
X110005183Y-59616434D03*
%TD*%
D26*
%TO.C,U2*%
X96930183Y-70846434D03*
X99080183Y-70846434D03*
X96930183Y-69146434D03*
X99080183Y-69146434D03*
D27*
X96100183Y-72696434D03*
X97370183Y-72696434D03*
X98640183Y-72696434D03*
X99910183Y-72696434D03*
X99910183Y-67296434D03*
X98640183Y-67296434D03*
X97370183Y-67296434D03*
X96100183Y-67296434D03*
%TD*%
D24*
%TO.C,C6*%
X109000000Y-60610000D03*
X109000000Y-59650000D03*
%TD*%
%TO.C,C7*%
X107980000Y-60600000D03*
X107980000Y-59640000D03*
%TD*%
D18*
%TO.C,C13*%
X112550000Y-68250000D03*
X113510000Y-68250000D03*
%TD*%
D28*
%TO.C,R6*%
X97120000Y-74200000D03*
X96100000Y-74200000D03*
%TD*%
D18*
%TO.C,C14*%
X112367836Y-65930000D03*
X113327836Y-65930000D03*
%TD*%
%TO.C,C16*%
X113405183Y-63956434D03*
X114365183Y-63956434D03*
%TD*%
D29*
%TO.C,U1*%
X106055183Y-67496434D03*
X107455183Y-67496434D03*
X106055183Y-66096434D03*
X107455183Y-66096434D03*
D30*
X103955183Y-70233934D03*
D31*
X104355183Y-70233934D03*
X104755183Y-70233934D03*
X105155183Y-70233934D03*
X105555183Y-70233934D03*
X105955183Y-70233934D03*
X106355183Y-70233934D03*
X106755183Y-70233934D03*
X107155183Y-70233934D03*
X107555183Y-70233934D03*
X107955183Y-70233934D03*
X108355183Y-70233934D03*
X108755183Y-70233934D03*
X109155183Y-70233934D03*
D32*
X109555183Y-70233934D03*
D33*
X110192683Y-69596434D03*
D34*
X110192683Y-69196434D03*
X110192683Y-68796434D03*
X110192683Y-68396434D03*
X110192683Y-67996434D03*
X110192683Y-67596434D03*
X110192683Y-67196434D03*
X110192683Y-66796434D03*
X110192683Y-66396434D03*
X110192683Y-65996434D03*
X110192683Y-65596434D03*
X110192683Y-65196434D03*
X110192683Y-64796434D03*
X110192683Y-64396434D03*
D35*
X110192683Y-63996434D03*
D36*
X109555183Y-63358934D03*
D31*
X109155183Y-63358934D03*
X108755183Y-63358934D03*
X108355183Y-63358934D03*
X107955183Y-63358934D03*
X107555183Y-63358934D03*
X107155183Y-63358934D03*
X106755183Y-63358934D03*
X106355183Y-63358934D03*
X105955183Y-63358934D03*
X105555183Y-63358934D03*
X105155183Y-63358934D03*
X104755183Y-63358934D03*
X104355183Y-63358934D03*
D37*
X103955183Y-63358934D03*
D38*
X103317683Y-63996434D03*
D34*
X103317683Y-64396434D03*
X103317683Y-64796434D03*
X103317683Y-65196434D03*
X103317683Y-65596434D03*
X103317683Y-65996434D03*
X103317683Y-66396434D03*
X103317683Y-66796434D03*
X103317683Y-67196434D03*
X103317683Y-67596434D03*
X103317683Y-67996434D03*
X103317683Y-68396434D03*
X103317683Y-68796434D03*
X103317683Y-69196434D03*
D39*
X103317683Y-69596434D03*
%TD*%
D40*
%TO.C,L1*%
X96708211Y-63550000D03*
X96708211Y-62150000D03*
%TD*%
M02*
