%TF.GenerationSoftware,KiCad,Pcbnew,9.0.4*%
%TF.CreationDate,2025-09-23T00:44:44+02:00*%
%TF.ProjectId,rp2350_gpio_card,72703233-3530-45f6-9770-696f5f636172,X1*%
%TF.SameCoordinates,Original*%
%TF.FileFunction,Profile,NP*%
%FSLAX46Y46*%
G04 Gerber Fmt 4.6, Leading zero omitted, Abs format (unit mm)*
G04 Created by KiCad (PCBNEW 9.0.4) date 2025-09-23 00:44:44*
%MOMM*%
%LPD*%
G01*
G04 APERTURE LIST*
%TA.AperFunction,Profile*%
%ADD10C,0.254000*%
%TD*%
G04 APERTURE END LIST*
D10*
X116600000Y-55100000D02*
X116600000Y-81600000D01*
X90600000Y-55100000D02*
X90600000Y-81600000D01*
X108100000Y-54978500D02*
X109500000Y-54978500D01*
X109500000Y-51600000D02*
X115600000Y-51600000D01*
X97500000Y-55024500D02*
X98900000Y-55024500D01*
X91600000Y-55100000D02*
X91600000Y-51600000D01*
X90600000Y-81600000D02*
X116600000Y-81600000D01*
X109500000Y-51600000D02*
X109500000Y-54978500D01*
X97500000Y-51600000D02*
X91600000Y-51600000D01*
X115600000Y-55100000D02*
X116600000Y-55100000D01*
X97500000Y-51600000D02*
X97500000Y-55018434D01*
X115600000Y-55100000D02*
X115600000Y-51600000D01*
X90600000Y-55100000D02*
X91600000Y-55100000D01*
%TO.C,P1*%
X98900000Y-53500500D02*
X98900000Y-55024500D01*
X99850000Y-52649500D02*
X99850000Y-53500500D01*
X99850000Y-53500500D02*
X98900000Y-53500500D01*
X107150000Y-52649500D02*
X99850000Y-52649500D01*
X107150000Y-53500500D02*
X107150000Y-52649500D01*
X108100000Y-53500500D02*
X107150000Y-53500500D01*
X108100000Y-54978500D02*
X108100000Y-53500500D01*
%TD*%
M02*
