M48
; DRILL file {KiCad 9.0.4} date 2025-09-23T00:44:44+0200
; FORMAT={-:-/ absolute / inch / decimal}
; #@! TF.CreationDate,2025-09-23T00:44:44+02:00
; #@! TF.GenerationSoftware,Kicad,Pcbnew,9.0.4
; #@! TF.FileFunction,Plated,1,4,PTH
FMAT,2
INCH
; #@! TA.AperFunction,Plated,PTH,ComponentDrill
T1C0.0098
; #@! TA.AperFunction,Plated,PTH,ViaDrill
T2C0.0118
; #@! TA.AperFunction,Plated,PTH,ViaDrill
T3C0.0157
%
G90
G05
T1
X4.1488Y-2.5756
X4.1488Y-2.6298
X4.1488Y-2.6839
X4.203Y-2.5756
X4.203Y-2.6298
X4.203Y-2.6839
X4.2571Y-2.5756
X4.2571Y-2.6298
X4.2571Y-2.6839
T2
X3.6457Y-2.1969
X3.6459Y-2.9443
X3.8307Y-2.3831
X3.878Y-2.4311
X3.8898Y-2.2146
X3.9252Y-2.4311
X3.9587Y-2.5276
X3.9878Y-2.1886
X4.0098Y-2.4429
X4.0555Y-2.3551
X4.0671Y-2.8455
X4.0722Y-2.8766
X4.1102Y-2.2953
X4.124Y-2.1791
X4.1242Y-2.3886
X4.1559Y-2.3583
X4.1787Y-2.3831
X4.2098Y-2.3626
X4.2817Y-2.8274
X4.3016Y-2.4272
X4.3181Y-2.8427
X4.3346Y-2.4217
X4.3453Y-2.9152
X4.3526Y-2.8642
X4.3717Y-2.9487
X4.3898Y-2.622
X4.3898Y-2.7087
X4.4114Y-2.3386
X4.4272Y-2.5591
X4.4547Y-2.3386
X4.4606Y-2.5591
X4.4961Y-2.2598
X4.5272Y-2.7031
X4.5335Y-2.5177
T3
X3.6319Y-2.6409
X3.6457Y-2.5591
X3.6693Y-2.6933
X3.7618Y-2.0925
X3.8031Y-2.7559
X3.8437Y-2.2656
X3.8583Y-2.7165
X3.8583Y-2.7953
X3.8585Y-2.7558
X3.9094Y-2.7559
X4.2071Y-2.2465
X4.4618Y-2.9862
X4.5039Y-2.2047
M30
