%TF.GenerationSoftware,KiCad,Pcbnew,9.0.4*%
%TF.CreationDate,2025-09-22T12:22:06+02:00*%
%TF.ProjectId,rp2350_gpio_card,72703233-3530-45f6-9770-696f5f636172,X1*%
%TF.SameCoordinates,Original*%
%TF.FileFunction,Copper,L1,Top*%
%TF.FilePolarity,Positive*%
%FSLAX46Y46*%
G04 Gerber Fmt 4.6, Leading zero omitted, Abs format (unit mm)*
G04 Created by KiCad (PCBNEW 9.0.4) date 2025-09-22 12:22:06*
%MOMM*%
%LPD*%
G01*
G04 APERTURE LIST*
G04 Aperture macros list*
%AMRoundRect*
0 Rectangle with rounded corners*
0 $1 Rounding radius*
0 $2 $3 $4 $5 $6 $7 $8 $9 X,Y pos of 4 corners*
0 Add a 4 corners polygon primitive as box body*
4,1,4,$2,$3,$4,$5,$6,$7,$8,$9,$2,$3,0*
0 Add four circle primitives for the rounded corners*
1,1,$1+$1,$2,$3*
1,1,$1+$1,$4,$5*
1,1,$1+$1,$6,$7*
1,1,$1+$1,$8,$9*
0 Add four rect primitives between the rounded corners*
20,1,$1+$1,$2,$3,$4,$5,0*
20,1,$1+$1,$4,$5,$6,$7,0*
20,1,$1+$1,$6,$7,$8,$9,0*
20,1,$1+$1,$8,$9,$2,$3,0*%
%AMFreePoly0*
4,1,18,-0.437500,0.050000,-0.433694,0.069134,-0.422855,0.085355,-0.406634,0.096194,-0.387500,0.100000,0.387500,0.100000,0.437500,0.050000,0.437500,-0.050000,0.433694,-0.069134,0.422855,-0.085355,0.406634,-0.096194,0.387500,-0.100000,-0.387500,-0.100000,-0.406634,-0.096194,-0.422855,-0.085355,-0.433694,-0.069134,-0.437500,-0.050000,-0.437500,0.050000,-0.437500,0.050000,$1*%
%AMFreePoly1*
4,1,18,-0.437500,0.050000,-0.433694,0.069134,-0.422855,0.085355,-0.406634,0.096194,-0.387500,0.100000,0.387500,0.100000,0.406634,0.096194,0.422855,0.085355,0.433694,0.069134,0.437500,0.050000,0.437500,-0.050000,0.387500,-0.100000,-0.387500,-0.100000,-0.406634,-0.096194,-0.422855,-0.085355,-0.433694,-0.069134,-0.437500,-0.050000,-0.437500,0.050000,-0.437500,0.050000,$1*%
%AMFreePoly2*
4,1,18,-0.100000,0.387500,-0.050000,0.437500,0.050000,0.437500,0.069134,0.433694,0.085355,0.422855,0.096194,0.406634,0.100000,0.387500,0.100000,-0.387500,0.096194,-0.406634,0.085355,-0.422855,0.069134,-0.433694,0.050000,-0.437500,-0.050000,-0.437500,-0.069134,-0.433694,-0.085355,-0.422855,-0.096194,-0.406634,-0.100000,-0.387500,-0.100000,0.387500,-0.100000,0.387500,$1*%
%AMFreePoly3*
4,1,18,-0.100000,0.387500,-0.096194,0.406634,-0.085355,0.422855,-0.069134,0.433694,-0.050000,0.437500,0.050000,0.437500,0.100000,0.387500,0.100000,-0.387500,0.096194,-0.406634,0.085355,-0.422855,0.069134,-0.433694,0.050000,-0.437500,-0.050000,-0.437500,-0.069134,-0.433694,-0.085355,-0.422855,-0.096194,-0.406634,-0.100000,-0.387500,-0.100000,0.387500,-0.100000,0.387500,$1*%
%AMFreePoly4*
4,1,18,-0.437500,0.050000,-0.433694,0.069134,-0.422855,0.085355,-0.406634,0.096194,-0.387500,0.100000,0.387500,0.100000,0.406634,0.096194,0.422855,0.085355,0.433694,0.069134,0.437500,0.050000,0.437500,-0.050000,0.433694,-0.069134,0.422855,-0.085355,0.406634,-0.096194,0.387500,-0.100000,-0.387500,-0.100000,-0.437500,-0.050000,-0.437500,0.050000,-0.437500,0.050000,$1*%
%AMFreePoly5*
4,1,18,-0.437500,0.050000,-0.387500,0.100000,0.387500,0.100000,0.406634,0.096194,0.422855,0.085355,0.433694,0.069134,0.437500,0.050000,0.437500,-0.050000,0.433694,-0.069134,0.422855,-0.085355,0.406634,-0.096194,0.387500,-0.100000,-0.387500,-0.100000,-0.406634,-0.096194,-0.422855,-0.085355,-0.433694,-0.069134,-0.437500,-0.050000,-0.437500,0.050000,-0.437500,0.050000,$1*%
%AMFreePoly6*
4,1,18,-0.100000,0.387500,-0.096194,0.406634,-0.085355,0.422855,-0.069134,0.433694,-0.050000,0.437500,0.050000,0.437500,0.069134,0.433694,0.085355,0.422855,0.096194,0.406634,0.100000,0.387500,0.100000,-0.387500,0.050000,-0.437500,-0.050000,-0.437500,-0.069134,-0.433694,-0.085355,-0.422855,-0.096194,-0.406634,-0.100000,-0.387500,-0.100000,0.387500,-0.100000,0.387500,$1*%
%AMFreePoly7*
4,1,18,-0.100000,0.387500,-0.096194,0.406634,-0.085355,0.422855,-0.069134,0.433694,-0.050000,0.437500,0.050000,0.437500,0.069134,0.433694,0.085355,0.422855,0.096194,0.406634,0.100000,0.387500,0.100000,-0.387500,0.096194,-0.406634,0.085355,-0.422855,0.069134,-0.433694,0.050000,-0.437500,-0.050000,-0.437500,-0.100000,-0.387500,-0.100000,0.387500,-0.100000,0.387500,$1*%
G04 Aperture macros list end*
%TA.AperFunction,SMDPad,CuDef*%
%ADD10RoundRect,0.200000X0.200000X0.275000X-0.200000X0.275000X-0.200000X-0.275000X0.200000X-0.275000X0*%
%TD*%
%TA.AperFunction,SMDPad,CuDef*%
%ADD11R,0.600000X1.550000*%
%TD*%
%TA.AperFunction,SMDPad,CuDef*%
%ADD12R,0.250000X1.300000*%
%TD*%
%TA.AperFunction,SMDPad,CuDef*%
%ADD13RoundRect,0.135000X0.185000X-0.135000X0.185000X0.135000X-0.185000X0.135000X-0.185000X-0.135000X0*%
%TD*%
%TA.AperFunction,SMDPad,CuDef*%
%ADD14RoundRect,0.250000X0.475000X-0.250000X0.475000X0.250000X-0.475000X0.250000X-0.475000X-0.250000X0*%
%TD*%
%TA.AperFunction,SMDPad,CuDef*%
%ADD15RoundRect,0.135000X-0.185000X0.135000X-0.185000X-0.135000X0.185000X-0.135000X0.185000X0.135000X0*%
%TD*%
%TA.AperFunction,SMDPad,CuDef*%
%ADD16RoundRect,0.250000X0.450000X0.350000X-0.450000X0.350000X-0.450000X-0.350000X0.450000X-0.350000X0*%
%TD*%
%TA.AperFunction,SMDPad,CuDef*%
%ADD17R,0.530000X0.470000*%
%TD*%
%TA.AperFunction,SMDPad,CuDef*%
%ADD18RoundRect,0.135000X-0.135000X-0.185000X0.135000X-0.185000X0.135000X0.185000X-0.135000X0.185000X0*%
%TD*%
%TA.AperFunction,SMDPad,CuDef*%
%ADD19RoundRect,0.140000X-0.140000X-0.170000X0.140000X-0.170000X0.140000X0.170000X-0.140000X0.170000X0*%
%TD*%
%TA.AperFunction,SMDPad,CuDef*%
%ADD20RoundRect,0.250000X-0.250000X-0.475000X0.250000X-0.475000X0.250000X0.475000X-0.250000X0.475000X0*%
%TD*%
%TA.AperFunction,SMDPad,CuDef*%
%ADD21RoundRect,0.140000X0.140000X0.170000X-0.140000X0.170000X-0.140000X-0.170000X0.140000X-0.170000X0*%
%TD*%
%TA.AperFunction,SMDPad,CuDef*%
%ADD22RoundRect,0.250000X-0.250000X1.000000X-0.250000X-1.000000X0.250000X-1.000000X0.250000X1.000000X0*%
%TD*%
%TA.AperFunction,SMDPad,CuDef*%
%ADD23RoundRect,0.150000X-0.150000X0.512500X-0.150000X-0.512500X0.150000X-0.512500X0.150000X0.512500X0*%
%TD*%
%TA.AperFunction,SMDPad,CuDef*%
%ADD24RoundRect,0.140000X0.170000X-0.140000X0.170000X0.140000X-0.170000X0.140000X-0.170000X-0.140000X0*%
%TD*%
%TA.AperFunction,SMDPad,CuDef*%
%ADD25RoundRect,0.250000X-0.475000X0.250000X-0.475000X-0.250000X0.475000X-0.250000X0.475000X0.250000X0*%
%TD*%
%TA.AperFunction,SMDPad,CuDef*%
%ADD26RoundRect,0.125000X0.125000X-0.250000X0.125000X0.250000X-0.125000X0.250000X-0.125000X-0.250000X0*%
%TD*%
%TA.AperFunction,HeatsinkPad*%
%ADD27R,4.300000X3.400000*%
%TD*%
%TA.AperFunction,SMDPad,CuDef*%
%ADD28FreePoly0,90.000000*%
%TD*%
%TA.AperFunction,SMDPad,CuDef*%
%ADD29RoundRect,0.050000X0.050000X-0.387500X0.050000X0.387500X-0.050000X0.387500X-0.050000X-0.387500X0*%
%TD*%
%TA.AperFunction,SMDPad,CuDef*%
%ADD30FreePoly1,90.000000*%
%TD*%
%TA.AperFunction,SMDPad,CuDef*%
%ADD31FreePoly2,90.000000*%
%TD*%
%TA.AperFunction,SMDPad,CuDef*%
%ADD32RoundRect,0.050000X0.387500X-0.050000X0.387500X0.050000X-0.387500X0.050000X-0.387500X-0.050000X0*%
%TD*%
%TA.AperFunction,SMDPad,CuDef*%
%ADD33FreePoly3,90.000000*%
%TD*%
%TA.AperFunction,SMDPad,CuDef*%
%ADD34FreePoly4,90.000000*%
%TD*%
%TA.AperFunction,SMDPad,CuDef*%
%ADD35FreePoly5,90.000000*%
%TD*%
%TA.AperFunction,SMDPad,CuDef*%
%ADD36FreePoly6,90.000000*%
%TD*%
%TA.AperFunction,SMDPad,CuDef*%
%ADD37FreePoly7,90.000000*%
%TD*%
%TA.AperFunction,ComponentPad*%
%ADD38C,0.600000*%
%TD*%
%TA.AperFunction,SMDPad,CuDef*%
%ADD39RoundRect,0.153000X1.547000X1.547000X-1.547000X1.547000X-1.547000X-1.547000X1.547000X-1.547000X0*%
%TD*%
%TA.AperFunction,SMDPad,CuDef*%
%ADD40R,1.700000X0.700000*%
%TD*%
%TA.AperFunction,ViaPad*%
%ADD41C,0.600000*%
%TD*%
%TA.AperFunction,ViaPad*%
%ADD42C,0.800000*%
%TD*%
%TA.AperFunction,Conductor*%
%ADD43C,0.152400*%
%TD*%
%TA.AperFunction,Conductor*%
%ADD44C,0.127000*%
%TD*%
%TA.AperFunction,Conductor*%
%ADD45C,0.254000*%
%TD*%
%TA.AperFunction,Conductor*%
%ADD46C,0.200000*%
%TD*%
%TA.AperFunction,Conductor*%
%ADD47C,0.250000*%
%TD*%
G04 APERTURE END LIST*
D10*
%TO.P,R4,1*%
%TO.N,Net-(P1-CC)*%
X100530183Y-57546434D03*
%TO.P,R4,2*%
%TO.N,GND*%
X98880183Y-57546434D03*
%TD*%
D11*
%TO.P,P1,25*%
%TO.N,N/C*%
X100200000Y-52667500D03*
D12*
%TO.P,P1,A1,GND*%
%TO.N,GND*%
X100850000Y-52242500D03*
%TO.P,P1,A2*%
%TO.N,N/C*%
X101350000Y-52242500D03*
%TO.P,P1,A3*%
X101850000Y-52242500D03*
%TO.P,P1,A4,VBUS*%
%TO.N,VBUS*%
X102350000Y-52242500D03*
%TO.P,P1,A5,CC*%
%TO.N,Net-(P1-CC)*%
X102850000Y-52242500D03*
%TO.P,P1,A6,D+*%
%TO.N,/USB_D+*%
X103350000Y-52242500D03*
%TO.P,P1,A7,D-*%
%TO.N,/USB_D-*%
X103850000Y-52242500D03*
%TO.P,P1,A8*%
%TO.N,N/C*%
X104350000Y-52242500D03*
%TO.P,P1,A9,VBUS*%
%TO.N,VBUS*%
X104850000Y-52242500D03*
%TO.P,P1,A10*%
%TO.N,N/C*%
X105350000Y-52242500D03*
%TO.P,P1,A11*%
X105850000Y-52242500D03*
%TO.P,P1,A12,GND*%
%TO.N,GND*%
X106350000Y-52242500D03*
%TD*%
D13*
%TO.P,R8,1*%
%TO.N,/XOUT*%
X114300000Y-66110000D03*
%TO.P,R8,2*%
%TO.N,Net-(C16-Pad1)*%
X114300000Y-65090000D03*
%TD*%
D14*
%TO.P,C19,1*%
%TO.N,VBUS*%
X94055183Y-55046434D03*
%TO.P,C19,2*%
%TO.N,GND*%
X94055183Y-53146434D03*
%TD*%
D15*
%TO.P,R5,1*%
%TO.N,+3.3V*%
X94700000Y-67390000D03*
%TO.P,R5,2*%
%TO.N,/FLASH_SS*%
X94700000Y-68410000D03*
%TD*%
D16*
%TO.P,Y1,1,1*%
%TO.N,/XIN*%
X114235183Y-60726434D03*
%TO.P,Y1,2,2*%
%TO.N,GND*%
X112035183Y-60726434D03*
%TO.P,Y1,3,3*%
%TO.N,Net-(C16-Pad1)*%
X112035183Y-62426434D03*
%TO.P,Y1,4,4*%
%TO.N,GND*%
X114235183Y-62426434D03*
%TD*%
D17*
%TO.P,C1,1*%
%TO.N,+3.3V*%
X99700000Y-63565000D03*
%TO.P,C1,2*%
%TO.N,GND*%
X99700000Y-62535000D03*
%TD*%
D18*
%TO.P,R7,1*%
%TO.N,/GPIO0*%
X94070000Y-74250000D03*
%TO.P,R7,2*%
%TO.N,/FLASH_SS*%
X95090000Y-74250000D03*
%TD*%
D19*
%TO.P,C9,1*%
%TO.N,+3.3V*%
X102780000Y-71480000D03*
%TO.P,C9,2*%
%TO.N,GND*%
X103740000Y-71480000D03*
%TD*%
D20*
%TO.P,C2,1*%
%TO.N,+3.3V*%
X111280000Y-56000000D03*
%TO.P,C2,2*%
%TO.N,GND*%
X113180000Y-56000000D03*
%TD*%
D19*
%TO.P,C10,1*%
%TO.N,+3.3V*%
X107400000Y-61646434D03*
%TO.P,C10,2*%
%TO.N,GND*%
X108360000Y-61646434D03*
%TD*%
D21*
%TO.P,C17,1*%
%TO.N,+3.3V*%
X103980000Y-60850000D03*
%TO.P,C17,2*%
%TO.N,GND*%
X103020000Y-60850000D03*
%TD*%
D22*
%TO.P,J2,1,Pin_1*%
%TO.N,/RUN*%
X114985183Y-79600000D03*
%TO.P,J2,2,Pin_2*%
%TO.N,+3.3V*%
X112445183Y-79600000D03*
%TO.P,J2,3,Pin_3*%
%TO.N,/GPIO7*%
X109905183Y-79600000D03*
%TO.P,J2,4,Pin_4*%
%TO.N,/GPIO6*%
X107365183Y-79600000D03*
%TO.P,J2,5,Pin_5*%
%TO.N,/GPIO5*%
X104825183Y-79600000D03*
%TO.P,J2,6,Pin_6*%
%TO.N,/GPIO4*%
X102285183Y-79600000D03*
%TO.P,J2,7,Pin_7*%
%TO.N,/GPIO3*%
X99745183Y-79600000D03*
%TO.P,J2,8,Pin_8*%
%TO.N,/GPIO2*%
X97205183Y-79600000D03*
%TO.P,J2,9,Pin_9*%
%TO.N,/GPIO1*%
X94665183Y-79600000D03*
%TO.P,J2,10,Pin_10*%
%TO.N,/QSPI_SS*%
X92125183Y-79600000D03*
%TD*%
D21*
%TO.P,C8,1*%
%TO.N,+3.3V*%
X103980000Y-62000000D03*
%TO.P,C8,2*%
%TO.N,GND*%
X103020000Y-62000000D03*
%TD*%
D17*
%TO.P,C3,1*%
%TO.N,+1V1*%
X98500000Y-63565000D03*
%TO.P,C3,2*%
%TO.N,GND*%
X98500000Y-62535000D03*
%TD*%
D19*
%TO.P,C5,1*%
%TO.N,/VREG_AVDD*%
X100820000Y-60850000D03*
%TO.P,C5,2*%
%TO.N,GND*%
X101780000Y-60850000D03*
%TD*%
D18*
%TO.P,R3,1*%
%TO.N,/USB_D-*%
X98590000Y-64750000D03*
%TO.P,R3,2*%
%TO.N,Net-(U1-USB_DM)*%
X99610000Y-64750000D03*
%TD*%
D23*
%TO.P,U4,1,VIN*%
%TO.N,VBUS*%
X94067683Y-57208934D03*
%TO.P,U4,2,GND*%
%TO.N,GND*%
X93117683Y-57208934D03*
%TO.P,U4,3,EN*%
%TO.N,VBUS*%
X92167683Y-57208934D03*
%TO.P,U4,4,NC*%
%TO.N,unconnected-(U4-NC-Pad4)*%
X92167683Y-59483934D03*
%TO.P,U4,5,VOUT*%
%TO.N,+3.3V*%
X94067683Y-59483934D03*
%TD*%
D18*
%TO.P,R1,1*%
%TO.N,+3.3V*%
X98790000Y-60860000D03*
%TO.P,R1,2*%
%TO.N,/VREG_AVDD*%
X99810000Y-60860000D03*
%TD*%
D24*
%TO.P,C15,1*%
%TO.N,/XIN*%
X114235183Y-59180000D03*
%TO.P,C15,2*%
%TO.N,GND*%
X114235183Y-58220000D03*
%TD*%
D18*
%TO.P,R2,1*%
%TO.N,/USB_D+*%
X98590000Y-65700000D03*
%TO.P,R2,2*%
%TO.N,Net-(U1-USB_DP)*%
X99610000Y-65700000D03*
%TD*%
D25*
%TO.P,C21,1*%
%TO.N,+3.3V*%
X92600000Y-61200000D03*
%TO.P,C21,2*%
%TO.N,GND*%
X92600000Y-63100000D03*
%TD*%
D19*
%TO.P,C12,1*%
%TO.N,+3.3V*%
X111440000Y-64160000D03*
%TO.P,C12,2*%
%TO.N,GND*%
X112400000Y-64160000D03*
%TD*%
D24*
%TO.P,C4,1*%
%TO.N,+1V1*%
X110005183Y-60576434D03*
%TO.P,C4,2*%
%TO.N,GND*%
X110005183Y-59616434D03*
%TD*%
D26*
%TO.P,U2,1,~{CS}*%
%TO.N,/FLASH_SS*%
X96100183Y-72696434D03*
%TO.P,U2,2,DO/IO_{1}*%
%TO.N,/QSPI_SD1*%
X97370183Y-72696434D03*
%TO.P,U2,3,~{WP}/IO_{2}*%
%TO.N,/QSPI_SD2*%
X98640183Y-72696434D03*
%TO.P,U2,4,GND*%
%TO.N,GND*%
X99910183Y-72696434D03*
%TO.P,U2,5,DI/IO_{0}*%
%TO.N,/QSPI_SD0*%
X99910183Y-67296434D03*
%TO.P,U2,6,CLK*%
%TO.N,/QSPI_SCLK*%
X98640183Y-67296434D03*
%TO.P,U2,7,~{HOLD}/~{RESET}/IO_{3}*%
%TO.N,/QSPI_SD3*%
X97370183Y-67296434D03*
%TO.P,U2,8,VCC*%
%TO.N,+3.3V*%
X96100183Y-67296434D03*
D27*
%TO.P,U2,9,EP*%
%TO.N,GND*%
X98005183Y-69996434D03*
%TD*%
D24*
%TO.P,C6,1*%
%TO.N,+1V1*%
X109000000Y-60610000D03*
%TO.P,C6,2*%
%TO.N,GND*%
X109000000Y-59650000D03*
%TD*%
%TO.P,C7,1*%
%TO.N,+1V1*%
X107980000Y-60600000D03*
%TO.P,C7,2*%
%TO.N,GND*%
X107980000Y-59640000D03*
%TD*%
D19*
%TO.P,C13,1*%
%TO.N,+3.3V*%
X112770000Y-68650000D03*
%TO.P,C13,2*%
%TO.N,GND*%
X113730000Y-68650000D03*
%TD*%
D13*
%TO.P,R6,1*%
%TO.N,/QSPI_SS*%
X96100000Y-74850000D03*
%TO.P,R6,2*%
%TO.N,/FLASH_SS*%
X96100000Y-73830000D03*
%TD*%
D19*
%TO.P,C14,1*%
%TO.N,+3.3V*%
X112367836Y-65930000D03*
%TO.P,C14,2*%
%TO.N,GND*%
X113327836Y-65930000D03*
%TD*%
%TO.P,C16,1*%
%TO.N,Net-(C16-Pad1)*%
X113405183Y-63956434D03*
%TO.P,C16,2*%
%TO.N,GND*%
X114365183Y-63956434D03*
%TD*%
D28*
%TO.P,U1,1,IOVDD*%
%TO.N,+3.3V*%
X103955183Y-70233934D03*
D29*
%TO.P,U1,2,GPIO0*%
%TO.N,/GPIO0*%
X104355183Y-70233934D03*
%TO.P,U1,3,GPIO1*%
%TO.N,/GPIO1*%
X104755183Y-70233934D03*
%TO.P,U1,4,GPIO2*%
%TO.N,/GPIO2*%
X105155183Y-70233934D03*
%TO.P,U1,5,GPIO3*%
%TO.N,/GPIO3*%
X105555183Y-70233934D03*
%TO.P,U1,6,DVDD*%
%TO.N,+1V1*%
X105955183Y-70233934D03*
%TO.P,U1,7,GPIO4*%
%TO.N,/GPIO4*%
X106355183Y-70233934D03*
%TO.P,U1,8,GPIO5*%
%TO.N,/GPIO5*%
X106755183Y-70233934D03*
%TO.P,U1,9,GPIO6*%
%TO.N,/GPIO6*%
X107155183Y-70233934D03*
%TO.P,U1,10,GPIO7*%
%TO.N,/GPIO7*%
X107555183Y-70233934D03*
%TO.P,U1,11,IOVDD*%
%TO.N,+3.3V*%
X107955183Y-70233934D03*
%TO.P,U1,12,GPIO8*%
%TO.N,/GPIO8*%
X108355183Y-70233934D03*
%TO.P,U1,13,GPIO9*%
%TO.N,/GPIO9*%
X108755183Y-70233934D03*
%TO.P,U1,14,GPIO10*%
%TO.N,/GPIO10*%
X109155183Y-70233934D03*
D30*
%TO.P,U1,15,GPIO11*%
%TO.N,/GPIO11*%
X109555183Y-70233934D03*
D31*
%TO.P,U1,16,GPIO12*%
%TO.N,/GPIO12*%
X110192683Y-69596434D03*
D32*
%TO.P,U1,17,GPIO13*%
%TO.N,/GPIO13*%
X110192683Y-69196434D03*
%TO.P,U1,18,GPIO14*%
%TO.N,/GPIO14*%
X110192683Y-68796434D03*
%TO.P,U1,19,GPIO15*%
%TO.N,/GPIO15*%
X110192683Y-68396434D03*
%TO.P,U1,20,IOVDD*%
%TO.N,+3.3V*%
X110192683Y-67996434D03*
%TO.P,U1,21,XIN*%
%TO.N,/XIN*%
X110192683Y-67596434D03*
%TO.P,U1,22,XOUT*%
%TO.N,/XOUT*%
X110192683Y-67196434D03*
%TO.P,U1,23,DVDD*%
%TO.N,+1V1*%
X110192683Y-66796434D03*
%TO.P,U1,24,SWCLK*%
%TO.N,/SWCLK*%
X110192683Y-66396434D03*
%TO.P,U1,25,SWD*%
%TO.N,/SWD*%
X110192683Y-65996434D03*
%TO.P,U1,26,RUN*%
%TO.N,/RUN*%
X110192683Y-65596434D03*
%TO.P,U1,27,GPIO16*%
%TO.N,/GPIO16*%
X110192683Y-65196434D03*
%TO.P,U1,28,GPIO17*%
%TO.N,/GPIO17*%
X110192683Y-64796434D03*
%TO.P,U1,29,GPIO18*%
%TO.N,/GPIO18*%
X110192683Y-64396434D03*
D33*
%TO.P,U1,30,IOVDD*%
%TO.N,+3.3V*%
X110192683Y-63996434D03*
D34*
%TO.P,U1,31,GPIO19*%
%TO.N,/GPIO19*%
X109555183Y-63358934D03*
D29*
%TO.P,U1,32,GPIO20*%
%TO.N,/GPIO20*%
X109155183Y-63358934D03*
%TO.P,U1,33,GPIO21*%
%TO.N,/GPIO21*%
X108755183Y-63358934D03*
%TO.P,U1,34,GPIO22*%
%TO.N,/GPIO22*%
X108355183Y-63358934D03*
%TO.P,U1,35,GPIO23*%
%TO.N,/GPIO23*%
X107955183Y-63358934D03*
%TO.P,U1,36,GPIO24*%
%TO.N,/GPIO24*%
X107555183Y-63358934D03*
%TO.P,U1,37,GPIO25*%
%TO.N,/GPIO25*%
X107155183Y-63358934D03*
%TO.P,U1,38,IOVDD*%
%TO.N,+3.3V*%
X106755183Y-63358934D03*
%TO.P,U1,39,DVDD*%
%TO.N,+1V1*%
X106355183Y-63358934D03*
%TO.P,U1,40,GPIO26_ADC0*%
%TO.N,/GPIO26_ADC0*%
X105955183Y-63358934D03*
%TO.P,U1,41,GPIO27_ADC1*%
%TO.N,/GPIO27_ADC1*%
X105555183Y-63358934D03*
%TO.P,U1,42,GPIO28_ADC2*%
%TO.N,/GPIO28_ADC2*%
X105155183Y-63358934D03*
%TO.P,U1,43,GPIO29_ADC3*%
%TO.N,/GPIO29_ADC3*%
X104755183Y-63358934D03*
%TO.P,U1,44,ADC_AVDD*%
%TO.N,+3.3V*%
X104355183Y-63358934D03*
D35*
%TO.P,U1,45,IOVDD*%
X103955183Y-63358934D03*
D36*
%TO.P,U1,46,VREG_AVDD*%
%TO.N,/VREG_AVDD*%
X103317683Y-63996434D03*
D32*
%TO.P,U1,47,VREG_PGND*%
%TO.N,GND*%
X103317683Y-64396434D03*
%TO.P,U1,48,VREG_LX*%
%TO.N,/VREG_LX*%
X103317683Y-64796434D03*
%TO.P,U1,49,VREG_VIN*%
%TO.N,+3.3V*%
X103317683Y-65196434D03*
%TO.P,U1,50,VREG_FB*%
%TO.N,+1V1*%
X103317683Y-65596434D03*
%TO.P,U1,51,USB_DM*%
%TO.N,Net-(U1-USB_DM)*%
X103317683Y-65996434D03*
%TO.P,U1,52,USB_DP*%
%TO.N,Net-(U1-USB_DP)*%
X103317683Y-66396434D03*
%TO.P,U1,53,USB_OTP_VDD*%
%TO.N,+3.3V*%
X103317683Y-66796434D03*
%TO.P,U1,54,QSPI_IOVDD*%
X103317683Y-67196434D03*
%TO.P,U1,55,QSPI_SD3*%
%TO.N,/QSPI_SD3*%
X103317683Y-67596434D03*
%TO.P,U1,56,QSPI_SCLK*%
%TO.N,/QSPI_SCLK*%
X103317683Y-67996434D03*
%TO.P,U1,57,QSPI_SD0*%
%TO.N,/QSPI_SD0*%
X103317683Y-68396434D03*
%TO.P,U1,58,QSPI_SD2*%
%TO.N,/QSPI_SD2*%
X103317683Y-68796434D03*
%TO.P,U1,59,QSPI_SD1*%
%TO.N,/QSPI_SD1*%
X103317683Y-69196434D03*
D37*
%TO.P,U1,60,QSPI_SS*%
%TO.N,/QSPI_SS*%
X103317683Y-69596434D03*
D38*
%TO.P,U1,61,GND*%
%TO.N,GND*%
X105380183Y-68171434D03*
X106755183Y-68171434D03*
X108130183Y-68171434D03*
X105380183Y-66796434D03*
X106755183Y-66796434D03*
D39*
X106755183Y-66796434D03*
D38*
X108130183Y-66796434D03*
X105380183Y-65421434D03*
X106755183Y-65421434D03*
X108130183Y-65421434D03*
%TD*%
D40*
%TO.P,L1,1,1*%
%TO.N,+1V1*%
X96708211Y-63550000D03*
%TO.P,L1,2,2*%
%TO.N,/VREG_LX*%
X96708211Y-62150000D03*
%TD*%
D41*
%TO.N,+1V1*%
X110100000Y-61510000D03*
X100550000Y-64200000D03*
%TO.N,VBUS*%
X104850000Y-54650000D03*
D42*
X98800000Y-56246434D03*
D41*
%TO.N,/GPIO27_ADC1*%
X106140000Y-60530000D03*
%TO.N,/GPIO29_ADC3*%
X104755183Y-60670000D03*
%TO.N,/GPIO11*%
X110555183Y-72750000D03*
%TO.N,/RUN*%
X111500000Y-66600000D03*
X111500000Y-68800000D03*
%TO.N,/GPIO10*%
X109680183Y-72205729D03*
%TO.N,/GPIO9*%
X108755502Y-71815683D03*
%TO.N,/GPIO28_ADC2*%
X105560000Y-59900000D03*
%TO.N,/GPIO0*%
X103434390Y-73064390D03*
X92605000Y-74785000D03*
%TO.N,/GPIO13*%
X111040000Y-74896434D03*
%TO.N,/GPIO12*%
X110370000Y-74046434D03*
%TO.N,GND*%
X106350000Y-54580000D03*
X96090000Y-54990000D03*
X115150000Y-63950000D03*
X112450000Y-65000000D03*
D42*
X95550000Y-53150000D03*
X98750000Y-55026434D03*
D41*
X103304724Y-72274724D03*
D42*
X96600000Y-70000000D03*
D41*
X109260000Y-61650000D03*
X112050000Y-59400000D03*
X114200000Y-57400000D03*
D42*
X109430000Y-55400000D03*
D41*
X113300000Y-65000000D03*
D42*
X114400000Y-56000000D03*
D41*
X103010000Y-59820000D03*
X106930000Y-60010000D03*
D42*
X98005183Y-69996434D03*
D41*
X101850000Y-62050000D03*
D42*
X92600000Y-65000000D03*
D41*
X104400000Y-58300000D03*
D42*
X98000000Y-71000000D03*
X93200000Y-68410000D03*
X113330000Y-75850000D03*
D41*
X114990000Y-68660000D03*
X97300000Y-60530000D03*
X99700000Y-61750000D03*
D42*
X106860000Y-57060000D03*
X92250000Y-67080000D03*
D41*
X98500000Y-61750000D03*
X92600000Y-55800000D03*
X113150000Y-59400000D03*
D42*
X99300000Y-70000000D03*
X97630183Y-57546434D03*
X98000000Y-69000000D03*
%TD*%
D43*
%TO.N,+1V1*%
X109000000Y-66373821D02*
X109422613Y-66796434D01*
D44*
X96708211Y-63550000D02*
X98485000Y-63550000D01*
D43*
X107423566Y-60576434D02*
X110005183Y-60576434D01*
X106355183Y-63358934D02*
X106355183Y-61644817D01*
D44*
X98485000Y-63550000D02*
X98500000Y-63565000D01*
D43*
X109422613Y-66796434D02*
X110192683Y-66796434D01*
D44*
X100550000Y-64200000D02*
X100737500Y-64200000D01*
D43*
X106800000Y-64500000D02*
X106355183Y-64055183D01*
D44*
X99085000Y-64150000D02*
X98500000Y-63565000D01*
D43*
X105955183Y-70233934D02*
X105955183Y-69644817D01*
D44*
X102133934Y-65596434D02*
X103317683Y-65596434D01*
D43*
X110100000Y-61510000D02*
X110100000Y-60471251D01*
X110100000Y-60671251D02*
X110005183Y-60576434D01*
X108500000Y-64500000D02*
X106800000Y-64500000D01*
X108600000Y-68900000D02*
X109000000Y-68500000D01*
X106355183Y-61644817D02*
X107423566Y-60576434D01*
X106700000Y-68900000D02*
X108600000Y-68900000D01*
X105955183Y-69644817D02*
X106700000Y-68900000D01*
X109000000Y-65000000D02*
X108500000Y-64500000D01*
X106355183Y-64055183D02*
X106355183Y-63358934D01*
D44*
X100550000Y-64200000D02*
X100500000Y-64150000D01*
D43*
X109000000Y-66373821D02*
X109000000Y-65000000D01*
D44*
X100737500Y-64200000D02*
X102133934Y-65596434D01*
X100500000Y-64150000D02*
X99085000Y-64150000D01*
D43*
X109000000Y-68500000D02*
X109000000Y-66373821D01*
D45*
%TO.N,VBUS*%
X92167683Y-58008934D02*
X92555183Y-58396434D01*
X94067683Y-57208934D02*
X94067683Y-55058934D01*
X95030183Y-56246434D02*
X94067683Y-57208934D01*
X102350000Y-55586617D02*
X102350000Y-52242500D01*
D46*
X104850000Y-54650000D02*
X104850000Y-52242500D01*
D45*
X94067683Y-58033934D02*
X94067683Y-57208934D01*
X98800000Y-56246434D02*
X95030183Y-56246434D01*
D43*
X94067683Y-55058934D02*
X94055183Y-55046434D01*
D45*
X98800000Y-56246434D02*
X101690183Y-56246434D01*
X93705183Y-58396434D02*
X94067683Y-58033934D01*
X92167683Y-57208934D02*
X92167683Y-58008934D01*
X101690183Y-56246434D02*
X102350000Y-55586617D01*
X92555183Y-58396434D02*
X93705183Y-58396434D01*
D44*
%TO.N,/VREG_AVDD*%
X99820000Y-60850000D02*
X99810000Y-60860000D01*
X100820000Y-60850000D02*
X99820000Y-60850000D01*
X100800000Y-60830000D02*
X100820000Y-60850000D01*
D43*
X102796434Y-63996434D02*
X103317683Y-63996434D01*
X103314117Y-64000000D02*
X103317683Y-63996434D01*
X101462800Y-61492800D02*
X100820000Y-60850000D01*
X102462800Y-63662800D02*
X102796434Y-63996434D01*
X102462800Y-61712800D02*
X102242800Y-61492800D01*
X102462800Y-61712800D02*
X102462800Y-63662800D01*
X102242800Y-61492800D02*
X101462800Y-61492800D01*
%TO.N,/XIN*%
X114235183Y-60726434D02*
X114235183Y-59180000D01*
X115710000Y-65890000D02*
X115710000Y-61810000D01*
X115710000Y-61810000D02*
X114626434Y-60726434D01*
X114003566Y-67596434D02*
X115710000Y-65890000D01*
X109842683Y-67596434D02*
X114003566Y-67596434D01*
X114626434Y-60726434D02*
X114235183Y-60726434D01*
%TO.N,Net-(C16-Pad1)*%
X114300000Y-64851251D02*
X113405183Y-63956434D01*
X113405183Y-63956434D02*
X112035183Y-62586434D01*
X112035183Y-62586434D02*
X112035183Y-62426434D01*
X112025183Y-62436434D02*
X112035183Y-62426434D01*
X114300000Y-65090000D02*
X114300000Y-64851251D01*
%TO.N,+3.3V*%
X103963566Y-67196434D02*
X104355183Y-66804817D01*
D46*
X112445183Y-77283175D02*
X112445183Y-79600000D01*
X107955183Y-70233934D02*
X107955183Y-72793175D01*
D43*
X107955183Y-70233934D02*
X107932383Y-70256734D01*
X94105183Y-59446434D02*
X94067683Y-59483934D01*
X107400000Y-61646434D02*
X107400000Y-61780000D01*
X103317683Y-66796434D02*
X103828749Y-66796434D01*
X104355183Y-66804817D02*
X104355183Y-66270000D01*
X104355183Y-66270000D02*
X104355183Y-63358934D01*
D46*
X107955183Y-72793175D02*
X112445183Y-77283175D01*
D43*
X103828749Y-66796434D02*
X104355183Y-66270000D01*
X103317683Y-67196434D02*
X103963566Y-67196434D01*
%TO.N,/GPIO27_ADC1*%
X105555183Y-62024817D02*
X106140000Y-61440000D01*
X106140000Y-61440000D02*
X106140000Y-60530000D01*
X105555183Y-63358934D02*
X105555183Y-62024817D01*
%TO.N,/GPIO29_ADC3*%
X104755183Y-60700000D02*
X104755183Y-63358934D01*
%TO.N,/GPIO11*%
X110555183Y-71771434D02*
X109555183Y-70771434D01*
X110555183Y-72771434D02*
X110555183Y-72750000D01*
X110555183Y-72771434D02*
X110580183Y-72746434D01*
X110555183Y-72750000D02*
X110555183Y-71771434D01*
X109555183Y-70771434D02*
X109555183Y-70233934D01*
%TO.N,/QSPI_SS*%
X103317683Y-69596434D02*
X102555183Y-69596434D01*
X100798163Y-74850000D02*
X96100000Y-74850000D01*
X96100000Y-74850000D02*
X93790000Y-74850000D01*
X102555183Y-69596434D02*
X102130183Y-70021434D01*
D44*
X101071329Y-74576834D02*
X101068163Y-74580000D01*
D43*
X92125183Y-76514817D02*
X92125183Y-79600000D01*
X102130183Y-73517980D02*
X100798163Y-74850000D01*
X93790000Y-74850000D02*
X92125183Y-76514817D01*
X102130183Y-70021434D02*
X102130183Y-73517980D01*
%TO.N,/RUN*%
X111500000Y-66100000D02*
X110996434Y-65596434D01*
X112280400Y-73580400D02*
X114985183Y-76285183D01*
X110996434Y-65596434D02*
X110192683Y-65596434D01*
X111500000Y-69269922D02*
X112280400Y-70050323D01*
X114985183Y-76285183D02*
X114985183Y-80196434D01*
X112280400Y-70050323D02*
X112280400Y-73580400D01*
X111500000Y-68800000D02*
X111500000Y-69269922D01*
X111500000Y-66570000D02*
X111500000Y-66100000D01*
%TO.N,/GPIO10*%
X109680183Y-71396218D02*
X109155183Y-70871218D01*
X109155183Y-70871218D02*
X109155183Y-70233934D01*
X109680183Y-72196434D02*
X109680183Y-71396218D01*
%TO.N,/GPIO9*%
X108755502Y-71815683D02*
X108755183Y-71815364D01*
X108755183Y-71815364D02*
X108755183Y-70233934D01*
%TO.N,/GPIO28_ADC2*%
X105155183Y-61504817D02*
X105155183Y-63358934D01*
X105560000Y-59900000D02*
X105560000Y-61100000D01*
X105560000Y-61100000D02*
X105155183Y-61504817D01*
%TO.N,/GPIO2*%
X105155183Y-70233934D02*
X105155183Y-73646002D01*
X102811185Y-75990000D02*
X98118417Y-75990000D01*
X105155183Y-73646002D02*
X102811185Y-75990000D01*
X98118417Y-75990000D02*
X97205183Y-76903234D01*
X97205183Y-76903234D02*
X97205183Y-80196434D01*
%TO.N,/GPIO1*%
X104755183Y-73546218D02*
X102721401Y-75580000D01*
X102721401Y-75580000D02*
X95771617Y-75580000D01*
X94665183Y-76706434D02*
X94665183Y-80196434D01*
X94655183Y-76696434D02*
X94665183Y-76706434D01*
X95771617Y-75580000D02*
X94655183Y-76696434D01*
X104755183Y-70233934D02*
X104755183Y-73546218D01*
%TO.N,/GPIO5*%
X106755183Y-73846218D02*
X104825183Y-75776218D01*
X106755183Y-70233934D02*
X106755183Y-73846218D01*
X104825183Y-75776218D02*
X104825183Y-80196434D01*
%TO.N,/GPIO4*%
X106355183Y-73571434D02*
X102285183Y-77641434D01*
X106355183Y-70233934D02*
X106355183Y-73571434D01*
X102285183Y-77641434D02*
X102285183Y-80196434D01*
%TO.N,/GPIO6*%
X107155183Y-70233934D02*
X107155183Y-79986434D01*
X107155183Y-79986434D02*
X107365183Y-80196434D01*
%TO.N,/GPIO0*%
X104357200Y-70235951D02*
X104355183Y-70233934D01*
D44*
X93140000Y-74250000D02*
X92605000Y-74785000D01*
D43*
X104355183Y-72144817D02*
X103602808Y-72897192D01*
X103602808Y-72897192D02*
X103601588Y-72897192D01*
D44*
X94070000Y-74250000D02*
X93140000Y-74250000D01*
D43*
X104355183Y-72144817D02*
X104355183Y-70233934D01*
%TO.N,/GPIO3*%
X100441817Y-76370000D02*
X99745183Y-77066634D01*
X105555183Y-73745785D02*
X102930968Y-76370000D01*
X105555183Y-70233934D02*
X105555183Y-73745785D01*
X102930968Y-76370000D02*
X100441817Y-76370000D01*
X99745183Y-77066634D02*
X99745183Y-80196434D01*
%TO.N,/GPIO7*%
X109905183Y-76746434D02*
X109905183Y-80196434D01*
X107555183Y-74396434D02*
X109905183Y-76746434D01*
X107555183Y-70233934D02*
X107555183Y-74396434D01*
%TO.N,/VREG_LX*%
X97062611Y-62150000D02*
X96708211Y-62150000D01*
X102619565Y-64796434D02*
X100875931Y-63052800D01*
X97965411Y-63052800D02*
X97062611Y-62150000D01*
X100875931Y-63052800D02*
X97965411Y-63052800D01*
D44*
X96708211Y-62150000D02*
X97234500Y-62150000D01*
D43*
X103317683Y-64796434D02*
X102619565Y-64796434D01*
%TO.N,Net-(P1-CC)*%
X100530183Y-57546434D02*
X101830183Y-57546434D01*
X101830183Y-57546434D02*
X102850000Y-56526617D01*
X102850000Y-56526617D02*
X102850000Y-52242500D01*
D46*
%TO.N,/USB_D+*%
X98590000Y-65700000D02*
X98430000Y-65540000D01*
X94500000Y-64610000D02*
X94500000Y-60900000D01*
X103350000Y-56608061D02*
X103350000Y-52242500D01*
X98430000Y-65540000D02*
X95430000Y-65540000D01*
X95430000Y-65540000D02*
X94500000Y-64610000D01*
X96750000Y-58650000D02*
X101308061Y-58650000D01*
X94500000Y-60900000D02*
X96750000Y-58650000D01*
X101308061Y-58650000D02*
X103350000Y-56608061D01*
%TO.N,/USB_D-*%
X98540000Y-64800000D02*
X98590000Y-64750000D01*
X94960000Y-61153862D02*
X97063862Y-59050000D01*
X98420000Y-64920000D02*
X95440000Y-64920000D01*
X98590000Y-64750000D02*
X98420000Y-64920000D01*
X103850000Y-56750000D02*
X103850000Y-52242500D01*
X94960000Y-64440000D02*
X94960000Y-61153862D01*
X101550000Y-59050000D02*
X103850000Y-56750000D01*
X95440000Y-64920000D02*
X94960000Y-64440000D01*
X97063862Y-59050000D02*
X101550000Y-59050000D01*
D44*
%TO.N,Net-(U1-USB_DP)*%
X101953563Y-66396434D02*
X101507129Y-65950000D01*
D46*
X101107129Y-65550000D02*
X101507129Y-65950000D01*
X99760000Y-65550000D02*
X101107129Y-65550000D01*
D44*
X103317683Y-66396434D02*
X101953563Y-66396434D01*
D46*
X99610000Y-65700000D02*
X99760000Y-65550000D01*
%TO.N,Net-(U1-USB_DM)*%
X99610000Y-64750000D02*
X99710000Y-64850000D01*
D44*
X103317683Y-65996434D02*
X102046434Y-65996434D01*
D46*
X101500000Y-65450000D02*
X101640000Y-65590000D01*
X100900000Y-64850000D02*
X101500000Y-65450000D01*
X100650000Y-64850000D02*
X100900000Y-64850000D01*
X99710000Y-64850000D02*
X100650000Y-64850000D01*
D44*
X102046434Y-65996434D02*
X101640000Y-65590000D01*
D43*
%TO.N,/FLASH_SS*%
X96100183Y-72730183D02*
X96090000Y-72740366D01*
X94700000Y-68410000D02*
X94900000Y-68610000D01*
D44*
X96100000Y-72696617D02*
X96100183Y-72696434D01*
X95090000Y-74250000D02*
X95680000Y-74250000D01*
X95680000Y-74250000D02*
X96100000Y-73830000D01*
D43*
X94900000Y-68610000D02*
X94900000Y-71496251D01*
X96100183Y-72696434D02*
X96100183Y-72730183D01*
X94900000Y-71496251D02*
X96100183Y-72696434D01*
D44*
X96100000Y-73830000D02*
X96100000Y-72696617D01*
D43*
X96090000Y-72706617D02*
X96100183Y-72696434D01*
%TO.N,/XOUT*%
X113803566Y-67196434D02*
X109842683Y-67196434D01*
X114300000Y-66700000D02*
X113803566Y-67196434D01*
X114300000Y-66110000D02*
X114300000Y-66700000D01*
%TO.N,/QSPI_SCLK*%
X99609355Y-66650000D02*
X99615121Y-66644234D01*
X102596434Y-67996434D02*
X103317683Y-67996434D01*
X101250000Y-66650000D02*
X102596434Y-67996434D01*
X99286617Y-66650000D02*
X99609355Y-66650000D01*
X100211011Y-66650000D02*
X101250000Y-66650000D01*
X100205245Y-66644234D02*
X100211011Y-66650000D01*
X98640183Y-67296434D02*
X99286617Y-66650000D01*
X99615121Y-66644234D02*
X100205245Y-66644234D01*
%TO.N,/QSPI_SD1*%
X98396434Y-74296434D02*
X97370183Y-73270183D01*
X100955183Y-74296434D02*
X98396434Y-74296434D01*
X101358583Y-69841417D02*
X101358583Y-73893034D01*
X103317683Y-69196434D02*
X102003566Y-69196434D01*
X97370183Y-73270183D02*
X97370183Y-72696434D01*
X102003566Y-69196434D02*
X101358583Y-69841417D01*
X101358583Y-73893034D02*
X100955183Y-74296434D01*
%TO.N,/GPIO13*%
X110192683Y-69196434D02*
X111029966Y-69196434D01*
X111540302Y-74896434D02*
X111055183Y-74896434D01*
X111029966Y-69196434D02*
X112000000Y-70166468D01*
X112000000Y-70166468D02*
X112000000Y-74436736D01*
X112000000Y-74436736D02*
X111540302Y-74896434D01*
%TO.N,/QSPI_SD3*%
X101528545Y-66350000D02*
X102774979Y-67596434D01*
X98316617Y-66350000D02*
X101528545Y-66350000D01*
X102774979Y-67596434D02*
X103317683Y-67596434D01*
X97370183Y-67296434D02*
X98316617Y-66350000D01*
%TO.N,/GPIO12*%
X111640000Y-70306251D02*
X110930183Y-69596434D01*
X110405183Y-74046434D02*
X111079013Y-74046434D01*
X110930183Y-69596434D02*
X110192683Y-69596434D01*
X111079013Y-74046434D02*
X111640000Y-73485447D01*
X111640000Y-73485447D02*
X111640000Y-70306251D01*
%TO.N,/QSPI_SD2*%
X103317683Y-68796434D02*
X101803565Y-68796434D01*
X98951783Y-73943034D02*
X98640183Y-73631434D01*
X100558583Y-73943034D02*
X98951783Y-73943034D01*
X101803565Y-68796434D02*
X101005183Y-69594816D01*
X101005183Y-69594816D02*
X101005183Y-73496434D01*
X98640183Y-73631434D02*
X98640183Y-72696434D01*
X101005183Y-73496434D02*
X100558583Y-73943034D01*
%TO.N,/QSPI_SD0*%
X101010183Y-68396434D02*
X103317683Y-68396434D01*
X99910183Y-67296434D02*
X101010183Y-68396434D01*
D46*
%TO.N,GND*%
X114200000Y-57400000D02*
X114200000Y-58184817D01*
D43*
X101850000Y-63450000D02*
X102796434Y-64396434D01*
D46*
X107980000Y-59640000D02*
X107300000Y-59640000D01*
D45*
X94055183Y-53146434D02*
X95546434Y-53146434D01*
D43*
X106860000Y-57060000D02*
X106860000Y-56980000D01*
X93117683Y-57208934D02*
X93117683Y-56317683D01*
D46*
X107300000Y-59640000D02*
X106930000Y-60010000D01*
X114235183Y-62426434D02*
X113735183Y-62426434D01*
D43*
X112035183Y-60864817D02*
X112035183Y-60726434D01*
X99700000Y-62535000D02*
X99750000Y-62585000D01*
X113250000Y-65852164D02*
X113327836Y-65930000D01*
D47*
X99910183Y-72696434D02*
X99910183Y-71901434D01*
D43*
X101850000Y-62050000D02*
X101850000Y-63450000D01*
D47*
X99910183Y-71901434D02*
X98005183Y-69996434D01*
D43*
X109005183Y-59616434D02*
X110005183Y-59616434D01*
D46*
X114400000Y-63921617D02*
X114365183Y-63956434D01*
D44*
X99700000Y-61750000D02*
X99700000Y-62535000D01*
D45*
X114400000Y-56000000D02*
X113180000Y-56000000D01*
D43*
X93117683Y-57208934D02*
X92980183Y-57071434D01*
D46*
X103020000Y-60850000D02*
X101780000Y-60850000D01*
D45*
X112035183Y-60726434D02*
X112035183Y-59385183D01*
X100850000Y-54700000D02*
X100850000Y-52242500D01*
D46*
X113150000Y-61341251D02*
X114235183Y-62426434D01*
D43*
X102796434Y-64396434D02*
X103317683Y-64396434D01*
X113327836Y-65027836D02*
X113300000Y-65000000D01*
D46*
X103020000Y-60850000D02*
X103020000Y-59830000D01*
D43*
X106350000Y-54580000D02*
X106350000Y-52242500D01*
D45*
X114990000Y-68660000D02*
X114980000Y-68650000D01*
D46*
X114235183Y-62426434D02*
X114400000Y-62591251D01*
D43*
X93117683Y-56317683D02*
X92600000Y-55800000D01*
D46*
X114365183Y-63956434D02*
X115143566Y-63956434D01*
D43*
X101850000Y-60920000D02*
X101780000Y-60850000D01*
D46*
X115143566Y-63956434D02*
X115150000Y-63950000D01*
D43*
X101780000Y-60850000D02*
X101880000Y-60750000D01*
D45*
X92600000Y-63100000D02*
X92600000Y-65000000D01*
D43*
X111730000Y-60421251D02*
X112035183Y-60726434D01*
X112400000Y-64160000D02*
X112400000Y-64950000D01*
D46*
X114400000Y-62591251D02*
X114400000Y-63921617D01*
D45*
X114980000Y-68650000D02*
X113730000Y-68650000D01*
D43*
X112400000Y-64160000D02*
X112430000Y-64160000D01*
D46*
X109256434Y-61646434D02*
X109260000Y-61650000D01*
X108360000Y-61646434D02*
X109256434Y-61646434D01*
D45*
X100523566Y-55026434D02*
X100850000Y-54700000D01*
X98750000Y-55026434D02*
X100523566Y-55026434D01*
D44*
X98500000Y-61750000D02*
X98500000Y-62535000D01*
D43*
X112400000Y-64950000D02*
X112450000Y-65000000D01*
D46*
X113150000Y-60309734D02*
X113150000Y-59400000D01*
D43*
X113327836Y-65930000D02*
X113327836Y-65027836D01*
D46*
X103020000Y-59830000D02*
X103010000Y-59820000D01*
X113150000Y-60309734D02*
X113150000Y-61341251D01*
X103304724Y-72274724D02*
X103740000Y-71839448D01*
D43*
X108005183Y-59616434D02*
X109005183Y-59616434D01*
D45*
X97630183Y-57546434D02*
X98880183Y-57546434D01*
D46*
X103020000Y-60850000D02*
X103020000Y-62000000D01*
D43*
X95546434Y-53146434D02*
X95550000Y-53150000D01*
D46*
X103740000Y-71839448D02*
X103740000Y-71480000D01*
X114365183Y-62556434D02*
X114235183Y-62426434D01*
X114200000Y-58184817D02*
X114235183Y-58220000D01*
%TD*%
%TA.AperFunction,Conductor*%
%TO.N,+3.3V*%
G36*
X106980441Y-51655449D02*
G01*
X107026415Y-51708063D01*
X107028391Y-51712579D01*
X107037636Y-51734897D01*
X107108103Y-51805364D01*
X107200172Y-51843500D01*
X107825500Y-51843500D01*
X107892539Y-51863185D01*
X107938294Y-51915989D01*
X107949500Y-51967500D01*
X107949500Y-53026172D01*
X107949500Y-53125828D01*
X107987636Y-53217897D01*
X108058103Y-53288364D01*
X108150172Y-53326500D01*
X108150174Y-53326500D01*
X109349826Y-53326500D01*
X109349828Y-53326500D01*
X109441897Y-53288364D01*
X109512364Y-53217897D01*
X109550500Y-53125828D01*
X109550500Y-51974500D01*
X109570185Y-51907461D01*
X109622989Y-51861706D01*
X109674500Y-51850500D01*
X115225500Y-51850500D01*
X115292539Y-51870185D01*
X115338294Y-51922989D01*
X115349500Y-51974500D01*
X115349500Y-55149829D01*
X115368206Y-55194988D01*
X115387636Y-55241897D01*
X115458103Y-55312364D01*
X115527946Y-55341293D01*
X115568173Y-55368173D01*
X115600000Y-55400000D01*
X116225500Y-55400000D01*
X116292539Y-55419685D01*
X116338294Y-55472489D01*
X116349500Y-55524000D01*
X116349500Y-71092256D01*
X116329815Y-71159295D01*
X116277011Y-71205050D01*
X116207853Y-71214994D01*
X116144297Y-71185969D01*
X116108800Y-71132432D01*
X116108601Y-71132515D01*
X116108177Y-71131492D01*
X116107570Y-71130576D01*
X116106740Y-71128021D01*
X116051263Y-71019142D01*
X116010234Y-70938618D01*
X116010232Y-70938615D01*
X116010231Y-70938613D01*
X115885292Y-70766647D01*
X115734969Y-70616324D01*
X115563003Y-70491385D01*
X115373597Y-70394878D01*
X115373596Y-70394877D01*
X115373595Y-70394877D01*
X115171426Y-70329188D01*
X115171424Y-70329187D01*
X115171423Y-70329187D01*
X115010140Y-70303642D01*
X114961470Y-70295934D01*
X114748896Y-70295934D01*
X114700225Y-70303642D01*
X114538943Y-70329187D01*
X114336768Y-70394878D01*
X114147362Y-70491385D01*
X113975396Y-70616324D01*
X113825073Y-70766647D01*
X113700134Y-70938613D01*
X113603627Y-71128019D01*
X113537936Y-71330194D01*
X113504683Y-71540147D01*
X113504683Y-71752720D01*
X113529960Y-71912316D01*
X113537937Y-71962677D01*
X113602797Y-72162296D01*
X113603627Y-72164848D01*
X113700134Y-72354254D01*
X113825073Y-72526220D01*
X113975396Y-72676543D01*
X114147362Y-72801482D01*
X114147364Y-72801483D01*
X114147367Y-72801485D01*
X114336771Y-72897991D01*
X114538940Y-72963680D01*
X114748896Y-72996934D01*
X114748897Y-72996934D01*
X114961469Y-72996934D01*
X114961470Y-72996934D01*
X115171426Y-72963680D01*
X115373595Y-72897991D01*
X115562999Y-72801485D01*
X115584972Y-72785520D01*
X115734969Y-72676543D01*
X115734971Y-72676540D01*
X115734975Y-72676538D01*
X115885287Y-72526226D01*
X115885289Y-72526222D01*
X115885292Y-72526220D01*
X116010231Y-72354254D01*
X116010230Y-72354254D01*
X116010234Y-72354250D01*
X116106740Y-72164846D01*
X116107569Y-72162294D01*
X116108147Y-72161449D01*
X116108601Y-72160353D01*
X116108831Y-72160448D01*
X116147004Y-72104619D01*
X116211362Y-72077420D01*
X116280209Y-72089332D01*
X116331686Y-72136575D01*
X116349500Y-72200611D01*
X116349500Y-81225500D01*
X116329815Y-81292539D01*
X116277011Y-81338294D01*
X116225500Y-81349500D01*
X90974500Y-81349500D01*
X90907461Y-81329815D01*
X90861706Y-81277011D01*
X90850500Y-81225500D01*
X90850500Y-72380817D01*
X90870185Y-72313778D01*
X90922989Y-72268023D01*
X90992147Y-72258079D01*
X91055703Y-72287104D01*
X91084984Y-72324521D01*
X91089992Y-72334349D01*
X91100134Y-72354254D01*
X91225073Y-72526220D01*
X91375396Y-72676543D01*
X91547362Y-72801482D01*
X91547364Y-72801483D01*
X91547367Y-72801485D01*
X91736771Y-72897991D01*
X91938940Y-72963680D01*
X92148896Y-72996934D01*
X92148897Y-72996934D01*
X92361469Y-72996934D01*
X92361470Y-72996934D01*
X92571426Y-72963680D01*
X92773595Y-72897991D01*
X92962999Y-72801485D01*
X92984972Y-72785520D01*
X93134969Y-72676543D01*
X93134971Y-72676540D01*
X93134975Y-72676538D01*
X93285287Y-72526226D01*
X93285289Y-72526222D01*
X93285292Y-72526220D01*
X93410231Y-72354254D01*
X93410230Y-72354254D01*
X93410234Y-72354250D01*
X93506740Y-72164846D01*
X93572429Y-71962677D01*
X93605683Y-71752721D01*
X93605683Y-71540147D01*
X93572429Y-71330191D01*
X93506740Y-71128022D01*
X93410234Y-70938618D01*
X93410232Y-70938615D01*
X93410231Y-70938613D01*
X93285292Y-70766647D01*
X93134969Y-70616324D01*
X92963003Y-70491385D01*
X92773597Y-70394878D01*
X92773596Y-70394877D01*
X92773595Y-70394877D01*
X92571426Y-70329188D01*
X92571424Y-70329187D01*
X92571423Y-70329187D01*
X92410140Y-70303642D01*
X92361470Y-70295934D01*
X92148896Y-70295934D01*
X92100225Y-70303642D01*
X91938943Y-70329187D01*
X91736768Y-70394878D01*
X91547362Y-70491385D01*
X91375396Y-70616324D01*
X91225073Y-70766647D01*
X91100132Y-70938616D01*
X91084984Y-70968346D01*
X91037009Y-71019142D01*
X90969188Y-71035936D01*
X90903053Y-71013398D01*
X90859603Y-70958682D01*
X90850500Y-70912050D01*
X90850500Y-68337209D01*
X92647100Y-68337209D01*
X92647100Y-68482791D01*
X92684779Y-68623411D01*
X92684780Y-68623412D01*
X92684780Y-68623413D01*
X92757567Y-68749485D01*
X92757569Y-68749488D01*
X92757570Y-68749489D01*
X92860511Y-68852430D01*
X92860512Y-68852431D01*
X92860514Y-68852432D01*
X92884739Y-68866418D01*
X92986589Y-68925221D01*
X93127209Y-68962900D01*
X93127211Y-68962900D01*
X93272788Y-68962900D01*
X93272791Y-68962900D01*
X93413411Y-68925221D01*
X93539489Y-68852430D01*
X93642430Y-68749489D01*
X93715221Y-68623411D01*
X93752900Y-68482791D01*
X93752900Y-68337209D01*
X93715221Y-68196589D01*
X93642430Y-68070511D01*
X93539489Y-67967570D01*
X93539488Y-67967569D01*
X93539485Y-67967567D01*
X93413413Y-67894780D01*
X93413412Y-67894779D01*
X93413411Y-67894779D01*
X93272791Y-67857100D01*
X93127209Y-67857100D01*
X92986589Y-67894779D01*
X92986587Y-67894780D01*
X92986586Y-67894780D01*
X92860514Y-67967567D01*
X92860509Y-67967571D01*
X92757571Y-68070509D01*
X92757567Y-68070514D01*
X92684780Y-68196586D01*
X92684780Y-68196587D01*
X92684779Y-68196589D01*
X92647100Y-68337209D01*
X90850500Y-68337209D01*
X90850500Y-67007209D01*
X91697100Y-67007209D01*
X91697100Y-67152791D01*
X91734779Y-67293411D01*
X91734780Y-67293412D01*
X91734780Y-67293413D01*
X91807567Y-67419485D01*
X91807569Y-67419488D01*
X91807570Y-67419489D01*
X91910511Y-67522430D01*
X91910512Y-67522431D01*
X91910514Y-67522432D01*
X91973550Y-67558825D01*
X92036589Y-67595221D01*
X92177209Y-67632900D01*
X92177211Y-67632900D01*
X92322788Y-67632900D01*
X92322791Y-67632900D01*
X92463411Y-67595221D01*
X92589489Y-67522430D01*
X92692430Y-67419489D01*
X92765221Y-67293411D01*
X92802900Y-67152791D01*
X92802900Y-67007209D01*
X92765221Y-66866589D01*
X92712237Y-66774818D01*
X92692432Y-66740514D01*
X92692428Y-66740509D01*
X92589490Y-66637571D01*
X92589485Y-66637567D01*
X92463413Y-66564780D01*
X92463412Y-66564779D01*
X92463411Y-66564779D01*
X92322791Y-66527100D01*
X92177209Y-66527100D01*
X92036589Y-66564779D01*
X92036587Y-66564780D01*
X92036586Y-66564780D01*
X91910514Y-66637567D01*
X91910509Y-66637571D01*
X91807571Y-66740509D01*
X91807567Y-66740514D01*
X91734780Y-66866586D01*
X91734780Y-66866587D01*
X91734779Y-66866589D01*
X91697100Y-67007209D01*
X90850500Y-67007209D01*
X90850500Y-62818286D01*
X91722100Y-62818286D01*
X91722100Y-63381713D01*
X91737041Y-63476050D01*
X91737042Y-63476053D01*
X91737043Y-63476055D01*
X91794162Y-63588157D01*
X91794985Y-63589772D01*
X91794988Y-63589776D01*
X91885223Y-63680011D01*
X91885227Y-63680014D01*
X91885229Y-63680016D01*
X91998945Y-63737957D01*
X91998947Y-63737957D01*
X91998949Y-63737958D01*
X92093287Y-63752900D01*
X92093292Y-63752900D01*
X92196100Y-63752900D01*
X92263139Y-63772585D01*
X92308894Y-63825389D01*
X92320100Y-63876900D01*
X92320100Y-64451575D01*
X92300415Y-64518614D01*
X92266025Y-64551404D01*
X92266960Y-64552622D01*
X92260508Y-64557572D01*
X92157571Y-64660509D01*
X92157567Y-64660514D01*
X92084780Y-64786586D01*
X92084780Y-64786587D01*
X92084779Y-64786589D01*
X92047100Y-64927209D01*
X92047100Y-65072791D01*
X92084779Y-65213411D01*
X92084780Y-65213412D01*
X92084780Y-65213413D01*
X92157567Y-65339485D01*
X92157569Y-65339488D01*
X92157570Y-65339489D01*
X92260511Y-65442430D01*
X92260512Y-65442431D01*
X92260514Y-65442432D01*
X92323550Y-65478825D01*
X92386589Y-65515221D01*
X92527209Y-65552900D01*
X92527211Y-65552900D01*
X92672788Y-65552900D01*
X92672791Y-65552900D01*
X92813411Y-65515221D01*
X92939489Y-65442430D01*
X93042430Y-65339489D01*
X93115221Y-65213411D01*
X93152900Y-65072791D01*
X93152900Y-64927209D01*
X93115221Y-64786589D01*
X93045208Y-64665323D01*
X93042432Y-64660514D01*
X93042428Y-64660509D01*
X92939491Y-64557572D01*
X92939489Y-64557570D01*
X92939486Y-64557568D01*
X92933040Y-64552622D01*
X92934295Y-64550986D01*
X92893684Y-64508395D01*
X92879900Y-64451575D01*
X92879900Y-63876900D01*
X92899585Y-63809861D01*
X92952389Y-63764106D01*
X93003900Y-63752900D01*
X93106713Y-63752900D01*
X93201050Y-63737958D01*
X93201050Y-63737957D01*
X93201055Y-63737957D01*
X93314771Y-63680016D01*
X93405016Y-63589771D01*
X93462957Y-63476055D01*
X93462958Y-63476050D01*
X93477900Y-63381713D01*
X93477900Y-62818286D01*
X93462958Y-62723949D01*
X93462957Y-62723947D01*
X93462957Y-62723945D01*
X93405016Y-62610229D01*
X93405014Y-62610227D01*
X93405011Y-62610223D01*
X93314776Y-62519988D01*
X93314772Y-62519985D01*
X93314771Y-62519984D01*
X93201055Y-62462043D01*
X93201053Y-62462042D01*
X93201050Y-62462041D01*
X93106713Y-62447100D01*
X93106708Y-62447100D01*
X92093292Y-62447100D01*
X92093287Y-62447100D01*
X91998949Y-62462041D01*
X91885227Y-62519985D01*
X91885223Y-62519988D01*
X91794988Y-62610223D01*
X91794985Y-62610227D01*
X91737041Y-62723949D01*
X91722100Y-62818286D01*
X90850500Y-62818286D01*
X90850500Y-55524000D01*
X90870185Y-55456961D01*
X90922989Y-55411206D01*
X90974500Y-55400000D01*
X91500000Y-55400000D01*
X91513181Y-55386819D01*
X91574504Y-55353334D01*
X91600862Y-55350500D01*
X91649826Y-55350500D01*
X91649828Y-55350500D01*
X91741897Y-55312364D01*
X91812364Y-55241897D01*
X91850500Y-55149828D01*
X91850500Y-52864720D01*
X93177283Y-52864720D01*
X93177283Y-53428147D01*
X93192224Y-53522484D01*
X93192225Y-53522487D01*
X93192226Y-53522489D01*
X93250167Y-53636205D01*
X93250168Y-53636206D01*
X93250171Y-53636210D01*
X93340406Y-53726445D01*
X93340410Y-53726448D01*
X93340412Y-53726450D01*
X93454128Y-53784391D01*
X93454130Y-53784391D01*
X93454132Y-53784392D01*
X93548470Y-53799334D01*
X93548475Y-53799334D01*
X94561896Y-53799334D01*
X94656233Y-53784392D01*
X94656233Y-53784391D01*
X94656238Y-53784391D01*
X94769954Y-53726450D01*
X94860199Y-53636205D01*
X94915737Y-53527204D01*
X94963709Y-53476411D01*
X95031530Y-53459615D01*
X95097665Y-53482152D01*
X95113901Y-53495820D01*
X95210511Y-53592430D01*
X95336589Y-53665221D01*
X95477209Y-53702900D01*
X95477211Y-53702900D01*
X95622788Y-53702900D01*
X95622791Y-53702900D01*
X95763411Y-53665221D01*
X95889489Y-53592430D01*
X95992430Y-53489489D01*
X96065221Y-53363411D01*
X96102900Y-53222791D01*
X96102900Y-53077209D01*
X96065221Y-52936589D01*
X95992430Y-52810511D01*
X95889489Y-52707570D01*
X95889488Y-52707569D01*
X95889485Y-52707567D01*
X95763413Y-52634780D01*
X95763412Y-52634779D01*
X95763411Y-52634779D01*
X95622791Y-52597100D01*
X95477209Y-52597100D01*
X95336589Y-52634779D01*
X95336587Y-52634780D01*
X95336586Y-52634780D01*
X95210514Y-52707567D01*
X95116308Y-52801773D01*
X95054984Y-52835257D01*
X94985293Y-52830273D01*
X94929360Y-52788401D01*
X94918142Y-52770385D01*
X94918140Y-52770382D01*
X94918140Y-52770379D01*
X94860199Y-52656663D01*
X94860197Y-52656661D01*
X94860194Y-52656657D01*
X94769959Y-52566422D01*
X94769955Y-52566419D01*
X94769954Y-52566418D01*
X94656238Y-52508477D01*
X94656236Y-52508476D01*
X94656233Y-52508475D01*
X94561896Y-52493534D01*
X94561891Y-52493534D01*
X93548475Y-52493534D01*
X93548470Y-52493534D01*
X93454132Y-52508475D01*
X93340410Y-52566419D01*
X93340406Y-52566422D01*
X93250171Y-52656657D01*
X93250168Y-52656661D01*
X93192224Y-52770383D01*
X93177283Y-52864720D01*
X91850500Y-52864720D01*
X91850500Y-51974500D01*
X91870185Y-51907461D01*
X91922989Y-51861706D01*
X91974500Y-51850500D01*
X97525500Y-51850500D01*
X97592539Y-51870185D01*
X97638294Y-51922989D01*
X97649500Y-51974500D01*
X97649500Y-53171828D01*
X97687636Y-53263897D01*
X97758103Y-53334364D01*
X97850172Y-53372500D01*
X97850174Y-53372500D01*
X99049826Y-53372500D01*
X99049828Y-53372500D01*
X99141897Y-53334364D01*
X99212364Y-53263897D01*
X99250500Y-53171828D01*
X99250500Y-53072172D01*
X99250500Y-51967500D01*
X99253050Y-51958814D01*
X99251762Y-51949853D01*
X99262740Y-51925812D01*
X99270185Y-51900461D01*
X99277025Y-51894533D01*
X99280787Y-51886297D01*
X99303021Y-51872007D01*
X99322989Y-51854706D01*
X99333503Y-51852418D01*
X99339565Y-51848523D01*
X99374500Y-51843500D01*
X99623100Y-51843500D01*
X99690139Y-51863185D01*
X99735894Y-51915989D01*
X99747100Y-51967500D01*
X99747100Y-53457554D01*
X99755972Y-53502158D01*
X99755973Y-53502161D01*
X99772709Y-53527207D01*
X99789766Y-53552734D01*
X99840342Y-53586528D01*
X99840343Y-53586528D01*
X99840345Y-53586529D01*
X99862642Y-53590964D01*
X99884943Y-53595400D01*
X100080607Y-53595399D01*
X100147646Y-53615083D01*
X100193401Y-53667887D01*
X100204606Y-53718838D01*
X100204902Y-53784391D01*
X100205183Y-53846434D01*
X100446100Y-53846434D01*
X100513139Y-53866119D01*
X100558894Y-53918923D01*
X100570100Y-53970434D01*
X100570100Y-54532698D01*
X100561456Y-54562134D01*
X100554933Y-54592124D01*
X100551177Y-54597141D01*
X100550415Y-54599737D01*
X100533782Y-54620379D01*
X100443947Y-54710215D01*
X100382624Y-54743700D01*
X100356265Y-54746534D01*
X99298425Y-54746534D01*
X99231386Y-54726849D01*
X99198595Y-54692459D01*
X99197378Y-54693394D01*
X99192432Y-54686948D01*
X99192430Y-54686945D01*
X99089489Y-54584004D01*
X99089488Y-54584003D01*
X99089485Y-54584001D01*
X98963413Y-54511214D01*
X98963412Y-54511213D01*
X98963411Y-54511213D01*
X98822791Y-54473534D01*
X98677209Y-54473534D01*
X98536589Y-54511213D01*
X98536587Y-54511214D01*
X98536586Y-54511214D01*
X98410514Y-54584001D01*
X98410509Y-54584005D01*
X98307571Y-54686943D01*
X98307567Y-54686948D01*
X98234780Y-54813020D01*
X98234780Y-54813021D01*
X98234779Y-54813023D01*
X98197100Y-54953643D01*
X98197100Y-55099225D01*
X98234779Y-55239845D01*
X98234780Y-55239846D01*
X98234780Y-55239847D01*
X98307567Y-55365919D01*
X98307569Y-55365922D01*
X98307570Y-55365923D01*
X98410511Y-55468864D01*
X98536589Y-55541655D01*
X98536592Y-55541655D01*
X98539750Y-55543479D01*
X98587966Y-55594046D01*
X98601190Y-55662653D01*
X98575222Y-55727518D01*
X98539751Y-55758254D01*
X98460514Y-55804001D01*
X98460509Y-55804005D01*
X98357572Y-55906942D01*
X98352622Y-55913394D01*
X98350986Y-55912138D01*
X98308395Y-55952750D01*
X98251575Y-55966534D01*
X95067033Y-55966534D01*
X94993333Y-55966534D01*
X94945875Y-55979250D01*
X94922145Y-55985609D01*
X94858322Y-56022457D01*
X94858319Y-56022459D01*
X94559264Y-56321514D01*
X94497941Y-56354999D01*
X94428249Y-56350015D01*
X94372316Y-56308143D01*
X94347899Y-56242679D01*
X94347583Y-56233833D01*
X94347583Y-55823334D01*
X94367268Y-55756295D01*
X94420072Y-55710540D01*
X94471583Y-55699334D01*
X94561896Y-55699334D01*
X94656233Y-55684392D01*
X94656233Y-55684391D01*
X94656238Y-55684391D01*
X94769954Y-55626450D01*
X94860199Y-55536205D01*
X94918140Y-55422489D01*
X94918584Y-55419685D01*
X94933083Y-55328147D01*
X94933083Y-54930375D01*
X95637100Y-54930375D01*
X95637100Y-55049625D01*
X95640017Y-55060511D01*
X95667964Y-55164814D01*
X95685383Y-55194984D01*
X95727590Y-55268087D01*
X95811913Y-55352410D01*
X95915187Y-55412036D01*
X96030375Y-55442900D01*
X96030377Y-55442900D01*
X96149623Y-55442900D01*
X96149625Y-55442900D01*
X96264813Y-55412036D01*
X96368087Y-55352410D01*
X96452410Y-55268087D01*
X96512036Y-55164813D01*
X96542900Y-55049625D01*
X96542900Y-54930375D01*
X96512036Y-54815187D01*
X96510785Y-54813021D01*
X96482902Y-54764726D01*
X96452410Y-54711913D01*
X96368087Y-54627590D01*
X96303630Y-54590375D01*
X96264814Y-54567964D01*
X96207219Y-54552532D01*
X96149625Y-54537100D01*
X96030375Y-54537100D01*
X95915185Y-54567964D01*
X95811913Y-54627590D01*
X95811910Y-54627592D01*
X95727592Y-54711910D01*
X95727590Y-54711913D01*
X95667964Y-54815185D01*
X95637713Y-54928086D01*
X95637100Y-54930375D01*
X94933083Y-54930375D01*
X94933083Y-54764720D01*
X94918141Y-54670383D01*
X94918140Y-54670381D01*
X94918140Y-54670379D01*
X94860199Y-54556663D01*
X94860197Y-54556661D01*
X94860194Y-54556657D01*
X94769959Y-54466422D01*
X94769955Y-54466419D01*
X94769954Y-54466418D01*
X94656238Y-54408477D01*
X94656236Y-54408476D01*
X94656233Y-54408475D01*
X94561896Y-54393534D01*
X94561891Y-54393534D01*
X93548475Y-54393534D01*
X93548470Y-54393534D01*
X93454132Y-54408475D01*
X93340410Y-54466419D01*
X93340406Y-54466422D01*
X93250171Y-54556657D01*
X93250168Y-54556661D01*
X93192224Y-54670383D01*
X93177283Y-54764720D01*
X93177283Y-55328147D01*
X93192224Y-55422486D01*
X93192226Y-55422489D01*
X93250167Y-55536205D01*
X93250168Y-55536206D01*
X93250171Y-55536210D01*
X93340406Y-55626445D01*
X93340410Y-55626448D01*
X93340412Y-55626450D01*
X93454128Y-55684391D01*
X93454130Y-55684391D01*
X93454132Y-55684392D01*
X93548470Y-55699334D01*
X93548475Y-55699334D01*
X93663783Y-55699334D01*
X93730822Y-55719019D01*
X93776577Y-55771823D01*
X93787783Y-55823334D01*
X93787783Y-56346606D01*
X93779138Y-56376043D01*
X93772615Y-56406034D01*
X93768859Y-56411050D01*
X93768098Y-56413645D01*
X93751464Y-56434288D01*
X93680363Y-56505388D01*
X93619039Y-56538872D01*
X93549348Y-56533887D01*
X93505001Y-56505387D01*
X93441830Y-56442216D01*
X93441828Y-56442214D01*
X93420696Y-56432883D01*
X93367320Y-56387797D01*
X93346793Y-56321011D01*
X93346783Y-56319449D01*
X93346783Y-56272113D01*
X93346782Y-56272109D01*
X93320883Y-56209584D01*
X93320883Y-56209583D01*
X93311904Y-56187906D01*
X93088080Y-55964082D01*
X93054595Y-55902759D01*
X93053136Y-55867752D01*
X93052900Y-55867752D01*
X93052900Y-55862082D01*
X93052822Y-55860211D01*
X93052898Y-55859631D01*
X93052900Y-55859625D01*
X93052900Y-55740375D01*
X93022036Y-55625187D01*
X92962410Y-55521913D01*
X92878087Y-55437590D01*
X92811153Y-55398945D01*
X92774814Y-55377964D01*
X92705806Y-55359474D01*
X92659625Y-55347100D01*
X92540375Y-55347100D01*
X92425185Y-55377964D01*
X92321913Y-55437590D01*
X92321910Y-55437592D01*
X92237592Y-55521910D01*
X92237590Y-55521913D01*
X92177964Y-55625185D01*
X92150545Y-55727518D01*
X92147100Y-55740375D01*
X92147100Y-55859625D01*
X92149278Y-55867752D01*
X92177964Y-55974814D01*
X92198809Y-56010917D01*
X92237590Y-56078087D01*
X92321913Y-56162410D01*
X92321916Y-56162412D01*
X92328362Y-56167358D01*
X92327499Y-56168482D01*
X92369675Y-56212718D01*
X92382895Y-56281325D01*
X92356925Y-56346189D01*
X92300009Y-56386716D01*
X92259457Y-56393534D01*
X91972455Y-56393534D01*
X91947132Y-56396472D01*
X91947130Y-56396472D01*
X91843542Y-56442212D01*
X91843540Y-56442213D01*
X91843538Y-56442214D01*
X91843537Y-56442214D01*
X91843535Y-56442216D01*
X91763465Y-56522286D01*
X91763461Y-56522293D01*
X91717721Y-56625881D01*
X91717721Y-56625883D01*
X91714783Y-56651206D01*
X91714783Y-57766661D01*
X91717721Y-57791984D01*
X91717721Y-57791986D01*
X91746157Y-57856386D01*
X91763463Y-57895579D01*
X91763465Y-57895581D01*
X91851663Y-57983779D01*
X91849226Y-57986215D01*
X91881065Y-58025217D01*
X91886581Y-58041300D01*
X91906856Y-58116966D01*
X91906858Y-58116971D01*
X91932681Y-58161699D01*
X91943706Y-58180794D01*
X91943708Y-58180797D01*
X92219764Y-58456853D01*
X92253249Y-58518176D01*
X92248265Y-58587868D01*
X92206393Y-58643801D01*
X92140929Y-58668218D01*
X92132083Y-58668534D01*
X91972455Y-58668534D01*
X91947132Y-58671472D01*
X91947130Y-58671472D01*
X91843542Y-58717212D01*
X91843540Y-58717213D01*
X91843538Y-58717214D01*
X91843537Y-58717214D01*
X91843535Y-58717216D01*
X91763465Y-58797286D01*
X91763461Y-58797293D01*
X91717721Y-58900881D01*
X91717721Y-58900883D01*
X91714783Y-58926206D01*
X91714783Y-60041661D01*
X91717721Y-60066984D01*
X91717721Y-60066986D01*
X91751521Y-60143534D01*
X91763463Y-60170579D01*
X91843538Y-60250654D01*
X91947133Y-60296396D01*
X91972457Y-60299334D01*
X91972458Y-60299334D01*
X92362908Y-60299334D01*
X92362909Y-60299334D01*
X92388233Y-60296396D01*
X92491828Y-60250654D01*
X92571903Y-60170579D01*
X92617645Y-60066984D01*
X92620583Y-60041660D01*
X92620583Y-58926208D01*
X92617645Y-58900884D01*
X92595362Y-58850420D01*
X92586291Y-58781143D01*
X92616114Y-58717958D01*
X92675363Y-58680926D01*
X92708797Y-58676334D01*
X93742031Y-58676334D01*
X93742033Y-58676334D01*
X93813220Y-58657259D01*
X93877045Y-58620410D01*
X94291659Y-58205797D01*
X94328508Y-58141972D01*
X94330669Y-58133905D01*
X94335325Y-58116533D01*
X94340505Y-58097197D01*
X94347583Y-58070784D01*
X94347583Y-58070776D01*
X94348644Y-58062725D01*
X94350035Y-58062908D01*
X94367268Y-58004222D01*
X94383902Y-57983580D01*
X94411035Y-57956447D01*
X94471903Y-57895579D01*
X94517645Y-57791984D01*
X94520583Y-57766660D01*
X94520583Y-57203234D01*
X94540268Y-57136195D01*
X94556902Y-57115553D01*
X95109802Y-56562653D01*
X95171125Y-56529168D01*
X95197483Y-56526334D01*
X98251575Y-56526334D01*
X98318614Y-56546019D01*
X98351404Y-56580408D01*
X98352622Y-56579474D01*
X98357568Y-56585920D01*
X98357570Y-56585923D01*
X98460511Y-56688864D01*
X98460512Y-56688865D01*
X98460514Y-56688866D01*
X98537460Y-56733291D01*
X98585676Y-56783858D01*
X98598899Y-56852465D01*
X98572931Y-56917330D01*
X98529921Y-56952078D01*
X98472283Y-56980255D01*
X98389005Y-57063533D01*
X98337275Y-57169348D01*
X98334434Y-57178546D01*
X98330782Y-57177417D01*
X98324088Y-57191982D01*
X98309587Y-57223737D01*
X98309457Y-57223820D01*
X98309393Y-57223960D01*
X98280230Y-57242603D01*
X98250809Y-57261511D01*
X98250608Y-57261539D01*
X98250524Y-57261594D01*
X98215874Y-57266534D01*
X98178608Y-57266534D01*
X98111569Y-57246849D01*
X98078778Y-57212459D01*
X98077561Y-57213394D01*
X98072615Y-57206948D01*
X98072613Y-57206945D01*
X97969672Y-57104004D01*
X97969671Y-57104003D01*
X97969668Y-57104001D01*
X97843596Y-57031214D01*
X97843595Y-57031213D01*
X97843594Y-57031213D01*
X97702974Y-56993534D01*
X97557392Y-56993534D01*
X97416772Y-57031213D01*
X97416770Y-57031214D01*
X97416769Y-57031214D01*
X97290697Y-57104001D01*
X97290692Y-57104005D01*
X97187754Y-57206943D01*
X97187750Y-57206948D01*
X97114963Y-57333020D01*
X97114963Y-57333021D01*
X97114962Y-57333023D01*
X97077283Y-57473643D01*
X97077283Y-57619225D01*
X97114962Y-57759845D01*
X97114963Y-57759846D01*
X97114963Y-57759847D01*
X97187750Y-57885919D01*
X97187752Y-57885922D01*
X97187753Y-57885923D01*
X97290694Y-57988864D01*
X97416772Y-58061655D01*
X97557392Y-58099334D01*
X97557394Y-58099334D01*
X97702971Y-58099334D01*
X97702974Y-58099334D01*
X97843594Y-58061655D01*
X97969672Y-57988864D01*
X98072613Y-57885923D01*
X98072617Y-57885915D01*
X98077561Y-57879474D01*
X98079196Y-57880729D01*
X98079908Y-57880050D01*
X98084895Y-57869131D01*
X98104726Y-57856386D01*
X98121788Y-57840118D01*
X98135044Y-57836902D01*
X98143673Y-57831357D01*
X98178608Y-57826334D01*
X98215874Y-57826334D01*
X98282913Y-57846019D01*
X98328668Y-57898823D01*
X98333338Y-57914660D01*
X98334434Y-57914322D01*
X98337275Y-57923519D01*
X98389005Y-58029334D01*
X98472282Y-58112611D01*
X98472283Y-58112611D01*
X98472285Y-58112613D01*
X98572693Y-58161699D01*
X98624276Y-58208827D01*
X98642190Y-58276361D01*
X98620749Y-58342860D01*
X98566760Y-58387210D01*
X98518233Y-58397100D01*
X96814747Y-58397100D01*
X96814739Y-58397099D01*
X96800305Y-58397099D01*
X96699695Y-58397099D01*
X96699693Y-58397099D01*
X96633968Y-58424323D01*
X96633968Y-58424324D01*
X96606743Y-58435601D01*
X96606741Y-58435602D01*
X94367392Y-60674951D01*
X94367386Y-60674958D01*
X94356746Y-60685599D01*
X94356743Y-60685601D01*
X94285601Y-60756743D01*
X94265849Y-60804430D01*
X94259909Y-60818768D01*
X94259907Y-60818772D01*
X94247099Y-60849694D01*
X94247099Y-60964738D01*
X94247100Y-60964747D01*
X94247100Y-64559692D01*
X94247099Y-64559695D01*
X94247099Y-64660305D01*
X94263047Y-64698806D01*
X94269353Y-64714032D01*
X94269354Y-64714033D01*
X94285600Y-64753256D01*
X94366947Y-64834603D01*
X94366956Y-64834610D01*
X95215600Y-65683255D01*
X95215601Y-65683257D01*
X95286743Y-65754399D01*
X95300809Y-65760225D01*
X95379695Y-65792901D01*
X95379696Y-65792901D01*
X95494739Y-65792901D01*
X95494747Y-65792900D01*
X98043100Y-65792900D01*
X98110139Y-65812585D01*
X98155894Y-65865389D01*
X98162181Y-65882321D01*
X98167100Y-65899260D01*
X98167100Y-65927984D01*
X98169893Y-65952057D01*
X98206515Y-66034999D01*
X98208821Y-66042939D01*
X98208740Y-66069937D01*
X98212246Y-66096710D01*
X98208637Y-66104355D01*
X98208612Y-66112809D01*
X98193948Y-66135477D01*
X98182423Y-66159895D01*
X98177421Y-66165199D01*
X97610404Y-66732215D01*
X97549081Y-66765700D01*
X97522723Y-66768534D01*
X97203694Y-66768534D01*
X97203685Y-66768535D01*
X97180454Y-66771229D01*
X97180453Y-66771229D01*
X97085409Y-66813196D01*
X97011946Y-66886659D01*
X96969979Y-66981703D01*
X96969978Y-66981706D01*
X96967283Y-67004933D01*
X96967283Y-67587922D01*
X96967284Y-67587931D01*
X96969978Y-67611162D01*
X96969978Y-67611163D01*
X97011945Y-67706207D01*
X97085408Y-67779670D01*
X97085409Y-67779670D01*
X97085411Y-67779672D01*
X97180455Y-67821639D01*
X97203686Y-67824334D01*
X97536679Y-67824333D01*
X97559911Y-67821639D01*
X97654955Y-67779672D01*
X97728421Y-67706206D01*
X97770388Y-67611162D01*
X97773083Y-67587931D01*
X97773082Y-67268891D01*
X97792766Y-67201853D01*
X97809396Y-67181216D01*
X98025604Y-66965008D01*
X98086925Y-66931525D01*
X98156617Y-66936509D01*
X98212550Y-66978381D01*
X98236967Y-67043845D01*
X98237283Y-67052691D01*
X98237283Y-67587922D01*
X98237284Y-67587931D01*
X98239978Y-67611162D01*
X98239978Y-67611163D01*
X98281945Y-67706207D01*
X98355408Y-67779670D01*
X98355409Y-67779670D01*
X98355411Y-67779672D01*
X98450455Y-67821639D01*
X98473686Y-67824334D01*
X98806679Y-67824333D01*
X98829911Y-67821639D01*
X98924955Y-67779672D01*
X98998421Y-67706206D01*
X99040388Y-67611162D01*
X99043083Y-67587931D01*
X99043082Y-67268891D01*
X99062766Y-67201853D01*
X99079396Y-67181216D01*
X99295604Y-66965008D01*
X99356925Y-66931525D01*
X99426617Y-66936509D01*
X99482550Y-66978381D01*
X99506967Y-67043845D01*
X99507283Y-67052691D01*
X99507283Y-67587922D01*
X99507284Y-67587931D01*
X99509978Y-67611162D01*
X99509978Y-67611163D01*
X99551945Y-67706207D01*
X99625408Y-67779670D01*
X99625409Y-67779670D01*
X99625411Y-67779672D01*
X99720455Y-67821639D01*
X99743686Y-67824334D01*
X100062723Y-67824333D01*
X100092169Y-67832979D01*
X100122150Y-67839501D01*
X100127163Y-67843253D01*
X100129762Y-67844017D01*
X100150404Y-67860652D01*
X100221605Y-67931853D01*
X100255090Y-67993176D01*
X100250106Y-68062868D01*
X100208234Y-68118801D01*
X100142770Y-68143218D01*
X100133924Y-68143534D01*
X95840128Y-68143534D01*
X95795524Y-68152406D01*
X95795521Y-68152407D01*
X95744949Y-68186199D01*
X95711154Y-68236777D01*
X95711153Y-68236779D01*
X95702283Y-68281374D01*
X95702283Y-71675175D01*
X95682598Y-71742214D01*
X95629794Y-71787969D01*
X95560636Y-71797913D01*
X95497080Y-71768888D01*
X95490602Y-71762856D01*
X95165419Y-71437673D01*
X95131934Y-71376350D01*
X95129100Y-71349992D01*
X95129100Y-68731085D01*
X95139665Y-68681000D01*
X95170107Y-68612057D01*
X95172900Y-68587984D01*
X95172900Y-68232016D01*
X95170107Y-68207943D01*
X95165092Y-68196586D01*
X95152037Y-68167018D01*
X95126631Y-68109479D01*
X95050521Y-68033369D01*
X94952058Y-67989893D01*
X94927985Y-67987100D01*
X94927984Y-67987100D01*
X94472016Y-67987100D01*
X94472014Y-67987100D01*
X94447942Y-67989893D01*
X94447940Y-67989893D01*
X94349478Y-68033369D01*
X94273369Y-68109478D01*
X94229893Y-68207940D01*
X94229893Y-68207942D01*
X94227100Y-68232014D01*
X94227100Y-68587985D01*
X94229893Y-68612057D01*
X94229893Y-68612058D01*
X94260333Y-68680998D01*
X94273369Y-68710521D01*
X94349479Y-68786631D01*
X94447943Y-68830107D01*
X94472016Y-68832900D01*
X94546900Y-68832900D01*
X94613939Y-68852585D01*
X94659694Y-68905389D01*
X94670900Y-68956900D01*
X94670900Y-71541819D01*
X94670901Y-71541824D01*
X94705775Y-71626020D01*
X94705776Y-71626022D01*
X94705778Y-71626026D01*
X94705780Y-71626028D01*
X95660964Y-72581212D01*
X95694449Y-72642535D01*
X95697283Y-72668893D01*
X95697283Y-72987922D01*
X95697284Y-72987931D01*
X95699978Y-73011162D01*
X95699978Y-73011163D01*
X95741945Y-73106207D01*
X95815409Y-73179671D01*
X95824889Y-73186165D01*
X95823230Y-73188586D01*
X95823883Y-73189138D01*
X95840803Y-73196865D01*
X95850023Y-73211212D01*
X95863055Y-73222217D01*
X95868522Y-73239997D01*
X95878577Y-73255643D01*
X95883182Y-73287676D01*
X95883590Y-73289001D01*
X95883600Y-73290578D01*
X95883600Y-73313350D01*
X95863915Y-73380389D01*
X95811111Y-73426144D01*
X95809687Y-73426784D01*
X95749478Y-73453369D01*
X95673369Y-73529478D01*
X95629893Y-73627940D01*
X95629893Y-73627942D01*
X95627100Y-73652014D01*
X95627100Y-73760586D01*
X95607415Y-73827625D01*
X95554611Y-73873380D01*
X95485453Y-73883324D01*
X95421897Y-73854299D01*
X95415419Y-73848267D01*
X95390521Y-73823369D01*
X95292058Y-73779893D01*
X95267985Y-73777100D01*
X95267984Y-73777100D01*
X94912016Y-73777100D01*
X94912014Y-73777100D01*
X94887942Y-73779893D01*
X94887940Y-73779893D01*
X94789478Y-73823369D01*
X94713369Y-73899478D01*
X94693434Y-73944627D01*
X94648348Y-73998003D01*
X94581561Y-74018530D01*
X94514279Y-73999691D01*
X94467863Y-73947468D01*
X94466566Y-73944627D01*
X94460268Y-73930364D01*
X94446631Y-73899479D01*
X94370521Y-73823369D01*
X94345477Y-73812311D01*
X94272058Y-73779893D01*
X94247985Y-73777100D01*
X94247984Y-73777100D01*
X93892016Y-73777100D01*
X93892014Y-73777100D01*
X93867942Y-73779893D01*
X93867940Y-73779893D01*
X93769478Y-73823369D01*
X93693368Y-73899479D01*
X93666785Y-73959686D01*
X93621700Y-74013062D01*
X93554913Y-74033590D01*
X93553351Y-74033600D01*
X93096954Y-74033600D01*
X93082315Y-74039664D01*
X93021688Y-74064777D01*
X93017417Y-74066546D01*
X92784050Y-74299913D01*
X92722727Y-74333398D01*
X92672804Y-74332209D01*
X92672679Y-74333161D01*
X92664628Y-74332101D01*
X92664625Y-74332100D01*
X92545375Y-74332100D01*
X92430185Y-74362964D01*
X92326913Y-74422590D01*
X92326910Y-74422592D01*
X92242592Y-74506910D01*
X92242590Y-74506913D01*
X92182964Y-74610185D01*
X92152100Y-74725375D01*
X92152100Y-74844624D01*
X92182964Y-74959814D01*
X92208118Y-75003381D01*
X92242590Y-75063087D01*
X92326913Y-75147410D01*
X92430187Y-75207036D01*
X92545375Y-75237900D01*
X92545377Y-75237900D01*
X92664623Y-75237900D01*
X92664625Y-75237900D01*
X92779813Y-75207036D01*
X92779814Y-75207034D01*
X92782442Y-75206331D01*
X92852292Y-75207994D01*
X92910154Y-75247157D01*
X92937658Y-75311385D01*
X92926071Y-75380287D01*
X92902216Y-75413787D01*
X91930963Y-76385039D01*
X91930961Y-76385041D01*
X91930961Y-76385042D01*
X91918316Y-76415571D01*
X91907199Y-76442408D01*
X91896083Y-76469245D01*
X91896083Y-78082861D01*
X91876398Y-78149900D01*
X91823594Y-78195655D01*
X91791482Y-78205334D01*
X91749131Y-78212041D01*
X91635410Y-78269985D01*
X91635406Y-78269988D01*
X91545171Y-78360223D01*
X91545168Y-78360227D01*
X91487224Y-78473949D01*
X91472283Y-78568286D01*
X91472283Y-80631713D01*
X91487224Y-80726050D01*
X91487225Y-80726053D01*
X91487226Y-80726055D01*
X91545167Y-80839771D01*
X91545168Y-80839772D01*
X91545171Y-80839776D01*
X91635406Y-80930011D01*
X91635410Y-80930014D01*
X91635412Y-80930016D01*
X91749128Y-80987957D01*
X91749130Y-80987957D01*
X91749132Y-80987958D01*
X91843470Y-81002900D01*
X91843475Y-81002900D01*
X92406896Y-81002900D01*
X92501233Y-80987958D01*
X92501233Y-80987957D01*
X92501238Y-80987957D01*
X92614954Y-80930016D01*
X92705199Y-80839771D01*
X92763140Y-80726055D01*
X92763141Y-80726050D01*
X92778083Y-80631713D01*
X92778083Y-78568286D01*
X92763141Y-78473949D01*
X92763140Y-78473947D01*
X92763140Y-78473945D01*
X92705199Y-78360229D01*
X92705197Y-78360227D01*
X92705194Y-78360223D01*
X92614959Y-78269988D01*
X92614955Y-78269985D01*
X92614954Y-78269984D01*
X92501238Y-78212043D01*
X92501237Y-78212042D01*
X92501234Y-78212041D01*
X92458884Y-78205334D01*
X92395750Y-78175404D01*
X92358819Y-78116093D01*
X92354283Y-78082861D01*
X92354283Y-76661075D01*
X92373968Y-76594036D01*
X92390602Y-76573394D01*
X93848577Y-75115419D01*
X93909900Y-75081934D01*
X93936258Y-75079100D01*
X95561035Y-75079100D01*
X95628074Y-75098785D01*
X95656512Y-75123979D01*
X95667509Y-75137249D01*
X95673369Y-75150521D01*
X95703362Y-75180514D01*
X95707058Y-75184974D01*
X95718669Y-75211956D01*
X95732747Y-75237737D01*
X95732321Y-75243680D01*
X95734677Y-75249153D01*
X95729858Y-75278127D01*
X95727763Y-75307429D01*
X95724192Y-75312198D01*
X95723215Y-75318076D01*
X95703493Y-75339848D01*
X95685891Y-75363362D01*
X95678257Y-75367709D01*
X95676309Y-75369860D01*
X95672833Y-75370798D01*
X95659038Y-75378654D01*
X95641844Y-75385776D01*
X95641840Y-75385779D01*
X94460963Y-76566656D01*
X94460958Y-76566664D01*
X94426084Y-76650860D01*
X94426083Y-76650865D01*
X94426083Y-76742006D01*
X94426642Y-76743354D01*
X94436083Y-76790811D01*
X94436083Y-78082861D01*
X94416398Y-78149900D01*
X94363594Y-78195655D01*
X94331482Y-78205334D01*
X94289131Y-78212041D01*
X94175410Y-78269985D01*
X94175406Y-78269988D01*
X94085171Y-78360223D01*
X94085168Y-78360227D01*
X94027224Y-78473949D01*
X94012283Y-78568286D01*
X94012283Y-80631713D01*
X94027224Y-80726050D01*
X94027225Y-80726053D01*
X94027226Y-80726055D01*
X94085167Y-80839771D01*
X94085168Y-80839772D01*
X94085171Y-80839776D01*
X94175406Y-80930011D01*
X94175410Y-80930014D01*
X94175412Y-80930016D01*
X94289128Y-80987957D01*
X94289130Y-80987957D01*
X94289132Y-80987958D01*
X94383470Y-81002900D01*
X94383475Y-81002900D01*
X94946896Y-81002900D01*
X95041233Y-80987958D01*
X95041233Y-80987957D01*
X95041238Y-80987957D01*
X95154954Y-80930016D01*
X95245199Y-80839771D01*
X95303140Y-80726055D01*
X95303141Y-80726050D01*
X95318083Y-80631713D01*
X95318083Y-78568286D01*
X95303141Y-78473949D01*
X95303140Y-78473947D01*
X95303140Y-78473945D01*
X95245199Y-78360229D01*
X95245197Y-78360227D01*
X95245194Y-78360223D01*
X95154959Y-78269988D01*
X95154955Y-78269985D01*
X95154954Y-78269984D01*
X95041238Y-78212043D01*
X95041237Y-78212042D01*
X95041234Y-78212041D01*
X94998884Y-78205334D01*
X94935750Y-78175404D01*
X94898819Y-78116093D01*
X94894283Y-78082861D01*
X94894283Y-76832693D01*
X94913968Y-76765654D01*
X94930602Y-76745012D01*
X95830195Y-75845419D01*
X95891518Y-75811934D01*
X95917876Y-75809100D01*
X97675958Y-75809100D01*
X97742997Y-75828785D01*
X97788752Y-75881589D01*
X97798696Y-75950747D01*
X97769671Y-76014303D01*
X97763639Y-76020781D01*
X97010961Y-76773457D01*
X97003282Y-76791999D01*
X97003280Y-76792004D01*
X96976083Y-76857660D01*
X96976083Y-78082861D01*
X96956398Y-78149900D01*
X96903594Y-78195655D01*
X96871482Y-78205334D01*
X96829131Y-78212041D01*
X96715410Y-78269985D01*
X96715406Y-78269988D01*
X96625171Y-78360223D01*
X96625168Y-78360227D01*
X96567224Y-78473949D01*
X96552283Y-78568286D01*
X96552283Y-80631713D01*
X96567224Y-80726050D01*
X96567225Y-80726053D01*
X96567226Y-80726055D01*
X96625167Y-80839771D01*
X96625168Y-80839772D01*
X96625171Y-80839776D01*
X96715406Y-80930011D01*
X96715410Y-80930014D01*
X96715412Y-80930016D01*
X96829128Y-80987957D01*
X96829130Y-80987957D01*
X96829132Y-80987958D01*
X96923470Y-81002900D01*
X96923475Y-81002900D01*
X97486896Y-81002900D01*
X97581233Y-80987958D01*
X97581233Y-80987957D01*
X97581238Y-80987957D01*
X97694954Y-80930016D01*
X97785199Y-80839771D01*
X97843140Y-80726055D01*
X97843141Y-80726050D01*
X97858083Y-80631713D01*
X97858083Y-78568286D01*
X97843141Y-78473949D01*
X97843140Y-78473947D01*
X97843140Y-78473945D01*
X97785199Y-78360229D01*
X97785197Y-78360227D01*
X97785194Y-78360223D01*
X97694959Y-78269988D01*
X97694955Y-78269985D01*
X97694954Y-78269984D01*
X97581238Y-78212043D01*
X97581237Y-78212042D01*
X97581234Y-78212041D01*
X97538884Y-78205334D01*
X97475750Y-78175404D01*
X97438819Y-78116093D01*
X97434283Y-78082861D01*
X97434283Y-77049493D01*
X97453968Y-76982454D01*
X97470602Y-76961812D01*
X98176995Y-76255419D01*
X98238318Y-76221934D01*
X98264676Y-76219100D01*
X99969358Y-76219100D01*
X100036397Y-76238785D01*
X100082152Y-76291589D01*
X100092096Y-76360747D01*
X100063071Y-76424303D01*
X100057039Y-76430781D01*
X99550963Y-76936856D01*
X99550960Y-76936861D01*
X99534943Y-76975532D01*
X99534942Y-76975535D01*
X99516083Y-77021062D01*
X99516083Y-78082861D01*
X99496398Y-78149900D01*
X99443594Y-78195655D01*
X99411482Y-78205334D01*
X99369131Y-78212041D01*
X99255410Y-78269985D01*
X99255406Y-78269988D01*
X99165171Y-78360223D01*
X99165168Y-78360227D01*
X99107224Y-78473949D01*
X99092283Y-78568286D01*
X99092283Y-80631713D01*
X99107224Y-80726050D01*
X99107225Y-80726053D01*
X99107226Y-80726055D01*
X99165167Y-80839771D01*
X99165168Y-80839772D01*
X99165171Y-80839776D01*
X99255406Y-80930011D01*
X99255410Y-80930014D01*
X99255412Y-80930016D01*
X99369128Y-80987957D01*
X99369130Y-80987957D01*
X99369132Y-80987958D01*
X99463470Y-81002900D01*
X99463475Y-81002900D01*
X100026896Y-81002900D01*
X100121233Y-80987958D01*
X100121233Y-80987957D01*
X100121238Y-80987957D01*
X100234954Y-80930016D01*
X100325199Y-80839771D01*
X100383140Y-80726055D01*
X100383141Y-80726050D01*
X100398083Y-80631713D01*
X100398083Y-78568286D01*
X100383141Y-78473949D01*
X100383140Y-78473947D01*
X100383140Y-78473945D01*
X100325199Y-78360229D01*
X100325197Y-78360227D01*
X100325194Y-78360223D01*
X100234959Y-78269988D01*
X100234955Y-78269985D01*
X100234954Y-78269984D01*
X100121238Y-78212043D01*
X100121237Y-78212042D01*
X100121234Y-78212041D01*
X100078884Y-78205334D01*
X100015750Y-78175404D01*
X99978819Y-78116093D01*
X99974283Y-78082861D01*
X99974283Y-77212893D01*
X99993968Y-77145854D01*
X100010602Y-77125212D01*
X100500395Y-76635419D01*
X100561718Y-76601934D01*
X100588076Y-76599100D01*
X102704157Y-76599100D01*
X102771196Y-76618785D01*
X102816951Y-76671589D01*
X102826895Y-76740747D01*
X102797870Y-76804303D01*
X102791838Y-76810781D01*
X102090962Y-77511657D01*
X102090960Y-77511660D01*
X102066296Y-77571203D01*
X102056083Y-77595862D01*
X102056083Y-78082861D01*
X102036398Y-78149900D01*
X101983594Y-78195655D01*
X101951482Y-78205334D01*
X101909131Y-78212041D01*
X101795410Y-78269985D01*
X101795406Y-78269988D01*
X101705171Y-78360223D01*
X101705168Y-78360227D01*
X101647224Y-78473949D01*
X101632283Y-78568286D01*
X101632283Y-80631713D01*
X101647224Y-80726050D01*
X101647225Y-80726053D01*
X101647226Y-80726055D01*
X101705167Y-80839771D01*
X101705168Y-80839772D01*
X101705171Y-80839776D01*
X101795406Y-80930011D01*
X101795410Y-80930014D01*
X101795412Y-80930016D01*
X101909128Y-80987957D01*
X101909130Y-80987957D01*
X101909132Y-80987958D01*
X102003470Y-81002900D01*
X102003475Y-81002900D01*
X102566896Y-81002900D01*
X102661233Y-80987958D01*
X102661233Y-80987957D01*
X102661238Y-80987957D01*
X102774954Y-80930016D01*
X102865199Y-80839771D01*
X102923140Y-80726055D01*
X102923141Y-80726050D01*
X102938083Y-80631713D01*
X102938083Y-78568286D01*
X102923141Y-78473949D01*
X102923140Y-78473947D01*
X102923140Y-78473945D01*
X102865199Y-78360229D01*
X102865197Y-78360227D01*
X102865194Y-78360223D01*
X102774959Y-78269988D01*
X102774955Y-78269985D01*
X102774954Y-78269984D01*
X102661238Y-78212043D01*
X102661237Y-78212042D01*
X102661234Y-78212041D01*
X102618884Y-78205334D01*
X102555750Y-78175404D01*
X102518819Y-78116093D01*
X102514283Y-78082861D01*
X102514283Y-77787693D01*
X102533968Y-77720654D01*
X102550602Y-77700012D01*
X104384402Y-75866212D01*
X104445725Y-75832727D01*
X104515417Y-75837711D01*
X104571350Y-75879583D01*
X104595767Y-75945047D01*
X104596083Y-75953893D01*
X104596083Y-78082861D01*
X104576398Y-78149900D01*
X104523594Y-78195655D01*
X104491482Y-78205334D01*
X104449131Y-78212041D01*
X104335410Y-78269985D01*
X104335406Y-78269988D01*
X104245171Y-78360223D01*
X104245168Y-78360227D01*
X104187224Y-78473949D01*
X104172283Y-78568286D01*
X104172283Y-80631713D01*
X104187224Y-80726050D01*
X104187225Y-80726053D01*
X104187226Y-80726055D01*
X104245167Y-80839771D01*
X104245168Y-80839772D01*
X104245171Y-80839776D01*
X104335406Y-80930011D01*
X104335410Y-80930014D01*
X104335412Y-80930016D01*
X104449128Y-80987957D01*
X104449130Y-80987957D01*
X104449132Y-80987958D01*
X104543470Y-81002900D01*
X104543475Y-81002900D01*
X105106896Y-81002900D01*
X105201233Y-80987958D01*
X105201233Y-80987957D01*
X105201238Y-80987957D01*
X105314954Y-80930016D01*
X105405199Y-80839771D01*
X105463140Y-80726055D01*
X105463141Y-80726050D01*
X105478083Y-80631713D01*
X105478083Y-78568286D01*
X105463141Y-78473949D01*
X105463140Y-78473947D01*
X105463140Y-78473945D01*
X105405199Y-78360229D01*
X105405197Y-78360227D01*
X105405194Y-78360223D01*
X105314959Y-78269988D01*
X105314955Y-78269985D01*
X105314954Y-78269984D01*
X105201238Y-78212043D01*
X105201237Y-78212042D01*
X105201234Y-78212041D01*
X105158884Y-78205334D01*
X105095750Y-78175404D01*
X105058819Y-78116093D01*
X105054283Y-78082861D01*
X105054283Y-75922477D01*
X105073968Y-75855438D01*
X105090602Y-75834796D01*
X106714402Y-74210996D01*
X106775725Y-74177511D01*
X106845417Y-74182495D01*
X106901350Y-74224367D01*
X106925767Y-74289831D01*
X106926083Y-74298677D01*
X106926083Y-78169987D01*
X106906398Y-78237026D01*
X106882043Y-78262814D01*
X106882312Y-78263083D01*
X106785171Y-78360223D01*
X106785168Y-78360227D01*
X106727224Y-78473949D01*
X106712283Y-78568286D01*
X106712283Y-80631713D01*
X106727224Y-80726050D01*
X106727225Y-80726053D01*
X106727226Y-80726055D01*
X106785167Y-80839771D01*
X106785168Y-80839772D01*
X106785171Y-80839776D01*
X106875406Y-80930011D01*
X106875410Y-80930014D01*
X106875412Y-80930016D01*
X106989128Y-80987957D01*
X106989130Y-80987957D01*
X106989132Y-80987958D01*
X107083470Y-81002900D01*
X107083475Y-81002900D01*
X107646896Y-81002900D01*
X107741233Y-80987958D01*
X107741233Y-80987957D01*
X107741238Y-80987957D01*
X107854954Y-80930016D01*
X107945199Y-80839771D01*
X108003140Y-80726055D01*
X108003141Y-80726050D01*
X108018083Y-80631713D01*
X108018083Y-78568286D01*
X108003141Y-78473949D01*
X108003140Y-78473947D01*
X108003140Y-78473945D01*
X107945199Y-78360229D01*
X107945197Y-78360227D01*
X107945194Y-78360223D01*
X107854959Y-78269988D01*
X107854955Y-78269985D01*
X107854954Y-78269984D01*
X107741238Y-78212043D01*
X107741236Y-78212042D01*
X107741233Y-78212041D01*
X107646896Y-78197100D01*
X107646891Y-78197100D01*
X107508283Y-78197100D01*
X107441244Y-78177415D01*
X107395489Y-78124611D01*
X107384283Y-78073100D01*
X107384283Y-74848893D01*
X107403968Y-74781854D01*
X107456772Y-74736099D01*
X107525930Y-74726155D01*
X107589486Y-74755180D01*
X107595964Y-74761212D01*
X109639764Y-76805012D01*
X109673249Y-76866335D01*
X109676083Y-76892693D01*
X109676083Y-78082861D01*
X109656398Y-78149900D01*
X109603594Y-78195655D01*
X109571482Y-78205334D01*
X109529131Y-78212041D01*
X109415410Y-78269985D01*
X109415406Y-78269988D01*
X109325171Y-78360223D01*
X109325168Y-78360227D01*
X109267224Y-78473949D01*
X109252283Y-78568286D01*
X109252283Y-80631713D01*
X109267224Y-80726050D01*
X109267225Y-80726053D01*
X109267226Y-80726055D01*
X109325167Y-80839771D01*
X109325168Y-80839772D01*
X109325171Y-80839776D01*
X109415406Y-80930011D01*
X109415410Y-80930014D01*
X109415412Y-80930016D01*
X109529128Y-80987957D01*
X109529130Y-80987957D01*
X109529132Y-80987958D01*
X109623470Y-81002900D01*
X109623475Y-81002900D01*
X110186896Y-81002900D01*
X110281233Y-80987958D01*
X110281233Y-80987957D01*
X110281238Y-80987957D01*
X110394954Y-80930016D01*
X110485199Y-80839771D01*
X110543140Y-80726055D01*
X110543141Y-80726050D01*
X110558083Y-80631713D01*
X110558083Y-78568286D01*
X110543141Y-78473949D01*
X110543140Y-78473947D01*
X110543140Y-78473945D01*
X110485199Y-78360229D01*
X110485197Y-78360227D01*
X110485194Y-78360223D01*
X110394959Y-78269988D01*
X110394955Y-78269985D01*
X110394954Y-78269984D01*
X110281238Y-78212043D01*
X110281237Y-78212042D01*
X110281234Y-78212041D01*
X110238884Y-78205334D01*
X110175750Y-78175404D01*
X110138819Y-78116093D01*
X110134283Y-78082861D01*
X110134283Y-76700864D01*
X110134283Y-76700863D01*
X110117714Y-76660863D01*
X110099405Y-76616659D01*
X107820602Y-74337856D01*
X107787117Y-74276533D01*
X107784283Y-74250175D01*
X107784283Y-70754304D01*
X107793723Y-70706848D01*
X107796306Y-70700609D01*
X107796311Y-70700602D01*
X107808083Y-70641418D01*
X107808083Y-69826450D01*
X108102283Y-69826450D01*
X108102283Y-70641418D01*
X108114055Y-70700602D01*
X108158900Y-70767717D01*
X108226015Y-70812562D01*
X108285199Y-70824334D01*
X108285200Y-70824334D01*
X108402083Y-70824334D01*
X108469122Y-70844019D01*
X108514877Y-70896823D01*
X108526083Y-70948334D01*
X108526083Y-71354778D01*
X108506398Y-71421817D01*
X108482947Y-71447311D01*
X108483162Y-71447526D01*
X108478016Y-71452671D01*
X108477580Y-71453146D01*
X108477416Y-71453271D01*
X108393094Y-71537593D01*
X108393092Y-71537596D01*
X108333466Y-71640868D01*
X108310692Y-71725864D01*
X108302602Y-71756058D01*
X108302602Y-71875308D01*
X108316625Y-71927642D01*
X108333466Y-71990497D01*
X108348505Y-72016544D01*
X108393092Y-72093770D01*
X108477415Y-72178093D01*
X108580689Y-72237719D01*
X108695877Y-72268583D01*
X108695879Y-72268583D01*
X108815125Y-72268583D01*
X108815127Y-72268583D01*
X108930315Y-72237719D01*
X109033589Y-72178093D01*
X109033590Y-72178091D01*
X109040627Y-72174029D01*
X109042145Y-72176659D01*
X109093803Y-72156665D01*
X109162253Y-72170675D01*
X109212263Y-72219469D01*
X109224953Y-72257564D01*
X109225180Y-72257504D01*
X109226192Y-72261283D01*
X109227109Y-72264034D01*
X109227282Y-72265350D01*
X109258147Y-72380543D01*
X109272232Y-72404938D01*
X109317773Y-72483816D01*
X109402096Y-72568139D01*
X109505370Y-72627765D01*
X109620558Y-72658629D01*
X109620560Y-72658629D01*
X109739806Y-72658629D01*
X109739808Y-72658629D01*
X109854996Y-72627765D01*
X109916282Y-72592380D01*
X109984181Y-72575907D01*
X110050208Y-72598758D01*
X110093400Y-72653679D01*
X110102283Y-72699767D01*
X110102283Y-72809624D01*
X110133147Y-72924814D01*
X110155587Y-72963680D01*
X110192773Y-73028087D01*
X110277096Y-73112410D01*
X110380370Y-73172036D01*
X110495558Y-73202900D01*
X110495560Y-73202900D01*
X110614806Y-73202900D01*
X110614808Y-73202900D01*
X110729996Y-73172036D01*
X110833270Y-73112410D01*
X110917593Y-73028087D01*
X110977219Y-72924813D01*
X111008083Y-72809625D01*
X111008083Y-72690375D01*
X110977219Y-72575187D01*
X110964299Y-72552810D01*
X110917593Y-72471913D01*
X110833264Y-72387584D01*
X110832792Y-72387222D01*
X110832494Y-72386814D01*
X110827523Y-72381843D01*
X110828298Y-72381067D01*
X110791592Y-72330792D01*
X110784283Y-72288850D01*
X110784283Y-71725864D01*
X110784283Y-71725863D01*
X110764896Y-71679059D01*
X110749405Y-71641660D01*
X109844270Y-70736525D01*
X109810785Y-70675202D01*
X109809183Y-70647510D01*
X109808083Y-70647510D01*
X109808083Y-69973334D01*
X109827768Y-69906295D01*
X109880572Y-69860540D01*
X109932083Y-69849334D01*
X110600166Y-69849334D01*
X110600167Y-69849334D01*
X110659351Y-69837562D01*
X110659356Y-69837558D01*
X110665600Y-69834973D01*
X110673778Y-69833346D01*
X110678119Y-69830557D01*
X110713054Y-69825534D01*
X110783924Y-69825534D01*
X110850963Y-69845219D01*
X110871605Y-69861853D01*
X111374581Y-70364828D01*
X111408066Y-70426151D01*
X111410900Y-70452509D01*
X111410900Y-73339188D01*
X111391215Y-73406227D01*
X111374581Y-73426869D01*
X111020435Y-73781015D01*
X110993507Y-73795718D01*
X110967689Y-73812311D01*
X110961488Y-73813202D01*
X110959112Y-73814500D01*
X110932754Y-73817334D01*
X110831149Y-73817334D01*
X110764110Y-73797649D01*
X110738323Y-73773927D01*
X110738157Y-73774094D01*
X110734161Y-73770098D01*
X110732775Y-73768823D01*
X110732408Y-73768345D01*
X110648089Y-73684026D01*
X110648087Y-73684024D01*
X110585268Y-73647755D01*
X110544814Y-73624398D01*
X110478594Y-73606655D01*
X110429625Y-73593534D01*
X110310375Y-73593534D01*
X110195185Y-73624398D01*
X110091913Y-73684024D01*
X110091910Y-73684026D01*
X110007592Y-73768344D01*
X110007590Y-73768347D01*
X109947964Y-73871619D01*
X109939397Y-73903594D01*
X109917100Y-73986809D01*
X109917100Y-74106059D01*
X109929532Y-74152458D01*
X109947964Y-74221248D01*
X109971605Y-74262194D01*
X110007590Y-74324521D01*
X110091913Y-74408844D01*
X110195187Y-74468470D01*
X110310375Y-74499334D01*
X110310377Y-74499334D01*
X110429623Y-74499334D01*
X110429625Y-74499334D01*
X110515097Y-74476432D01*
X110584946Y-74478095D01*
X110642808Y-74517258D01*
X110670312Y-74581486D01*
X110658725Y-74650388D01*
X110654576Y-74658208D01*
X110617964Y-74721619D01*
X110601825Y-74781854D01*
X110587100Y-74836809D01*
X110587100Y-74956059D01*
X110599780Y-75003381D01*
X110617964Y-75071248D01*
X110633863Y-75098785D01*
X110677590Y-75174521D01*
X110761913Y-75258844D01*
X110828174Y-75297100D01*
X110864504Y-75318076D01*
X110865187Y-75318470D01*
X110980375Y-75349334D01*
X110980377Y-75349334D01*
X111099623Y-75349334D01*
X111099625Y-75349334D01*
X111214813Y-75318470D01*
X111318087Y-75258844D01*
X111402410Y-75174521D01*
X111402413Y-75174514D01*
X111402775Y-75174045D01*
X111403186Y-75173744D01*
X111408157Y-75168774D01*
X111408932Y-75169549D01*
X111427853Y-75155734D01*
X111451691Y-75135824D01*
X111456491Y-75134825D01*
X111459205Y-75132844D01*
X111485730Y-75126496D01*
X111493406Y-75125534D01*
X111494732Y-75125534D01*
X111585872Y-75125534D01*
X111585873Y-75125534D01*
X111610535Y-75115318D01*
X111670077Y-75090656D01*
X112194222Y-74566511D01*
X112215426Y-74515318D01*
X112223454Y-74495938D01*
X112223455Y-74495935D01*
X112225641Y-74490656D01*
X112229100Y-74482307D01*
X112229100Y-74152458D01*
X112248785Y-74085419D01*
X112301589Y-74039664D01*
X112370747Y-74029720D01*
X112434303Y-74058745D01*
X112440781Y-74064777D01*
X113461423Y-75085419D01*
X113494908Y-75146742D01*
X113489924Y-75216434D01*
X113448052Y-75272367D01*
X113382588Y-75296784D01*
X113373742Y-75297100D01*
X113257209Y-75297100D01*
X113116589Y-75334779D01*
X113116587Y-75334780D01*
X113116586Y-75334780D01*
X112990514Y-75407567D01*
X112990509Y-75407571D01*
X112887571Y-75510509D01*
X112887567Y-75510514D01*
X112814780Y-75636586D01*
X112814780Y-75636587D01*
X112814779Y-75636589D01*
X112777100Y-75777209D01*
X112777100Y-75922791D01*
X112814779Y-76063411D01*
X112814780Y-76063412D01*
X112814780Y-76063413D01*
X112887567Y-76189485D01*
X112887569Y-76189488D01*
X112887570Y-76189489D01*
X112990511Y-76292430D01*
X113116589Y-76365221D01*
X113257209Y-76402900D01*
X113257211Y-76402900D01*
X113402788Y-76402900D01*
X113402791Y-76402900D01*
X113543411Y-76365221D01*
X113669489Y-76292430D01*
X113772430Y-76189489D01*
X113845221Y-76063411D01*
X113882900Y-75922791D01*
X113882900Y-75806258D01*
X113902585Y-75739219D01*
X113955389Y-75693464D01*
X114024547Y-75683520D01*
X114088103Y-75712545D01*
X114094581Y-75718577D01*
X114719764Y-76343760D01*
X114753249Y-76405083D01*
X114756083Y-76431441D01*
X114756083Y-78082861D01*
X114736398Y-78149900D01*
X114683594Y-78195655D01*
X114651482Y-78205334D01*
X114609131Y-78212041D01*
X114495410Y-78269985D01*
X114495406Y-78269988D01*
X114405171Y-78360223D01*
X114405168Y-78360227D01*
X114347224Y-78473949D01*
X114332283Y-78568286D01*
X114332283Y-80631713D01*
X114347224Y-80726050D01*
X114347225Y-80726053D01*
X114347226Y-80726055D01*
X114405167Y-80839771D01*
X114405168Y-80839772D01*
X114405171Y-80839776D01*
X114495406Y-80930011D01*
X114495410Y-80930014D01*
X114495412Y-80930016D01*
X114609128Y-80987957D01*
X114609130Y-80987957D01*
X114609132Y-80987958D01*
X114703470Y-81002900D01*
X114703475Y-81002900D01*
X115266896Y-81002900D01*
X115361233Y-80987958D01*
X115361233Y-80987957D01*
X115361238Y-80987957D01*
X115474954Y-80930016D01*
X115565199Y-80839771D01*
X115623140Y-80726055D01*
X115623141Y-80726050D01*
X115638083Y-80631713D01*
X115638083Y-78568286D01*
X115623141Y-78473949D01*
X115623140Y-78473947D01*
X115623140Y-78473945D01*
X115565199Y-78360229D01*
X115565197Y-78360227D01*
X115565194Y-78360223D01*
X115474959Y-78269988D01*
X115474955Y-78269985D01*
X115474954Y-78269984D01*
X115361238Y-78212043D01*
X115361237Y-78212042D01*
X115361234Y-78212041D01*
X115318884Y-78205334D01*
X115255750Y-78175404D01*
X115218819Y-78116093D01*
X115214283Y-78082861D01*
X115214283Y-76239613D01*
X115214282Y-76239609D01*
X115193522Y-76189492D01*
X115193522Y-76189490D01*
X115179406Y-76155412D01*
X115179405Y-76155409D01*
X113868619Y-74844623D01*
X112545819Y-73521822D01*
X112512334Y-73460499D01*
X112509500Y-73434141D01*
X112509500Y-70004753D01*
X112509499Y-70004749D01*
X112482965Y-69940691D01*
X112482964Y-69940689D01*
X112481151Y-69936313D01*
X112474622Y-69920549D01*
X112156843Y-69602770D01*
X111834966Y-69280892D01*
X111801481Y-69219569D01*
X111806465Y-69149877D01*
X111834963Y-69105533D01*
X111862410Y-69078087D01*
X111922036Y-68974813D01*
X111952900Y-68859625D01*
X111952900Y-68740375D01*
X111922036Y-68625187D01*
X111862410Y-68521913D01*
X111778087Y-68437590D01*
X111775790Y-68436264D01*
X113297100Y-68436264D01*
X113297100Y-68863735D01*
X113299941Y-68888221D01*
X113299941Y-68888223D01*
X113338175Y-68974814D01*
X113344172Y-68988396D01*
X113421604Y-69065828D01*
X113521779Y-69110059D01*
X113546266Y-69112900D01*
X113546267Y-69112900D01*
X113913733Y-69112900D01*
X113913734Y-69112900D01*
X113938221Y-69110059D01*
X114038396Y-69065828D01*
X114115828Y-68988396D01*
X114115829Y-68988391D01*
X114118961Y-68983822D01*
X114173087Y-68939640D01*
X114221260Y-68929900D01*
X114568040Y-68929900D01*
X114635079Y-68949585D01*
X114655721Y-68966218D01*
X114711913Y-69022410D01*
X114815187Y-69082036D01*
X114930375Y-69112900D01*
X114930377Y-69112900D01*
X115049623Y-69112900D01*
X115049625Y-69112900D01*
X115164813Y-69082036D01*
X115268087Y-69022410D01*
X115352410Y-68938087D01*
X115412036Y-68834813D01*
X115442900Y-68719625D01*
X115442900Y-68600375D01*
X115412036Y-68485187D01*
X115352410Y-68381913D01*
X115268087Y-68297590D01*
X115196026Y-68255985D01*
X115164814Y-68237964D01*
X115107219Y-68222532D01*
X115049625Y-68207100D01*
X114930375Y-68207100D01*
X114815185Y-68237964D01*
X114711913Y-68297590D01*
X114711910Y-68297592D01*
X114675722Y-68333781D01*
X114614399Y-68367266D01*
X114588041Y-68370100D01*
X114221260Y-68370100D01*
X114154221Y-68350415D01*
X114118961Y-68316178D01*
X114115827Y-68311603D01*
X114038397Y-68234173D01*
X114038396Y-68234172D01*
X114038393Y-68234170D01*
X114038392Y-68234170D01*
X113938222Y-68189941D01*
X113913735Y-68187100D01*
X113913734Y-68187100D01*
X113546266Y-68187100D01*
X113546264Y-68187100D01*
X113521778Y-68189941D01*
X113521776Y-68189941D01*
X113421607Y-68234170D01*
X113421602Y-68234173D01*
X113344173Y-68311602D01*
X113344170Y-68311607D01*
X113299941Y-68411776D01*
X113299941Y-68411778D01*
X113297100Y-68436264D01*
X111775790Y-68436264D01*
X111721819Y-68405103D01*
X111674814Y-68377964D01*
X111617219Y-68362532D01*
X111559625Y-68347100D01*
X111440375Y-68347100D01*
X111325185Y-68377964D01*
X111221913Y-68437590D01*
X111221910Y-68437592D01*
X111137592Y-68521910D01*
X111137590Y-68521913D01*
X111077964Y-68625185D01*
X111047100Y-68740375D01*
X111047100Y-68843334D01*
X111044549Y-68852019D01*
X111045838Y-68860981D01*
X111034859Y-68885021D01*
X111027415Y-68910373D01*
X111020574Y-68916300D01*
X111016813Y-68924537D01*
X110994578Y-68938826D01*
X110974611Y-68956128D01*
X110964096Y-68958415D01*
X110958035Y-68962311D01*
X110923100Y-68967334D01*
X110907083Y-68967334D01*
X110840044Y-68947649D01*
X110794289Y-68894845D01*
X110783083Y-68843334D01*
X110783083Y-68726451D01*
X110781725Y-68719623D01*
X110771311Y-68667266D01*
X110770015Y-68665326D01*
X110768489Y-68660455D01*
X110766638Y-68655985D01*
X110767037Y-68655819D01*
X110749135Y-68598652D01*
X110767617Y-68531271D01*
X110769997Y-68527567D01*
X110771311Y-68525602D01*
X110783083Y-68466418D01*
X110783083Y-68326450D01*
X110771311Y-68267266D01*
X110726466Y-68200151D01*
X110659351Y-68155306D01*
X110600167Y-68143534D01*
X109785199Y-68143534D01*
X109726015Y-68155306D01*
X109658900Y-68200151D01*
X109614055Y-68267266D01*
X109608024Y-68297590D01*
X109602283Y-68326451D01*
X109602283Y-68466416D01*
X109614055Y-68525603D01*
X109615353Y-68527545D01*
X109616879Y-68532420D01*
X109618728Y-68536883D01*
X109618328Y-68537048D01*
X109636230Y-68594223D01*
X109617744Y-68661603D01*
X109615353Y-68665323D01*
X109614055Y-68667264D01*
X109602283Y-68726451D01*
X109602283Y-68866416D01*
X109614055Y-68925603D01*
X109615353Y-68927545D01*
X109616879Y-68932420D01*
X109618728Y-68936883D01*
X109618328Y-68937048D01*
X109636230Y-68994223D01*
X109617744Y-69061603D01*
X109615353Y-69065323D01*
X109614055Y-69067264D01*
X109602283Y-69126451D01*
X109602283Y-69266416D01*
X109614055Y-69325603D01*
X109615353Y-69327545D01*
X109616879Y-69332420D01*
X109618728Y-69336883D01*
X109618328Y-69337048D01*
X109636230Y-69394223D01*
X109631806Y-69429333D01*
X109626488Y-69448658D01*
X109614055Y-69467266D01*
X109602283Y-69526450D01*
X109602283Y-69536621D01*
X109597912Y-69552506D01*
X109584871Y-69573579D01*
X109575592Y-69596556D01*
X109566808Y-69602770D01*
X109561147Y-69611920D01*
X109538783Y-69622598D01*
X109518555Y-69636910D01*
X109500655Y-69640803D01*
X109498096Y-69642026D01*
X109496161Y-69641781D01*
X109490519Y-69643009D01*
X109485207Y-69643532D01*
X109426013Y-69655306D01*
X109424072Y-69656604D01*
X109419196Y-69658130D01*
X109414734Y-69659979D01*
X109414568Y-69659579D01*
X109357394Y-69677481D01*
X109290014Y-69658995D01*
X109286294Y-69656604D01*
X109284352Y-69655306D01*
X109254759Y-69649420D01*
X109225167Y-69643534D01*
X109085199Y-69643534D01*
X109065471Y-69647458D01*
X109026013Y-69655306D01*
X109024072Y-69656604D01*
X109019196Y-69658130D01*
X109014734Y-69659979D01*
X109014568Y-69659579D01*
X108957394Y-69677481D01*
X108890014Y-69658995D01*
X108886294Y-69656604D01*
X108884352Y-69655306D01*
X108854759Y-69649420D01*
X108825167Y-69643534D01*
X108685199Y-69643534D01*
X108665471Y-69647458D01*
X108626013Y-69655306D01*
X108624072Y-69656604D01*
X108619196Y-69658130D01*
X108614734Y-69659979D01*
X108614568Y-69659579D01*
X108557394Y-69677481D01*
X108490014Y-69658995D01*
X108486294Y-69656604D01*
X108484352Y-69655306D01*
X108454759Y-69649420D01*
X108425167Y-69643534D01*
X108285199Y-69643534D01*
X108226015Y-69655306D01*
X108158900Y-69700151D01*
X108114055Y-69767266D01*
X108102283Y-69826450D01*
X107808083Y-69826450D01*
X107796311Y-69767266D01*
X107751466Y-69700151D01*
X107684351Y-69655306D01*
X107625167Y-69643534D01*
X107485199Y-69643534D01*
X107465471Y-69647458D01*
X107426013Y-69655306D01*
X107424072Y-69656604D01*
X107419196Y-69658130D01*
X107414734Y-69659979D01*
X107414568Y-69659579D01*
X107357394Y-69677481D01*
X107290014Y-69658995D01*
X107286294Y-69656604D01*
X107284352Y-69655306D01*
X107254759Y-69649420D01*
X107225167Y-69643534D01*
X107085199Y-69643534D01*
X107065471Y-69647458D01*
X107026013Y-69655306D01*
X107024072Y-69656604D01*
X107019196Y-69658130D01*
X107014734Y-69659979D01*
X107014568Y-69659579D01*
X106957394Y-69677481D01*
X106890014Y-69658995D01*
X106886294Y-69656604D01*
X106884352Y-69655306D01*
X106854759Y-69649420D01*
X106825167Y-69643534D01*
X106685199Y-69643534D01*
X106665471Y-69647458D01*
X106626013Y-69655306D01*
X106624072Y-69656604D01*
X106619196Y-69658130D01*
X106614734Y-69659979D01*
X106614568Y-69659579D01*
X106604995Y-69662577D01*
X106587985Y-69673084D01*
X106572331Y-69672804D01*
X106557394Y-69677481D01*
X106538117Y-69672192D01*
X106518127Y-69671835D01*
X106493012Y-69659817D01*
X106490014Y-69658995D01*
X106486290Y-69656601D01*
X106480699Y-69652865D01*
X106435895Y-69599252D01*
X106427189Y-69529927D01*
X106457346Y-69466900D01*
X106461868Y-69462127D01*
X106758580Y-69165416D01*
X106819901Y-69131934D01*
X106846259Y-69129100D01*
X108645570Y-69129100D01*
X108645571Y-69129100D01*
X108684681Y-69112900D01*
X108729775Y-69094222D01*
X109194221Y-68629775D01*
X109201560Y-68612058D01*
X109203543Y-68607272D01*
X109229099Y-68545573D01*
X109229100Y-68545571D01*
X109229100Y-67147201D01*
X109248785Y-67080162D01*
X109301589Y-67034407D01*
X109355411Y-67023223D01*
X109372219Y-67023536D01*
X109377042Y-67025534D01*
X109377043Y-67025534D01*
X109468183Y-67025534D01*
X109479414Y-67025534D01*
X109480594Y-67025556D01*
X109512872Y-67035690D01*
X109545322Y-67045219D01*
X109546107Y-67046125D01*
X109547255Y-67046486D01*
X109568958Y-67072496D01*
X109591077Y-67098023D01*
X109591366Y-67099351D01*
X109592018Y-67100133D01*
X109592666Y-67105330D01*
X109602283Y-67149534D01*
X109602283Y-67266418D01*
X109610131Y-67305874D01*
X109614055Y-67325603D01*
X109615353Y-67327545D01*
X109616879Y-67332420D01*
X109618728Y-67336883D01*
X109618328Y-67337048D01*
X109636230Y-67394223D01*
X109617744Y-67461603D01*
X109615353Y-67465323D01*
X109614055Y-67467264D01*
X109614055Y-67467266D01*
X109602283Y-67526450D01*
X109602283Y-67666418D01*
X109614055Y-67725602D01*
X109658900Y-67792717D01*
X109726015Y-67837562D01*
X109785199Y-67849334D01*
X109785200Y-67849334D01*
X110600166Y-67849334D01*
X110600167Y-67849334D01*
X110659351Y-67837562D01*
X110659356Y-67837558D01*
X110665600Y-67834973D01*
X110713054Y-67825534D01*
X114049135Y-67825534D01*
X114049136Y-67825534D01*
X114049137Y-67825534D01*
X114073799Y-67815318D01*
X114133341Y-67790656D01*
X115904222Y-66019775D01*
X115931719Y-65953389D01*
X115939100Y-65935571D01*
X115939100Y-61764429D01*
X115912539Y-61700305D01*
X115904222Y-61680226D01*
X115514327Y-61290331D01*
X115124402Y-60900405D01*
X115090917Y-60839082D01*
X115088083Y-60812724D01*
X115088083Y-60344720D01*
X115073141Y-60250383D01*
X115073140Y-60250381D01*
X115073140Y-60250379D01*
X115015199Y-60136663D01*
X115015197Y-60136661D01*
X115015194Y-60136657D01*
X114924959Y-60046422D01*
X114924955Y-60046419D01*
X114924954Y-60046418D01*
X114811238Y-59988477D01*
X114811236Y-59988476D01*
X114811233Y-59988475D01*
X114716896Y-59973534D01*
X114716891Y-59973534D01*
X114588283Y-59973534D01*
X114579597Y-59970983D01*
X114570636Y-59972272D01*
X114546595Y-59961293D01*
X114521244Y-59953849D01*
X114515316Y-59947008D01*
X114507080Y-59943247D01*
X114492790Y-59921012D01*
X114475489Y-59901045D01*
X114473201Y-59890530D01*
X114469306Y-59884469D01*
X114464283Y-59849534D01*
X114464283Y-59694885D01*
X114483968Y-59627846D01*
X114536772Y-59582091D01*
X114538198Y-59581450D01*
X114553227Y-59574814D01*
X114573579Y-59565828D01*
X114651011Y-59488396D01*
X114695242Y-59388221D01*
X114698083Y-59363734D01*
X114698083Y-58996266D01*
X114695242Y-58971779D01*
X114651011Y-58871604D01*
X114573579Y-58794172D01*
X114567088Y-58787681D01*
X114533603Y-58726358D01*
X114538587Y-58656666D01*
X114567088Y-58612319D01*
X114601321Y-58578086D01*
X114651011Y-58528396D01*
X114695242Y-58428221D01*
X114698083Y-58403734D01*
X114698083Y-58036266D01*
X114695242Y-58011779D01*
X114691905Y-58004222D01*
X114651012Y-57911607D01*
X114651011Y-57911604D01*
X114576385Y-57836978D01*
X114542900Y-57775655D01*
X114547884Y-57705963D01*
X114559166Y-57685598D01*
X114558346Y-57685125D01*
X114562408Y-57678088D01*
X114562410Y-57678087D01*
X114622036Y-57574813D01*
X114652900Y-57459625D01*
X114652900Y-57340375D01*
X114622036Y-57225187D01*
X114562410Y-57121913D01*
X114478087Y-57037590D01*
X114401781Y-56993534D01*
X114374814Y-56977964D01*
X114278203Y-56952078D01*
X114259625Y-56947100D01*
X114140375Y-56947100D01*
X114025185Y-56977964D01*
X113921913Y-57037590D01*
X113921910Y-57037592D01*
X113837592Y-57121910D01*
X113837590Y-57121913D01*
X113777964Y-57225185D01*
X113747100Y-57340375D01*
X113747100Y-57459624D01*
X113777964Y-57574814D01*
X113799954Y-57612900D01*
X113837590Y-57678087D01*
X113837592Y-57678089D01*
X113857549Y-57698046D01*
X113891034Y-57759369D01*
X113886050Y-57829061D01*
X113857551Y-57873406D01*
X113819357Y-57911601D01*
X113819353Y-57911607D01*
X113775124Y-58011776D01*
X113775124Y-58011778D01*
X113772283Y-58036264D01*
X113772283Y-58403735D01*
X113775124Y-58428221D01*
X113775124Y-58428223D01*
X113819353Y-58528392D01*
X113819356Y-58528397D01*
X113903278Y-58612319D01*
X113936763Y-58673642D01*
X113931779Y-58743334D01*
X113903278Y-58787681D01*
X113819356Y-58871602D01*
X113819353Y-58871607D01*
X113775124Y-58971776D01*
X113775124Y-58971778D01*
X113772283Y-58996264D01*
X113772283Y-59109251D01*
X113752598Y-59176290D01*
X113699794Y-59222045D01*
X113630636Y-59231989D01*
X113567080Y-59202964D01*
X113540896Y-59171252D01*
X113512410Y-59121913D01*
X113428087Y-59037590D01*
X113376450Y-59007777D01*
X113324814Y-58977964D01*
X113267219Y-58962532D01*
X113209625Y-58947100D01*
X113090375Y-58947100D01*
X112975185Y-58977964D01*
X112871913Y-59037590D01*
X112871910Y-59037592D01*
X112787592Y-59121910D01*
X112787590Y-59121913D01*
X112740795Y-59202964D01*
X112727964Y-59225187D01*
X112719775Y-59255751D01*
X112683410Y-59315411D01*
X112620563Y-59345940D01*
X112551187Y-59337645D01*
X112497309Y-59293160D01*
X112480225Y-59255751D01*
X112472036Y-59225187D01*
X112412410Y-59121913D01*
X112328087Y-59037590D01*
X112276450Y-59007777D01*
X112224814Y-58977964D01*
X112167219Y-58962532D01*
X112109625Y-58947100D01*
X111990375Y-58947100D01*
X111875185Y-58977964D01*
X111771913Y-59037590D01*
X111771910Y-59037592D01*
X111687592Y-59121910D01*
X111687590Y-59121913D01*
X111627964Y-59225185D01*
X111605764Y-59308041D01*
X111597100Y-59340375D01*
X111597100Y-59459625D01*
X111611226Y-59512343D01*
X111627964Y-59574814D01*
X111657777Y-59626450D01*
X111687590Y-59678087D01*
X111687592Y-59678089D01*
X111718964Y-59709461D01*
X111733667Y-59736388D01*
X111750260Y-59762207D01*
X111751151Y-59768407D01*
X111752449Y-59770784D01*
X111755283Y-59797142D01*
X111755283Y-59849534D01*
X111735598Y-59916573D01*
X111682794Y-59962328D01*
X111631283Y-59973534D01*
X111553470Y-59973534D01*
X111459132Y-59988475D01*
X111345410Y-60046419D01*
X111345406Y-60046422D01*
X111255171Y-60136657D01*
X111255168Y-60136661D01*
X111242625Y-60161278D01*
X111198457Y-60247964D01*
X111197224Y-60250383D01*
X111182283Y-60344720D01*
X111182283Y-61108147D01*
X111197224Y-61202484D01*
X111197225Y-61202487D01*
X111197226Y-61202489D01*
X111254843Y-61315569D01*
X111255168Y-61316206D01*
X111255171Y-61316210D01*
X111345406Y-61406445D01*
X111345410Y-61406448D01*
X111345412Y-61406450D01*
X111459128Y-61464391D01*
X111459129Y-61464391D01*
X111462187Y-61465949D01*
X111512983Y-61513923D01*
X111529778Y-61581744D01*
X111507241Y-61647879D01*
X111462187Y-61686919D01*
X111459129Y-61688476D01*
X111459128Y-61688477D01*
X111372616Y-61732557D01*
X111345410Y-61746419D01*
X111345406Y-61746422D01*
X111255171Y-61836657D01*
X111255168Y-61836661D01*
X111255167Y-61836663D01*
X111210253Y-61924813D01*
X111197224Y-61950383D01*
X111182283Y-62044720D01*
X111182283Y-62808147D01*
X111197224Y-62902484D01*
X111197225Y-62902485D01*
X111197226Y-62902489D01*
X111255167Y-63016205D01*
X111255168Y-63016206D01*
X111255171Y-63016210D01*
X111345406Y-63106445D01*
X111345410Y-63106448D01*
X111345412Y-63106450D01*
X111459128Y-63164391D01*
X111459130Y-63164391D01*
X111459132Y-63164392D01*
X111553470Y-63179334D01*
X111553475Y-63179334D01*
X112252724Y-63179334D01*
X112319763Y-63199019D01*
X112340405Y-63215653D01*
X112610171Y-63485419D01*
X112643656Y-63546742D01*
X112638672Y-63616434D01*
X112596800Y-63672367D01*
X112531336Y-63696784D01*
X112522490Y-63697100D01*
X112216264Y-63697100D01*
X112191778Y-63699941D01*
X112191776Y-63699941D01*
X112091607Y-63744170D01*
X112091602Y-63744173D01*
X112014173Y-63821602D01*
X112014170Y-63821607D01*
X111969941Y-63921776D01*
X111969941Y-63921778D01*
X111967100Y-63946264D01*
X111967100Y-64373735D01*
X111969941Y-64398221D01*
X111969941Y-64398223D01*
X112014170Y-64498392D01*
X112014173Y-64498397D01*
X112075864Y-64560088D01*
X112109349Y-64621411D01*
X112104365Y-64691103D01*
X112091311Y-64714677D01*
X112091654Y-64714875D01*
X112027964Y-64825185D01*
X112011149Y-64887942D01*
X111997100Y-64940375D01*
X111997100Y-65059625D01*
X112000627Y-65072788D01*
X112027964Y-65174814D01*
X112044675Y-65203757D01*
X112087590Y-65278087D01*
X112171913Y-65362410D01*
X112255546Y-65410696D01*
X112271272Y-65419776D01*
X112275187Y-65422036D01*
X112390375Y-65452900D01*
X112390377Y-65452900D01*
X112509623Y-65452900D01*
X112509625Y-65452900D01*
X112624813Y-65422036D01*
X112728087Y-65362410D01*
X112787319Y-65303178D01*
X112795264Y-65298839D01*
X112800690Y-65291592D01*
X112825449Y-65282357D01*
X112848642Y-65269693D01*
X112857671Y-65270338D01*
X112866154Y-65267175D01*
X112891974Y-65272791D01*
X112918334Y-65274677D01*
X112927387Y-65280495D01*
X112934427Y-65282027D01*
X112962681Y-65303178D01*
X113008876Y-65349373D01*
X113042361Y-65410696D01*
X113037377Y-65480388D01*
X113008877Y-65524735D01*
X112942007Y-65591605D01*
X112942006Y-65591607D01*
X112897777Y-65691776D01*
X112897777Y-65691778D01*
X112894936Y-65716264D01*
X112894936Y-66143735D01*
X112897777Y-66168221D01*
X112897777Y-66168223D01*
X112940654Y-66265329D01*
X112942008Y-66268396D01*
X113019440Y-66345828D01*
X113119615Y-66390059D01*
X113144102Y-66392900D01*
X113144103Y-66392900D01*
X113511569Y-66392900D01*
X113511570Y-66392900D01*
X113536057Y-66390059D01*
X113636232Y-66345828D01*
X113652920Y-66329139D01*
X113714240Y-66295654D01*
X113783932Y-66300637D01*
X113834184Y-66335467D01*
X113846469Y-66349599D01*
X113873369Y-66410521D01*
X113949479Y-66486631D01*
X113975631Y-66498178D01*
X113993796Y-66519074D01*
X113997284Y-66526679D01*
X114003675Y-66532078D01*
X114011632Y-66557965D01*
X114022922Y-66582583D01*
X114021744Y-66590865D01*
X114024203Y-66598863D01*
X114016901Y-66624941D01*
X114013090Y-66651758D01*
X114007620Y-66658090D01*
X114005365Y-66666146D01*
X113987894Y-66688108D01*
X113744988Y-66931015D01*
X113683665Y-66964500D01*
X113657307Y-66967334D01*
X112025659Y-66967334D01*
X111958620Y-66947649D01*
X111912865Y-66894845D01*
X111902921Y-66825687D01*
X111918271Y-66781336D01*
X111922033Y-66774818D01*
X111922032Y-66774818D01*
X111922036Y-66774813D01*
X111952900Y-66659625D01*
X111952900Y-66540375D01*
X111922036Y-66425187D01*
X111913568Y-66410521D01*
X111862410Y-66321913D01*
X111778081Y-66237584D01*
X111777609Y-66237222D01*
X111777311Y-66236814D01*
X111772340Y-66231843D01*
X111773115Y-66231067D01*
X111736409Y-66180792D01*
X111730880Y-66159784D01*
X111729100Y-66149391D01*
X111729100Y-66054429D01*
X111706681Y-66000305D01*
X111694222Y-65970225D01*
X111126209Y-65402212D01*
X111126205Y-65402210D01*
X111126203Y-65402209D01*
X111071754Y-65379656D01*
X111071752Y-65379655D01*
X111053267Y-65371999D01*
X111042005Y-65367334D01*
X110902578Y-65367334D01*
X110898075Y-65367006D01*
X110869409Y-65356271D01*
X110840044Y-65347649D01*
X110836999Y-65344135D01*
X110832643Y-65342504D01*
X110814330Y-65317973D01*
X110794289Y-65294845D01*
X110793147Y-65289599D01*
X110790845Y-65286515D01*
X110790067Y-65275438D01*
X110783083Y-65243334D01*
X110783083Y-65126451D01*
X110783083Y-65126450D01*
X110771311Y-65067266D01*
X110770015Y-65065326D01*
X110768489Y-65060455D01*
X110766638Y-65055985D01*
X110767037Y-65055819D01*
X110749135Y-64998652D01*
X110767617Y-64931271D01*
X110769997Y-64927567D01*
X110771311Y-64925602D01*
X110783083Y-64866418D01*
X110783083Y-64726450D01*
X110771311Y-64667266D01*
X110770015Y-64665326D01*
X110768489Y-64660455D01*
X110766638Y-64655985D01*
X110767037Y-64655819D01*
X110749135Y-64598652D01*
X110767617Y-64531271D01*
X110769997Y-64527567D01*
X110771311Y-64525602D01*
X110783083Y-64466418D01*
X110783083Y-64326450D01*
X110771311Y-64267266D01*
X110726466Y-64200151D01*
X110659351Y-64155306D01*
X110600167Y-64143534D01*
X109785199Y-64143534D01*
X109726015Y-64155306D01*
X109681802Y-64184848D01*
X109681800Y-64184849D01*
X109667125Y-64194655D01*
X109658900Y-64200151D01*
X109614055Y-64267266D01*
X109602283Y-64326450D01*
X109602283Y-64466418D01*
X109608643Y-64498392D01*
X109614055Y-64525603D01*
X109615353Y-64527545D01*
X109616879Y-64532420D01*
X109618728Y-64536883D01*
X109618328Y-64537048D01*
X109636230Y-64594223D01*
X109617744Y-64661603D01*
X109615353Y-64665323D01*
X109614055Y-64667264D01*
X109606555Y-64704972D01*
X109602283Y-64726450D01*
X109602283Y-64866418D01*
X109610131Y-64905874D01*
X109614055Y-64925603D01*
X109615353Y-64927545D01*
X109616879Y-64932420D01*
X109618728Y-64936883D01*
X109618328Y-64937048D01*
X109636230Y-64994223D01*
X109617744Y-65061603D01*
X109615353Y-65065323D01*
X109614055Y-65067264D01*
X109612956Y-65072791D01*
X109602283Y-65126450D01*
X109602283Y-65266418D01*
X109607937Y-65294845D01*
X109614055Y-65325603D01*
X109615353Y-65327545D01*
X109616879Y-65332420D01*
X109618728Y-65336883D01*
X109618328Y-65337048D01*
X109636230Y-65394223D01*
X109617744Y-65461603D01*
X109615353Y-65465323D01*
X109614055Y-65467264D01*
X109613110Y-65472016D01*
X109602283Y-65526450D01*
X109602283Y-65666418D01*
X109610131Y-65705874D01*
X109614055Y-65725603D01*
X109615353Y-65727545D01*
X109616879Y-65732420D01*
X109618728Y-65736883D01*
X109618328Y-65737048D01*
X109636230Y-65794223D01*
X109617744Y-65861603D01*
X109615353Y-65865323D01*
X109614055Y-65867264D01*
X109610095Y-65887174D01*
X109603813Y-65918761D01*
X109602283Y-65926451D01*
X109602283Y-66066416D01*
X109614055Y-66125603D01*
X109615353Y-66127545D01*
X109616879Y-66132420D01*
X109618728Y-66136883D01*
X109618328Y-66137048D01*
X109636230Y-66194223D01*
X109633422Y-66222765D01*
X109628425Y-66245759D01*
X109614055Y-66267266D01*
X109602283Y-66326450D01*
X109602283Y-66366061D01*
X109599455Y-66379076D01*
X109588839Y-66398526D01*
X109582598Y-66419784D01*
X109572430Y-66428593D01*
X109565984Y-66440407D01*
X109546536Y-66451031D01*
X109529794Y-66465539D01*
X109516476Y-66467453D01*
X109504668Y-66473905D01*
X109482568Y-66472329D01*
X109460636Y-66475483D01*
X109448395Y-66469892D01*
X109434975Y-66468936D01*
X109417236Y-66455662D01*
X109397080Y-66446458D01*
X109390602Y-66440426D01*
X109265419Y-66315243D01*
X109231934Y-66253920D01*
X109229100Y-66227562D01*
X109229100Y-64954430D01*
X109229099Y-64954427D01*
X109225816Y-64946501D01*
X109211532Y-64912016D01*
X109194222Y-64870226D01*
X108629775Y-64305778D01*
X108629774Y-64305777D01*
X108598528Y-64292835D01*
X108567282Y-64279893D01*
X108545572Y-64270900D01*
X108545571Y-64270900D01*
X106946259Y-64270900D01*
X106879220Y-64251215D01*
X106858578Y-64234581D01*
X106620602Y-63996605D01*
X106605898Y-63969677D01*
X106589306Y-63943859D01*
X106588414Y-63937658D01*
X106587117Y-63935282D01*
X106584283Y-63908924D01*
X106584283Y-63879304D01*
X106593723Y-63831848D01*
X106596306Y-63825609D01*
X106596311Y-63825602D01*
X106608083Y-63766418D01*
X106608083Y-62951450D01*
X106902283Y-62951450D01*
X106902283Y-63766418D01*
X106914055Y-63825602D01*
X106958900Y-63892717D01*
X107026015Y-63937562D01*
X107085199Y-63949334D01*
X107085200Y-63949334D01*
X107225166Y-63949334D01*
X107225167Y-63949334D01*
X107284351Y-63937562D01*
X107286290Y-63936266D01*
X107291161Y-63934740D01*
X107295632Y-63932889D01*
X107295797Y-63933288D01*
X107352965Y-63915386D01*
X107420346Y-63933868D01*
X107424049Y-63936248D01*
X107426015Y-63937562D01*
X107485199Y-63949334D01*
X107485200Y-63949334D01*
X107625166Y-63949334D01*
X107625167Y-63949334D01*
X107684351Y-63937562D01*
X107686290Y-63936266D01*
X107691161Y-63934740D01*
X107695632Y-63932889D01*
X107695797Y-63933288D01*
X107752965Y-63915386D01*
X107820346Y-63933868D01*
X107824049Y-63936248D01*
X107826015Y-63937562D01*
X107885199Y-63949334D01*
X107885200Y-63949334D01*
X108025166Y-63949334D01*
X108025167Y-63949334D01*
X108084351Y-63937562D01*
X108086290Y-63936266D01*
X108091161Y-63934740D01*
X108095632Y-63932889D01*
X108095797Y-63933288D01*
X108152965Y-63915386D01*
X108220346Y-63933868D01*
X108224049Y-63936248D01*
X108226015Y-63937562D01*
X108285199Y-63949334D01*
X108285200Y-63949334D01*
X108425166Y-63949334D01*
X108425167Y-63949334D01*
X108484351Y-63937562D01*
X108486290Y-63936266D01*
X108491161Y-63934740D01*
X108495632Y-63932889D01*
X108495797Y-63933288D01*
X108503571Y-63930854D01*
X108518679Y-63920861D01*
X108536222Y-63920629D01*
X108552965Y-63915386D01*
X108570432Y-63920177D01*
X108588542Y-63919938D01*
X108616652Y-63932854D01*
X108620346Y-63933868D01*
X108621392Y-63935033D01*
X108624074Y-63936265D01*
X108626015Y-63937562D01*
X108685199Y-63949334D01*
X108685200Y-63949334D01*
X108825166Y-63949334D01*
X108825167Y-63949334D01*
X108884351Y-63937562D01*
X108886290Y-63936266D01*
X108891161Y-63934740D01*
X108895632Y-63932889D01*
X108895797Y-63933288D01*
X108952965Y-63915386D01*
X109020346Y-63933868D01*
X109024049Y-63936248D01*
X109026015Y-63937562D01*
X109085199Y-63949334D01*
X109085200Y-63949334D01*
X109225166Y-63949334D01*
X109225167Y-63949334D01*
X109284351Y-63937562D01*
X109286290Y-63936266D01*
X109291161Y-63934740D01*
X109295632Y-63932889D01*
X109295797Y-63933288D01*
X109352965Y-63915386D01*
X109420346Y-63933868D01*
X109424049Y-63936248D01*
X109426015Y-63937562D01*
X109485199Y-63949334D01*
X109485200Y-63949334D01*
X109603830Y-63949334D01*
X109668517Y-63949334D01*
X109784799Y-63833052D01*
X109784805Y-63833045D01*
X109808082Y-63776848D01*
X109808083Y-63776838D01*
X109808083Y-62951450D01*
X109796311Y-62892266D01*
X109751466Y-62825151D01*
X109684351Y-62780306D01*
X109625167Y-62768534D01*
X109485199Y-62768534D01*
X109465471Y-62772458D01*
X109426013Y-62780306D01*
X109424072Y-62781604D01*
X109419196Y-62783130D01*
X109414734Y-62784979D01*
X109414568Y-62784579D01*
X109357394Y-62802481D01*
X109290014Y-62783995D01*
X109286294Y-62781604D01*
X109284352Y-62780306D01*
X109254759Y-62774420D01*
X109225167Y-62768534D01*
X109085199Y-62768534D01*
X109065471Y-62772458D01*
X109026013Y-62780306D01*
X109024072Y-62781604D01*
X109019196Y-62783130D01*
X109014734Y-62784979D01*
X109014568Y-62784579D01*
X108957394Y-62802481D01*
X108890014Y-62783995D01*
X108886294Y-62781604D01*
X108884352Y-62780306D01*
X108854759Y-62774420D01*
X108825167Y-62768534D01*
X108685199Y-62768534D01*
X108665471Y-62772458D01*
X108626013Y-62780306D01*
X108624072Y-62781604D01*
X108619196Y-62783130D01*
X108614734Y-62784979D01*
X108614568Y-62784579D01*
X108557394Y-62802481D01*
X108490014Y-62783995D01*
X108486294Y-62781604D01*
X108484352Y-62780306D01*
X108454759Y-62774420D01*
X108425167Y-62768534D01*
X108285199Y-62768534D01*
X108265471Y-62772458D01*
X108226013Y-62780306D01*
X108224072Y-62781604D01*
X108219196Y-62783130D01*
X108214734Y-62784979D01*
X108214568Y-62784579D01*
X108157394Y-62802481D01*
X108090014Y-62783995D01*
X108086294Y-62781604D01*
X108084352Y-62780306D01*
X108054759Y-62774420D01*
X108025167Y-62768534D01*
X107885199Y-62768534D01*
X107865471Y-62772458D01*
X107826013Y-62780306D01*
X107824072Y-62781604D01*
X107819196Y-62783130D01*
X107814734Y-62784979D01*
X107814568Y-62784579D01*
X107757394Y-62802481D01*
X107690014Y-62783995D01*
X107686294Y-62781604D01*
X107684352Y-62780306D01*
X107654759Y-62774420D01*
X107625167Y-62768534D01*
X107485199Y-62768534D01*
X107465471Y-62772458D01*
X107426013Y-62780306D01*
X107424072Y-62781604D01*
X107419196Y-62783130D01*
X107414734Y-62784979D01*
X107414568Y-62784579D01*
X107357394Y-62802481D01*
X107290014Y-62783995D01*
X107286294Y-62781604D01*
X107284352Y-62780306D01*
X107254759Y-62774420D01*
X107225167Y-62768534D01*
X107085199Y-62768534D01*
X107026015Y-62780306D01*
X106958900Y-62825151D01*
X106914055Y-62892266D01*
X106902283Y-62951450D01*
X106608083Y-62951450D01*
X106607924Y-62950652D01*
X106596312Y-62892269D01*
X106593721Y-62886014D01*
X106584283Y-62838563D01*
X106584283Y-61791075D01*
X106603968Y-61724036D01*
X106620602Y-61703394D01*
X107402205Y-60921791D01*
X107463528Y-60888306D01*
X107533220Y-60893290D01*
X107577567Y-60921791D01*
X107641604Y-60985828D01*
X107741779Y-61030059D01*
X107766266Y-61032900D01*
X107766267Y-61032900D01*
X107949948Y-61032900D01*
X108016987Y-61052585D01*
X108062742Y-61105389D01*
X108072686Y-61174547D01*
X108043661Y-61238103D01*
X108037629Y-61244581D01*
X107974173Y-61308036D01*
X107974170Y-61308041D01*
X107929941Y-61408210D01*
X107929941Y-61408212D01*
X107927100Y-61432698D01*
X107927100Y-61860169D01*
X107929941Y-61884655D01*
X107929941Y-61884657D01*
X107974170Y-61984826D01*
X107974172Y-61984830D01*
X108051604Y-62062262D01*
X108151779Y-62106493D01*
X108176266Y-62109334D01*
X108176267Y-62109334D01*
X108543733Y-62109334D01*
X108543734Y-62109334D01*
X108568221Y-62106493D01*
X108668396Y-62062262D01*
X108745828Y-61984830D01*
X108745830Y-61984823D01*
X108746197Y-61984290D01*
X108747128Y-61983529D01*
X108753953Y-61976705D01*
X108754642Y-61977394D01*
X108800320Y-61940103D01*
X108869740Y-61932193D01*
X108932417Y-61963069D01*
X108936182Y-61966679D01*
X108981913Y-62012410D01*
X109085187Y-62072036D01*
X109200375Y-62102900D01*
X109200377Y-62102900D01*
X109319623Y-62102900D01*
X109319625Y-62102900D01*
X109434813Y-62072036D01*
X109538087Y-62012410D01*
X109622410Y-61928087D01*
X109635238Y-61905867D01*
X109685805Y-61857653D01*
X109754412Y-61844429D01*
X109818115Y-61869495D01*
X109821912Y-61872409D01*
X109821913Y-61872410D01*
X109868546Y-61899334D01*
X109918350Y-61928089D01*
X109925187Y-61932036D01*
X110040375Y-61962900D01*
X110040377Y-61962900D01*
X110159623Y-61962900D01*
X110159625Y-61962900D01*
X110274813Y-61932036D01*
X110378087Y-61872410D01*
X110462410Y-61788087D01*
X110522036Y-61684813D01*
X110552900Y-61569625D01*
X110552900Y-61450375D01*
X110522036Y-61335187D01*
X110511079Y-61316210D01*
X110462410Y-61231913D01*
X110378081Y-61147584D01*
X110377609Y-61147222D01*
X110377311Y-61146814D01*
X110374037Y-61143540D01*
X110371897Y-61142563D01*
X110354918Y-61116143D01*
X110336409Y-61090792D01*
X110335584Y-61086058D01*
X110334123Y-61083785D01*
X110329100Y-61048850D01*
X110329100Y-61028103D01*
X110348785Y-60961064D01*
X110365419Y-60940422D01*
X110387445Y-60918396D01*
X110421011Y-60884830D01*
X110465242Y-60784655D01*
X110468083Y-60760168D01*
X110468083Y-60392700D01*
X110465242Y-60368213D01*
X110464145Y-60365729D01*
X110443126Y-60318125D01*
X110421011Y-60268038D01*
X110343579Y-60190606D01*
X110337088Y-60184115D01*
X110303603Y-60122792D01*
X110308587Y-60053100D01*
X110337088Y-60008753D01*
X110374858Y-59970983D01*
X110421011Y-59924830D01*
X110465242Y-59824655D01*
X110468083Y-59800168D01*
X110468083Y-59432700D01*
X110465242Y-59408213D01*
X110455919Y-59387099D01*
X110435004Y-59339729D01*
X110421011Y-59308038D01*
X110343579Y-59230606D01*
X110343576Y-59230604D01*
X110343575Y-59230604D01*
X110243405Y-59186375D01*
X110218918Y-59183534D01*
X110218917Y-59183534D01*
X109791449Y-59183534D01*
X109791447Y-59183534D01*
X109766961Y-59186375D01*
X109766959Y-59186375D01*
X109666790Y-59230604D01*
X109666785Y-59230607D01*
X109581230Y-59316163D01*
X109580338Y-59315271D01*
X109535422Y-59351932D01*
X109466001Y-59359834D01*
X109403327Y-59328950D01*
X109399574Y-59325350D01*
X109338397Y-59264173D01*
X109338396Y-59264172D01*
X109338393Y-59264170D01*
X109338392Y-59264170D01*
X109238222Y-59219941D01*
X109213735Y-59217100D01*
X109213734Y-59217100D01*
X108786266Y-59217100D01*
X108786264Y-59217100D01*
X108761778Y-59219941D01*
X108761776Y-59219941D01*
X108661607Y-59264170D01*
X108661605Y-59264171D01*
X108582051Y-59343725D01*
X108520727Y-59377209D01*
X108451036Y-59372225D01*
X108405525Y-59338156D01*
X108403953Y-59339729D01*
X108318397Y-59254173D01*
X108318396Y-59254172D01*
X108318393Y-59254170D01*
X108318392Y-59254170D01*
X108218222Y-59209941D01*
X108193735Y-59207100D01*
X108193734Y-59207100D01*
X107766266Y-59207100D01*
X107766264Y-59207100D01*
X107741778Y-59209941D01*
X107741776Y-59209941D01*
X107641607Y-59254170D01*
X107641602Y-59254173D01*
X107564172Y-59331603D01*
X107563094Y-59333178D01*
X107560394Y-59335381D01*
X107557059Y-59338716D01*
X107554508Y-59344303D01*
X107530796Y-59359541D01*
X107508967Y-59377360D01*
X107500362Y-59379099D01*
X107495730Y-59382077D01*
X107460795Y-59387100D01*
X107364747Y-59387100D01*
X107364739Y-59387099D01*
X107350305Y-59387099D01*
X107249695Y-59387099D01*
X107249692Y-59387099D01*
X107223465Y-59397964D01*
X107223464Y-59397964D01*
X107156743Y-59425601D01*
X107081262Y-59501082D01*
X107061566Y-59520779D01*
X107000244Y-59554266D01*
X106973883Y-59557100D01*
X106870375Y-59557100D01*
X106755185Y-59587964D01*
X106651913Y-59647590D01*
X106651910Y-59647592D01*
X106567592Y-59731910D01*
X106567590Y-59731913D01*
X106507964Y-59835185D01*
X106477100Y-59950375D01*
X106477100Y-59989849D01*
X106471640Y-60008442D01*
X106471145Y-60027814D01*
X106461999Y-60041274D01*
X106457415Y-60056888D01*
X106442770Y-60069577D01*
X106431880Y-60085607D01*
X106416908Y-60091986D01*
X106404611Y-60102643D01*
X106385430Y-60105400D01*
X106367603Y-60112998D01*
X106344319Y-60111312D01*
X106335453Y-60112587D01*
X106332321Y-60112096D01*
X106317650Y-60109602D01*
X106314813Y-60107964D01*
X106199625Y-60077100D01*
X106126434Y-60077100D01*
X106116121Y-60075347D01*
X106093744Y-60064428D01*
X106069861Y-60057415D01*
X106062892Y-60049373D01*
X106053328Y-60044706D01*
X106040407Y-60023423D01*
X106024106Y-60004611D01*
X106021380Y-59992084D01*
X106017069Y-59984982D01*
X106017360Y-59973601D01*
X106012900Y-59953100D01*
X106012900Y-59840377D01*
X106012900Y-59840375D01*
X105982036Y-59725187D01*
X105922410Y-59621913D01*
X105838087Y-59537590D01*
X105767339Y-59496743D01*
X105734814Y-59477964D01*
X105658775Y-59457590D01*
X105619625Y-59447100D01*
X105500375Y-59447100D01*
X105385185Y-59477964D01*
X105281913Y-59537590D01*
X105281910Y-59537592D01*
X105197592Y-59621910D01*
X105197590Y-59621913D01*
X105137964Y-59725185D01*
X105110744Y-59826776D01*
X105107100Y-59840375D01*
X105107100Y-59959625D01*
X105116529Y-59994814D01*
X105137964Y-60074814D01*
X105154032Y-60102643D01*
X105160010Y-60112998D01*
X105160514Y-60113870D01*
X105176987Y-60181770D01*
X105154135Y-60247797D01*
X105099214Y-60290988D01*
X105029661Y-60297630D01*
X104991126Y-60283258D01*
X104929997Y-60247964D01*
X104872402Y-60232532D01*
X104814808Y-60217100D01*
X104695558Y-60217100D01*
X104580368Y-60247964D01*
X104477096Y-60307590D01*
X104477093Y-60307592D01*
X104392775Y-60391910D01*
X104392773Y-60391913D01*
X104333147Y-60495185D01*
X104302283Y-60610375D01*
X104302283Y-60729624D01*
X104333147Y-60844814D01*
X104358258Y-60888306D01*
X104392773Y-60948087D01*
X104477096Y-61032410D01*
X104477098Y-61032411D01*
X104477563Y-61032768D01*
X104477858Y-61033172D01*
X104482843Y-61038157D01*
X104482066Y-61038933D01*
X104518770Y-61089193D01*
X104526083Y-61131148D01*
X104526083Y-62838563D01*
X104516645Y-62886014D01*
X104514053Y-62892269D01*
X104502283Y-62951445D01*
X104502283Y-62951449D01*
X104502283Y-62951450D01*
X104502283Y-63766418D01*
X104514055Y-63825602D01*
X104558900Y-63892717D01*
X104626015Y-63937562D01*
X104685199Y-63949334D01*
X104685200Y-63949334D01*
X104825166Y-63949334D01*
X104825167Y-63949334D01*
X104884351Y-63937562D01*
X104886290Y-63936266D01*
X104891161Y-63934740D01*
X104895632Y-63932889D01*
X104895797Y-63933288D01*
X104952965Y-63915386D01*
X105020346Y-63933868D01*
X105024049Y-63936248D01*
X105026015Y-63937562D01*
X105085199Y-63949334D01*
X105085200Y-63949334D01*
X105225166Y-63949334D01*
X105225167Y-63949334D01*
X105284351Y-63937562D01*
X105286290Y-63936266D01*
X105291161Y-63934740D01*
X105295632Y-63932889D01*
X105295797Y-63933288D01*
X105352965Y-63915386D01*
X105420346Y-63933868D01*
X105424049Y-63936248D01*
X105426015Y-63937562D01*
X105485199Y-63949334D01*
X105485200Y-63949334D01*
X105625166Y-63949334D01*
X105625167Y-63949334D01*
X105684351Y-63937562D01*
X105686290Y-63936266D01*
X105691161Y-63934740D01*
X105695632Y-63932889D01*
X105695797Y-63933288D01*
X105752965Y-63915386D01*
X105772083Y-63916523D01*
X105800347Y-63920411D01*
X105826015Y-63937562D01*
X105885199Y-63949334D01*
X106010573Y-63949334D01*
X106018983Y-63950491D01*
X106043420Y-63961472D01*
X106069122Y-63969019D01*
X106074801Y-63975573D01*
X106082714Y-63979129D01*
X106097336Y-64001580D01*
X106114877Y-64021823D01*
X106117061Y-64031865D01*
X106120846Y-64037676D01*
X106120918Y-64049593D01*
X106126083Y-64073334D01*
X106126083Y-64100756D01*
X106136047Y-64124809D01*
X106136047Y-64124812D01*
X106136049Y-64124812D01*
X106136049Y-64124813D01*
X106160961Y-64184958D01*
X106670225Y-64694222D01*
X106696179Y-64704972D01*
X106750583Y-64748813D01*
X106772649Y-64815107D01*
X106755370Y-64882806D01*
X106704234Y-64930417D01*
X106648728Y-64943534D01*
X105162515Y-64943534D01*
X105162492Y-64943536D01*
X105136936Y-64946500D01*
X105136933Y-64946501D01*
X105032318Y-64992692D01*
X105032310Y-64992698D01*
X104951447Y-65073561D01*
X104951443Y-65073568D01*
X104905250Y-65178182D01*
X104905250Y-65178184D01*
X104902283Y-65203757D01*
X104902283Y-68389101D01*
X104902285Y-68389124D01*
X104905249Y-68414680D01*
X104905250Y-68414683D01*
X104951441Y-68519298D01*
X104951444Y-68519302D01*
X104951445Y-68519304D01*
X105032313Y-68600172D01*
X105136934Y-68646367D01*
X105162508Y-68649334D01*
X106327309Y-68649333D01*
X106394346Y-68669018D01*
X106440101Y-68721821D01*
X106450045Y-68790980D01*
X106421020Y-68854536D01*
X106414988Y-68861014D01*
X105760963Y-69515039D01*
X105760961Y-69515041D01*
X105760961Y-69515042D01*
X105745280Y-69552900D01*
X105745279Y-69552903D01*
X105739444Y-69566989D01*
X105695602Y-69621392D01*
X105629307Y-69643455D01*
X105624884Y-69643534D01*
X105485199Y-69643534D01*
X105465471Y-69647458D01*
X105426013Y-69655306D01*
X105424072Y-69656604D01*
X105419196Y-69658130D01*
X105414734Y-69659979D01*
X105414568Y-69659579D01*
X105357394Y-69677481D01*
X105290014Y-69658995D01*
X105286294Y-69656604D01*
X105284352Y-69655306D01*
X105254759Y-69649420D01*
X105225167Y-69643534D01*
X105085199Y-69643534D01*
X105065471Y-69647458D01*
X105026013Y-69655306D01*
X105024072Y-69656604D01*
X105019196Y-69658130D01*
X105014734Y-69659979D01*
X105014568Y-69659579D01*
X104957394Y-69677481D01*
X104890014Y-69658995D01*
X104886294Y-69656604D01*
X104884352Y-69655306D01*
X104854759Y-69649420D01*
X104825167Y-69643534D01*
X104685199Y-69643534D01*
X104665471Y-69647458D01*
X104626013Y-69655306D01*
X104624072Y-69656604D01*
X104619196Y-69658130D01*
X104614734Y-69659979D01*
X104614568Y-69659579D01*
X104557394Y-69677481D01*
X104490014Y-69658995D01*
X104486294Y-69656604D01*
X104484352Y-69655306D01*
X104454759Y-69649420D01*
X104425167Y-69643534D01*
X104285199Y-69643534D01*
X104226015Y-69655306D01*
X104158900Y-69700151D01*
X104114055Y-69767266D01*
X104102283Y-69826450D01*
X104102283Y-70641418D01*
X104114055Y-70700602D01*
X104114057Y-70700605D01*
X104116643Y-70706848D01*
X104118270Y-70715027D01*
X104121060Y-70719369D01*
X104126083Y-70754304D01*
X104126083Y-70908173D01*
X104106398Y-70975212D01*
X104053594Y-71020967D01*
X103984436Y-71030911D01*
X103952001Y-71021609D01*
X103948226Y-71019942D01*
X103948221Y-71019941D01*
X103923735Y-71017100D01*
X103923734Y-71017100D01*
X103556266Y-71017100D01*
X103556264Y-71017100D01*
X103531778Y-71019941D01*
X103531776Y-71019941D01*
X103431607Y-71064170D01*
X103431602Y-71064173D01*
X103354173Y-71141602D01*
X103354170Y-71141607D01*
X103309941Y-71241776D01*
X103309941Y-71241778D01*
X103307100Y-71266264D01*
X103307100Y-71693745D01*
X103307304Y-71695498D01*
X103307227Y-71695942D01*
X103307307Y-71697317D01*
X103306988Y-71697335D01*
X103295475Y-71764359D01*
X103248295Y-71815894D01*
X103216224Y-71829560D01*
X103129911Y-71852688D01*
X103129909Y-71852688D01*
X103129909Y-71852689D01*
X103026637Y-71912314D01*
X103026634Y-71912316D01*
X102942316Y-71996634D01*
X102942314Y-71996637D01*
X102882688Y-72099909D01*
X102859352Y-72187005D01*
X102851824Y-72215099D01*
X102851824Y-72334349D01*
X102858511Y-72359306D01*
X102882688Y-72449538D01*
X102902479Y-72483816D01*
X102942314Y-72552811D01*
X102942316Y-72552813D01*
X103026638Y-72637135D01*
X103031470Y-72640843D01*
X103072672Y-72697271D01*
X103076825Y-72767017D01*
X103063369Y-72801216D01*
X103058515Y-72809625D01*
X103012354Y-72889575D01*
X102981490Y-73004765D01*
X102981490Y-73124014D01*
X103012354Y-73239204D01*
X103037738Y-73283169D01*
X103071980Y-73342477D01*
X103156303Y-73426800D01*
X103259577Y-73486426D01*
X103374765Y-73517290D01*
X103374767Y-73517290D01*
X103494013Y-73517290D01*
X103494015Y-73517290D01*
X103609203Y-73486426D01*
X103712477Y-73426800D01*
X103796800Y-73342477D01*
X103856426Y-73239203D01*
X103887290Y-73124015D01*
X103887290Y-73004765D01*
X103887290Y-72996637D01*
X103888697Y-72996637D01*
X103898119Y-72936217D01*
X103922612Y-72901384D01*
X104196232Y-72627764D01*
X104314403Y-72509593D01*
X104375725Y-72476109D01*
X104445417Y-72481093D01*
X104501350Y-72522965D01*
X104525767Y-72588429D01*
X104526083Y-72597275D01*
X104526083Y-73399959D01*
X104506398Y-73466998D01*
X104489764Y-73487640D01*
X102662823Y-75314581D01*
X102601500Y-75348066D01*
X102575142Y-75350900D01*
X96624613Y-75350900D01*
X96617640Y-75348852D01*
X96610478Y-75350092D01*
X96584562Y-75339139D01*
X96557574Y-75331215D01*
X96552814Y-75325722D01*
X96546119Y-75322893D01*
X96530237Y-75299667D01*
X96511819Y-75278411D01*
X96510784Y-75271218D01*
X96506682Y-75265218D01*
X96505878Y-75237098D01*
X96501875Y-75209253D01*
X96504845Y-75200927D01*
X96504687Y-75195377D01*
X96514426Y-75174076D01*
X96518426Y-75162866D01*
X96524714Y-75152437D01*
X96526631Y-75150521D01*
X96528710Y-75145810D01*
X96532778Y-75139066D01*
X96552948Y-75120553D01*
X96570613Y-75099640D01*
X96578315Y-75097272D01*
X96584254Y-75091822D01*
X96611234Y-75087152D01*
X96637399Y-75079110D01*
X96638965Y-75079100D01*
X100843732Y-75079100D01*
X100843733Y-75079100D01*
X100843734Y-75079100D01*
X100868396Y-75068884D01*
X100927938Y-75044222D01*
X102324405Y-73647754D01*
X102347587Y-73591788D01*
X102359283Y-73563551D01*
X102359283Y-70167692D01*
X102378968Y-70100653D01*
X102395602Y-70080011D01*
X102613760Y-69861853D01*
X102640687Y-69847149D01*
X102666506Y-69830557D01*
X102672706Y-69829665D01*
X102675083Y-69828368D01*
X102701441Y-69825534D01*
X102797312Y-69825534D01*
X102844766Y-69834973D01*
X102851011Y-69837559D01*
X102851015Y-69837562D01*
X102910199Y-69849334D01*
X102910200Y-69849334D01*
X103768517Y-69849334D01*
X103884799Y-69733052D01*
X103884805Y-69733045D01*
X103908082Y-69676848D01*
X103908083Y-69676838D01*
X103908083Y-69526450D01*
X103896311Y-69467266D01*
X103895015Y-69465326D01*
X103893489Y-69460455D01*
X103891638Y-69455985D01*
X103892037Y-69455819D01*
X103874135Y-69398652D01*
X103892617Y-69331271D01*
X103894997Y-69327567D01*
X103896311Y-69325602D01*
X103908083Y-69266418D01*
X103908083Y-69126450D01*
X103896311Y-69067266D01*
X103895015Y-69065326D01*
X103893489Y-69060455D01*
X103891638Y-69055985D01*
X103892037Y-69055819D01*
X103874135Y-68998652D01*
X103892617Y-68931271D01*
X103894997Y-68927567D01*
X103896311Y-68925602D01*
X103908083Y-68866418D01*
X103908083Y-68726450D01*
X103896311Y-68667266D01*
X103895015Y-68665326D01*
X103893489Y-68660455D01*
X103891638Y-68655985D01*
X103892037Y-68655819D01*
X103874135Y-68598652D01*
X103892617Y-68531271D01*
X103894997Y-68527567D01*
X103896311Y-68525602D01*
X103908083Y-68466418D01*
X103908083Y-68326450D01*
X103896311Y-68267266D01*
X103895015Y-68265326D01*
X103893489Y-68260455D01*
X103891638Y-68255985D01*
X103892037Y-68255819D01*
X103874135Y-68198652D01*
X103892617Y-68131271D01*
X103894997Y-68127567D01*
X103896311Y-68125602D01*
X103908083Y-68066418D01*
X103908083Y-67926450D01*
X103896311Y-67867266D01*
X103895015Y-67865326D01*
X103893489Y-67860455D01*
X103891638Y-67855985D01*
X103892037Y-67855819D01*
X103874135Y-67798652D01*
X103892617Y-67731271D01*
X103894997Y-67727567D01*
X103896311Y-67725602D01*
X103908083Y-67666418D01*
X103908083Y-67526450D01*
X103896311Y-67467266D01*
X103851466Y-67400151D01*
X103784351Y-67355306D01*
X103725167Y-67343534D01*
X102910199Y-67343534D01*
X102910186Y-67343534D01*
X102910166Y-67343536D01*
X102910155Y-67343534D01*
X102904108Y-67343534D01*
X102904108Y-67342385D01*
X102841523Y-67330505D01*
X102810354Y-67307812D01*
X102327057Y-66824515D01*
X102293572Y-66763192D01*
X102298556Y-66693500D01*
X102340428Y-66637567D01*
X102405892Y-66613150D01*
X102414738Y-66612834D01*
X102776392Y-66612834D01*
X102843431Y-66632519D01*
X102845281Y-66633731D01*
X102851014Y-66637561D01*
X102851013Y-66637561D01*
X102851015Y-66637562D01*
X102910199Y-66649334D01*
X102910200Y-66649334D01*
X103725166Y-66649334D01*
X103725167Y-66649334D01*
X103784351Y-66637562D01*
X103851466Y-66592717D01*
X103896311Y-66525602D01*
X103908083Y-66466418D01*
X103908083Y-66326450D01*
X103896311Y-66267266D01*
X103895015Y-66265326D01*
X103893489Y-66260455D01*
X103891638Y-66255985D01*
X103892037Y-66255819D01*
X103874135Y-66198652D01*
X103892617Y-66131271D01*
X103894997Y-66127567D01*
X103896311Y-66125602D01*
X103908083Y-66066418D01*
X103908083Y-65926450D01*
X103896311Y-65867266D01*
X103895015Y-65865326D01*
X103893489Y-65860455D01*
X103891638Y-65855985D01*
X103892037Y-65855819D01*
X103874135Y-65798652D01*
X103892617Y-65731271D01*
X103894997Y-65727567D01*
X103896311Y-65725602D01*
X103908083Y-65666418D01*
X103908083Y-65526450D01*
X103896311Y-65467266D01*
X103851466Y-65400151D01*
X103784351Y-65355306D01*
X103725167Y-65343534D01*
X102910199Y-65343534D01*
X102890471Y-65347458D01*
X102851013Y-65355306D01*
X102845281Y-65359137D01*
X102824289Y-65365709D01*
X102805197Y-65376642D01*
X102779833Y-65379628D01*
X102778603Y-65380014D01*
X102777990Y-65379845D01*
X102776392Y-65380034D01*
X102274931Y-65380034D01*
X102207892Y-65360349D01*
X102187250Y-65343715D01*
X101033344Y-64189809D01*
X101001251Y-64134222D01*
X100972036Y-64025187D01*
X100912410Y-63921913D01*
X100828087Y-63837590D01*
X100776450Y-63807777D01*
X100724814Y-63777964D01*
X100631271Y-63752900D01*
X100609625Y-63747100D01*
X100490375Y-63747100D01*
X100375185Y-63777964D01*
X100271913Y-63837590D01*
X100271910Y-63837592D01*
X100212222Y-63897281D01*
X100150899Y-63930766D01*
X100124541Y-63933600D01*
X99225997Y-63933600D01*
X99158958Y-63913915D01*
X99138316Y-63897281D01*
X98954218Y-63713183D01*
X98939514Y-63686255D01*
X98922922Y-63660437D01*
X98922030Y-63654236D01*
X98920733Y-63651860D01*
X98917899Y-63625502D01*
X98917899Y-63405900D01*
X98937584Y-63338861D01*
X98990388Y-63293106D01*
X99041899Y-63281900D01*
X100729672Y-63281900D01*
X100796711Y-63301585D01*
X100817353Y-63318219D01*
X101654441Y-64155306D01*
X102489791Y-64990656D01*
X102517316Y-65002057D01*
X102573994Y-65025534D01*
X102573995Y-65025534D01*
X102665135Y-65025534D01*
X102797312Y-65025534D01*
X102830262Y-65032088D01*
X102838286Y-65032499D01*
X102840571Y-65034138D01*
X102844766Y-65034973D01*
X102851011Y-65037559D01*
X102851015Y-65037562D01*
X102910199Y-65049334D01*
X102910200Y-65049334D01*
X103725166Y-65049334D01*
X103725167Y-65049334D01*
X103784351Y-65037562D01*
X103851466Y-64992717D01*
X103896311Y-64925602D01*
X103908083Y-64866418D01*
X103908083Y-64726450D01*
X103896311Y-64667266D01*
X103895015Y-64665326D01*
X103893489Y-64660455D01*
X103891638Y-64655985D01*
X103892037Y-64655819D01*
X103874135Y-64598652D01*
X103892617Y-64531271D01*
X103894997Y-64527567D01*
X103896311Y-64525602D01*
X103908083Y-64466418D01*
X103908083Y-64326450D01*
X103896311Y-64267266D01*
X103895015Y-64265326D01*
X103893489Y-64260455D01*
X103891638Y-64255985D01*
X103892037Y-64255819D01*
X103874135Y-64198652D01*
X103892617Y-64131271D01*
X103894997Y-64127567D01*
X103896311Y-64125602D01*
X103908083Y-64066418D01*
X103908083Y-63883100D01*
X103791801Y-63766818D01*
X103791794Y-63766812D01*
X103791793Y-63766811D01*
X103752683Y-63750612D01*
X103735597Y-63743535D01*
X103735599Y-63743535D01*
X103735594Y-63743534D01*
X103735587Y-63743534D01*
X102918893Y-63743534D01*
X102889452Y-63734889D01*
X102859466Y-63728366D01*
X102854450Y-63724611D01*
X102851854Y-63723849D01*
X102831212Y-63707215D01*
X102728219Y-63604222D01*
X102694734Y-63542899D01*
X102691900Y-63516541D01*
X102691900Y-62585369D01*
X102711585Y-62518330D01*
X102764389Y-62472575D01*
X102830195Y-62462196D01*
X102836254Y-62462899D01*
X102836264Y-62462899D01*
X102836266Y-62462900D01*
X102836267Y-62462900D01*
X103203733Y-62462900D01*
X103203734Y-62462900D01*
X103228221Y-62460059D01*
X103328396Y-62415828D01*
X103405828Y-62338396D01*
X103450059Y-62238221D01*
X103452900Y-62213734D01*
X103452900Y-61786266D01*
X103450059Y-61761779D01*
X103449323Y-61760113D01*
X103417693Y-61688477D01*
X103405828Y-61661604D01*
X103328396Y-61584172D01*
X103328391Y-61584167D01*
X103326816Y-61583088D01*
X103324613Y-61580389D01*
X103321281Y-61577057D01*
X103315697Y-61574507D01*
X103300455Y-61550790D01*
X103282637Y-61528959D01*
X103280898Y-61520358D01*
X103277923Y-61515729D01*
X103272900Y-61480794D01*
X103272900Y-61369204D01*
X103292585Y-61302165D01*
X103326828Y-61266901D01*
X103328388Y-61265831D01*
X103328396Y-61265828D01*
X103405828Y-61188396D01*
X103450059Y-61088221D01*
X103452900Y-61063734D01*
X103452900Y-60636266D01*
X103450059Y-60611779D01*
X103448365Y-60607943D01*
X103415695Y-60533951D01*
X103405828Y-60511604D01*
X103328396Y-60434172D01*
X103328391Y-60434167D01*
X103326816Y-60433088D01*
X103324613Y-60430389D01*
X103321281Y-60427057D01*
X103315697Y-60424507D01*
X103300455Y-60400790D01*
X103282637Y-60378959D01*
X103280898Y-60370358D01*
X103277923Y-60365729D01*
X103272900Y-60330794D01*
X103272900Y-60248959D01*
X103292585Y-60181920D01*
X103309219Y-60161278D01*
X103333840Y-60136657D01*
X103372410Y-60098087D01*
X103432036Y-59994813D01*
X103462900Y-59879625D01*
X103462900Y-59760375D01*
X103432036Y-59645187D01*
X103372410Y-59541913D01*
X103288087Y-59457590D01*
X103202563Y-59408212D01*
X103184814Y-59397964D01*
X103125521Y-59382077D01*
X103069625Y-59367100D01*
X102950375Y-59367100D01*
X102835185Y-59397964D01*
X102731913Y-59457590D01*
X102731910Y-59457592D01*
X102647592Y-59541910D01*
X102647590Y-59541913D01*
X102587964Y-59645185D01*
X102570742Y-59709461D01*
X102557100Y-59760375D01*
X102557100Y-59879625D01*
X102569211Y-59924826D01*
X102587964Y-59994814D01*
X102607017Y-60027814D01*
X102647590Y-60098087D01*
X102647592Y-60098089D01*
X102730781Y-60181278D01*
X102745484Y-60208205D01*
X102762077Y-60234024D01*
X102762968Y-60240224D01*
X102764266Y-60242601D01*
X102767100Y-60268959D01*
X102767100Y-60330794D01*
X102747415Y-60397833D01*
X102713184Y-60433088D01*
X102711608Y-60434167D01*
X102634171Y-60511604D01*
X102629058Y-60523186D01*
X102583973Y-60576562D01*
X102517186Y-60597090D01*
X102515624Y-60597100D01*
X102284376Y-60597100D01*
X102217337Y-60577415D01*
X102171582Y-60524611D01*
X102170942Y-60523186D01*
X102165828Y-60511604D01*
X102088397Y-60434173D01*
X102088396Y-60434172D01*
X102088393Y-60434170D01*
X102088392Y-60434170D01*
X101988222Y-60389941D01*
X101963735Y-60387100D01*
X101963734Y-60387100D01*
X101596266Y-60387100D01*
X101596264Y-60387100D01*
X101571778Y-60389941D01*
X101571776Y-60389941D01*
X101471607Y-60434170D01*
X101471602Y-60434173D01*
X101387681Y-60518095D01*
X101326358Y-60551580D01*
X101256666Y-60546596D01*
X101212319Y-60518095D01*
X101128397Y-60434173D01*
X101128396Y-60434172D01*
X101128393Y-60434170D01*
X101128392Y-60434170D01*
X101028222Y-60389941D01*
X101003735Y-60387100D01*
X101003734Y-60387100D01*
X100636266Y-60387100D01*
X100636264Y-60387100D01*
X100611778Y-60389941D01*
X100611776Y-60389941D01*
X100511607Y-60434170D01*
X100511602Y-60434173D01*
X100434173Y-60511602D01*
X100434169Y-60511608D01*
X100424304Y-60533951D01*
X100379218Y-60587327D01*
X100312432Y-60607854D01*
X100245150Y-60589015D01*
X100198733Y-60536792D01*
X100197464Y-60534014D01*
X100186631Y-60509479D01*
X100110521Y-60433369D01*
X100095603Y-60426782D01*
X100012058Y-60389893D01*
X99987985Y-60387100D01*
X99987984Y-60387100D01*
X99632016Y-60387100D01*
X99632014Y-60387100D01*
X99607942Y-60389893D01*
X99607940Y-60389893D01*
X99509478Y-60433369D01*
X99433369Y-60509478D01*
X99389893Y-60607940D01*
X99389893Y-60607942D01*
X99387100Y-60632014D01*
X99387100Y-61087985D01*
X99389893Y-61112057D01*
X99389893Y-61112059D01*
X99433369Y-61210521D01*
X99439863Y-61220001D01*
X99437329Y-61221736D01*
X99462089Y-61267079D01*
X99457105Y-61336771D01*
X99425437Y-61379620D01*
X99427660Y-61381843D01*
X99337592Y-61471910D01*
X99337590Y-61471913D01*
X99277964Y-61575185D01*
X99247100Y-61690375D01*
X99247100Y-61809624D01*
X99277964Y-61924814D01*
X99307924Y-61976705D01*
X99333386Y-62020806D01*
X99341654Y-62035125D01*
X99339917Y-62036127D01*
X99361212Y-62091198D01*
X99347179Y-62159644D01*
X99325329Y-62189201D01*
X99324770Y-62189760D01*
X99290971Y-62240343D01*
X99290970Y-62240345D01*
X99282100Y-62284940D01*
X99282100Y-62284942D01*
X99282100Y-62284943D01*
X99282100Y-62519988D01*
X99282101Y-62699700D01*
X99279550Y-62708386D01*
X99280839Y-62717347D01*
X99269861Y-62741383D01*
X99262417Y-62766739D01*
X99255574Y-62772667D01*
X99251814Y-62780903D01*
X99229582Y-62795189D01*
X99209613Y-62812494D01*
X99199097Y-62814781D01*
X99193036Y-62818677D01*
X99158101Y-62823700D01*
X99041900Y-62823700D01*
X98974861Y-62804015D01*
X98929106Y-62751211D01*
X98917900Y-62699700D01*
X98917899Y-62284945D01*
X98917898Y-62284940D01*
X98909028Y-62240342D01*
X98875234Y-62189766D01*
X98875232Y-62189765D01*
X98870898Y-62183278D01*
X98865246Y-62165229D01*
X98855023Y-62149321D01*
X98850571Y-62118363D01*
X98850020Y-62116601D01*
X98850000Y-62114386D01*
X98850000Y-62082807D01*
X98866614Y-62020806D01*
X98919099Y-61929900D01*
X98922036Y-61924813D01*
X98952900Y-61809625D01*
X98952900Y-61690375D01*
X98922036Y-61575187D01*
X98921643Y-61574507D01*
X98869682Y-61484508D01*
X98866612Y-61479192D01*
X98850000Y-61417192D01*
X98850000Y-61150000D01*
X97594703Y-61150000D01*
X97527664Y-61130315D01*
X97481909Y-61077511D01*
X97471965Y-61008353D01*
X97500990Y-60944797D01*
X97532700Y-60918614D01*
X97578087Y-60892410D01*
X97662410Y-60808087D01*
X97722036Y-60704813D01*
X97752900Y-60589625D01*
X97752900Y-60470375D01*
X97722036Y-60355187D01*
X97662410Y-60251913D01*
X97578087Y-60167590D01*
X97500496Y-60122792D01*
X97474814Y-60107964D01*
X97370668Y-60080059D01*
X97359625Y-60077100D01*
X97240375Y-60077100D01*
X97125185Y-60107964D01*
X97021913Y-60167590D01*
X97021910Y-60167592D01*
X96937592Y-60251910D01*
X96937590Y-60251913D01*
X96877964Y-60355185D01*
X96856802Y-60434167D01*
X96847100Y-60470375D01*
X96847100Y-60589625D01*
X96862532Y-60647219D01*
X96877964Y-60704814D01*
X96892289Y-60729624D01*
X96937590Y-60808087D01*
X97021913Y-60892410D01*
X97067298Y-60918613D01*
X97115513Y-60969181D01*
X97128735Y-61037788D01*
X97102767Y-61102653D01*
X97045852Y-61143180D01*
X97005297Y-61150000D01*
X95620878Y-61150000D01*
X95553839Y-61130315D01*
X95508084Y-61077511D01*
X95498140Y-61008353D01*
X95527165Y-60944797D01*
X95533197Y-60938319D01*
X97132297Y-59339219D01*
X97193620Y-59305734D01*
X97219978Y-59302900D01*
X101499693Y-59302900D01*
X101499695Y-59302901D01*
X101600305Y-59302901D01*
X101638806Y-59286952D01*
X101693257Y-59264399D01*
X101764399Y-59193257D01*
X101764399Y-59193254D01*
X101776314Y-59181340D01*
X101776317Y-59181335D01*
X102717277Y-58240375D01*
X103947100Y-58240375D01*
X103947100Y-58359624D01*
X103977964Y-58474814D01*
X104003000Y-58518176D01*
X104037590Y-58578087D01*
X104121913Y-58662410D01*
X104225187Y-58722036D01*
X104340375Y-58752900D01*
X104340377Y-58752900D01*
X104459623Y-58752900D01*
X104459625Y-58752900D01*
X104574813Y-58722036D01*
X104678087Y-58662410D01*
X104762410Y-58578087D01*
X104822036Y-58474813D01*
X104852900Y-58359625D01*
X104852900Y-58240375D01*
X104822036Y-58125187D01*
X104762410Y-58021913D01*
X104678087Y-57937590D01*
X104626450Y-57907777D01*
X104574814Y-57877964D01*
X104488840Y-57854928D01*
X104459625Y-57847100D01*
X104340375Y-57847100D01*
X104225185Y-57877964D01*
X104121913Y-57937590D01*
X104121910Y-57937592D01*
X104037592Y-58021910D01*
X104037590Y-58021913D01*
X103977964Y-58125185D01*
X103947100Y-58240375D01*
X102717277Y-58240375D01*
X103970444Y-56987209D01*
X106307100Y-56987209D01*
X106307100Y-57132791D01*
X106344779Y-57273411D01*
X106344780Y-57273412D01*
X106344780Y-57273413D01*
X106417567Y-57399485D01*
X106417569Y-57399488D01*
X106417570Y-57399489D01*
X106520511Y-57502430D01*
X106646589Y-57575221D01*
X106787209Y-57612900D01*
X106787211Y-57612900D01*
X106932788Y-57612900D01*
X106932791Y-57612900D01*
X107073411Y-57575221D01*
X107199489Y-57502430D01*
X107302430Y-57399489D01*
X107375221Y-57273411D01*
X107412900Y-57132791D01*
X107412900Y-56987209D01*
X107375221Y-56846589D01*
X107330360Y-56768888D01*
X107302432Y-56720514D01*
X107302428Y-56720509D01*
X107199490Y-56617571D01*
X107199485Y-56617567D01*
X107073413Y-56544780D01*
X107073412Y-56544779D01*
X107073411Y-56544779D01*
X106932791Y-56507100D01*
X106787209Y-56507100D01*
X106646589Y-56544779D01*
X106646587Y-56544780D01*
X106646586Y-56544780D01*
X106520514Y-56617567D01*
X106520509Y-56617571D01*
X106417571Y-56720509D01*
X106417567Y-56720514D01*
X106344780Y-56846586D01*
X106344780Y-56846587D01*
X106344779Y-56846589D01*
X106307100Y-56987209D01*
X103970444Y-56987209D01*
X103993253Y-56964400D01*
X103993257Y-56964399D01*
X104064399Y-56893257D01*
X104086952Y-56838806D01*
X104102901Y-56800305D01*
X104102901Y-56699695D01*
X104102901Y-56689706D01*
X104102900Y-56689692D01*
X104102900Y-55327209D01*
X108877100Y-55327209D01*
X108877100Y-55472791D01*
X108914779Y-55613411D01*
X108914780Y-55613412D01*
X108914780Y-55613413D01*
X108987567Y-55739485D01*
X108987569Y-55739488D01*
X108987570Y-55739489D01*
X109090511Y-55842430D01*
X109090512Y-55842431D01*
X109090514Y-55842432D01*
X109124549Y-55862082D01*
X109216589Y-55915221D01*
X109357209Y-55952900D01*
X109357211Y-55952900D01*
X109502788Y-55952900D01*
X109502791Y-55952900D01*
X109643411Y-55915221D01*
X109769489Y-55842430D01*
X109872430Y-55739489D01*
X109945221Y-55613411D01*
X109977408Y-55493286D01*
X112527100Y-55493286D01*
X112527100Y-56506713D01*
X112542041Y-56601050D01*
X112542042Y-56601053D01*
X112542043Y-56601055D01*
X112599852Y-56714511D01*
X112599985Y-56714772D01*
X112599988Y-56714776D01*
X112690223Y-56805011D01*
X112690227Y-56805014D01*
X112690229Y-56805016D01*
X112803945Y-56862957D01*
X112803947Y-56862957D01*
X112803949Y-56862958D01*
X112898287Y-56877900D01*
X112898292Y-56877900D01*
X113461713Y-56877900D01*
X113556050Y-56862958D01*
X113556050Y-56862957D01*
X113556055Y-56862957D01*
X113669771Y-56805016D01*
X113760016Y-56714771D01*
X113817957Y-56601055D01*
X113820354Y-56585925D01*
X113832898Y-56506721D01*
X113832899Y-56506713D01*
X113832900Y-56506708D01*
X113832900Y-56506695D01*
X113833091Y-56504275D01*
X113833425Y-56503398D01*
X113833663Y-56501896D01*
X113833978Y-56501945D01*
X113857968Y-56438984D01*
X113914195Y-56397507D01*
X113983920Y-56393013D01*
X114044391Y-56426310D01*
X114060511Y-56442430D01*
X114060512Y-56442431D01*
X114060514Y-56442432D01*
X114104867Y-56468039D01*
X114186589Y-56515221D01*
X114327209Y-56552900D01*
X114327211Y-56552900D01*
X114472788Y-56552900D01*
X114472791Y-56552900D01*
X114613411Y-56515221D01*
X114739489Y-56442430D01*
X114842430Y-56339489D01*
X114915221Y-56213411D01*
X114952900Y-56072791D01*
X114952900Y-55927209D01*
X114915221Y-55786589D01*
X114871314Y-55710540D01*
X114842432Y-55660514D01*
X114842428Y-55660509D01*
X114739490Y-55557571D01*
X114739485Y-55557567D01*
X114613413Y-55484780D01*
X114613412Y-55484779D01*
X114613411Y-55484779D01*
X114472791Y-55447100D01*
X114327209Y-55447100D01*
X114186589Y-55484779D01*
X114186587Y-55484780D01*
X114186586Y-55484780D01*
X114060514Y-55557567D01*
X114060508Y-55557572D01*
X114044389Y-55573691D01*
X113983065Y-55607175D01*
X113913374Y-55602189D01*
X113857441Y-55560316D01*
X113833969Y-55498055D01*
X113833663Y-55498104D01*
X113833427Y-55496617D01*
X113833091Y-55495725D01*
X113832900Y-55493303D01*
X113832900Y-55493292D01*
X113832898Y-55493278D01*
X113817958Y-55398949D01*
X113817957Y-55398947D01*
X113817957Y-55398945D01*
X113760016Y-55285229D01*
X113760014Y-55285227D01*
X113760011Y-55285223D01*
X113669776Y-55194988D01*
X113669772Y-55194985D01*
X113669771Y-55194984D01*
X113556055Y-55137043D01*
X113556053Y-55137042D01*
X113556050Y-55137041D01*
X113461713Y-55122100D01*
X113461708Y-55122100D01*
X112898292Y-55122100D01*
X112898287Y-55122100D01*
X112803949Y-55137041D01*
X112690227Y-55194985D01*
X112690223Y-55194988D01*
X112599988Y-55285223D01*
X112599985Y-55285227D01*
X112586159Y-55312363D01*
X112548222Y-55386819D01*
X112542041Y-55398949D01*
X112527100Y-55493286D01*
X109977408Y-55493286D01*
X109982900Y-55472791D01*
X109982900Y-55327209D01*
X109945221Y-55186589D01*
X109896903Y-55102899D01*
X109872432Y-55060514D01*
X109872428Y-55060509D01*
X109769490Y-54957571D01*
X109769485Y-54957567D01*
X109643413Y-54884780D01*
X109643412Y-54884779D01*
X109643411Y-54884779D01*
X109502791Y-54847100D01*
X109357209Y-54847100D01*
X109216589Y-54884779D01*
X109216587Y-54884780D01*
X109216586Y-54884780D01*
X109090514Y-54957567D01*
X109090509Y-54957571D01*
X108987571Y-55060509D01*
X108987567Y-55060514D01*
X108914780Y-55186586D01*
X108914780Y-55186587D01*
X108914779Y-55186589D01*
X108877100Y-55327209D01*
X104102900Y-55327209D01*
X104102900Y-53970434D01*
X104122585Y-53903395D01*
X104175389Y-53857640D01*
X104226900Y-53846434D01*
X104473100Y-53846434D01*
X104481785Y-53848984D01*
X104490747Y-53847696D01*
X104514787Y-53858674D01*
X104540139Y-53866119D01*
X104546066Y-53872959D01*
X104554303Y-53876721D01*
X104568592Y-53898955D01*
X104585894Y-53918923D01*
X104588181Y-53929437D01*
X104592077Y-53935499D01*
X104597100Y-53970434D01*
X104597100Y-54211041D01*
X104577415Y-54278080D01*
X104560781Y-54298722D01*
X104487592Y-54371910D01*
X104487590Y-54371913D01*
X104427964Y-54475185D01*
X104406133Y-54556661D01*
X104397100Y-54590375D01*
X104397100Y-54709625D01*
X104397713Y-54711913D01*
X104427964Y-54824814D01*
X104442217Y-54849500D01*
X104487590Y-54928087D01*
X104571913Y-55012410D01*
X104675187Y-55072036D01*
X104790375Y-55102900D01*
X104790377Y-55102900D01*
X104909623Y-55102900D01*
X104909625Y-55102900D01*
X105024813Y-55072036D01*
X105128087Y-55012410D01*
X105212410Y-54928087D01*
X105272036Y-54824813D01*
X105302900Y-54709625D01*
X105302900Y-54590375D01*
X105272036Y-54475187D01*
X105266975Y-54466422D01*
X105233519Y-54408475D01*
X105212410Y-54371913D01*
X105139219Y-54298722D01*
X105124515Y-54271794D01*
X105107923Y-54245976D01*
X105107031Y-54239775D01*
X105105734Y-54237399D01*
X105102900Y-54211041D01*
X105102900Y-53970434D01*
X105122585Y-53903395D01*
X105175389Y-53857640D01*
X105226900Y-53846434D01*
X105996900Y-53846434D01*
X106063939Y-53866119D01*
X106109694Y-53918923D01*
X106120900Y-53970434D01*
X106120900Y-54118850D01*
X106101215Y-54185889D01*
X106077492Y-54211675D01*
X106077660Y-54211843D01*
X106073654Y-54215848D01*
X106072391Y-54217222D01*
X106071918Y-54217584D01*
X105987589Y-54301913D01*
X105927964Y-54405185D01*
X105927082Y-54408477D01*
X105897100Y-54520375D01*
X105897100Y-54639625D01*
X105909778Y-54686942D01*
X105927964Y-54754814D01*
X105950008Y-54792994D01*
X105987590Y-54858087D01*
X106071913Y-54942410D01*
X106175187Y-55002036D01*
X106290375Y-55032900D01*
X106290377Y-55032900D01*
X106409623Y-55032900D01*
X106409625Y-55032900D01*
X106524813Y-55002036D01*
X106628087Y-54942410D01*
X106712410Y-54858087D01*
X106772036Y-54754813D01*
X106802900Y-54639625D01*
X106802900Y-54520375D01*
X106772036Y-54405187D01*
X106712410Y-54301913D01*
X106628087Y-54217590D01*
X106628081Y-54217584D01*
X106627609Y-54217222D01*
X106627311Y-54216814D01*
X106624037Y-54213540D01*
X106621897Y-54212563D01*
X106604918Y-54186143D01*
X106586409Y-54160792D01*
X106585584Y-54156058D01*
X106584123Y-54153785D01*
X106579100Y-54118850D01*
X106579100Y-53970434D01*
X106598785Y-53903395D01*
X106651589Y-53857640D01*
X106703100Y-53846434D01*
X106905183Y-53846434D01*
X106900000Y-52700000D01*
X106899999Y-52700000D01*
X106751900Y-52700000D01*
X106684861Y-52680315D01*
X106639106Y-52627511D01*
X106627900Y-52576000D01*
X106627899Y-51760714D01*
X106630376Y-51752275D01*
X106629089Y-51743576D01*
X106640068Y-51719269D01*
X106647583Y-51693675D01*
X106654230Y-51687915D01*
X106657850Y-51679901D01*
X106680227Y-51665388D01*
X106700387Y-51647920D01*
X106710633Y-51645668D01*
X106716471Y-51641883D01*
X106751378Y-51636715D01*
X106913323Y-51636043D01*
X106980441Y-51655449D01*
G37*
%TD.AperFunction*%
%TD*%
M02*
