%TF.GenerationSoftware,KiCad,Pcbnew,9.0.4*%
%TF.CreationDate,2025-09-22T12:22:06+02:00*%
%TF.ProjectId,rp2350_gpio_card,72703233-3530-45f6-9770-696f5f636172,X1*%
%TF.SameCoordinates,Original*%
%TF.FileFunction,Profile,NP*%
%FSLAX46Y46*%
G04 Gerber Fmt 4.6, Leading zero omitted, Abs format (unit mm)*
G04 Created by KiCad (PCBNEW 9.0.4) date 2025-09-22 12:22:06*
%MOMM*%
%LPD*%
G01*
G04 APERTURE LIST*
%TA.AperFunction,Profile*%
%ADD10C,0.254000*%
%TD*%
G04 APERTURE END LIST*
D10*
X99000000Y-53122000D02*
X97900000Y-53122000D01*
X116600000Y-55100000D02*
X116600000Y-81600000D01*
X90600000Y-55100000D02*
X90600000Y-81600000D01*
X109300000Y-53076000D02*
X109300000Y-51600000D01*
X97900000Y-53122000D02*
X97900000Y-51600000D01*
X109300000Y-51600000D02*
X115600000Y-51600000D01*
X91600000Y-55100000D02*
X91600000Y-51600000D01*
X90600000Y-81600000D02*
X116600000Y-81600000D01*
X108200000Y-53076000D02*
X109300000Y-53076000D01*
X97900000Y-51600000D02*
X91600000Y-51600000D01*
X115600000Y-55100000D02*
X116600000Y-55100000D01*
X115600000Y-55100000D02*
X115600000Y-51600000D01*
X90600000Y-55100000D02*
X91600000Y-55100000D01*
%TO.C,P1*%
X99000000Y-51593000D02*
X99000000Y-53117000D01*
X99950000Y-50742000D02*
X99950000Y-51593000D01*
X99950000Y-51593000D02*
X99000000Y-51593000D01*
X107250000Y-50742000D02*
X99950000Y-50742000D01*
X107250000Y-51593000D02*
X107250000Y-50742000D01*
X108200000Y-51593000D02*
X107250000Y-51593000D01*
X108200000Y-53071000D02*
X108200000Y-51593000D01*
%TD*%
M02*
