M48
; DRILL file {KiCad 9.0.4} date 2025-08-29T17:47:37+0200
; FORMAT={-:-/ absolute / metric / decimal}
; #@! TF.CreationDate,2025-08-29T17:47:37+02:00
; #@! TF.GenerationSoftware,Kicad,Pcbnew,9.0.4
; #@! TF.FileFunction,Plated,1,2,PTH
FMAT,2
METRIC
; #@! TA.AperFunction,Plated,PTH,ComponentDrill
T1C0.250
; #@! TA.AperFunction,Plated,PTH,ViaDrill
T2C0.300
; #@! TA.AperFunction,Plated,PTH,ViaDrill
T3C0.400
%
G90
G05
T1
X105.38Y-65.421
X105.38Y-66.796
X105.38Y-68.171
X106.755Y-65.421
X106.755Y-66.796
X106.755Y-68.171
X108.13Y-65.421
X108.13Y-66.796
X108.13Y-68.171
T2
X97.413Y-52.718
X97.413Y-53.607
X98.302Y-52.718
X98.302Y-53.607
X108.78Y-52.718
X108.78Y-53.607
X109.732Y-52.718
X109.732Y-53.607
T3
X92.2Y-68.4
X93.1Y-76.4
X93.92Y-63.62
X97.63Y-57.546
X97.9Y-63.9
X98.005Y-69.996
X98.8Y-56.246
X99.0Y-63.4
X100.382Y-63.517
X100.836Y-61.644
X101.6Y-58.3
X102.13Y-70.996
X103.0Y-60.8
X103.2Y-57.9
X103.602Y-72.897
X104.755Y-60.7
X104.8Y-55.7
X105.4Y-57.7
X105.9Y-55.4
X106.005Y-59.996
X106.685Y-60.73
X108.756Y-71.816
X109.68Y-72.196
X110.1Y-61.5
X110.405Y-74.046
X110.555Y-72.771
X111.055Y-74.896
X111.5Y-66.3
X111.5Y-68.273
X112.7Y-65.1
X112.7Y-68.273
X113.18Y-57.596
X113.8Y-76.1
X115.294Y-67.562
M30
