%TF.GenerationSoftware,KiCad,Pcbnew,9.0.3*%
%TF.CreationDate,2025-08-08T17:20:16+03:00*%
%TF.ProjectId,rp2350_gpio_card,72703233-3530-45f6-9770-696f5f636172,X1*%
%TF.SameCoordinates,Original*%
%TF.FileFunction,Copper,L1,Top*%
%TF.FilePolarity,Positive*%
%FSLAX46Y46*%
G04 Gerber Fmt 4.6, Leading zero omitted, Abs format (unit mm)*
G04 Created by KiCad (PCBNEW 9.0.3) date 2025-08-08 17:20:16*
%MOMM*%
%LPD*%
G01*
G04 APERTURE LIST*
G04 Aperture macros list*
%AMRoundRect*
0 Rectangle with rounded corners*
0 $1 Rounding radius*
0 $2 $3 $4 $5 $6 $7 $8 $9 X,Y pos of 4 corners*
0 Add a 4 corners polygon primitive as box body*
4,1,4,$2,$3,$4,$5,$6,$7,$8,$9,$2,$3,0*
0 Add four circle primitives for the rounded corners*
1,1,$1+$1,$2,$3*
1,1,$1+$1,$4,$5*
1,1,$1+$1,$6,$7*
1,1,$1+$1,$8,$9*
0 Add four rect primitives between the rounded corners*
20,1,$1+$1,$2,$3,$4,$5,0*
20,1,$1+$1,$4,$5,$6,$7,0*
20,1,$1+$1,$6,$7,$8,$9,0*
20,1,$1+$1,$8,$9,$2,$3,0*%
%AMFreePoly0*
4,1,18,-0.437500,0.050000,-0.433694,0.069134,-0.422855,0.085355,-0.406634,0.096194,-0.387500,0.100000,0.387500,0.100000,0.437500,0.050000,0.437500,-0.050000,0.433694,-0.069134,0.422855,-0.085355,0.406634,-0.096194,0.387500,-0.100000,-0.387500,-0.100000,-0.406634,-0.096194,-0.422855,-0.085355,-0.433694,-0.069134,-0.437500,-0.050000,-0.437500,0.050000,-0.437500,0.050000,$1*%
%AMFreePoly1*
4,1,18,-0.437500,0.050000,-0.433694,0.069134,-0.422855,0.085355,-0.406634,0.096194,-0.387500,0.100000,0.387500,0.100000,0.406634,0.096194,0.422855,0.085355,0.433694,0.069134,0.437500,0.050000,0.437500,-0.050000,0.387500,-0.100000,-0.387500,-0.100000,-0.406634,-0.096194,-0.422855,-0.085355,-0.433694,-0.069134,-0.437500,-0.050000,-0.437500,0.050000,-0.437500,0.050000,$1*%
%AMFreePoly2*
4,1,18,-0.100000,0.387500,-0.050000,0.437500,0.050000,0.437500,0.069134,0.433694,0.085355,0.422855,0.096194,0.406634,0.100000,0.387500,0.100000,-0.387500,0.096194,-0.406634,0.085355,-0.422855,0.069134,-0.433694,0.050000,-0.437500,-0.050000,-0.437500,-0.069134,-0.433694,-0.085355,-0.422855,-0.096194,-0.406634,-0.100000,-0.387500,-0.100000,0.387500,-0.100000,0.387500,$1*%
%AMFreePoly3*
4,1,18,-0.100000,0.387500,-0.096194,0.406634,-0.085355,0.422855,-0.069134,0.433694,-0.050000,0.437500,0.050000,0.437500,0.100000,0.387500,0.100000,-0.387500,0.096194,-0.406634,0.085355,-0.422855,0.069134,-0.433694,0.050000,-0.437500,-0.050000,-0.437500,-0.069134,-0.433694,-0.085355,-0.422855,-0.096194,-0.406634,-0.100000,-0.387500,-0.100000,0.387500,-0.100000,0.387500,$1*%
%AMFreePoly4*
4,1,18,-0.437500,0.050000,-0.433694,0.069134,-0.422855,0.085355,-0.406634,0.096194,-0.387500,0.100000,0.387500,0.100000,0.406634,0.096194,0.422855,0.085355,0.433694,0.069134,0.437500,0.050000,0.437500,-0.050000,0.433694,-0.069134,0.422855,-0.085355,0.406634,-0.096194,0.387500,-0.100000,-0.387500,-0.100000,-0.437500,-0.050000,-0.437500,0.050000,-0.437500,0.050000,$1*%
%AMFreePoly5*
4,1,18,-0.437500,0.050000,-0.387500,0.100000,0.387500,0.100000,0.406634,0.096194,0.422855,0.085355,0.433694,0.069134,0.437500,0.050000,0.437500,-0.050000,0.433694,-0.069134,0.422855,-0.085355,0.406634,-0.096194,0.387500,-0.100000,-0.387500,-0.100000,-0.406634,-0.096194,-0.422855,-0.085355,-0.433694,-0.069134,-0.437500,-0.050000,-0.437500,0.050000,-0.437500,0.050000,$1*%
%AMFreePoly6*
4,1,18,-0.100000,0.387500,-0.096194,0.406634,-0.085355,0.422855,-0.069134,0.433694,-0.050000,0.437500,0.050000,0.437500,0.069134,0.433694,0.085355,0.422855,0.096194,0.406634,0.100000,0.387500,0.100000,-0.387500,0.050000,-0.437500,-0.050000,-0.437500,-0.069134,-0.433694,-0.085355,-0.422855,-0.096194,-0.406634,-0.100000,-0.387500,-0.100000,0.387500,-0.100000,0.387500,$1*%
%AMFreePoly7*
4,1,18,-0.100000,0.387500,-0.096194,0.406634,-0.085355,0.422855,-0.069134,0.433694,-0.050000,0.437500,0.050000,0.437500,0.069134,0.433694,0.085355,0.422855,0.096194,0.406634,0.100000,0.387500,0.100000,-0.387500,0.096194,-0.406634,0.085355,-0.422855,0.069134,-0.433694,0.050000,-0.437500,-0.050000,-0.437500,-0.100000,-0.387500,-0.100000,0.387500,-0.100000,0.387500,$1*%
G04 Aperture macros list end*
%TA.AperFunction,SMDPad,CuDef*%
%ADD10RoundRect,0.200000X0.200000X0.275000X-0.200000X0.275000X-0.200000X-0.275000X0.200000X-0.275000X0*%
%TD*%
%TA.AperFunction,SMDPad,CuDef*%
%ADD11R,0.380000X1.000000*%
%TD*%
%TA.AperFunction,SMDPad,CuDef*%
%ADD12R,0.700000X1.150000*%
%TD*%
%TA.AperFunction,SMDPad,CuDef*%
%ADD13R,1.500000X1.500000*%
%TD*%
%TA.AperFunction,SMDPad,CuDef*%
%ADD14RoundRect,0.135000X0.185000X-0.135000X0.185000X0.135000X-0.185000X0.135000X-0.185000X-0.135000X0*%
%TD*%
%TA.AperFunction,SMDPad,CuDef*%
%ADD15RoundRect,0.250000X0.475000X-0.250000X0.475000X0.250000X-0.475000X0.250000X-0.475000X-0.250000X0*%
%TD*%
%TA.AperFunction,SMDPad,CuDef*%
%ADD16RoundRect,0.135000X0.135000X0.185000X-0.135000X0.185000X-0.135000X-0.185000X0.135000X-0.185000X0*%
%TD*%
%TA.AperFunction,SMDPad,CuDef*%
%ADD17RoundRect,0.250000X0.450000X0.350000X-0.450000X0.350000X-0.450000X-0.350000X0.450000X-0.350000X0*%
%TD*%
%TA.AperFunction,SMDPad,CuDef*%
%ADD18R,0.530000X0.470000*%
%TD*%
%TA.AperFunction,SMDPad,CuDef*%
%ADD19RoundRect,0.140000X0.140000X0.170000X-0.140000X0.170000X-0.140000X-0.170000X0.140000X-0.170000X0*%
%TD*%
%TA.AperFunction,SMDPad,CuDef*%
%ADD20RoundRect,0.250000X-0.250000X-0.475000X0.250000X-0.475000X0.250000X0.475000X-0.250000X0.475000X0*%
%TD*%
%TA.AperFunction,SMDPad,CuDef*%
%ADD21RoundRect,0.140000X-0.140000X-0.170000X0.140000X-0.170000X0.140000X0.170000X-0.140000X0.170000X0*%
%TD*%
%TA.AperFunction,SMDPad,CuDef*%
%ADD22RoundRect,0.250000X-0.250000X1.000000X-0.250000X-1.000000X0.250000X-1.000000X0.250000X1.000000X0*%
%TD*%
%TA.AperFunction,SMDPad,CuDef*%
%ADD23RoundRect,0.140000X-0.170000X0.140000X-0.170000X-0.140000X0.170000X-0.140000X0.170000X0.140000X0*%
%TD*%
%TA.AperFunction,SMDPad,CuDef*%
%ADD24RoundRect,0.140000X0.170000X-0.140000X0.170000X0.140000X-0.170000X0.140000X-0.170000X-0.140000X0*%
%TD*%
%TA.AperFunction,SMDPad,CuDef*%
%ADD25RoundRect,0.135000X-0.135000X-0.185000X0.135000X-0.185000X0.135000X0.185000X-0.135000X0.185000X0*%
%TD*%
%TA.AperFunction,SMDPad,CuDef*%
%ADD26RoundRect,0.150000X-0.150000X0.512500X-0.150000X-0.512500X0.150000X-0.512500X0.150000X0.512500X0*%
%TD*%
%TA.AperFunction,SMDPad,CuDef*%
%ADD27RoundRect,0.135000X-0.185000X0.135000X-0.185000X-0.135000X0.185000X-0.135000X0.185000X0.135000X0*%
%TD*%
%TA.AperFunction,SMDPad,CuDef*%
%ADD28RoundRect,0.125000X0.125000X-0.250000X0.125000X0.250000X-0.125000X0.250000X-0.125000X-0.250000X0*%
%TD*%
%TA.AperFunction,HeatsinkPad*%
%ADD29R,4.300000X3.400000*%
%TD*%
%TA.AperFunction,SMDPad,CuDef*%
%ADD30FreePoly0,90.000000*%
%TD*%
%TA.AperFunction,SMDPad,CuDef*%
%ADD31RoundRect,0.050000X0.050000X-0.387500X0.050000X0.387500X-0.050000X0.387500X-0.050000X-0.387500X0*%
%TD*%
%TA.AperFunction,SMDPad,CuDef*%
%ADD32FreePoly1,90.000000*%
%TD*%
%TA.AperFunction,SMDPad,CuDef*%
%ADD33FreePoly2,90.000000*%
%TD*%
%TA.AperFunction,SMDPad,CuDef*%
%ADD34RoundRect,0.050000X0.387500X-0.050000X0.387500X0.050000X-0.387500X0.050000X-0.387500X-0.050000X0*%
%TD*%
%TA.AperFunction,SMDPad,CuDef*%
%ADD35FreePoly3,90.000000*%
%TD*%
%TA.AperFunction,SMDPad,CuDef*%
%ADD36FreePoly4,90.000000*%
%TD*%
%TA.AperFunction,SMDPad,CuDef*%
%ADD37FreePoly5,90.000000*%
%TD*%
%TA.AperFunction,SMDPad,CuDef*%
%ADD38FreePoly6,90.000000*%
%TD*%
%TA.AperFunction,SMDPad,CuDef*%
%ADD39FreePoly7,90.000000*%
%TD*%
%TA.AperFunction,ComponentPad*%
%ADD40C,0.600000*%
%TD*%
%TA.AperFunction,SMDPad,CuDef*%
%ADD41RoundRect,0.153000X1.547000X1.547000X-1.547000X1.547000X-1.547000X-1.547000X1.547000X-1.547000X0*%
%TD*%
%TA.AperFunction,SMDPad,CuDef*%
%ADD42R,1.700000X0.700000*%
%TD*%
%TA.AperFunction,ViaPad*%
%ADD43C,0.800000*%
%TD*%
%TA.AperFunction,ViaPad*%
%ADD44C,0.500000*%
%TD*%
%TA.AperFunction,Conductor*%
%ADD45C,0.152400*%
%TD*%
%TA.AperFunction,Conductor*%
%ADD46C,0.254000*%
%TD*%
%TA.AperFunction,Conductor*%
%ADD47C,0.200000*%
%TD*%
G04 APERTURE END LIST*
D10*
%TO.P,R4,1*%
%TO.N,Net-(P1-CC)*%
X98050000Y-60400000D03*
%TO.P,R4,2*%
%TO.N,GND*%
X96400000Y-60400000D03*
%TD*%
D11*
%TO.P,P1,A1,GND*%
%TO.N,GND*%
X98325000Y-57040000D03*
%TO.P,P1,A2*%
%TO.N,N/C*%
X98825000Y-57040000D03*
%TO.P,P1,A3*%
X99325000Y-57040000D03*
%TO.P,P1,A4,VBUS*%
%TO.N,VBUS*%
X99825000Y-57040000D03*
%TO.P,P1,A5,CC*%
%TO.N,Net-(P1-CC)*%
X100325000Y-57040000D03*
%TO.P,P1,A6,D+*%
%TO.N,/USB_D+*%
X100825000Y-57040000D03*
%TO.P,P1,A7,D-*%
%TO.N,/USB_D-*%
X101325000Y-57040000D03*
%TO.P,P1,A8*%
%TO.N,N/C*%
X101825000Y-57040000D03*
%TO.P,P1,A9,VBUS*%
%TO.N,VBUS*%
X102325000Y-57040000D03*
%TO.P,P1,A10*%
%TO.N,N/C*%
X102825000Y-57040000D03*
%TO.P,P1,A11*%
X103325000Y-57040000D03*
%TO.P,P1,A12,GND*%
%TO.N,GND*%
X103825000Y-57040000D03*
D12*
%TO.P,P1,S1,SHIELD*%
X97655000Y-57880000D03*
%TD*%
D13*
%TO.P,TP1,1,1*%
%TO.N,GND*%
X95375000Y-56000000D03*
%TD*%
%TO.P,TP2,1,1*%
%TO.N,GND*%
X106775000Y-56000000D03*
%TD*%
D14*
%TO.P,R8,1*%
%TO.N,/XOUT*%
X109975000Y-68260000D03*
%TO.P,R8,2*%
%TO.N,Net-(C16-Pad1)*%
X109975000Y-67240000D03*
%TD*%
D15*
%TO.P,C19,1*%
%TO.N,VBUS*%
X91575000Y-57900000D03*
%TO.P,C19,2*%
%TO.N,GND*%
X91575000Y-56000000D03*
%TD*%
D16*
%TO.P,R5,1*%
%TO.N,+3.3V*%
X93585000Y-68950000D03*
%TO.P,R5,2*%
%TO.N,/FLASH_SS*%
X92565000Y-68950000D03*
%TD*%
D17*
%TO.P,Y1,1,1*%
%TO.N,/XIN*%
X111755000Y-63580000D03*
%TO.P,Y1,2,2*%
%TO.N,GND*%
X109555000Y-63580000D03*
%TO.P,Y1,3,3*%
%TO.N,Net-(C16-Pad1)*%
X109555000Y-65280000D03*
%TO.P,Y1,4,4*%
%TO.N,GND*%
X111755000Y-65280000D03*
%TD*%
D18*
%TO.P,C1,1*%
%TO.N,+3.3V*%
X90225000Y-68365000D03*
%TO.P,C1,2*%
%TO.N,GND*%
X90225000Y-67335000D03*
%TD*%
D19*
%TO.P,C9,1*%
%TO.N,+3.3V*%
X100905000Y-64050000D03*
%TO.P,C9,2*%
%TO.N,GND*%
X99945000Y-64050000D03*
%TD*%
D20*
%TO.P,C2,1*%
%TO.N,+3.3V*%
X107375000Y-59600000D03*
%TO.P,C2,2*%
%TO.N,GND*%
X109275000Y-59600000D03*
%TD*%
D21*
%TO.P,C10,1*%
%TO.N,+3.3V*%
X105595000Y-64500000D03*
%TO.P,C10,2*%
%TO.N,GND*%
X106555000Y-64500000D03*
%TD*%
%TO.P,C17,1*%
%TO.N,+3.3V*%
X94795000Y-68950000D03*
%TO.P,C17,2*%
%TO.N,GND*%
X95755000Y-68950000D03*
%TD*%
D22*
%TO.P,J2,1,Pin_1*%
%TO.N,/RUN*%
X112505000Y-83050000D03*
%TO.P,J2,2,Pin_2*%
%TO.N,+3.3V*%
X109965000Y-83050000D03*
%TO.P,J2,3,Pin_3*%
%TO.N,/GPIO7*%
X107425000Y-83050000D03*
%TO.P,J2,4,Pin_4*%
%TO.N,/GPIO6*%
X104885000Y-83050000D03*
%TO.P,J2,5,Pin_5*%
%TO.N,/GPIO5*%
X102345000Y-83050000D03*
%TO.P,J2,6,Pin_6*%
%TO.N,/GPIO4*%
X99805000Y-83050000D03*
%TO.P,J2,7,Pin_7*%
%TO.N,/GPIO3*%
X97265000Y-83050000D03*
%TO.P,J2,8,Pin_8*%
%TO.N,/GPIO2*%
X94725000Y-83050000D03*
%TO.P,J2,9,Pin_9*%
%TO.N,/GPIO1*%
X92185000Y-83050000D03*
%TO.P,J2,10,Pin_10*%
%TO.N,/GPIO0*%
X89645000Y-83050000D03*
%TD*%
D23*
%TO.P,C8,1*%
%TO.N,+3.3V*%
X98750000Y-70070000D03*
%TO.P,C8,2*%
%TO.N,GND*%
X98750000Y-71030000D03*
%TD*%
D18*
%TO.P,C3,1*%
%TO.N,+1V1*%
X92865000Y-67865000D03*
%TO.P,C3,2*%
%TO.N,GND*%
X92865000Y-66835000D03*
%TD*%
D24*
%TO.P,C5,1*%
%TO.N,/VREG_AVDD*%
X95325000Y-64580000D03*
%TO.P,C5,2*%
%TO.N,GND*%
X95325000Y-63620000D03*
%TD*%
D25*
%TO.P,R3,1*%
%TO.N,/USB_D-*%
X97515000Y-67900000D03*
%TO.P,R3,2*%
%TO.N,Net-(U1-USB_DM)*%
X98535000Y-67900000D03*
%TD*%
D26*
%TO.P,U4,1,VIN*%
%TO.N,VBUS*%
X91587500Y-60062500D03*
%TO.P,U4,2,GND*%
%TO.N,GND*%
X90637500Y-60062500D03*
%TO.P,U4,3,EN*%
%TO.N,VBUS*%
X89687500Y-60062500D03*
%TO.P,U4,4,NC*%
%TO.N,unconnected-(U4-NC-Pad4)*%
X89687500Y-62337500D03*
%TO.P,U4,5,VOUT*%
%TO.N,+3.3V*%
X91587500Y-62337500D03*
%TD*%
D25*
%TO.P,R1,1*%
%TO.N,+3.3V*%
X92515000Y-64600000D03*
%TO.P,R1,2*%
%TO.N,/VREG_AVDD*%
X93535000Y-64600000D03*
%TD*%
D27*
%TO.P,R7,1*%
%TO.N,/GPIO0*%
X101525000Y-74840000D03*
%TO.P,R7,2*%
%TO.N,/FLASH_SS*%
X101525000Y-75860000D03*
%TD*%
D24*
%TO.P,C15,1*%
%TO.N,/XIN*%
X111755000Y-61380000D03*
%TO.P,C15,2*%
%TO.N,GND*%
X111755000Y-60420000D03*
%TD*%
D25*
%TO.P,R2,1*%
%TO.N,/USB_D+*%
X97515000Y-68950000D03*
%TO.P,R2,2*%
%TO.N,Net-(U1-USB_DP)*%
X98535000Y-68950000D03*
%TD*%
D15*
%TO.P,C21,1*%
%TO.N,+3.3V*%
X93525000Y-62300000D03*
%TO.P,C21,2*%
%TO.N,GND*%
X93525000Y-60400000D03*
%TD*%
D21*
%TO.P,C12,1*%
%TO.N,+3.3V*%
X111100000Y-70850000D03*
%TO.P,C12,2*%
%TO.N,GND*%
X112060000Y-70850000D03*
%TD*%
D24*
%TO.P,C4,1*%
%TO.N,+1V1*%
X107525000Y-63430000D03*
%TO.P,C4,2*%
%TO.N,GND*%
X107525000Y-62470000D03*
%TD*%
D28*
%TO.P,U2,1,~{CS}*%
%TO.N,/FLASH_SS*%
X93620000Y-75550000D03*
%TO.P,U2,2,DO/IO_{1}*%
%TO.N,/QSPI_SD1*%
X94890000Y-75550000D03*
%TO.P,U2,3,~{WP}/IO_{2}*%
%TO.N,/QSPI_SD2*%
X96160000Y-75550000D03*
%TO.P,U2,4,GND*%
%TO.N,GND*%
X97430000Y-75550000D03*
%TO.P,U2,5,DI/IO_{0}*%
%TO.N,/QSPI_SD0*%
X97430000Y-70150000D03*
%TO.P,U2,6,CLK*%
%TO.N,/QSPI_SCLK*%
X96160000Y-70150000D03*
%TO.P,U2,7,~{HOLD}/~{RESET}/IO_{3}*%
%TO.N,/QSPI_SD3*%
X94890000Y-70150000D03*
%TO.P,U2,8,VCC*%
%TO.N,+3.3V*%
X93620000Y-70150000D03*
D29*
%TO.P,U2,9,EP*%
%TO.N,GND*%
X95525000Y-72850000D03*
%TD*%
D24*
%TO.P,C6,1*%
%TO.N,+1V1*%
X106525000Y-63430000D03*
%TO.P,C6,2*%
%TO.N,GND*%
X106525000Y-62470000D03*
%TD*%
%TO.P,C7,1*%
%TO.N,+1V1*%
X105525000Y-63430000D03*
%TO.P,C7,2*%
%TO.N,GND*%
X105525000Y-62470000D03*
%TD*%
%TO.P,C13,1*%
%TO.N,+3.3V*%
X109975000Y-79030000D03*
%TO.P,C13,2*%
%TO.N,GND*%
X109975000Y-78070000D03*
%TD*%
D27*
%TO.P,R6,1*%
%TO.N,/QSPI_SS*%
X99475000Y-74890000D03*
%TO.P,R6,2*%
%TO.N,/FLASH_SS*%
X99475000Y-75910000D03*
%TD*%
D19*
%TO.P,C14,1*%
%TO.N,+3.3V*%
X101555000Y-62900000D03*
%TO.P,C14,2*%
%TO.N,GND*%
X100595000Y-62900000D03*
%TD*%
D21*
%TO.P,C16,1*%
%TO.N,Net-(C16-Pad1)*%
X110925000Y-66810000D03*
%TO.P,C16,2*%
%TO.N,GND*%
X111885000Y-66810000D03*
%TD*%
D30*
%TO.P,U1,1,IOVDD*%
%TO.N,+3.3V*%
X101475000Y-73087500D03*
D31*
%TO.P,U1,2,GPIO0*%
%TO.N,/GPIO0*%
X101875000Y-73087500D03*
%TO.P,U1,3,GPIO1*%
%TO.N,/GPIO1*%
X102275000Y-73087500D03*
%TO.P,U1,4,GPIO2*%
%TO.N,/GPIO2*%
X102675000Y-73087500D03*
%TO.P,U1,5,GPIO3*%
%TO.N,/GPIO3*%
X103075000Y-73087500D03*
%TO.P,U1,6,DVDD*%
%TO.N,+1V1*%
X103475000Y-73087500D03*
%TO.P,U1,7,GPIO4*%
%TO.N,/GPIO4*%
X103875000Y-73087500D03*
%TO.P,U1,8,GPIO5*%
%TO.N,/GPIO5*%
X104275000Y-73087500D03*
%TO.P,U1,9,GPIO6*%
%TO.N,/GPIO6*%
X104675000Y-73087500D03*
%TO.P,U1,10,GPIO7*%
%TO.N,/GPIO7*%
X105075000Y-73087500D03*
%TO.P,U1,11,IOVDD*%
%TO.N,+3.3V*%
X105475000Y-73087500D03*
%TO.P,U1,12,GPIO8*%
%TO.N,/GPIO8*%
X105875000Y-73087500D03*
%TO.P,U1,13,GPIO9*%
%TO.N,/GPIO9*%
X106275000Y-73087500D03*
%TO.P,U1,14,GPIO10*%
%TO.N,/GPIO10*%
X106675000Y-73087500D03*
D32*
%TO.P,U1,15,GPIO11*%
%TO.N,/GPIO11*%
X107075000Y-73087500D03*
D33*
%TO.P,U1,16,GPIO12*%
%TO.N,/GPIO12*%
X107712500Y-72450000D03*
D34*
%TO.P,U1,17,GPIO13*%
%TO.N,/GPIO13*%
X107712500Y-72050000D03*
%TO.P,U1,18,GPIO14*%
%TO.N,/GPIO14*%
X107712500Y-71650000D03*
%TO.P,U1,19,GPIO15*%
%TO.N,/GPIO15*%
X107712500Y-71250000D03*
%TO.P,U1,20,IOVDD*%
%TO.N,+3.3V*%
X107712500Y-70850000D03*
%TO.P,U1,21,XIN*%
%TO.N,/XIN*%
X107712500Y-70450000D03*
%TO.P,U1,22,XOUT*%
%TO.N,/XOUT*%
X107712500Y-70050000D03*
%TO.P,U1,23,DVDD*%
%TO.N,+1V1*%
X107712500Y-69650000D03*
%TO.P,U1,24,SWCLK*%
%TO.N,/SWCLK*%
X107712500Y-69250000D03*
%TO.P,U1,25,SWD*%
%TO.N,/SWD*%
X107712500Y-68850000D03*
%TO.P,U1,26,RUN*%
%TO.N,/RUN*%
X107712500Y-68450000D03*
%TO.P,U1,27,GPIO16*%
%TO.N,/GPIO16*%
X107712500Y-68050000D03*
%TO.P,U1,28,GPIO17*%
%TO.N,/GPIO17*%
X107712500Y-67650000D03*
%TO.P,U1,29,GPIO18*%
%TO.N,/GPIO18*%
X107712500Y-67250000D03*
D35*
%TO.P,U1,30,IOVDD*%
%TO.N,+3.3V*%
X107712500Y-66850000D03*
D36*
%TO.P,U1,31,GPIO19*%
%TO.N,/GPIO19*%
X107075000Y-66212500D03*
D31*
%TO.P,U1,32,GPIO20*%
%TO.N,/GPIO20*%
X106675000Y-66212500D03*
%TO.P,U1,33,GPIO21*%
%TO.N,/GPIO21*%
X106275000Y-66212500D03*
%TO.P,U1,34,GPIO22*%
%TO.N,/GPIO22*%
X105875000Y-66212500D03*
%TO.P,U1,35,GPIO23*%
%TO.N,/GPIO23*%
X105475000Y-66212500D03*
%TO.P,U1,36,GPIO24*%
%TO.N,/GPIO24*%
X105075000Y-66212500D03*
%TO.P,U1,37,GPIO25*%
%TO.N,/GPIO25*%
X104675000Y-66212500D03*
%TO.P,U1,38,IOVDD*%
%TO.N,+3.3V*%
X104275000Y-66212500D03*
%TO.P,U1,39,DVDD*%
%TO.N,+1V1*%
X103875000Y-66212500D03*
%TO.P,U1,40,GPIO26_ADC0*%
%TO.N,/GPIO26_ADC0*%
X103475000Y-66212500D03*
%TO.P,U1,41,GPIO27_ADC1*%
%TO.N,/GPIO27_ADC1*%
X103075000Y-66212500D03*
%TO.P,U1,42,GPIO28_ADC2*%
%TO.N,/GPIO28_ADC2*%
X102675000Y-66212500D03*
%TO.P,U1,43,GPIO29_ADC3*%
%TO.N,/GPIO29_ADC3*%
X102275000Y-66212500D03*
%TO.P,U1,44,ADC_AVDD*%
%TO.N,+3.3V*%
X101875000Y-66212500D03*
D37*
%TO.P,U1,45,IOVDD*%
X101475000Y-66212500D03*
D38*
%TO.P,U1,46,VREG_AVDD*%
%TO.N,/VREG_AVDD*%
X100837500Y-66850000D03*
D34*
%TO.P,U1,47,VREG_PGND*%
%TO.N,GND*%
X100837500Y-67250000D03*
%TO.P,U1,48,VREG_LX*%
%TO.N,/VREG_LX*%
X100837500Y-67650000D03*
%TO.P,U1,49,VREG_VIN*%
%TO.N,+3.3V*%
X100837500Y-68050000D03*
%TO.P,U1,50,VREG_FB*%
%TO.N,+1V1*%
X100837500Y-68450000D03*
%TO.P,U1,51,USB_DM*%
%TO.N,Net-(U1-USB_DM)*%
X100837500Y-68850000D03*
%TO.P,U1,52,USB_DP*%
%TO.N,Net-(U1-USB_DP)*%
X100837500Y-69250000D03*
%TO.P,U1,53,USB_OTP_VDD*%
%TO.N,+3.3V*%
X100837500Y-69650000D03*
%TO.P,U1,54,QSPI_IOVDD*%
X100837500Y-70050000D03*
%TO.P,U1,55,QSPI_SD3*%
%TO.N,/QSPI_SD3*%
X100837500Y-70450000D03*
%TO.P,U1,56,QSPI_SCLK*%
%TO.N,/QSPI_SCLK*%
X100837500Y-70850000D03*
%TO.P,U1,57,QSPI_SD0*%
%TO.N,/QSPI_SD0*%
X100837500Y-71250000D03*
%TO.P,U1,58,QSPI_SD2*%
%TO.N,/QSPI_SD2*%
X100837500Y-71650000D03*
%TO.P,U1,59,QSPI_SD1*%
%TO.N,/QSPI_SD1*%
X100837500Y-72050000D03*
D39*
%TO.P,U1,60,QSPI_SS*%
%TO.N,/QSPI_SS*%
X100837500Y-72450000D03*
D40*
%TO.P,U1,61,GND*%
%TO.N,GND*%
X102900000Y-71025000D03*
X104275000Y-71025000D03*
X105650000Y-71025000D03*
X102900000Y-69650000D03*
X104275000Y-69650000D03*
D41*
X104275000Y-69650000D03*
D40*
X105650000Y-69650000D03*
X102900000Y-68275000D03*
X104275000Y-68275000D03*
X105650000Y-68275000D03*
%TD*%
D42*
%TO.P,L1,1,1*%
%TO.N,+1V1*%
X95045000Y-67860000D03*
%TO.P,L1,2,2*%
%TO.N,/VREG_LX*%
X95045000Y-66460000D03*
%TD*%
D43*
%TO.N,/GPIO27_ADC1*%
X104204845Y-63583359D03*
%TO.N,/GPIO29_ADC3*%
X102275000Y-64050000D03*
%TO.N,/GPIO11*%
X108075000Y-75625000D03*
%TO.N,/QSPI_SS*%
X99650000Y-73850000D03*
%TO.N,/RUN*%
X109150000Y-69373800D03*
X109152644Y-71526200D03*
%TO.N,/GPIO10*%
X107200000Y-75050000D03*
%TO.N,/GPIO9*%
X106275319Y-74669249D03*
%TO.N,/GPIO28_ADC2*%
X103525000Y-62850000D03*
%TO.N,/GPIO0*%
X90925000Y-78725000D03*
X100525000Y-75900000D03*
%TO.N,/USB_D+*%
X96694071Y-67168696D03*
X99875000Y-61350000D03*
%TO.N,/USB_D-*%
X99228146Y-62953146D03*
X97525000Y-66350000D03*
%TO.N,/GPIO13*%
X108575000Y-77750000D03*
%TO.N,/GPIO12*%
X107925000Y-76900000D03*
D44*
%TO.N,GND*%
X94933000Y-55571500D03*
X94933000Y-56460500D03*
X107252000Y-55571500D03*
X107252000Y-56460500D03*
D43*
X113050000Y-70850000D03*
X95350000Y-62600000D03*
D44*
X95822000Y-56460500D03*
D43*
X110700000Y-60450000D03*
X90200000Y-66100000D03*
D44*
X106299500Y-55571500D03*
X95822000Y-55571500D03*
X106299500Y-56460500D03*
D43*
X99688833Y-70983000D03*
X95150000Y-60400000D03*
%TD*%
D45*
%TO.N,+1V1*%
X105525000Y-63430000D02*
X106525000Y-63430000D01*
X103875000Y-65100216D02*
X105525000Y-63450217D01*
X103875000Y-66212500D02*
X103875000Y-65100216D01*
X95095000Y-67810000D02*
X95045000Y-67860000D01*
X105525000Y-63450217D02*
X105525000Y-63430000D01*
X95040000Y-67865000D02*
X95045000Y-67860000D01*
X92865000Y-67865000D02*
X95040000Y-67865000D01*
X106525000Y-63430000D02*
X107525000Y-63430000D01*
D46*
%TO.N,VBUS*%
X99210000Y-59100000D02*
X99820000Y-58490000D01*
D45*
X89687500Y-60862500D02*
X90075000Y-61250000D01*
X91587500Y-60062500D02*
X91587500Y-57912500D01*
D46*
X92550000Y-59100000D02*
X99210000Y-59100000D01*
X91587500Y-60062500D02*
X92550000Y-59100000D01*
X99820000Y-58490000D02*
X99820000Y-57780000D01*
D45*
X91587500Y-60887500D02*
X91587500Y-60062500D01*
X99825000Y-57040000D02*
X99825000Y-57775000D01*
X91587500Y-57912500D02*
X91575000Y-57900000D01*
D46*
X99820000Y-57780000D02*
X99825000Y-57775000D01*
D45*
X91225000Y-61250000D02*
X91587500Y-60887500D01*
X89687500Y-60062500D02*
X89687500Y-60862500D01*
X90075000Y-61250000D02*
X91225000Y-61250000D01*
%TO.N,/VREG_AVDD*%
X95325000Y-64580000D02*
X93555000Y-64580000D01*
X100837500Y-66850000D02*
X100250000Y-66850000D01*
X93555000Y-64580000D02*
X93535000Y-64600000D01*
X100250000Y-66850000D02*
X97980000Y-64580000D01*
X97980000Y-64580000D02*
X95325000Y-64580000D01*
%TO.N,/XIN*%
X107362500Y-70450000D02*
X109615000Y-70450000D01*
X113205000Y-66860000D02*
X113205000Y-65030000D01*
X113205000Y-65030000D02*
X111755000Y-63580000D01*
X111755000Y-63580000D02*
X111755000Y-61380000D01*
X109615000Y-70450000D02*
X113205000Y-66860000D01*
%TO.N,Net-(C16-Pad1)*%
X109555000Y-65280000D02*
X109555000Y-66820000D01*
X110925000Y-66810000D02*
X109555000Y-65440000D01*
X109555000Y-65440000D02*
X109555000Y-65280000D01*
X109545000Y-65290000D02*
X109555000Y-65280000D01*
X109555000Y-66820000D02*
X109975000Y-67240000D01*
%TO.N,+3.3V*%
X105595000Y-64500000D02*
X104975000Y-64500000D01*
X101555000Y-61320000D02*
X101555000Y-62900000D01*
X98925000Y-70070000D02*
X99345000Y-69650000D01*
X99345000Y-69650000D02*
X100837500Y-69650000D01*
D47*
X105475000Y-76375000D02*
X109965000Y-80865000D01*
D45*
X105475000Y-73087500D02*
X105452200Y-73110300D01*
X91625000Y-62300000D02*
X91587500Y-62337500D01*
D46*
X93525000Y-62300000D02*
X91625000Y-62300000D01*
D45*
X104275000Y-65200000D02*
X104275000Y-66212500D01*
X101875000Y-65300000D02*
X101555000Y-64980000D01*
D47*
X105475000Y-73087500D02*
X105475000Y-76375000D01*
D45*
X109965000Y-79040000D02*
X109975000Y-79030000D01*
X101475000Y-65400000D02*
X100905000Y-64830000D01*
X93620000Y-70150000D02*
X93620000Y-68985000D01*
X107712500Y-70850000D02*
X111100000Y-70850000D01*
X93620000Y-68985000D02*
X93585000Y-68950000D01*
X100905000Y-64830000D02*
X100905000Y-64050000D01*
X94795000Y-68950000D02*
X93585000Y-68950000D01*
X104975000Y-64500000D02*
X104275000Y-65200000D01*
X98945000Y-70050000D02*
X98925000Y-70070000D01*
X100837500Y-70050000D02*
X98945000Y-70050000D01*
X103275000Y-59600000D02*
X101555000Y-61320000D01*
X101555000Y-64980000D02*
X101555000Y-62900000D01*
X101875000Y-66212500D02*
X101875000Y-65300000D01*
D47*
X109965000Y-83050000D02*
X109965000Y-79040000D01*
D45*
X101475000Y-66212500D02*
X101475000Y-65400000D01*
X107375000Y-59600000D02*
X103275000Y-59600000D01*
%TO.N,/GPIO27_ADC1*%
X104204845Y-63583359D02*
X104201200Y-63587004D01*
X103075000Y-65350000D02*
X103075000Y-66212500D01*
X104201200Y-63587004D02*
X104201200Y-64223800D01*
X104201200Y-64223800D02*
X103075000Y-65350000D01*
%TO.N,/GPIO29_ADC3*%
X102275000Y-64050000D02*
X102275000Y-66212500D01*
%TO.N,/GPIO11*%
X108075000Y-74625000D02*
X107075000Y-73625000D01*
X108075000Y-75625000D02*
X108075000Y-74625000D01*
X108075000Y-75625000D02*
X108100000Y-75600000D01*
X107075000Y-73625000D02*
X107075000Y-73087500D01*
%TO.N,/QSPI_SS*%
X100075000Y-72450000D02*
X99650000Y-72875000D01*
X99650000Y-73850000D02*
X99650000Y-74715000D01*
X99650000Y-74715000D02*
X99475000Y-74890000D01*
X99650000Y-72875000D02*
X99650000Y-73850000D01*
X100837500Y-72450000D02*
X100075000Y-72450000D01*
%TO.N,/RUN*%
X108800000Y-68450000D02*
X107712500Y-68450000D01*
X110078400Y-76578400D02*
X112505000Y-79005000D01*
X112505000Y-79005000D02*
X112505000Y-83050000D01*
X110078400Y-73078833D02*
X110078400Y-76578400D01*
X109152644Y-72153078D02*
X110078400Y-73078833D01*
X109150000Y-69373800D02*
X109150000Y-68800000D01*
X109152644Y-71526200D02*
X109152644Y-72153078D01*
X109150000Y-68800000D02*
X108800000Y-68450000D01*
%TO.N,/GPIO10*%
X107200000Y-74249784D02*
X106675000Y-73724784D01*
X106675000Y-73724784D02*
X106675000Y-73087500D01*
X107200000Y-75050000D02*
X107200000Y-74249784D01*
%TO.N,/GPIO9*%
X106275319Y-74669249D02*
X106275000Y-74668930D01*
X106275000Y-74668930D02*
X106275000Y-73087500D01*
%TO.N,/GPIO28_ADC2*%
X103525000Y-64350000D02*
X102675000Y-65200000D01*
X102675000Y-65200000D02*
X102675000Y-66212500D01*
X103525000Y-62850000D02*
X103525000Y-64350000D01*
%TO.N,/GPIO2*%
X100517768Y-78656800D02*
X95825000Y-78656800D01*
X102675000Y-73087500D02*
X102675000Y-76499568D01*
X102675000Y-76499568D02*
X100517768Y-78656800D01*
X95825000Y-78656800D02*
X94725000Y-79756800D01*
X94725000Y-79756800D02*
X94725000Y-83050000D01*
%TO.N,/GPIO1*%
X92185000Y-79560000D02*
X92185000Y-83050000D01*
X102275000Y-76399784D02*
X100371384Y-78303400D01*
X102275000Y-73087500D02*
X102275000Y-76399784D01*
X100371384Y-78303400D02*
X93421600Y-78303400D01*
X92175000Y-79550000D02*
X92185000Y-79560000D01*
X93421600Y-78303400D02*
X92175000Y-79550000D01*
%TO.N,/GPIO5*%
X104275000Y-76699784D02*
X102345000Y-78629784D01*
X104275000Y-73087500D02*
X104275000Y-76699784D01*
X102345000Y-78629784D02*
X102345000Y-83050000D01*
%TO.N,/GPIO4*%
X103875000Y-76425000D02*
X99805000Y-80495000D01*
X103875000Y-73087500D02*
X103875000Y-76425000D01*
X99805000Y-80495000D02*
X99805000Y-83050000D01*
%TO.N,/GPIO6*%
X104675000Y-73087500D02*
X104675000Y-82840000D01*
X104675000Y-82840000D02*
X104885000Y-83050000D01*
%TO.N,/GPIO0*%
X101025000Y-74900000D02*
X101525000Y-74900000D01*
X90925000Y-78725000D02*
X89645000Y-80005000D01*
X101875000Y-74490000D02*
X101875000Y-73087500D01*
X101525000Y-74840000D02*
X101875000Y-74490000D01*
X100540000Y-75385000D02*
X101025000Y-74900000D01*
X100540000Y-75885000D02*
X100540000Y-75385000D01*
X89645000Y-80005000D02*
X89645000Y-83050000D01*
%TO.N,/GPIO3*%
X97265000Y-79920200D02*
X97265000Y-83050000D01*
X100664152Y-79010200D02*
X98175000Y-79010200D01*
X98175000Y-79010200D02*
X97265000Y-79920200D01*
X103075000Y-76599351D02*
X100664152Y-79010200D01*
X103075000Y-73087500D02*
X103075000Y-76599351D01*
%TO.N,/GPIO7*%
X107425000Y-79600000D02*
X107425000Y-83050000D01*
X105075000Y-77250000D02*
X107425000Y-79600000D01*
X105075000Y-73087500D02*
X105075000Y-77250000D01*
%TO.N,/VREG_LX*%
X95045000Y-66460000D02*
X96105000Y-65400000D01*
X97550000Y-65400000D02*
X99800000Y-67650000D01*
X96105000Y-65400000D02*
X97550000Y-65400000D01*
X99800000Y-67650000D02*
X100837500Y-67650000D01*
%TO.N,Net-(P1-CC)*%
X100325000Y-59425000D02*
X100325000Y-57040000D01*
X98050000Y-60400000D02*
X99350000Y-60400000D01*
X99350000Y-60400000D02*
X100325000Y-59425000D01*
D47*
%TO.N,/USB_D+*%
X97515000Y-68950000D02*
X96694071Y-68129071D01*
X100825000Y-60400000D02*
X100825000Y-57825000D01*
X99875000Y-61350000D02*
X100825000Y-60400000D01*
D45*
X100825000Y-57040000D02*
X100825000Y-57825000D01*
D47*
X96694071Y-68129071D02*
X96694071Y-67168696D01*
D45*
%TO.N,/USB_D-*%
X101325000Y-57040000D02*
X101325000Y-57815000D01*
D47*
X97515000Y-67900000D02*
X97515000Y-66360000D01*
X101325000Y-60856292D02*
X101325000Y-57815000D01*
X99228146Y-62953146D02*
X101325000Y-60856292D01*
D45*
X97515000Y-66360000D02*
X97525000Y-66350000D01*
D47*
%TO.N,Net-(U1-USB_DP)*%
X100837500Y-69250000D02*
X99525000Y-69250000D01*
X99225000Y-68950000D02*
X98535000Y-68950000D01*
X99525000Y-69250000D02*
X99225000Y-68950000D01*
%TO.N,Net-(U1-USB_DM)*%
X99725000Y-68850000D02*
X98775000Y-67900000D01*
X100837500Y-68850000D02*
X99725000Y-68850000D01*
D45*
X98775000Y-67900000D02*
X98535000Y-67900000D01*
%TO.N,/FLASH_SS*%
X98621383Y-77503400D02*
X94928400Y-77503400D01*
X99475000Y-76649783D02*
X98621383Y-77503400D01*
X94278400Y-77503400D02*
X93620000Y-76845000D01*
X94075000Y-76650000D02*
X94075000Y-76005000D01*
X94075000Y-76005000D02*
X93620000Y-75550000D01*
X94725000Y-77950000D02*
X100225000Y-77950000D01*
X100225000Y-77950000D02*
X101525000Y-76650000D01*
X94278400Y-77503400D02*
X94725000Y-77950000D01*
X99475000Y-75910000D02*
X99475000Y-76649783D01*
X92565000Y-74495000D02*
X93620000Y-75550000D01*
X94928400Y-77503400D02*
X94075000Y-76650000D01*
X101525000Y-76650000D02*
X101525000Y-75860000D01*
X92565000Y-68950000D02*
X92565000Y-74495000D01*
X93620000Y-76845000D02*
X93620000Y-75550000D01*
%TO.N,/XOUT*%
X107362500Y-70050000D02*
X109515216Y-70050000D01*
X110250000Y-68535000D02*
X109975000Y-68260000D01*
X110250000Y-69315216D02*
X110250000Y-68535000D01*
X109515216Y-70050000D02*
X110250000Y-69315216D01*
%TO.N,/QSPI_SD1*%
X100837500Y-72050000D02*
X99936220Y-72050000D01*
X99936220Y-72050000D02*
X98878400Y-73107820D01*
X94890000Y-76815000D02*
X94890000Y-75550000D01*
X98475000Y-77150000D02*
X95225000Y-77150000D01*
X98878400Y-73107820D02*
X98878400Y-76746600D01*
X98878400Y-76746600D02*
X98475000Y-77150000D01*
X95225000Y-77150000D02*
X94890000Y-76815000D01*
%TO.N,/GPIO13*%
X107712500Y-72050000D02*
X108549783Y-72050000D01*
X109725000Y-77306200D02*
X109281200Y-77750000D01*
X109725000Y-73225216D02*
X109725000Y-77306200D01*
X109281200Y-77750000D02*
X108575000Y-77750000D01*
X108549783Y-72050000D02*
X109725000Y-73225216D01*
%TO.N,/GPIO12*%
X108925000Y-76900000D02*
X109371600Y-76453400D01*
X108450000Y-72450000D02*
X107712500Y-72450000D01*
X109371600Y-76453400D02*
X109371600Y-73371600D01*
X107925000Y-76900000D02*
X108925000Y-76900000D01*
X109371600Y-73371600D02*
X108450000Y-72450000D01*
%TO.N,/QSPI_SD2*%
X98525000Y-72925000D02*
X98525000Y-76350000D01*
X98525000Y-76350000D02*
X98078400Y-76796600D01*
X96471600Y-76796600D02*
X96160000Y-76485000D01*
X98078400Y-76796600D02*
X96471600Y-76796600D01*
X99800000Y-71650000D02*
X98525000Y-72925000D01*
X100837500Y-71650000D02*
X99800000Y-71650000D01*
X96160000Y-76485000D02*
X96160000Y-75550000D01*
%TO.N,GND*%
X93525000Y-60400000D02*
X95150000Y-60400000D01*
X110730000Y-60420000D02*
X110700000Y-60450000D01*
X99945000Y-64050000D02*
X98550000Y-64050000D01*
X98550000Y-64050000D02*
X97050000Y-62550000D01*
X92835000Y-66835000D02*
X92100000Y-66100000D01*
X111755000Y-65280000D02*
X110055000Y-63580000D01*
X92100000Y-66100000D02*
X90200000Y-66100000D01*
X106525000Y-62470000D02*
X107525000Y-62470000D01*
X92865000Y-66835000D02*
X92835000Y-66835000D01*
X107525000Y-62470000D02*
X108445000Y-62470000D01*
X90637500Y-60062500D02*
X90500000Y-59925000D01*
X97050000Y-62550000D02*
X95400000Y-62550000D01*
X109555000Y-63580000D02*
X109555000Y-61595000D01*
X111885000Y-65410000D02*
X111755000Y-65280000D01*
X96230000Y-57880000D02*
X95822000Y-57472000D01*
X111885000Y-66810000D02*
X111885000Y-65410000D01*
X110700000Y-60100000D02*
X110700000Y-60450000D01*
X109275000Y-59600000D02*
X110200000Y-59600000D01*
X95325000Y-62625000D02*
X95350000Y-62600000D01*
X95400000Y-62550000D02*
X95350000Y-62600000D01*
X90225000Y-67335000D02*
X90225000Y-66125000D01*
X110055000Y-63580000D02*
X109555000Y-63580000D01*
X98325000Y-57040000D02*
X98325000Y-57210000D01*
X99945000Y-63550000D02*
X100595000Y-62900000D01*
X97655000Y-57880000D02*
X96230000Y-57880000D01*
X108635000Y-64500000D02*
X109555000Y-63580000D01*
X95375000Y-56000000D02*
X91575000Y-56000000D01*
X90500000Y-59925000D02*
X90500000Y-57075000D01*
X98325000Y-57210000D02*
X97655000Y-57880000D01*
X111755000Y-60420000D02*
X110730000Y-60420000D01*
X98750000Y-71030000D02*
X99641833Y-71030000D01*
X110200000Y-59600000D02*
X110700000Y-60100000D01*
X105525000Y-62470000D02*
X106525000Y-62470000D01*
X95150000Y-60400000D02*
X96400000Y-60400000D01*
X99945000Y-64050000D02*
X99945000Y-63550000D01*
X112060000Y-70850000D02*
X113050000Y-70850000D01*
X90500000Y-57075000D02*
X91575000Y-56000000D01*
X95822000Y-57472000D02*
X95822000Y-56460500D01*
X109555000Y-61595000D02*
X110700000Y-60450000D01*
X106555000Y-64500000D02*
X108635000Y-64500000D01*
X95325000Y-63620000D02*
X95325000Y-62625000D01*
X108445000Y-62470000D02*
X109555000Y-63580000D01*
X90225000Y-66125000D02*
X90200000Y-66100000D01*
X99641833Y-71030000D02*
X99688833Y-70983000D01*
%TD*%
%TA.AperFunction,Conductor*%
%TO.N,+3.3V*%
G36*
X90732476Y-55266589D02*
G01*
X90778343Y-55319296D01*
X90788433Y-55388433D01*
X90765429Y-55444680D01*
X90697207Y-55537118D01*
X90697206Y-55537119D01*
X90652353Y-55665298D01*
X90652353Y-55665300D01*
X90649500Y-55695730D01*
X90649500Y-56304269D01*
X90652353Y-56334698D01*
X90677590Y-56406821D01*
X90681151Y-56476600D01*
X90648229Y-56535456D01*
X90278586Y-56905099D01*
X90242155Y-56968197D01*
X90223300Y-57038566D01*
X90223300Y-59149820D01*
X90203615Y-59216859D01*
X90150811Y-59262614D01*
X90081653Y-59272558D01*
X90044840Y-59261221D01*
X89938891Y-59209426D01*
X89870761Y-59199500D01*
X89870760Y-59199500D01*
X89504240Y-59199500D01*
X89504239Y-59199500D01*
X89436108Y-59209426D01*
X89331014Y-59260803D01*
X89248303Y-59343514D01*
X89196926Y-59448608D01*
X89187000Y-59516739D01*
X89187000Y-60608260D01*
X89196926Y-60676391D01*
X89248303Y-60781485D01*
X89331017Y-60864199D01*
X89361410Y-60879057D01*
X89412993Y-60926184D01*
X89426724Y-60958362D01*
X89429654Y-60969299D01*
X89429655Y-60969301D01*
X89429656Y-60969303D01*
X89452906Y-61009572D01*
X89466083Y-61032395D01*
X89466087Y-61032401D01*
X89696505Y-61262819D01*
X89729990Y-61324142D01*
X89725006Y-61393834D01*
X89683134Y-61449767D01*
X89617670Y-61474184D01*
X89608824Y-61474500D01*
X89504239Y-61474500D01*
X89436108Y-61484426D01*
X89331014Y-61535803D01*
X89248303Y-61618514D01*
X89196926Y-61723608D01*
X89187000Y-61791739D01*
X89187000Y-62883260D01*
X89196926Y-62951391D01*
X89248303Y-63056485D01*
X89331014Y-63139196D01*
X89331015Y-63139196D01*
X89331017Y-63139198D01*
X89436107Y-63190573D01*
X89470173Y-63195536D01*
X89504239Y-63200500D01*
X89504240Y-63200500D01*
X89870761Y-63200500D01*
X89896319Y-63196776D01*
X89938893Y-63190573D01*
X90043983Y-63139198D01*
X90126698Y-63056483D01*
X90178073Y-62951393D01*
X90183281Y-62915649D01*
X90787500Y-62915649D01*
X90790399Y-62952489D01*
X90790400Y-62952495D01*
X90836216Y-63110193D01*
X90836217Y-63110196D01*
X90919814Y-63251552D01*
X90919821Y-63251561D01*
X91035938Y-63367678D01*
X91035947Y-63367685D01*
X91177301Y-63451281D01*
X91335014Y-63497100D01*
X91335011Y-63497100D01*
X91337498Y-63497295D01*
X91337500Y-63497295D01*
X91337500Y-62587500D01*
X91837500Y-62587500D01*
X91837500Y-63497295D01*
X91837501Y-63497295D01*
X91839986Y-63497100D01*
X91997698Y-63451281D01*
X92139052Y-63367685D01*
X92139061Y-63367678D01*
X92255178Y-63251561D01*
X92255183Y-63251555D01*
X92335726Y-63115362D01*
X92386795Y-63067678D01*
X92455537Y-63055174D01*
X92520126Y-63081819D01*
X92530140Y-63090801D01*
X92581654Y-63142315D01*
X92730875Y-63234356D01*
X92730880Y-63234358D01*
X92897302Y-63289505D01*
X92897309Y-63289506D01*
X93000019Y-63299999D01*
X93274999Y-63299999D01*
X93275000Y-63299998D01*
X93275000Y-62550000D01*
X92517500Y-62550000D01*
X92516319Y-62551181D01*
X92454996Y-62584666D01*
X92428638Y-62587500D01*
X91837500Y-62587500D01*
X91337500Y-62587500D01*
X90787500Y-62587500D01*
X90787500Y-62915649D01*
X90183281Y-62915649D01*
X90188000Y-62883260D01*
X90188000Y-61791740D01*
X90178073Y-61723607D01*
X90177537Y-61722510D01*
X90169055Y-61705159D01*
X90157297Y-61636286D01*
X90184641Y-61571989D01*
X90242405Y-61532682D01*
X90280456Y-61526700D01*
X90682135Y-61526700D01*
X90749174Y-61546385D01*
X90794929Y-61599189D01*
X90804873Y-61668347D01*
X90801212Y-61685294D01*
X90790399Y-61722510D01*
X90787500Y-61759350D01*
X90787500Y-62087500D01*
X92170000Y-62087500D01*
X92171181Y-62086319D01*
X92232504Y-62052834D01*
X92258862Y-62050000D01*
X93401000Y-62050000D01*
X93468039Y-62069685D01*
X93513794Y-62122489D01*
X93525000Y-62174000D01*
X93525000Y-62300000D01*
X93651000Y-62300000D01*
X93718039Y-62319685D01*
X93763794Y-62372489D01*
X93775000Y-62424000D01*
X93775000Y-63299999D01*
X94049972Y-63299999D01*
X94049986Y-63299998D01*
X94152697Y-63289505D01*
X94319119Y-63234358D01*
X94319124Y-63234356D01*
X94468345Y-63142315D01*
X94592317Y-63018343D01*
X94641219Y-62939060D01*
X94693166Y-62892335D01*
X94762129Y-62881112D01*
X94826211Y-62908955D01*
X94840808Y-62923344D01*
X94848357Y-62932129D01*
X94869480Y-62968716D01*
X94942747Y-63041983D01*
X94945800Y-63045536D01*
X94958329Y-63073276D01*
X94972916Y-63099990D01*
X94972571Y-63104809D01*
X94974560Y-63109212D01*
X94970103Y-63139319D01*
X94967932Y-63169682D01*
X94964913Y-63174378D01*
X94964329Y-63178329D01*
X94956941Y-63186783D01*
X94939431Y-63214029D01*
X94871776Y-63281683D01*
X94821027Y-63390514D01*
X94814500Y-63440097D01*
X94814500Y-63799894D01*
X94814501Y-63799900D01*
X94821028Y-63849487D01*
X94821029Y-63849489D01*
X94821029Y-63849490D01*
X94871776Y-63958316D01*
X94925779Y-64012319D01*
X94929084Y-64018371D01*
X94934747Y-64022314D01*
X94945616Y-64048647D01*
X94959264Y-64073642D01*
X94958771Y-64080522D01*
X94961404Y-64086899D01*
X94956311Y-64114924D01*
X94954280Y-64143334D01*
X94949847Y-64150499D01*
X94948913Y-64155643D01*
X94933229Y-64177362D01*
X94928747Y-64184609D01*
X94927290Y-64186169D01*
X94871776Y-64241684D01*
X94868082Y-64249603D01*
X94854731Y-64263909D01*
X94831849Y-64277446D01*
X94811079Y-64294049D01*
X94800152Y-64296199D01*
X94794598Y-64299486D01*
X94785219Y-64299139D01*
X94764082Y-64303300D01*
X94067093Y-64303300D01*
X94000054Y-64283615D01*
X93954712Y-64231706D01*
X93949065Y-64219596D01*
X93865404Y-64135935D01*
X93758173Y-64085932D01*
X93758171Y-64085931D01*
X93758172Y-64085931D01*
X93709317Y-64079500D01*
X93709316Y-64079500D01*
X93360684Y-64079500D01*
X93360683Y-64079500D01*
X93311822Y-64085932D01*
X93302994Y-64088505D01*
X93233124Y-64088362D01*
X93174424Y-64050468D01*
X93161569Y-64032575D01*
X93155736Y-64022711D01*
X93155731Y-64022705D01*
X93042294Y-63909268D01*
X93042285Y-63909261D01*
X92904191Y-63827593D01*
X92904188Y-63827591D01*
X92765001Y-63787153D01*
X92765000Y-63787154D01*
X92765000Y-65412843D01*
X92904194Y-65372404D01*
X93042285Y-65290738D01*
X93042294Y-65290731D01*
X93155731Y-65177294D01*
X93155735Y-65177288D01*
X93161568Y-65167426D01*
X93212634Y-65119740D01*
X93281376Y-65107233D01*
X93303002Y-65111496D01*
X93311827Y-65114068D01*
X93360683Y-65120500D01*
X93360684Y-65120500D01*
X93709317Y-65120500D01*
X93725601Y-65118356D01*
X93758173Y-65114068D01*
X93865404Y-65064065D01*
X93949065Y-64980404D01*
X93973364Y-64928294D01*
X94019537Y-64875856D01*
X94085746Y-64856700D01*
X94764082Y-64856700D01*
X94831121Y-64876385D01*
X94865656Y-64909576D01*
X94871775Y-64918315D01*
X94871776Y-64918316D01*
X94956684Y-65003224D01*
X95065513Y-65053972D01*
X95115099Y-65060500D01*
X95534900Y-65060499D01*
X95584487Y-65053972D01*
X95693316Y-65003224D01*
X95778224Y-64918316D01*
X95778225Y-64918313D01*
X95784344Y-64909576D01*
X95838921Y-64865951D01*
X95885918Y-64856700D01*
X97814025Y-64856700D01*
X97881064Y-64876385D01*
X97901706Y-64893019D01*
X100080098Y-67071412D01*
X100080101Y-67071414D01*
X100080102Y-67071415D01*
X100137501Y-67104555D01*
X100145784Y-67113242D01*
X100156703Y-67118229D01*
X100169448Y-67138061D01*
X100185716Y-67155123D01*
X100188931Y-67168378D01*
X100194477Y-67177007D01*
X100199500Y-67211942D01*
X100199500Y-67249300D01*
X100179815Y-67316339D01*
X100127011Y-67362094D01*
X100075500Y-67373300D01*
X99965975Y-67373300D01*
X99898936Y-67353615D01*
X99878294Y-67336981D01*
X97719901Y-65178587D01*
X97719892Y-65178581D01*
X97656804Y-65142155D01*
X97586433Y-65123300D01*
X97586428Y-65123300D01*
X96068572Y-65123300D01*
X96068568Y-65123300D01*
X95998198Y-65142155D01*
X95998196Y-65142155D01*
X95935108Y-65178581D01*
X95935099Y-65178587D01*
X95240506Y-65873181D01*
X95179183Y-65906666D01*
X95152825Y-65909500D01*
X94175247Y-65909500D01*
X94116770Y-65921131D01*
X94116769Y-65921132D01*
X94050447Y-65965447D01*
X94006132Y-66031769D01*
X94006131Y-66031770D01*
X93994500Y-66090247D01*
X93994500Y-66829752D01*
X94006131Y-66888229D01*
X94006132Y-66888230D01*
X94050447Y-66954552D01*
X94116769Y-66998867D01*
X94116770Y-66998868D01*
X94175247Y-67010499D01*
X94175250Y-67010500D01*
X94175252Y-67010500D01*
X95914749Y-67010500D01*
X95926720Y-67008118D01*
X95945379Y-67004407D01*
X95966364Y-67006284D01*
X95987218Y-67003286D01*
X96000463Y-67009335D01*
X96014970Y-67010633D01*
X96031609Y-67023558D01*
X96050774Y-67032311D01*
X96058647Y-67044563D01*
X96070147Y-67053496D01*
X96077156Y-67073362D01*
X96088548Y-67091089D01*
X96092082Y-67115669D01*
X96093393Y-67119385D01*
X96093571Y-67126024D01*
X96093571Y-67193975D01*
X96073886Y-67261014D01*
X96021082Y-67306769D01*
X95951924Y-67316713D01*
X95945381Y-67315593D01*
X95914748Y-67309500D01*
X94175252Y-67309500D01*
X94175247Y-67309500D01*
X94116770Y-67321131D01*
X94116769Y-67321132D01*
X94050447Y-67365447D01*
X94006133Y-67431768D01*
X94006133Y-67431769D01*
X93994850Y-67488491D01*
X93962466Y-67550402D01*
X93901750Y-67584976D01*
X93873233Y-67588300D01*
X93409555Y-67588300D01*
X93342516Y-67568615D01*
X93321958Y-67552066D01*
X93313274Y-67543398D01*
X93274552Y-67485448D01*
X93216038Y-67446349D01*
X93207438Y-67437766D01*
X93196262Y-67417346D01*
X93181339Y-67399489D01*
X93179805Y-67387275D01*
X93173894Y-67376475D01*
X93175532Y-67353256D01*
X93172632Y-67330164D01*
X93177945Y-67319058D01*
X93178812Y-67306778D01*
X93192742Y-67288132D01*
X93202787Y-67267137D01*
X93218780Y-67253278D01*
X93220629Y-67250804D01*
X93222401Y-67250141D01*
X93226144Y-67246898D01*
X93274552Y-67214552D01*
X93297158Y-67180720D01*
X93318867Y-67148231D01*
X93318867Y-67148229D01*
X93318868Y-67148229D01*
X93330499Y-67089752D01*
X93330500Y-67089750D01*
X93330500Y-66580249D01*
X93330499Y-66580247D01*
X93318868Y-66521770D01*
X93318867Y-66521769D01*
X93274552Y-66455447D01*
X93208230Y-66411132D01*
X93208229Y-66411131D01*
X93149752Y-66399500D01*
X93149748Y-66399500D01*
X92842175Y-66399500D01*
X92775136Y-66379815D01*
X92754494Y-66363181D01*
X92269901Y-65878587D01*
X92269892Y-65878581D01*
X92206804Y-65842155D01*
X92136433Y-65823300D01*
X92136428Y-65823300D01*
X90805237Y-65823300D01*
X90738198Y-65803615D01*
X90697850Y-65761300D01*
X90680522Y-65731287D01*
X90680518Y-65731282D01*
X90568717Y-65619481D01*
X90568709Y-65619475D01*
X90431790Y-65540426D01*
X90431786Y-65540424D01*
X90431784Y-65540423D01*
X90279057Y-65499500D01*
X90120943Y-65499500D01*
X89968216Y-65540423D01*
X89968209Y-65540426D01*
X89831290Y-65619475D01*
X89831282Y-65619481D01*
X89719481Y-65731282D01*
X89719475Y-65731290D01*
X89640426Y-65868209D01*
X89640423Y-65868216D01*
X89599500Y-66020943D01*
X89599500Y-66179057D01*
X89637237Y-66319891D01*
X89640423Y-66331783D01*
X89640426Y-66331790D01*
X89719475Y-66468709D01*
X89719479Y-66468714D01*
X89719480Y-66468716D01*
X89831284Y-66580520D01*
X89886299Y-66612282D01*
X89894583Y-66620970D01*
X89905503Y-66625957D01*
X89918248Y-66645788D01*
X89934515Y-66662849D01*
X89937731Y-66676105D01*
X89943277Y-66684735D01*
X89948300Y-66719670D01*
X89948300Y-66800720D01*
X89928615Y-66867759D01*
X89889893Y-66901311D01*
X89891923Y-66904348D01*
X89815447Y-66955447D01*
X89771132Y-67021769D01*
X89771131Y-67021770D01*
X89759500Y-67080247D01*
X89759500Y-67593444D01*
X89739815Y-67660483D01*
X89709811Y-67692710D01*
X89602812Y-67772809D01*
X89602809Y-67772812D01*
X89516649Y-67887906D01*
X89516645Y-67887913D01*
X89466403Y-68022620D01*
X89466401Y-68022627D01*
X89460000Y-68082155D01*
X89460000Y-68130000D01*
X90990000Y-68130000D01*
X90990000Y-68082172D01*
X90989999Y-68082155D01*
X90983598Y-68022627D01*
X90983596Y-68022620D01*
X90933354Y-67887913D01*
X90933350Y-67887906D01*
X90847190Y-67772812D01*
X90740188Y-67692709D01*
X90698318Y-67636775D01*
X90690500Y-67593443D01*
X90690500Y-67080249D01*
X90690499Y-67080247D01*
X90678868Y-67021770D01*
X90678867Y-67021769D01*
X90634552Y-66955447D01*
X90558077Y-66904348D01*
X90559978Y-66901502D01*
X90544497Y-66894433D01*
X90536015Y-66881236D01*
X90523807Y-66871387D01*
X90517513Y-66852446D01*
X90506723Y-66835655D01*
X90502746Y-66807999D01*
X90501777Y-66805081D01*
X90501700Y-66800720D01*
X90501700Y-66690803D01*
X90521385Y-66623764D01*
X90563703Y-66583414D01*
X90568716Y-66580520D01*
X90680520Y-66468716D01*
X90688181Y-66455447D01*
X90697850Y-66438700D01*
X90748417Y-66390485D01*
X90805237Y-66376700D01*
X91934025Y-66376700D01*
X92001064Y-66396385D01*
X92021706Y-66413019D01*
X92363181Y-66754494D01*
X92396666Y-66815817D01*
X92399500Y-66842175D01*
X92399500Y-67089752D01*
X92411131Y-67148229D01*
X92411132Y-67148230D01*
X92455448Y-67214553D01*
X92503856Y-67246899D01*
X92548660Y-67300512D01*
X92557367Y-67369837D01*
X92527212Y-67432864D01*
X92503856Y-67453101D01*
X92455448Y-67485446D01*
X92411132Y-67551769D01*
X92411131Y-67551770D01*
X92399500Y-67610247D01*
X92399500Y-68119752D01*
X92411131Y-68178229D01*
X92411132Y-68178230D01*
X92453011Y-68240906D01*
X92473889Y-68307583D01*
X92455405Y-68374964D01*
X92403426Y-68421654D01*
X92366097Y-68432736D01*
X92341828Y-68435931D01*
X92234595Y-68485935D01*
X92150935Y-68569595D01*
X92100931Y-68676828D01*
X92094500Y-68725683D01*
X92094500Y-69174316D01*
X92100931Y-69223171D01*
X92110808Y-69244351D01*
X92150935Y-69330404D01*
X92234596Y-69414065D01*
X92234598Y-69414066D01*
X92235418Y-69414640D01*
X92236402Y-69415871D01*
X92242268Y-69421737D01*
X92241614Y-69422390D01*
X92279046Y-69469215D01*
X92288300Y-69516219D01*
X92288300Y-74531433D01*
X92307155Y-74601803D01*
X92307155Y-74601804D01*
X92343581Y-74664892D01*
X92343587Y-74664901D01*
X93133181Y-75454494D01*
X93166666Y-75515817D01*
X93169500Y-75542175D01*
X93169500Y-75838132D01*
X93169501Y-75838138D01*
X93175741Y-75885545D01*
X93175742Y-75885547D01*
X93175742Y-75885548D01*
X93224253Y-75989579D01*
X93306981Y-76072307D01*
X93340466Y-76133630D01*
X93343300Y-76159988D01*
X93343300Y-76881433D01*
X93362155Y-76951803D01*
X93362155Y-76951804D01*
X93398581Y-77014892D01*
X93398587Y-77014901D01*
X94056985Y-77673298D01*
X94198706Y-77815019D01*
X94232191Y-77876342D01*
X94227207Y-77946034D01*
X94185335Y-78001967D01*
X94119871Y-78026384D01*
X94111025Y-78026700D01*
X93385166Y-78026700D01*
X93314796Y-78045555D01*
X93314795Y-78045555D01*
X93251707Y-78081981D01*
X93251698Y-78081987D01*
X92005102Y-79328585D01*
X92005101Y-79328586D01*
X91953587Y-79380098D01*
X91953581Y-79380107D01*
X91917155Y-79443195D01*
X91917155Y-79443196D01*
X91898300Y-79513566D01*
X91898300Y-79586429D01*
X91904075Y-79607981D01*
X91908300Y-79640073D01*
X91908300Y-81494076D01*
X91888615Y-81561115D01*
X91835811Y-81606870D01*
X91825256Y-81611117D01*
X91722117Y-81647207D01*
X91612850Y-81727850D01*
X91532207Y-81837117D01*
X91532206Y-81837119D01*
X91487353Y-81965298D01*
X91487353Y-81965300D01*
X91484500Y-81995730D01*
X91484500Y-84104269D01*
X91487353Y-84134699D01*
X91487353Y-84134701D01*
X91532206Y-84262880D01*
X91532207Y-84262882D01*
X91612850Y-84372150D01*
X91722118Y-84452793D01*
X91749779Y-84462472D01*
X91850298Y-84497646D01*
X91851498Y-84497908D01*
X91852297Y-84498345D01*
X91857423Y-84500139D01*
X91857126Y-84500987D01*
X91912793Y-84531444D01*
X91946227Y-84592795D01*
X91941185Y-84662483D01*
X91899267Y-84718381D01*
X91833782Y-84742743D01*
X91825282Y-84743052D01*
X89974787Y-84746673D01*
X89907709Y-84727119D01*
X89861851Y-84674405D01*
X89851772Y-84605266D01*
X89880672Y-84541654D01*
X89939376Y-84503764D01*
X89962961Y-84499215D01*
X89979699Y-84497646D01*
X89979701Y-84497645D01*
X89979703Y-84497645D01*
X90028434Y-84480593D01*
X90107882Y-84452793D01*
X90217150Y-84372150D01*
X90297793Y-84262882D01*
X90320219Y-84198790D01*
X90342646Y-84134701D01*
X90342646Y-84134699D01*
X90345500Y-84104269D01*
X90345500Y-81995730D01*
X90342646Y-81965300D01*
X90342646Y-81965298D01*
X90297793Y-81837119D01*
X90297792Y-81837117D01*
X90217150Y-81727850D01*
X90107882Y-81647207D01*
X90107879Y-81647206D01*
X90004744Y-81611117D01*
X89947969Y-81570395D01*
X89922222Y-81505442D01*
X89921700Y-81494076D01*
X89921700Y-80170974D01*
X89941385Y-80103935D01*
X89958015Y-80083297D01*
X90692691Y-79348620D01*
X90754012Y-79315137D01*
X90812462Y-79316528D01*
X90845943Y-79325500D01*
X90845945Y-79325500D01*
X91004055Y-79325500D01*
X91004057Y-79325500D01*
X91156784Y-79284577D01*
X91293716Y-79205520D01*
X91405520Y-79093716D01*
X91484577Y-78956784D01*
X91525500Y-78804057D01*
X91525500Y-78645943D01*
X91484577Y-78493216D01*
X91484573Y-78493209D01*
X91405524Y-78356290D01*
X91405518Y-78356282D01*
X91293717Y-78244481D01*
X91293709Y-78244475D01*
X91156790Y-78165426D01*
X91156786Y-78165424D01*
X91156784Y-78165423D01*
X91004057Y-78124500D01*
X90845943Y-78124500D01*
X90693216Y-78165423D01*
X90693209Y-78165426D01*
X90556290Y-78244475D01*
X90556282Y-78244481D01*
X90444481Y-78356282D01*
X90444475Y-78356290D01*
X90365426Y-78493209D01*
X90365423Y-78493216D01*
X90324500Y-78645943D01*
X90324500Y-78804061D01*
X90333470Y-78837537D01*
X90331806Y-78907386D01*
X90301376Y-78957309D01*
X89423587Y-79835098D01*
X89387154Y-79898200D01*
X89382931Y-79913962D01*
X89382931Y-79913964D01*
X89368300Y-79968568D01*
X89368300Y-81494076D01*
X89348615Y-81561115D01*
X89295811Y-81606870D01*
X89285256Y-81611117D01*
X89182117Y-81647207D01*
X89072850Y-81727850D01*
X88992207Y-81837117D01*
X88992206Y-81837119D01*
X88947353Y-81965298D01*
X88947353Y-81965300D01*
X88944500Y-81995730D01*
X88944500Y-84104269D01*
X88947353Y-84134699D01*
X88947353Y-84134701D01*
X88992206Y-84262880D01*
X88992207Y-84262882D01*
X89072850Y-84372150D01*
X89182118Y-84452793D01*
X89209779Y-84462472D01*
X89310299Y-84497646D01*
X89340506Y-84500479D01*
X89405415Y-84526336D01*
X89446040Y-84583182D01*
X89449483Y-84652966D01*
X89414651Y-84713535D01*
X89352603Y-84745656D01*
X89329172Y-84747937D01*
X88399243Y-84749756D01*
X88332165Y-84730202D01*
X88286307Y-84677488D01*
X88275000Y-84625756D01*
X88275000Y-75036687D01*
X88294685Y-74969648D01*
X88347489Y-74923893D01*
X88416647Y-74913949D01*
X88480203Y-74942974D01*
X88516930Y-74998367D01*
X88523443Y-75018412D01*
X88523444Y-75018414D01*
X88619951Y-75207820D01*
X88744890Y-75379786D01*
X88895213Y-75530109D01*
X89067179Y-75655048D01*
X89067181Y-75655049D01*
X89067184Y-75655051D01*
X89256588Y-75751557D01*
X89458757Y-75817246D01*
X89668713Y-75850500D01*
X89668714Y-75850500D01*
X89881286Y-75850500D01*
X89881287Y-75850500D01*
X90091243Y-75817246D01*
X90293412Y-75751557D01*
X90482816Y-75655051D01*
X90545406Y-75609577D01*
X90654786Y-75530109D01*
X90654788Y-75530106D01*
X90654792Y-75530104D01*
X90805104Y-75379792D01*
X90805106Y-75379788D01*
X90805109Y-75379786D01*
X90925227Y-75214456D01*
X90930051Y-75207816D01*
X91026557Y-75018412D01*
X91092246Y-74816243D01*
X91125500Y-74606287D01*
X91125500Y-74393713D01*
X91092246Y-74183757D01*
X91026557Y-73981588D01*
X90930051Y-73792184D01*
X90930049Y-73792181D01*
X90930048Y-73792179D01*
X90805109Y-73620213D01*
X90654786Y-73469890D01*
X90482820Y-73344951D01*
X90293414Y-73248444D01*
X90293413Y-73248443D01*
X90293412Y-73248443D01*
X90091243Y-73182754D01*
X90091241Y-73182753D01*
X90091240Y-73182753D01*
X89929957Y-73157208D01*
X89881287Y-73149500D01*
X89668713Y-73149500D01*
X89620042Y-73157208D01*
X89458760Y-73182753D01*
X89256585Y-73248444D01*
X89067179Y-73344951D01*
X88895213Y-73469890D01*
X88744890Y-73620213D01*
X88619951Y-73792179D01*
X88523444Y-73981583D01*
X88516931Y-74001631D01*
X88477493Y-74059306D01*
X88413134Y-74086504D01*
X88344287Y-74074589D01*
X88292812Y-74027344D01*
X88275000Y-73963312D01*
X88275000Y-68647844D01*
X89460000Y-68647844D01*
X89466401Y-68707372D01*
X89466403Y-68707379D01*
X89516645Y-68842086D01*
X89516649Y-68842093D01*
X89602809Y-68957187D01*
X89602812Y-68957190D01*
X89717906Y-69043350D01*
X89717913Y-69043354D01*
X89852620Y-69093596D01*
X89852627Y-69093598D01*
X89912155Y-69099999D01*
X89912172Y-69100000D01*
X89990000Y-69100000D01*
X90460000Y-69100000D01*
X90537828Y-69100000D01*
X90537844Y-69099999D01*
X90597372Y-69093598D01*
X90597379Y-69093596D01*
X90732086Y-69043354D01*
X90732093Y-69043350D01*
X90847187Y-68957190D01*
X90847190Y-68957187D01*
X90933350Y-68842093D01*
X90933354Y-68842086D01*
X90983596Y-68707379D01*
X90983598Y-68707372D01*
X90989999Y-68647844D01*
X90990000Y-68647827D01*
X90990000Y-68600000D01*
X90460000Y-68600000D01*
X90460000Y-69100000D01*
X89990000Y-69100000D01*
X89990000Y-68600000D01*
X89460000Y-68600000D01*
X89460000Y-68647844D01*
X88275000Y-68647844D01*
X88275000Y-64850000D01*
X91745069Y-64850000D01*
X91747832Y-64885122D01*
X91747833Y-64885128D01*
X91792592Y-65039188D01*
X91792593Y-65039191D01*
X91874261Y-65177285D01*
X91874268Y-65177294D01*
X91987705Y-65290731D01*
X91987714Y-65290738D01*
X92125805Y-65372404D01*
X92265000Y-65412844D01*
X92265000Y-64850000D01*
X91745069Y-64850000D01*
X88275000Y-64850000D01*
X88275000Y-64350000D01*
X91745069Y-64350000D01*
X92265000Y-64350000D01*
X92265000Y-63787154D01*
X92264998Y-63787153D01*
X92125811Y-63827591D01*
X92125808Y-63827593D01*
X91987714Y-63909261D01*
X91987705Y-63909268D01*
X91874268Y-64022705D01*
X91874261Y-64022714D01*
X91792593Y-64160808D01*
X91792592Y-64160811D01*
X91747833Y-64314871D01*
X91747832Y-64314877D01*
X91745069Y-64350000D01*
X88275000Y-64350000D01*
X88275000Y-58774000D01*
X88294685Y-58706961D01*
X88347489Y-58661206D01*
X88399000Y-58650000D01*
X89275000Y-58650000D01*
X89275000Y-55373737D01*
X89294685Y-55306698D01*
X89347489Y-55260943D01*
X89398735Y-55249737D01*
X90665398Y-55247047D01*
X90732476Y-55266589D01*
G37*
%TD.AperFunction*%
%TA.AperFunction,Conductor*%
G36*
X105503600Y-73505099D02*
G01*
X105514862Y-73505502D01*
X105534809Y-73519352D01*
X105556903Y-73529442D01*
X105564484Y-73539956D01*
X105572254Y-73545351D01*
X105584294Y-73565646D01*
X105589033Y-73572739D01*
X105589034Y-73572740D01*
X105644399Y-73655601D01*
X105727260Y-73710966D01*
X105727264Y-73710967D01*
X105800321Y-73725499D01*
X105800324Y-73725500D01*
X105874300Y-73725500D01*
X105882985Y-73728050D01*
X105891947Y-73726762D01*
X105915987Y-73737740D01*
X105941339Y-73745185D01*
X105947266Y-73752025D01*
X105955503Y-73755787D01*
X105969792Y-73778021D01*
X105987094Y-73797989D01*
X105989381Y-73808503D01*
X105993277Y-73814565D01*
X105998300Y-73849500D01*
X105998300Y-74064196D01*
X105978615Y-74131235D01*
X105936300Y-74171583D01*
X105906606Y-74188726D01*
X105906601Y-74188730D01*
X105794800Y-74300531D01*
X105794794Y-74300539D01*
X105715745Y-74437458D01*
X105715742Y-74437465D01*
X105674819Y-74590192D01*
X105674819Y-74748306D01*
X105693552Y-74818216D01*
X105715742Y-74901032D01*
X105715745Y-74901039D01*
X105794794Y-75037958D01*
X105794798Y-75037963D01*
X105794799Y-75037965D01*
X105906603Y-75149769D01*
X105906605Y-75149770D01*
X105906609Y-75149773D01*
X106043528Y-75228822D01*
X106043535Y-75228826D01*
X106196262Y-75269749D01*
X106196264Y-75269749D01*
X106354373Y-75269749D01*
X106354376Y-75269749D01*
X106504180Y-75229609D01*
X106574025Y-75231272D01*
X106631887Y-75270434D01*
X106643656Y-75287385D01*
X106719475Y-75418709D01*
X106719479Y-75418714D01*
X106719480Y-75418716D01*
X106831284Y-75530520D01*
X106831286Y-75530521D01*
X106831290Y-75530524D01*
X106967539Y-75609186D01*
X106968216Y-75609577D01*
X107120943Y-75650500D01*
X107120945Y-75650500D01*
X107279055Y-75650500D01*
X107279057Y-75650500D01*
X107328245Y-75637320D01*
X107398091Y-75638981D01*
X107455955Y-75678143D01*
X107480111Y-75724998D01*
X107498806Y-75794770D01*
X107515423Y-75856785D01*
X107515426Y-75856790D01*
X107594475Y-75993709D01*
X107594479Y-75993714D01*
X107594480Y-75993716D01*
X107706284Y-76105520D01*
X107706285Y-76105521D01*
X107706287Y-76105522D01*
X107720779Y-76113889D01*
X107768994Y-76164456D01*
X107782218Y-76233063D01*
X107756250Y-76297927D01*
X107699336Y-76338456D01*
X107694057Y-76340074D01*
X107693209Y-76340426D01*
X107556290Y-76419475D01*
X107556282Y-76419481D01*
X107444481Y-76531282D01*
X107444475Y-76531290D01*
X107365426Y-76668209D01*
X107365423Y-76668216D01*
X107324500Y-76820943D01*
X107324500Y-76979057D01*
X107363696Y-77125336D01*
X107365423Y-77131783D01*
X107365426Y-77131790D01*
X107444475Y-77268709D01*
X107444479Y-77268714D01*
X107444480Y-77268716D01*
X107556284Y-77380520D01*
X107556286Y-77380521D01*
X107556290Y-77380524D01*
X107672909Y-77447853D01*
X107693216Y-77459577D01*
X107845943Y-77500500D01*
X107845945Y-77500500D01*
X107858570Y-77500500D01*
X107925609Y-77520185D01*
X107971364Y-77572989D01*
X107981308Y-77642147D01*
X107978345Y-77656591D01*
X107974500Y-77670938D01*
X107974500Y-77670943D01*
X107974500Y-77829057D01*
X108009054Y-77958012D01*
X108015423Y-77981783D01*
X108015426Y-77981790D01*
X108094475Y-78118709D01*
X108094479Y-78118714D01*
X108094480Y-78118716D01*
X108206284Y-78230520D01*
X108206286Y-78230521D01*
X108206290Y-78230524D01*
X108261909Y-78262635D01*
X108343216Y-78309577D01*
X108495943Y-78350500D01*
X108495945Y-78350500D01*
X108654055Y-78350500D01*
X108654057Y-78350500D01*
X108806784Y-78309577D01*
X108943716Y-78230520D01*
X109055520Y-78118716D01*
X109063024Y-78105717D01*
X109072850Y-78088700D01*
X109080996Y-78080932D01*
X109085548Y-78070638D01*
X109105830Y-78057253D01*
X109123417Y-78040485D01*
X109135983Y-78037355D01*
X109143864Y-78032155D01*
X109176551Y-78027252D01*
X109178735Y-78026709D01*
X109179478Y-78026700D01*
X109244772Y-78026700D01*
X109317628Y-78026700D01*
X109324168Y-78024947D01*
X109338998Y-78024768D01*
X109365823Y-78032292D01*
X109393352Y-78036586D01*
X109399000Y-78041599D01*
X109406271Y-78043639D01*
X109424768Y-78064470D01*
X109445607Y-78082967D01*
X109447717Y-78090316D01*
X109452662Y-78095885D01*
X109456650Y-78121423D01*
X109464500Y-78148758D01*
X109464500Y-78249895D01*
X109464501Y-78249900D01*
X109465768Y-78259528D01*
X109465770Y-78259538D01*
X109455001Y-78328573D01*
X109414650Y-78374032D01*
X109415788Y-78375499D01*
X109409621Y-78380282D01*
X109295282Y-78494620D01*
X109295278Y-78494625D01*
X109212968Y-78633804D01*
X109170496Y-78780000D01*
X110779504Y-78780000D01*
X110737031Y-78633804D01*
X110654721Y-78494625D01*
X110654714Y-78494616D01*
X110540381Y-78380283D01*
X110534217Y-78375502D01*
X110535733Y-78373547D01*
X110496363Y-78331378D01*
X110483862Y-78262635D01*
X110484231Y-78259538D01*
X110485500Y-78249901D01*
X110485499Y-77890100D01*
X110478972Y-77840513D01*
X110428224Y-77731684D01*
X110343316Y-77646776D01*
X110234487Y-77596028D01*
X110234485Y-77596027D01*
X110234486Y-77596027D01*
X110184902Y-77589500D01*
X110184901Y-77589500D01*
X110095316Y-77589500D01*
X110028277Y-77569815D01*
X109982522Y-77517011D01*
X109972578Y-77447853D01*
X109980755Y-77418048D01*
X109982844Y-77413003D01*
X110001699Y-77342633D01*
X110001700Y-77342627D01*
X110001700Y-77192375D01*
X110021385Y-77125336D01*
X110074189Y-77079581D01*
X110143347Y-77069637D01*
X110206903Y-77098662D01*
X110213381Y-77104694D01*
X112191981Y-79083294D01*
X112225466Y-79144617D01*
X112228300Y-79170975D01*
X112228300Y-81494076D01*
X112208615Y-81561115D01*
X112155811Y-81606870D01*
X112145256Y-81611117D01*
X112042117Y-81647207D01*
X111932850Y-81727850D01*
X111852207Y-81837117D01*
X111852206Y-81837119D01*
X111807353Y-81965298D01*
X111807353Y-81965300D01*
X111804500Y-81995730D01*
X111804500Y-84104269D01*
X111807353Y-84134699D01*
X111807353Y-84134701D01*
X111852206Y-84262880D01*
X111852207Y-84262882D01*
X111932850Y-84372150D01*
X112042118Y-84452793D01*
X112069784Y-84462473D01*
X112126558Y-84503194D01*
X112152306Y-84568146D01*
X112138850Y-84636708D01*
X112090463Y-84687111D01*
X112029071Y-84703514D01*
X110914174Y-84705696D01*
X110847096Y-84686142D01*
X110801238Y-84633428D01*
X110791159Y-84564289D01*
X110808393Y-84516599D01*
X110899353Y-84369130D01*
X110899358Y-84369119D01*
X110954505Y-84202697D01*
X110954506Y-84202690D01*
X110964999Y-84099986D01*
X110965000Y-84099973D01*
X110965000Y-83300000D01*
X108965001Y-83300000D01*
X108965001Y-84099986D01*
X108975494Y-84202697D01*
X109030641Y-84369119D01*
X109030645Y-84369128D01*
X109123894Y-84520309D01*
X109142334Y-84587701D01*
X109121411Y-84654365D01*
X109067769Y-84699134D01*
X109018598Y-84709405D01*
X107878202Y-84711636D01*
X107811124Y-84692082D01*
X107765266Y-84639368D01*
X107755187Y-84570229D01*
X107784087Y-84506617D01*
X107837002Y-84470596D01*
X107887882Y-84452793D01*
X107997150Y-84372150D01*
X108077793Y-84262882D01*
X108100219Y-84198790D01*
X108122646Y-84134701D01*
X108122646Y-84134699D01*
X108125500Y-84104269D01*
X108125500Y-82000013D01*
X108965000Y-82000013D01*
X108965000Y-82800000D01*
X109715000Y-82800000D01*
X110215000Y-82800000D01*
X110964999Y-82800000D01*
X110964999Y-82000028D01*
X110964998Y-82000013D01*
X110954505Y-81897302D01*
X110899358Y-81730880D01*
X110899356Y-81730875D01*
X110807315Y-81581654D01*
X110683345Y-81457684D01*
X110534124Y-81365643D01*
X110534119Y-81365641D01*
X110367697Y-81310494D01*
X110367690Y-81310493D01*
X110264986Y-81300000D01*
X110215000Y-81300000D01*
X110215000Y-82800000D01*
X109715000Y-82800000D01*
X109715000Y-81300000D01*
X109714999Y-81299999D01*
X109665029Y-81300000D01*
X109665011Y-81300001D01*
X109562302Y-81310494D01*
X109395880Y-81365641D01*
X109395875Y-81365643D01*
X109246654Y-81457684D01*
X109122684Y-81581654D01*
X109030643Y-81730875D01*
X109030641Y-81730880D01*
X108975494Y-81897302D01*
X108975493Y-81897309D01*
X108965000Y-82000013D01*
X108125500Y-82000013D01*
X108125500Y-81995730D01*
X108122646Y-81965300D01*
X108122646Y-81965298D01*
X108077793Y-81837119D01*
X108077792Y-81837117D01*
X107997150Y-81727850D01*
X107887882Y-81647207D01*
X107887879Y-81647206D01*
X107784744Y-81611117D01*
X107727969Y-81570395D01*
X107702222Y-81505442D01*
X107701700Y-81494076D01*
X107701700Y-79563573D01*
X107701699Y-79563567D01*
X107694148Y-79535386D01*
X107688303Y-79513572D01*
X107682844Y-79493197D01*
X107646415Y-79430102D01*
X107646414Y-79430101D01*
X107646412Y-79430098D01*
X107496314Y-79280000D01*
X109170496Y-79280000D01*
X109212968Y-79426195D01*
X109295278Y-79565374D01*
X109295285Y-79565383D01*
X109409616Y-79679714D01*
X109409625Y-79679721D01*
X109548804Y-79762031D01*
X109704089Y-79807145D01*
X109725000Y-79808789D01*
X110225000Y-79808789D01*
X110245910Y-79807145D01*
X110401195Y-79762031D01*
X110540374Y-79679721D01*
X110540383Y-79679714D01*
X110654714Y-79565383D01*
X110654721Y-79565374D01*
X110737031Y-79426195D01*
X110779504Y-79280000D01*
X110225000Y-79280000D01*
X110225000Y-79808789D01*
X109725000Y-79808789D01*
X109725000Y-79280000D01*
X109170496Y-79280000D01*
X107496314Y-79280000D01*
X105388019Y-77171705D01*
X105354534Y-77110382D01*
X105351700Y-77084024D01*
X105351700Y-73623155D01*
X105354875Y-73612340D01*
X105353671Y-73601135D01*
X105364543Y-73579416D01*
X105371385Y-73556116D01*
X105379901Y-73548736D01*
X105384947Y-73538657D01*
X105405837Y-73526263D01*
X105424189Y-73510361D01*
X105435343Y-73508757D01*
X105445037Y-73503006D01*
X105469307Y-73503873D01*
X105493347Y-73500417D01*
X105503600Y-73505099D01*
G37*
%TD.AperFunction*%
%TA.AperFunction,Conductor*%
G36*
X112769555Y-55219802D02*
G01*
X112815422Y-55272509D01*
X112826725Y-55322514D01*
X112874999Y-58749999D01*
X112875000Y-58750000D01*
X113800521Y-58750000D01*
X113867560Y-58769685D01*
X113913315Y-58822489D01*
X113924520Y-58874478D01*
X113879017Y-70682392D01*
X113859074Y-70749355D01*
X113806094Y-70794906D01*
X113736898Y-70804583D01*
X113673455Y-70775313D01*
X113635907Y-70716390D01*
X113635270Y-70714107D01*
X113609577Y-70618216D01*
X113602168Y-70605383D01*
X113530524Y-70481290D01*
X113530518Y-70481282D01*
X113418717Y-70369481D01*
X113418709Y-70369475D01*
X113281790Y-70290426D01*
X113281786Y-70290424D01*
X113281784Y-70290423D01*
X113129057Y-70249500D01*
X112970943Y-70249500D01*
X112818216Y-70290423D01*
X112818209Y-70290426D01*
X112681290Y-70369475D01*
X112681282Y-70369481D01*
X112613833Y-70436931D01*
X112552510Y-70470416D01*
X112482818Y-70465432D01*
X112438471Y-70436931D01*
X112398316Y-70396776D01*
X112365312Y-70381386D01*
X112289487Y-70346028D01*
X112289485Y-70346027D01*
X112289486Y-70346027D01*
X112239902Y-70339500D01*
X111880102Y-70339500D01*
X111871746Y-70340600D01*
X111870459Y-70340769D01*
X111801425Y-70330001D01*
X111755964Y-70289648D01*
X111754499Y-70290785D01*
X111749714Y-70284616D01*
X111635383Y-70170285D01*
X111635374Y-70170278D01*
X111496193Y-70087967D01*
X111496190Y-70087965D01*
X111350001Y-70045493D01*
X111350000Y-70045494D01*
X111350000Y-71654503D01*
X111496195Y-71612031D01*
X111635374Y-71529721D01*
X111635383Y-71529714D01*
X111749714Y-71415383D01*
X111754499Y-71409215D01*
X111756459Y-71410735D01*
X111798583Y-71371382D01*
X111867321Y-71358858D01*
X111870443Y-71359228D01*
X111880099Y-71360500D01*
X112239900Y-71360499D01*
X112289487Y-71353972D01*
X112398316Y-71303224D01*
X112438471Y-71263069D01*
X112499794Y-71229584D01*
X112569486Y-71234568D01*
X112613833Y-71263069D01*
X112681284Y-71330520D01*
X112681286Y-71330521D01*
X112681290Y-71330524D01*
X112817589Y-71409215D01*
X112818216Y-71409577D01*
X112970943Y-71450500D01*
X112970945Y-71450500D01*
X113129055Y-71450500D01*
X113129057Y-71450500D01*
X113281784Y-71409577D01*
X113418716Y-71330520D01*
X113530520Y-71218716D01*
X113609577Y-71081784D01*
X113633930Y-70990895D01*
X113670294Y-70931237D01*
X113733141Y-70900708D01*
X113802516Y-70909002D01*
X113856394Y-70953488D01*
X113877669Y-71020040D01*
X113877703Y-71023469D01*
X113866472Y-73937886D01*
X113846529Y-74004849D01*
X113793549Y-74050400D01*
X113724353Y-74060077D01*
X113660910Y-74030807D01*
X113627906Y-73984847D01*
X113626561Y-73981600D01*
X113626557Y-73981588D01*
X113530051Y-73792184D01*
X113530049Y-73792181D01*
X113530048Y-73792179D01*
X113405109Y-73620213D01*
X113254786Y-73469890D01*
X113082820Y-73344951D01*
X112893414Y-73248444D01*
X112893413Y-73248443D01*
X112893412Y-73248443D01*
X112691243Y-73182754D01*
X112691241Y-73182753D01*
X112691240Y-73182753D01*
X112529957Y-73157208D01*
X112481287Y-73149500D01*
X112268713Y-73149500D01*
X112220042Y-73157208D01*
X112058760Y-73182753D01*
X111856585Y-73248444D01*
X111667179Y-73344951D01*
X111495213Y-73469890D01*
X111344890Y-73620213D01*
X111219951Y-73792179D01*
X111123444Y-73981585D01*
X111057753Y-74183760D01*
X111030571Y-74355383D01*
X111024500Y-74393713D01*
X111024500Y-74606287D01*
X111027976Y-74628231D01*
X111048983Y-74760870D01*
X111057754Y-74816243D01*
X111122769Y-75016339D01*
X111123444Y-75018414D01*
X111219951Y-75207820D01*
X111344890Y-75379786D01*
X111495213Y-75530109D01*
X111667179Y-75655048D01*
X111667181Y-75655049D01*
X111667184Y-75655051D01*
X111856588Y-75751557D01*
X112058757Y-75817246D01*
X112268713Y-75850500D01*
X112268714Y-75850500D01*
X112481286Y-75850500D01*
X112481287Y-75850500D01*
X112691243Y-75817246D01*
X112893412Y-75751557D01*
X113082816Y-75655051D01*
X113145406Y-75609577D01*
X113254786Y-75530109D01*
X113254788Y-75530106D01*
X113254792Y-75530104D01*
X113405104Y-75379792D01*
X113405106Y-75379788D01*
X113405109Y-75379786D01*
X113513009Y-75231272D01*
X113530051Y-75207816D01*
X113626557Y-75018412D01*
X113626557Y-75018410D01*
X113627613Y-75016339D01*
X113675587Y-74965542D01*
X113743408Y-74948747D01*
X113809543Y-74971284D01*
X113852995Y-75025999D01*
X113862097Y-75073111D01*
X113825475Y-84576719D01*
X113805532Y-84643682D01*
X113752552Y-84689233D01*
X113701719Y-84700241D01*
X112986770Y-84701640D01*
X112919692Y-84682086D01*
X112873834Y-84629372D01*
X112863755Y-84560233D01*
X112892655Y-84496621D01*
X112945571Y-84460599D01*
X112967882Y-84452793D01*
X113077150Y-84372150D01*
X113157793Y-84262882D01*
X113180219Y-84198790D01*
X113202646Y-84134701D01*
X113202646Y-84134699D01*
X113205500Y-84104269D01*
X113205500Y-81995730D01*
X113202646Y-81965300D01*
X113202646Y-81965298D01*
X113157793Y-81837119D01*
X113157792Y-81837117D01*
X113077150Y-81727850D01*
X112967882Y-81647207D01*
X112967879Y-81647206D01*
X112864744Y-81611117D01*
X112807969Y-81570395D01*
X112782222Y-81505442D01*
X112781700Y-81494076D01*
X112781700Y-78968574D01*
X112781699Y-78968570D01*
X112765064Y-78906483D01*
X112765062Y-78906477D01*
X112762844Y-78898198D01*
X112762844Y-78898197D01*
X112726415Y-78835102D01*
X112726414Y-78835101D01*
X112726412Y-78835098D01*
X110391419Y-76500105D01*
X110357934Y-76438782D01*
X110355100Y-76412424D01*
X110355100Y-73042405D01*
X110352259Y-73031804D01*
X110352259Y-73031803D01*
X110336244Y-72972030D01*
X110325426Y-72953294D01*
X110299818Y-72908940D01*
X110299812Y-72908931D01*
X109547160Y-72156281D01*
X109513675Y-72094958D01*
X109518659Y-72025267D01*
X109547156Y-71980923D01*
X109633164Y-71894916D01*
X109712221Y-71757984D01*
X109753144Y-71605257D01*
X109753144Y-71447143D01*
X109712221Y-71294416D01*
X109692057Y-71259490D01*
X109633168Y-71157490D01*
X109633162Y-71157482D01*
X109575680Y-71100000D01*
X110321210Y-71100000D01*
X110322854Y-71120910D01*
X110367968Y-71276195D01*
X110450278Y-71415374D01*
X110450285Y-71415383D01*
X110564616Y-71529714D01*
X110564625Y-71529721D01*
X110703804Y-71612031D01*
X110850000Y-71654504D01*
X110850000Y-71100000D01*
X110321210Y-71100000D01*
X109575680Y-71100000D01*
X109521361Y-71045681D01*
X109521353Y-71045675D01*
X109384432Y-70966624D01*
X109381142Y-70965262D01*
X109378792Y-70963368D01*
X109377390Y-70962559D01*
X109377516Y-70962340D01*
X109326737Y-70921422D01*
X109304671Y-70855128D01*
X109321949Y-70787429D01*
X109373085Y-70739817D01*
X109428592Y-70726700D01*
X109651428Y-70726700D01*
X109651433Y-70726699D01*
X109721803Y-70707844D01*
X109721804Y-70707844D01*
X109768988Y-70680601D01*
X109784898Y-70671415D01*
X110164234Y-70292079D01*
X110225557Y-70258594D01*
X110295248Y-70263578D01*
X110351182Y-70305449D01*
X110375599Y-70370914D01*
X110367989Y-70415688D01*
X110370144Y-70416314D01*
X110322855Y-70579081D01*
X110322854Y-70579087D01*
X110321209Y-70599999D01*
X110321210Y-70600000D01*
X110850000Y-70600000D01*
X110850000Y-70045494D01*
X110849998Y-70045493D01*
X110696313Y-70090144D01*
X110695512Y-70087389D01*
X110639618Y-70094267D01*
X110576667Y-70063954D01*
X110540097Y-70004419D01*
X110541520Y-69934563D01*
X110572080Y-69884233D01*
X113426412Y-67029901D01*
X113426415Y-67029898D01*
X113449513Y-66989892D01*
X113462844Y-66966804D01*
X113462844Y-66966803D01*
X113481699Y-66896433D01*
X113481700Y-66896427D01*
X113481700Y-64993572D01*
X113481699Y-64993569D01*
X113465199Y-64931987D01*
X113464752Y-64930318D01*
X113462844Y-64923197D01*
X113426415Y-64860102D01*
X113426414Y-64860101D01*
X113426412Y-64860098D01*
X112687724Y-64121411D01*
X112654239Y-64060088D01*
X112651947Y-64022151D01*
X112655500Y-63984267D01*
X112655500Y-63175730D01*
X112652646Y-63145300D01*
X112652646Y-63145298D01*
X112610125Y-63023782D01*
X112607793Y-63017118D01*
X112527150Y-62907850D01*
X112417882Y-62827207D01*
X112417880Y-62827206D01*
X112289700Y-62782353D01*
X112259270Y-62779500D01*
X112259266Y-62779500D01*
X112155700Y-62779500D01*
X112088661Y-62759815D01*
X112042906Y-62707011D01*
X112031700Y-62655500D01*
X112031700Y-61924941D01*
X112051385Y-61857902D01*
X112103294Y-61812560D01*
X112123316Y-61803224D01*
X112208224Y-61718316D01*
X112258972Y-61609487D01*
X112265500Y-61559901D01*
X112265499Y-61200100D01*
X112258972Y-61150513D01*
X112208224Y-61041684D01*
X112154221Y-60987681D01*
X112120736Y-60926358D01*
X112125720Y-60856666D01*
X112154221Y-60812319D01*
X112176117Y-60790423D01*
X112208224Y-60758316D01*
X112258972Y-60649487D01*
X112265500Y-60599901D01*
X112265499Y-60240100D01*
X112258972Y-60190513D01*
X112208224Y-60081684D01*
X112123316Y-59996776D01*
X112014487Y-59946028D01*
X112014485Y-59946027D01*
X112014486Y-59946027D01*
X111964901Y-59939500D01*
X111545105Y-59939500D01*
X111529386Y-59941569D01*
X111495513Y-59946028D01*
X111495511Y-59946029D01*
X111495509Y-59946029D01*
X111386683Y-59996776D01*
X111329029Y-60054431D01*
X111267706Y-60087916D01*
X111198014Y-60082932D01*
X111153667Y-60054431D01*
X111068717Y-59969481D01*
X111068709Y-59969475D01*
X110931790Y-59890426D01*
X110931786Y-59890424D01*
X110931784Y-59890423D01*
X110931782Y-59890422D01*
X110931779Y-59890421D01*
X110895508Y-59880702D01*
X110839922Y-59848609D01*
X110369901Y-59378587D01*
X110369892Y-59378581D01*
X110306804Y-59342155D01*
X110236433Y-59323300D01*
X110236428Y-59323300D01*
X110099500Y-59323300D01*
X110032461Y-59303615D01*
X109986706Y-59250811D01*
X109975500Y-59199300D01*
X109975500Y-59070730D01*
X109972646Y-59040300D01*
X109972646Y-59040298D01*
X109927793Y-58912119D01*
X109927792Y-58912117D01*
X109847150Y-58802850D01*
X109737882Y-58722207D01*
X109737880Y-58722206D01*
X109609700Y-58677353D01*
X109579270Y-58674500D01*
X109579266Y-58674500D01*
X108970734Y-58674500D01*
X108970730Y-58674500D01*
X108940300Y-58677353D01*
X108940298Y-58677353D01*
X108812119Y-58722206D01*
X108812117Y-58722207D01*
X108702850Y-58802850D01*
X108622207Y-58912117D01*
X108599842Y-58976033D01*
X108559120Y-59032808D01*
X108494167Y-59058555D01*
X108425605Y-59045098D01*
X108375203Y-58996711D01*
X108365095Y-58974081D01*
X108309358Y-58805880D01*
X108309356Y-58805875D01*
X108217315Y-58656654D01*
X108093345Y-58532684D01*
X107944124Y-58440643D01*
X107944119Y-58440641D01*
X107777697Y-58385494D01*
X107777690Y-58385493D01*
X107674986Y-58375000D01*
X107625000Y-58375000D01*
X107625000Y-60824999D01*
X107674972Y-60824999D01*
X107674986Y-60824998D01*
X107777697Y-60814505D01*
X107944119Y-60759358D01*
X107944124Y-60759356D01*
X108093345Y-60667315D01*
X108217315Y-60543345D01*
X108309356Y-60394124D01*
X108309359Y-60394117D01*
X108365094Y-60225918D01*
X108404866Y-60168473D01*
X108469382Y-60141649D01*
X108538158Y-60153964D01*
X108589358Y-60201506D01*
X108599841Y-60223965D01*
X108622207Y-60287882D01*
X108702850Y-60397150D01*
X108812118Y-60477793D01*
X108854845Y-60492744D01*
X108940299Y-60522646D01*
X108970730Y-60525500D01*
X108970734Y-60525500D01*
X109579270Y-60525500D01*
X109609699Y-60522646D01*
X109609701Y-60522646D01*
X109673790Y-60500219D01*
X109737882Y-60477793D01*
X109847150Y-60397150D01*
X109875731Y-60358422D01*
X109896643Y-60342544D01*
X109915032Y-60323801D01*
X109924027Y-60321753D01*
X109931376Y-60316174D01*
X109957557Y-60314122D01*
X109983160Y-60308295D01*
X109991834Y-60311435D01*
X110001032Y-60310715D01*
X110024164Y-60323142D01*
X110048855Y-60332083D01*
X110054454Y-60339415D01*
X110062582Y-60343782D01*
X110075323Y-60366742D01*
X110091261Y-60387613D01*
X110093446Y-60399401D01*
X110096484Y-60404876D01*
X110099094Y-60422027D01*
X110099500Y-60427029D01*
X110099500Y-60529057D01*
X110111379Y-60573393D01*
X110112289Y-60584597D01*
X110107381Y-60608247D01*
X110106806Y-60632386D01*
X110100082Y-60643416D01*
X110098092Y-60653009D01*
X110087907Y-60663390D01*
X110076376Y-60682309D01*
X109333587Y-61425098D01*
X109297154Y-61488200D01*
X109292931Y-61503962D01*
X109292931Y-61503964D01*
X109278300Y-61558568D01*
X109278300Y-62612624D01*
X109258615Y-62679663D01*
X109205811Y-62725418D01*
X109136653Y-62735362D01*
X109073097Y-62706337D01*
X109066619Y-62700305D01*
X108614901Y-62248587D01*
X108614892Y-62248581D01*
X108551804Y-62212155D01*
X108481433Y-62193300D01*
X108481428Y-62193300D01*
X108085918Y-62193300D01*
X108018879Y-62173615D01*
X107984344Y-62140424D01*
X107978224Y-62131684D01*
X107893316Y-62046776D01*
X107841140Y-62022446D01*
X107784487Y-61996028D01*
X107784485Y-61996027D01*
X107784486Y-61996027D01*
X107734901Y-61989500D01*
X107315105Y-61989500D01*
X107299386Y-61991569D01*
X107265513Y-61996028D01*
X107265511Y-61996029D01*
X107265509Y-61996029D01*
X107156683Y-62046776D01*
X107112681Y-62090779D01*
X107051358Y-62124264D01*
X106981666Y-62119280D01*
X106937319Y-62090779D01*
X106893316Y-62046776D01*
X106841140Y-62022446D01*
X106784487Y-61996028D01*
X106784485Y-61996027D01*
X106784486Y-61996027D01*
X106734901Y-61989500D01*
X106315105Y-61989500D01*
X106299386Y-61991569D01*
X106265513Y-61996028D01*
X106265511Y-61996029D01*
X106265509Y-61996029D01*
X106156683Y-62046776D01*
X106112681Y-62090779D01*
X106051358Y-62124264D01*
X105981666Y-62119280D01*
X105937319Y-62090779D01*
X105893316Y-62046776D01*
X105841140Y-62022446D01*
X105784487Y-61996028D01*
X105784485Y-61996027D01*
X105784486Y-61996027D01*
X105734901Y-61989500D01*
X105315105Y-61989500D01*
X105299386Y-61991569D01*
X105265513Y-61996028D01*
X105265511Y-61996029D01*
X105265509Y-61996029D01*
X105156683Y-62046776D01*
X105071776Y-62131683D01*
X105021027Y-62240514D01*
X105014500Y-62290097D01*
X105014500Y-62649894D01*
X105014501Y-62649900D01*
X105021028Y-62699487D01*
X105021029Y-62699489D01*
X105021029Y-62699490D01*
X105071776Y-62808316D01*
X105125779Y-62862319D01*
X105159264Y-62923642D01*
X105154280Y-62993334D01*
X105125779Y-63037681D01*
X105071776Y-63091683D01*
X105021027Y-63200514D01*
X105014500Y-63250098D01*
X105014500Y-63343006D01*
X104994815Y-63410045D01*
X104942011Y-63455800D01*
X104872853Y-63465744D01*
X104809297Y-63436719D01*
X104771523Y-63377941D01*
X104770725Y-63375100D01*
X104768738Y-63367685D01*
X104764422Y-63351575D01*
X104734645Y-63299999D01*
X104685369Y-63214649D01*
X104685363Y-63214641D01*
X104573562Y-63102840D01*
X104573554Y-63102834D01*
X104436635Y-63023785D01*
X104436631Y-63023783D01*
X104436629Y-63023782D01*
X104283902Y-62982859D01*
X104249500Y-62982859D01*
X104182461Y-62963174D01*
X104136706Y-62910370D01*
X104125500Y-62858859D01*
X104125500Y-62770945D01*
X104125500Y-62770943D01*
X104084577Y-62618216D01*
X104084573Y-62618209D01*
X104005524Y-62481290D01*
X104005518Y-62481282D01*
X103893717Y-62369481D01*
X103893709Y-62369475D01*
X103756790Y-62290426D01*
X103756786Y-62290424D01*
X103756784Y-62290423D01*
X103604057Y-62249500D01*
X103445943Y-62249500D01*
X103293216Y-62290423D01*
X103293209Y-62290426D01*
X103156290Y-62369475D01*
X103156282Y-62369481D01*
X103044481Y-62481282D01*
X103044475Y-62481290D01*
X102965426Y-62618209D01*
X102965423Y-62618216D01*
X102924500Y-62770943D01*
X102924500Y-62929057D01*
X102965085Y-63080520D01*
X102965423Y-63081783D01*
X102965426Y-63081790D01*
X103044475Y-63218709D01*
X103044479Y-63218714D01*
X103044480Y-63218716D01*
X103156284Y-63330520D01*
X103186300Y-63347849D01*
X103234514Y-63398413D01*
X103248300Y-63455236D01*
X103248300Y-64184025D01*
X103228615Y-64251064D01*
X103211981Y-64271706D01*
X102998805Y-64484881D01*
X102937482Y-64518366D01*
X102867790Y-64513382D01*
X102811857Y-64471510D01*
X102787440Y-64406046D01*
X102802292Y-64337773D01*
X102803717Y-64335234D01*
X102834577Y-64281784D01*
X102875500Y-64129057D01*
X102875500Y-63970943D01*
X102834577Y-63818216D01*
X102815047Y-63784388D01*
X102755524Y-63681290D01*
X102755518Y-63681282D01*
X102643717Y-63569481D01*
X102643709Y-63569475D01*
X102506790Y-63490426D01*
X102506785Y-63490423D01*
X102421540Y-63467582D01*
X102380945Y-63456704D01*
X102321286Y-63420340D01*
X102290757Y-63357493D01*
X102293964Y-63302335D01*
X102332144Y-63170918D01*
X102332145Y-63170912D01*
X102333790Y-63150000D01*
X101679000Y-63150000D01*
X101611961Y-63130315D01*
X101566206Y-63077511D01*
X101555000Y-63026000D01*
X101555000Y-62900000D01*
X101429000Y-62900000D01*
X101361961Y-62880315D01*
X101316206Y-62827511D01*
X101305000Y-62776000D01*
X101305000Y-62095494D01*
X101805000Y-62095494D01*
X101805000Y-62650000D01*
X102333790Y-62650000D01*
X102332145Y-62629089D01*
X102287031Y-62473804D01*
X102204721Y-62334625D01*
X102204714Y-62334616D01*
X102090383Y-62220285D01*
X102090374Y-62220278D01*
X101951193Y-62137967D01*
X101951190Y-62137965D01*
X101805001Y-62095493D01*
X101805000Y-62095494D01*
X101305000Y-62095494D01*
X101304998Y-62095493D01*
X101158809Y-62137965D01*
X101158806Y-62137967D01*
X101019625Y-62220278D01*
X101019620Y-62220282D01*
X100905282Y-62334621D01*
X100900499Y-62340788D01*
X100898544Y-62339272D01*
X100856362Y-62378644D01*
X100787618Y-62391135D01*
X100784537Y-62390768D01*
X100774904Y-62389500D01*
X100516123Y-62389500D01*
X100449084Y-62369815D01*
X100403329Y-62317011D01*
X100393385Y-62247853D01*
X100422410Y-62184297D01*
X100428423Y-62177838D01*
X101565460Y-61040803D01*
X101583488Y-61009577D01*
X101605021Y-60972281D01*
X101625500Y-60895854D01*
X101625500Y-60124986D01*
X106375001Y-60124986D01*
X106385494Y-60227697D01*
X106440641Y-60394119D01*
X106440643Y-60394124D01*
X106532684Y-60543345D01*
X106656654Y-60667315D01*
X106805875Y-60759356D01*
X106805880Y-60759358D01*
X106972302Y-60814505D01*
X106972309Y-60814506D01*
X107075019Y-60824999D01*
X107124999Y-60824998D01*
X107125000Y-60824998D01*
X107125000Y-59850000D01*
X106375001Y-59850000D01*
X106375001Y-60124986D01*
X101625500Y-60124986D01*
X101625500Y-59075013D01*
X106375000Y-59075013D01*
X106375000Y-59350000D01*
X107125000Y-59350000D01*
X107125000Y-58375000D01*
X107124999Y-58374999D01*
X107075029Y-58375000D01*
X107075011Y-58375001D01*
X106972302Y-58385494D01*
X106805880Y-58440641D01*
X106805875Y-58440643D01*
X106656654Y-58532684D01*
X106532684Y-58656654D01*
X106440643Y-58805875D01*
X106440641Y-58805880D01*
X106385494Y-58972302D01*
X106385493Y-58972309D01*
X106375000Y-59075013D01*
X101625500Y-59075013D01*
X101625500Y-57864500D01*
X101645185Y-57797461D01*
X101697989Y-57751706D01*
X101749500Y-57740500D01*
X102034749Y-57740500D01*
X102045030Y-57738454D01*
X102050805Y-57737306D01*
X102099195Y-57737306D01*
X102102715Y-57738006D01*
X102115250Y-57740500D01*
X102115252Y-57740500D01*
X102534749Y-57740500D01*
X102545030Y-57738454D01*
X102550805Y-57737306D01*
X102599195Y-57737306D01*
X102602715Y-57738006D01*
X102615250Y-57740500D01*
X102615252Y-57740500D01*
X103034749Y-57740500D01*
X103045030Y-57738454D01*
X103050805Y-57737306D01*
X103099195Y-57737306D01*
X103102715Y-57738006D01*
X103115250Y-57740500D01*
X103115252Y-57740500D01*
X103534749Y-57740500D01*
X103545030Y-57738454D01*
X103550805Y-57737306D01*
X103599195Y-57737306D01*
X103602715Y-57738006D01*
X103615250Y-57740500D01*
X103615252Y-57740500D01*
X104034750Y-57740500D01*
X104034751Y-57740499D01*
X104050805Y-57737306D01*
X104093229Y-57728868D01*
X104093229Y-57728867D01*
X104093231Y-57728867D01*
X104159552Y-57684552D01*
X104203867Y-57618231D01*
X104203867Y-57618229D01*
X104203868Y-57618229D01*
X104215499Y-57559752D01*
X104215500Y-57559750D01*
X104215500Y-57144851D01*
X104235185Y-57077812D01*
X104287989Y-57032057D01*
X104357147Y-57022113D01*
X104367991Y-57024636D01*
X104373445Y-57025499D01*
X104373446Y-57025500D01*
X104373447Y-57025500D01*
X105526553Y-57025500D01*
X105526554Y-57025500D01*
X105624616Y-56993637D01*
X105708032Y-56933032D01*
X105713121Y-56926027D01*
X105768448Y-56883362D01*
X105838062Y-56877381D01*
X105882330Y-56895810D01*
X105946769Y-56938867D01*
X105946770Y-56938868D01*
X106005247Y-56950499D01*
X106005250Y-56950500D01*
X106005252Y-56950500D01*
X107544750Y-56950500D01*
X107544751Y-56950499D01*
X107559568Y-56947552D01*
X107603229Y-56938868D01*
X107603229Y-56938867D01*
X107603231Y-56938867D01*
X107669552Y-56894552D01*
X107713867Y-56828231D01*
X107713867Y-56828229D01*
X107713868Y-56828229D01*
X107725499Y-56769752D01*
X107725500Y-56769750D01*
X107725500Y-55334564D01*
X107745185Y-55267525D01*
X107797989Y-55221770D01*
X107849236Y-55210564D01*
X112702474Y-55200260D01*
X112769555Y-55219802D01*
G37*
%TD.AperFunction*%
%TA.AperFunction,Conductor*%
G36*
X101493834Y-72667230D02*
G01*
X101549767Y-72709102D01*
X101574184Y-72774566D01*
X101574500Y-72783412D01*
X101574500Y-73499674D01*
X101589034Y-73572740D01*
X101592116Y-73577353D01*
X101595683Y-73594437D01*
X101594988Y-73603127D01*
X101598300Y-73619776D01*
X101598300Y-74245500D01*
X101578615Y-74312539D01*
X101525811Y-74358294D01*
X101474300Y-74369500D01*
X101300683Y-74369500D01*
X101251828Y-74375931D01*
X101144595Y-74425935D01*
X101060934Y-74509596D01*
X101060934Y-74509597D01*
X101035111Y-74564973D01*
X100988938Y-74617412D01*
X100954823Y-74632342D01*
X100918195Y-74642156D01*
X100855107Y-74678581D01*
X100855098Y-74678587D01*
X100318587Y-75215098D01*
X100318581Y-75215107D01*
X100282156Y-75278194D01*
X100273701Y-75309751D01*
X100237336Y-75369411D01*
X100233270Y-75372949D01*
X100225110Y-75379742D01*
X100156284Y-75419480D01*
X100051303Y-75524460D01*
X100046960Y-75528077D01*
X100019879Y-75539805D01*
X99993974Y-75553951D01*
X99988177Y-75553536D01*
X99982845Y-75555846D01*
X99953723Y-75551072D01*
X99924282Y-75548967D01*
X99918599Y-75545314D01*
X99913896Y-75544544D01*
X99905196Y-75536701D01*
X99879935Y-75520466D01*
X99847733Y-75488264D01*
X99850561Y-75485435D01*
X99819843Y-75447023D01*
X99812635Y-75377526D01*
X99844143Y-75315165D01*
X99847903Y-75311906D01*
X99847733Y-75311736D01*
X99889721Y-75269748D01*
X99939065Y-75220404D01*
X99989068Y-75113173D01*
X99995500Y-75064316D01*
X99995500Y-74715684D01*
X99989068Y-74666827D01*
X99939065Y-74559596D01*
X99938318Y-74557994D01*
X99935878Y-74546990D01*
X99931723Y-74540524D01*
X99926700Y-74505589D01*
X99926700Y-74455236D01*
X99946385Y-74388197D01*
X99988699Y-74347849D01*
X100018716Y-74330520D01*
X100130520Y-74218716D01*
X100209577Y-74081784D01*
X100250500Y-73929057D01*
X100250500Y-73770943D01*
X100209577Y-73618216D01*
X100206185Y-73612340D01*
X100130524Y-73481290D01*
X100130518Y-73481282D01*
X100018717Y-73369481D01*
X100018712Y-73369477D01*
X99988700Y-73352150D01*
X99980417Y-73343463D01*
X99969497Y-73338476D01*
X99956750Y-73318642D01*
X99940485Y-73301583D01*
X99937269Y-73288328D01*
X99931723Y-73279698D01*
X99926700Y-73244763D01*
X99926700Y-73040975D01*
X99946385Y-72973936D01*
X99963019Y-72953294D01*
X100153294Y-72763019D01*
X100214617Y-72729534D01*
X100240975Y-72726700D01*
X100305224Y-72726700D01*
X100340265Y-72733669D01*
X100340283Y-72733584D01*
X100425323Y-72750500D01*
X100425326Y-72750500D01*
X101308050Y-72750500D01*
X101362819Y-72695731D01*
X101424142Y-72662246D01*
X101493834Y-72667230D01*
G37*
%TD.AperFunction*%
%TA.AperFunction,Conductor*%
G36*
X101098039Y-64069685D02*
G01*
X101143794Y-64122489D01*
X101155000Y-64174000D01*
X101155000Y-64854503D01*
X101301195Y-64812031D01*
X101440374Y-64729721D01*
X101440383Y-64729714D01*
X101554714Y-64615383D01*
X101554720Y-64615374D01*
X101635528Y-64478737D01*
X101650003Y-64465220D01*
X101660637Y-64448511D01*
X101675018Y-64441864D01*
X101686597Y-64431054D01*
X101706081Y-64427509D01*
X101724061Y-64419201D01*
X101739752Y-64421385D01*
X101755339Y-64418550D01*
X101773646Y-64426102D01*
X101793264Y-64428833D01*
X101812519Y-64442138D01*
X101819928Y-64445195D01*
X101823041Y-64447781D01*
X101826606Y-64450842D01*
X101906284Y-64530520D01*
X101946312Y-64553629D01*
X101955081Y-64561159D01*
X101968060Y-64581157D01*
X101984514Y-64598413D01*
X101987650Y-64611341D01*
X101993119Y-64619767D01*
X101993183Y-64634147D01*
X101998300Y-64655236D01*
X101998300Y-65680224D01*
X101991330Y-65715265D01*
X101991416Y-65715283D01*
X101974500Y-65800323D01*
X101974500Y-66624678D01*
X101989032Y-66697735D01*
X101989033Y-66697739D01*
X101989034Y-66697740D01*
X102044399Y-66780601D01*
X102113099Y-66826504D01*
X102127260Y-66835966D01*
X102127264Y-66835967D01*
X102200321Y-66850499D01*
X102200324Y-66850500D01*
X102200326Y-66850500D01*
X102349676Y-66850500D01*
X102349677Y-66850499D01*
X102374029Y-66845655D01*
X102422732Y-66835968D01*
X102422733Y-66835967D01*
X102422740Y-66835966D01*
X102422745Y-66835962D01*
X102427539Y-66833977D01*
X102497008Y-66826504D01*
X102522461Y-66833977D01*
X102527256Y-66835963D01*
X102527260Y-66835966D01*
X102527264Y-66835966D01*
X102527267Y-66835968D01*
X102600321Y-66850499D01*
X102600324Y-66850500D01*
X102600326Y-66850500D01*
X102749676Y-66850500D01*
X102749677Y-66850499D01*
X102774029Y-66845655D01*
X102822732Y-66835968D01*
X102822733Y-66835967D01*
X102822740Y-66835966D01*
X102822745Y-66835962D01*
X102827539Y-66833977D01*
X102897008Y-66826504D01*
X102922461Y-66833977D01*
X102927256Y-66835963D01*
X102927260Y-66835966D01*
X102927264Y-66835966D01*
X102927267Y-66835968D01*
X103000321Y-66850499D01*
X103000324Y-66850500D01*
X103000326Y-66850500D01*
X103149676Y-66850500D01*
X103149677Y-66850499D01*
X103174029Y-66845655D01*
X103222732Y-66835968D01*
X103222733Y-66835967D01*
X103222740Y-66835966D01*
X103222745Y-66835962D01*
X103227539Y-66833977D01*
X103297008Y-66826504D01*
X103322461Y-66833977D01*
X103327256Y-66835963D01*
X103327260Y-66835966D01*
X103327264Y-66835966D01*
X103327267Y-66835968D01*
X103400321Y-66850499D01*
X103400324Y-66850500D01*
X103400326Y-66850500D01*
X103549676Y-66850500D01*
X103549677Y-66850499D01*
X103574029Y-66845655D01*
X103622732Y-66835968D01*
X103622733Y-66835967D01*
X103622740Y-66835966D01*
X103622745Y-66835962D01*
X103627539Y-66833977D01*
X103697008Y-66826504D01*
X103722461Y-66833977D01*
X103727256Y-66835963D01*
X103727260Y-66835966D01*
X103727264Y-66835966D01*
X103727267Y-66835968D01*
X103800321Y-66850499D01*
X103800324Y-66850500D01*
X103800326Y-66850500D01*
X103949676Y-66850500D01*
X103949677Y-66850499D01*
X104022740Y-66835966D01*
X104105601Y-66780601D01*
X104160966Y-66697740D01*
X104160966Y-66697739D01*
X104167751Y-66687585D01*
X104168984Y-66688409D01*
X104204278Y-66644610D01*
X104270571Y-66622544D01*
X104338271Y-66639822D01*
X104385883Y-66690958D01*
X104388862Y-66697482D01*
X104389033Y-66697739D01*
X104389034Y-66697740D01*
X104444399Y-66780601D01*
X104513099Y-66826504D01*
X104527260Y-66835966D01*
X104527264Y-66835967D01*
X104600321Y-66850499D01*
X104600324Y-66850500D01*
X104600326Y-66850500D01*
X104749676Y-66850500D01*
X104749677Y-66850499D01*
X104774029Y-66845655D01*
X104822732Y-66835968D01*
X104822733Y-66835967D01*
X104822740Y-66835966D01*
X104822745Y-66835962D01*
X104827539Y-66833977D01*
X104897008Y-66826504D01*
X104922461Y-66833977D01*
X104927256Y-66835963D01*
X104927260Y-66835966D01*
X104927264Y-66835966D01*
X104927267Y-66835968D01*
X105000321Y-66850499D01*
X105000324Y-66850500D01*
X105000326Y-66850500D01*
X105149676Y-66850500D01*
X105149677Y-66850499D01*
X105174029Y-66845655D01*
X105222732Y-66835968D01*
X105222733Y-66835967D01*
X105222740Y-66835966D01*
X105222745Y-66835962D01*
X105227539Y-66833977D01*
X105297008Y-66826504D01*
X105322461Y-66833977D01*
X105327256Y-66835963D01*
X105327260Y-66835966D01*
X105327264Y-66835966D01*
X105327267Y-66835968D01*
X105400321Y-66850499D01*
X105400324Y-66850500D01*
X105400326Y-66850500D01*
X105549676Y-66850500D01*
X105549677Y-66850499D01*
X105574029Y-66845655D01*
X105622732Y-66835968D01*
X105622733Y-66835967D01*
X105622740Y-66835966D01*
X105622745Y-66835962D01*
X105627539Y-66833977D01*
X105697008Y-66826504D01*
X105722461Y-66833977D01*
X105727256Y-66835963D01*
X105727260Y-66835966D01*
X105727264Y-66835966D01*
X105727267Y-66835968D01*
X105800321Y-66850499D01*
X105800324Y-66850500D01*
X105800326Y-66850500D01*
X105949676Y-66850500D01*
X105949677Y-66850499D01*
X105974029Y-66845655D01*
X106022732Y-66835968D01*
X106022733Y-66835967D01*
X106022740Y-66835966D01*
X106022745Y-66835962D01*
X106027539Y-66833977D01*
X106097008Y-66826504D01*
X106122461Y-66833977D01*
X106127256Y-66835963D01*
X106127260Y-66835966D01*
X106127264Y-66835966D01*
X106127267Y-66835968D01*
X106200321Y-66850499D01*
X106200324Y-66850500D01*
X106200326Y-66850500D01*
X106349676Y-66850500D01*
X106349677Y-66850499D01*
X106374029Y-66845655D01*
X106422732Y-66835968D01*
X106422733Y-66835967D01*
X106422740Y-66835966D01*
X106422745Y-66835962D01*
X106427539Y-66833977D01*
X106497008Y-66826504D01*
X106522461Y-66833977D01*
X106527256Y-66835963D01*
X106527260Y-66835966D01*
X106527264Y-66835966D01*
X106527267Y-66835968D01*
X106600321Y-66850499D01*
X106600324Y-66850500D01*
X106600326Y-66850500D01*
X106749676Y-66850500D01*
X106749677Y-66850499D01*
X106774029Y-66845655D01*
X106822732Y-66835968D01*
X106822733Y-66835967D01*
X106822740Y-66835966D01*
X106822745Y-66835962D01*
X106827539Y-66833977D01*
X106896113Y-66826346D01*
X106918704Y-66830249D01*
X106927260Y-66835966D01*
X107000326Y-66850500D01*
X107035899Y-66850500D01*
X107046380Y-66852311D01*
X107068576Y-66863217D01*
X107092306Y-66870185D01*
X107099385Y-66878355D01*
X107109089Y-66883123D01*
X107121866Y-66904299D01*
X107138061Y-66922989D01*
X107139599Y-66933689D01*
X107145185Y-66942946D01*
X107144485Y-66967667D01*
X107148005Y-66992147D01*
X107143456Y-67004017D01*
X107143208Y-67012788D01*
X107136123Y-67023154D01*
X107128369Y-67043388D01*
X107121617Y-67053496D01*
X107089034Y-67102259D01*
X107089032Y-67102264D01*
X107074500Y-67175321D01*
X107074500Y-67175326D01*
X107074500Y-67324674D01*
X107074500Y-67324676D01*
X107074499Y-67324676D01*
X107089033Y-67397740D01*
X107091025Y-67402548D01*
X107098494Y-67472017D01*
X107091025Y-67497452D01*
X107089033Y-67502259D01*
X107074500Y-67575323D01*
X107074500Y-67575326D01*
X107074500Y-67724674D01*
X107074500Y-67724676D01*
X107074499Y-67724676D01*
X107089033Y-67797740D01*
X107091025Y-67802548D01*
X107098494Y-67872017D01*
X107091025Y-67897452D01*
X107089033Y-67902259D01*
X107074500Y-67975323D01*
X107074500Y-67975326D01*
X107074500Y-68124674D01*
X107074500Y-68124676D01*
X107074499Y-68124676D01*
X107089033Y-68197740D01*
X107091025Y-68202548D01*
X107098494Y-68272017D01*
X107091025Y-68297452D01*
X107089033Y-68302259D01*
X107074500Y-68375323D01*
X107074500Y-68375326D01*
X107074500Y-68524674D01*
X107074500Y-68524676D01*
X107074499Y-68524676D01*
X107089033Y-68597740D01*
X107091025Y-68602548D01*
X107098494Y-68672017D01*
X107091025Y-68697452D01*
X107089033Y-68702259D01*
X107074500Y-68775323D01*
X107074500Y-68775326D01*
X107074500Y-68924674D01*
X107074500Y-68924676D01*
X107074499Y-68924676D01*
X107089033Y-68997740D01*
X107091025Y-69002548D01*
X107098494Y-69072017D01*
X107091025Y-69097452D01*
X107089033Y-69102259D01*
X107074500Y-69175323D01*
X107074500Y-69175326D01*
X107074500Y-69324674D01*
X107074500Y-69324676D01*
X107074499Y-69324676D01*
X107089033Y-69397740D01*
X107091025Y-69402548D01*
X107098494Y-69472017D01*
X107091025Y-69497452D01*
X107089033Y-69502259D01*
X107074500Y-69575323D01*
X107074500Y-69575326D01*
X107074500Y-69724674D01*
X107074500Y-69724676D01*
X107074499Y-69724676D01*
X107089033Y-69797740D01*
X107091025Y-69802548D01*
X107098494Y-69872017D01*
X107091025Y-69897452D01*
X107089033Y-69902259D01*
X107074500Y-69975323D01*
X107074500Y-69975326D01*
X107074500Y-70124674D01*
X107074500Y-70124676D01*
X107074499Y-70124676D01*
X107089033Y-70197740D01*
X107091025Y-70202548D01*
X107098494Y-70272017D01*
X107091025Y-70297452D01*
X107089033Y-70302259D01*
X107074500Y-70375323D01*
X107074500Y-70524678D01*
X107089032Y-70597735D01*
X107089033Y-70597739D01*
X107099942Y-70614065D01*
X107144399Y-70680601D01*
X107227208Y-70735931D01*
X107237415Y-70742751D01*
X107236591Y-70743983D01*
X107280391Y-70779281D01*
X107302455Y-70845576D01*
X107285175Y-70913275D01*
X107234037Y-70960885D01*
X107227516Y-70963862D01*
X107144399Y-71019399D01*
X107089033Y-71102260D01*
X107089032Y-71102264D01*
X107074500Y-71175321D01*
X107074500Y-71175326D01*
X107074500Y-71324674D01*
X107074500Y-71324676D01*
X107074499Y-71324676D01*
X107089033Y-71397740D01*
X107091025Y-71402548D01*
X107098494Y-71472017D01*
X107091025Y-71497452D01*
X107089033Y-71502259D01*
X107074500Y-71575323D01*
X107074500Y-71575326D01*
X107074500Y-71724674D01*
X107074500Y-71724676D01*
X107074499Y-71724676D01*
X107089033Y-71797740D01*
X107091025Y-71802548D01*
X107098494Y-71872017D01*
X107091025Y-71897452D01*
X107089033Y-71902259D01*
X107074500Y-71975323D01*
X107074500Y-71975326D01*
X107074500Y-72124674D01*
X107074500Y-72124676D01*
X107074499Y-72124676D01*
X107089033Y-72197740D01*
X107091025Y-72202548D01*
X107098494Y-72272017D01*
X107097004Y-72279087D01*
X107092756Y-72296688D01*
X107089034Y-72302260D01*
X107077872Y-72358371D01*
X107077280Y-72360827D01*
X107061049Y-72389018D01*
X107045972Y-72417843D01*
X107043715Y-72419128D01*
X107042420Y-72421378D01*
X107013535Y-72436313D01*
X106985256Y-72452417D01*
X106980932Y-72453357D01*
X106927259Y-72464033D01*
X106922452Y-72466025D01*
X106852983Y-72473494D01*
X106827548Y-72466025D01*
X106822740Y-72464033D01*
X106749676Y-72449500D01*
X106749674Y-72449500D01*
X106600326Y-72449500D01*
X106600324Y-72449500D01*
X106527259Y-72464033D01*
X106522452Y-72466025D01*
X106452983Y-72473494D01*
X106427548Y-72466025D01*
X106422740Y-72464033D01*
X106349676Y-72449500D01*
X106349674Y-72449500D01*
X106200326Y-72449500D01*
X106200324Y-72449500D01*
X106127259Y-72464033D01*
X106122452Y-72466025D01*
X106052983Y-72473494D01*
X106027548Y-72466025D01*
X106022740Y-72464033D01*
X105949676Y-72449500D01*
X105949674Y-72449500D01*
X105800326Y-72449500D01*
X105800323Y-72449500D01*
X105727264Y-72464032D01*
X105727260Y-72464033D01*
X105668390Y-72503369D01*
X105644399Y-72519399D01*
X105601870Y-72583050D01*
X105582249Y-72612415D01*
X105581016Y-72611591D01*
X105545719Y-72655391D01*
X105479424Y-72677455D01*
X105411725Y-72660175D01*
X105364115Y-72609037D01*
X105361137Y-72602516D01*
X105360966Y-72602260D01*
X105305601Y-72519399D01*
X105222740Y-72464034D01*
X105222739Y-72464033D01*
X105222735Y-72464032D01*
X105149677Y-72449500D01*
X105149674Y-72449500D01*
X105000326Y-72449500D01*
X105000324Y-72449500D01*
X104927259Y-72464033D01*
X104922452Y-72466025D01*
X104852983Y-72473494D01*
X104827548Y-72466025D01*
X104822740Y-72464033D01*
X104749676Y-72449500D01*
X104749674Y-72449500D01*
X104600326Y-72449500D01*
X104600324Y-72449500D01*
X104527259Y-72464033D01*
X104522452Y-72466025D01*
X104452983Y-72473494D01*
X104427548Y-72466025D01*
X104422740Y-72464033D01*
X104349676Y-72449500D01*
X104349674Y-72449500D01*
X104200326Y-72449500D01*
X104200324Y-72449500D01*
X104127259Y-72464033D01*
X104122452Y-72466025D01*
X104052983Y-72473494D01*
X104027548Y-72466025D01*
X104022740Y-72464033D01*
X103949676Y-72449500D01*
X103949674Y-72449500D01*
X103800326Y-72449500D01*
X103800324Y-72449500D01*
X103727259Y-72464033D01*
X103722452Y-72466025D01*
X103652983Y-72473494D01*
X103627548Y-72466025D01*
X103622740Y-72464033D01*
X103549676Y-72449500D01*
X103549674Y-72449500D01*
X103400326Y-72449500D01*
X103400324Y-72449500D01*
X103327259Y-72464033D01*
X103322452Y-72466025D01*
X103252983Y-72473494D01*
X103227548Y-72466025D01*
X103222740Y-72464033D01*
X103149676Y-72449500D01*
X103149674Y-72449500D01*
X103000326Y-72449500D01*
X103000324Y-72449500D01*
X102927259Y-72464033D01*
X102922452Y-72466025D01*
X102852983Y-72473494D01*
X102827548Y-72466025D01*
X102822740Y-72464033D01*
X102749676Y-72449500D01*
X102749674Y-72449500D01*
X102600326Y-72449500D01*
X102600324Y-72449500D01*
X102527259Y-72464033D01*
X102522452Y-72466025D01*
X102452983Y-72473494D01*
X102427548Y-72466025D01*
X102422740Y-72464033D01*
X102349676Y-72449500D01*
X102349674Y-72449500D01*
X102200326Y-72449500D01*
X102200324Y-72449500D01*
X102127259Y-72464033D01*
X102122452Y-72466025D01*
X102052983Y-72473494D01*
X102027548Y-72466025D01*
X102022740Y-72464033D01*
X101949676Y-72449500D01*
X101949674Y-72449500D01*
X101800326Y-72449500D01*
X101800323Y-72449500D01*
X101727264Y-72464032D01*
X101727260Y-72464033D01*
X101668390Y-72503369D01*
X101601712Y-72524246D01*
X101534332Y-72505761D01*
X101487642Y-72453781D01*
X101477311Y-72421380D01*
X101475500Y-72410899D01*
X101475500Y-72375326D01*
X101460966Y-72302260D01*
X101455249Y-72293704D01*
X101451346Y-72271114D01*
X101453824Y-72249561D01*
X101451504Y-72227992D01*
X101458977Y-72202539D01*
X101460962Y-72197745D01*
X101460966Y-72197740D01*
X101475500Y-72124674D01*
X101475500Y-71975326D01*
X101475500Y-71975323D01*
X101475499Y-71975321D01*
X101460968Y-71902267D01*
X101460966Y-71902264D01*
X101460966Y-71902260D01*
X101460963Y-71902256D01*
X101458977Y-71897461D01*
X101451504Y-71827992D01*
X101458977Y-71802539D01*
X101460962Y-71797745D01*
X101460966Y-71797740D01*
X101475500Y-71724674D01*
X101475500Y-71575326D01*
X101475500Y-71575323D01*
X101475499Y-71575321D01*
X101460968Y-71502267D01*
X101460966Y-71502264D01*
X101460966Y-71502260D01*
X101460963Y-71502256D01*
X101458977Y-71497461D01*
X101451504Y-71427992D01*
X101458977Y-71402539D01*
X101460962Y-71397745D01*
X101460966Y-71397740D01*
X101475500Y-71324674D01*
X101475500Y-71175326D01*
X101475500Y-71175323D01*
X101475499Y-71175321D01*
X101460968Y-71102267D01*
X101460966Y-71102264D01*
X101460966Y-71102260D01*
X101460963Y-71102256D01*
X101458977Y-71097461D01*
X101451504Y-71027992D01*
X101458977Y-71002539D01*
X101460962Y-70997745D01*
X101460966Y-70997740D01*
X101467156Y-70966624D01*
X101474062Y-70931903D01*
X101475500Y-70924674D01*
X101475500Y-70775326D01*
X101475500Y-70775323D01*
X101475499Y-70775321D01*
X101460968Y-70702267D01*
X101460966Y-70702264D01*
X101460966Y-70702260D01*
X101460963Y-70702256D01*
X101458977Y-70697461D01*
X101451504Y-70627992D01*
X101458977Y-70602539D01*
X101460962Y-70597745D01*
X101460966Y-70597740D01*
X101461287Y-70596130D01*
X101471168Y-70546454D01*
X101475500Y-70524674D01*
X101475500Y-70375326D01*
X101475500Y-70375323D01*
X101475499Y-70375321D01*
X101460967Y-70302264D01*
X101460966Y-70302260D01*
X101449177Y-70284616D01*
X101405601Y-70219399D01*
X101350235Y-70182405D01*
X101322739Y-70164033D01*
X101322735Y-70164032D01*
X101249677Y-70149500D01*
X101249674Y-70149500D01*
X100425326Y-70149500D01*
X100425323Y-70149500D01*
X100352264Y-70164032D01*
X100352260Y-70164033D01*
X100269399Y-70219399D01*
X100214033Y-70302260D01*
X100214032Y-70302264D01*
X100199500Y-70375321D01*
X100198903Y-70381386D01*
X100196137Y-70381113D01*
X100179815Y-70436700D01*
X100127011Y-70482455D01*
X100057853Y-70492399D01*
X100013501Y-70477049D01*
X99920617Y-70423423D01*
X99894086Y-70416314D01*
X99767890Y-70382500D01*
X99663391Y-70382500D01*
X99596352Y-70362815D01*
X99564230Y-70332952D01*
X99554505Y-70320000D01*
X98874000Y-70320000D01*
X98806961Y-70300315D01*
X98761206Y-70247511D01*
X98750000Y-70196000D01*
X98750000Y-69944000D01*
X98769685Y-69876961D01*
X98822489Y-69831206D01*
X98874000Y-69820000D01*
X99554504Y-69820000D01*
X99522284Y-69709094D01*
X99522484Y-69639225D01*
X99560427Y-69580555D01*
X99624065Y-69551712D01*
X99641361Y-69550500D01*
X101249676Y-69550500D01*
X101249677Y-69550499D01*
X101322740Y-69535966D01*
X101405601Y-69480601D01*
X101460966Y-69397740D01*
X101475500Y-69324674D01*
X101475500Y-69175326D01*
X101475500Y-69175323D01*
X101475499Y-69175321D01*
X101460968Y-69102267D01*
X101460966Y-69102264D01*
X101460966Y-69102260D01*
X101460963Y-69102256D01*
X101458977Y-69097461D01*
X101451504Y-69027992D01*
X101458977Y-69002539D01*
X101460962Y-68997745D01*
X101460966Y-68997740D01*
X101466725Y-68968791D01*
X101475499Y-68924678D01*
X101475500Y-68924676D01*
X101475500Y-68775323D01*
X101475499Y-68775321D01*
X101460968Y-68702267D01*
X101460966Y-68702264D01*
X101460966Y-68702260D01*
X101460963Y-68702256D01*
X101458977Y-68697461D01*
X101451504Y-68627992D01*
X101458977Y-68602539D01*
X101460962Y-68597745D01*
X101460966Y-68597740D01*
X101462426Y-68590404D01*
X101475499Y-68524678D01*
X101475500Y-68524676D01*
X101475500Y-68375323D01*
X101475499Y-68375321D01*
X101460967Y-68302264D01*
X101460966Y-68302260D01*
X101451590Y-68288228D01*
X101405601Y-68219399D01*
X101322740Y-68164034D01*
X101320225Y-68163533D01*
X101309967Y-68157675D01*
X101290957Y-68137924D01*
X101269610Y-68120722D01*
X101267076Y-68113111D01*
X101261516Y-68107334D01*
X101256202Y-68080443D01*
X101252544Y-68069451D01*
X102374500Y-68069451D01*
X102374500Y-68069455D01*
X102374500Y-68069456D01*
X102374500Y-71230547D01*
X102384511Y-71299261D01*
X102436327Y-71405253D01*
X102519746Y-71488672D01*
X102519747Y-71488672D01*
X102519749Y-71488674D01*
X102625739Y-71540489D01*
X102694451Y-71550500D01*
X105855548Y-71550499D01*
X105924261Y-71540489D01*
X106030251Y-71488674D01*
X106113674Y-71405251D01*
X106165489Y-71299261D01*
X106175500Y-71230549D01*
X106175499Y-68069452D01*
X106165489Y-68000739D01*
X106113674Y-67894749D01*
X106113672Y-67894747D01*
X106113672Y-67894746D01*
X106030253Y-67811327D01*
X105924262Y-67759511D01*
X105914445Y-67758080D01*
X105855549Y-67749500D01*
X105855543Y-67749500D01*
X102694452Y-67749500D01*
X102625738Y-67759511D01*
X102519746Y-67811327D01*
X102436327Y-67894746D01*
X102384511Y-68000737D01*
X102384511Y-68000738D01*
X102384511Y-68000739D01*
X102374500Y-68069451D01*
X101252544Y-68069451D01*
X101247544Y-68054429D01*
X101249527Y-68046656D01*
X101247973Y-68038789D01*
X101258042Y-68013291D01*
X101264822Y-67986729D01*
X101270691Y-67981263D01*
X101273638Y-67973804D01*
X101295894Y-67957797D01*
X101315958Y-67939117D01*
X101322482Y-67936137D01*
X101322737Y-67935966D01*
X101322740Y-67935966D01*
X101405601Y-67880601D01*
X101460966Y-67797740D01*
X101475500Y-67724674D01*
X101475500Y-67575326D01*
X101475500Y-67575323D01*
X101475499Y-67575321D01*
X101460968Y-67502267D01*
X101460966Y-67502264D01*
X101460966Y-67502260D01*
X101460963Y-67502256D01*
X101458977Y-67497461D01*
X101451504Y-67427992D01*
X101458977Y-67402539D01*
X101460962Y-67397745D01*
X101460966Y-67397740D01*
X101461912Y-67392987D01*
X101475499Y-67324678D01*
X101475500Y-67324676D01*
X101475500Y-67175323D01*
X101475499Y-67175321D01*
X101460968Y-67102267D01*
X101460966Y-67102264D01*
X101460966Y-67102260D01*
X101460963Y-67102256D01*
X101458977Y-67097461D01*
X101451504Y-67027992D01*
X101458977Y-67002539D01*
X101460962Y-66997745D01*
X101460966Y-66997740D01*
X101475500Y-66924674D01*
X101475500Y-66716950D01*
X101308050Y-66549500D01*
X100425326Y-66549500D01*
X100425319Y-66549500D01*
X100419830Y-66550592D01*
X100350239Y-66544359D01*
X100307967Y-66516654D01*
X98295195Y-64503881D01*
X98261710Y-64442558D01*
X98266694Y-64372866D01*
X98308566Y-64316933D01*
X98374030Y-64292516D01*
X98435233Y-64305830D01*
X98435688Y-64304734D01*
X98441764Y-64307250D01*
X98442303Y-64307368D01*
X98443022Y-64307772D01*
X98443198Y-64307844D01*
X98503181Y-64323916D01*
X98513572Y-64326700D01*
X98586428Y-64326700D01*
X99400058Y-64326700D01*
X99467097Y-64346385D01*
X99512439Y-64398293D01*
X99521776Y-64418316D01*
X99606684Y-64503224D01*
X99715513Y-64553972D01*
X99765099Y-64560500D01*
X100124900Y-64560499D01*
X100134534Y-64559230D01*
X100203565Y-64569994D01*
X100249038Y-64610351D01*
X100250502Y-64609217D01*
X100255283Y-64615381D01*
X100369616Y-64729714D01*
X100369625Y-64729721D01*
X100508804Y-64812031D01*
X100655000Y-64854504D01*
X100655000Y-64174000D01*
X100674685Y-64106961D01*
X100727489Y-64061206D01*
X100779000Y-64050000D01*
X101031000Y-64050000D01*
X101098039Y-64069685D01*
G37*
%TD.AperFunction*%
%TA.AperFunction,Conductor*%
G36*
X108943735Y-70746385D02*
G01*
X108989490Y-70799189D01*
X108999434Y-70868347D01*
X108970409Y-70931903D01*
X108927896Y-70962557D01*
X108927898Y-70962559D01*
X108927880Y-70962568D01*
X108924146Y-70965262D01*
X108920855Y-70966624D01*
X108783934Y-71045675D01*
X108783926Y-71045681D01*
X108672125Y-71157482D01*
X108672119Y-71157490D01*
X108593070Y-71294409D01*
X108589958Y-71301923D01*
X108587559Y-71300929D01*
X108557904Y-71349575D01*
X108495055Y-71380100D01*
X108425680Y-71371800D01*
X108371805Y-71327311D01*
X108350535Y-71260757D01*
X108350500Y-71257815D01*
X108350500Y-71175323D01*
X108350499Y-71175321D01*
X108335967Y-71102264D01*
X108335966Y-71102260D01*
X108332759Y-71097461D01*
X108280601Y-71019399D01*
X108197740Y-70964034D01*
X108197739Y-70964033D01*
X108187585Y-70957249D01*
X108188696Y-70955585D01*
X108146299Y-70921418D01*
X108124235Y-70855124D01*
X108141515Y-70787425D01*
X108192653Y-70739815D01*
X108248156Y-70726700D01*
X108876696Y-70726700D01*
X108943735Y-70746385D01*
G37*
%TD.AperFunction*%
%TA.AperFunction,Conductor*%
G36*
X94738039Y-68719685D02*
G01*
X94783794Y-68772489D01*
X94795000Y-68824000D01*
X94795000Y-69076000D01*
X94775315Y-69143039D01*
X94722511Y-69188794D01*
X94671000Y-69200000D01*
X93870000Y-69200000D01*
X93870000Y-70026000D01*
X93850315Y-70093039D01*
X93797511Y-70138794D01*
X93746000Y-70150000D01*
X93494000Y-70150000D01*
X93426961Y-70130315D01*
X93381206Y-70077511D01*
X93371651Y-70046165D01*
X93336651Y-69833803D01*
X93336926Y-69831558D01*
X93335000Y-69813638D01*
X93335000Y-69074000D01*
X93354685Y-69006961D01*
X93407489Y-68961206D01*
X93459000Y-68950000D01*
X93585000Y-68950000D01*
X93585000Y-68824000D01*
X93604685Y-68756961D01*
X93657489Y-68711206D01*
X93709000Y-68700000D01*
X94671000Y-68700000D01*
X94738039Y-68719685D01*
G37*
%TD.AperFunction*%
%TA.AperFunction,Conductor*%
G36*
X98251606Y-66505507D02*
G01*
X98290521Y-66531834D01*
X99578585Y-67819898D01*
X99630102Y-67871415D01*
X99658223Y-67887651D01*
X99693197Y-67907844D01*
X99763568Y-67926699D01*
X99763572Y-67926700D01*
X100301844Y-67926700D01*
X100368883Y-67946385D01*
X100414638Y-67999189D01*
X100424582Y-68068347D01*
X100395557Y-68131903D01*
X100361762Y-68156272D01*
X100362415Y-68157249D01*
X100352260Y-68164033D01*
X100352260Y-68164034D01*
X100310173Y-68192155D01*
X100269399Y-68219399D01*
X100214033Y-68302260D01*
X100214032Y-68302264D01*
X100199500Y-68375321D01*
X100199500Y-68425500D01*
X100196949Y-68434185D01*
X100198238Y-68443147D01*
X100187259Y-68467187D01*
X100179815Y-68492539D01*
X100172974Y-68498466D01*
X100169213Y-68506703D01*
X100146978Y-68520992D01*
X100127011Y-68538294D01*
X100116496Y-68540581D01*
X100110435Y-68544477D01*
X100075500Y-68549500D01*
X99900833Y-68549500D01*
X99833794Y-68529815D01*
X99813152Y-68513181D01*
X99039788Y-67739817D01*
X99006303Y-67678494D01*
X99004534Y-67668351D01*
X98999068Y-67626827D01*
X98949065Y-67519596D01*
X98865404Y-67435935D01*
X98758173Y-67385932D01*
X98758171Y-67385931D01*
X98758172Y-67385931D01*
X98709317Y-67379500D01*
X98709316Y-67379500D01*
X98360684Y-67379500D01*
X98360683Y-67379500D01*
X98311828Y-67385931D01*
X98204595Y-67435935D01*
X98113264Y-67527267D01*
X98110440Y-67524443D01*
X98071958Y-67555183D01*
X98002458Y-67562352D01*
X97940114Y-67530808D01*
X97937191Y-67527972D01*
X97929263Y-67520021D01*
X97929065Y-67519596D01*
X97851689Y-67442220D01*
X97834914Y-67411392D01*
X97818334Y-67381027D01*
X97818319Y-67380894D01*
X97818296Y-67380851D01*
X97818303Y-67380745D01*
X97815500Y-67354669D01*
X97815500Y-66947269D01*
X97835185Y-66880230D01*
X97877499Y-66839882D01*
X97893716Y-66830520D01*
X98005520Y-66718716D01*
X98084577Y-66581784D01*
X98084579Y-66581773D01*
X98087686Y-66574277D01*
X98090401Y-66575401D01*
X98119393Y-66527795D01*
X98182227Y-66497240D01*
X98251606Y-66505507D01*
G37*
%TD.AperFunction*%
%TA.AperFunction,Conductor*%
G36*
X105788039Y-64519685D02*
G01*
X105833794Y-64572489D01*
X105845000Y-64624000D01*
X105845000Y-65304503D01*
X105991195Y-65262031D01*
X106130374Y-65179721D01*
X106130383Y-65179714D01*
X106244714Y-65065383D01*
X106249499Y-65059215D01*
X106251459Y-65060735D01*
X106293583Y-65021382D01*
X106362321Y-65008858D01*
X106365443Y-65009228D01*
X106375099Y-65010500D01*
X106734900Y-65010499D01*
X106784487Y-65003972D01*
X106893316Y-64953224D01*
X106978224Y-64868316D01*
X106987560Y-64848293D01*
X107033733Y-64795855D01*
X107099942Y-64776700D01*
X108530500Y-64776700D01*
X108597539Y-64796385D01*
X108643294Y-64849189D01*
X108654500Y-64900700D01*
X108654500Y-65684269D01*
X108657353Y-65714699D01*
X108657353Y-65714701D01*
X108701953Y-65842156D01*
X108702207Y-65842882D01*
X108782850Y-65952150D01*
X108892118Y-66032793D01*
X108934845Y-66047744D01*
X109020299Y-66077646D01*
X109050730Y-66080500D01*
X109050734Y-66080500D01*
X109154300Y-66080500D01*
X109221339Y-66100185D01*
X109267094Y-66152989D01*
X109278300Y-66204500D01*
X109278300Y-66856433D01*
X109297155Y-66926803D01*
X109297155Y-66926804D01*
X109333581Y-66989892D01*
X109333584Y-66989897D01*
X109333585Y-66989898D01*
X109418182Y-67074495D01*
X109451666Y-67135816D01*
X109454500Y-67162175D01*
X109454500Y-67414316D01*
X109460931Y-67463171D01*
X109510935Y-67570404D01*
X109602267Y-67661736D01*
X109599443Y-67664559D01*
X109630183Y-67703042D01*
X109637352Y-67772542D01*
X109605808Y-67834886D01*
X109602101Y-67838098D01*
X109602267Y-67838264D01*
X109510935Y-67929595D01*
X109460931Y-68036828D01*
X109454500Y-68085683D01*
X109454500Y-68413824D01*
X109434815Y-68480863D01*
X109382011Y-68526618D01*
X109312853Y-68536562D01*
X109249297Y-68507537D01*
X109242819Y-68501505D01*
X108969901Y-68228587D01*
X108969892Y-68228581D01*
X108906804Y-68192155D01*
X108836433Y-68173300D01*
X108836428Y-68173300D01*
X108474500Y-68173300D01*
X108473679Y-68173059D01*
X108472857Y-68173289D01*
X108440205Y-68163229D01*
X108407461Y-68153615D01*
X108406902Y-68152970D01*
X108406084Y-68152718D01*
X108384023Y-68126566D01*
X108361706Y-68100811D01*
X108361402Y-68099750D01*
X108361033Y-68099313D01*
X108360355Y-68096097D01*
X108351539Y-68065319D01*
X108350500Y-68057343D01*
X108350500Y-67975326D01*
X108335966Y-67902260D01*
X108328922Y-67891718D01*
X108325574Y-67866019D01*
X108328555Y-67847066D01*
X108326504Y-67827992D01*
X108333977Y-67802539D01*
X108335962Y-67797745D01*
X108335966Y-67797740D01*
X108341385Y-67770500D01*
X108350499Y-67724678D01*
X108350500Y-67724676D01*
X108350500Y-67575323D01*
X108350499Y-67575321D01*
X108335968Y-67502267D01*
X108335966Y-67502264D01*
X108335966Y-67502260D01*
X108335963Y-67502256D01*
X108333977Y-67497461D01*
X108326504Y-67427992D01*
X108333977Y-67402539D01*
X108335962Y-67397745D01*
X108335966Y-67397740D01*
X108336912Y-67392987D01*
X108350499Y-67324678D01*
X108350500Y-67324676D01*
X108350500Y-67175323D01*
X108350499Y-67175321D01*
X108335967Y-67102264D01*
X108335966Y-67102260D01*
X108328502Y-67091089D01*
X108280601Y-67019399D01*
X108225235Y-66982405D01*
X108197739Y-66964033D01*
X108197735Y-66964032D01*
X108124677Y-66949500D01*
X108124674Y-66949500D01*
X107408412Y-66949500D01*
X107341373Y-66929815D01*
X107295618Y-66877011D01*
X107285674Y-66807853D01*
X107314699Y-66744297D01*
X107320731Y-66737819D01*
X107341600Y-66716950D01*
X107375500Y-66683050D01*
X107375500Y-65800326D01*
X107375500Y-65800323D01*
X107375499Y-65800321D01*
X107360967Y-65727264D01*
X107360966Y-65727260D01*
X107340336Y-65696385D01*
X107305601Y-65644399D01*
X107222740Y-65589034D01*
X107222739Y-65589033D01*
X107222735Y-65589032D01*
X107149677Y-65574500D01*
X107149674Y-65574500D01*
X107000326Y-65574500D01*
X107000324Y-65574500D01*
X106927259Y-65589033D01*
X106922452Y-65591025D01*
X106852983Y-65598494D01*
X106827548Y-65591025D01*
X106822740Y-65589033D01*
X106749676Y-65574500D01*
X106749674Y-65574500D01*
X106600326Y-65574500D01*
X106600324Y-65574500D01*
X106527259Y-65589033D01*
X106522452Y-65591025D01*
X106452983Y-65598494D01*
X106427548Y-65591025D01*
X106422740Y-65589033D01*
X106349676Y-65574500D01*
X106349674Y-65574500D01*
X106200326Y-65574500D01*
X106200324Y-65574500D01*
X106127259Y-65589033D01*
X106122452Y-65591025D01*
X106052983Y-65598494D01*
X106027548Y-65591025D01*
X106022740Y-65589033D01*
X105949676Y-65574500D01*
X105949674Y-65574500D01*
X105800326Y-65574500D01*
X105800324Y-65574500D01*
X105727259Y-65589033D01*
X105722452Y-65591025D01*
X105652983Y-65598494D01*
X105627548Y-65591025D01*
X105622740Y-65589033D01*
X105549676Y-65574500D01*
X105549674Y-65574500D01*
X105400326Y-65574500D01*
X105400324Y-65574500D01*
X105327259Y-65589033D01*
X105322452Y-65591025D01*
X105252983Y-65598494D01*
X105227548Y-65591025D01*
X105222740Y-65589033D01*
X105149676Y-65574500D01*
X105149674Y-65574500D01*
X105000326Y-65574500D01*
X105000324Y-65574500D01*
X104927259Y-65589033D01*
X104922452Y-65591025D01*
X104852983Y-65598494D01*
X104827548Y-65591025D01*
X104822740Y-65589033D01*
X104749676Y-65574500D01*
X104749674Y-65574500D01*
X104600326Y-65574500D01*
X104600323Y-65574500D01*
X104527264Y-65589032D01*
X104527260Y-65589033D01*
X104444399Y-65644399D01*
X104382249Y-65737415D01*
X104380585Y-65736303D01*
X104346418Y-65778701D01*
X104280124Y-65800765D01*
X104212425Y-65783485D01*
X104164815Y-65732347D01*
X104151700Y-65676844D01*
X104151700Y-65266190D01*
X104171385Y-65199151D01*
X104188014Y-65178514D01*
X104619566Y-64746962D01*
X104680885Y-64713480D01*
X104750576Y-64718464D01*
X104806510Y-64760335D01*
X104826319Y-64800051D01*
X104862966Y-64926189D01*
X104862968Y-64926195D01*
X104945278Y-65065374D01*
X104945285Y-65065383D01*
X105059616Y-65179714D01*
X105059625Y-65179721D01*
X105198804Y-65262031D01*
X105345000Y-65304504D01*
X105345000Y-64624000D01*
X105364685Y-64556961D01*
X105417489Y-64511206D01*
X105469000Y-64500000D01*
X105721000Y-64500000D01*
X105788039Y-64519685D01*
G37*
%TD.AperFunction*%
%TD*%
M02*
