%TF.GenerationSoftware,KiCad,Pcbnew,9.0.3*%
%TF.CreationDate,2025-08-08T17:20:16+03:00*%
%TF.ProjectId,rp2350_gpio_card,72703233-3530-45f6-9770-696f5f636172,X1*%
%TF.SameCoordinates,Original*%
%TF.FileFunction,Profile,NP*%
%FSLAX46Y46*%
G04 Gerber Fmt 4.6, Leading zero omitted, Abs format (unit mm)*
G04 Created by KiCad (PCBNEW 9.0.3) date 2025-08-08 17:20:16*
%MOMM*%
%LPD*%
G01*
G04 APERTURE LIST*
%TA.AperFunction,Profile*%
%ADD10C,0.050000*%
%TD*%
G04 APERTURE END LIST*
D10*
X114075000Y-58800000D02*
X114075000Y-84700000D01*
X88375000Y-85000000D02*
X113775000Y-85000000D01*
X105775000Y-56700000D02*
G75*
G02*
X105475000Y-57000000I-300000J0D01*
G01*
X96075000Y-55000000D02*
G75*
G02*
X96375000Y-55300000I0J-300000D01*
G01*
X105775000Y-56700000D02*
X105775000Y-55300000D01*
X105775000Y-55300000D02*
G75*
G02*
X106075000Y-55000000I300000J0D01*
G01*
X96075000Y-55000000D02*
X89375000Y-55000000D01*
X106075000Y-55000000D02*
X112775000Y-55000000D01*
X88375000Y-85000000D02*
G75*
G02*
X88075000Y-84700000I0J300000D01*
G01*
X105375000Y-57000000D02*
X105475000Y-57000000D01*
X89075000Y-55300000D02*
G75*
G02*
X89375000Y-55000000I300000J0D01*
G01*
X89075000Y-58200000D02*
X89075000Y-55300000D01*
X89075000Y-58200000D02*
G75*
G02*
X88775000Y-58500000I-300000J0D01*
G01*
X88075000Y-58800000D02*
G75*
G02*
X88375000Y-58500000I300000J0D01*
G01*
X88375000Y-58500000D02*
X88775000Y-58500000D01*
X113075000Y-58200000D02*
X113075000Y-55300000D01*
X113775000Y-58500000D02*
G75*
G02*
X114075000Y-58800000I0J-300000D01*
G01*
X113375000Y-58500000D02*
G75*
G02*
X113075000Y-58200000I0J300000D01*
G01*
X113375000Y-58500000D02*
X113775000Y-58500000D01*
X112775000Y-55000000D02*
G75*
G02*
X113075000Y-55300000I0J-300000D01*
G01*
X96375000Y-56700000D02*
X96375000Y-55300000D01*
X114075000Y-84700000D02*
G75*
G02*
X113775000Y-85000000I-300000J0D01*
G01*
X96675000Y-57000000D02*
G75*
G02*
X96375000Y-56700000I0J300000D01*
G01*
X96675000Y-57000000D02*
X96775000Y-57000000D01*
X88075000Y-58800000D02*
X88075000Y-84700000D01*
%TO.C,P1*%
X97725000Y-57000000D02*
X96775000Y-57000000D01*
X98025000Y-56340000D02*
X98025000Y-56700000D01*
X98325000Y-56040000D02*
X103825000Y-56040000D01*
X104125000Y-56340000D02*
X104125000Y-56700000D01*
X104425000Y-57000000D02*
X105375000Y-57000000D01*
X98025000Y-56340000D02*
G75*
G02*
X98325000Y-56040000I300000J0D01*
G01*
X98025000Y-56700000D02*
G75*
G02*
X97725000Y-57000000I-300000J0D01*
G01*
X103825000Y-56040000D02*
G75*
G02*
X104125000Y-56340000I0J-300000D01*
G01*
X104425000Y-57000000D02*
G75*
G02*
X104125000Y-56700000I0J300000D01*
G01*
%TD*%
M02*
