M48
; DRILL file {KiCad 9.0.3} date 2025-08-08T17:35:23+0300
; FORMAT={-:-/ absolute / metric / decimal}
; #@! TF.CreationDate,2025-08-08T17:35:23+03:00
; #@! TF.GenerationSoftware,Kicad,Pcbnew,9.0.3
; #@! TF.FileFunction,Plated,1,2,PTH
FMAT,2
METRIC
; #@! TA.AperFunction,Plated,PTH,ComponentDrill
T1C0.250
; #@! TA.AperFunction,Plated,PTH,ViaDrill
T2C0.300
; #@! TA.AperFunction,Plated,PTH,ViaDrill
T3C0.400
%
G90
G05
T1
X102.9Y-68.275
X102.9Y-69.65
X102.9Y-71.025
X104.275Y-68.275
X104.275Y-69.65
X104.275Y-71.025
X105.65Y-68.275
X105.65Y-69.65
X105.65Y-71.025
T2
X94.933Y-55.572
X94.933Y-56.46
X95.822Y-55.572
X95.822Y-56.46
X106.299Y-55.572
X106.299Y-56.46
X107.252Y-55.572
X107.252Y-56.46
T3
X90.2Y-66.1
X90.925Y-78.725
X95.15Y-60.4
X95.35Y-62.6
X96.694Y-67.169
X97.525Y-66.35
X99.228Y-62.953
X99.65Y-73.85
X99.689Y-70.983
X99.875Y-61.35
X100.525Y-75.9
X102.275Y-64.05
X103.525Y-62.85
X104.205Y-63.583
X106.275Y-74.669
X107.2Y-75.05
X107.925Y-76.9
X108.075Y-75.625
X108.575Y-77.75
X109.15Y-69.374
X109.153Y-71.526
X110.7Y-60.45
X113.05Y-70.85
M30
