%TF.GenerationSoftware,KiCad,Pcbnew,9.0.3*%
%TF.CreationDate,2025-08-08T17:20:16+03:00*%
%TF.ProjectId,rp2350_gpio_card,72703233-3530-45f6-9770-696f5f636172,X1*%
%TF.SameCoordinates,Original*%
%TF.FileFunction,Copper,L2,Bot*%
%TF.FilePolarity,Positive*%
%FSLAX46Y46*%
G04 Gerber Fmt 4.6, Leading zero omitted, Abs format (unit mm)*
G04 Created by KiCad (PCBNEW 9.0.3) date 2025-08-08 17:20:16*
%MOMM*%
%LPD*%
G01*
G04 APERTURE LIST*
G04 Aperture macros list*
%AMRoundRect*
0 Rectangle with rounded corners*
0 $1 Rounding radius*
0 $2 $3 $4 $5 $6 $7 $8 $9 X,Y pos of 4 corners*
0 Add a 4 corners polygon primitive as box body*
4,1,4,$2,$3,$4,$5,$6,$7,$8,$9,$2,$3,0*
0 Add four circle primitives for the rounded corners*
1,1,$1+$1,$2,$3*
1,1,$1+$1,$4,$5*
1,1,$1+$1,$6,$7*
1,1,$1+$1,$8,$9*
0 Add four rect primitives between the rounded corners*
20,1,$1+$1,$2,$3,$4,$5,0*
20,1,$1+$1,$4,$5,$6,$7,0*
20,1,$1+$1,$6,$7,$8,$9,0*
20,1,$1+$1,$8,$9,$2,$3,0*%
G04 Aperture macros list end*
%TA.AperFunction,SMDPad,CuDef*%
%ADD10R,0.380000X1.000000*%
%TD*%
%TA.AperFunction,SMDPad,CuDef*%
%ADD11R,0.700000X1.150000*%
%TD*%
%TA.AperFunction,ComponentPad*%
%ADD12C,0.600000*%
%TD*%
%TA.AperFunction,SMDPad,CuDef*%
%ADD13R,1.500000X1.500000*%
%TD*%
%TA.AperFunction,SMDPad,CuDef*%
%ADD14RoundRect,0.250000X-0.250000X1.000000X-0.250000X-1.000000X0.250000X-1.000000X0.250000X1.000000X0*%
%TD*%
%TA.AperFunction,ViaPad*%
%ADD15C,0.800000*%
%TD*%
%TA.AperFunction,ViaPad*%
%ADD16C,0.500000*%
%TD*%
%TA.AperFunction,Conductor*%
%ADD17C,0.152400*%
%TD*%
%TA.AperFunction,Conductor*%
%ADD18C,0.200000*%
%TD*%
G04 APERTURE END LIST*
D10*
%TO.P,P1,B1,GND*%
%TO.N,GND*%
X103825000Y-57040000D03*
%TO.P,P1,B2*%
%TO.N,N/C*%
X103325000Y-57040000D03*
%TO.P,P1,B3*%
X102825000Y-57040000D03*
%TO.P,P1,B4,VBUS*%
%TO.N,VBUS*%
X102325000Y-57040000D03*
%TO.P,P1,B5,VCONN*%
%TO.N,unconnected-(P1-VCONN-PadB5)*%
X101825000Y-57040000D03*
%TO.P,P1,B8*%
%TO.N,N/C*%
X100325000Y-57040000D03*
%TO.P,P1,B9,VBUS*%
%TO.N,VBUS*%
X99825000Y-57040000D03*
%TO.P,P1,B10*%
%TO.N,N/C*%
X99325000Y-57040000D03*
%TO.P,P1,B11*%
X98825000Y-57040000D03*
%TO.P,P1,B12,GND*%
%TO.N,GND*%
X98325000Y-57040000D03*
D11*
%TO.P,P1,S1,SHIELD*%
X104495000Y-57880000D03*
%TD*%
D12*
%TO.P,U1,61,GND*%
%TO.N,GND*%
X102900000Y-71025000D03*
X104275000Y-71025000D03*
X105650000Y-71025000D03*
X102900000Y-69650000D03*
X104275000Y-69650000D03*
X105650000Y-69650000D03*
X102900000Y-68275000D03*
X104275000Y-68275000D03*
X105650000Y-68275000D03*
%TD*%
D13*
%TO.P,TP3,1,1*%
%TO.N,GND*%
X95375000Y-56000000D03*
%TD*%
%TO.P,TP4,1,1*%
%TO.N,GND*%
X106775000Y-56000000D03*
%TD*%
D14*
%TO.P,J1,1,Pin_1*%
%TO.N,/QSPI_SS*%
X89645000Y-83050000D03*
%TO.P,J1,2,Pin_2*%
%TO.N,/GPIO9*%
X92185000Y-83050000D03*
%TO.P,J1,3,Pin_3*%
%TO.N,/GPIO10*%
X94725000Y-83050000D03*
%TO.P,J1,4,Pin_4*%
%TO.N,/GPIO11*%
X97265000Y-83050000D03*
%TO.P,J1,5,Pin_5*%
%TO.N,/GPIO12*%
X99805000Y-83050000D03*
%TO.P,J1,6,Pin_6*%
%TO.N,/GPIO13*%
X102345000Y-83050000D03*
%TO.P,J1,7,Pin_7*%
%TO.N,GND*%
X104885000Y-83050000D03*
%TO.P,J1,8,Pin_8*%
%TO.N,/GPIO27_ADC1*%
X107425000Y-83050000D03*
%TO.P,J1,9,Pin_9*%
%TO.N,/GPIO28_ADC2*%
X109965000Y-83050000D03*
%TO.P,J1,10,Pin_10*%
%TO.N,/GPIO29_ADC3*%
X112505000Y-83050000D03*
%TD*%
D15*
%TO.N,/GPIO27_ADC1*%
X104204845Y-63583359D03*
%TO.N,/GPIO29_ADC3*%
X102275000Y-64050000D03*
%TO.N,/GPIO11*%
X108075000Y-75625000D03*
%TO.N,/QSPI_SS*%
X99650000Y-73850000D03*
%TO.N,/RUN*%
X109150000Y-69373800D03*
X109152644Y-71526200D03*
%TO.N,/GPIO10*%
X107200000Y-75050000D03*
%TO.N,/GPIO9*%
X106275319Y-74669249D03*
%TO.N,/GPIO28_ADC2*%
X103525000Y-62850000D03*
%TO.N,/GPIO0*%
X90925000Y-78725000D03*
X100525000Y-75900000D03*
%TO.N,/USB_D+*%
X96694071Y-67168696D03*
X99875000Y-61350000D03*
%TO.N,/USB_D-*%
X99228146Y-62953146D03*
X97525000Y-66350000D03*
%TO.N,/GPIO13*%
X108575000Y-77750000D03*
%TO.N,/GPIO12*%
X107925000Y-76900000D03*
D16*
%TO.N,GND*%
X94933000Y-55571500D03*
X94933000Y-56460500D03*
X107252000Y-55571500D03*
X107252000Y-56460500D03*
D15*
X113050000Y-70850000D03*
X95350000Y-62600000D03*
D16*
X95822000Y-56460500D03*
D15*
X110700000Y-60450000D03*
X90200000Y-66100000D03*
D16*
X106299500Y-55571500D03*
X95822000Y-55571500D03*
X106299500Y-56460500D03*
D15*
X99688833Y-70983000D03*
X95150000Y-60400000D03*
%TD*%
D17*
%TO.N,/GPIO27_ADC1*%
X110675000Y-71000000D02*
X108950000Y-72725000D01*
X104204845Y-63583151D02*
X104202200Y-63580506D01*
X104925000Y-61550000D02*
X108075000Y-61550000D01*
X104204845Y-63583359D02*
X104204845Y-63583151D01*
X108950000Y-76174784D02*
X109252200Y-76476984D01*
X109252200Y-78497800D02*
X107425000Y-80325000D01*
X107425000Y-80325000D02*
X107425000Y-83050000D01*
X110675000Y-64150000D02*
X110675000Y-71000000D01*
X108950000Y-72725000D02*
X108950000Y-76174784D01*
X109252200Y-76476984D02*
X109252200Y-78497800D01*
X104202200Y-63580506D02*
X104202200Y-62272800D01*
X108075000Y-61550000D02*
X110675000Y-64150000D01*
X104202200Y-62272800D02*
X104925000Y-61550000D01*
%TO.N,/GPIO29_ADC3*%
X109025000Y-60600000D02*
X112075000Y-63650000D01*
X104075000Y-60600000D02*
X109025000Y-60600000D01*
X112505000Y-78680000D02*
X112505000Y-83050000D01*
X102275000Y-62400000D02*
X104075000Y-60600000D01*
X109725000Y-75900000D02*
X112505000Y-78680000D01*
X109725000Y-73250000D02*
X109725000Y-75900000D01*
X102275000Y-64050000D02*
X102275000Y-62400000D01*
X112075000Y-70900000D02*
X109725000Y-73250000D01*
X112075000Y-63650000D02*
X112075000Y-70900000D01*
%TO.N,/GPIO11*%
X102178400Y-76546600D02*
X99675000Y-79050000D01*
X99675000Y-79050000D02*
X98075000Y-79050000D01*
X98075000Y-79050000D02*
X97265000Y-79860000D01*
X108075000Y-75625000D02*
X107153400Y-76546600D01*
X107153400Y-76546600D02*
X102178400Y-76546600D01*
X97265000Y-79860000D02*
X97265000Y-83050000D01*
%TO.N,/QSPI_SS*%
X98400000Y-76850000D02*
X91317294Y-76850000D01*
X99650000Y-73850000D02*
X99650000Y-75600000D01*
X89645000Y-78522294D02*
X89645000Y-83050000D01*
X91317294Y-76850000D02*
X89645000Y-78522294D01*
X99650000Y-75600000D02*
X98400000Y-76850000D01*
%TO.N,/RUN*%
X109150000Y-71523556D02*
X109152644Y-71526200D01*
X109150000Y-69373800D02*
X109150000Y-71523556D01*
%TO.N,/GPIO10*%
X99528400Y-78696600D02*
X95628400Y-78696600D01*
X102275217Y-75950000D02*
X101975217Y-76250000D01*
X101975000Y-76250000D02*
X99528400Y-78696600D01*
X107200000Y-75059295D02*
X106309295Y-75950000D01*
X107200000Y-75050000D02*
X107200000Y-75059295D01*
X101975217Y-76250000D02*
X101975000Y-76250000D01*
X106309295Y-75950000D02*
X102275217Y-75950000D01*
X94725000Y-79600000D02*
X94725000Y-83050000D01*
X95628400Y-78696600D02*
X94725000Y-79600000D01*
%TO.N,/GPIO9*%
X105575000Y-75300000D02*
X102125000Y-75300000D01*
X99375000Y-78050000D02*
X94025000Y-78050000D01*
X105575000Y-75300000D02*
X105644568Y-75300000D01*
X105644568Y-75300000D02*
X106275319Y-74669249D01*
X94025000Y-78050000D02*
X92185000Y-79890000D01*
X92185000Y-79890000D02*
X92185000Y-83050000D01*
X102125000Y-75300000D02*
X99375000Y-78050000D01*
%TO.N,/GPIO28_ADC2*%
X111405213Y-70869787D02*
X109325000Y-72950000D01*
X111405213Y-63630213D02*
X111405213Y-70869787D01*
X103525000Y-62850000D02*
X103525000Y-62144930D01*
X108775000Y-61000000D02*
X111405213Y-63630213D01*
X109325000Y-73200000D02*
X109325000Y-76050000D01*
X109325000Y-76050000D02*
X109965000Y-76690000D01*
X109325000Y-73096600D02*
X109325000Y-73200000D01*
X109325000Y-72950000D02*
X109325000Y-73200000D01*
X109965000Y-76690000D02*
X109965000Y-83050000D01*
X103525000Y-62144930D02*
X104669930Y-61000000D01*
X104669930Y-61000000D02*
X108775000Y-61000000D01*
%TO.N,/GPIO0*%
X92000000Y-77650000D02*
X99275216Y-77650000D01*
X90925000Y-78725000D02*
X92000000Y-77650000D01*
X99275216Y-77650000D02*
X100525000Y-76400216D01*
X100525000Y-76400216D02*
X100525000Y-75900000D01*
X100890000Y-75885000D02*
X100875000Y-75900000D01*
D18*
%TO.N,/USB_D+*%
X96694071Y-64530929D02*
X99875000Y-61350000D01*
X96694071Y-67168696D02*
X96694071Y-64530929D01*
%TO.N,/USB_D-*%
X97525000Y-66350000D02*
X97525000Y-64656292D01*
X97525000Y-64656292D02*
X99228146Y-62953146D01*
D17*
%TO.N,/GPIO13*%
X102345000Y-79580000D02*
X102345000Y-83050000D01*
X104175000Y-77750000D02*
X102345000Y-79580000D01*
X108575000Y-77750000D02*
X104175000Y-77750000D01*
%TO.N,/GPIO12*%
X99805000Y-83050000D02*
X99805000Y-79670000D01*
X99805000Y-79670000D02*
X102575000Y-76900000D01*
X107925000Y-76900000D02*
X102575000Y-76900000D01*
%TD*%
%TA.AperFunction,Conductor*%
%TO.N,GND*%
G36*
X112769870Y-55218156D02*
G01*
X112815737Y-55270863D01*
X112827040Y-55320868D01*
X112875314Y-58748353D01*
X112875315Y-58748354D01*
X113800836Y-58748354D01*
X113867875Y-58768039D01*
X113913630Y-58820843D01*
X113924835Y-58872832D01*
X113866778Y-73938624D01*
X113846835Y-74005587D01*
X113793855Y-74051138D01*
X113724659Y-74060815D01*
X113661216Y-74031545D01*
X113628214Y-73985590D01*
X113626560Y-73981598D01*
X113626557Y-73981588D01*
X113530051Y-73792184D01*
X113530049Y-73792181D01*
X113530048Y-73792179D01*
X113405109Y-73620213D01*
X113254786Y-73469890D01*
X113082820Y-73344951D01*
X112893414Y-73248444D01*
X112893413Y-73248443D01*
X112893412Y-73248443D01*
X112691243Y-73182754D01*
X112691241Y-73182753D01*
X112691240Y-73182753D01*
X112529957Y-73157208D01*
X112481287Y-73149500D01*
X112268713Y-73149500D01*
X112220042Y-73157208D01*
X112058760Y-73182753D01*
X111856585Y-73248444D01*
X111667179Y-73344951D01*
X111495213Y-73469890D01*
X111344890Y-73620213D01*
X111219951Y-73792179D01*
X111123444Y-73981585D01*
X111057753Y-74183760D01*
X111024500Y-74393713D01*
X111024500Y-74606286D01*
X111054196Y-74793782D01*
X111057754Y-74816243D01*
X111116438Y-74996854D01*
X111123444Y-75018414D01*
X111219951Y-75207820D01*
X111344890Y-75379786D01*
X111495213Y-75530109D01*
X111667179Y-75655048D01*
X111667181Y-75655049D01*
X111667184Y-75655051D01*
X111856588Y-75751557D01*
X112058757Y-75817246D01*
X112268713Y-75850500D01*
X112268714Y-75850500D01*
X112481286Y-75850500D01*
X112481287Y-75850500D01*
X112691243Y-75817246D01*
X112893412Y-75751557D01*
X113082816Y-75655051D01*
X113108449Y-75636428D01*
X113254786Y-75530109D01*
X113254788Y-75530106D01*
X113254792Y-75530104D01*
X113405104Y-75379792D01*
X113405106Y-75379788D01*
X113405109Y-75379786D01*
X113505034Y-75242249D01*
X113530051Y-75207816D01*
X113626557Y-75018412D01*
X113626557Y-75018408D01*
X113627924Y-75015728D01*
X113675898Y-74964931D01*
X113743719Y-74948136D01*
X113809854Y-74970673D01*
X113853306Y-75025388D01*
X113862408Y-75072500D01*
X113825790Y-84575073D01*
X113805847Y-84642036D01*
X113752867Y-84687587D01*
X113702034Y-84698595D01*
X112991499Y-84699985D01*
X112924421Y-84680431D01*
X112878563Y-84627717D01*
X112868484Y-84558578D01*
X112897384Y-84494966D01*
X112950301Y-84458944D01*
X112967882Y-84452793D01*
X113077150Y-84372150D01*
X113157793Y-84262882D01*
X113180219Y-84198790D01*
X113202646Y-84134701D01*
X113202646Y-84134699D01*
X113205500Y-84104269D01*
X113205500Y-81995730D01*
X113202646Y-81965300D01*
X113202646Y-81965298D01*
X113157793Y-81837119D01*
X113157792Y-81837117D01*
X113077150Y-81727850D01*
X112967882Y-81647207D01*
X112864744Y-81611117D01*
X112807969Y-81570395D01*
X112782222Y-81505442D01*
X112781700Y-81494076D01*
X112781700Y-78643572D01*
X112781699Y-78643569D01*
X112779723Y-78636193D01*
X112771259Y-78604603D01*
X112762844Y-78573197D01*
X112726415Y-78510102D01*
X112726414Y-78510101D01*
X112726412Y-78510098D01*
X110038019Y-75821705D01*
X110004534Y-75760382D01*
X110001700Y-75734024D01*
X110001700Y-73415975D01*
X110021385Y-73348936D01*
X110038019Y-73328294D01*
X112296412Y-71069901D01*
X112296415Y-71069898D01*
X112321286Y-71026822D01*
X112332844Y-71006804D01*
X112332844Y-71006803D01*
X112351699Y-70936433D01*
X112351700Y-70936427D01*
X112351700Y-63613575D01*
X112351699Y-63613568D01*
X112332844Y-63543198D01*
X112332844Y-63543196D01*
X112296418Y-63480108D01*
X112296415Y-63480102D01*
X112244898Y-63428585D01*
X110725886Y-61909573D01*
X109194901Y-60378587D01*
X109194892Y-60378581D01*
X109131804Y-60342155D01*
X109061433Y-60323300D01*
X109061428Y-60323300D01*
X104038572Y-60323300D01*
X104038568Y-60323300D01*
X103968198Y-60342155D01*
X103968196Y-60342155D01*
X103905108Y-60378581D01*
X103905099Y-60378587D01*
X102053587Y-62230098D01*
X102053581Y-62230107D01*
X102017155Y-62293195D01*
X102017155Y-62293196D01*
X101998300Y-62363566D01*
X101998300Y-63444763D01*
X101978615Y-63511802D01*
X101936300Y-63552150D01*
X101906287Y-63569477D01*
X101906282Y-63569481D01*
X101794481Y-63681282D01*
X101794475Y-63681290D01*
X101715426Y-63818209D01*
X101715423Y-63818216D01*
X101674500Y-63970943D01*
X101674500Y-64129057D01*
X101701091Y-64228294D01*
X101715423Y-64281783D01*
X101715426Y-64281790D01*
X101794475Y-64418709D01*
X101794479Y-64418714D01*
X101794480Y-64418716D01*
X101906284Y-64530520D01*
X101906286Y-64530521D01*
X101906290Y-64530524D01*
X102043209Y-64609573D01*
X102043216Y-64609577D01*
X102195943Y-64650500D01*
X102195945Y-64650500D01*
X102354055Y-64650500D01*
X102354057Y-64650500D01*
X102506784Y-64609577D01*
X102643716Y-64530520D01*
X102755520Y-64418716D01*
X102834577Y-64281784D01*
X102875500Y-64129057D01*
X102875500Y-63970943D01*
X102834577Y-63818216D01*
X102771237Y-63708507D01*
X102755524Y-63681290D01*
X102755518Y-63681282D01*
X102643717Y-63569481D01*
X102643712Y-63569477D01*
X102613700Y-63552150D01*
X102565485Y-63501583D01*
X102551700Y-63444763D01*
X102551700Y-62565975D01*
X102571385Y-62498936D01*
X102588019Y-62478294D01*
X103036619Y-62029694D01*
X103097942Y-61996209D01*
X103167634Y-62001193D01*
X103223567Y-62043065D01*
X103247984Y-62108529D01*
X103248300Y-62117375D01*
X103248300Y-62244763D01*
X103228615Y-62311802D01*
X103186300Y-62352150D01*
X103156287Y-62369477D01*
X103156282Y-62369481D01*
X103044481Y-62481282D01*
X103044475Y-62481290D01*
X102965426Y-62618209D01*
X102965423Y-62618216D01*
X102924500Y-62770943D01*
X102924500Y-62929057D01*
X102956421Y-63048186D01*
X102965423Y-63081783D01*
X102965426Y-63081790D01*
X103044475Y-63218709D01*
X103044479Y-63218714D01*
X103044480Y-63218716D01*
X103156284Y-63330520D01*
X103156286Y-63330521D01*
X103156290Y-63330524D01*
X103293209Y-63409573D01*
X103293216Y-63409577D01*
X103445943Y-63450500D01*
X103445945Y-63450500D01*
X103480345Y-63450500D01*
X103547384Y-63470185D01*
X103593139Y-63522989D01*
X103604345Y-63574500D01*
X103604345Y-63662416D01*
X103633127Y-63769830D01*
X103645268Y-63815142D01*
X103645271Y-63815149D01*
X103724320Y-63952068D01*
X103724324Y-63952073D01*
X103724325Y-63952075D01*
X103836129Y-64063879D01*
X103836131Y-64063880D01*
X103836135Y-64063883D01*
X103973054Y-64142932D01*
X103973061Y-64142936D01*
X104125788Y-64183859D01*
X104125790Y-64183859D01*
X104283900Y-64183859D01*
X104283902Y-64183859D01*
X104436629Y-64142936D01*
X104573561Y-64063879D01*
X104685365Y-63952075D01*
X104764422Y-63815143D01*
X104805345Y-63662416D01*
X104805345Y-63504302D01*
X104764422Y-63351575D01*
X104747263Y-63321855D01*
X104685369Y-63214649D01*
X104685363Y-63214641D01*
X104573563Y-63102841D01*
X104573561Y-63102839D01*
X104540900Y-63083982D01*
X104492684Y-63033415D01*
X104478900Y-62976595D01*
X104478900Y-62438775D01*
X104498585Y-62371736D01*
X104515219Y-62351094D01*
X105003294Y-61863019D01*
X105064617Y-61829534D01*
X105090975Y-61826700D01*
X107909025Y-61826700D01*
X107976064Y-61846385D01*
X107996706Y-61863019D01*
X110361981Y-64228294D01*
X110395466Y-64289617D01*
X110398300Y-64315975D01*
X110398300Y-70834025D01*
X110378615Y-70901064D01*
X110361981Y-70921706D01*
X109922636Y-71361050D01*
X109861313Y-71394535D01*
X109791621Y-71389551D01*
X109735688Y-71347679D01*
X109715180Y-71305460D01*
X109712221Y-71294416D01*
X109712217Y-71294409D01*
X109633168Y-71157490D01*
X109633162Y-71157482D01*
X109521362Y-71045682D01*
X109521360Y-71045680D01*
X109509961Y-71039099D01*
X109488698Y-71026822D01*
X109440484Y-70976254D01*
X109426700Y-70919436D01*
X109426700Y-69979036D01*
X109446385Y-69911997D01*
X109488699Y-69871649D01*
X109518716Y-69854320D01*
X109630520Y-69742516D01*
X109709577Y-69605584D01*
X109750500Y-69452857D01*
X109750500Y-69294743D01*
X109709577Y-69142016D01*
X109709573Y-69142009D01*
X109630524Y-69005090D01*
X109630518Y-69005082D01*
X109518717Y-68893281D01*
X109518709Y-68893275D01*
X109381790Y-68814226D01*
X109381786Y-68814224D01*
X109381784Y-68814223D01*
X109229057Y-68773300D01*
X109070943Y-68773300D01*
X108918216Y-68814223D01*
X108918209Y-68814226D01*
X108781290Y-68893275D01*
X108781282Y-68893281D01*
X108669481Y-69005082D01*
X108669475Y-69005090D01*
X108590426Y-69142009D01*
X108590423Y-69142016D01*
X108549500Y-69294743D01*
X108549500Y-69452856D01*
X108590423Y-69605583D01*
X108590426Y-69605590D01*
X108669475Y-69742509D01*
X108669479Y-69742514D01*
X108669480Y-69742516D01*
X108781284Y-69854320D01*
X108811300Y-69871649D01*
X108859514Y-69922213D01*
X108873300Y-69979036D01*
X108873300Y-70922489D01*
X108853615Y-70989528D01*
X108811302Y-71029875D01*
X108783931Y-71045678D01*
X108783925Y-71045682D01*
X108672125Y-71157482D01*
X108672119Y-71157490D01*
X108593070Y-71294409D01*
X108593067Y-71294416D01*
X108552144Y-71447143D01*
X108552144Y-71605256D01*
X108593067Y-71757983D01*
X108593070Y-71757990D01*
X108672119Y-71894909D01*
X108672123Y-71894914D01*
X108672124Y-71894916D01*
X108783928Y-72006720D01*
X108783930Y-72006721D01*
X108783934Y-72006724D01*
X108920853Y-72085773D01*
X108920860Y-72085777D01*
X108931904Y-72088736D01*
X108991565Y-72125099D01*
X109022096Y-72187945D01*
X109013802Y-72257321D01*
X108987494Y-72296192D01*
X108728587Y-72555098D01*
X108728585Y-72555101D01*
X108692154Y-72618199D01*
X108687931Y-72633962D01*
X108687931Y-72633964D01*
X108673300Y-72688568D01*
X108673300Y-75074702D01*
X108653615Y-75141741D01*
X108600811Y-75187496D01*
X108531653Y-75197440D01*
X108468097Y-75168415D01*
X108461619Y-75162383D01*
X108443717Y-75144481D01*
X108443709Y-75144475D01*
X108306790Y-75065426D01*
X108306786Y-75065424D01*
X108306784Y-75065423D01*
X108154057Y-75024500D01*
X107995943Y-75024500D01*
X107946754Y-75037679D01*
X107876905Y-75036017D01*
X107819043Y-74996854D01*
X107794888Y-74950001D01*
X107759577Y-74818216D01*
X107719215Y-74748306D01*
X107680524Y-74681290D01*
X107680518Y-74681282D01*
X107568717Y-74569481D01*
X107568709Y-74569475D01*
X107431790Y-74490426D01*
X107431786Y-74490424D01*
X107431784Y-74490423D01*
X107279057Y-74449500D01*
X107120943Y-74449500D01*
X106971142Y-74489639D01*
X106901292Y-74487976D01*
X106843430Y-74448813D01*
X106831665Y-74431869D01*
X106755839Y-74300533D01*
X106644035Y-74188729D01*
X106644033Y-74188728D01*
X106644028Y-74188724D01*
X106507109Y-74109675D01*
X106507105Y-74109673D01*
X106507103Y-74109672D01*
X106354376Y-74068749D01*
X106196262Y-74068749D01*
X106043535Y-74109672D01*
X106043528Y-74109675D01*
X105906609Y-74188724D01*
X105906601Y-74188730D01*
X105794800Y-74300531D01*
X105794794Y-74300539D01*
X105715745Y-74437458D01*
X105715742Y-74437465D01*
X105674819Y-74590192D01*
X105674819Y-74748310D01*
X105683789Y-74781786D01*
X105683503Y-74793782D01*
X105687698Y-74805029D01*
X105682686Y-74828068D01*
X105682125Y-74851635D01*
X105675027Y-74863279D01*
X105672847Y-74873303D01*
X105651696Y-74901557D01*
X105566275Y-74986980D01*
X105504953Y-75020466D01*
X105478593Y-75023300D01*
X102088568Y-75023300D01*
X102018200Y-75042154D01*
X101977899Y-75065423D01*
X101977898Y-75065422D01*
X101955105Y-75078583D01*
X101955099Y-75078587D01*
X101301344Y-75732342D01*
X101287355Y-75739980D01*
X101276437Y-75751598D01*
X101257316Y-75756382D01*
X101240021Y-75765827D01*
X101224121Y-75764689D01*
X101208657Y-75768560D01*
X101189987Y-75762248D01*
X101170329Y-75760843D01*
X101156777Y-75751022D01*
X101142467Y-75746185D01*
X101118751Y-75723465D01*
X101116748Y-75722014D01*
X101111895Y-75715934D01*
X101111415Y-75715102D01*
X101110504Y-75714191D01*
X101106174Y-75708766D01*
X101098236Y-75689345D01*
X101089854Y-75674824D01*
X101087686Y-75675723D01*
X101084579Y-75668223D01*
X101084577Y-75668216D01*
X101067698Y-75638981D01*
X101005524Y-75531290D01*
X101005518Y-75531282D01*
X100893717Y-75419481D01*
X100893709Y-75419475D01*
X100756790Y-75340426D01*
X100756786Y-75340424D01*
X100756784Y-75340423D01*
X100604057Y-75299500D01*
X100445943Y-75299500D01*
X100293216Y-75340423D01*
X100293209Y-75340426D01*
X100156290Y-75419475D01*
X100156282Y-75419481D01*
X100138381Y-75437383D01*
X100077058Y-75470868D01*
X100007366Y-75465884D01*
X99951433Y-75424012D01*
X99927016Y-75358548D01*
X99926700Y-75349702D01*
X99926700Y-74455236D01*
X99946385Y-74388197D01*
X99988699Y-74347849D01*
X100018716Y-74330520D01*
X100130520Y-74218716D01*
X100209577Y-74081784D01*
X100250500Y-73929057D01*
X100250500Y-73770943D01*
X100209577Y-73618216D01*
X100209573Y-73618209D01*
X100130524Y-73481290D01*
X100130518Y-73481282D01*
X100018717Y-73369481D01*
X100018709Y-73369475D01*
X99881790Y-73290426D01*
X99881786Y-73290424D01*
X99881784Y-73290423D01*
X99729057Y-73249500D01*
X99570943Y-73249500D01*
X99418216Y-73290423D01*
X99418209Y-73290426D01*
X99281290Y-73369475D01*
X99281282Y-73369481D01*
X99169481Y-73481282D01*
X99169475Y-73481290D01*
X99090426Y-73618209D01*
X99090423Y-73618216D01*
X99049500Y-73770943D01*
X99049500Y-73929057D01*
X99088236Y-74073620D01*
X99090423Y-74081783D01*
X99090426Y-74081790D01*
X99169475Y-74218709D01*
X99169479Y-74218714D01*
X99169480Y-74218716D01*
X99281284Y-74330520D01*
X99311300Y-74347849D01*
X99359514Y-74398413D01*
X99373300Y-74455236D01*
X99373300Y-75434025D01*
X99353615Y-75501064D01*
X99336981Y-75521706D01*
X98321706Y-76536981D01*
X98260383Y-76570466D01*
X98234025Y-76573300D01*
X91280860Y-76573300D01*
X91210490Y-76592155D01*
X91210489Y-76592155D01*
X91147401Y-76628581D01*
X91147392Y-76628587D01*
X89423587Y-78352392D01*
X89423581Y-78352401D01*
X89387156Y-78415487D01*
X89381006Y-78438443D01*
X89378342Y-78448387D01*
X89374863Y-78461372D01*
X89368300Y-78485865D01*
X89368300Y-81494076D01*
X89348615Y-81561115D01*
X89295811Y-81606870D01*
X89285256Y-81611117D01*
X89182117Y-81647207D01*
X89072850Y-81727850D01*
X88992207Y-81837117D01*
X88992206Y-81837119D01*
X88947353Y-81965298D01*
X88947353Y-81965300D01*
X88944500Y-81995730D01*
X88944500Y-84104269D01*
X88947353Y-84134699D01*
X88947353Y-84134701D01*
X88992206Y-84262880D01*
X88992207Y-84262882D01*
X89072850Y-84372150D01*
X89182118Y-84452793D01*
X89199694Y-84458943D01*
X89310299Y-84497646D01*
X89323317Y-84498867D01*
X89388226Y-84524724D01*
X89428852Y-84581568D01*
X89432295Y-84651353D01*
X89397464Y-84711922D01*
X89335416Y-84744044D01*
X89311984Y-84746325D01*
X88399558Y-84748110D01*
X88332480Y-84728556D01*
X88286622Y-84675842D01*
X88275315Y-84624110D01*
X88275315Y-75037656D01*
X88295000Y-74970617D01*
X88347804Y-74924862D01*
X88416962Y-74914918D01*
X88480518Y-74943943D01*
X88517246Y-74999339D01*
X88523443Y-75018412D01*
X88619951Y-75207820D01*
X88744890Y-75379786D01*
X88895213Y-75530109D01*
X89067179Y-75655048D01*
X89067181Y-75655049D01*
X89067184Y-75655051D01*
X89256588Y-75751557D01*
X89458757Y-75817246D01*
X89668713Y-75850500D01*
X89668714Y-75850500D01*
X89881286Y-75850500D01*
X89881287Y-75850500D01*
X90091243Y-75817246D01*
X90293412Y-75751557D01*
X90482816Y-75655051D01*
X90508449Y-75636428D01*
X90654786Y-75530109D01*
X90654788Y-75530106D01*
X90654792Y-75530104D01*
X90805104Y-75379792D01*
X90805106Y-75379788D01*
X90805109Y-75379786D01*
X90930048Y-75207820D01*
X90930050Y-75207817D01*
X90930051Y-75207816D01*
X91026557Y-75018412D01*
X91092246Y-74816243D01*
X91125500Y-74606287D01*
X91125500Y-74393713D01*
X91092246Y-74183757D01*
X91026557Y-73981588D01*
X90930051Y-73792184D01*
X90930049Y-73792181D01*
X90930048Y-73792179D01*
X90805109Y-73620213D01*
X90654786Y-73469890D01*
X90482820Y-73344951D01*
X90293414Y-73248444D01*
X90293413Y-73248443D01*
X90293412Y-73248443D01*
X90091243Y-73182754D01*
X90091241Y-73182753D01*
X90091240Y-73182753D01*
X89929957Y-73157208D01*
X89881287Y-73149500D01*
X89668713Y-73149500D01*
X89620042Y-73157208D01*
X89458760Y-73182753D01*
X89256585Y-73248444D01*
X89067179Y-73344951D01*
X88895213Y-73469890D01*
X88744890Y-73620213D01*
X88619951Y-73792179D01*
X88523444Y-73981583D01*
X88520141Y-73991749D01*
X88517244Y-74000663D01*
X88477808Y-74058337D01*
X88413449Y-74085535D01*
X88344603Y-74073620D01*
X88293127Y-74026376D01*
X88275315Y-73962343D01*
X88275315Y-67089639D01*
X96093571Y-67089639D01*
X96093571Y-67247752D01*
X96134494Y-67400479D01*
X96134497Y-67400486D01*
X96213546Y-67537405D01*
X96213550Y-67537410D01*
X96213551Y-67537412D01*
X96325355Y-67649216D01*
X96325357Y-67649217D01*
X96325361Y-67649220D01*
X96462280Y-67728269D01*
X96462287Y-67728273D01*
X96615014Y-67769196D01*
X96615016Y-67769196D01*
X96773126Y-67769196D01*
X96773128Y-67769196D01*
X96925855Y-67728273D01*
X97062787Y-67649216D01*
X97174591Y-67537412D01*
X97253648Y-67400480D01*
X97294571Y-67247753D01*
X97294571Y-67089639D01*
X97294568Y-67089630D01*
X97294271Y-67087371D01*
X97294571Y-67085446D01*
X97294571Y-67081512D01*
X97295184Y-67081512D01*
X97305031Y-67018334D01*
X97351406Y-66966074D01*
X97418673Y-66947183D01*
X97437836Y-66949821D01*
X97437887Y-66949439D01*
X97445941Y-66950499D01*
X97445943Y-66950500D01*
X97445945Y-66950500D01*
X97604055Y-66950500D01*
X97604057Y-66950500D01*
X97756784Y-66909577D01*
X97893716Y-66830520D01*
X98005520Y-66718716D01*
X98084577Y-66581784D01*
X98125500Y-66429057D01*
X98125500Y-66270943D01*
X98084577Y-66118216D01*
X98055429Y-66067729D01*
X98005524Y-65981290D01*
X98005518Y-65981282D01*
X97893718Y-65869482D01*
X97893716Y-65869480D01*
X97893713Y-65869478D01*
X97893709Y-65869475D01*
X97887499Y-65865890D01*
X97839284Y-65815323D01*
X97825500Y-65758504D01*
X97825500Y-64832124D01*
X97845185Y-64765085D01*
X97861814Y-64744448D01*
X99022382Y-63583879D01*
X99083703Y-63550396D01*
X99142154Y-63551787D01*
X99149089Y-63553646D01*
X99149091Y-63553646D01*
X99307201Y-63553646D01*
X99307203Y-63553646D01*
X99459930Y-63512723D01*
X99596862Y-63433666D01*
X99708666Y-63321862D01*
X99787723Y-63184930D01*
X99828646Y-63032203D01*
X99828646Y-62874089D01*
X99787723Y-62721362D01*
X99787719Y-62721355D01*
X99708670Y-62584436D01*
X99708664Y-62584428D01*
X99596863Y-62472627D01*
X99596862Y-62472626D01*
X99470846Y-62399871D01*
X99422632Y-62349306D01*
X99409408Y-62280699D01*
X99435376Y-62215834D01*
X99445160Y-62204809D01*
X99669236Y-61980733D01*
X99730557Y-61947250D01*
X99789008Y-61948641D01*
X99795943Y-61950500D01*
X99795945Y-61950500D01*
X99954055Y-61950500D01*
X99954057Y-61950500D01*
X100106784Y-61909577D01*
X100243716Y-61830520D01*
X100355520Y-61718716D01*
X100434577Y-61581784D01*
X100475500Y-61429057D01*
X100475500Y-61270943D01*
X100434577Y-61118216D01*
X100434573Y-61118209D01*
X100355524Y-60981290D01*
X100355518Y-60981282D01*
X100243717Y-60869481D01*
X100243709Y-60869475D01*
X100106790Y-60790426D01*
X100106786Y-60790424D01*
X100106784Y-60790423D01*
X99954057Y-60749500D01*
X99795943Y-60749500D01*
X99643216Y-60790423D01*
X99643209Y-60790426D01*
X99506290Y-60869475D01*
X99506282Y-60869481D01*
X99394481Y-60981282D01*
X99394475Y-60981290D01*
X99315426Y-61118209D01*
X99315423Y-61118216D01*
X99274500Y-61270943D01*
X99274500Y-61429057D01*
X99276358Y-61435992D01*
X99274693Y-61505842D01*
X99244263Y-61555764D01*
X96509560Y-64290469D01*
X96453612Y-64346416D01*
X96453606Y-64346424D01*
X96414053Y-64414933D01*
X96414050Y-64414938D01*
X96393571Y-64491368D01*
X96393571Y-66577200D01*
X96373886Y-66644239D01*
X96331572Y-66684586D01*
X96325361Y-66688171D01*
X96325352Y-66688178D01*
X96213552Y-66799978D01*
X96213546Y-66799986D01*
X96134497Y-66936905D01*
X96134494Y-66936912D01*
X96093571Y-67089639D01*
X88275315Y-67089639D01*
X88275315Y-58772354D01*
X88295000Y-58705315D01*
X88347804Y-58659560D01*
X88399315Y-58648354D01*
X89275315Y-58648354D01*
X89275315Y-56797844D01*
X94125000Y-56797844D01*
X94131401Y-56857372D01*
X94131403Y-56857379D01*
X94181645Y-56992086D01*
X94181649Y-56992093D01*
X94267809Y-57107187D01*
X94267812Y-57107190D01*
X94382906Y-57193350D01*
X94382913Y-57193354D01*
X94517620Y-57243596D01*
X94517627Y-57243598D01*
X94577155Y-57249999D01*
X94577172Y-57250000D01*
X95125000Y-57250000D01*
X95125000Y-56250000D01*
X94125000Y-56250000D01*
X94125000Y-56797844D01*
X89275315Y-56797844D01*
X89275315Y-55372091D01*
X89295000Y-55305052D01*
X89347804Y-55259297D01*
X89399050Y-55248091D01*
X94000740Y-55238321D01*
X94067818Y-55257862D01*
X94113685Y-55310569D01*
X94125000Y-55362320D01*
X94125000Y-55750000D01*
X95251000Y-55750000D01*
X95318039Y-55769685D01*
X95363794Y-55822489D01*
X95375000Y-55874000D01*
X95375000Y-56000000D01*
X95501000Y-56000000D01*
X95568039Y-56019685D01*
X95613794Y-56072489D01*
X95625000Y-56124000D01*
X95625000Y-57250000D01*
X96172828Y-57250000D01*
X96172844Y-57249999D01*
X96232372Y-57243598D01*
X96232379Y-57243596D01*
X96367086Y-57193354D01*
X96367088Y-57193352D01*
X96482186Y-57107191D01*
X96507019Y-57074018D01*
X96562953Y-57032147D01*
X96613687Y-57027058D01*
X96613687Y-57025500D01*
X97540138Y-57025500D01*
X97607177Y-57045185D01*
X97652932Y-57097989D01*
X97662876Y-57167147D01*
X97635000Y-57228187D01*
X97635000Y-57587844D01*
X97641401Y-57647372D01*
X97641403Y-57647379D01*
X97691645Y-57782086D01*
X97691649Y-57782093D01*
X97777809Y-57897187D01*
X97777812Y-57897190D01*
X97892906Y-57983350D01*
X97892913Y-57983354D01*
X98027620Y-58033596D01*
X98027627Y-58033598D01*
X98087155Y-58039999D01*
X98087172Y-58040000D01*
X98135000Y-58040000D01*
X98135000Y-57230000D01*
X97927224Y-57230000D01*
X97860185Y-57210315D01*
X97814430Y-57157511D01*
X97804486Y-57088353D01*
X97833511Y-57024797D01*
X97846621Y-57011771D01*
X97863658Y-56997197D01*
X97874616Y-56993637D01*
X97958032Y-56933032D01*
X97989819Y-56889279D01*
X98000936Y-56879771D01*
X98020001Y-56871210D01*
X98036551Y-56858449D01*
X98056961Y-56854615D01*
X98064676Y-56851152D01*
X98070635Y-56852047D01*
X98081539Y-56850000D01*
X98201000Y-56850000D01*
X98268039Y-56869685D01*
X98313794Y-56922489D01*
X98325000Y-56974000D01*
X98325000Y-57040000D01*
X98331027Y-57046027D01*
X98377539Y-57059685D01*
X98423294Y-57112489D01*
X98434500Y-57164000D01*
X98434500Y-57559752D01*
X98446131Y-57618229D01*
X98446132Y-57618230D01*
X98494102Y-57690021D01*
X98514980Y-57756698D01*
X98515000Y-57758912D01*
X98515000Y-58040000D01*
X98562828Y-58040000D01*
X98562844Y-58039999D01*
X98622372Y-58033598D01*
X98622379Y-58033596D01*
X98757086Y-57983354D01*
X98757093Y-57983350D01*
X98872186Y-57897190D01*
X98953142Y-57789049D01*
X98975267Y-57772485D01*
X98995195Y-57753349D01*
X99004528Y-57750581D01*
X99009076Y-57747178D01*
X99028506Y-57741686D01*
X99034543Y-57740500D01*
X99034748Y-57740500D01*
X99051027Y-57737261D01*
X99051097Y-57737248D01*
X99051728Y-57737306D01*
X99099195Y-57737306D01*
X99102715Y-57738006D01*
X99115250Y-57740500D01*
X99115252Y-57740500D01*
X99534749Y-57740500D01*
X99545030Y-57738454D01*
X99550805Y-57737306D01*
X99599195Y-57737306D01*
X99602715Y-57738006D01*
X99615250Y-57740500D01*
X99615252Y-57740500D01*
X100034749Y-57740500D01*
X100045030Y-57738454D01*
X100050805Y-57737306D01*
X100099195Y-57737306D01*
X100102715Y-57738006D01*
X100115250Y-57740500D01*
X100115252Y-57740500D01*
X100534750Y-57740500D01*
X100534751Y-57740499D01*
X100551097Y-57737248D01*
X100593229Y-57728868D01*
X100593229Y-57728867D01*
X100593231Y-57728867D01*
X100659552Y-57684552D01*
X100703867Y-57618231D01*
X100703867Y-57618229D01*
X100703868Y-57618229D01*
X100715499Y-57559752D01*
X100715500Y-57559750D01*
X100715500Y-56520249D01*
X100715499Y-56520247D01*
X100703868Y-56461770D01*
X100703867Y-56461769D01*
X100659552Y-56395447D01*
X100593230Y-56351132D01*
X100593229Y-56351131D01*
X100534752Y-56339500D01*
X100534748Y-56339500D01*
X100115252Y-56339500D01*
X100099184Y-56342695D01*
X100050816Y-56342695D01*
X100034748Y-56339500D01*
X99615252Y-56339500D01*
X99599184Y-56342695D01*
X99550816Y-56342695D01*
X99534748Y-56339500D01*
X99115252Y-56339500D01*
X99099184Y-56342695D01*
X99091020Y-56342704D01*
X99086350Y-56344555D01*
X99051868Y-56342750D01*
X99051102Y-56342751D01*
X99050817Y-56342695D01*
X99050816Y-56342695D01*
X99050745Y-56342680D01*
X99050051Y-56342543D01*
X99034748Y-56339500D01*
X99034551Y-56339500D01*
X99028511Y-56338314D01*
X99002530Y-56324803D01*
X98975392Y-56313821D01*
X98969230Y-56307487D01*
X98966522Y-56306079D01*
X98964607Y-56302735D01*
X98953144Y-56290952D01*
X98932827Y-56263813D01*
X98908408Y-56198349D01*
X98923258Y-56130076D01*
X98972663Y-56080669D01*
X99032092Y-56065500D01*
X103117908Y-56065500D01*
X103184947Y-56085185D01*
X103230702Y-56137989D01*
X103240646Y-56207147D01*
X103217172Y-56263815D01*
X103196854Y-56290954D01*
X103174730Y-56307513D01*
X103154801Y-56326652D01*
X103145438Y-56329439D01*
X103140918Y-56332823D01*
X103121489Y-56338314D01*
X103115451Y-56339500D01*
X103115252Y-56339500D01*
X103099528Y-56342627D01*
X103098899Y-56342751D01*
X103098290Y-56342695D01*
X103050816Y-56342695D01*
X103034748Y-56339500D01*
X102615252Y-56339500D01*
X102599184Y-56342695D01*
X102550816Y-56342695D01*
X102534748Y-56339500D01*
X102115252Y-56339500D01*
X102099184Y-56342695D01*
X102050816Y-56342695D01*
X102034748Y-56339500D01*
X101615252Y-56339500D01*
X101615247Y-56339500D01*
X101556770Y-56351131D01*
X101556769Y-56351132D01*
X101490447Y-56395447D01*
X101446132Y-56461769D01*
X101446131Y-56461770D01*
X101434500Y-56520247D01*
X101434500Y-57559752D01*
X101446131Y-57618229D01*
X101446132Y-57618230D01*
X101490447Y-57684552D01*
X101556769Y-57728867D01*
X101556770Y-57728868D01*
X101615247Y-57740499D01*
X101615250Y-57740500D01*
X101615252Y-57740500D01*
X102034749Y-57740500D01*
X102045030Y-57738454D01*
X102050805Y-57737306D01*
X102099195Y-57737306D01*
X102102715Y-57738006D01*
X102115250Y-57740500D01*
X102115252Y-57740500D01*
X102534749Y-57740500D01*
X102545030Y-57738454D01*
X102550805Y-57737306D01*
X102599195Y-57737306D01*
X102602715Y-57738006D01*
X102615250Y-57740500D01*
X102615252Y-57740500D01*
X103034749Y-57740500D01*
X103045030Y-57738454D01*
X103050804Y-57737305D01*
X103058976Y-57737296D01*
X103063656Y-57735442D01*
X103098108Y-57737248D01*
X103098904Y-57737248D01*
X103115252Y-57740500D01*
X103115457Y-57740500D01*
X103121494Y-57741686D01*
X103147363Y-57755140D01*
X103174416Y-57766027D01*
X103180709Y-57772483D01*
X103183481Y-57773925D01*
X103185426Y-57777322D01*
X103196856Y-57789048D01*
X103277812Y-57897190D01*
X103392906Y-57983350D01*
X103392913Y-57983354D01*
X103527620Y-58033596D01*
X103527619Y-58033596D01*
X103534255Y-58034310D01*
X103598806Y-58061048D01*
X103638654Y-58118441D01*
X103645000Y-58157600D01*
X103645000Y-58502844D01*
X103651401Y-58562372D01*
X103651403Y-58562379D01*
X103701645Y-58697086D01*
X103701649Y-58697093D01*
X103787809Y-58812187D01*
X103787812Y-58812190D01*
X103902906Y-58898350D01*
X103902913Y-58898354D01*
X104037620Y-58948596D01*
X104037627Y-58948598D01*
X104097155Y-58954999D01*
X104097172Y-58955000D01*
X104245000Y-58955000D01*
X104745000Y-58955000D01*
X104892828Y-58955000D01*
X104892844Y-58954999D01*
X104952372Y-58948598D01*
X104952379Y-58948596D01*
X105087086Y-58898354D01*
X105087093Y-58898350D01*
X105202187Y-58812190D01*
X105202190Y-58812187D01*
X105288350Y-58697093D01*
X105288354Y-58697086D01*
X105338596Y-58562379D01*
X105338598Y-58562372D01*
X105344999Y-58502844D01*
X105345000Y-58502827D01*
X105345000Y-58130000D01*
X104745000Y-58130000D01*
X104745000Y-58955000D01*
X104245000Y-58955000D01*
X104245000Y-58004000D01*
X104264685Y-57936961D01*
X104317489Y-57891206D01*
X104369000Y-57880000D01*
X104495000Y-57880000D01*
X104495000Y-57754000D01*
X104514685Y-57686961D01*
X104567489Y-57641206D01*
X104619000Y-57630000D01*
X105345000Y-57630000D01*
X105345000Y-57257172D01*
X105344999Y-57257155D01*
X105338598Y-57197627D01*
X105338596Y-57197619D01*
X105336812Y-57192835D01*
X105334677Y-57162995D01*
X105330037Y-57133441D01*
X105332210Y-57128514D01*
X105331826Y-57123144D01*
X105346164Y-57096884D01*
X105358238Y-57069516D01*
X105362728Y-57066547D01*
X105365310Y-57061820D01*
X105391568Y-57047481D01*
X105416523Y-57030984D01*
X105423777Y-57029893D01*
X105426633Y-57028334D01*
X105451390Y-57025510D01*
X105452163Y-57025500D01*
X105466715Y-57025500D01*
X105475000Y-57025500D01*
X105526554Y-57025500D01*
X105529636Y-57024498D01*
X105542108Y-57024337D01*
X105567468Y-57031429D01*
X105593588Y-57034800D01*
X105601235Y-57040871D01*
X105609396Y-57043154D01*
X105622102Y-57057440D01*
X105642977Y-57074015D01*
X105667812Y-57107190D01*
X105782906Y-57193350D01*
X105782913Y-57193354D01*
X105917620Y-57243596D01*
X105917627Y-57243598D01*
X105977155Y-57249999D01*
X105977172Y-57250000D01*
X106525000Y-57250000D01*
X107025000Y-57250000D01*
X107572828Y-57250000D01*
X107572844Y-57249999D01*
X107632372Y-57243598D01*
X107632379Y-57243596D01*
X107767086Y-57193354D01*
X107767093Y-57193350D01*
X107882187Y-57107190D01*
X107882190Y-57107187D01*
X107968350Y-56992093D01*
X107968354Y-56992086D01*
X108018596Y-56857379D01*
X108018598Y-56857372D01*
X108024999Y-56797844D01*
X108025000Y-56797827D01*
X108025000Y-56250000D01*
X107025000Y-56250000D01*
X107025000Y-57250000D01*
X106525000Y-57250000D01*
X106525000Y-56124000D01*
X106544685Y-56056961D01*
X106597489Y-56011206D01*
X106649000Y-56000000D01*
X106775000Y-56000000D01*
X106775000Y-55874000D01*
X106794685Y-55806961D01*
X106847489Y-55761206D01*
X106899000Y-55750000D01*
X108025000Y-55750000D01*
X108025000Y-55332282D01*
X108044685Y-55265243D01*
X108097489Y-55219488D01*
X108148733Y-55208282D01*
X112702789Y-55198614D01*
X112769870Y-55218156D01*
G37*
%TD.AperFunction*%
%TA.AperFunction,Conductor*%
G36*
X108036802Y-78046385D02*
G01*
X108077150Y-78088700D01*
X108094477Y-78118712D01*
X108094479Y-78118715D01*
X108094480Y-78118716D01*
X108206284Y-78230520D01*
X108206286Y-78230521D01*
X108206290Y-78230524D01*
X108340214Y-78307844D01*
X108343216Y-78309577D01*
X108495943Y-78350500D01*
X108495945Y-78350500D01*
X108654055Y-78350500D01*
X108654057Y-78350500D01*
X108690802Y-78340654D01*
X108760651Y-78342316D01*
X108818514Y-78381477D01*
X108846019Y-78445705D01*
X108834433Y-78514608D01*
X108810577Y-78548109D01*
X107203587Y-80155098D01*
X107203585Y-80155101D01*
X107167154Y-80218199D01*
X107162931Y-80233962D01*
X107162931Y-80233964D01*
X107148300Y-80288568D01*
X107148300Y-81494076D01*
X107128615Y-81561115D01*
X107075811Y-81606870D01*
X107065256Y-81611117D01*
X106962117Y-81647207D01*
X106852850Y-81727850D01*
X106772207Y-81837117D01*
X106772206Y-81837119D01*
X106727353Y-81965298D01*
X106727353Y-81965300D01*
X106724500Y-81995730D01*
X106724500Y-84104269D01*
X106727353Y-84134699D01*
X106727353Y-84134701D01*
X106772206Y-84262880D01*
X106772207Y-84262882D01*
X106852850Y-84372150D01*
X106962118Y-84452793D01*
X107013360Y-84470723D01*
X107070133Y-84511443D01*
X107095881Y-84576395D01*
X107082425Y-84644957D01*
X107034038Y-84695360D01*
X106972646Y-84711763D01*
X105828979Y-84714001D01*
X105761901Y-84694447D01*
X105716043Y-84641733D01*
X105705964Y-84572594D01*
X105725990Y-84526011D01*
X105723525Y-84524491D01*
X105819356Y-84369124D01*
X105819358Y-84369119D01*
X105874505Y-84202697D01*
X105874506Y-84202690D01*
X105884999Y-84099986D01*
X105885000Y-84099973D01*
X105885000Y-83300000D01*
X103885001Y-83300000D01*
X103885001Y-84099986D01*
X103895494Y-84202697D01*
X103950641Y-84369119D01*
X103950643Y-84369124D01*
X104046475Y-84524491D01*
X104044938Y-84525438D01*
X104067585Y-84581569D01*
X104054547Y-84650212D01*
X104006468Y-84700909D01*
X103944422Y-84717689D01*
X102774360Y-84719979D01*
X102707282Y-84700425D01*
X102661424Y-84647711D01*
X102651345Y-84578572D01*
X102680245Y-84514960D01*
X102733159Y-84478939D01*
X102807882Y-84452793D01*
X102917150Y-84372150D01*
X102997793Y-84262882D01*
X103020219Y-84198790D01*
X103042646Y-84134701D01*
X103042646Y-84134699D01*
X103045500Y-84104269D01*
X103045500Y-82000013D01*
X103885000Y-82000013D01*
X103885000Y-82800000D01*
X104635000Y-82800000D01*
X105135000Y-82800000D01*
X105884999Y-82800000D01*
X105884999Y-82000028D01*
X105884998Y-82000013D01*
X105874505Y-81897302D01*
X105819358Y-81730880D01*
X105819356Y-81730875D01*
X105727315Y-81581654D01*
X105603345Y-81457684D01*
X105454124Y-81365643D01*
X105454119Y-81365641D01*
X105287697Y-81310494D01*
X105287690Y-81310493D01*
X105184986Y-81300000D01*
X105135000Y-81300000D01*
X105135000Y-82800000D01*
X104635000Y-82800000D01*
X104635000Y-81300000D01*
X104634999Y-81299999D01*
X104585029Y-81300000D01*
X104585011Y-81300001D01*
X104482302Y-81310494D01*
X104315880Y-81365641D01*
X104315875Y-81365643D01*
X104166654Y-81457684D01*
X104042684Y-81581654D01*
X103950643Y-81730875D01*
X103950641Y-81730880D01*
X103895494Y-81897302D01*
X103895493Y-81897309D01*
X103885000Y-82000013D01*
X103045500Y-82000013D01*
X103045500Y-81995730D01*
X103042646Y-81965300D01*
X103042646Y-81965298D01*
X102997793Y-81837119D01*
X102997792Y-81837117D01*
X102917150Y-81727850D01*
X102807882Y-81647207D01*
X102704744Y-81611117D01*
X102647969Y-81570395D01*
X102622222Y-81505442D01*
X102621700Y-81494076D01*
X102621700Y-79745975D01*
X102641385Y-79678936D01*
X102658019Y-79658294D01*
X104253294Y-78063019D01*
X104314617Y-78029534D01*
X104340975Y-78026700D01*
X107969763Y-78026700D01*
X108036802Y-78046385D01*
G37*
%TD.AperFunction*%
%TD*%
M02*
