M48
; DRILL file {KiCad 9.0.4} date 2025-09-12T00:02:22+0200
; FORMAT={-:-/ absolute / metric / decimal}
; #@! TF.CreationDate,2025-09-12T00:02:22+02:00
; #@! TF.GenerationSoftware,Kicad,Pcbnew,9.0.4
; #@! TF.FileFunction,Plated,1,4,PTH
FMAT,2
METRIC
; #@! TA.AperFunction,Plated,PTH,ComponentDrill
T1C0.250
; #@! TA.AperFunction,Plated,PTH,ViaDrill
T2C0.300
; #@! TA.AperFunction,Plated,PTH,ViaDrill
T3C0.400
%
G90
G05
T1
X105.38Y-65.421
X105.38Y-66.796
X105.38Y-68.171
X106.755Y-65.421
X106.755Y-66.796
X106.755Y-68.171
X108.13Y-65.421
X108.13Y-66.796
X108.13Y-68.171
T2
X96.09Y-54.99
X97.3Y-60.53
X100.55Y-64.2
X100.7Y-62.6
X101.85Y-62.05
X102.13Y-70.54
X103.01Y-59.82
X103.305Y-72.275
X103.434Y-73.064
X104.71Y-58.37
X104.755Y-60.67
X104.805Y-55.22
X105.56Y-59.9
X106.14Y-60.53
X106.93Y-60.01
X108.756Y-71.816
X109.26Y-61.65
X109.68Y-72.206
X110.1Y-61.51
X110.37Y-74.046
X110.555Y-72.75
X111.04Y-74.896
X111.5Y-66.6
X111.5Y-68.8
X113.25Y-64.98
X114.46Y-56.08
X115.18Y-67.25
T3
X92.25Y-67.08
X92.6Y-65.0
X93.1Y-76.4
X93.2Y-68.41
X96.6Y-70.0
X97.63Y-57.546
X97.9Y-55.05
X98.005Y-69.996
X98.8Y-56.246
X99.3Y-70.0
X106.86Y-57.06
X109.43Y-55.4
X112.38Y-57.07
X113.33Y-75.85
M30
