%TF.GenerationSoftware,KiCad,Pcbnew,9.0.4*%
%TF.CreationDate,2025-09-12T00:02:28+02:00*%
%TF.ProjectId,rp2350_gpio_card,72703233-3530-45f6-9770-696f5f636172,X1*%
%TF.SameCoordinates,Original*%
%TF.FileFunction,Copper,L4,Bot*%
%TF.FilePolarity,Positive*%
%FSLAX46Y46*%
G04 Gerber Fmt 4.6, Leading zero omitted, Abs format (unit mm)*
G04 Created by KiCad (PCBNEW 9.0.4) date 2025-09-12 00:02:28*
%MOMM*%
%LPD*%
G01*
G04 APERTURE LIST*
G04 Aperture macros list*
%AMRoundRect*
0 Rectangle with rounded corners*
0 $1 Rounding radius*
0 $2 $3 $4 $5 $6 $7 $8 $9 X,Y pos of 4 corners*
0 Add a 4 corners polygon primitive as box body*
4,1,4,$2,$3,$4,$5,$6,$7,$8,$9,$2,$3,0*
0 Add four circle primitives for the rounded corners*
1,1,$1+$1,$2,$3*
1,1,$1+$1,$4,$5*
1,1,$1+$1,$6,$7*
1,1,$1+$1,$8,$9*
0 Add four rect primitives between the rounded corners*
20,1,$1+$1,$2,$3,$4,$5,0*
20,1,$1+$1,$4,$5,$6,$7,0*
20,1,$1+$1,$6,$7,$8,$9,0*
20,1,$1+$1,$8,$9,$2,$3,0*%
G04 Aperture macros list end*
%TA.AperFunction,SMDPad,CuDef*%
%ADD10R,0.380000X1.000000*%
%TD*%
%TA.AperFunction,SMDPad,CuDef*%
%ADD11R,0.700000X1.150000*%
%TD*%
%TA.AperFunction,ComponentPad*%
%ADD12C,0.600000*%
%TD*%
%TA.AperFunction,SMDPad,CuDef*%
%ADD13RoundRect,0.250000X-0.250000X1.000000X-0.250000X-1.000000X0.250000X-1.000000X0.250000X1.000000X0*%
%TD*%
%TA.AperFunction,ViaPad*%
%ADD14C,0.800000*%
%TD*%
%TA.AperFunction,ViaPad*%
%ADD15C,0.600000*%
%TD*%
%TA.AperFunction,Conductor*%
%ADD16C,0.200000*%
%TD*%
%TA.AperFunction,Conductor*%
%ADD17C,0.152400*%
%TD*%
G04 APERTURE END LIST*
D10*
%TO.P,P1,B1,GND*%
%TO.N,GND*%
X106305183Y-54186434D03*
%TO.P,P1,B2*%
%TO.N,N/C*%
X105805183Y-54186434D03*
%TO.P,P1,B3*%
X105305183Y-54186434D03*
%TO.P,P1,B4,VBUS*%
%TO.N,VBUS*%
X104805183Y-54186434D03*
%TO.P,P1,B5,VCONN*%
%TO.N,unconnected-(P1-VCONN-PadB5)*%
X104305183Y-54186434D03*
%TO.P,P1,B8*%
%TO.N,N/C*%
X102805183Y-54186434D03*
%TO.P,P1,B9,VBUS*%
%TO.N,VBUS*%
X102305183Y-54186434D03*
%TO.P,P1,B10*%
%TO.N,N/C*%
X101805183Y-54186434D03*
%TO.P,P1,B11*%
X101305183Y-54186434D03*
%TO.P,P1,B12,GND*%
%TO.N,GND*%
X100805183Y-54186434D03*
D11*
%TO.P,P1,S1,SHIELD*%
X106975183Y-55026434D03*
%TD*%
D12*
%TO.P,U1,61,GND*%
%TO.N,GND*%
X105380183Y-68171434D03*
X106755183Y-68171434D03*
X108130183Y-68171434D03*
X105380183Y-66796434D03*
X106755183Y-66796434D03*
X108130183Y-66796434D03*
X105380183Y-65421434D03*
X106755183Y-65421434D03*
X108130183Y-65421434D03*
%TD*%
D13*
%TO.P,J1,1,Pin_1*%
%TO.N,/QSPI_SS*%
X92125183Y-79600000D03*
%TO.P,J1,2,Pin_2*%
%TO.N,/GPIO9*%
X94665183Y-79600000D03*
%TO.P,J1,3,Pin_3*%
%TO.N,/GPIO10*%
X97205183Y-79600000D03*
%TO.P,J1,4,Pin_4*%
%TO.N,/GPIO11*%
X99745183Y-79600000D03*
%TO.P,J1,5,Pin_5*%
%TO.N,/GPIO12*%
X102285183Y-79600000D03*
%TO.P,J1,6,Pin_6*%
%TO.N,/GPIO13*%
X104825183Y-79600000D03*
%TO.P,J1,7,Pin_7*%
%TO.N,GND*%
X107365183Y-79600000D03*
%TO.P,J1,8,Pin_8*%
%TO.N,/GPIO27_ADC1*%
X109905183Y-79600000D03*
%TO.P,J1,9,Pin_9*%
%TO.N,/GPIO28_ADC2*%
X112445183Y-79600000D03*
%TO.P,J1,10,Pin_10*%
%TO.N,/GPIO29_ADC3*%
X114985183Y-79600000D03*
%TD*%
D14*
%TO.N,GND*%
X96600000Y-70000000D03*
X99300000Y-70000000D03*
D15*
%TO.N,VBUS*%
X104805183Y-55220000D03*
%TO.N,*%
X96090000Y-54990000D03*
D14*
%TO.N,GND*%
X112380000Y-57070000D03*
D15*
%TO.N,*%
X114460000Y-56080000D03*
X97300000Y-60530000D03*
X104710000Y-58370000D03*
%TO.N,GND*%
X103304724Y-72274724D03*
%TO.N,/GPIO0*%
X103434390Y-73064390D03*
%TO.N,GND*%
X109260000Y-61650000D03*
X106930000Y-60010000D03*
%TO.N,+1V1*%
X110100000Y-61510000D03*
%TO.N,GND*%
X115180000Y-67250000D03*
%TO.N,/GPIO9*%
X108755502Y-71815683D03*
%TO.N,GND*%
X113250000Y-64980000D03*
X103010000Y-59820000D03*
D14*
X93200000Y-68410000D03*
X109430000Y-55400000D03*
D15*
%TO.N,/GPIO29_ADC3*%
X104755183Y-60670000D03*
%TO.N,/GPIO28_ADC2*%
X105560000Y-59900000D03*
%TO.N,/GPIO27_ADC1*%
X106140000Y-60530000D03*
%TO.N,/QSPI_SS*%
X102130183Y-70540000D03*
%TO.N,/RUN*%
X111500000Y-68800000D03*
X111500000Y-66600000D03*
%TO.N,+1V1*%
X100550000Y-64200000D03*
D14*
%TO.N,VBUS*%
X98800000Y-56246434D03*
%TO.N,/GPIO0*%
X93100000Y-76400000D03*
%TO.N,GND*%
X97900000Y-55050000D03*
X98005183Y-69996434D03*
D15*
X101850000Y-62050000D03*
D14*
X92600000Y-65000000D03*
X113330000Y-75850000D03*
X106860000Y-57060000D03*
X92250000Y-67080000D03*
D15*
X100700000Y-62600000D03*
D14*
X97630183Y-57546434D03*
D15*
%TO.N,/GPIO10*%
X109680183Y-72205729D03*
%TO.N,/GPIO11*%
X110555183Y-72750000D03*
%TO.N,/GPIO12*%
X110370000Y-74046434D03*
%TO.N,/GPIO13*%
X111040000Y-74896434D03*
%TD*%
D16*
%TO.N,VBUS*%
X103742294Y-56757706D02*
X102157706Y-56757706D01*
X102157706Y-56757706D02*
X102090000Y-56690000D01*
X103742294Y-56757706D02*
X104480000Y-56020000D01*
D17*
X104805183Y-55694817D02*
X104480000Y-56020000D01*
%TO.N,GND*%
X100805183Y-54214817D02*
X99930000Y-55090000D01*
X100805183Y-54186434D02*
X100805183Y-54214817D01*
%TO.N,/GPIO0*%
X103434390Y-73064390D02*
X102221946Y-74276834D01*
X102221946Y-74276834D02*
X95223166Y-74276834D01*
X95223166Y-74276834D02*
X93100000Y-76400000D01*
X103601588Y-72897192D02*
X103434390Y-73064390D01*
%TO.N,/QSPI_SS*%
X102130183Y-70540000D02*
X102130183Y-72746434D01*
X102130183Y-72746434D02*
X101076617Y-73800000D01*
X92125183Y-75668728D02*
X92125183Y-80196434D01*
X101076617Y-73800000D02*
X93993911Y-73800000D01*
X93993911Y-73800000D02*
X92125183Y-75668728D01*
%TO.N,+1V1*%
X110100000Y-62010000D02*
X109670000Y-62440000D01*
X109670000Y-62440000D02*
X102547200Y-62440000D01*
X110100000Y-61510000D02*
X110100000Y-62010000D01*
X102547200Y-62440000D02*
X102407200Y-62300000D01*
%TO.N,/GPIO27_ADC1*%
X106140000Y-60530000D02*
X106140000Y-59820000D01*
X106140000Y-59820000D02*
X107080000Y-58880000D01*
X107080000Y-58880000D02*
X107080000Y-58870000D01*
X111800000Y-70200000D02*
X111800000Y-75576617D01*
X107080000Y-58870000D02*
X107253566Y-58696434D01*
X107253566Y-58696434D02*
X110555183Y-58696434D01*
X110555183Y-58696434D02*
X113994383Y-62135634D01*
X113994383Y-62135634D02*
X113994383Y-68005617D01*
X113994383Y-68005617D02*
X111800000Y-70200000D01*
X111800000Y-75576617D02*
X109905183Y-77471434D01*
X109905183Y-77471434D02*
X109905183Y-80196434D01*
%TO.N,/GPIO28_ADC2*%
X112445183Y-80196434D02*
X112445183Y-73836434D01*
X111255183Y-58146434D02*
X106653566Y-58146434D01*
X112445183Y-73836434D02*
X112119600Y-73510851D01*
X106653566Y-58146434D02*
X105580000Y-59220000D01*
X112119600Y-73510851D02*
X112119600Y-70295143D01*
X112119600Y-70295143D02*
X114274783Y-68139959D01*
X114274783Y-68139959D02*
X114274783Y-61166034D01*
X114274783Y-61166034D02*
X111255183Y-58146434D01*
X105580000Y-59220000D02*
X105580000Y-59880000D01*
X105580000Y-59880000D02*
X105560000Y-59900000D01*
X105560000Y-59900000D02*
X105430000Y-59770000D01*
%TO.N,/RUN*%
X111500000Y-68800000D02*
X111500000Y-68272634D01*
X111500000Y-66600000D02*
X111500000Y-68800000D01*
%TO.N,/GPIO13*%
X111055183Y-74896434D02*
X111040000Y-74896434D01*
%TO.N,/GPIO12*%
X110405183Y-74046434D02*
X110370000Y-74046434D01*
%TO.N,/GPIO29_ADC3*%
X104755183Y-60670000D02*
X104755183Y-59546434D01*
%TO.N,/RUN*%
X111500000Y-66570000D02*
X111500000Y-66600000D01*
%TO.N,+1V1*%
X100550000Y-64150000D02*
X100550000Y-64200000D01*
X102407200Y-62300000D02*
X102400000Y-62300000D01*
X102400000Y-62300000D02*
X100550000Y-64150000D01*
X102407200Y-62300800D02*
X102407200Y-62300000D01*
D16*
%TO.N,VBUS*%
X102090000Y-56690000D02*
X101700000Y-56300000D01*
X102300000Y-55189634D02*
X102305183Y-55194817D01*
D17*
X104805183Y-54186434D02*
X104805183Y-55694817D01*
X102305183Y-54186434D02*
X102305183Y-54994817D01*
D16*
X98853566Y-56300000D02*
X98800000Y-56246434D01*
D17*
X102305183Y-54994817D02*
X102300000Y-55000000D01*
D16*
X101700000Y-56300000D02*
X98853566Y-56300000D01*
X102305183Y-55194817D02*
X101200000Y-56300000D01*
X102300000Y-55000000D02*
X102300000Y-55189634D01*
D17*
%TO.N,/GPIO29_ADC3*%
X111505183Y-57746434D02*
X114555183Y-60796434D01*
X112400000Y-70411288D02*
X112400000Y-73241251D01*
X104755183Y-59546434D02*
X106555183Y-57746434D01*
X112400000Y-73241251D02*
X114985183Y-75826434D01*
X106555183Y-57746434D02*
X111505183Y-57746434D01*
X114985183Y-75826434D02*
X114985183Y-80196434D01*
X114555183Y-60796434D02*
X114555183Y-68256105D01*
X104755183Y-60700000D02*
X104755183Y-60670000D01*
X114555183Y-68256105D02*
X112400000Y-70411288D01*
%TO.N,/GPIO11*%
X104906966Y-73693034D02*
X102403566Y-76196434D01*
X99745183Y-77006434D02*
X99745183Y-80196434D01*
X102403566Y-76196434D02*
X100555183Y-76196434D01*
X100555183Y-76196434D02*
X99745183Y-77006434D01*
X109633583Y-73693034D02*
X104906966Y-73693034D01*
X110555183Y-72771434D02*
X109633583Y-73693034D01*
%TO.N,/GPIO10*%
X97205183Y-76746434D02*
X97205183Y-80196434D01*
X109680183Y-72196434D02*
X109680183Y-72205729D01*
X109680183Y-72205729D02*
X108789478Y-73096434D01*
X108789478Y-73096434D02*
X105028720Y-73096434D01*
X105028720Y-73096434D02*
X102282120Y-75843034D01*
X98108583Y-75843034D02*
X97205183Y-76746434D01*
X102282120Y-75843034D02*
X98108583Y-75843034D01*
%TO.N,/GPIO9*%
X101955289Y-75500000D02*
X96201617Y-75500000D01*
X94665183Y-77036434D02*
X94665183Y-80196434D01*
X104855289Y-72600000D02*
X101955289Y-75500000D01*
X108755502Y-71815683D02*
X107971185Y-72600000D01*
X107971185Y-72600000D02*
X104855289Y-72600000D01*
X96201617Y-75500000D02*
X94665183Y-77036434D01*
%TO.N,/GPIO13*%
X104825183Y-76726434D02*
X104825183Y-80196434D01*
X106655183Y-74896434D02*
X104825183Y-76726434D01*
%TO.N,/GPIO12*%
X102285183Y-80196434D02*
X102285183Y-76816434D01*
X102285183Y-76816434D02*
X105055183Y-74046434D01*
%TO.N,GND*%
X106305183Y-54356434D02*
X106975183Y-55026434D01*
X106305183Y-54186434D02*
X106305183Y-54356434D01*
%TO.N,/GPIO12*%
X110370000Y-74046434D02*
X105055183Y-74046434D01*
%TO.N,/GPIO13*%
X111040000Y-74896434D02*
X106655183Y-74896434D01*
%TD*%
%TA.AperFunction,Conductor*%
%TO.N,GND*%
G36*
X98297722Y-52666619D02*
G01*
X98343477Y-52719423D01*
X98354683Y-52770934D01*
X98354683Y-53772451D01*
X98354674Y-53772589D01*
X98354676Y-53795111D01*
X98354660Y-53795165D01*
X98354675Y-53925328D01*
X98354675Y-53925329D01*
X98385450Y-54079969D01*
X98385450Y-54079971D01*
X98445796Y-54225632D01*
X98445797Y-54225634D01*
X98445799Y-54225638D01*
X98533405Y-54356735D01*
X98533407Y-54356737D01*
X98533408Y-54356738D01*
X98533410Y-54356741D01*
X98629169Y-54452493D01*
X98644901Y-54468224D01*
X98776003Y-54555822D01*
X98921674Y-54616164D01*
X99076317Y-54646930D01*
X99080000Y-54646930D01*
X99089279Y-54646930D01*
X99089291Y-54646934D01*
X99155154Y-54646934D01*
X99155157Y-54646934D01*
X99221047Y-54646938D01*
X99221051Y-54646936D01*
X99229099Y-54646937D01*
X99229162Y-54646934D01*
X99994411Y-54646934D01*
X100061450Y-54666619D01*
X100107205Y-54719423D01*
X100117700Y-54757678D01*
X100121584Y-54793806D01*
X100121586Y-54793813D01*
X100171828Y-54928520D01*
X100171832Y-54928527D01*
X100257992Y-55043621D01*
X100257995Y-55043624D01*
X100373089Y-55129784D01*
X100373096Y-55129788D01*
X100507803Y-55180030D01*
X100507810Y-55180032D01*
X100567338Y-55186433D01*
X100567355Y-55186434D01*
X100615183Y-55186434D01*
X100615183Y-54601472D01*
X100615732Y-54599600D01*
X100615240Y-54597714D01*
X100625536Y-54566211D01*
X100634868Y-54534433D01*
X100636532Y-54532569D01*
X100636947Y-54531302D01*
X100643044Y-54525280D01*
X100660858Y-54505341D01*
X100665411Y-54501630D01*
X100715427Y-54468217D01*
X100755076Y-54428574D01*
X100759958Y-54424597D01*
X100786579Y-54413401D01*
X100811933Y-54399560D01*
X100818394Y-54400022D01*
X100824364Y-54397512D01*
X100852811Y-54402486D01*
X100881624Y-54404549D01*
X100886809Y-54408431D01*
X100893190Y-54409547D01*
X100914433Y-54429113D01*
X100937555Y-54446424D01*
X100939818Y-54452493D01*
X100944582Y-54456881D01*
X100951874Y-54484823D01*
X100961968Y-54511890D01*
X100962283Y-54520727D01*
X100962283Y-54701488D01*
X100971155Y-54746091D01*
X100971155Y-54746093D01*
X100974283Y-54750773D01*
X100995163Y-54817449D01*
X100995183Y-54819666D01*
X100995183Y-55186434D01*
X101043011Y-55186434D01*
X101043027Y-55186433D01*
X101102555Y-55180032D01*
X101102562Y-55180030D01*
X101237269Y-55129788D01*
X101237276Y-55129784D01*
X101352370Y-55043624D01*
X101352373Y-55043621D01*
X101438533Y-54928527D01*
X101443785Y-54914446D01*
X101485655Y-54858511D01*
X101551118Y-54834091D01*
X101584164Y-54836158D01*
X101600126Y-54839334D01*
X101923100Y-54839333D01*
X101931786Y-54841883D01*
X101940747Y-54840595D01*
X101964783Y-54851572D01*
X101990139Y-54859017D01*
X101996067Y-54865859D01*
X102004303Y-54869620D01*
X102018589Y-54891851D01*
X102035894Y-54911821D01*
X102038181Y-54922336D01*
X102042077Y-54928398D01*
X102047100Y-54963333D01*
X102047100Y-55043884D01*
X102027415Y-55110923D01*
X102010781Y-55131565D01*
X101131565Y-56010781D01*
X101070242Y-56044266D01*
X101043884Y-56047100D01*
X99394940Y-56047100D01*
X99327901Y-56027415D01*
X99287553Y-55985100D01*
X99242432Y-55906948D01*
X99242428Y-55906943D01*
X99139490Y-55804005D01*
X99139485Y-55804001D01*
X99013413Y-55731214D01*
X99013412Y-55731213D01*
X99013411Y-55731213D01*
X98872791Y-55693534D01*
X98727209Y-55693534D01*
X98586589Y-55731213D01*
X98586587Y-55731214D01*
X98586586Y-55731214D01*
X98460514Y-55804001D01*
X98460509Y-55804005D01*
X98357571Y-55906943D01*
X98357567Y-55906948D01*
X98284780Y-56033020D01*
X98284780Y-56033021D01*
X98284779Y-56033023D01*
X98247100Y-56173643D01*
X98247100Y-56319225D01*
X98284779Y-56459845D01*
X98284780Y-56459846D01*
X98284780Y-56459847D01*
X98357567Y-56585919D01*
X98357569Y-56585922D01*
X98357570Y-56585923D01*
X98460511Y-56688864D01*
X98586589Y-56761655D01*
X98727209Y-56799334D01*
X98727211Y-56799334D01*
X98872788Y-56799334D01*
X98872791Y-56799334D01*
X99013411Y-56761655D01*
X99139489Y-56688864D01*
X99239134Y-56589219D01*
X99300457Y-56555734D01*
X99326815Y-56552900D01*
X101149693Y-56552900D01*
X101149695Y-56552901D01*
X101250305Y-56552901D01*
X101250307Y-56552900D01*
X101543884Y-56552900D01*
X101610923Y-56572585D01*
X101631565Y-56589219D01*
X101936236Y-56893891D01*
X101936239Y-56893895D01*
X101943307Y-56900963D01*
X102014449Y-56972105D01*
X102068899Y-56994658D01*
X102107401Y-57010607D01*
X102208011Y-57010607D01*
X102208013Y-57010606D01*
X103677547Y-57010606D01*
X103677555Y-57010607D01*
X103691989Y-57010607D01*
X103792599Y-57010607D01*
X103819823Y-56999329D01*
X103831101Y-56994658D01*
X103831103Y-56994656D01*
X103885551Y-56972105D01*
X103956693Y-56900963D01*
X103956693Y-56900960D01*
X103968608Y-56889046D01*
X103968611Y-56889041D01*
X104694398Y-56163256D01*
X104708759Y-56128583D01*
X104735634Y-56088361D01*
X104999405Y-55824592D01*
X105028956Y-55753248D01*
X105034283Y-55740388D01*
X105034283Y-55673516D01*
X105035218Y-55665947D01*
X105046188Y-55640601D01*
X105053968Y-55614109D01*
X105060933Y-55606538D01*
X105062973Y-55601826D01*
X105068974Y-55597797D01*
X105077690Y-55588324D01*
X105077523Y-55588157D01*
X105081548Y-55584131D01*
X105082803Y-55582768D01*
X105083263Y-55582413D01*
X105083270Y-55582410D01*
X105167593Y-55498087D01*
X105227219Y-55394813D01*
X105258083Y-55279625D01*
X105258083Y-55160375D01*
X105227219Y-55045187D01*
X105215756Y-55025333D01*
X105214689Y-55020934D01*
X105211642Y-55017587D01*
X105206527Y-54987296D01*
X105199283Y-54957436D01*
X105200763Y-54953157D01*
X105200010Y-54948693D01*
X105212086Y-54920439D01*
X105222134Y-54891408D01*
X105225692Y-54888609D01*
X105227472Y-54884446D01*
X105252907Y-54867206D01*
X105277054Y-54848217D01*
X105282609Y-54847075D01*
X105285309Y-54845246D01*
X105311228Y-54841195D01*
X105320111Y-54839370D01*
X105321604Y-54839333D01*
X105510239Y-54839333D01*
X105536689Y-54834072D01*
X105547364Y-54833811D01*
X105571209Y-54840183D01*
X105595794Y-54842383D01*
X105604371Y-54849045D01*
X105614864Y-54851850D01*
X105631478Y-54870102D01*
X105650972Y-54885245D01*
X105659095Y-54900441D01*
X105661897Y-54903520D01*
X105662430Y-54906682D01*
X105666577Y-54914439D01*
X105671831Y-54928525D01*
X105671831Y-54928526D01*
X105757992Y-55043621D01*
X105757995Y-55043624D01*
X105873089Y-55129784D01*
X105873096Y-55129788D01*
X106007803Y-55180030D01*
X106007802Y-55180030D01*
X106014438Y-55180744D01*
X106078989Y-55207482D01*
X106118837Y-55264875D01*
X106125183Y-55304034D01*
X106125183Y-55649278D01*
X106131584Y-55708806D01*
X106131586Y-55708813D01*
X106181828Y-55843520D01*
X106181832Y-55843527D01*
X106267992Y-55958621D01*
X106267995Y-55958624D01*
X106383089Y-56044784D01*
X106383096Y-56044788D01*
X106517803Y-56095030D01*
X106517810Y-56095032D01*
X106577338Y-56101433D01*
X106577355Y-56101434D01*
X106725183Y-56101434D01*
X107225183Y-56101434D01*
X107373011Y-56101434D01*
X107373027Y-56101433D01*
X107432555Y-56095032D01*
X107432562Y-56095030D01*
X107567269Y-56044788D01*
X107567276Y-56044784D01*
X107599882Y-56020375D01*
X114007100Y-56020375D01*
X114007100Y-56139625D01*
X114016701Y-56175456D01*
X114037964Y-56254814D01*
X114067777Y-56306450D01*
X114097590Y-56358087D01*
X114181913Y-56442410D01*
X114285187Y-56502036D01*
X114400375Y-56532900D01*
X114400377Y-56532900D01*
X114519623Y-56532900D01*
X114519625Y-56532900D01*
X114634813Y-56502036D01*
X114738087Y-56442410D01*
X114822410Y-56358087D01*
X114882036Y-56254813D01*
X114912900Y-56139625D01*
X114912900Y-56020375D01*
X114882036Y-55905187D01*
X114822410Y-55801913D01*
X114738087Y-55717590D01*
X114652274Y-55668045D01*
X114634814Y-55657964D01*
X114570012Y-55640601D01*
X114519625Y-55627100D01*
X114400375Y-55627100D01*
X114285185Y-55657964D01*
X114181913Y-55717590D01*
X114181910Y-55717592D01*
X114097592Y-55801910D01*
X114097590Y-55801913D01*
X114037964Y-55905185D01*
X114016552Y-55985100D01*
X114007100Y-56020375D01*
X107599882Y-56020375D01*
X107682370Y-55958624D01*
X107682373Y-55958621D01*
X107697858Y-55937937D01*
X107768533Y-55843527D01*
X107768537Y-55843520D01*
X107818779Y-55708813D01*
X107818781Y-55708806D01*
X107825182Y-55649278D01*
X107825183Y-55649261D01*
X107825183Y-55276434D01*
X107225183Y-55276434D01*
X107225183Y-56101434D01*
X106725183Y-56101434D01*
X106725183Y-55150434D01*
X106744868Y-55083395D01*
X106797672Y-55037640D01*
X106849183Y-55026434D01*
X106975183Y-55026434D01*
X106975183Y-54900434D01*
X106994868Y-54833395D01*
X107047672Y-54787640D01*
X107099183Y-54776434D01*
X107825183Y-54776434D01*
X107825183Y-54770934D01*
X107827723Y-54762282D01*
X107826435Y-54753359D01*
X107837413Y-54729282D01*
X107844868Y-54703895D01*
X107851681Y-54697990D01*
X107855423Y-54689786D01*
X107877677Y-54675465D01*
X107897672Y-54658140D01*
X107908148Y-54655857D01*
X107914179Y-54651977D01*
X107948970Y-54646964D01*
X107949111Y-54646934D01*
X107955155Y-54646934D01*
X108021075Y-54646934D01*
X108021231Y-54646891D01*
X108028561Y-54646887D01*
X108029545Y-54646887D01*
X108029558Y-54646891D01*
X108029615Y-54646887D01*
X108033992Y-54646888D01*
X108188640Y-54616136D01*
X108334318Y-54555807D01*
X108465427Y-54468217D01*
X108576930Y-54356733D01*
X108664542Y-54225639D01*
X108712264Y-54110461D01*
X108724896Y-54079974D01*
X108724896Y-54079973D01*
X108724897Y-54079971D01*
X108755674Y-53925329D01*
X108755675Y-53912354D01*
X108755683Y-53912326D01*
X108755683Y-53846377D01*
X108755691Y-53780599D01*
X108755690Y-53780595D01*
X108755691Y-53772589D01*
X108755683Y-53772451D01*
X108755683Y-52770934D01*
X108775368Y-52703895D01*
X108828172Y-52658140D01*
X108879683Y-52646934D01*
X114930683Y-52646934D01*
X114997722Y-52666619D01*
X115043477Y-52719423D01*
X115054683Y-52770934D01*
X115054683Y-55272489D01*
X115054680Y-55280578D01*
X115054675Y-55280599D01*
X115054676Y-55293375D01*
X115054676Y-55295160D01*
X115054660Y-55295214D01*
X115054675Y-55425328D01*
X115054675Y-55425329D01*
X115085450Y-55579969D01*
X115085450Y-55579971D01*
X115145796Y-55725632D01*
X115145797Y-55725634D01*
X115145799Y-55725638D01*
X115233405Y-55856735D01*
X115233407Y-55856737D01*
X115233408Y-55856738D01*
X115233410Y-55856741D01*
X115335297Y-55958621D01*
X115344901Y-55968224D01*
X115476003Y-56055822D01*
X115621674Y-56116164D01*
X115776317Y-56146930D01*
X115780000Y-56146930D01*
X115789279Y-56146930D01*
X115789291Y-56146934D01*
X115855154Y-56146934D01*
X115855157Y-56146934D01*
X115921047Y-56146938D01*
X115921051Y-56146936D01*
X115929099Y-56146937D01*
X115929162Y-56146934D01*
X115930683Y-56146934D01*
X115997722Y-56166619D01*
X116043477Y-56219423D01*
X116054683Y-56270934D01*
X116054683Y-70636676D01*
X116034998Y-70703715D01*
X115982194Y-70749470D01*
X115913036Y-70759414D01*
X115849480Y-70730389D01*
X115843002Y-70724357D01*
X115734969Y-70616324D01*
X115563003Y-70491385D01*
X115373597Y-70394878D01*
X115373596Y-70394877D01*
X115373595Y-70394877D01*
X115171426Y-70329188D01*
X115171424Y-70329187D01*
X115171423Y-70329187D01*
X115010140Y-70303642D01*
X114961470Y-70295934D01*
X114748896Y-70295934D01*
X114700225Y-70303642D01*
X114538943Y-70329187D01*
X114336768Y-70394878D01*
X114147362Y-70491385D01*
X113975396Y-70616324D01*
X113825073Y-70766647D01*
X113700134Y-70938613D01*
X113603627Y-71128019D01*
X113537936Y-71330194D01*
X113504683Y-71540147D01*
X113504683Y-71752720D01*
X113535128Y-71944945D01*
X113537937Y-71962677D01*
X113597536Y-72146104D01*
X113603627Y-72164848D01*
X113700134Y-72354254D01*
X113825073Y-72526220D01*
X113975396Y-72676543D01*
X114147362Y-72801482D01*
X114147364Y-72801483D01*
X114147367Y-72801485D01*
X114336771Y-72897991D01*
X114538940Y-72963680D01*
X114748896Y-72996934D01*
X114748897Y-72996934D01*
X114961469Y-72996934D01*
X114961470Y-72996934D01*
X115171426Y-72963680D01*
X115373595Y-72897991D01*
X115562999Y-72801485D01*
X115667327Y-72725687D01*
X115734969Y-72676543D01*
X115734971Y-72676540D01*
X115734975Y-72676538D01*
X115843002Y-72568511D01*
X115904325Y-72535026D01*
X115974017Y-72540010D01*
X116029950Y-72581882D01*
X116054367Y-72647346D01*
X116054683Y-72656192D01*
X116054683Y-81521934D01*
X116034998Y-81588973D01*
X115982194Y-81634728D01*
X115930683Y-81645934D01*
X91179683Y-81645934D01*
X91112644Y-81626249D01*
X91066889Y-81573445D01*
X91055683Y-81521934D01*
X91055683Y-78568286D01*
X91472283Y-78568286D01*
X91472283Y-80631713D01*
X91487224Y-80726050D01*
X91487225Y-80726053D01*
X91487226Y-80726055D01*
X91500801Y-80752697D01*
X91545168Y-80839772D01*
X91545171Y-80839776D01*
X91635406Y-80930011D01*
X91635410Y-80930014D01*
X91635412Y-80930016D01*
X91749128Y-80987957D01*
X91749130Y-80987957D01*
X91749132Y-80987958D01*
X91843470Y-81002900D01*
X91843475Y-81002900D01*
X92406896Y-81002900D01*
X92501233Y-80987958D01*
X92501233Y-80987957D01*
X92501238Y-80987957D01*
X92614954Y-80930016D01*
X92705199Y-80839771D01*
X92763140Y-80726055D01*
X92763141Y-80726050D01*
X92778083Y-80631713D01*
X92778083Y-78568286D01*
X92763141Y-78473949D01*
X92763140Y-78473947D01*
X92763140Y-78473945D01*
X92705199Y-78360229D01*
X92705197Y-78360227D01*
X92705194Y-78360223D01*
X92614959Y-78269988D01*
X92614955Y-78269985D01*
X92614954Y-78269984D01*
X92501238Y-78212043D01*
X92501237Y-78212042D01*
X92501234Y-78212041D01*
X92458884Y-78205334D01*
X92395750Y-78175404D01*
X92358819Y-78116093D01*
X92354283Y-78082861D01*
X92354283Y-76676954D01*
X92373968Y-76609915D01*
X92426772Y-76564160D01*
X92495930Y-76554216D01*
X92559486Y-76583241D01*
X92585669Y-76614953D01*
X92586654Y-76616658D01*
X92657567Y-76739485D01*
X92657570Y-76739489D01*
X92760511Y-76842430D01*
X92760512Y-76842431D01*
X92760514Y-76842432D01*
X92819799Y-76876660D01*
X92886589Y-76915221D01*
X93027209Y-76952900D01*
X93027211Y-76952900D01*
X93172788Y-76952900D01*
X93172791Y-76952900D01*
X93313411Y-76915221D01*
X93439489Y-76842430D01*
X93542430Y-76739489D01*
X93615221Y-76613411D01*
X93652900Y-76472791D01*
X93652900Y-76327209D01*
X93638438Y-76273236D01*
X93640101Y-76203387D01*
X93670530Y-76153465D01*
X95281744Y-74542253D01*
X95343067Y-74508768D01*
X95369425Y-74505934D01*
X102267515Y-74505934D01*
X102267516Y-74505934D01*
X102267517Y-74505934D01*
X102292179Y-74495718D01*
X102302464Y-74491457D01*
X102337151Y-74487731D01*
X102371917Y-74483992D01*
X102371924Y-74483995D01*
X102371931Y-74483995D01*
X102399741Y-74497918D01*
X102434398Y-74515264D01*
X102434402Y-74515271D01*
X102434408Y-74515274D01*
X102449871Y-74541341D01*
X102470053Y-74575352D01*
X102470052Y-74575360D01*
X102470056Y-74575366D01*
X102468809Y-74610213D01*
X102467562Y-74645177D01*
X102467558Y-74645183D01*
X102467558Y-74645191D01*
X102467515Y-74645251D01*
X102437587Y-74693704D01*
X101896711Y-75234581D01*
X101835388Y-75268066D01*
X101809030Y-75270900D01*
X96156045Y-75270900D01*
X96138607Y-75278123D01*
X96121168Y-75285347D01*
X96071842Y-75305778D01*
X96071841Y-75305779D01*
X94470963Y-76906656D01*
X94470960Y-76906661D01*
X94451809Y-76952898D01*
X94451808Y-76952901D01*
X94436083Y-76990862D01*
X94436083Y-78082861D01*
X94416398Y-78149900D01*
X94363594Y-78195655D01*
X94331482Y-78205334D01*
X94289131Y-78212041D01*
X94175410Y-78269985D01*
X94175406Y-78269988D01*
X94085171Y-78360223D01*
X94085168Y-78360227D01*
X94027224Y-78473949D01*
X94012283Y-78568286D01*
X94012283Y-80631713D01*
X94027224Y-80726050D01*
X94027225Y-80726053D01*
X94027226Y-80726055D01*
X94040801Y-80752697D01*
X94085168Y-80839772D01*
X94085171Y-80839776D01*
X94175406Y-80930011D01*
X94175410Y-80930014D01*
X94175412Y-80930016D01*
X94289128Y-80987957D01*
X94289130Y-80987957D01*
X94289132Y-80987958D01*
X94383470Y-81002900D01*
X94383475Y-81002900D01*
X94946896Y-81002900D01*
X95041233Y-80987958D01*
X95041233Y-80987957D01*
X95041238Y-80987957D01*
X95154954Y-80930016D01*
X95245199Y-80839771D01*
X95303140Y-80726055D01*
X95303141Y-80726050D01*
X95318083Y-80631713D01*
X95318083Y-78568286D01*
X95303141Y-78473949D01*
X95303140Y-78473947D01*
X95303140Y-78473945D01*
X95245199Y-78360229D01*
X95245197Y-78360227D01*
X95245194Y-78360223D01*
X95154959Y-78269988D01*
X95154955Y-78269985D01*
X95154954Y-78269984D01*
X95041238Y-78212043D01*
X95041237Y-78212042D01*
X95041234Y-78212041D01*
X94998884Y-78205334D01*
X94935750Y-78175404D01*
X94898819Y-78116093D01*
X94894283Y-78082861D01*
X94894283Y-77182692D01*
X94913968Y-77115653D01*
X94930602Y-77095011D01*
X96260194Y-75765419D01*
X96321517Y-75731934D01*
X96347875Y-75729100D01*
X97599159Y-75729100D01*
X97666198Y-75748785D01*
X97711953Y-75801589D01*
X97721897Y-75870747D01*
X97692872Y-75934303D01*
X97686840Y-75940781D01*
X97010962Y-76616656D01*
X97010961Y-76616658D01*
X96986296Y-76676203D01*
X96976083Y-76700862D01*
X96976083Y-78082861D01*
X96956398Y-78149900D01*
X96903594Y-78195655D01*
X96871482Y-78205334D01*
X96829131Y-78212041D01*
X96715410Y-78269985D01*
X96715406Y-78269988D01*
X96625171Y-78360223D01*
X96625168Y-78360227D01*
X96567224Y-78473949D01*
X96552283Y-78568286D01*
X96552283Y-80631713D01*
X96567224Y-80726050D01*
X96567225Y-80726053D01*
X96567226Y-80726055D01*
X96580801Y-80752697D01*
X96625168Y-80839772D01*
X96625171Y-80839776D01*
X96715406Y-80930011D01*
X96715410Y-80930014D01*
X96715412Y-80930016D01*
X96829128Y-80987957D01*
X96829130Y-80987957D01*
X96829132Y-80987958D01*
X96923470Y-81002900D01*
X96923475Y-81002900D01*
X97486896Y-81002900D01*
X97581233Y-80987958D01*
X97581233Y-80987957D01*
X97581238Y-80987957D01*
X97694954Y-80930016D01*
X97785199Y-80839771D01*
X97843140Y-80726055D01*
X97843141Y-80726050D01*
X97858083Y-80631713D01*
X97858083Y-78568286D01*
X97843141Y-78473949D01*
X97843140Y-78473947D01*
X97843140Y-78473945D01*
X97785199Y-78360229D01*
X97785197Y-78360227D01*
X97785194Y-78360223D01*
X97694959Y-78269988D01*
X97694955Y-78269985D01*
X97694954Y-78269984D01*
X97581238Y-78212043D01*
X97581237Y-78212042D01*
X97581234Y-78212041D01*
X97538884Y-78205334D01*
X97475750Y-78175404D01*
X97438819Y-78116093D01*
X97434283Y-78082861D01*
X97434283Y-76892692D01*
X97453968Y-76825653D01*
X97470602Y-76805011D01*
X98167160Y-76108453D01*
X98228483Y-76074968D01*
X98254841Y-76072134D01*
X100056124Y-76072134D01*
X100123163Y-76091819D01*
X100168918Y-76144623D01*
X100178862Y-76213781D01*
X100149837Y-76277337D01*
X100143805Y-76283815D01*
X99550962Y-76876657D01*
X99550960Y-76876660D01*
X99526296Y-76936203D01*
X99516083Y-76960862D01*
X99516083Y-78082861D01*
X99496398Y-78149900D01*
X99443594Y-78195655D01*
X99411482Y-78205334D01*
X99369131Y-78212041D01*
X99255410Y-78269985D01*
X99255406Y-78269988D01*
X99165171Y-78360223D01*
X99165168Y-78360227D01*
X99107224Y-78473949D01*
X99092283Y-78568286D01*
X99092283Y-80631713D01*
X99107224Y-80726050D01*
X99107225Y-80726053D01*
X99107226Y-80726055D01*
X99120801Y-80752697D01*
X99165168Y-80839772D01*
X99165171Y-80839776D01*
X99255406Y-80930011D01*
X99255410Y-80930014D01*
X99255412Y-80930016D01*
X99369128Y-80987957D01*
X99369130Y-80987957D01*
X99369132Y-80987958D01*
X99463470Y-81002900D01*
X99463475Y-81002900D01*
X100026896Y-81002900D01*
X100121233Y-80987958D01*
X100121233Y-80987957D01*
X100121238Y-80987957D01*
X100234954Y-80930016D01*
X100325199Y-80839771D01*
X100383140Y-80726055D01*
X100383141Y-80726050D01*
X100398083Y-80631713D01*
X100398083Y-78568286D01*
X100383141Y-78473949D01*
X100383140Y-78473947D01*
X100383140Y-78473945D01*
X100325199Y-78360229D01*
X100325197Y-78360227D01*
X100325194Y-78360223D01*
X100234959Y-78269988D01*
X100234955Y-78269985D01*
X100234954Y-78269984D01*
X100121238Y-78212043D01*
X100121237Y-78212042D01*
X100121234Y-78212041D01*
X100078884Y-78205334D01*
X100015750Y-78175404D01*
X99978819Y-78116093D01*
X99974283Y-78082861D01*
X99974283Y-77152693D01*
X99993968Y-77085654D01*
X100010602Y-77065012D01*
X100613761Y-76461853D01*
X100675084Y-76428368D01*
X100701442Y-76425534D01*
X102052724Y-76425534D01*
X102119763Y-76445219D01*
X102165518Y-76498023D01*
X102175462Y-76567181D01*
X102154826Y-76619898D01*
X102148405Y-76629214D01*
X102090961Y-76686659D01*
X102069079Y-76739489D01*
X102064062Y-76751599D01*
X102064060Y-76751603D01*
X102056083Y-76770862D01*
X102056083Y-78082861D01*
X102036398Y-78149900D01*
X101983594Y-78195655D01*
X101951482Y-78205334D01*
X101909131Y-78212041D01*
X101795410Y-78269985D01*
X101795406Y-78269988D01*
X101705171Y-78360223D01*
X101705168Y-78360227D01*
X101647224Y-78473949D01*
X101632283Y-78568286D01*
X101632283Y-80631713D01*
X101647224Y-80726050D01*
X101647225Y-80726053D01*
X101647226Y-80726055D01*
X101660801Y-80752697D01*
X101705168Y-80839772D01*
X101705171Y-80839776D01*
X101795406Y-80930011D01*
X101795410Y-80930014D01*
X101795412Y-80930016D01*
X101909128Y-80987957D01*
X101909130Y-80987957D01*
X101909132Y-80987958D01*
X102003470Y-81002900D01*
X102003475Y-81002900D01*
X102566896Y-81002900D01*
X102661233Y-80987958D01*
X102661233Y-80987957D01*
X102661238Y-80987957D01*
X102774954Y-80930016D01*
X102865199Y-80839771D01*
X102923140Y-80726055D01*
X102923141Y-80726050D01*
X102938083Y-80631713D01*
X102938083Y-78568286D01*
X102923141Y-78473949D01*
X102923140Y-78473947D01*
X102923140Y-78473945D01*
X102865199Y-78360229D01*
X102865197Y-78360227D01*
X102865194Y-78360223D01*
X102774959Y-78269988D01*
X102774955Y-78269985D01*
X102774954Y-78269984D01*
X102661238Y-78212043D01*
X102661237Y-78212042D01*
X102661234Y-78212041D01*
X102618884Y-78205334D01*
X102555750Y-78175404D01*
X102518819Y-78116093D01*
X102514283Y-78082861D01*
X102514283Y-76962692D01*
X102533968Y-76895653D01*
X102550602Y-76875011D01*
X105113760Y-74311853D01*
X105175083Y-74278368D01*
X105201441Y-74275534D01*
X109908851Y-74275534D01*
X109975890Y-74295219D01*
X109989483Y-74305330D01*
X110003375Y-74317220D01*
X110007590Y-74324521D01*
X110091913Y-74408844D01*
X110148779Y-74441676D01*
X110157488Y-74449130D01*
X110170552Y-74469188D01*
X110187072Y-74486515D01*
X110189272Y-74497932D01*
X110195619Y-74507677D01*
X110195764Y-74531617D01*
X110200294Y-74555122D01*
X110195972Y-74565916D01*
X110196043Y-74577546D01*
X110183222Y-74597763D01*
X110174326Y-74619986D01*
X110164853Y-74626731D01*
X110158626Y-74636552D01*
X110136912Y-74646628D01*
X110117412Y-74660514D01*
X110101064Y-74663263D01*
X110095248Y-74665962D01*
X110089619Y-74665187D01*
X110076856Y-74667334D01*
X106609611Y-74667334D01*
X106592173Y-74674557D01*
X106574734Y-74681781D01*
X106525408Y-74702212D01*
X106525407Y-74702213D01*
X104630963Y-76596656D01*
X104630961Y-76596658D01*
X104630961Y-76596659D01*
X104621336Y-76619898D01*
X104617525Y-76629098D01*
X104617524Y-76629101D01*
X104596083Y-76680862D01*
X104596083Y-78082861D01*
X104576398Y-78149900D01*
X104523594Y-78195655D01*
X104491482Y-78205334D01*
X104449131Y-78212041D01*
X104335410Y-78269985D01*
X104335406Y-78269988D01*
X104245171Y-78360223D01*
X104245168Y-78360227D01*
X104187224Y-78473949D01*
X104172283Y-78568286D01*
X104172283Y-80631713D01*
X104187224Y-80726050D01*
X104187225Y-80726053D01*
X104187226Y-80726055D01*
X104200801Y-80752697D01*
X104245168Y-80839772D01*
X104245171Y-80839776D01*
X104335406Y-80930011D01*
X104335410Y-80930014D01*
X104335412Y-80930016D01*
X104449128Y-80987957D01*
X104449130Y-80987957D01*
X104449132Y-80987958D01*
X104543470Y-81002900D01*
X104543475Y-81002900D01*
X105106896Y-81002900D01*
X105201233Y-80987958D01*
X105201233Y-80987957D01*
X105201238Y-80987957D01*
X105314954Y-80930016D01*
X105405199Y-80839771D01*
X105463140Y-80726055D01*
X105463141Y-80726050D01*
X105475189Y-80649986D01*
X106365184Y-80649986D01*
X106375677Y-80752697D01*
X106430824Y-80919119D01*
X106430826Y-80919124D01*
X106522867Y-81068345D01*
X106646837Y-81192315D01*
X106796058Y-81284356D01*
X106796063Y-81284358D01*
X106962485Y-81339505D01*
X106962492Y-81339506D01*
X107065202Y-81349999D01*
X107615183Y-81349999D01*
X107665155Y-81349999D01*
X107665169Y-81349998D01*
X107767880Y-81339505D01*
X107934302Y-81284358D01*
X107934307Y-81284356D01*
X108083528Y-81192315D01*
X108207498Y-81068345D01*
X108299539Y-80919124D01*
X108299541Y-80919119D01*
X108354688Y-80752697D01*
X108354689Y-80752690D01*
X108365182Y-80649986D01*
X108365183Y-80649973D01*
X108365183Y-79850000D01*
X107615183Y-79850000D01*
X107615183Y-81349999D01*
X107065202Y-81349999D01*
X107115182Y-81349998D01*
X107115183Y-81349998D01*
X107115183Y-79850000D01*
X106365184Y-79850000D01*
X106365184Y-80649986D01*
X105475189Y-80649986D01*
X105478083Y-80631713D01*
X105478083Y-78568287D01*
X105477763Y-78566268D01*
X105477763Y-78566266D01*
X105477762Y-78566262D01*
X105475188Y-78550013D01*
X106365183Y-78550013D01*
X106365183Y-79350000D01*
X107115183Y-79350000D01*
X107615183Y-79350000D01*
X108365182Y-79350000D01*
X108365182Y-78550028D01*
X108365181Y-78550013D01*
X108354688Y-78447302D01*
X108299541Y-78280880D01*
X108299539Y-78280875D01*
X108207498Y-78131654D01*
X108083528Y-78007684D01*
X107934307Y-77915643D01*
X107934302Y-77915641D01*
X107767880Y-77860494D01*
X107767873Y-77860493D01*
X107665169Y-77850000D01*
X107615183Y-77850000D01*
X107615183Y-79350000D01*
X107115183Y-79350000D01*
X107115183Y-77850000D01*
X107115182Y-77849999D01*
X107065212Y-77850000D01*
X107065194Y-77850001D01*
X106962485Y-77860494D01*
X106796063Y-77915641D01*
X106796058Y-77915643D01*
X106646837Y-78007684D01*
X106522867Y-78131654D01*
X106430826Y-78280875D01*
X106430824Y-78280880D01*
X106375677Y-78447302D01*
X106375676Y-78447309D01*
X106365183Y-78550013D01*
X105475188Y-78550013D01*
X105463141Y-78473949D01*
X105463140Y-78473947D01*
X105463140Y-78473945D01*
X105405199Y-78360229D01*
X105405197Y-78360227D01*
X105405194Y-78360223D01*
X105314959Y-78269988D01*
X105314955Y-78269985D01*
X105314954Y-78269984D01*
X105201238Y-78212043D01*
X105201237Y-78212042D01*
X105201234Y-78212041D01*
X105158884Y-78205334D01*
X105095750Y-78175404D01*
X105058819Y-78116093D01*
X105054283Y-78082861D01*
X105054283Y-76872692D01*
X105073968Y-76805653D01*
X105090602Y-76785011D01*
X106713760Y-75161853D01*
X106775083Y-75128368D01*
X106801441Y-75125534D01*
X110578851Y-75125534D01*
X110645890Y-75145219D01*
X110671676Y-75168940D01*
X110671843Y-75168774D01*
X110675838Y-75172769D01*
X110677225Y-75174045D01*
X110677589Y-75174519D01*
X110677590Y-75174521D01*
X110761913Y-75258844D01*
X110865187Y-75318470D01*
X110980375Y-75349334D01*
X110980377Y-75349334D01*
X111099623Y-75349334D01*
X111099625Y-75349334D01*
X111214813Y-75318470D01*
X111318087Y-75258844D01*
X111359219Y-75217712D01*
X111378655Y-75207099D01*
X111395389Y-75192599D01*
X111408720Y-75190682D01*
X111420542Y-75184227D01*
X111442628Y-75185806D01*
X111464547Y-75182655D01*
X111476798Y-75188250D01*
X111490234Y-75189211D01*
X111507960Y-75202481D01*
X111528103Y-75211680D01*
X111535385Y-75223011D01*
X111546167Y-75231083D01*
X111553904Y-75251828D01*
X111565877Y-75270458D01*
X111569028Y-75292376D01*
X111570584Y-75296547D01*
X111570900Y-75305393D01*
X111570900Y-75430358D01*
X111551215Y-75497397D01*
X111534581Y-75518039D01*
X109710962Y-77341657D01*
X109710960Y-77341660D01*
X109686296Y-77401203D01*
X109676083Y-77425862D01*
X109676083Y-78082861D01*
X109656398Y-78149900D01*
X109603594Y-78195655D01*
X109571482Y-78205334D01*
X109529131Y-78212041D01*
X109415410Y-78269985D01*
X109415406Y-78269988D01*
X109325171Y-78360223D01*
X109325168Y-78360227D01*
X109267224Y-78473949D01*
X109252283Y-78568286D01*
X109252283Y-80631713D01*
X109267224Y-80726050D01*
X109267225Y-80726053D01*
X109267226Y-80726055D01*
X109280801Y-80752697D01*
X109325168Y-80839772D01*
X109325171Y-80839776D01*
X109415406Y-80930011D01*
X109415410Y-80930014D01*
X109415412Y-80930016D01*
X109529128Y-80987957D01*
X109529130Y-80987957D01*
X109529132Y-80987958D01*
X109623470Y-81002900D01*
X109623475Y-81002900D01*
X110186896Y-81002900D01*
X110281233Y-80987958D01*
X110281233Y-80987957D01*
X110281238Y-80987957D01*
X110394954Y-80930016D01*
X110485199Y-80839771D01*
X110543140Y-80726055D01*
X110543141Y-80726050D01*
X110558083Y-80631713D01*
X110558083Y-78568286D01*
X110543141Y-78473949D01*
X110543140Y-78473947D01*
X110543140Y-78473945D01*
X110485199Y-78360229D01*
X110485197Y-78360227D01*
X110485194Y-78360223D01*
X110394959Y-78269988D01*
X110394955Y-78269985D01*
X110394954Y-78269984D01*
X110281238Y-78212043D01*
X110281237Y-78212042D01*
X110281234Y-78212041D01*
X110238884Y-78205334D01*
X110175750Y-78175404D01*
X110138819Y-78116093D01*
X110134283Y-78082861D01*
X110134283Y-77617693D01*
X110153968Y-77550654D01*
X110170602Y-77530012D01*
X112002858Y-75697756D01*
X112005517Y-75700415D01*
X112042588Y-75669433D01*
X112111912Y-75660722D01*
X112174941Y-75690873D01*
X112211663Y-75750315D01*
X112216083Y-75783126D01*
X112216083Y-78082861D01*
X112196398Y-78149900D01*
X112143594Y-78195655D01*
X112111482Y-78205334D01*
X112069131Y-78212041D01*
X111955410Y-78269985D01*
X111955406Y-78269988D01*
X111865171Y-78360223D01*
X111865168Y-78360227D01*
X111807224Y-78473949D01*
X111792283Y-78568286D01*
X111792283Y-80631713D01*
X111807224Y-80726050D01*
X111807225Y-80726053D01*
X111807226Y-80726055D01*
X111820801Y-80752697D01*
X111865168Y-80839772D01*
X111865171Y-80839776D01*
X111955406Y-80930011D01*
X111955410Y-80930014D01*
X111955412Y-80930016D01*
X112069128Y-80987957D01*
X112069130Y-80987957D01*
X112069132Y-80987958D01*
X112163470Y-81002900D01*
X112163475Y-81002900D01*
X112726896Y-81002900D01*
X112821233Y-80987958D01*
X112821233Y-80987957D01*
X112821238Y-80987957D01*
X112934954Y-80930016D01*
X113025199Y-80839771D01*
X113083140Y-80726055D01*
X113083141Y-80726050D01*
X113098083Y-80631713D01*
X113098083Y-78568286D01*
X113083141Y-78473949D01*
X113083140Y-78473947D01*
X113083140Y-78473945D01*
X113025199Y-78360229D01*
X113025197Y-78360227D01*
X113025194Y-78360223D01*
X112934959Y-78269988D01*
X112934955Y-78269985D01*
X112934954Y-78269984D01*
X112821238Y-78212043D01*
X112821237Y-78212042D01*
X112821234Y-78212041D01*
X112778884Y-78205334D01*
X112715750Y-78175404D01*
X112678819Y-78116093D01*
X112674283Y-78082861D01*
X112674283Y-74138893D01*
X112693968Y-74071854D01*
X112746772Y-74026099D01*
X112815930Y-74016155D01*
X112879486Y-74045180D01*
X112885964Y-74051212D01*
X114719764Y-75885012D01*
X114753249Y-75946335D01*
X114756083Y-75972693D01*
X114756083Y-78082861D01*
X114736398Y-78149900D01*
X114683594Y-78195655D01*
X114651482Y-78205334D01*
X114609131Y-78212041D01*
X114495410Y-78269985D01*
X114495406Y-78269988D01*
X114405171Y-78360223D01*
X114405168Y-78360227D01*
X114347224Y-78473949D01*
X114332283Y-78568286D01*
X114332283Y-80631713D01*
X114347224Y-80726050D01*
X114347225Y-80726053D01*
X114347226Y-80726055D01*
X114360801Y-80752697D01*
X114405168Y-80839772D01*
X114405171Y-80839776D01*
X114495406Y-80930011D01*
X114495410Y-80930014D01*
X114495412Y-80930016D01*
X114609128Y-80987957D01*
X114609130Y-80987957D01*
X114609132Y-80987958D01*
X114703470Y-81002900D01*
X114703475Y-81002900D01*
X115266896Y-81002900D01*
X115361233Y-80987958D01*
X115361233Y-80987957D01*
X115361238Y-80987957D01*
X115474954Y-80930016D01*
X115565199Y-80839771D01*
X115623140Y-80726055D01*
X115623141Y-80726050D01*
X115638083Y-80631713D01*
X115638083Y-78568286D01*
X115623141Y-78473949D01*
X115623140Y-78473947D01*
X115623140Y-78473945D01*
X115565199Y-78360229D01*
X115565197Y-78360227D01*
X115565194Y-78360223D01*
X115474959Y-78269988D01*
X115474955Y-78269985D01*
X115474954Y-78269984D01*
X115361238Y-78212043D01*
X115361237Y-78212042D01*
X115361234Y-78212041D01*
X115318884Y-78205334D01*
X115255750Y-78175404D01*
X115218819Y-78116093D01*
X115214283Y-78082861D01*
X115214283Y-75780864D01*
X115214283Y-75780863D01*
X115192842Y-75729100D01*
X115179405Y-75696659D01*
X112665419Y-73182673D01*
X112631934Y-73121350D01*
X112629100Y-73094992D01*
X112629100Y-70557547D01*
X112648785Y-70490508D01*
X112665419Y-70469866D01*
X113065062Y-70070223D01*
X114749405Y-68385880D01*
X114784283Y-68301675D01*
X114784283Y-68210535D01*
X114784283Y-60750863D01*
X114749404Y-60666659D01*
X114684958Y-60602213D01*
X111634958Y-57552212D01*
X111575416Y-57527549D01*
X111575415Y-57527548D01*
X111550754Y-57517334D01*
X106509612Y-57517334D01*
X106509611Y-57517334D01*
X106425407Y-57552213D01*
X105349175Y-58628444D01*
X105287852Y-58661929D01*
X105218160Y-58656945D01*
X105162227Y-58615073D01*
X105137810Y-58549609D01*
X105141718Y-58508678D01*
X105162900Y-58429625D01*
X105162900Y-58310375D01*
X105132036Y-58195187D01*
X105072410Y-58091913D01*
X104988087Y-58007590D01*
X104932565Y-57975534D01*
X104884814Y-57947964D01*
X104827219Y-57932532D01*
X104769625Y-57917100D01*
X104650375Y-57917100D01*
X104535185Y-57947964D01*
X104431913Y-58007590D01*
X104431910Y-58007592D01*
X104347592Y-58091910D01*
X104347590Y-58091913D01*
X104287964Y-58195185D01*
X104257100Y-58310375D01*
X104257100Y-58429624D01*
X104287964Y-58544814D01*
X104308705Y-58580737D01*
X104347590Y-58648087D01*
X104431913Y-58732410D01*
X104535187Y-58792036D01*
X104650375Y-58822900D01*
X104650377Y-58822900D01*
X104769622Y-58822900D01*
X104769625Y-58822900D01*
X104848674Y-58801719D01*
X104918519Y-58803382D01*
X104976381Y-58842544D01*
X105003886Y-58906772D01*
X104992300Y-58975674D01*
X104968444Y-59009175D01*
X104560963Y-59416656D01*
X104560961Y-59416658D01*
X104560961Y-59416659D01*
X104547524Y-59449100D01*
X104536803Y-59474981D01*
X104526083Y-59500862D01*
X104526083Y-60208850D01*
X104506398Y-60275889D01*
X104482675Y-60301675D01*
X104482843Y-60301843D01*
X104478837Y-60305848D01*
X104477574Y-60307222D01*
X104477101Y-60307584D01*
X104392772Y-60391913D01*
X104333147Y-60495185D01*
X104307843Y-60589623D01*
X104302283Y-60610375D01*
X104302283Y-60729625D01*
X104307974Y-60750863D01*
X104333147Y-60844814D01*
X104360004Y-60891330D01*
X104392773Y-60948087D01*
X104477096Y-61032410D01*
X104580370Y-61092036D01*
X104695558Y-61122900D01*
X104695560Y-61122900D01*
X104814806Y-61122900D01*
X104814808Y-61122900D01*
X104929996Y-61092036D01*
X105033270Y-61032410D01*
X105117593Y-60948087D01*
X105177219Y-60844813D01*
X105208083Y-60729625D01*
X105208083Y-60610375D01*
X105177219Y-60495187D01*
X105177218Y-60495185D01*
X105177218Y-60495184D01*
X105154669Y-60456130D01*
X105138195Y-60388230D01*
X105161047Y-60322202D01*
X105215967Y-60279011D01*
X105285520Y-60272369D01*
X105324056Y-60286742D01*
X105385181Y-60322033D01*
X105385182Y-60322033D01*
X105385187Y-60322036D01*
X105500375Y-60352900D01*
X105500377Y-60352900D01*
X105563100Y-60352900D01*
X105630139Y-60372585D01*
X105675894Y-60425389D01*
X105687100Y-60476900D01*
X105687100Y-60589625D01*
X105702532Y-60647219D01*
X105717964Y-60704814D01*
X105732288Y-60729623D01*
X105777590Y-60808087D01*
X105861913Y-60892410D01*
X105965187Y-60952036D01*
X106080375Y-60982900D01*
X106080377Y-60982900D01*
X106199623Y-60982900D01*
X106199625Y-60982900D01*
X106314813Y-60952036D01*
X106418087Y-60892410D01*
X106502410Y-60808087D01*
X106562036Y-60704813D01*
X106592900Y-60589625D01*
X106592900Y-60470375D01*
X106562036Y-60355187D01*
X106531237Y-60301843D01*
X106502410Y-60251913D01*
X106418081Y-60167584D01*
X106417609Y-60167222D01*
X106417311Y-60166814D01*
X106414037Y-60163540D01*
X106411897Y-60162563D01*
X106394918Y-60136143D01*
X106376409Y-60110792D01*
X106375584Y-60106058D01*
X106374123Y-60103785D01*
X106369100Y-60068850D01*
X106369100Y-59966258D01*
X106388785Y-59899219D01*
X106405419Y-59878577D01*
X107274219Y-59009777D01*
X107274222Y-59009774D01*
X107274223Y-59009770D01*
X107277188Y-59005333D01*
X107277585Y-59003511D01*
X107298731Y-58975264D01*
X107312148Y-58961847D01*
X107373470Y-58928367D01*
X107399824Y-58925534D01*
X110408924Y-58925534D01*
X110475963Y-58945219D01*
X110496605Y-58961853D01*
X113728964Y-62194212D01*
X113762449Y-62255535D01*
X113765283Y-62281893D01*
X113765283Y-67859358D01*
X113745598Y-67926397D01*
X113728964Y-67947039D01*
X111605779Y-70070223D01*
X111605777Y-70070226D01*
X111581113Y-70129769D01*
X111570900Y-70154428D01*
X111570900Y-74487475D01*
X111551215Y-74554514D01*
X111498411Y-74600269D01*
X111429253Y-74610213D01*
X111365697Y-74581188D01*
X111359219Y-74575156D01*
X111318089Y-74534026D01*
X111318087Y-74534024D01*
X111255575Y-74497932D01*
X111214814Y-74474398D01*
X111157219Y-74458966D01*
X111099625Y-74443534D01*
X110980375Y-74443534D01*
X110980373Y-74443534D01*
X110894902Y-74466435D01*
X110825052Y-74464771D01*
X110767190Y-74425608D01*
X110739687Y-74361379D01*
X110751274Y-74292477D01*
X110755410Y-74284683D01*
X110792036Y-74221247D01*
X110822900Y-74106059D01*
X110822900Y-73986809D01*
X110792036Y-73871621D01*
X110732410Y-73768347D01*
X110648087Y-73684024D01*
X110596450Y-73654211D01*
X110544814Y-73624398D01*
X110475321Y-73605778D01*
X110429625Y-73593534D01*
X110356441Y-73593534D01*
X110335195Y-73587295D01*
X110313107Y-73585716D01*
X110302323Y-73577643D01*
X110289402Y-73573849D01*
X110274902Y-73557115D01*
X110257174Y-73543844D01*
X110252466Y-73531223D01*
X110243647Y-73521045D01*
X110240495Y-73499127D01*
X110232757Y-73478380D01*
X110235619Y-73465219D01*
X110233703Y-73451887D01*
X110242902Y-73431743D01*
X110247609Y-73410107D01*
X110260877Y-73392381D01*
X110262728Y-73388331D01*
X110268760Y-73381853D01*
X110411394Y-73239219D01*
X110472717Y-73205734D01*
X110499075Y-73202900D01*
X110614806Y-73202900D01*
X110614808Y-73202900D01*
X110729996Y-73172036D01*
X110833270Y-73112410D01*
X110917593Y-73028087D01*
X110977219Y-72924813D01*
X111008083Y-72809625D01*
X111008083Y-72690375D01*
X110977219Y-72575187D01*
X110917593Y-72471913D01*
X110833270Y-72387590D01*
X110742150Y-72334981D01*
X110729997Y-72327964D01*
X110639671Y-72303762D01*
X110614808Y-72297100D01*
X110495558Y-72297100D01*
X110380368Y-72327964D01*
X110319084Y-72363348D01*
X110251184Y-72379821D01*
X110185157Y-72356969D01*
X110141966Y-72302048D01*
X110133083Y-72255961D01*
X110133083Y-72146106D01*
X110133083Y-72146104D01*
X110102219Y-72030916D01*
X110042593Y-71927642D01*
X109958270Y-71843319D01*
X109906633Y-71813506D01*
X109854997Y-71783693D01*
X109767011Y-71760118D01*
X109739808Y-71752829D01*
X109620558Y-71752829D01*
X109505368Y-71783693D01*
X109431047Y-71826603D01*
X109402096Y-71843319D01*
X109402094Y-71843320D01*
X109395058Y-71847383D01*
X109393545Y-71844763D01*
X109341792Y-71864753D01*
X109273352Y-71850694D01*
X109223377Y-71801865D01*
X109210730Y-71763847D01*
X109210505Y-71763908D01*
X109209489Y-71760118D01*
X109208574Y-71757366D01*
X109208402Y-71756066D01*
X109208402Y-71756058D01*
X109177538Y-71640870D01*
X109117912Y-71537596D01*
X109033589Y-71453273D01*
X108981952Y-71423460D01*
X108930316Y-71393647D01*
X108872721Y-71378215D01*
X108815127Y-71362783D01*
X108695877Y-71362783D01*
X108580687Y-71393647D01*
X108477415Y-71453273D01*
X108477412Y-71453275D01*
X108393094Y-71537593D01*
X108393092Y-71537596D01*
X108333466Y-71640868D01*
X108302602Y-71756058D01*
X108302602Y-71875310D01*
X108302681Y-71875911D01*
X108302602Y-71876417D01*
X108302602Y-71883435D01*
X108301507Y-71883435D01*
X108291909Y-71944945D01*
X108267421Y-71979766D01*
X107912607Y-72334581D01*
X107851284Y-72368066D01*
X107824926Y-72370900D01*
X104809715Y-72370900D01*
X104739585Y-72399950D01*
X104725514Y-72405778D01*
X104725511Y-72405780D01*
X104089714Y-73041577D01*
X104059624Y-73058007D01*
X104029688Y-73074773D01*
X104028997Y-73074731D01*
X104028391Y-73075062D01*
X103994213Y-73072617D01*
X103959947Y-73070536D01*
X103959388Y-73070127D01*
X103958699Y-73070078D01*
X103931255Y-73049533D01*
X103903568Y-73029266D01*
X103903209Y-73028538D01*
X103902766Y-73028206D01*
X103886322Y-72998472D01*
X103883963Y-72992349D01*
X103856426Y-72889577D01*
X103820978Y-72828181D01*
X103795810Y-72767417D01*
X103731363Y-72702970D01*
X103731359Y-72702968D01*
X103731357Y-72702967D01*
X103678106Y-72680910D01*
X103663557Y-72673736D01*
X103609204Y-72642354D01*
X103551609Y-72626922D01*
X103494015Y-72611490D01*
X103374765Y-72611490D01*
X103259575Y-72642354D01*
X103156303Y-72701980D01*
X103156300Y-72701982D01*
X103071982Y-72786300D01*
X103071980Y-72786303D01*
X103012354Y-72889575D01*
X102981490Y-73004765D01*
X102981490Y-73124017D01*
X102981569Y-73124618D01*
X102981490Y-73125124D01*
X102981490Y-73132142D01*
X102980395Y-73132142D01*
X102970797Y-73193652D01*
X102946309Y-73228473D01*
X102163368Y-74011415D01*
X102102045Y-74044900D01*
X102075687Y-74047734D01*
X101452242Y-74047734D01*
X101385203Y-74028049D01*
X101339448Y-73975245D01*
X101329504Y-73906087D01*
X101358529Y-73842531D01*
X101364561Y-73836053D01*
X101594836Y-73605778D01*
X102324404Y-72876209D01*
X102341353Y-72835290D01*
X102359283Y-72792005D01*
X102359283Y-71001148D01*
X102378968Y-70934109D01*
X102402690Y-70908324D01*
X102402523Y-70908157D01*
X102406548Y-70904131D01*
X102407803Y-70902768D01*
X102408263Y-70902413D01*
X102408270Y-70902410D01*
X102492593Y-70818087D01*
X102552219Y-70714813D01*
X102583083Y-70599625D01*
X102583083Y-70480375D01*
X102552219Y-70365187D01*
X102492593Y-70261913D01*
X102408270Y-70177590D01*
X102325443Y-70129769D01*
X102304997Y-70117964D01*
X102247402Y-70102532D01*
X102189808Y-70087100D01*
X102070558Y-70087100D01*
X101955368Y-70117964D01*
X101852096Y-70177590D01*
X101852093Y-70177592D01*
X101767775Y-70261910D01*
X101767773Y-70261913D01*
X101708147Y-70365185D01*
X101700191Y-70394878D01*
X101677283Y-70480375D01*
X101677283Y-70599625D01*
X101681759Y-70616330D01*
X101708147Y-70714814D01*
X101732990Y-70757842D01*
X101767773Y-70818087D01*
X101852096Y-70902410D01*
X101852098Y-70902411D01*
X101852563Y-70902768D01*
X101852858Y-70903172D01*
X101857843Y-70908157D01*
X101857066Y-70908933D01*
X101893770Y-70959193D01*
X101901083Y-71001148D01*
X101901083Y-72600175D01*
X101881398Y-72667214D01*
X101864764Y-72687856D01*
X101018039Y-73534581D01*
X100956716Y-73568066D01*
X100930358Y-73570900D01*
X93948339Y-73570900D01*
X93893698Y-73593534D01*
X93893697Y-73593533D01*
X93864137Y-73605778D01*
X93864134Y-73605780D01*
X91930960Y-75538953D01*
X91915712Y-75575767D01*
X91906779Y-75597334D01*
X91906779Y-75597335D01*
X91896083Y-75623155D01*
X91896083Y-78082861D01*
X91876398Y-78149900D01*
X91823594Y-78195655D01*
X91791482Y-78205334D01*
X91749131Y-78212041D01*
X91635410Y-78269985D01*
X91635406Y-78269988D01*
X91545171Y-78360223D01*
X91545168Y-78360227D01*
X91487224Y-78473949D01*
X91472283Y-78568286D01*
X91055683Y-78568286D01*
X91055683Y-72656192D01*
X91075368Y-72589153D01*
X91128172Y-72543398D01*
X91197330Y-72533454D01*
X91260886Y-72562479D01*
X91267364Y-72568511D01*
X91375396Y-72676543D01*
X91547362Y-72801482D01*
X91547364Y-72801483D01*
X91547367Y-72801485D01*
X91736771Y-72897991D01*
X91938940Y-72963680D01*
X92148896Y-72996934D01*
X92148897Y-72996934D01*
X92361469Y-72996934D01*
X92361470Y-72996934D01*
X92571426Y-72963680D01*
X92773595Y-72897991D01*
X92962999Y-72801485D01*
X93067327Y-72725687D01*
X93134969Y-72676543D01*
X93134971Y-72676540D01*
X93134975Y-72676538D01*
X93285287Y-72526226D01*
X93285289Y-72526222D01*
X93285292Y-72526220D01*
X93403624Y-72363348D01*
X93410234Y-72354250D01*
X93506740Y-72164846D01*
X93572429Y-71962677D01*
X93605683Y-71752721D01*
X93605683Y-71540147D01*
X93572429Y-71330191D01*
X93506740Y-71128022D01*
X93410234Y-70938618D01*
X93410232Y-70938615D01*
X93410231Y-70938613D01*
X93285292Y-70766647D01*
X93134969Y-70616324D01*
X92963003Y-70491385D01*
X92773597Y-70394878D01*
X92773596Y-70394877D01*
X92773595Y-70394877D01*
X92571426Y-70329188D01*
X92571424Y-70329187D01*
X92571423Y-70329187D01*
X92410140Y-70303642D01*
X92361470Y-70295934D01*
X92148896Y-70295934D01*
X92100225Y-70303642D01*
X91938943Y-70329187D01*
X91736768Y-70394878D01*
X91547362Y-70491385D01*
X91375396Y-70616324D01*
X91375392Y-70616328D01*
X91267364Y-70724357D01*
X91206041Y-70757842D01*
X91136349Y-70752858D01*
X91080416Y-70710986D01*
X91055999Y-70645522D01*
X91055683Y-70636676D01*
X91055683Y-66540375D01*
X111047100Y-66540375D01*
X111047100Y-66659624D01*
X111077964Y-66774814D01*
X111107777Y-66826450D01*
X111137590Y-66878087D01*
X111221913Y-66962410D01*
X111221915Y-66962411D01*
X111222380Y-66962768D01*
X111222675Y-66963172D01*
X111227660Y-66968157D01*
X111226883Y-66968933D01*
X111263587Y-67019193D01*
X111270900Y-67061148D01*
X111270900Y-68338850D01*
X111251215Y-68405889D01*
X111227492Y-68431675D01*
X111227660Y-68431843D01*
X111223654Y-68435848D01*
X111222391Y-68437222D01*
X111221918Y-68437584D01*
X111137589Y-68521913D01*
X111077964Y-68625185D01*
X111047100Y-68740375D01*
X111047100Y-68859624D01*
X111077964Y-68974814D01*
X111107777Y-69026450D01*
X111137590Y-69078087D01*
X111221913Y-69162410D01*
X111325187Y-69222036D01*
X111440375Y-69252900D01*
X111440377Y-69252900D01*
X111559623Y-69252900D01*
X111559625Y-69252900D01*
X111674813Y-69222036D01*
X111778087Y-69162410D01*
X111862410Y-69078087D01*
X111922036Y-68974813D01*
X111952900Y-68859625D01*
X111952900Y-68740375D01*
X111922036Y-68625187D01*
X111862410Y-68521913D01*
X111778087Y-68437590D01*
X111778081Y-68437584D01*
X111777609Y-68437222D01*
X111777311Y-68436814D01*
X111772340Y-68431843D01*
X111773115Y-68431067D01*
X111736409Y-68380792D01*
X111729100Y-68338850D01*
X111729100Y-67061148D01*
X111748785Y-66994109D01*
X111772507Y-66968324D01*
X111772340Y-66968157D01*
X111776365Y-66964131D01*
X111777620Y-66962768D01*
X111778080Y-66962413D01*
X111778087Y-66962410D01*
X111862410Y-66878087D01*
X111922036Y-66774813D01*
X111952900Y-66659625D01*
X111952900Y-66540375D01*
X111922036Y-66425187D01*
X111862410Y-66321913D01*
X111778087Y-66237590D01*
X111726450Y-66207777D01*
X111674814Y-66177964D01*
X111617219Y-66162532D01*
X111559625Y-66147100D01*
X111440375Y-66147100D01*
X111325185Y-66177964D01*
X111221913Y-66237590D01*
X111221910Y-66237592D01*
X111137592Y-66321910D01*
X111137590Y-66321913D01*
X111077964Y-66425185D01*
X111047100Y-66540375D01*
X91055683Y-66540375D01*
X91055683Y-64140375D01*
X100097100Y-64140375D01*
X100097100Y-64259624D01*
X100127964Y-64374814D01*
X100157777Y-64426450D01*
X100187590Y-64478087D01*
X100271913Y-64562410D01*
X100375187Y-64622036D01*
X100490375Y-64652900D01*
X100490377Y-64652900D01*
X100609623Y-64652900D01*
X100609625Y-64652900D01*
X100724813Y-64622036D01*
X100828087Y-64562410D01*
X100912410Y-64478087D01*
X100972036Y-64374813D01*
X101002900Y-64259625D01*
X101002900Y-64140375D01*
X100996222Y-64115452D01*
X100997885Y-64045604D01*
X101028314Y-63995681D01*
X102339288Y-62684708D01*
X102356829Y-62675130D01*
X102371462Y-62661507D01*
X102386870Y-62658726D01*
X102400609Y-62651225D01*
X102420546Y-62652650D01*
X102440222Y-62649101D01*
X102467200Y-62655987D01*
X102470301Y-62656209D01*
X102474420Y-62657830D01*
X102476967Y-62658885D01*
X102501626Y-62669099D01*
X102501627Y-62669099D01*
X102501629Y-62669100D01*
X102501630Y-62669100D01*
X109715569Y-62669100D01*
X109715570Y-62669100D01*
X109715571Y-62669100D01*
X109740233Y-62658884D01*
X109799775Y-62634222D01*
X110294222Y-62139774D01*
X110294222Y-62139772D01*
X110294224Y-62139771D01*
X110322750Y-62070900D01*
X110329100Y-62055570D01*
X110329100Y-61971148D01*
X110348785Y-61904109D01*
X110372507Y-61878324D01*
X110372340Y-61878157D01*
X110376365Y-61874131D01*
X110377620Y-61872768D01*
X110378080Y-61872413D01*
X110378087Y-61872410D01*
X110462410Y-61788087D01*
X110522036Y-61684813D01*
X110552900Y-61569625D01*
X110552900Y-61450375D01*
X110522036Y-61335187D01*
X110462410Y-61231913D01*
X110378087Y-61147590D01*
X110326450Y-61117777D01*
X110274814Y-61087964D01*
X110217219Y-61072532D01*
X110159625Y-61057100D01*
X110040375Y-61057100D01*
X109925185Y-61087964D01*
X109821913Y-61147590D01*
X109821910Y-61147592D01*
X109737592Y-61231910D01*
X109737590Y-61231913D01*
X109677964Y-61335185D01*
X109647100Y-61450375D01*
X109647100Y-61569624D01*
X109677964Y-61684814D01*
X109707777Y-61736450D01*
X109737590Y-61788087D01*
X109737592Y-61788089D01*
X109780072Y-61830569D01*
X109784410Y-61838514D01*
X109791658Y-61843940D01*
X109800892Y-61868699D01*
X109813557Y-61891892D01*
X109812911Y-61900921D01*
X109816075Y-61909404D01*
X109810458Y-61935224D01*
X109808573Y-61961584D01*
X109802754Y-61970637D01*
X109801223Y-61977677D01*
X109780072Y-62005931D01*
X109611422Y-62174581D01*
X109550099Y-62208066D01*
X109523741Y-62210900D01*
X102693459Y-62210900D01*
X102626420Y-62191215D01*
X102605778Y-62174581D01*
X102536975Y-62105778D01*
X102536973Y-62105777D01*
X102477433Y-62081115D01*
X102477432Y-62081114D01*
X102452771Y-62070900D01*
X102354429Y-62070900D01*
X102354428Y-62070900D01*
X102329768Y-62081112D01*
X102329769Y-62081113D01*
X102270226Y-62105777D01*
X102270223Y-62105779D01*
X100665221Y-63710781D01*
X100603898Y-63744266D01*
X100577540Y-63747100D01*
X100490375Y-63747100D01*
X100375185Y-63777964D01*
X100271913Y-63837590D01*
X100271910Y-63837592D01*
X100187592Y-63921910D01*
X100187590Y-63921913D01*
X100127964Y-64025185D01*
X100097100Y-64140375D01*
X91055683Y-64140375D01*
X91055683Y-60470375D01*
X96847100Y-60470375D01*
X96847100Y-60589625D01*
X96862532Y-60647219D01*
X96877964Y-60704814D01*
X96892288Y-60729623D01*
X96937590Y-60808087D01*
X97021913Y-60892410D01*
X97125187Y-60952036D01*
X97240375Y-60982900D01*
X97240377Y-60982900D01*
X97359623Y-60982900D01*
X97359625Y-60982900D01*
X97474813Y-60952036D01*
X97578087Y-60892410D01*
X97662410Y-60808087D01*
X97722036Y-60704813D01*
X97752900Y-60589625D01*
X97752900Y-60470375D01*
X97722036Y-60355187D01*
X97662410Y-60251913D01*
X97578087Y-60167590D01*
X97523620Y-60136143D01*
X97474814Y-60107964D01*
X97417219Y-60092532D01*
X97359625Y-60077100D01*
X97240375Y-60077100D01*
X97125185Y-60107964D01*
X97021913Y-60167590D01*
X97021910Y-60167592D01*
X96937592Y-60251910D01*
X96937590Y-60251913D01*
X96877964Y-60355185D01*
X96873302Y-60372585D01*
X96847100Y-60470375D01*
X91055683Y-60470375D01*
X91055683Y-56270934D01*
X91058228Y-56262265D01*
X91056940Y-56253325D01*
X91067917Y-56229267D01*
X91075368Y-56203895D01*
X91082194Y-56197979D01*
X91085945Y-56189761D01*
X91108187Y-56175456D01*
X91128172Y-56158140D01*
X91138666Y-56155855D01*
X91144711Y-56151968D01*
X91179567Y-56146950D01*
X91179644Y-56146934D01*
X91255155Y-56146934D01*
X91321075Y-56146934D01*
X91321239Y-56146889D01*
X91327908Y-56146887D01*
X91329578Y-56146887D01*
X91329585Y-56146889D01*
X91329613Y-56146887D01*
X91333992Y-56146888D01*
X91488640Y-56116136D01*
X91634318Y-56055807D01*
X91765427Y-55968217D01*
X91876930Y-55856733D01*
X91964542Y-55725639D01*
X91999776Y-55640601D01*
X92024896Y-55579974D01*
X92024896Y-55579973D01*
X92024897Y-55579971D01*
X92055674Y-55425329D01*
X92055675Y-55412354D01*
X92055683Y-55412326D01*
X92055683Y-55346377D01*
X92055691Y-55280599D01*
X92055690Y-55280595D01*
X92055691Y-55272589D01*
X92055683Y-55272451D01*
X92055683Y-54930375D01*
X95637100Y-54930375D01*
X95637100Y-55049625D01*
X95649324Y-55095246D01*
X95667964Y-55164814D01*
X95680446Y-55186433D01*
X95727590Y-55268087D01*
X95811913Y-55352410D01*
X95915187Y-55412036D01*
X96030375Y-55442900D01*
X96030377Y-55442900D01*
X96149623Y-55442900D01*
X96149625Y-55442900D01*
X96264813Y-55412036D01*
X96368087Y-55352410D01*
X96452410Y-55268087D01*
X96512036Y-55164813D01*
X96542900Y-55049625D01*
X96542900Y-54930375D01*
X96512036Y-54815187D01*
X96452410Y-54711913D01*
X96368087Y-54627590D01*
X96316341Y-54597714D01*
X96264814Y-54567964D01*
X96207219Y-54552532D01*
X96149625Y-54537100D01*
X96030375Y-54537100D01*
X95915185Y-54567964D01*
X95811913Y-54627590D01*
X95811910Y-54627592D01*
X95727592Y-54711910D01*
X95727590Y-54711913D01*
X95667964Y-54815185D01*
X95643448Y-54906682D01*
X95637100Y-54930375D01*
X92055683Y-54930375D01*
X92055683Y-52770934D01*
X92075368Y-52703895D01*
X92128172Y-52658140D01*
X92179683Y-52646934D01*
X98230683Y-52646934D01*
X98297722Y-52666619D01*
G37*
%TD.AperFunction*%
%TD*%
M02*
