%TF.GenerationSoftware,KiCad,Pcbnew,9.0.4*%
%TF.CreationDate,2025-09-18T11:34:16+02:00*%
%TF.ProjectId,rp2350_gpio_card,72703233-3530-45f6-9770-696f5f636172,X1*%
%TF.SameCoordinates,Original*%
%TF.FileFunction,Copper,L1,Top*%
%TF.FilePolarity,Positive*%
%FSLAX46Y46*%
G04 Gerber Fmt 4.6, Leading zero omitted, Abs format (unit mm)*
G04 Created by KiCad (PCBNEW 9.0.4) date 2025-09-18 11:34:16*
%MOMM*%
%LPD*%
G01*
G04 APERTURE LIST*
G04 Aperture macros list*
%AMRoundRect*
0 Rectangle with rounded corners*
0 $1 Rounding radius*
0 $2 $3 $4 $5 $6 $7 $8 $9 X,Y pos of 4 corners*
0 Add a 4 corners polygon primitive as box body*
4,1,4,$2,$3,$4,$5,$6,$7,$8,$9,$2,$3,0*
0 Add four circle primitives for the rounded corners*
1,1,$1+$1,$2,$3*
1,1,$1+$1,$4,$5*
1,1,$1+$1,$6,$7*
1,1,$1+$1,$8,$9*
0 Add four rect primitives between the rounded corners*
20,1,$1+$1,$2,$3,$4,$5,0*
20,1,$1+$1,$4,$5,$6,$7,0*
20,1,$1+$1,$6,$7,$8,$9,0*
20,1,$1+$1,$8,$9,$2,$3,0*%
%AMFreePoly0*
4,1,18,-0.437500,0.050000,-0.433694,0.069134,-0.422855,0.085355,-0.406634,0.096194,-0.387500,0.100000,0.387500,0.100000,0.437500,0.050000,0.437500,-0.050000,0.433694,-0.069134,0.422855,-0.085355,0.406634,-0.096194,0.387500,-0.100000,-0.387500,-0.100000,-0.406634,-0.096194,-0.422855,-0.085355,-0.433694,-0.069134,-0.437500,-0.050000,-0.437500,0.050000,-0.437500,0.050000,$1*%
%AMFreePoly1*
4,1,18,-0.437500,0.050000,-0.433694,0.069134,-0.422855,0.085355,-0.406634,0.096194,-0.387500,0.100000,0.387500,0.100000,0.406634,0.096194,0.422855,0.085355,0.433694,0.069134,0.437500,0.050000,0.437500,-0.050000,0.387500,-0.100000,-0.387500,-0.100000,-0.406634,-0.096194,-0.422855,-0.085355,-0.433694,-0.069134,-0.437500,-0.050000,-0.437500,0.050000,-0.437500,0.050000,$1*%
%AMFreePoly2*
4,1,18,-0.100000,0.387500,-0.050000,0.437500,0.050000,0.437500,0.069134,0.433694,0.085355,0.422855,0.096194,0.406634,0.100000,0.387500,0.100000,-0.387500,0.096194,-0.406634,0.085355,-0.422855,0.069134,-0.433694,0.050000,-0.437500,-0.050000,-0.437500,-0.069134,-0.433694,-0.085355,-0.422855,-0.096194,-0.406634,-0.100000,-0.387500,-0.100000,0.387500,-0.100000,0.387500,$1*%
%AMFreePoly3*
4,1,18,-0.100000,0.387500,-0.096194,0.406634,-0.085355,0.422855,-0.069134,0.433694,-0.050000,0.437500,0.050000,0.437500,0.100000,0.387500,0.100000,-0.387500,0.096194,-0.406634,0.085355,-0.422855,0.069134,-0.433694,0.050000,-0.437500,-0.050000,-0.437500,-0.069134,-0.433694,-0.085355,-0.422855,-0.096194,-0.406634,-0.100000,-0.387500,-0.100000,0.387500,-0.100000,0.387500,$1*%
%AMFreePoly4*
4,1,18,-0.437500,0.050000,-0.433694,0.069134,-0.422855,0.085355,-0.406634,0.096194,-0.387500,0.100000,0.387500,0.100000,0.406634,0.096194,0.422855,0.085355,0.433694,0.069134,0.437500,0.050000,0.437500,-0.050000,0.433694,-0.069134,0.422855,-0.085355,0.406634,-0.096194,0.387500,-0.100000,-0.387500,-0.100000,-0.437500,-0.050000,-0.437500,0.050000,-0.437500,0.050000,$1*%
%AMFreePoly5*
4,1,18,-0.437500,0.050000,-0.387500,0.100000,0.387500,0.100000,0.406634,0.096194,0.422855,0.085355,0.433694,0.069134,0.437500,0.050000,0.437500,-0.050000,0.433694,-0.069134,0.422855,-0.085355,0.406634,-0.096194,0.387500,-0.100000,-0.387500,-0.100000,-0.406634,-0.096194,-0.422855,-0.085355,-0.433694,-0.069134,-0.437500,-0.050000,-0.437500,0.050000,-0.437500,0.050000,$1*%
%AMFreePoly6*
4,1,18,-0.100000,0.387500,-0.096194,0.406634,-0.085355,0.422855,-0.069134,0.433694,-0.050000,0.437500,0.050000,0.437500,0.069134,0.433694,0.085355,0.422855,0.096194,0.406634,0.100000,0.387500,0.100000,-0.387500,0.050000,-0.437500,-0.050000,-0.437500,-0.069134,-0.433694,-0.085355,-0.422855,-0.096194,-0.406634,-0.100000,-0.387500,-0.100000,0.387500,-0.100000,0.387500,$1*%
%AMFreePoly7*
4,1,18,-0.100000,0.387500,-0.096194,0.406634,-0.085355,0.422855,-0.069134,0.433694,-0.050000,0.437500,0.050000,0.437500,0.069134,0.433694,0.085355,0.422855,0.096194,0.406634,0.100000,0.387500,0.100000,-0.387500,0.096194,-0.406634,0.085355,-0.422855,0.069134,-0.433694,0.050000,-0.437500,-0.050000,-0.437500,-0.100000,-0.387500,-0.100000,0.387500,-0.100000,0.387500,$1*%
G04 Aperture macros list end*
%TA.AperFunction,Conductor*%
%ADD10C,0.200000*%
%TD*%
%TA.AperFunction,SMDPad,CuDef*%
%ADD11RoundRect,0.200000X0.200000X0.275000X-0.200000X0.275000X-0.200000X-0.275000X0.200000X-0.275000X0*%
%TD*%
%TA.AperFunction,SMDPad,CuDef*%
%ADD12R,0.380000X1.000000*%
%TD*%
%TA.AperFunction,SMDPad,CuDef*%
%ADD13R,0.700000X1.150000*%
%TD*%
%TA.AperFunction,SMDPad,CuDef*%
%ADD14RoundRect,0.135000X0.185000X-0.135000X0.185000X0.135000X-0.185000X0.135000X-0.185000X-0.135000X0*%
%TD*%
%TA.AperFunction,SMDPad,CuDef*%
%ADD15RoundRect,0.250000X0.475000X-0.250000X0.475000X0.250000X-0.475000X0.250000X-0.475000X-0.250000X0*%
%TD*%
%TA.AperFunction,SMDPad,CuDef*%
%ADD16RoundRect,0.135000X-0.185000X0.135000X-0.185000X-0.135000X0.185000X-0.135000X0.185000X0.135000X0*%
%TD*%
%TA.AperFunction,SMDPad,CuDef*%
%ADD17RoundRect,0.250000X0.450000X0.350000X-0.450000X0.350000X-0.450000X-0.350000X0.450000X-0.350000X0*%
%TD*%
%TA.AperFunction,SMDPad,CuDef*%
%ADD18R,0.530000X0.470000*%
%TD*%
%TA.AperFunction,SMDPad,CuDef*%
%ADD19RoundRect,0.140000X-0.140000X-0.170000X0.140000X-0.170000X0.140000X0.170000X-0.140000X0.170000X0*%
%TD*%
%TA.AperFunction,SMDPad,CuDef*%
%ADD20RoundRect,0.250000X-0.250000X-0.475000X0.250000X-0.475000X0.250000X0.475000X-0.250000X0.475000X0*%
%TD*%
%TA.AperFunction,SMDPad,CuDef*%
%ADD21RoundRect,0.140000X0.140000X0.170000X-0.140000X0.170000X-0.140000X-0.170000X0.140000X-0.170000X0*%
%TD*%
%TA.AperFunction,SMDPad,CuDef*%
%ADD22RoundRect,0.250000X-0.250000X1.000000X-0.250000X-1.000000X0.250000X-1.000000X0.250000X1.000000X0*%
%TD*%
%TA.AperFunction,SMDPad,CuDef*%
%ADD23RoundRect,0.135000X-0.135000X-0.185000X0.135000X-0.185000X0.135000X0.185000X-0.135000X0.185000X0*%
%TD*%
%TA.AperFunction,SMDPad,CuDef*%
%ADD24RoundRect,0.150000X-0.150000X0.512500X-0.150000X-0.512500X0.150000X-0.512500X0.150000X0.512500X0*%
%TD*%
%TA.AperFunction,SMDPad,CuDef*%
%ADD25RoundRect,0.140000X0.170000X-0.140000X0.170000X0.140000X-0.170000X0.140000X-0.170000X-0.140000X0*%
%TD*%
%TA.AperFunction,SMDPad,CuDef*%
%ADD26RoundRect,0.250000X-0.475000X0.250000X-0.475000X-0.250000X0.475000X-0.250000X0.475000X0.250000X0*%
%TD*%
%TA.AperFunction,SMDPad,CuDef*%
%ADD27RoundRect,0.125000X0.125000X-0.250000X0.125000X0.250000X-0.125000X0.250000X-0.125000X-0.250000X0*%
%TD*%
%TA.AperFunction,HeatsinkPad*%
%ADD28R,4.300000X3.400000*%
%TD*%
%TA.AperFunction,SMDPad,CuDef*%
%ADD29RoundRect,0.135000X0.135000X0.185000X-0.135000X0.185000X-0.135000X-0.185000X0.135000X-0.185000X0*%
%TD*%
%TA.AperFunction,SMDPad,CuDef*%
%ADD30FreePoly0,90.000000*%
%TD*%
%TA.AperFunction,SMDPad,CuDef*%
%ADD31RoundRect,0.050000X0.050000X-0.387500X0.050000X0.387500X-0.050000X0.387500X-0.050000X-0.387500X0*%
%TD*%
%TA.AperFunction,SMDPad,CuDef*%
%ADD32FreePoly1,90.000000*%
%TD*%
%TA.AperFunction,SMDPad,CuDef*%
%ADD33FreePoly2,90.000000*%
%TD*%
%TA.AperFunction,SMDPad,CuDef*%
%ADD34RoundRect,0.050000X0.387500X-0.050000X0.387500X0.050000X-0.387500X0.050000X-0.387500X-0.050000X0*%
%TD*%
%TA.AperFunction,SMDPad,CuDef*%
%ADD35FreePoly3,90.000000*%
%TD*%
%TA.AperFunction,SMDPad,CuDef*%
%ADD36FreePoly4,90.000000*%
%TD*%
%TA.AperFunction,SMDPad,CuDef*%
%ADD37FreePoly5,90.000000*%
%TD*%
%TA.AperFunction,SMDPad,CuDef*%
%ADD38FreePoly6,90.000000*%
%TD*%
%TA.AperFunction,SMDPad,CuDef*%
%ADD39FreePoly7,90.000000*%
%TD*%
%TA.AperFunction,ComponentPad*%
%ADD40C,0.600000*%
%TD*%
%TA.AperFunction,SMDPad,CuDef*%
%ADD41RoundRect,0.153000X1.547000X1.547000X-1.547000X1.547000X-1.547000X-1.547000X1.547000X-1.547000X0*%
%TD*%
%TA.AperFunction,SMDPad,CuDef*%
%ADD42R,1.700000X0.700000*%
%TD*%
%TA.AperFunction,ViaPad*%
%ADD43C,0.600000*%
%TD*%
%TA.AperFunction,ViaPad*%
%ADD44C,0.800000*%
%TD*%
%TA.AperFunction,Conductor*%
%ADD45C,0.152400*%
%TD*%
%TA.AperFunction,Conductor*%
%ADD46C,0.127000*%
%TD*%
%TA.AperFunction,Conductor*%
%ADD47C,0.254000*%
%TD*%
%TA.AperFunction,Conductor*%
%ADD48C,0.250000*%
%TD*%
G04 APERTURE END LIST*
D10*
%TO.N,+3.3V*%
X107390000Y-61646434D02*
X108230000Y-62400000D01*
%TD*%
D11*
%TO.P,R4,1*%
%TO.N,Net-(P1-CC)*%
X100530183Y-57546434D03*
%TO.P,R4,2*%
%TO.N,GND*%
X98880183Y-57546434D03*
%TD*%
D12*
%TO.P,P1,A1,GND*%
%TO.N,GND*%
X100805183Y-54186434D03*
%TO.P,P1,A2*%
%TO.N,N/C*%
X101305183Y-54186434D03*
%TO.P,P1,A3*%
X101805183Y-54186434D03*
%TO.P,P1,A4,VBUS*%
%TO.N,VBUS*%
X102305183Y-54186434D03*
%TO.P,P1,A5,CC*%
%TO.N,Net-(P1-CC)*%
X102805183Y-54186434D03*
%TO.P,P1,A6,D+*%
%TO.N,/USB_D+*%
X103305183Y-54186434D03*
%TO.P,P1,A7,D-*%
%TO.N,/USB_D-*%
X103805183Y-54186434D03*
%TO.P,P1,A8*%
%TO.N,N/C*%
X104305183Y-54186434D03*
%TO.P,P1,A9,VBUS*%
%TO.N,VBUS*%
X104805183Y-54186434D03*
%TO.P,P1,A10*%
%TO.N,N/C*%
X105305183Y-54186434D03*
%TO.P,P1,A11*%
X105805183Y-54186434D03*
%TO.P,P1,A12,GND*%
%TO.N,GND*%
X106305183Y-54186434D03*
D13*
%TO.P,P1,S1,SHIELD*%
X100135183Y-55026434D03*
%TD*%
D14*
%TO.P,R8,1*%
%TO.N,/XOUT*%
X114300000Y-66110000D03*
%TO.P,R8,2*%
%TO.N,Net-(C16-Pad1)*%
X114300000Y-65090000D03*
%TD*%
D15*
%TO.P,C19,1*%
%TO.N,VBUS*%
X94055183Y-55046434D03*
%TO.P,C19,2*%
%TO.N,GND*%
X94055183Y-53146434D03*
%TD*%
D16*
%TO.P,R5,1*%
%TO.N,+3.3V*%
X94700000Y-67390000D03*
%TO.P,R5,2*%
%TO.N,/FLASH_SS*%
X94700000Y-68410000D03*
%TD*%
D17*
%TO.P,Y1,1,1*%
%TO.N,/XIN*%
X114235183Y-60726434D03*
%TO.P,Y1,2,2*%
%TO.N,GND*%
X112035183Y-60726434D03*
%TO.P,Y1,3,3*%
%TO.N,Net-(C16-Pad1)*%
X112035183Y-62426434D03*
%TO.P,Y1,4,4*%
%TO.N,GND*%
X114235183Y-62426434D03*
%TD*%
D18*
%TO.P,C1,1*%
%TO.N,+3.3V*%
X99750000Y-63615000D03*
%TO.P,C1,2*%
%TO.N,GND*%
X99750000Y-62585000D03*
%TD*%
D19*
%TO.P,C9,1*%
%TO.N,+3.3V*%
X102780000Y-71480000D03*
%TO.P,C9,2*%
%TO.N,GND*%
X103740000Y-71480000D03*
%TD*%
D20*
%TO.P,C2,1*%
%TO.N,+3.3V*%
X111280000Y-56000000D03*
%TO.P,C2,2*%
%TO.N,GND*%
X113180000Y-56000000D03*
%TD*%
D19*
%TO.P,C10,1*%
%TO.N,+3.3V*%
X107400000Y-61646434D03*
%TO.P,C10,2*%
%TO.N,GND*%
X108360000Y-61646434D03*
%TD*%
D21*
%TO.P,C17,1*%
%TO.N,+3.3V*%
X103980000Y-60850000D03*
%TO.P,C17,2*%
%TO.N,GND*%
X103020000Y-60850000D03*
%TD*%
D22*
%TO.P,J2,1,Pin_1*%
%TO.N,/RUN*%
X114985183Y-79600000D03*
%TO.P,J2,2,Pin_2*%
%TO.N,+3.3V*%
X112445183Y-79600000D03*
%TO.P,J2,3,Pin_3*%
%TO.N,/GPIO7*%
X109905183Y-79600000D03*
%TO.P,J2,4,Pin_4*%
%TO.N,/GPIO6*%
X107365183Y-79600000D03*
%TO.P,J2,5,Pin_5*%
%TO.N,/GPIO5*%
X104825183Y-79600000D03*
%TO.P,J2,6,Pin_6*%
%TO.N,/GPIO4*%
X102285183Y-79600000D03*
%TO.P,J2,7,Pin_7*%
%TO.N,/GPIO3*%
X99745183Y-79600000D03*
%TO.P,J2,8,Pin_8*%
%TO.N,/GPIO2*%
X97205183Y-79600000D03*
%TO.P,J2,9,Pin_9*%
%TO.N,/GPIO1*%
X94665183Y-79600000D03*
%TO.P,J2,10,Pin_10*%
%TO.N,/GPIO0*%
X92125183Y-79600000D03*
%TD*%
D21*
%TO.P,C8,1*%
%TO.N,+3.3V*%
X103980000Y-62000000D03*
%TO.P,C8,2*%
%TO.N,GND*%
X103020000Y-62000000D03*
%TD*%
D18*
%TO.P,C3,1*%
%TO.N,+1V1*%
X98500000Y-63565000D03*
%TO.P,C3,2*%
%TO.N,GND*%
X98500000Y-62535000D03*
%TD*%
D19*
%TO.P,C5,1*%
%TO.N,/VREG_AVDD*%
X100820000Y-60850000D03*
%TO.P,C5,2*%
%TO.N,GND*%
X101780000Y-60850000D03*
%TD*%
D23*
%TO.P,R3,1*%
%TO.N,/USB_D-*%
X98590000Y-64750000D03*
%TO.P,R3,2*%
%TO.N,Net-(U1-USB_DM)*%
X99610000Y-64750000D03*
%TD*%
D24*
%TO.P,U4,1,VIN*%
%TO.N,VBUS*%
X94067683Y-57208934D03*
%TO.P,U4,2,GND*%
%TO.N,GND*%
X93117683Y-57208934D03*
%TO.P,U4,3,EN*%
%TO.N,VBUS*%
X92167683Y-57208934D03*
%TO.P,U4,4,NC*%
%TO.N,unconnected-(U4-NC-Pad4)*%
X92167683Y-59483934D03*
%TO.P,U4,5,VOUT*%
%TO.N,+3.3V*%
X94067683Y-59483934D03*
%TD*%
D23*
%TO.P,R1,1*%
%TO.N,+3.3V*%
X98790000Y-60860000D03*
%TO.P,R1,2*%
%TO.N,/VREG_AVDD*%
X99810000Y-60860000D03*
%TD*%
%TO.P,R7,1*%
%TO.N,/GPIO0*%
X94090000Y-74200000D03*
%TO.P,R7,2*%
%TO.N,/FLASH_SS*%
X95110000Y-74200000D03*
%TD*%
D25*
%TO.P,C15,1*%
%TO.N,/XIN*%
X114235183Y-58526434D03*
%TO.P,C15,2*%
%TO.N,GND*%
X114235183Y-57566434D03*
%TD*%
D23*
%TO.P,R2,1*%
%TO.N,/USB_D+*%
X98590000Y-65700000D03*
%TO.P,R2,2*%
%TO.N,Net-(U1-USB_DP)*%
X99610000Y-65700000D03*
%TD*%
D26*
%TO.P,C21,1*%
%TO.N,+3.3V*%
X92600000Y-61200000D03*
%TO.P,C21,2*%
%TO.N,GND*%
X92600000Y-63100000D03*
%TD*%
D19*
%TO.P,C12,1*%
%TO.N,+3.3V*%
X111440000Y-64160000D03*
%TO.P,C12,2*%
%TO.N,GND*%
X112400000Y-64160000D03*
%TD*%
D25*
%TO.P,C4,1*%
%TO.N,+1V1*%
X110005183Y-60576434D03*
%TO.P,C4,2*%
%TO.N,GND*%
X110005183Y-59616434D03*
%TD*%
D27*
%TO.P,U2,1,~{CS}*%
%TO.N,/FLASH_SS*%
X96100183Y-72696434D03*
%TO.P,U2,2,DO/IO_{1}*%
%TO.N,/QSPI_SD1*%
X97370183Y-72696434D03*
%TO.P,U2,3,~{WP}/IO_{2}*%
%TO.N,/QSPI_SD2*%
X98640183Y-72696434D03*
%TO.P,U2,4,GND*%
%TO.N,GND*%
X99910183Y-72696434D03*
%TO.P,U2,5,DI/IO_{0}*%
%TO.N,/QSPI_SD0*%
X99910183Y-67296434D03*
%TO.P,U2,6,CLK*%
%TO.N,/QSPI_SCLK*%
X98640183Y-67296434D03*
%TO.P,U2,7,~{HOLD}/~{RESET}/IO_{3}*%
%TO.N,/QSPI_SD3*%
X97370183Y-67296434D03*
%TO.P,U2,8,VCC*%
%TO.N,+3.3V*%
X96100183Y-67296434D03*
D28*
%TO.P,U2,9,EP*%
%TO.N,GND*%
X98005183Y-69996434D03*
%TD*%
D25*
%TO.P,C6,1*%
%TO.N,+1V1*%
X109000000Y-60610000D03*
%TO.P,C6,2*%
%TO.N,GND*%
X109000000Y-59650000D03*
%TD*%
%TO.P,C7,1*%
%TO.N,+1V1*%
X107980000Y-60600000D03*
%TO.P,C7,2*%
%TO.N,GND*%
X107980000Y-59640000D03*
%TD*%
D19*
%TO.P,C13,1*%
%TO.N,+3.3V*%
X112550000Y-68250000D03*
%TO.P,C13,2*%
%TO.N,GND*%
X113510000Y-68250000D03*
%TD*%
D29*
%TO.P,R6,1*%
%TO.N,/QSPI_SS*%
X97120000Y-74200000D03*
%TO.P,R6,2*%
%TO.N,/FLASH_SS*%
X96100000Y-74200000D03*
%TD*%
D19*
%TO.P,C14,1*%
%TO.N,+3.3V*%
X112367836Y-65930000D03*
%TO.P,C14,2*%
%TO.N,GND*%
X113327836Y-65930000D03*
%TD*%
%TO.P,C16,1*%
%TO.N,Net-(C16-Pad1)*%
X113405183Y-63956434D03*
%TO.P,C16,2*%
%TO.N,GND*%
X114365183Y-63956434D03*
%TD*%
D30*
%TO.P,U1,1,IOVDD*%
%TO.N,+3.3V*%
X103955183Y-70233934D03*
D31*
%TO.P,U1,2,GPIO0*%
%TO.N,/GPIO0*%
X104355183Y-70233934D03*
%TO.P,U1,3,GPIO1*%
%TO.N,/GPIO1*%
X104755183Y-70233934D03*
%TO.P,U1,4,GPIO2*%
%TO.N,/GPIO2*%
X105155183Y-70233934D03*
%TO.P,U1,5,GPIO3*%
%TO.N,/GPIO3*%
X105555183Y-70233934D03*
%TO.P,U1,6,DVDD*%
%TO.N,+1V1*%
X105955183Y-70233934D03*
%TO.P,U1,7,GPIO4*%
%TO.N,/GPIO4*%
X106355183Y-70233934D03*
%TO.P,U1,8,GPIO5*%
%TO.N,/GPIO5*%
X106755183Y-70233934D03*
%TO.P,U1,9,GPIO6*%
%TO.N,/GPIO6*%
X107155183Y-70233934D03*
%TO.P,U1,10,GPIO7*%
%TO.N,/GPIO7*%
X107555183Y-70233934D03*
%TO.P,U1,11,IOVDD*%
%TO.N,+3.3V*%
X107955183Y-70233934D03*
%TO.P,U1,12,GPIO8*%
%TO.N,/GPIO8*%
X108355183Y-70233934D03*
%TO.P,U1,13,GPIO9*%
%TO.N,/GPIO9*%
X108755183Y-70233934D03*
%TO.P,U1,14,GPIO10*%
%TO.N,/GPIO10*%
X109155183Y-70233934D03*
D32*
%TO.P,U1,15,GPIO11*%
%TO.N,/GPIO11*%
X109555183Y-70233934D03*
D33*
%TO.P,U1,16,GPIO12*%
%TO.N,/GPIO12*%
X110192683Y-69596434D03*
D34*
%TO.P,U1,17,GPIO13*%
%TO.N,/GPIO13*%
X110192683Y-69196434D03*
%TO.P,U1,18,GPIO14*%
%TO.N,/GPIO14*%
X110192683Y-68796434D03*
%TO.P,U1,19,GPIO15*%
%TO.N,/GPIO15*%
X110192683Y-68396434D03*
%TO.P,U1,20,IOVDD*%
%TO.N,+3.3V*%
X110192683Y-67996434D03*
%TO.P,U1,21,XIN*%
%TO.N,/XIN*%
X110192683Y-67596434D03*
%TO.P,U1,22,XOUT*%
%TO.N,/XOUT*%
X110192683Y-67196434D03*
%TO.P,U1,23,DVDD*%
%TO.N,+1V1*%
X110192683Y-66796434D03*
%TO.P,U1,24,SWCLK*%
%TO.N,/SWCLK*%
X110192683Y-66396434D03*
%TO.P,U1,25,SWD*%
%TO.N,/SWD*%
X110192683Y-65996434D03*
%TO.P,U1,26,RUN*%
%TO.N,/RUN*%
X110192683Y-65596434D03*
%TO.P,U1,27,GPIO16*%
%TO.N,/GPIO16*%
X110192683Y-65196434D03*
%TO.P,U1,28,GPIO17*%
%TO.N,/GPIO17*%
X110192683Y-64796434D03*
%TO.P,U1,29,GPIO18*%
%TO.N,/GPIO18*%
X110192683Y-64396434D03*
D35*
%TO.P,U1,30,IOVDD*%
%TO.N,+3.3V*%
X110192683Y-63996434D03*
D36*
%TO.P,U1,31,GPIO19*%
%TO.N,/GPIO19*%
X109555183Y-63358934D03*
D31*
%TO.P,U1,32,GPIO20*%
%TO.N,/GPIO20*%
X109155183Y-63358934D03*
%TO.P,U1,33,GPIO21*%
%TO.N,/GPIO21*%
X108755183Y-63358934D03*
%TO.P,U1,34,GPIO22*%
%TO.N,/GPIO22*%
X108355183Y-63358934D03*
%TO.P,U1,35,GPIO23*%
%TO.N,/GPIO23*%
X107955183Y-63358934D03*
%TO.P,U1,36,GPIO24*%
%TO.N,/GPIO24*%
X107555183Y-63358934D03*
%TO.P,U1,37,GPIO25*%
%TO.N,/GPIO25*%
X107155183Y-63358934D03*
%TO.P,U1,38,IOVDD*%
%TO.N,+3.3V*%
X106755183Y-63358934D03*
%TO.P,U1,39,DVDD*%
%TO.N,+1V1*%
X106355183Y-63358934D03*
%TO.P,U1,40,GPIO26_ADC0*%
%TO.N,/GPIO26_ADC0*%
X105955183Y-63358934D03*
%TO.P,U1,41,GPIO27_ADC1*%
%TO.N,/GPIO27_ADC1*%
X105555183Y-63358934D03*
%TO.P,U1,42,GPIO28_ADC2*%
%TO.N,/GPIO28_ADC2*%
X105155183Y-63358934D03*
%TO.P,U1,43,GPIO29_ADC3*%
%TO.N,/GPIO29_ADC3*%
X104755183Y-63358934D03*
%TO.P,U1,44,ADC_AVDD*%
%TO.N,+3.3V*%
X104355183Y-63358934D03*
D37*
%TO.P,U1,45,IOVDD*%
X103955183Y-63358934D03*
D38*
%TO.P,U1,46,VREG_AVDD*%
%TO.N,/VREG_AVDD*%
X103317683Y-63996434D03*
D34*
%TO.P,U1,47,VREG_PGND*%
%TO.N,GND*%
X103317683Y-64396434D03*
%TO.P,U1,48,VREG_LX*%
%TO.N,/VREG_LX*%
X103317683Y-64796434D03*
%TO.P,U1,49,VREG_VIN*%
%TO.N,+3.3V*%
X103317683Y-65196434D03*
%TO.P,U1,50,VREG_FB*%
%TO.N,+1V1*%
X103317683Y-65596434D03*
%TO.P,U1,51,USB_DM*%
%TO.N,Net-(U1-USB_DM)*%
X103317683Y-65996434D03*
%TO.P,U1,52,USB_DP*%
%TO.N,Net-(U1-USB_DP)*%
X103317683Y-66396434D03*
%TO.P,U1,53,USB_OTP_VDD*%
%TO.N,+3.3V*%
X103317683Y-66796434D03*
%TO.P,U1,54,QSPI_IOVDD*%
X103317683Y-67196434D03*
%TO.P,U1,55,QSPI_SD3*%
%TO.N,/QSPI_SD3*%
X103317683Y-67596434D03*
%TO.P,U1,56,QSPI_SCLK*%
%TO.N,/QSPI_SCLK*%
X103317683Y-67996434D03*
%TO.P,U1,57,QSPI_SD0*%
%TO.N,/QSPI_SD0*%
X103317683Y-68396434D03*
%TO.P,U1,58,QSPI_SD2*%
%TO.N,/QSPI_SD2*%
X103317683Y-68796434D03*
%TO.P,U1,59,QSPI_SD1*%
%TO.N,/QSPI_SD1*%
X103317683Y-69196434D03*
D39*
%TO.P,U1,60,QSPI_SS*%
%TO.N,/QSPI_SS*%
X103317683Y-69596434D03*
D40*
%TO.P,U1,61,GND*%
%TO.N,GND*%
X105380183Y-68171434D03*
X106755183Y-68171434D03*
X108130183Y-68171434D03*
X105380183Y-66796434D03*
X106755183Y-66796434D03*
D41*
X106755183Y-66796434D03*
D40*
X108130183Y-66796434D03*
X105380183Y-65421434D03*
X106755183Y-65421434D03*
X108130183Y-65421434D03*
%TD*%
D42*
%TO.P,L1,1,1*%
%TO.N,+1V1*%
X96708211Y-63550000D03*
%TO.P,L1,2,2*%
%TO.N,/VREG_LX*%
X96708211Y-62150000D03*
%TD*%
D43*
%TO.N,*%
X96090000Y-54990000D03*
X114460000Y-56080000D03*
X104710000Y-58370000D03*
X97300000Y-60530000D03*
%TO.N,+1V1*%
X110100000Y-61510000D03*
X100550000Y-64200000D03*
%TO.N,VBUS*%
X104805183Y-55220000D03*
D44*
X98800000Y-56246434D03*
D43*
%TO.N,/GPIO27_ADC1*%
X106140000Y-60530000D03*
%TO.N,/GPIO29_ADC3*%
X104755183Y-60670000D03*
%TO.N,/GPIO11*%
X110555183Y-72750000D03*
%TO.N,/QSPI_SS*%
X102130183Y-70540000D03*
%TO.N,/RUN*%
X111500000Y-66600000D03*
X111500000Y-68800000D03*
%TO.N,/GPIO10*%
X109680183Y-72205729D03*
%TO.N,/GPIO9*%
X108755502Y-71815683D03*
%TO.N,/GPIO28_ADC2*%
X105560000Y-59900000D03*
%TO.N,/GPIO0*%
X103434390Y-73064390D03*
D44*
X93100000Y-76400000D03*
D43*
%TO.N,/GPIO13*%
X111040000Y-74896434D03*
%TO.N,/GPIO12*%
X110370000Y-74046434D03*
D44*
%TO.N,GND*%
X97900000Y-55050000D03*
D43*
X103304724Y-72274724D03*
D44*
X96600000Y-70000000D03*
D43*
X109260000Y-61650000D03*
D44*
X109430000Y-55400000D03*
X112380000Y-57550000D03*
D43*
X103010000Y-59820000D03*
X106930000Y-60010000D03*
D44*
X98005183Y-69996434D03*
D43*
X101850000Y-62050000D03*
D44*
X92600000Y-65000000D03*
X93200000Y-68410000D03*
X113330000Y-75850000D03*
D43*
X115180000Y-67250000D03*
D44*
X106860000Y-57060000D03*
X92250000Y-67080000D03*
D43*
X100700000Y-62600000D03*
D44*
X99300000Y-70000000D03*
D43*
X113250000Y-64980000D03*
D44*
X97630183Y-57546434D03*
%TD*%
D10*
%TO.N,GND*%
X112380000Y-57550000D02*
X112380000Y-56800000D01*
X112380000Y-56800000D02*
X113180000Y-56000000D01*
X112380000Y-57550000D02*
X114218749Y-57550000D01*
X114218749Y-57550000D02*
X114235183Y-57566434D01*
X112380000Y-57550000D02*
X112380000Y-58770000D01*
X112380000Y-58770000D02*
X111730000Y-59420000D01*
X111730000Y-59420000D02*
X111730000Y-60421251D01*
D45*
%TO.N,+1V1*%
X109000000Y-66373821D02*
X109422613Y-66796434D01*
D46*
X99085000Y-64150000D02*
X100500000Y-64150000D01*
X100550000Y-64200000D02*
X100800000Y-64200000D01*
X96708211Y-63550000D02*
X98485000Y-63550000D01*
D45*
X107423566Y-60576434D02*
X110005183Y-60576434D01*
D46*
X102196434Y-65596434D02*
X103317683Y-65596434D01*
D45*
X106355183Y-63358934D02*
X106355183Y-61644817D01*
D46*
X98485000Y-63550000D02*
X98500000Y-63565000D01*
D45*
X109422613Y-66796434D02*
X110192683Y-66796434D01*
X106800000Y-64500000D02*
X106355183Y-64055183D01*
X105955183Y-70233934D02*
X105955183Y-69644817D01*
X110100000Y-61510000D02*
X110100000Y-60471251D01*
X110100000Y-60671251D02*
X110005183Y-60576434D01*
X108500000Y-64500000D02*
X106800000Y-64500000D01*
X108600000Y-68900000D02*
X109000000Y-68500000D01*
X106355183Y-61644817D02*
X107423566Y-60576434D01*
D46*
X100500000Y-64150000D02*
X100550000Y-64200000D01*
D45*
X106700000Y-68900000D02*
X108600000Y-68900000D01*
D46*
X100800000Y-64200000D02*
X102196434Y-65596434D01*
D45*
X105955183Y-69644817D02*
X106700000Y-68900000D01*
X109000000Y-65000000D02*
X108500000Y-64500000D01*
X106355183Y-64055183D02*
X106355183Y-63358934D01*
D46*
X98500000Y-63565000D02*
X99085000Y-64150000D01*
D45*
X109000000Y-66373821D02*
X109000000Y-65000000D01*
X109000000Y-68500000D02*
X109000000Y-66373821D01*
%TO.N,VBUS*%
X104805183Y-54186434D02*
X104805183Y-55220000D01*
D47*
X102300183Y-55636434D02*
X102300183Y-54926434D01*
X102300183Y-54926434D02*
X102305183Y-54921434D01*
X101690183Y-56246434D02*
X102300183Y-55636434D01*
X92167683Y-58008934D02*
X92555183Y-58396434D01*
X94067683Y-57208934D02*
X94067683Y-55058934D01*
X95030183Y-56246434D02*
X94067683Y-57208934D01*
X94067683Y-58033934D02*
X94067683Y-57208934D01*
D45*
X102305183Y-54186434D02*
X102305183Y-54921434D01*
D47*
X98800000Y-56246434D02*
X95030183Y-56246434D01*
D45*
X94067683Y-55058934D02*
X94055183Y-55046434D01*
D47*
X93705183Y-58396434D02*
X94067683Y-58033934D01*
X92167683Y-57208934D02*
X92167683Y-58008934D01*
X98800000Y-56246434D02*
X101690183Y-56246434D01*
X92555183Y-58396434D02*
X93705183Y-58396434D01*
D46*
%TO.N,/VREG_AVDD*%
X99820000Y-60850000D02*
X99810000Y-60860000D01*
X100820000Y-60850000D02*
X99820000Y-60850000D01*
X100800000Y-60830000D02*
X100820000Y-60850000D01*
D45*
X102796434Y-63996434D02*
X103317683Y-63996434D01*
X103314117Y-64000000D02*
X103317683Y-63996434D01*
X101462800Y-61492800D02*
X100820000Y-60850000D01*
X102462800Y-63662800D02*
X102796434Y-63996434D01*
X102462800Y-61712800D02*
X102242800Y-61492800D01*
X102462800Y-61712800D02*
X102462800Y-63662800D01*
X102242800Y-61492800D02*
X101462800Y-61492800D01*
%TO.N,/XIN*%
X109842683Y-67596434D02*
X114003566Y-67596434D01*
X114003566Y-67596434D02*
X115300000Y-66300000D01*
X115300000Y-66300000D02*
X115300000Y-61791251D01*
X115300000Y-61791251D02*
X114235183Y-60726434D01*
X114235183Y-60726434D02*
X114235183Y-58526434D01*
%TO.N,Net-(C16-Pad1)*%
X114300000Y-64851251D02*
X113405183Y-63956434D01*
X113405183Y-63956434D02*
X112035183Y-62586434D01*
X112035183Y-62586434D02*
X112035183Y-62426434D01*
X112025183Y-62436434D02*
X112035183Y-62426434D01*
X114300000Y-65090000D02*
X114300000Y-64851251D01*
%TO.N,+3.3V*%
X103317683Y-65196434D02*
X102353566Y-65196434D01*
X103963566Y-67196434D02*
X104355183Y-66804817D01*
D10*
X112445183Y-77283175D02*
X112445183Y-79600000D01*
X107955183Y-70233934D02*
X107955183Y-72793175D01*
D45*
X107955183Y-70233934D02*
X107932383Y-70256734D01*
X94105183Y-59446434D02*
X94067683Y-59483934D01*
X100772132Y-63615000D02*
X102353566Y-65196434D01*
X107400000Y-61646434D02*
X107400000Y-61780000D01*
D10*
X112367836Y-65087836D02*
X111440000Y-64160000D01*
X112367836Y-65930000D02*
X112367836Y-65087836D01*
D45*
X99750000Y-63615000D02*
X100772132Y-63615000D01*
X103317683Y-66796434D02*
X103828749Y-66796434D01*
X104355183Y-66804817D02*
X104355183Y-66270000D01*
X104355183Y-66270000D02*
X104355183Y-63358934D01*
D10*
X107955183Y-72793175D02*
X112445183Y-77283175D01*
D45*
X107400000Y-61780000D02*
X106770000Y-62410000D01*
X103828749Y-66796434D02*
X104355183Y-66270000D01*
X103317683Y-67196434D02*
X103963566Y-67196434D01*
D47*
X111440000Y-64160000D02*
X110350000Y-63070000D01*
D45*
%TO.N,/GPIO27_ADC1*%
X105555183Y-62024817D02*
X106140000Y-61440000D01*
X106140000Y-61440000D02*
X106140000Y-60530000D01*
X105555183Y-63358934D02*
X105555183Y-62024817D01*
%TO.N,/GPIO29_ADC3*%
X104755183Y-60700000D02*
X104755183Y-63358934D01*
%TO.N,/GPIO11*%
X110555183Y-71771434D02*
X109555183Y-70771434D01*
X110555183Y-72771434D02*
X110555183Y-72750000D01*
X110555183Y-72771434D02*
X110580183Y-72746434D01*
X110555183Y-72750000D02*
X110555183Y-71771434D01*
X109555183Y-70771434D02*
X109555183Y-70233934D01*
%TO.N,/QSPI_SS*%
X102555183Y-69596434D02*
X103317683Y-69596434D01*
X101071329Y-74576834D02*
X97496834Y-74576834D01*
X97496834Y-74576834D02*
X97120000Y-74200000D01*
X102130183Y-73517980D02*
X101071329Y-74576834D01*
X102130183Y-70540000D02*
X102130183Y-73517980D01*
X102130183Y-70540000D02*
X102130183Y-70021434D01*
X102130183Y-70021434D02*
X102555183Y-69596434D01*
%TO.N,/RUN*%
X111500000Y-66100000D02*
X110996434Y-65596434D01*
X112280400Y-73580400D02*
X114985183Y-76285183D01*
X110996434Y-65596434D02*
X110192683Y-65596434D01*
X111500000Y-69269922D02*
X112280400Y-70050323D01*
X114985183Y-76285183D02*
X114985183Y-80196434D01*
X112280400Y-70050323D02*
X112280400Y-73580400D01*
X111500000Y-68800000D02*
X111500000Y-69269922D01*
X111500000Y-66570000D02*
X111500000Y-66100000D01*
%TO.N,/GPIO10*%
X109680183Y-71396218D02*
X109155183Y-70871218D01*
X109155183Y-70871218D02*
X109155183Y-70233934D01*
X109680183Y-72196434D02*
X109680183Y-71396218D01*
%TO.N,/GPIO9*%
X108755502Y-71815683D02*
X108755183Y-71815364D01*
X108755183Y-71815364D02*
X108755183Y-70233934D01*
%TO.N,/GPIO28_ADC2*%
X105155183Y-61504817D02*
X105155183Y-63358934D01*
X105560000Y-59900000D02*
X105560000Y-61100000D01*
X105560000Y-61100000D02*
X105155183Y-61504817D01*
%TO.N,/GPIO2*%
X102997951Y-75803234D02*
X98305183Y-75803234D01*
X105155183Y-70233934D02*
X105155183Y-73646002D01*
X105155183Y-73646002D02*
X102997951Y-75803234D01*
X98305183Y-75803234D02*
X97205183Y-76903234D01*
X97205183Y-76903234D02*
X97205183Y-80196434D01*
%TO.N,/GPIO1*%
X94665183Y-76706434D02*
X94665183Y-80196434D01*
X104755183Y-73546218D02*
X102851567Y-75449834D01*
X104755183Y-70233934D02*
X104755183Y-73546218D01*
X102851567Y-75449834D02*
X95901783Y-75449834D01*
X94655183Y-76696434D02*
X94665183Y-76706434D01*
X95901783Y-75449834D02*
X94655183Y-76696434D01*
%TO.N,/GPIO5*%
X106755183Y-73846218D02*
X104825183Y-75776218D01*
X106755183Y-70233934D02*
X106755183Y-73846218D01*
X104825183Y-75776218D02*
X104825183Y-80196434D01*
%TO.N,/GPIO4*%
X106355183Y-73571434D02*
X102285183Y-77641434D01*
X106355183Y-70233934D02*
X106355183Y-73571434D01*
X102285183Y-77641434D02*
X102285183Y-80196434D01*
%TO.N,/GPIO6*%
X107155183Y-70233934D02*
X107155183Y-79986434D01*
X107155183Y-79986434D02*
X107365183Y-80196434D01*
%TO.N,/GPIO0*%
X94090000Y-74200000D02*
X94090000Y-75410000D01*
X104357200Y-70235951D02*
X104355183Y-70233934D01*
X104355183Y-71938707D02*
X104357200Y-71936690D01*
X104355183Y-72144817D02*
X103602808Y-72897192D01*
X94090000Y-75410000D02*
X93100000Y-76400000D01*
X104355183Y-71938707D02*
X104355183Y-70233934D01*
X103602808Y-72897192D02*
X103601588Y-72897192D01*
X92125183Y-77374817D02*
X92125183Y-79600000D01*
X104355183Y-71938707D02*
X104355183Y-72144817D01*
X93100000Y-76400000D02*
X92125183Y-77374817D01*
%TO.N,/GPIO3*%
X99745183Y-77066634D02*
X99745183Y-80196434D01*
X103144335Y-76156634D02*
X100655183Y-76156634D01*
X100655183Y-76156634D02*
X99745183Y-77066634D01*
X105555183Y-73745785D02*
X103144335Y-76156634D01*
X105555183Y-70233934D02*
X105555183Y-73745785D01*
%TO.N,/GPIO7*%
X109905183Y-76746434D02*
X109905183Y-80196434D01*
X107555183Y-74396434D02*
X109905183Y-76746434D01*
X107555183Y-70233934D02*
X107555183Y-74396434D01*
%TO.N,/VREG_LX*%
X100820000Y-61920000D02*
X96938211Y-61920000D01*
X101350000Y-62450000D02*
X100820000Y-61920000D01*
X102619565Y-64796434D02*
X101350000Y-63526869D01*
X101350000Y-63526869D02*
X101350000Y-62450000D01*
X103317683Y-64796434D02*
X102619565Y-64796434D01*
%TO.N,Net-(P1-CC)*%
X102805183Y-56571434D02*
X102805183Y-54186434D01*
X100530183Y-57546434D02*
X101830183Y-57546434D01*
X101830183Y-57546434D02*
X102805183Y-56571434D01*
D10*
%TO.N,/USB_D+*%
X94632000Y-61018000D02*
X94632000Y-64742000D01*
X94632000Y-64742000D02*
X95430000Y-65540000D01*
X103305183Y-54971434D02*
X103305183Y-56652878D01*
X103305183Y-56652878D02*
X101308061Y-58650000D01*
X97000000Y-58650000D02*
X94632000Y-61018000D01*
X101308061Y-58650000D02*
X97000000Y-58650000D01*
D45*
X103305183Y-54186434D02*
X103305183Y-54971434D01*
D10*
X95430000Y-65540000D02*
X98430000Y-65540000D01*
X98430000Y-65540000D02*
X98590000Y-65700000D01*
D45*
%TO.N,/USB_D-*%
X103805183Y-54186434D02*
X103805183Y-54961434D01*
D10*
X98540000Y-64800000D02*
X98590000Y-64750000D01*
X97135862Y-58978000D02*
X101462722Y-58978000D01*
X98590000Y-64750000D02*
X98420000Y-64920000D01*
X94960000Y-61153862D02*
X97135862Y-58978000D01*
X98420000Y-64920000D02*
X95440000Y-64920000D01*
X101462722Y-58978000D02*
X103800000Y-56640722D01*
X103800000Y-56640722D02*
X103800000Y-54959278D01*
X94960000Y-64440000D02*
X94960000Y-61153862D01*
X95440000Y-64920000D02*
X94960000Y-64440000D01*
D46*
%TO.N,Net-(U1-USB_DP)*%
X101953563Y-66396434D02*
X101507129Y-65950000D01*
D10*
X101107129Y-65550000D02*
X101507129Y-65950000D01*
X99760000Y-65550000D02*
X101107129Y-65550000D01*
D46*
X103317683Y-66396434D02*
X101953563Y-66396434D01*
D10*
X99610000Y-65700000D02*
X99760000Y-65550000D01*
%TO.N,Net-(U1-USB_DM)*%
X99610000Y-64750000D02*
X99710000Y-64850000D01*
D46*
X103317683Y-65996434D02*
X102046434Y-65996434D01*
D10*
X101500000Y-65450000D02*
X101640000Y-65590000D01*
X100900000Y-64850000D02*
X101500000Y-65450000D01*
X100650000Y-64850000D02*
X100900000Y-64850000D01*
X99710000Y-64850000D02*
X100650000Y-64850000D01*
D46*
X102046434Y-65996434D02*
X101640000Y-65590000D01*
D45*
%TO.N,/FLASH_SS*%
X94700000Y-68410000D02*
X94900000Y-68610000D01*
X96100183Y-72696434D02*
X96100183Y-74199817D01*
X94900000Y-68610000D02*
X94900000Y-71496251D01*
X96100000Y-74200000D02*
X95110000Y-74200000D01*
X94900000Y-71496251D02*
X96100183Y-72696434D01*
X96100183Y-74199817D02*
X96100000Y-74200000D01*
X96090000Y-72706617D02*
X96100183Y-72696434D01*
%TO.N,/XOUT*%
X113803566Y-67196434D02*
X109842683Y-67196434D01*
X114300000Y-66700000D02*
X113803566Y-67196434D01*
X114300000Y-66110000D02*
X114300000Y-66700000D01*
%TO.N,/QSPI_SCLK*%
X99609355Y-66650000D02*
X99615121Y-66644234D01*
X102596434Y-67996434D02*
X103317683Y-67996434D01*
X101250000Y-66650000D02*
X102596434Y-67996434D01*
X99286617Y-66650000D02*
X99609355Y-66650000D01*
X100211011Y-66650000D02*
X101250000Y-66650000D01*
X100205245Y-66644234D02*
X100211011Y-66650000D01*
X98640183Y-67296434D02*
X99286617Y-66650000D01*
X99615121Y-66644234D02*
X100205245Y-66644234D01*
%TO.N,/QSPI_SD1*%
X98396434Y-74296434D02*
X97370183Y-73270183D01*
X100955183Y-74296434D02*
X98396434Y-74296434D01*
X101358583Y-69841417D02*
X101358583Y-73893034D01*
X103317683Y-69196434D02*
X102003566Y-69196434D01*
X97370183Y-73270183D02*
X97370183Y-72696434D01*
X102003566Y-69196434D02*
X101358583Y-69841417D01*
X101358583Y-73893034D02*
X100955183Y-74296434D01*
%TO.N,/GPIO13*%
X110192683Y-69196434D02*
X111029966Y-69196434D01*
X111540302Y-74896434D02*
X111055183Y-74896434D01*
X111029966Y-69196434D02*
X112000000Y-70166468D01*
X112000000Y-70166468D02*
X112000000Y-74436736D01*
X112000000Y-74436736D02*
X111540302Y-74896434D01*
%TO.N,/QSPI_SD3*%
X101528545Y-66350000D02*
X102774979Y-67596434D01*
X98316617Y-66350000D02*
X101528545Y-66350000D01*
X102774979Y-67596434D02*
X103317683Y-67596434D01*
X97370183Y-67296434D02*
X98316617Y-66350000D01*
%TO.N,/GPIO12*%
X111640000Y-70306251D02*
X110930183Y-69596434D01*
X110405183Y-74046434D02*
X111079013Y-74046434D01*
X110930183Y-69596434D02*
X110192683Y-69596434D01*
X111079013Y-74046434D02*
X111640000Y-73485447D01*
X111640000Y-73485447D02*
X111640000Y-70306251D01*
%TO.N,/QSPI_SD2*%
X103317683Y-68796434D02*
X101803565Y-68796434D01*
X98951783Y-73943034D02*
X98640183Y-73631434D01*
X100558583Y-73943034D02*
X98951783Y-73943034D01*
X101803565Y-68796434D02*
X101005183Y-69594816D01*
X101005183Y-69594816D02*
X101005183Y-73496434D01*
X98640183Y-73631434D02*
X98640183Y-72696434D01*
X101005183Y-73496434D02*
X100558583Y-73943034D01*
%TO.N,/QSPI_SD0*%
X101010183Y-68396434D02*
X103317683Y-68396434D01*
X99910183Y-67296434D02*
X101010183Y-68396434D01*
%TO.N,GND*%
X101850000Y-63450000D02*
X102796434Y-64396434D01*
D10*
X107980000Y-59640000D02*
X107300000Y-59640000D01*
D47*
X95996434Y-53146434D02*
X94055183Y-53146434D01*
D45*
X106860000Y-57060000D02*
X106860000Y-56980000D01*
D10*
X107300000Y-59640000D02*
X106930000Y-60010000D01*
D45*
X112035183Y-60864817D02*
X112035183Y-60726434D01*
X99700000Y-62535000D02*
X99750000Y-62585000D01*
X113250000Y-65852164D02*
X113327836Y-65930000D01*
D48*
X99910183Y-72696434D02*
X99910183Y-71901434D01*
D45*
X101850000Y-62050000D02*
X101850000Y-63450000D01*
D47*
X97923566Y-55026434D02*
X97900000Y-55050000D01*
D45*
X114235183Y-62426434D02*
X112535183Y-60726434D01*
D48*
X99910183Y-71901434D02*
X98005183Y-69996434D01*
D45*
X109005183Y-59616434D02*
X110005183Y-59616434D01*
X100805183Y-54186434D02*
X100805183Y-54356434D01*
X93117683Y-57208934D02*
X92980183Y-57071434D01*
D10*
X103020000Y-60850000D02*
X101780000Y-60850000D01*
D45*
X99750000Y-62585000D02*
X100685000Y-62585000D01*
X102796434Y-64396434D02*
X103317683Y-64396434D01*
X114365183Y-62556434D02*
X114235183Y-62426434D01*
X112430000Y-64160000D02*
X113250000Y-64980000D01*
D10*
X114180000Y-68250000D02*
X115180000Y-67250000D01*
X103020000Y-60850000D02*
X103020000Y-59830000D01*
D45*
X98500000Y-62535000D02*
X99700000Y-62535000D01*
X100685000Y-62585000D02*
X100700000Y-62600000D01*
X106305183Y-56425183D02*
X106305183Y-54186434D01*
X106860000Y-56980000D02*
X106305183Y-56425183D01*
X114365183Y-63956434D02*
X114365183Y-62556434D01*
D47*
X97900000Y-55050000D02*
X95996434Y-53146434D01*
D45*
X101850000Y-60920000D02*
X101780000Y-60850000D01*
X101780000Y-60850000D02*
X101880000Y-60750000D01*
D47*
X92600000Y-63100000D02*
X92600000Y-65000000D01*
D45*
X111730000Y-60421251D02*
X112035183Y-60726434D01*
D47*
X100135183Y-55026434D02*
X97923566Y-55026434D01*
D45*
X112535183Y-60726434D02*
X112035183Y-60726434D01*
X112400000Y-64160000D02*
X112430000Y-64160000D01*
D10*
X109256434Y-61646434D02*
X109260000Y-61650000D01*
X108360000Y-61646434D02*
X109256434Y-61646434D01*
X113510000Y-68250000D02*
X114180000Y-68250000D01*
X103020000Y-59830000D02*
X103010000Y-59820000D01*
D47*
X100135183Y-55026434D02*
X100523566Y-55026434D01*
D45*
X92980183Y-57071434D02*
X92980183Y-54221434D01*
D10*
X103304724Y-72274724D02*
X103740000Y-71839448D01*
D45*
X113250000Y-64980000D02*
X113250000Y-65852164D01*
X108005183Y-59616434D02*
X109005183Y-59616434D01*
D47*
X97630183Y-57546434D02*
X98880183Y-57546434D01*
X100523566Y-55026434D02*
X100787183Y-54762817D01*
D45*
X92980183Y-54221434D02*
X94055183Y-53146434D01*
D10*
X103020000Y-60850000D02*
X103020000Y-62000000D01*
D47*
X100787183Y-54762817D02*
X100787183Y-54284878D01*
D10*
X103740000Y-71839448D02*
X103740000Y-71480000D01*
%TD*%
%TA.AperFunction,Conductor*%
%TO.N,+3.3V*%
G36*
X93133631Y-52666619D02*
G01*
X93179386Y-52719423D01*
X93189330Y-52788581D01*
X93189065Y-52790332D01*
X93177283Y-52864720D01*
X93177283Y-53428147D01*
X93192225Y-53522487D01*
X93192226Y-53522491D01*
X93206312Y-53550136D01*
X93219208Y-53618805D01*
X93192931Y-53683545D01*
X93183508Y-53694111D01*
X92785963Y-54091656D01*
X92785960Y-54091661D01*
X92777116Y-54113014D01*
X92777115Y-54113016D01*
X92751083Y-54175861D01*
X92751083Y-56402107D01*
X92731398Y-56469146D01*
X92678594Y-56514901D01*
X92609436Y-56524845D01*
X92545880Y-56495820D01*
X92539402Y-56489788D01*
X92491830Y-56442216D01*
X92491828Y-56442214D01*
X92409889Y-56406034D01*
X92388234Y-56396472D01*
X92362910Y-56393534D01*
X92362909Y-56393534D01*
X91972457Y-56393534D01*
X91972455Y-56393534D01*
X91947132Y-56396472D01*
X91947130Y-56396472D01*
X91843542Y-56442212D01*
X91843540Y-56442213D01*
X91843538Y-56442214D01*
X91843537Y-56442214D01*
X91843535Y-56442216D01*
X91763465Y-56522286D01*
X91763461Y-56522293D01*
X91717721Y-56625881D01*
X91717721Y-56625883D01*
X91714783Y-56651206D01*
X91714783Y-57766661D01*
X91717721Y-57791984D01*
X91717721Y-57791986D01*
X91746157Y-57856386D01*
X91763463Y-57895579D01*
X91763465Y-57895581D01*
X91851663Y-57983779D01*
X91849226Y-57986215D01*
X91881065Y-58025217D01*
X91886581Y-58041300D01*
X91906856Y-58116966D01*
X91906858Y-58116971D01*
X91932681Y-58161699D01*
X91943706Y-58180794D01*
X91943708Y-58180797D01*
X92219764Y-58456853D01*
X92253249Y-58518176D01*
X92248265Y-58587868D01*
X92206393Y-58643801D01*
X92140929Y-58668218D01*
X92132083Y-58668534D01*
X91972455Y-58668534D01*
X91947132Y-58671472D01*
X91947130Y-58671472D01*
X91843542Y-58717212D01*
X91843540Y-58717213D01*
X91843538Y-58717214D01*
X91843537Y-58717214D01*
X91843535Y-58717216D01*
X91763465Y-58797286D01*
X91763461Y-58797293D01*
X91717721Y-58900881D01*
X91717721Y-58900883D01*
X91714783Y-58926206D01*
X91714783Y-60041661D01*
X91717721Y-60066984D01*
X91717721Y-60066986D01*
X91751521Y-60143534D01*
X91763463Y-60170579D01*
X91843538Y-60250654D01*
X91947133Y-60296396D01*
X91972457Y-60299334D01*
X91972458Y-60299334D01*
X92362908Y-60299334D01*
X92362909Y-60299334D01*
X92388233Y-60296396D01*
X92491828Y-60250654D01*
X92571903Y-60170579D01*
X92617645Y-60066984D01*
X92620583Y-60041660D01*
X92620583Y-58926208D01*
X92617645Y-58900884D01*
X92595362Y-58850420D01*
X92586291Y-58781143D01*
X92616114Y-58717958D01*
X92675363Y-58680926D01*
X92708797Y-58676334D01*
X93742031Y-58676334D01*
X93742033Y-58676334D01*
X93813220Y-58657259D01*
X93877045Y-58620410D01*
X94291659Y-58205797D01*
X94328508Y-58141972D01*
X94330669Y-58133905D01*
X94335325Y-58116533D01*
X94341487Y-58093534D01*
X94347583Y-58070784D01*
X94347583Y-58070776D01*
X94348644Y-58062725D01*
X94350035Y-58062908D01*
X94367268Y-58004222D01*
X94383902Y-57983580D01*
X94419518Y-57947964D01*
X94471903Y-57895579D01*
X94517645Y-57791984D01*
X94520583Y-57766660D01*
X94520583Y-57203234D01*
X94540268Y-57136195D01*
X94556902Y-57115553D01*
X95109802Y-56562653D01*
X95171125Y-56529168D01*
X95197483Y-56526334D01*
X98251575Y-56526334D01*
X98318614Y-56546019D01*
X98351404Y-56580408D01*
X98352622Y-56579474D01*
X98357568Y-56585920D01*
X98357570Y-56585923D01*
X98460511Y-56688864D01*
X98460512Y-56688865D01*
X98460514Y-56688866D01*
X98537460Y-56733291D01*
X98585676Y-56783858D01*
X98598899Y-56852465D01*
X98572931Y-56917330D01*
X98529921Y-56952078D01*
X98472283Y-56980255D01*
X98389005Y-57063533D01*
X98337275Y-57169348D01*
X98334434Y-57178546D01*
X98330782Y-57177417D01*
X98324088Y-57191982D01*
X98309587Y-57223737D01*
X98309457Y-57223820D01*
X98309393Y-57223960D01*
X98280230Y-57242603D01*
X98250809Y-57261511D01*
X98250608Y-57261539D01*
X98250524Y-57261594D01*
X98215874Y-57266534D01*
X98178608Y-57266534D01*
X98111569Y-57246849D01*
X98078778Y-57212459D01*
X98077561Y-57213394D01*
X98072615Y-57206948D01*
X98072613Y-57206945D01*
X97969672Y-57104004D01*
X97969671Y-57104003D01*
X97969668Y-57104001D01*
X97843596Y-57031214D01*
X97843595Y-57031213D01*
X97843594Y-57031213D01*
X97702974Y-56993534D01*
X97557392Y-56993534D01*
X97416772Y-57031213D01*
X97416770Y-57031214D01*
X97416769Y-57031214D01*
X97290697Y-57104001D01*
X97290692Y-57104005D01*
X97187754Y-57206943D01*
X97187750Y-57206948D01*
X97114963Y-57333020D01*
X97114963Y-57333021D01*
X97114962Y-57333023D01*
X97077283Y-57473643D01*
X97077283Y-57619225D01*
X97114962Y-57759845D01*
X97114963Y-57759846D01*
X97114963Y-57759847D01*
X97187750Y-57885919D01*
X97187752Y-57885922D01*
X97187753Y-57885923D01*
X97290694Y-57988864D01*
X97290695Y-57988865D01*
X97290697Y-57988866D01*
X97317295Y-58004222D01*
X97416772Y-58061655D01*
X97557392Y-58099334D01*
X97557394Y-58099334D01*
X97702971Y-58099334D01*
X97702974Y-58099334D01*
X97843594Y-58061655D01*
X97969672Y-57988864D01*
X98072613Y-57885923D01*
X98072617Y-57885915D01*
X98077561Y-57879474D01*
X98079196Y-57880729D01*
X98079908Y-57880050D01*
X98084895Y-57869131D01*
X98104726Y-57856386D01*
X98121788Y-57840118D01*
X98135044Y-57836902D01*
X98143673Y-57831357D01*
X98178608Y-57826334D01*
X98215874Y-57826334D01*
X98282913Y-57846019D01*
X98328668Y-57898823D01*
X98333338Y-57914660D01*
X98334434Y-57914322D01*
X98337275Y-57923519D01*
X98389005Y-58029334D01*
X98472282Y-58112611D01*
X98472283Y-58112611D01*
X98472285Y-58112613D01*
X98572693Y-58161699D01*
X98624276Y-58208827D01*
X98642190Y-58276361D01*
X98620749Y-58342860D01*
X98566760Y-58387210D01*
X98518233Y-58397100D01*
X97050307Y-58397100D01*
X97050305Y-58397099D01*
X96949695Y-58397099D01*
X96887824Y-58422727D01*
X96874145Y-58428392D01*
X96874144Y-58428393D01*
X96856743Y-58435600D01*
X94499153Y-60793190D01*
X94499146Y-60793198D01*
X94488746Y-60803599D01*
X94488743Y-60803601D01*
X94417601Y-60874743D01*
X94399520Y-60918396D01*
X94393449Y-60933051D01*
X94393448Y-60933053D01*
X94379099Y-60967695D01*
X94379099Y-61082738D01*
X94379100Y-61082747D01*
X94379100Y-64691692D01*
X94379099Y-64691695D01*
X94379099Y-64792305D01*
X94392813Y-64825413D01*
X94399310Y-64841099D01*
X94399311Y-64841104D01*
X94417598Y-64885254D01*
X94498947Y-64966603D01*
X94498956Y-64966610D01*
X95215600Y-65683255D01*
X95215601Y-65683257D01*
X95286743Y-65754399D01*
X95327653Y-65771344D01*
X95364774Y-65786720D01*
X95379692Y-65792900D01*
X95379693Y-65792900D01*
X95379695Y-65792901D01*
X95379696Y-65792901D01*
X95494739Y-65792901D01*
X95494747Y-65792900D01*
X98043100Y-65792900D01*
X98110139Y-65812585D01*
X98155894Y-65865389D01*
X98162181Y-65882321D01*
X98167100Y-65899260D01*
X98167100Y-65927984D01*
X98169893Y-65952057D01*
X98206515Y-66034999D01*
X98208821Y-66042939D01*
X98208740Y-66069937D01*
X98212246Y-66096710D01*
X98208637Y-66104355D01*
X98208612Y-66112809D01*
X98193948Y-66135477D01*
X98182423Y-66159895D01*
X98177421Y-66165199D01*
X97610404Y-66732215D01*
X97549081Y-66765700D01*
X97522723Y-66768534D01*
X97203694Y-66768534D01*
X97203685Y-66768535D01*
X97180454Y-66771229D01*
X97180453Y-66771229D01*
X97085409Y-66813196D01*
X97011946Y-66886659D01*
X96969979Y-66981703D01*
X96969978Y-66981706D01*
X96967283Y-67004933D01*
X96967283Y-67587922D01*
X96967284Y-67587931D01*
X96969978Y-67611162D01*
X96969978Y-67611163D01*
X97011945Y-67706207D01*
X97085408Y-67779670D01*
X97085409Y-67779670D01*
X97085411Y-67779672D01*
X97180455Y-67821639D01*
X97203686Y-67824334D01*
X97536679Y-67824333D01*
X97559911Y-67821639D01*
X97654955Y-67779672D01*
X97728421Y-67706206D01*
X97770388Y-67611162D01*
X97773083Y-67587931D01*
X97773082Y-67268891D01*
X97792766Y-67201853D01*
X97809396Y-67181216D01*
X98025604Y-66965008D01*
X98086925Y-66931525D01*
X98156617Y-66936509D01*
X98212550Y-66978381D01*
X98236967Y-67043845D01*
X98237283Y-67052691D01*
X98237283Y-67587922D01*
X98237284Y-67587931D01*
X98239978Y-67611162D01*
X98239978Y-67611163D01*
X98281945Y-67706207D01*
X98355408Y-67779670D01*
X98355409Y-67779670D01*
X98355411Y-67779672D01*
X98450455Y-67821639D01*
X98473686Y-67824334D01*
X98806679Y-67824333D01*
X98829911Y-67821639D01*
X98924955Y-67779672D01*
X98998421Y-67706206D01*
X99040388Y-67611162D01*
X99043083Y-67587931D01*
X99043082Y-67268891D01*
X99062766Y-67201853D01*
X99079396Y-67181216D01*
X99295604Y-66965008D01*
X99356925Y-66931525D01*
X99426617Y-66936509D01*
X99482550Y-66978381D01*
X99506967Y-67043845D01*
X99507283Y-67052691D01*
X99507283Y-67587922D01*
X99507284Y-67587931D01*
X99509978Y-67611162D01*
X99509978Y-67611163D01*
X99551945Y-67706207D01*
X99625408Y-67779670D01*
X99625409Y-67779670D01*
X99625411Y-67779672D01*
X99720455Y-67821639D01*
X99743686Y-67824334D01*
X100062723Y-67824333D01*
X100092169Y-67832979D01*
X100122150Y-67839501D01*
X100127163Y-67843253D01*
X100129762Y-67844017D01*
X100150404Y-67860652D01*
X100221605Y-67931853D01*
X100255090Y-67993176D01*
X100250106Y-68062868D01*
X100208234Y-68118801D01*
X100142770Y-68143218D01*
X100133924Y-68143534D01*
X95840128Y-68143534D01*
X95795524Y-68152406D01*
X95795521Y-68152407D01*
X95744949Y-68186199D01*
X95711154Y-68236777D01*
X95711153Y-68236779D01*
X95702283Y-68281374D01*
X95702283Y-71675175D01*
X95682598Y-71742214D01*
X95629794Y-71787969D01*
X95560636Y-71797913D01*
X95497080Y-71768888D01*
X95490602Y-71762856D01*
X95165419Y-71437673D01*
X95131934Y-71376350D01*
X95129100Y-71349992D01*
X95129100Y-68731085D01*
X95139665Y-68681000D01*
X95170107Y-68612057D01*
X95172900Y-68587984D01*
X95172900Y-68232016D01*
X95170107Y-68207943D01*
X95165092Y-68196586D01*
X95152037Y-68167018D01*
X95126631Y-68109479D01*
X95050521Y-68033369D01*
X94952058Y-67989893D01*
X94927985Y-67987100D01*
X94927984Y-67987100D01*
X94472016Y-67987100D01*
X94472014Y-67987100D01*
X94447942Y-67989893D01*
X94447940Y-67989893D01*
X94349478Y-68033369D01*
X94273369Y-68109478D01*
X94229893Y-68207940D01*
X94229893Y-68207942D01*
X94227333Y-68230011D01*
X94227100Y-68232016D01*
X94227100Y-68587984D01*
X94229893Y-68612057D01*
X94273369Y-68710521D01*
X94349479Y-68786631D01*
X94447943Y-68830107D01*
X94472016Y-68832900D01*
X94546900Y-68832900D01*
X94613939Y-68852585D01*
X94659694Y-68905389D01*
X94670900Y-68956900D01*
X94670900Y-71541819D01*
X94670901Y-71541824D01*
X94705775Y-71626020D01*
X94705776Y-71626022D01*
X94705778Y-71626026D01*
X94705780Y-71626028D01*
X95660964Y-72581212D01*
X95694449Y-72642535D01*
X95697283Y-72668893D01*
X95697283Y-72987922D01*
X95697284Y-72987931D01*
X95699978Y-73011162D01*
X95699978Y-73011163D01*
X95741945Y-73106207D01*
X95815407Y-73179669D01*
X95817153Y-73180865D01*
X95819598Y-73183860D01*
X95823535Y-73187797D01*
X95823137Y-73188194D01*
X95861340Y-73234988D01*
X95871083Y-73283169D01*
X95871083Y-73660954D01*
X95851398Y-73727993D01*
X95836998Y-73746343D01*
X95819892Y-73764355D01*
X95799479Y-73773369D01*
X95723369Y-73849479D01*
X95709738Y-73880348D01*
X95694915Y-73895958D01*
X95682561Y-73903123D01*
X95673347Y-73914032D01*
X95652942Y-73920303D01*
X95634477Y-73931014D01*
X95620211Y-73930363D01*
X95606561Y-73934559D01*
X95586005Y-73928803D01*
X95564680Y-73927831D01*
X95553029Y-73919570D01*
X95539279Y-73915720D01*
X95525098Y-73899764D01*
X95507684Y-73887417D01*
X95502349Y-73874169D01*
X95492863Y-73863496D01*
X95491566Y-73860656D01*
X95486631Y-73849479D01*
X95410521Y-73773369D01*
X95399143Y-73768345D01*
X95312058Y-73729893D01*
X95287985Y-73727100D01*
X95287984Y-73727100D01*
X94932016Y-73727100D01*
X94932014Y-73727100D01*
X94907942Y-73729893D01*
X94907940Y-73729893D01*
X94809478Y-73773369D01*
X94733369Y-73849478D01*
X94713434Y-73894627D01*
X94668348Y-73948003D01*
X94601561Y-73968530D01*
X94534279Y-73949691D01*
X94487863Y-73897468D01*
X94486566Y-73894627D01*
X94477533Y-73874169D01*
X94466631Y-73849479D01*
X94390521Y-73773369D01*
X94379143Y-73768345D01*
X94292058Y-73729893D01*
X94267985Y-73727100D01*
X94267984Y-73727100D01*
X93912016Y-73727100D01*
X93912014Y-73727100D01*
X93887942Y-73729893D01*
X93887940Y-73729893D01*
X93789478Y-73773369D01*
X93713369Y-73849478D01*
X93669893Y-73947940D01*
X93669893Y-73947942D01*
X93667100Y-73972014D01*
X93667100Y-74427985D01*
X93669893Y-74452057D01*
X93669893Y-74452059D01*
X93708434Y-74539345D01*
X93713369Y-74550521D01*
X93789479Y-74626631D01*
X93789481Y-74626632D01*
X93798962Y-74633127D01*
X93797868Y-74634723D01*
X93840360Y-74670613D01*
X93860890Y-74737399D01*
X93860900Y-74738965D01*
X93860900Y-75263740D01*
X93841215Y-75330779D01*
X93824581Y-75351421D01*
X93346534Y-75829467D01*
X93285211Y-75862952D01*
X93226760Y-75861561D01*
X93172791Y-75847100D01*
X93027209Y-75847100D01*
X92886589Y-75884779D01*
X92886587Y-75884780D01*
X92886586Y-75884780D01*
X92760514Y-75957567D01*
X92760509Y-75957571D01*
X92657571Y-76060509D01*
X92657567Y-76060514D01*
X92584780Y-76186586D01*
X92584780Y-76186587D01*
X92584779Y-76186589D01*
X92547100Y-76327209D01*
X92547100Y-76327211D01*
X92547100Y-76472792D01*
X92561561Y-76526762D01*
X92559898Y-76596611D01*
X92529467Y-76646535D01*
X91930960Y-77245042D01*
X91917720Y-77277007D01*
X91909964Y-77295734D01*
X91909964Y-77295735D01*
X91896083Y-77329244D01*
X91896083Y-78082861D01*
X91876398Y-78149900D01*
X91823594Y-78195655D01*
X91791482Y-78205334D01*
X91749131Y-78212041D01*
X91635410Y-78269985D01*
X91635406Y-78269988D01*
X91545171Y-78360223D01*
X91545168Y-78360227D01*
X91487224Y-78473949D01*
X91472283Y-78568286D01*
X91472283Y-80631713D01*
X91487224Y-80726050D01*
X91487225Y-80726053D01*
X91487226Y-80726055D01*
X91545167Y-80839771D01*
X91545168Y-80839772D01*
X91545171Y-80839776D01*
X91635406Y-80930011D01*
X91635410Y-80930014D01*
X91635412Y-80930016D01*
X91749128Y-80987957D01*
X91749130Y-80987957D01*
X91749132Y-80987958D01*
X91843470Y-81002900D01*
X91843475Y-81002900D01*
X92406896Y-81002900D01*
X92501233Y-80987958D01*
X92501233Y-80987957D01*
X92501238Y-80987957D01*
X92614954Y-80930016D01*
X92705199Y-80839771D01*
X92763140Y-80726055D01*
X92763141Y-80726050D01*
X92778083Y-80631713D01*
X92778083Y-78568286D01*
X94012283Y-78568286D01*
X94012283Y-80631713D01*
X94027224Y-80726050D01*
X94027225Y-80726053D01*
X94027226Y-80726055D01*
X94085167Y-80839771D01*
X94085168Y-80839772D01*
X94085171Y-80839776D01*
X94175406Y-80930011D01*
X94175410Y-80930014D01*
X94175412Y-80930016D01*
X94289128Y-80987957D01*
X94289130Y-80987957D01*
X94289132Y-80987958D01*
X94383470Y-81002900D01*
X94383475Y-81002900D01*
X94946896Y-81002900D01*
X95041233Y-80987958D01*
X95041233Y-80987957D01*
X95041238Y-80987957D01*
X95154954Y-80930016D01*
X95245199Y-80839771D01*
X95303140Y-80726055D01*
X95303141Y-80726050D01*
X95318083Y-80631713D01*
X95318083Y-78568286D01*
X95303141Y-78473949D01*
X95303140Y-78473947D01*
X95303140Y-78473945D01*
X95245199Y-78360229D01*
X95245197Y-78360227D01*
X95245194Y-78360223D01*
X95154959Y-78269988D01*
X95154955Y-78269985D01*
X95154954Y-78269984D01*
X95041238Y-78212043D01*
X95041237Y-78212042D01*
X95041234Y-78212041D01*
X94998884Y-78205334D01*
X94935750Y-78175404D01*
X94898819Y-78116093D01*
X94894283Y-78082861D01*
X94894283Y-76832692D01*
X94913968Y-76765653D01*
X94930602Y-76745011D01*
X95960360Y-75715253D01*
X96021683Y-75681768D01*
X96048041Y-75678934D01*
X97806124Y-75678934D01*
X97873163Y-75698619D01*
X97918918Y-75751423D01*
X97928862Y-75820581D01*
X97899837Y-75884137D01*
X97893805Y-75890615D01*
X97010961Y-76773457D01*
X97003282Y-76791999D01*
X97003280Y-76792004D01*
X96976083Y-76857660D01*
X96976083Y-78082861D01*
X96956398Y-78149900D01*
X96903594Y-78195655D01*
X96871482Y-78205334D01*
X96829131Y-78212041D01*
X96715410Y-78269985D01*
X96715406Y-78269988D01*
X96625171Y-78360223D01*
X96625168Y-78360227D01*
X96567224Y-78473949D01*
X96552283Y-78568286D01*
X96552283Y-80631713D01*
X96567224Y-80726050D01*
X96567225Y-80726053D01*
X96567226Y-80726055D01*
X96625167Y-80839771D01*
X96625168Y-80839772D01*
X96625171Y-80839776D01*
X96715406Y-80930011D01*
X96715410Y-80930014D01*
X96715412Y-80930016D01*
X96829128Y-80987957D01*
X96829130Y-80987957D01*
X96829132Y-80987958D01*
X96923470Y-81002900D01*
X96923475Y-81002900D01*
X97486896Y-81002900D01*
X97581233Y-80987958D01*
X97581233Y-80987957D01*
X97581238Y-80987957D01*
X97694954Y-80930016D01*
X97785199Y-80839771D01*
X97843140Y-80726055D01*
X97843141Y-80726050D01*
X97858083Y-80631713D01*
X97858083Y-78568286D01*
X97843141Y-78473949D01*
X97843140Y-78473947D01*
X97843140Y-78473945D01*
X97785199Y-78360229D01*
X97785197Y-78360227D01*
X97785194Y-78360223D01*
X97694959Y-78269988D01*
X97694955Y-78269985D01*
X97694954Y-78269984D01*
X97581238Y-78212043D01*
X97581237Y-78212042D01*
X97581234Y-78212041D01*
X97538884Y-78205334D01*
X97475750Y-78175404D01*
X97438819Y-78116093D01*
X97434283Y-78082861D01*
X97434283Y-77049493D01*
X97453968Y-76982454D01*
X97470602Y-76961812D01*
X98363761Y-76068653D01*
X98425084Y-76035168D01*
X98451442Y-76032334D01*
X100156125Y-76032334D01*
X100223164Y-76052019D01*
X100268919Y-76104823D01*
X100278863Y-76173981D01*
X100249838Y-76237537D01*
X100243806Y-76244015D01*
X99550961Y-76936857D01*
X99550961Y-76936858D01*
X99544317Y-76952899D01*
X99544317Y-76952900D01*
X99516083Y-77021061D01*
X99516083Y-78082861D01*
X99496398Y-78149900D01*
X99443594Y-78195655D01*
X99411482Y-78205334D01*
X99369131Y-78212041D01*
X99255410Y-78269985D01*
X99255406Y-78269988D01*
X99165171Y-78360223D01*
X99165168Y-78360227D01*
X99107224Y-78473949D01*
X99092283Y-78568286D01*
X99092283Y-80631713D01*
X99107224Y-80726050D01*
X99107225Y-80726053D01*
X99107226Y-80726055D01*
X99165167Y-80839771D01*
X99165168Y-80839772D01*
X99165171Y-80839776D01*
X99255406Y-80930011D01*
X99255410Y-80930014D01*
X99255412Y-80930016D01*
X99369128Y-80987957D01*
X99369130Y-80987957D01*
X99369132Y-80987958D01*
X99463470Y-81002900D01*
X99463475Y-81002900D01*
X100026896Y-81002900D01*
X100121233Y-80987958D01*
X100121233Y-80987957D01*
X100121238Y-80987957D01*
X100234954Y-80930016D01*
X100325199Y-80839771D01*
X100383140Y-80726055D01*
X100383141Y-80726050D01*
X100398083Y-80631713D01*
X100398083Y-78568286D01*
X100383141Y-78473949D01*
X100383140Y-78473947D01*
X100383140Y-78473945D01*
X100325199Y-78360229D01*
X100325197Y-78360227D01*
X100325194Y-78360223D01*
X100234959Y-78269988D01*
X100234955Y-78269985D01*
X100234954Y-78269984D01*
X100121238Y-78212043D01*
X100121237Y-78212042D01*
X100121234Y-78212041D01*
X100078884Y-78205334D01*
X100015750Y-78175404D01*
X99978819Y-78116093D01*
X99974283Y-78082861D01*
X99974283Y-77212892D01*
X99993968Y-77145853D01*
X100010602Y-77125211D01*
X100713760Y-76422053D01*
X100775083Y-76388568D01*
X100801441Y-76385734D01*
X102917523Y-76385734D01*
X102984562Y-76405419D01*
X103030317Y-76458223D01*
X103040261Y-76527381D01*
X103011236Y-76590937D01*
X103005204Y-76597415D01*
X102090963Y-77511656D01*
X102090958Y-77511664D01*
X102067194Y-77569038D01*
X102067193Y-77569040D01*
X102056084Y-77595858D01*
X102056083Y-77595864D01*
X102056083Y-78082861D01*
X102036398Y-78149900D01*
X101983594Y-78195655D01*
X101951482Y-78205334D01*
X101909131Y-78212041D01*
X101795410Y-78269985D01*
X101795406Y-78269988D01*
X101705171Y-78360223D01*
X101705168Y-78360227D01*
X101647224Y-78473949D01*
X101632283Y-78568286D01*
X101632283Y-80631713D01*
X101647224Y-80726050D01*
X101647225Y-80726053D01*
X101647226Y-80726055D01*
X101705167Y-80839771D01*
X101705168Y-80839772D01*
X101705171Y-80839776D01*
X101795406Y-80930011D01*
X101795410Y-80930014D01*
X101795412Y-80930016D01*
X101909128Y-80987957D01*
X101909130Y-80987957D01*
X101909132Y-80987958D01*
X102003470Y-81002900D01*
X102003475Y-81002900D01*
X102566896Y-81002900D01*
X102661233Y-80987958D01*
X102661233Y-80987957D01*
X102661238Y-80987957D01*
X102774954Y-80930016D01*
X102865199Y-80839771D01*
X102923140Y-80726055D01*
X102923141Y-80726050D01*
X102938083Y-80631713D01*
X102938083Y-78568286D01*
X102923141Y-78473949D01*
X102923140Y-78473947D01*
X102923140Y-78473945D01*
X102865199Y-78360229D01*
X102865197Y-78360227D01*
X102865194Y-78360223D01*
X102774959Y-78269988D01*
X102774955Y-78269985D01*
X102774954Y-78269984D01*
X102661238Y-78212043D01*
X102661237Y-78212042D01*
X102661234Y-78212041D01*
X102618884Y-78205334D01*
X102555750Y-78175404D01*
X102518819Y-78116093D01*
X102514283Y-78082861D01*
X102514283Y-77787693D01*
X102533968Y-77720654D01*
X102550602Y-77700012D01*
X104384402Y-75866212D01*
X104445725Y-75832727D01*
X104515417Y-75837711D01*
X104571350Y-75879583D01*
X104595767Y-75945047D01*
X104596083Y-75953893D01*
X104596083Y-78082861D01*
X104576398Y-78149900D01*
X104523594Y-78195655D01*
X104491482Y-78205334D01*
X104449131Y-78212041D01*
X104335410Y-78269985D01*
X104335406Y-78269988D01*
X104245171Y-78360223D01*
X104245168Y-78360227D01*
X104187224Y-78473949D01*
X104172283Y-78568286D01*
X104172283Y-80631713D01*
X104187224Y-80726050D01*
X104187225Y-80726053D01*
X104187226Y-80726055D01*
X104245167Y-80839771D01*
X104245168Y-80839772D01*
X104245171Y-80839776D01*
X104335406Y-80930011D01*
X104335410Y-80930014D01*
X104335412Y-80930016D01*
X104449128Y-80987957D01*
X104449130Y-80987957D01*
X104449132Y-80987958D01*
X104543470Y-81002900D01*
X104543475Y-81002900D01*
X105106896Y-81002900D01*
X105201233Y-80987958D01*
X105201233Y-80987957D01*
X105201238Y-80987957D01*
X105314954Y-80930016D01*
X105405199Y-80839771D01*
X105463140Y-80726055D01*
X105463141Y-80726050D01*
X105478083Y-80631713D01*
X105478083Y-78568286D01*
X105463141Y-78473949D01*
X105463140Y-78473947D01*
X105463140Y-78473945D01*
X105405199Y-78360229D01*
X105405197Y-78360227D01*
X105405194Y-78360223D01*
X105314959Y-78269988D01*
X105314955Y-78269985D01*
X105314954Y-78269984D01*
X105201238Y-78212043D01*
X105201237Y-78212042D01*
X105201234Y-78212041D01*
X105158884Y-78205334D01*
X105095750Y-78175404D01*
X105058819Y-78116093D01*
X105054283Y-78082861D01*
X105054283Y-75922477D01*
X105073968Y-75855438D01*
X105090602Y-75834796D01*
X106714402Y-74210996D01*
X106775725Y-74177511D01*
X106845417Y-74182495D01*
X106901350Y-74224367D01*
X106925767Y-74289831D01*
X106926083Y-74298677D01*
X106926083Y-78169987D01*
X106906398Y-78237026D01*
X106882043Y-78262814D01*
X106882312Y-78263083D01*
X106785171Y-78360223D01*
X106785168Y-78360227D01*
X106727224Y-78473949D01*
X106712283Y-78568286D01*
X106712283Y-80631713D01*
X106727224Y-80726050D01*
X106727225Y-80726053D01*
X106727226Y-80726055D01*
X106785167Y-80839771D01*
X106785168Y-80839772D01*
X106785171Y-80839776D01*
X106875406Y-80930011D01*
X106875410Y-80930014D01*
X106875412Y-80930016D01*
X106989128Y-80987957D01*
X106989130Y-80987957D01*
X106989132Y-80987958D01*
X107083470Y-81002900D01*
X107083475Y-81002900D01*
X107646896Y-81002900D01*
X107741233Y-80987958D01*
X107741233Y-80987957D01*
X107741238Y-80987957D01*
X107854954Y-80930016D01*
X107945199Y-80839771D01*
X108003140Y-80726055D01*
X108003141Y-80726050D01*
X108018083Y-80631713D01*
X108018083Y-78568286D01*
X108003141Y-78473949D01*
X108003140Y-78473947D01*
X108003140Y-78473945D01*
X107945199Y-78360229D01*
X107945197Y-78360227D01*
X107945194Y-78360223D01*
X107854959Y-78269988D01*
X107854955Y-78269985D01*
X107854954Y-78269984D01*
X107741238Y-78212043D01*
X107741236Y-78212042D01*
X107741233Y-78212041D01*
X107646896Y-78197100D01*
X107646891Y-78197100D01*
X107508283Y-78197100D01*
X107441244Y-78177415D01*
X107395489Y-78124611D01*
X107384283Y-78073100D01*
X107384283Y-74848893D01*
X107403968Y-74781854D01*
X107456772Y-74736099D01*
X107525930Y-74726155D01*
X107589486Y-74755180D01*
X107595964Y-74761212D01*
X109639764Y-76805012D01*
X109673249Y-76866335D01*
X109676083Y-76892693D01*
X109676083Y-78082861D01*
X109656398Y-78149900D01*
X109603594Y-78195655D01*
X109571482Y-78205334D01*
X109529131Y-78212041D01*
X109415410Y-78269985D01*
X109415406Y-78269988D01*
X109325171Y-78360223D01*
X109325168Y-78360227D01*
X109267224Y-78473949D01*
X109252283Y-78568286D01*
X109252283Y-80631713D01*
X109267224Y-80726050D01*
X109267225Y-80726053D01*
X109267226Y-80726055D01*
X109325167Y-80839771D01*
X109325168Y-80839772D01*
X109325171Y-80839776D01*
X109415406Y-80930011D01*
X109415410Y-80930014D01*
X109415412Y-80930016D01*
X109529128Y-80987957D01*
X109529130Y-80987957D01*
X109529132Y-80987958D01*
X109623470Y-81002900D01*
X109623475Y-81002900D01*
X110186896Y-81002900D01*
X110281233Y-80987958D01*
X110281233Y-80987957D01*
X110281238Y-80987957D01*
X110394954Y-80930016D01*
X110485199Y-80839771D01*
X110543140Y-80726055D01*
X110543141Y-80726050D01*
X110558083Y-80631713D01*
X110558083Y-78568286D01*
X110543141Y-78473949D01*
X110543140Y-78473947D01*
X110543140Y-78473945D01*
X110485199Y-78360229D01*
X110485197Y-78360227D01*
X110485194Y-78360223D01*
X110394959Y-78269988D01*
X110394955Y-78269985D01*
X110394954Y-78269984D01*
X110281238Y-78212043D01*
X110281237Y-78212042D01*
X110281234Y-78212041D01*
X110238884Y-78205334D01*
X110175750Y-78175404D01*
X110138819Y-78116093D01*
X110134283Y-78082861D01*
X110134283Y-76700864D01*
X110134283Y-76700863D01*
X110117714Y-76660863D01*
X110099405Y-76616659D01*
X107820602Y-74337856D01*
X107787117Y-74276533D01*
X107784283Y-74250175D01*
X107784283Y-70754304D01*
X107793723Y-70706848D01*
X107796306Y-70700609D01*
X107796311Y-70700602D01*
X107808083Y-70641418D01*
X107808083Y-69826450D01*
X108102283Y-69826450D01*
X108102283Y-70641418D01*
X108114055Y-70700602D01*
X108158900Y-70767717D01*
X108226015Y-70812562D01*
X108285199Y-70824334D01*
X108285200Y-70824334D01*
X108402083Y-70824334D01*
X108469122Y-70844019D01*
X108514877Y-70896823D01*
X108526083Y-70948334D01*
X108526083Y-71354778D01*
X108506398Y-71421817D01*
X108482947Y-71447311D01*
X108483162Y-71447526D01*
X108478016Y-71452671D01*
X108477580Y-71453146D01*
X108477416Y-71453271D01*
X108393094Y-71537593D01*
X108393092Y-71537596D01*
X108333466Y-71640868D01*
X108310692Y-71725864D01*
X108302602Y-71756058D01*
X108302602Y-71875308D01*
X108316625Y-71927642D01*
X108333466Y-71990497D01*
X108348505Y-72016544D01*
X108393092Y-72093770D01*
X108477415Y-72178093D01*
X108580689Y-72237719D01*
X108695877Y-72268583D01*
X108695879Y-72268583D01*
X108815125Y-72268583D01*
X108815127Y-72268583D01*
X108930315Y-72237719D01*
X109033589Y-72178093D01*
X109033590Y-72178091D01*
X109040627Y-72174029D01*
X109042145Y-72176659D01*
X109093803Y-72156665D01*
X109162253Y-72170675D01*
X109212263Y-72219469D01*
X109224953Y-72257564D01*
X109225180Y-72257504D01*
X109226192Y-72261283D01*
X109227109Y-72264034D01*
X109227282Y-72265350D01*
X109258147Y-72380543D01*
X109272232Y-72404938D01*
X109317773Y-72483816D01*
X109402096Y-72568139D01*
X109505370Y-72627765D01*
X109620558Y-72658629D01*
X109620560Y-72658629D01*
X109739806Y-72658629D01*
X109739808Y-72658629D01*
X109854996Y-72627765D01*
X109916282Y-72592380D01*
X109984181Y-72575907D01*
X110050208Y-72598758D01*
X110093400Y-72653679D01*
X110102283Y-72699767D01*
X110102283Y-72809624D01*
X110133147Y-72924814D01*
X110155587Y-72963680D01*
X110192773Y-73028087D01*
X110277096Y-73112410D01*
X110380370Y-73172036D01*
X110495558Y-73202900D01*
X110495560Y-73202900D01*
X110614806Y-73202900D01*
X110614808Y-73202900D01*
X110729996Y-73172036D01*
X110833270Y-73112410D01*
X110917593Y-73028087D01*
X110977219Y-72924813D01*
X111008083Y-72809625D01*
X111008083Y-72690375D01*
X110977219Y-72575187D01*
X110964299Y-72552810D01*
X110917593Y-72471913D01*
X110833264Y-72387584D01*
X110832792Y-72387222D01*
X110832494Y-72386814D01*
X110827523Y-72381843D01*
X110828298Y-72381067D01*
X110791592Y-72330792D01*
X110784283Y-72288850D01*
X110784283Y-71725864D01*
X110784283Y-71725863D01*
X110764896Y-71679059D01*
X110749405Y-71641660D01*
X109844270Y-70736525D01*
X109810785Y-70675202D01*
X109809183Y-70647510D01*
X109808083Y-70647510D01*
X109808083Y-69973334D01*
X109827768Y-69906295D01*
X109880572Y-69860540D01*
X109932083Y-69849334D01*
X110600166Y-69849334D01*
X110600167Y-69849334D01*
X110659351Y-69837562D01*
X110659356Y-69837558D01*
X110665600Y-69834973D01*
X110673778Y-69833346D01*
X110678119Y-69830557D01*
X110713054Y-69825534D01*
X110783924Y-69825534D01*
X110850963Y-69845219D01*
X110871605Y-69861853D01*
X111374581Y-70364828D01*
X111408066Y-70426151D01*
X111410900Y-70452509D01*
X111410900Y-73339188D01*
X111391215Y-73406227D01*
X111374581Y-73426869D01*
X111020435Y-73781015D01*
X110993507Y-73795718D01*
X110967689Y-73812311D01*
X110961488Y-73813202D01*
X110959112Y-73814500D01*
X110932754Y-73817334D01*
X110831149Y-73817334D01*
X110764110Y-73797649D01*
X110738323Y-73773927D01*
X110738157Y-73774094D01*
X110734161Y-73770098D01*
X110732775Y-73768823D01*
X110732408Y-73768345D01*
X110648089Y-73684026D01*
X110648087Y-73684024D01*
X110585268Y-73647755D01*
X110544814Y-73624398D01*
X110478594Y-73606655D01*
X110429625Y-73593534D01*
X110310375Y-73593534D01*
X110195185Y-73624398D01*
X110091913Y-73684024D01*
X110091910Y-73684026D01*
X110007592Y-73768344D01*
X110007590Y-73768347D01*
X109947964Y-73871619D01*
X109917100Y-73986809D01*
X109917100Y-74106058D01*
X109947964Y-74221248D01*
X109973274Y-74265084D01*
X110007590Y-74324521D01*
X110091913Y-74408844D01*
X110158825Y-74447476D01*
X110187278Y-74463904D01*
X110195187Y-74468470D01*
X110310375Y-74499334D01*
X110310377Y-74499334D01*
X110429623Y-74499334D01*
X110429625Y-74499334D01*
X110515097Y-74476432D01*
X110584946Y-74478095D01*
X110642808Y-74517258D01*
X110670312Y-74581486D01*
X110658725Y-74650388D01*
X110654576Y-74658208D01*
X110617964Y-74721619D01*
X110587100Y-74836809D01*
X110587100Y-74956058D01*
X110617964Y-75071248D01*
X110626146Y-75085419D01*
X110677590Y-75174521D01*
X110761913Y-75258844D01*
X110865187Y-75318470D01*
X110980375Y-75349334D01*
X110980377Y-75349334D01*
X111099623Y-75349334D01*
X111099625Y-75349334D01*
X111214813Y-75318470D01*
X111318087Y-75258844D01*
X111402410Y-75174521D01*
X111402413Y-75174514D01*
X111402775Y-75174045D01*
X111403186Y-75173744D01*
X111408157Y-75168774D01*
X111408932Y-75169549D01*
X111427853Y-75155734D01*
X111451691Y-75135824D01*
X111456491Y-75134825D01*
X111459205Y-75132844D01*
X111485730Y-75126496D01*
X111493406Y-75125534D01*
X111494732Y-75125534D01*
X111585872Y-75125534D01*
X111585873Y-75125534D01*
X111610535Y-75115318D01*
X111670077Y-75090656D01*
X112194222Y-74566511D01*
X112214623Y-74517258D01*
X112223454Y-74495938D01*
X112223455Y-74495935D01*
X112227583Y-74485968D01*
X112229100Y-74482307D01*
X112229100Y-74152458D01*
X112248785Y-74085419D01*
X112301589Y-74039664D01*
X112370747Y-74029720D01*
X112434303Y-74058745D01*
X112440781Y-74064777D01*
X113461423Y-75085419D01*
X113494908Y-75146742D01*
X113489924Y-75216434D01*
X113448052Y-75272367D01*
X113382588Y-75296784D01*
X113373742Y-75297100D01*
X113257209Y-75297100D01*
X113116589Y-75334779D01*
X113116587Y-75334780D01*
X113116586Y-75334780D01*
X112990514Y-75407567D01*
X112990509Y-75407571D01*
X112887571Y-75510509D01*
X112887567Y-75510514D01*
X112814780Y-75636586D01*
X112814780Y-75636587D01*
X112814779Y-75636589D01*
X112777100Y-75777209D01*
X112777100Y-75922791D01*
X112814779Y-76063411D01*
X112814780Y-76063412D01*
X112814780Y-76063413D01*
X112887567Y-76189485D01*
X112887569Y-76189488D01*
X112887570Y-76189489D01*
X112990511Y-76292430D01*
X113116589Y-76365221D01*
X113257209Y-76402900D01*
X113257211Y-76402900D01*
X113402788Y-76402900D01*
X113402791Y-76402900D01*
X113543411Y-76365221D01*
X113669489Y-76292430D01*
X113772430Y-76189489D01*
X113845221Y-76063411D01*
X113882900Y-75922791D01*
X113882900Y-75806258D01*
X113902585Y-75739219D01*
X113955389Y-75693464D01*
X114024547Y-75683520D01*
X114088103Y-75712545D01*
X114094581Y-75718577D01*
X114719764Y-76343760D01*
X114753249Y-76405083D01*
X114756083Y-76431441D01*
X114756083Y-78082861D01*
X114736398Y-78149900D01*
X114683594Y-78195655D01*
X114651482Y-78205334D01*
X114609131Y-78212041D01*
X114495410Y-78269985D01*
X114495406Y-78269988D01*
X114405171Y-78360223D01*
X114405168Y-78360227D01*
X114347224Y-78473949D01*
X114332283Y-78568286D01*
X114332283Y-80631713D01*
X114347224Y-80726050D01*
X114347225Y-80726053D01*
X114347226Y-80726055D01*
X114405167Y-80839771D01*
X114405168Y-80839772D01*
X114405171Y-80839776D01*
X114495406Y-80930011D01*
X114495410Y-80930014D01*
X114495412Y-80930016D01*
X114609128Y-80987957D01*
X114609130Y-80987957D01*
X114609132Y-80987958D01*
X114703470Y-81002900D01*
X114703475Y-81002900D01*
X115266896Y-81002900D01*
X115361233Y-80987958D01*
X115361233Y-80987957D01*
X115361238Y-80987957D01*
X115474954Y-80930016D01*
X115565199Y-80839771D01*
X115623140Y-80726055D01*
X115623141Y-80726050D01*
X115638083Y-80631713D01*
X115638083Y-78568286D01*
X115623141Y-78473949D01*
X115623140Y-78473947D01*
X115623140Y-78473945D01*
X115565199Y-78360229D01*
X115565197Y-78360227D01*
X115565194Y-78360223D01*
X115474959Y-78269988D01*
X115474955Y-78269985D01*
X115474954Y-78269984D01*
X115361238Y-78212043D01*
X115361237Y-78212042D01*
X115361234Y-78212041D01*
X115318884Y-78205334D01*
X115255750Y-78175404D01*
X115218819Y-78116093D01*
X115214283Y-78082861D01*
X115214283Y-76239613D01*
X115214282Y-76239610D01*
X115213423Y-76237537D01*
X115185822Y-76170901D01*
X115179405Y-76155409D01*
X113872889Y-74848893D01*
X112545819Y-73521822D01*
X112512334Y-73460499D01*
X112509500Y-73434141D01*
X112509500Y-70004753D01*
X112509499Y-70004749D01*
X112482965Y-69940691D01*
X112482964Y-69940689D01*
X112481151Y-69936313D01*
X112474622Y-69920549D01*
X112156843Y-69602770D01*
X111834966Y-69280892D01*
X111801481Y-69219569D01*
X111806465Y-69149877D01*
X111834963Y-69105533D01*
X111862410Y-69078087D01*
X111922036Y-68974813D01*
X111952900Y-68859625D01*
X111952900Y-68740375D01*
X111922036Y-68625187D01*
X111862410Y-68521913D01*
X111778087Y-68437590D01*
X111701294Y-68393253D01*
X111674814Y-68377964D01*
X111617219Y-68362532D01*
X111559625Y-68347100D01*
X111440375Y-68347100D01*
X111325185Y-68377964D01*
X111221913Y-68437590D01*
X111221910Y-68437592D01*
X111137592Y-68521910D01*
X111137590Y-68521913D01*
X111077964Y-68625185D01*
X111047100Y-68740375D01*
X111047100Y-68843334D01*
X111044549Y-68852019D01*
X111045838Y-68860981D01*
X111034859Y-68885021D01*
X111027415Y-68910373D01*
X111020574Y-68916300D01*
X111016813Y-68924537D01*
X110994578Y-68938826D01*
X110974611Y-68956128D01*
X110964096Y-68958415D01*
X110958035Y-68962311D01*
X110923100Y-68967334D01*
X110907083Y-68967334D01*
X110840044Y-68947649D01*
X110794289Y-68894845D01*
X110783083Y-68843334D01*
X110783083Y-68726451D01*
X110782162Y-68721821D01*
X110771311Y-68667266D01*
X110770015Y-68665326D01*
X110768489Y-68660455D01*
X110766638Y-68655985D01*
X110767037Y-68655819D01*
X110749135Y-68598652D01*
X110767617Y-68531271D01*
X110769997Y-68527567D01*
X110771311Y-68525602D01*
X110783083Y-68466418D01*
X110783083Y-68326450D01*
X110771311Y-68267266D01*
X110726466Y-68200151D01*
X110659351Y-68155306D01*
X110600167Y-68143534D01*
X109785199Y-68143534D01*
X109726015Y-68155306D01*
X109658900Y-68200151D01*
X109614055Y-68267266D01*
X109602283Y-68326450D01*
X109602283Y-68466418D01*
X109606620Y-68488221D01*
X109614055Y-68525603D01*
X109615353Y-68527545D01*
X109616879Y-68532420D01*
X109618728Y-68536883D01*
X109618328Y-68537048D01*
X109636230Y-68594223D01*
X109617744Y-68661603D01*
X109615353Y-68665323D01*
X109614055Y-68667264D01*
X109602283Y-68726451D01*
X109602283Y-68866416D01*
X109614055Y-68925603D01*
X109615353Y-68927545D01*
X109616879Y-68932420D01*
X109618728Y-68936883D01*
X109618328Y-68937048D01*
X109636230Y-68994223D01*
X109617744Y-69061603D01*
X109615353Y-69065323D01*
X109614055Y-69067264D01*
X109602283Y-69126451D01*
X109602283Y-69266416D01*
X109614055Y-69325603D01*
X109615353Y-69327545D01*
X109616879Y-69332420D01*
X109618728Y-69336883D01*
X109618328Y-69337048D01*
X109636230Y-69394223D01*
X109631806Y-69429333D01*
X109626488Y-69448658D01*
X109614055Y-69467266D01*
X109602283Y-69526450D01*
X109602283Y-69536621D01*
X109597912Y-69552506D01*
X109584871Y-69573579D01*
X109575592Y-69596556D01*
X109566808Y-69602770D01*
X109561147Y-69611920D01*
X109538783Y-69622598D01*
X109518555Y-69636910D01*
X109500655Y-69640803D01*
X109498096Y-69642026D01*
X109496161Y-69641781D01*
X109490519Y-69643009D01*
X109485207Y-69643532D01*
X109426013Y-69655306D01*
X109424072Y-69656604D01*
X109419196Y-69658130D01*
X109414734Y-69659979D01*
X109414568Y-69659579D01*
X109357394Y-69677481D01*
X109290014Y-69658995D01*
X109286294Y-69656604D01*
X109284352Y-69655306D01*
X109254759Y-69649420D01*
X109225167Y-69643534D01*
X109085199Y-69643534D01*
X109065471Y-69647458D01*
X109026013Y-69655306D01*
X109024072Y-69656604D01*
X109019196Y-69658130D01*
X109014734Y-69659979D01*
X109014568Y-69659579D01*
X108957394Y-69677481D01*
X108890014Y-69658995D01*
X108886294Y-69656604D01*
X108884352Y-69655306D01*
X108854759Y-69649420D01*
X108825167Y-69643534D01*
X108685199Y-69643534D01*
X108665471Y-69647458D01*
X108626013Y-69655306D01*
X108624072Y-69656604D01*
X108619196Y-69658130D01*
X108614734Y-69659979D01*
X108614568Y-69659579D01*
X108557394Y-69677481D01*
X108490014Y-69658995D01*
X108486294Y-69656604D01*
X108484352Y-69655306D01*
X108454759Y-69649420D01*
X108425167Y-69643534D01*
X108285199Y-69643534D01*
X108226015Y-69655306D01*
X108158900Y-69700151D01*
X108114055Y-69767266D01*
X108102283Y-69826450D01*
X107808083Y-69826450D01*
X107796311Y-69767266D01*
X107751466Y-69700151D01*
X107684351Y-69655306D01*
X107625167Y-69643534D01*
X107485199Y-69643534D01*
X107465471Y-69647458D01*
X107426013Y-69655306D01*
X107424072Y-69656604D01*
X107419196Y-69658130D01*
X107414734Y-69659979D01*
X107414568Y-69659579D01*
X107357394Y-69677481D01*
X107290014Y-69658995D01*
X107286294Y-69656604D01*
X107284352Y-69655306D01*
X107254759Y-69649420D01*
X107225167Y-69643534D01*
X107085199Y-69643534D01*
X107065471Y-69647458D01*
X107026013Y-69655306D01*
X107024072Y-69656604D01*
X107019196Y-69658130D01*
X107014734Y-69659979D01*
X107014568Y-69659579D01*
X106957394Y-69677481D01*
X106890014Y-69658995D01*
X106886294Y-69656604D01*
X106884352Y-69655306D01*
X106854759Y-69649420D01*
X106825167Y-69643534D01*
X106685199Y-69643534D01*
X106665471Y-69647458D01*
X106626013Y-69655306D01*
X106624072Y-69656604D01*
X106619196Y-69658130D01*
X106614734Y-69659979D01*
X106614568Y-69659579D01*
X106604995Y-69662577D01*
X106587985Y-69673084D01*
X106572331Y-69672804D01*
X106557394Y-69677481D01*
X106538117Y-69672192D01*
X106518127Y-69671835D01*
X106493012Y-69659817D01*
X106490014Y-69658995D01*
X106486290Y-69656601D01*
X106480699Y-69652865D01*
X106435895Y-69599252D01*
X106427189Y-69529927D01*
X106457346Y-69466900D01*
X106461868Y-69462127D01*
X106758580Y-69165416D01*
X106819901Y-69131934D01*
X106846259Y-69129100D01*
X108645569Y-69129100D01*
X108645570Y-69129100D01*
X108645571Y-69129100D01*
X108670233Y-69118884D01*
X108729775Y-69094222D01*
X109194221Y-68629775D01*
X109201560Y-68612057D01*
X109229100Y-68545571D01*
X109229100Y-67147201D01*
X109248785Y-67080162D01*
X109301589Y-67034407D01*
X109355411Y-67023223D01*
X109372219Y-67023536D01*
X109377042Y-67025534D01*
X109377043Y-67025534D01*
X109468183Y-67025534D01*
X109479414Y-67025534D01*
X109480594Y-67025556D01*
X109512872Y-67035690D01*
X109545322Y-67045219D01*
X109546107Y-67046125D01*
X109547255Y-67046486D01*
X109568958Y-67072496D01*
X109591077Y-67098023D01*
X109591366Y-67099351D01*
X109592018Y-67100133D01*
X109592666Y-67105330D01*
X109602283Y-67149534D01*
X109602283Y-67266418D01*
X109610131Y-67305874D01*
X109614055Y-67325603D01*
X109615353Y-67327545D01*
X109616879Y-67332420D01*
X109618728Y-67336883D01*
X109618328Y-67337048D01*
X109636230Y-67394223D01*
X109617744Y-67461603D01*
X109615353Y-67465323D01*
X109614055Y-67467264D01*
X109614055Y-67467266D01*
X109602283Y-67526450D01*
X109602283Y-67666418D01*
X109614055Y-67725602D01*
X109658900Y-67792717D01*
X109726015Y-67837562D01*
X109785199Y-67849334D01*
X109785200Y-67849334D01*
X110600166Y-67849334D01*
X110600167Y-67849334D01*
X110659351Y-67837562D01*
X110659356Y-67837558D01*
X110665600Y-67834973D01*
X110713054Y-67825534D01*
X112971875Y-67825534D01*
X113038914Y-67845219D01*
X113084669Y-67898023D01*
X113094613Y-67967181D01*
X113085309Y-67999620D01*
X113079942Y-68011774D01*
X113079941Y-68011778D01*
X113077100Y-68036264D01*
X113077100Y-68463735D01*
X113079941Y-68488221D01*
X113079941Y-68488223D01*
X113124170Y-68588392D01*
X113124172Y-68588396D01*
X113201604Y-68665828D01*
X113301779Y-68710059D01*
X113326266Y-68712900D01*
X113326267Y-68712900D01*
X113693733Y-68712900D01*
X113693734Y-68712900D01*
X113718221Y-68710059D01*
X113818396Y-68665828D01*
X113895828Y-68588396D01*
X113900942Y-68576814D01*
X113912938Y-68562611D01*
X113920663Y-68545697D01*
X113935017Y-68536471D01*
X113946027Y-68523438D01*
X113963798Y-68517975D01*
X113979441Y-68507923D01*
X114011502Y-68503313D01*
X114012814Y-68502910D01*
X114014376Y-68502900D01*
X114115253Y-68502900D01*
X114115261Y-68502901D01*
X114129695Y-68502901D01*
X114230305Y-68502901D01*
X114257529Y-68491623D01*
X114268807Y-68486952D01*
X114268809Y-68486950D01*
X114323257Y-68464399D01*
X114394399Y-68393257D01*
X114394399Y-68393254D01*
X114406314Y-68381340D01*
X114406317Y-68381335D01*
X115048435Y-67739219D01*
X115109758Y-67705734D01*
X115136116Y-67702900D01*
X115239623Y-67702900D01*
X115239625Y-67702900D01*
X115354813Y-67672036D01*
X115458087Y-67612410D01*
X115542410Y-67528087D01*
X115602036Y-67424813D01*
X115632900Y-67309625D01*
X115632900Y-67190375D01*
X115602036Y-67075187D01*
X115542410Y-66971913D01*
X115458087Y-66887590D01*
X115391657Y-66849236D01*
X115354812Y-66827963D01*
X115347309Y-66824856D01*
X115348173Y-66822768D01*
X115298515Y-66792502D01*
X115267984Y-66729655D01*
X115276278Y-66660280D01*
X115302583Y-66621412D01*
X115494222Y-66429774D01*
X115517159Y-66374398D01*
X115529100Y-66345571D01*
X115529100Y-61745680D01*
X115506197Y-61690387D01*
X115494222Y-61661477D01*
X115312079Y-61479334D01*
X115112633Y-61279887D01*
X115079148Y-61218564D01*
X115077841Y-61172807D01*
X115088083Y-61108146D01*
X115088083Y-60344720D01*
X115073141Y-60250383D01*
X115073140Y-60250381D01*
X115073140Y-60250379D01*
X115015199Y-60136663D01*
X115015197Y-60136661D01*
X115015194Y-60136657D01*
X114924959Y-60046422D01*
X114924955Y-60046419D01*
X114924954Y-60046418D01*
X114811238Y-59988477D01*
X114811236Y-59988476D01*
X114811233Y-59988475D01*
X114716896Y-59973534D01*
X114716891Y-59973534D01*
X114588283Y-59973534D01*
X114521244Y-59953849D01*
X114475489Y-59901045D01*
X114464283Y-59849534D01*
X114464283Y-59041319D01*
X114483968Y-58974280D01*
X114536772Y-58928525D01*
X114538198Y-58927884D01*
X114541998Y-58926206D01*
X114573579Y-58912262D01*
X114651011Y-58834830D01*
X114695242Y-58734655D01*
X114698083Y-58710168D01*
X114698083Y-58342700D01*
X114695242Y-58318213D01*
X114691781Y-58310375D01*
X114651012Y-58218041D01*
X114651011Y-58218038D01*
X114573579Y-58140606D01*
X114567088Y-58134115D01*
X114533603Y-58072792D01*
X114538587Y-58003100D01*
X114567088Y-57958753D01*
X114608741Y-57917100D01*
X114651011Y-57874830D01*
X114695242Y-57774655D01*
X114698083Y-57750168D01*
X114698083Y-57382700D01*
X114695242Y-57358213D01*
X114684118Y-57333020D01*
X114661156Y-57281015D01*
X114651011Y-57258038D01*
X114573579Y-57180606D01*
X114573576Y-57180604D01*
X114573575Y-57180604D01*
X114473405Y-57136375D01*
X114448918Y-57133534D01*
X114448917Y-57133534D01*
X114021449Y-57133534D01*
X114021447Y-57133534D01*
X113996961Y-57136375D01*
X113996959Y-57136375D01*
X113896790Y-57180604D01*
X113896785Y-57180607D01*
X113816612Y-57260781D01*
X113755289Y-57294266D01*
X113728931Y-57297100D01*
X112944014Y-57297100D01*
X112876975Y-57277415D01*
X112836627Y-57235100D01*
X112822432Y-57210514D01*
X112822428Y-57210509D01*
X112719491Y-57107572D01*
X112719489Y-57107570D01*
X112719486Y-57107568D01*
X112719482Y-57107565D01*
X112694899Y-57093372D01*
X112686616Y-57084685D01*
X112675697Y-57079699D01*
X112662950Y-57059865D01*
X112646684Y-57042805D01*
X112643468Y-57029549D01*
X112637923Y-57020921D01*
X112632900Y-56985986D01*
X112632900Y-56978052D01*
X112652585Y-56911013D01*
X112705389Y-56865258D01*
X112774547Y-56855314D01*
X112795223Y-56860123D01*
X112803943Y-56862956D01*
X112803945Y-56862957D01*
X112815190Y-56864738D01*
X112898287Y-56877900D01*
X112898292Y-56877900D01*
X113461713Y-56877900D01*
X113556050Y-56862958D01*
X113556050Y-56862957D01*
X113556055Y-56862957D01*
X113669771Y-56805016D01*
X113760016Y-56714771D01*
X113817957Y-56601055D01*
X113819642Y-56590417D01*
X113832900Y-56506713D01*
X113832900Y-56362405D01*
X113852585Y-56295366D01*
X113905389Y-56249611D01*
X113974547Y-56239667D01*
X114038103Y-56268692D01*
X114064286Y-56300404D01*
X114097590Y-56358087D01*
X114181913Y-56442410D01*
X114285187Y-56502036D01*
X114400375Y-56532900D01*
X114400377Y-56532900D01*
X114519623Y-56532900D01*
X114519625Y-56532900D01*
X114634813Y-56502036D01*
X114738087Y-56442410D01*
X114822410Y-56358087D01*
X114882036Y-56254813D01*
X114912900Y-56139625D01*
X114912900Y-56020375D01*
X114882036Y-55905187D01*
X114822410Y-55801913D01*
X114738087Y-55717590D01*
X114660681Y-55672899D01*
X114634814Y-55657964D01*
X114564959Y-55639247D01*
X114519625Y-55627100D01*
X114400375Y-55627100D01*
X114285185Y-55657964D01*
X114181913Y-55717590D01*
X114181910Y-55717592D01*
X114097592Y-55801910D01*
X114097590Y-55801913D01*
X114065937Y-55856738D01*
X114064287Y-55859595D01*
X114013719Y-55907810D01*
X113945112Y-55921032D01*
X113880247Y-55895064D01*
X113839719Y-55838149D01*
X113832900Y-55797594D01*
X113832900Y-55493286D01*
X113817958Y-55398949D01*
X113817957Y-55398947D01*
X113817957Y-55398945D01*
X113760016Y-55285229D01*
X113760014Y-55285227D01*
X113760011Y-55285223D01*
X113669776Y-55194988D01*
X113669772Y-55194985D01*
X113669771Y-55194984D01*
X113556055Y-55137043D01*
X113556053Y-55137042D01*
X113556050Y-55137041D01*
X113461713Y-55122100D01*
X113461708Y-55122100D01*
X112898292Y-55122100D01*
X112898287Y-55122100D01*
X112803949Y-55137041D01*
X112803945Y-55137042D01*
X112803945Y-55137043D01*
X112786586Y-55145888D01*
X112690227Y-55194985D01*
X112690223Y-55194988D01*
X112599988Y-55285223D01*
X112599985Y-55285227D01*
X112542041Y-55398949D01*
X112527100Y-55493286D01*
X112527100Y-56243883D01*
X112507415Y-56310922D01*
X112490781Y-56331564D01*
X112241084Y-56581260D01*
X112241073Y-56581269D01*
X112241074Y-56581270D01*
X112165600Y-56656743D01*
X112143047Y-56711193D01*
X112127099Y-56749693D01*
X112127099Y-56864738D01*
X112127100Y-56864747D01*
X112127100Y-56985986D01*
X112107415Y-57053025D01*
X112065101Y-57093372D01*
X112040517Y-57107565D01*
X112040508Y-57107572D01*
X111937571Y-57210509D01*
X111937567Y-57210514D01*
X111864780Y-57336586D01*
X111864780Y-57336587D01*
X111864779Y-57336589D01*
X111827100Y-57477209D01*
X111827100Y-57622791D01*
X111864779Y-57763411D01*
X111864780Y-57763412D01*
X111864780Y-57763413D01*
X111937567Y-57889485D01*
X111937569Y-57889488D01*
X111937570Y-57889489D01*
X112040511Y-57992430D01*
X112060935Y-58004222D01*
X112065098Y-58006625D01*
X112113314Y-58057191D01*
X112127100Y-58114013D01*
X112127100Y-58613883D01*
X112107415Y-58680922D01*
X112090781Y-58701564D01*
X111596358Y-59195985D01*
X111596350Y-59195994D01*
X111586746Y-59205599D01*
X111586743Y-59205601D01*
X111515601Y-59276743D01*
X111502639Y-59308038D01*
X111496135Y-59323739D01*
X111496133Y-59323742D01*
X111477099Y-59369694D01*
X111477099Y-59484738D01*
X111477100Y-59484747D01*
X111477100Y-59903332D01*
X111457415Y-59970371D01*
X111409396Y-60013816D01*
X111345413Y-60046417D01*
X111345406Y-60046422D01*
X111255171Y-60136657D01*
X111255168Y-60136661D01*
X111242625Y-60161278D01*
X111198457Y-60247964D01*
X111197224Y-60250383D01*
X111182283Y-60344720D01*
X111182283Y-61108147D01*
X111197224Y-61202484D01*
X111197225Y-61202487D01*
X111197226Y-61202489D01*
X111254843Y-61315569D01*
X111255168Y-61316206D01*
X111255171Y-61316210D01*
X111345406Y-61406445D01*
X111345410Y-61406448D01*
X111345412Y-61406450D01*
X111459128Y-61464391D01*
X111459129Y-61464391D01*
X111462187Y-61465949D01*
X111512983Y-61513923D01*
X111529778Y-61581744D01*
X111507241Y-61647879D01*
X111462187Y-61686919D01*
X111459129Y-61688476D01*
X111459128Y-61688477D01*
X111372616Y-61732557D01*
X111345410Y-61746419D01*
X111345406Y-61746422D01*
X111255171Y-61836657D01*
X111255168Y-61836661D01*
X111197224Y-61950383D01*
X111182283Y-62044720D01*
X111182283Y-62808147D01*
X111197224Y-62902484D01*
X111197225Y-62902485D01*
X111197226Y-62902489D01*
X111255167Y-63016205D01*
X111255168Y-63016206D01*
X111255171Y-63016210D01*
X111345406Y-63106445D01*
X111345410Y-63106448D01*
X111345412Y-63106450D01*
X111459128Y-63164391D01*
X111459130Y-63164391D01*
X111459132Y-63164392D01*
X111553470Y-63179334D01*
X111553475Y-63179334D01*
X112252724Y-63179334D01*
X112319763Y-63199019D01*
X112340405Y-63215653D01*
X112610171Y-63485419D01*
X112643656Y-63546742D01*
X112638672Y-63616434D01*
X112596800Y-63672367D01*
X112531336Y-63696784D01*
X112522490Y-63697100D01*
X112216264Y-63697100D01*
X112191778Y-63699941D01*
X112191776Y-63699941D01*
X112091607Y-63744170D01*
X112091602Y-63744173D01*
X112014173Y-63821602D01*
X112014170Y-63821607D01*
X111969941Y-63921776D01*
X111969941Y-63921778D01*
X111967100Y-63946264D01*
X111967100Y-64373735D01*
X111969941Y-64398221D01*
X111969941Y-64398223D01*
X112008600Y-64485777D01*
X112014172Y-64498396D01*
X112091604Y-64575828D01*
X112191779Y-64620059D01*
X112216266Y-64622900D01*
X112517541Y-64622900D01*
X112546981Y-64631544D01*
X112576968Y-64638068D01*
X112581983Y-64641822D01*
X112584580Y-64642585D01*
X112605222Y-64659219D01*
X112761919Y-64815916D01*
X112795404Y-64877239D01*
X112796865Y-64912248D01*
X112797100Y-64912248D01*
X112797100Y-64917876D01*
X112797179Y-64919769D01*
X112797100Y-64920369D01*
X112797100Y-64920375D01*
X112797100Y-65039625D01*
X112801439Y-65055819D01*
X112827964Y-65154814D01*
X112841456Y-65178182D01*
X112887590Y-65258087D01*
X112971913Y-65342410D01*
X112971915Y-65342411D01*
X112972380Y-65342768D01*
X112972675Y-65343172D01*
X112975958Y-65346455D01*
X112978103Y-65347435D01*
X112995076Y-65373846D01*
X113013587Y-65399193D01*
X113014413Y-65403936D01*
X113015877Y-65406213D01*
X113020900Y-65441148D01*
X113020900Y-65461349D01*
X113001215Y-65528388D01*
X112984582Y-65549029D01*
X112942009Y-65591602D01*
X112942006Y-65591607D01*
X112897777Y-65691776D01*
X112897777Y-65691778D01*
X112894936Y-65716264D01*
X112894936Y-66143735D01*
X112897777Y-66168221D01*
X112897777Y-66168223D01*
X112940654Y-66265329D01*
X112942008Y-66268396D01*
X113019440Y-66345828D01*
X113119615Y-66390059D01*
X113144102Y-66392900D01*
X113144103Y-66392900D01*
X113511569Y-66392900D01*
X113511570Y-66392900D01*
X113536057Y-66390059D01*
X113636232Y-66345828D01*
X113652920Y-66329139D01*
X113714240Y-66295654D01*
X113783932Y-66300637D01*
X113834184Y-66335467D01*
X113846469Y-66349599D01*
X113873369Y-66410521D01*
X113949479Y-66486631D01*
X113975631Y-66498178D01*
X113993796Y-66519074D01*
X113997284Y-66526679D01*
X114003675Y-66532078D01*
X114011632Y-66557965D01*
X114022922Y-66582583D01*
X114021744Y-66590865D01*
X114024203Y-66598863D01*
X114016901Y-66624941D01*
X114013090Y-66651758D01*
X114007620Y-66658090D01*
X114005365Y-66666146D01*
X113987894Y-66688108D01*
X113744988Y-66931015D01*
X113683665Y-66964500D01*
X113657307Y-66967334D01*
X112025659Y-66967334D01*
X111958620Y-66947649D01*
X111912865Y-66894845D01*
X111902921Y-66825687D01*
X111918271Y-66781336D01*
X111922033Y-66774818D01*
X111922032Y-66774818D01*
X111922036Y-66774813D01*
X111952900Y-66659625D01*
X111952900Y-66540375D01*
X111922036Y-66425187D01*
X111913568Y-66410521D01*
X111862410Y-66321913D01*
X111778081Y-66237584D01*
X111777609Y-66237222D01*
X111777311Y-66236814D01*
X111772340Y-66231843D01*
X111773115Y-66231067D01*
X111736409Y-66180792D01*
X111730880Y-66159784D01*
X111729100Y-66149391D01*
X111729100Y-66054429D01*
X111706681Y-66000305D01*
X111694222Y-65970225D01*
X111126209Y-65402212D01*
X111126205Y-65402210D01*
X111126203Y-65402209D01*
X111071754Y-65379656D01*
X111071752Y-65379655D01*
X111053267Y-65371999D01*
X111042005Y-65367334D01*
X110902578Y-65367334D01*
X110898075Y-65367006D01*
X110869409Y-65356271D01*
X110840044Y-65347649D01*
X110836999Y-65344135D01*
X110832643Y-65342504D01*
X110814330Y-65317973D01*
X110794289Y-65294845D01*
X110793147Y-65289599D01*
X110790845Y-65286515D01*
X110790067Y-65275438D01*
X110783083Y-65243334D01*
X110783083Y-65126451D01*
X110783083Y-65126450D01*
X110771311Y-65067266D01*
X110770015Y-65065326D01*
X110768489Y-65060455D01*
X110766638Y-65055985D01*
X110767037Y-65055819D01*
X110749135Y-64998652D01*
X110767617Y-64931271D01*
X110769997Y-64927567D01*
X110771311Y-64925602D01*
X110783083Y-64866418D01*
X110783083Y-64726450D01*
X110771311Y-64667266D01*
X110770015Y-64665326D01*
X110768489Y-64660455D01*
X110766638Y-64655985D01*
X110767037Y-64655819D01*
X110749135Y-64598652D01*
X110767617Y-64531271D01*
X110769997Y-64527567D01*
X110771311Y-64525602D01*
X110783083Y-64466418D01*
X110783083Y-64326450D01*
X110771311Y-64267266D01*
X110726466Y-64200151D01*
X110659351Y-64155306D01*
X110600167Y-64143534D01*
X109785199Y-64143534D01*
X109726015Y-64155306D01*
X109681802Y-64184848D01*
X109681800Y-64184849D01*
X109667125Y-64194655D01*
X109658900Y-64200151D01*
X109614055Y-64267266D01*
X109602283Y-64326450D01*
X109602283Y-64466418D01*
X109608643Y-64498392D01*
X109614055Y-64525603D01*
X109615353Y-64527545D01*
X109616879Y-64532420D01*
X109618728Y-64536883D01*
X109618328Y-64537048D01*
X109636230Y-64594223D01*
X109617744Y-64661603D01*
X109615353Y-64665323D01*
X109614055Y-64667264D01*
X109606555Y-64704972D01*
X109602283Y-64726450D01*
X109602283Y-64866418D01*
X109608330Y-64896821D01*
X109614055Y-64925603D01*
X109615353Y-64927545D01*
X109616879Y-64932420D01*
X109618728Y-64936883D01*
X109618328Y-64937048D01*
X109636230Y-64994223D01*
X109617744Y-65061603D01*
X109615353Y-65065323D01*
X109614055Y-65067264D01*
X109612956Y-65072791D01*
X109602283Y-65126450D01*
X109602283Y-65266418D01*
X109606397Y-65287100D01*
X109614055Y-65325603D01*
X109615353Y-65327545D01*
X109616879Y-65332420D01*
X109618728Y-65336883D01*
X109618328Y-65337048D01*
X109636230Y-65394223D01*
X109617744Y-65461603D01*
X109615353Y-65465323D01*
X109614055Y-65467264D01*
X109614055Y-65467266D01*
X109602283Y-65526450D01*
X109602283Y-65666418D01*
X109610131Y-65705874D01*
X109614055Y-65725603D01*
X109615353Y-65727545D01*
X109616879Y-65732420D01*
X109618728Y-65736883D01*
X109618328Y-65737048D01*
X109636230Y-65794223D01*
X109617744Y-65861603D01*
X109615353Y-65865323D01*
X109614055Y-65867264D01*
X109610095Y-65887174D01*
X109603813Y-65918761D01*
X109602283Y-65926451D01*
X109602283Y-66066416D01*
X109614055Y-66125603D01*
X109615353Y-66127545D01*
X109616879Y-66132420D01*
X109618728Y-66136883D01*
X109618328Y-66137048D01*
X109636230Y-66194223D01*
X109633422Y-66222765D01*
X109628425Y-66245759D01*
X109614055Y-66267266D01*
X109602283Y-66326450D01*
X109602283Y-66366061D01*
X109599455Y-66379076D01*
X109588839Y-66398526D01*
X109582598Y-66419784D01*
X109572430Y-66428593D01*
X109565984Y-66440407D01*
X109546536Y-66451031D01*
X109529794Y-66465539D01*
X109516476Y-66467453D01*
X109504668Y-66473905D01*
X109482568Y-66472329D01*
X109460636Y-66475483D01*
X109448395Y-66469892D01*
X109434975Y-66468936D01*
X109417236Y-66455662D01*
X109397080Y-66446458D01*
X109390602Y-66440426D01*
X109265419Y-66315243D01*
X109231934Y-66253920D01*
X109229100Y-66227562D01*
X109229100Y-64954430D01*
X109229099Y-64954427D01*
X109225816Y-64946501D01*
X109205238Y-64896821D01*
X109194222Y-64870226D01*
X108629775Y-64305778D01*
X108629774Y-64305777D01*
X108598528Y-64292835D01*
X108567282Y-64279893D01*
X108545572Y-64270900D01*
X108545571Y-64270900D01*
X106946259Y-64270900D01*
X106879220Y-64251215D01*
X106858578Y-64234581D01*
X106620602Y-63996605D01*
X106605898Y-63969677D01*
X106589306Y-63943859D01*
X106588414Y-63937658D01*
X106587117Y-63935282D01*
X106584283Y-63908924D01*
X106584283Y-63879304D01*
X106593723Y-63831848D01*
X106596306Y-63825609D01*
X106596311Y-63825602D01*
X106608083Y-63766418D01*
X106608083Y-62951450D01*
X106902283Y-62951450D01*
X106902283Y-63766418D01*
X106914055Y-63825602D01*
X106958900Y-63892717D01*
X107026015Y-63937562D01*
X107085199Y-63949334D01*
X107085200Y-63949334D01*
X107225166Y-63949334D01*
X107225167Y-63949334D01*
X107284351Y-63937562D01*
X107286290Y-63936266D01*
X107291161Y-63934740D01*
X107295632Y-63932889D01*
X107295797Y-63933288D01*
X107352965Y-63915386D01*
X107420346Y-63933868D01*
X107424049Y-63936248D01*
X107426015Y-63937562D01*
X107485199Y-63949334D01*
X107485200Y-63949334D01*
X107625166Y-63949334D01*
X107625167Y-63949334D01*
X107684351Y-63937562D01*
X107686290Y-63936266D01*
X107691161Y-63934740D01*
X107695632Y-63932889D01*
X107695797Y-63933288D01*
X107752965Y-63915386D01*
X107820346Y-63933868D01*
X107824049Y-63936248D01*
X107826015Y-63937562D01*
X107885199Y-63949334D01*
X107885200Y-63949334D01*
X108025166Y-63949334D01*
X108025167Y-63949334D01*
X108084351Y-63937562D01*
X108086290Y-63936266D01*
X108091161Y-63934740D01*
X108095632Y-63932889D01*
X108095797Y-63933288D01*
X108152965Y-63915386D01*
X108220346Y-63933868D01*
X108224049Y-63936248D01*
X108226015Y-63937562D01*
X108285199Y-63949334D01*
X108285200Y-63949334D01*
X108425166Y-63949334D01*
X108425167Y-63949334D01*
X108484351Y-63937562D01*
X108486290Y-63936266D01*
X108491161Y-63934740D01*
X108495632Y-63932889D01*
X108495797Y-63933288D01*
X108503571Y-63930854D01*
X108518679Y-63920861D01*
X108536222Y-63920629D01*
X108552965Y-63915386D01*
X108570432Y-63920177D01*
X108588542Y-63919938D01*
X108616652Y-63932854D01*
X108620346Y-63933868D01*
X108621392Y-63935033D01*
X108624074Y-63936265D01*
X108626015Y-63937562D01*
X108685199Y-63949334D01*
X108685200Y-63949334D01*
X108825166Y-63949334D01*
X108825167Y-63949334D01*
X108884351Y-63937562D01*
X108886290Y-63936266D01*
X108891161Y-63934740D01*
X108895632Y-63932889D01*
X108895797Y-63933288D01*
X108952965Y-63915386D01*
X109020346Y-63933868D01*
X109024049Y-63936248D01*
X109026015Y-63937562D01*
X109085199Y-63949334D01*
X109085200Y-63949334D01*
X109225166Y-63949334D01*
X109225167Y-63949334D01*
X109284351Y-63937562D01*
X109286290Y-63936266D01*
X109291161Y-63934740D01*
X109295632Y-63932889D01*
X109295797Y-63933288D01*
X109352965Y-63915386D01*
X109420346Y-63933868D01*
X109424049Y-63936248D01*
X109426015Y-63937562D01*
X109485199Y-63949334D01*
X109485200Y-63949334D01*
X109603830Y-63949334D01*
X109668517Y-63949334D01*
X109784799Y-63833052D01*
X109784805Y-63833045D01*
X109808082Y-63776848D01*
X109808083Y-63776838D01*
X109808083Y-62951450D01*
X109796311Y-62892266D01*
X109751466Y-62825151D01*
X109684351Y-62780306D01*
X109625167Y-62768534D01*
X109485199Y-62768534D01*
X109465471Y-62772458D01*
X109426013Y-62780306D01*
X109424072Y-62781604D01*
X109419196Y-62783130D01*
X109414734Y-62784979D01*
X109414568Y-62784579D01*
X109357394Y-62802481D01*
X109290014Y-62783995D01*
X109286294Y-62781604D01*
X109284352Y-62780306D01*
X109254759Y-62774420D01*
X109225167Y-62768534D01*
X109085199Y-62768534D01*
X109065471Y-62772458D01*
X109026013Y-62780306D01*
X109024072Y-62781604D01*
X109019196Y-62783130D01*
X109014734Y-62784979D01*
X109014568Y-62784579D01*
X108957394Y-62802481D01*
X108890014Y-62783995D01*
X108886294Y-62781604D01*
X108884352Y-62780306D01*
X108854759Y-62774420D01*
X108825167Y-62768534D01*
X108685199Y-62768534D01*
X108665471Y-62772458D01*
X108626013Y-62780306D01*
X108624072Y-62781604D01*
X108619196Y-62783130D01*
X108614734Y-62784979D01*
X108614568Y-62784579D01*
X108557394Y-62802481D01*
X108490014Y-62783995D01*
X108486294Y-62781604D01*
X108484352Y-62780306D01*
X108454759Y-62774420D01*
X108425167Y-62768534D01*
X108285199Y-62768534D01*
X108265471Y-62772458D01*
X108226013Y-62780306D01*
X108224072Y-62781604D01*
X108219196Y-62783130D01*
X108214734Y-62784979D01*
X108214568Y-62784579D01*
X108157394Y-62802481D01*
X108090014Y-62783995D01*
X108086294Y-62781604D01*
X108084352Y-62780306D01*
X108054759Y-62774420D01*
X108025167Y-62768534D01*
X107885199Y-62768534D01*
X107865471Y-62772458D01*
X107826013Y-62780306D01*
X107824072Y-62781604D01*
X107819196Y-62783130D01*
X107814734Y-62784979D01*
X107814568Y-62784579D01*
X107757394Y-62802481D01*
X107690014Y-62783995D01*
X107686294Y-62781604D01*
X107684352Y-62780306D01*
X107654759Y-62774420D01*
X107625167Y-62768534D01*
X107485199Y-62768534D01*
X107465471Y-62772458D01*
X107426013Y-62780306D01*
X107424072Y-62781604D01*
X107419196Y-62783130D01*
X107414734Y-62784979D01*
X107414568Y-62784579D01*
X107357394Y-62802481D01*
X107290014Y-62783995D01*
X107286294Y-62781604D01*
X107284352Y-62780306D01*
X107254759Y-62774420D01*
X107225167Y-62768534D01*
X107085199Y-62768534D01*
X107026015Y-62780306D01*
X106958900Y-62825151D01*
X106914055Y-62892266D01*
X106902283Y-62951450D01*
X106608083Y-62951450D01*
X106599219Y-62906885D01*
X106596312Y-62892269D01*
X106593721Y-62886014D01*
X106584283Y-62838563D01*
X106584283Y-61791075D01*
X106603968Y-61724036D01*
X106620602Y-61703394D01*
X107402205Y-60921791D01*
X107463528Y-60888306D01*
X107533220Y-60893290D01*
X107577567Y-60921791D01*
X107641604Y-60985828D01*
X107741779Y-61030059D01*
X107766266Y-61032900D01*
X107766267Y-61032900D01*
X107949948Y-61032900D01*
X108016987Y-61052585D01*
X108062742Y-61105389D01*
X108072686Y-61174547D01*
X108043661Y-61238103D01*
X108037629Y-61244581D01*
X107974173Y-61308036D01*
X107974170Y-61308041D01*
X107929941Y-61408210D01*
X107929941Y-61408212D01*
X107927100Y-61432698D01*
X107927100Y-61860169D01*
X107929941Y-61884655D01*
X107929941Y-61884657D01*
X107974170Y-61984826D01*
X107974172Y-61984830D01*
X108051604Y-62062262D01*
X108151779Y-62106493D01*
X108176266Y-62109334D01*
X108176267Y-62109334D01*
X108543733Y-62109334D01*
X108543734Y-62109334D01*
X108568221Y-62106493D01*
X108668396Y-62062262D01*
X108745828Y-61984830D01*
X108745830Y-61984823D01*
X108746197Y-61984290D01*
X108747128Y-61983529D01*
X108753953Y-61976705D01*
X108754642Y-61977394D01*
X108800320Y-61940103D01*
X108869740Y-61932193D01*
X108932417Y-61963069D01*
X108936182Y-61966679D01*
X108981913Y-62012410D01*
X109085187Y-62072036D01*
X109200375Y-62102900D01*
X109200377Y-62102900D01*
X109319623Y-62102900D01*
X109319625Y-62102900D01*
X109434813Y-62072036D01*
X109538087Y-62012410D01*
X109622410Y-61928087D01*
X109635238Y-61905867D01*
X109685805Y-61857653D01*
X109754412Y-61844429D01*
X109818115Y-61869495D01*
X109821912Y-61872409D01*
X109821913Y-61872410D01*
X109845706Y-61886147D01*
X109918350Y-61928089D01*
X109925187Y-61932036D01*
X110040375Y-61962900D01*
X110040377Y-61962900D01*
X110159623Y-61962900D01*
X110159625Y-61962900D01*
X110274813Y-61932036D01*
X110378087Y-61872410D01*
X110462410Y-61788087D01*
X110522036Y-61684813D01*
X110552900Y-61569625D01*
X110552900Y-61450375D01*
X110522036Y-61335187D01*
X110519102Y-61330106D01*
X110462410Y-61231913D01*
X110378081Y-61147584D01*
X110377609Y-61147222D01*
X110377311Y-61146814D01*
X110374037Y-61143540D01*
X110371897Y-61142563D01*
X110354918Y-61116143D01*
X110336409Y-61090792D01*
X110335584Y-61086058D01*
X110334123Y-61083785D01*
X110329100Y-61048850D01*
X110329100Y-61028103D01*
X110348785Y-60961064D01*
X110365419Y-60940422D01*
X110387445Y-60918396D01*
X110421011Y-60884830D01*
X110465242Y-60784655D01*
X110468083Y-60760168D01*
X110468083Y-60392700D01*
X110465242Y-60368213D01*
X110464145Y-60365729D01*
X110443126Y-60318125D01*
X110421011Y-60268038D01*
X110343579Y-60190606D01*
X110337088Y-60184115D01*
X110303603Y-60122792D01*
X110308587Y-60053100D01*
X110337088Y-60008753D01*
X110375470Y-59970371D01*
X110421011Y-59924830D01*
X110465242Y-59824655D01*
X110468083Y-59800168D01*
X110468083Y-59432700D01*
X110465242Y-59408213D01*
X110455919Y-59387099D01*
X110424598Y-59316163D01*
X110421011Y-59308038D01*
X110343579Y-59230606D01*
X110343576Y-59230604D01*
X110343575Y-59230604D01*
X110243405Y-59186375D01*
X110218918Y-59183534D01*
X110218917Y-59183534D01*
X109791449Y-59183534D01*
X109791447Y-59183534D01*
X109766961Y-59186375D01*
X109766959Y-59186375D01*
X109666790Y-59230604D01*
X109666785Y-59230607D01*
X109581230Y-59316163D01*
X109580338Y-59315271D01*
X109535422Y-59351932D01*
X109466001Y-59359834D01*
X109403327Y-59328950D01*
X109399574Y-59325350D01*
X109338397Y-59264173D01*
X109338396Y-59264172D01*
X109338393Y-59264170D01*
X109338392Y-59264170D01*
X109238222Y-59219941D01*
X109213735Y-59217100D01*
X109213734Y-59217100D01*
X108786266Y-59217100D01*
X108786264Y-59217100D01*
X108761778Y-59219941D01*
X108761776Y-59219941D01*
X108661607Y-59264170D01*
X108661605Y-59264171D01*
X108582051Y-59343725D01*
X108520727Y-59377209D01*
X108451036Y-59372225D01*
X108405525Y-59338156D01*
X108403953Y-59339729D01*
X108318397Y-59254173D01*
X108318396Y-59254172D01*
X108318393Y-59254170D01*
X108318392Y-59254170D01*
X108218222Y-59209941D01*
X108193735Y-59207100D01*
X108193734Y-59207100D01*
X107766266Y-59207100D01*
X107766264Y-59207100D01*
X107741778Y-59209941D01*
X107741776Y-59209941D01*
X107641607Y-59254170D01*
X107641602Y-59254173D01*
X107564172Y-59331603D01*
X107563094Y-59333178D01*
X107560394Y-59335381D01*
X107557059Y-59338716D01*
X107554508Y-59344303D01*
X107530796Y-59359541D01*
X107508967Y-59377360D01*
X107500362Y-59379099D01*
X107495730Y-59382077D01*
X107460795Y-59387100D01*
X107364747Y-59387100D01*
X107364739Y-59387099D01*
X107350305Y-59387099D01*
X107249695Y-59387099D01*
X107249692Y-59387099D01*
X107223465Y-59397964D01*
X107223464Y-59397964D01*
X107156743Y-59425601D01*
X107081262Y-59501082D01*
X107061566Y-59520779D01*
X107000244Y-59554266D01*
X106973883Y-59557100D01*
X106870375Y-59557100D01*
X106755185Y-59587964D01*
X106651913Y-59647590D01*
X106651910Y-59647592D01*
X106567592Y-59731910D01*
X106567590Y-59731913D01*
X106507964Y-59835185D01*
X106477100Y-59950375D01*
X106477100Y-59989849D01*
X106471640Y-60008442D01*
X106471145Y-60027814D01*
X106461999Y-60041274D01*
X106457415Y-60056888D01*
X106442770Y-60069577D01*
X106431880Y-60085607D01*
X106416908Y-60091986D01*
X106404611Y-60102643D01*
X106385430Y-60105400D01*
X106367603Y-60112998D01*
X106344319Y-60111312D01*
X106335453Y-60112587D01*
X106332321Y-60112096D01*
X106317650Y-60109602D01*
X106314813Y-60107964D01*
X106199625Y-60077100D01*
X106126434Y-60077100D01*
X106116121Y-60075347D01*
X106093744Y-60064428D01*
X106069861Y-60057415D01*
X106062892Y-60049373D01*
X106053328Y-60044706D01*
X106040407Y-60023423D01*
X106024106Y-60004611D01*
X106021380Y-59992084D01*
X106017069Y-59984982D01*
X106017360Y-59973601D01*
X106012900Y-59953100D01*
X106012900Y-59840377D01*
X106012900Y-59840375D01*
X105982036Y-59725187D01*
X105922410Y-59621913D01*
X105838087Y-59537590D01*
X105767339Y-59496743D01*
X105734814Y-59477964D01*
X105658775Y-59457590D01*
X105619625Y-59447100D01*
X105500375Y-59447100D01*
X105385185Y-59477964D01*
X105281913Y-59537590D01*
X105281910Y-59537592D01*
X105197592Y-59621910D01*
X105197590Y-59621913D01*
X105137964Y-59725185D01*
X105108491Y-59835185D01*
X105107100Y-59840375D01*
X105107100Y-59959625D01*
X105116529Y-59994814D01*
X105137964Y-60074814D01*
X105154032Y-60102643D01*
X105160010Y-60112998D01*
X105160514Y-60113870D01*
X105176987Y-60181770D01*
X105154135Y-60247797D01*
X105099214Y-60290988D01*
X105029661Y-60297630D01*
X104991126Y-60283258D01*
X104929997Y-60247964D01*
X104872402Y-60232532D01*
X104814808Y-60217100D01*
X104695558Y-60217100D01*
X104580368Y-60247964D01*
X104477096Y-60307590D01*
X104477093Y-60307592D01*
X104392775Y-60391910D01*
X104392773Y-60391913D01*
X104333147Y-60495185D01*
X104308006Y-60589015D01*
X104302283Y-60610375D01*
X104302283Y-60729625D01*
X104310466Y-60760166D01*
X104333147Y-60844814D01*
X104358258Y-60888306D01*
X104392773Y-60948087D01*
X104477096Y-61032410D01*
X104477098Y-61032411D01*
X104477563Y-61032768D01*
X104477858Y-61033172D01*
X104482843Y-61038157D01*
X104482066Y-61038933D01*
X104518770Y-61089193D01*
X104526083Y-61131148D01*
X104526083Y-62838563D01*
X104516645Y-62886014D01*
X104514053Y-62892269D01*
X104502283Y-62951445D01*
X104502283Y-62951449D01*
X104502283Y-62951450D01*
X104502283Y-63766418D01*
X104514055Y-63825602D01*
X104558900Y-63892717D01*
X104626015Y-63937562D01*
X104685199Y-63949334D01*
X104685200Y-63949334D01*
X104825166Y-63949334D01*
X104825167Y-63949334D01*
X104884351Y-63937562D01*
X104886290Y-63936266D01*
X104891161Y-63934740D01*
X104895632Y-63932889D01*
X104895797Y-63933288D01*
X104952965Y-63915386D01*
X105020346Y-63933868D01*
X105024049Y-63936248D01*
X105026015Y-63937562D01*
X105085199Y-63949334D01*
X105085200Y-63949334D01*
X105225166Y-63949334D01*
X105225167Y-63949334D01*
X105284351Y-63937562D01*
X105286290Y-63936266D01*
X105291161Y-63934740D01*
X105295632Y-63932889D01*
X105295797Y-63933288D01*
X105352965Y-63915386D01*
X105420346Y-63933868D01*
X105424049Y-63936248D01*
X105426015Y-63937562D01*
X105485199Y-63949334D01*
X105485200Y-63949334D01*
X105625166Y-63949334D01*
X105625167Y-63949334D01*
X105684351Y-63937562D01*
X105686290Y-63936266D01*
X105691161Y-63934740D01*
X105695632Y-63932889D01*
X105695797Y-63933288D01*
X105752965Y-63915386D01*
X105772083Y-63916523D01*
X105800347Y-63920411D01*
X105826015Y-63937562D01*
X105885199Y-63949334D01*
X106010573Y-63949334D01*
X106018983Y-63950491D01*
X106043420Y-63961472D01*
X106069122Y-63969019D01*
X106074801Y-63975573D01*
X106082714Y-63979129D01*
X106097336Y-64001580D01*
X106114877Y-64021823D01*
X106117061Y-64031865D01*
X106120846Y-64037676D01*
X106120918Y-64049593D01*
X106126083Y-64073334D01*
X106126083Y-64100754D01*
X106131748Y-64114430D01*
X106160961Y-64184958D01*
X106670225Y-64694222D01*
X106696179Y-64704972D01*
X106750583Y-64748813D01*
X106772649Y-64815107D01*
X106755370Y-64882806D01*
X106704234Y-64930417D01*
X106648728Y-64943534D01*
X105162515Y-64943534D01*
X105162492Y-64943536D01*
X105136936Y-64946500D01*
X105136933Y-64946501D01*
X105032318Y-64992692D01*
X105032310Y-64992698D01*
X104951447Y-65073561D01*
X104951443Y-65073568D01*
X104905250Y-65178182D01*
X104905250Y-65178184D01*
X104902283Y-65203757D01*
X104902283Y-68389101D01*
X104902285Y-68389124D01*
X104905249Y-68414680D01*
X104905250Y-68414683D01*
X104951441Y-68519298D01*
X104951444Y-68519302D01*
X104951445Y-68519304D01*
X105032313Y-68600172D01*
X105136934Y-68646367D01*
X105162508Y-68649334D01*
X106327309Y-68649333D01*
X106394346Y-68669018D01*
X106440101Y-68721821D01*
X106450045Y-68790980D01*
X106421020Y-68854536D01*
X106414988Y-68861014D01*
X105760963Y-69515039D01*
X105760960Y-69515044D01*
X105757008Y-69524585D01*
X105745444Y-69552506D01*
X105744824Y-69554002D01*
X105744822Y-69554006D01*
X105739444Y-69566989D01*
X105695602Y-69621391D01*
X105629308Y-69643455D01*
X105624884Y-69643534D01*
X105485199Y-69643534D01*
X105465471Y-69647458D01*
X105426013Y-69655306D01*
X105424072Y-69656604D01*
X105419196Y-69658130D01*
X105414734Y-69659979D01*
X105414568Y-69659579D01*
X105357394Y-69677481D01*
X105290014Y-69658995D01*
X105286294Y-69656604D01*
X105284352Y-69655306D01*
X105254759Y-69649420D01*
X105225167Y-69643534D01*
X105085199Y-69643534D01*
X105065471Y-69647458D01*
X105026013Y-69655306D01*
X105024072Y-69656604D01*
X105019196Y-69658130D01*
X105014734Y-69659979D01*
X105014568Y-69659579D01*
X104957394Y-69677481D01*
X104890014Y-69658995D01*
X104886294Y-69656604D01*
X104884352Y-69655306D01*
X104854759Y-69649420D01*
X104825167Y-69643534D01*
X104685199Y-69643534D01*
X104665471Y-69647458D01*
X104626013Y-69655306D01*
X104624072Y-69656604D01*
X104619196Y-69658130D01*
X104614734Y-69659979D01*
X104614568Y-69659579D01*
X104557394Y-69677481D01*
X104490014Y-69658995D01*
X104486294Y-69656604D01*
X104484352Y-69655306D01*
X104454759Y-69649420D01*
X104425167Y-69643534D01*
X104285199Y-69643534D01*
X104226015Y-69655306D01*
X104158900Y-69700151D01*
X104114055Y-69767266D01*
X104102283Y-69826450D01*
X104102283Y-70641418D01*
X104114055Y-70700602D01*
X104114057Y-70700605D01*
X104116643Y-70706848D01*
X104118270Y-70715027D01*
X104121060Y-70719369D01*
X104126083Y-70754304D01*
X104126083Y-70908173D01*
X104106398Y-70975212D01*
X104053594Y-71020967D01*
X103984436Y-71030911D01*
X103952001Y-71021609D01*
X103948226Y-71019942D01*
X103948221Y-71019941D01*
X103923735Y-71017100D01*
X103923734Y-71017100D01*
X103556266Y-71017100D01*
X103556264Y-71017100D01*
X103531778Y-71019941D01*
X103531776Y-71019941D01*
X103431607Y-71064170D01*
X103431602Y-71064173D01*
X103354173Y-71141602D01*
X103354170Y-71141607D01*
X103309941Y-71241776D01*
X103309941Y-71241778D01*
X103307100Y-71266264D01*
X103307100Y-71693745D01*
X103307304Y-71695498D01*
X103307227Y-71695942D01*
X103307307Y-71697317D01*
X103306988Y-71697335D01*
X103295475Y-71764359D01*
X103248295Y-71815894D01*
X103216224Y-71829560D01*
X103129911Y-71852688D01*
X103129909Y-71852688D01*
X103129909Y-71852689D01*
X103026637Y-71912314D01*
X103026634Y-71912316D01*
X102942316Y-71996634D01*
X102942314Y-71996637D01*
X102882688Y-72099909D01*
X102859352Y-72187005D01*
X102851824Y-72215099D01*
X102851824Y-72334349D01*
X102858511Y-72359306D01*
X102882688Y-72449538D01*
X102902479Y-72483816D01*
X102942314Y-72552811D01*
X102942316Y-72552813D01*
X103026638Y-72637135D01*
X103031470Y-72640843D01*
X103072672Y-72697271D01*
X103076825Y-72767017D01*
X103063369Y-72801216D01*
X103058515Y-72809625D01*
X103012354Y-72889575D01*
X102981490Y-73004765D01*
X102981490Y-73124014D01*
X103012354Y-73239204D01*
X103037738Y-73283169D01*
X103071980Y-73342477D01*
X103156303Y-73426800D01*
X103259577Y-73486426D01*
X103374765Y-73517290D01*
X103374767Y-73517290D01*
X103494013Y-73517290D01*
X103494015Y-73517290D01*
X103609203Y-73486426D01*
X103712477Y-73426800D01*
X103796800Y-73342477D01*
X103856426Y-73239203D01*
X103887290Y-73124015D01*
X103887290Y-73004765D01*
X103887290Y-72996637D01*
X103888697Y-72996637D01*
X103898119Y-72936217D01*
X103922612Y-72901384D01*
X104196232Y-72627764D01*
X104314403Y-72509593D01*
X104375725Y-72476109D01*
X104445417Y-72481093D01*
X104501350Y-72522965D01*
X104525767Y-72588429D01*
X104526083Y-72597275D01*
X104526083Y-73399959D01*
X104506398Y-73466998D01*
X104489764Y-73487640D01*
X102792989Y-75184415D01*
X102731666Y-75217900D01*
X102705308Y-75220734D01*
X95856211Y-75220734D01*
X95838773Y-75227957D01*
X95821334Y-75235181D01*
X95772008Y-75255612D01*
X95772007Y-75255613D01*
X94507967Y-76519652D01*
X94460963Y-76566656D01*
X94460958Y-76566664D01*
X94426084Y-76650860D01*
X94426083Y-76650865D01*
X94426083Y-76742006D01*
X94426642Y-76743354D01*
X94436083Y-76790811D01*
X94436083Y-78082861D01*
X94416398Y-78149900D01*
X94363594Y-78195655D01*
X94331482Y-78205334D01*
X94289131Y-78212041D01*
X94175410Y-78269985D01*
X94175406Y-78269988D01*
X94085171Y-78360223D01*
X94085168Y-78360227D01*
X94027224Y-78473949D01*
X94012283Y-78568286D01*
X92778083Y-78568286D01*
X92763141Y-78473949D01*
X92763140Y-78473947D01*
X92763140Y-78473945D01*
X92705199Y-78360229D01*
X92705197Y-78360227D01*
X92705194Y-78360223D01*
X92614959Y-78269988D01*
X92614955Y-78269985D01*
X92614954Y-78269984D01*
X92501238Y-78212043D01*
X92501237Y-78212042D01*
X92501234Y-78212041D01*
X92458884Y-78205334D01*
X92395750Y-78175404D01*
X92358819Y-78116093D01*
X92354283Y-78082861D01*
X92354283Y-77521074D01*
X92373968Y-77454035D01*
X92390598Y-77433397D01*
X92853463Y-76970531D01*
X92914786Y-76937047D01*
X92973236Y-76938437D01*
X93027209Y-76952900D01*
X93027211Y-76952900D01*
X93172788Y-76952900D01*
X93172791Y-76952900D01*
X93313411Y-76915221D01*
X93439489Y-76842430D01*
X93542430Y-76739489D01*
X93615221Y-76613411D01*
X93652900Y-76472791D01*
X93652900Y-76327209D01*
X93638438Y-76273236D01*
X93640101Y-76203387D01*
X93670530Y-76153465D01*
X94284221Y-75539775D01*
X94319100Y-75455571D01*
X94319100Y-74738965D01*
X94338785Y-74671926D01*
X94348853Y-74658383D01*
X94367195Y-74636930D01*
X94390521Y-74626631D01*
X94466631Y-74550521D01*
X94493920Y-74488715D01*
X94505753Y-74474877D01*
X94520382Y-74465338D01*
X94531652Y-74451996D01*
X94549042Y-74446650D01*
X94564281Y-74436715D01*
X94581744Y-74436599D01*
X94598438Y-74431469D01*
X94615956Y-74436374D01*
X94634149Y-74436254D01*
X94648902Y-74445598D01*
X94665720Y-74450307D01*
X94677805Y-74463904D01*
X94693175Y-74473639D01*
X94700534Y-74489477D01*
X94712137Y-74502531D01*
X94713434Y-74505373D01*
X94728434Y-74539345D01*
X94733369Y-74550521D01*
X94809479Y-74626631D01*
X94907943Y-74670107D01*
X94932016Y-74672900D01*
X94932017Y-74672900D01*
X95287983Y-74672900D01*
X95287984Y-74672900D01*
X95312057Y-74670107D01*
X95410521Y-74626631D01*
X95486631Y-74550521D01*
X95491566Y-74539343D01*
X95536651Y-74485968D01*
X95603437Y-74465440D01*
X95670719Y-74484278D01*
X95717136Y-74536501D01*
X95718414Y-74539300D01*
X95723369Y-74550521D01*
X95799479Y-74626631D01*
X95897943Y-74670107D01*
X95922016Y-74672900D01*
X95922017Y-74672900D01*
X96277983Y-74672900D01*
X96277984Y-74672900D01*
X96302057Y-74670107D01*
X96400521Y-74626631D01*
X96476631Y-74550521D01*
X96496566Y-74505373D01*
X96541652Y-74451996D01*
X96608438Y-74431469D01*
X96675720Y-74450307D01*
X96722137Y-74502531D01*
X96723434Y-74505373D01*
X96738434Y-74539345D01*
X96743369Y-74550521D01*
X96819479Y-74626631D01*
X96917943Y-74670107D01*
X96942016Y-74672900D01*
X97217542Y-74672900D01*
X97284581Y-74692585D01*
X97290060Y-74696316D01*
X97298159Y-74702155D01*
X97367060Y-74771056D01*
X97416385Y-74791486D01*
X97451263Y-74805934D01*
X101116898Y-74805934D01*
X101116899Y-74805934D01*
X101116900Y-74805934D01*
X101141562Y-74795718D01*
X101201104Y-74771056D01*
X102324405Y-73647754D01*
X102347587Y-73591788D01*
X102359283Y-73563551D01*
X102359283Y-71001148D01*
X102378968Y-70934109D01*
X102402690Y-70908324D01*
X102402523Y-70908157D01*
X102406548Y-70904131D01*
X102407803Y-70902768D01*
X102408263Y-70902413D01*
X102408270Y-70902410D01*
X102492593Y-70818087D01*
X102552219Y-70714813D01*
X102583083Y-70599625D01*
X102583083Y-70480375D01*
X102552219Y-70365187D01*
X102492593Y-70261913D01*
X102440827Y-70210147D01*
X102436488Y-70202201D01*
X102429241Y-70196776D01*
X102420006Y-70172016D01*
X102407342Y-70148824D01*
X102407987Y-70139794D01*
X102404824Y-70131312D01*
X102410440Y-70105491D01*
X102412326Y-70079132D01*
X102418144Y-70070078D01*
X102419676Y-70063039D01*
X102440824Y-70034788D01*
X102613760Y-69861853D01*
X102675083Y-69828368D01*
X102701441Y-69825534D01*
X102797312Y-69825534D01*
X102844766Y-69834973D01*
X102851011Y-69837559D01*
X102851015Y-69837562D01*
X102910199Y-69849334D01*
X102910200Y-69849334D01*
X103768517Y-69849334D01*
X103884799Y-69733052D01*
X103884805Y-69733045D01*
X103908082Y-69676848D01*
X103908083Y-69676838D01*
X103908083Y-69526450D01*
X103896311Y-69467266D01*
X103895015Y-69465326D01*
X103893489Y-69460455D01*
X103891638Y-69455985D01*
X103892037Y-69455819D01*
X103874135Y-69398652D01*
X103892617Y-69331271D01*
X103894997Y-69327567D01*
X103896311Y-69325602D01*
X103908083Y-69266418D01*
X103908083Y-69126450D01*
X103896311Y-69067266D01*
X103895015Y-69065326D01*
X103893489Y-69060455D01*
X103891638Y-69055985D01*
X103892037Y-69055819D01*
X103874135Y-68998652D01*
X103892617Y-68931271D01*
X103894997Y-68927567D01*
X103896311Y-68925602D01*
X103908083Y-68866418D01*
X103908083Y-68726450D01*
X103896311Y-68667266D01*
X103895015Y-68665326D01*
X103893489Y-68660455D01*
X103891638Y-68655985D01*
X103892037Y-68655819D01*
X103874135Y-68598652D01*
X103892617Y-68531271D01*
X103894997Y-68527567D01*
X103896311Y-68525602D01*
X103908083Y-68466418D01*
X103908083Y-68326450D01*
X103896311Y-68267266D01*
X103895015Y-68265326D01*
X103893489Y-68260455D01*
X103891638Y-68255985D01*
X103892037Y-68255819D01*
X103874135Y-68198652D01*
X103892617Y-68131271D01*
X103894997Y-68127567D01*
X103896311Y-68125602D01*
X103908083Y-68066418D01*
X103908083Y-67926450D01*
X103896311Y-67867266D01*
X103895015Y-67865326D01*
X103893489Y-67860455D01*
X103891638Y-67855985D01*
X103892037Y-67855819D01*
X103874135Y-67798652D01*
X103892617Y-67731271D01*
X103894997Y-67727567D01*
X103896311Y-67725602D01*
X103908083Y-67666418D01*
X103908083Y-67526450D01*
X103896311Y-67467266D01*
X103851466Y-67400151D01*
X103784351Y-67355306D01*
X103725167Y-67343534D01*
X102910199Y-67343534D01*
X102910186Y-67343534D01*
X102910166Y-67343536D01*
X102910155Y-67343534D01*
X102904108Y-67343534D01*
X102904108Y-67342385D01*
X102841523Y-67330505D01*
X102810354Y-67307812D01*
X102327057Y-66824515D01*
X102293572Y-66763192D01*
X102298556Y-66693500D01*
X102340428Y-66637567D01*
X102405892Y-66613150D01*
X102414738Y-66612834D01*
X102776392Y-66612834D01*
X102843431Y-66632519D01*
X102845281Y-66633731D01*
X102851014Y-66637561D01*
X102851013Y-66637561D01*
X102851015Y-66637562D01*
X102910199Y-66649334D01*
X102910200Y-66649334D01*
X103725166Y-66649334D01*
X103725167Y-66649334D01*
X103784351Y-66637562D01*
X103851466Y-66592717D01*
X103896311Y-66525602D01*
X103908083Y-66466418D01*
X103908083Y-66326450D01*
X103896311Y-66267266D01*
X103895015Y-66265326D01*
X103893489Y-66260455D01*
X103891638Y-66255985D01*
X103892037Y-66255819D01*
X103874135Y-66198652D01*
X103892617Y-66131271D01*
X103894997Y-66127567D01*
X103896311Y-66125602D01*
X103908083Y-66066418D01*
X103908083Y-65926450D01*
X103896311Y-65867266D01*
X103895015Y-65865326D01*
X103893489Y-65860455D01*
X103891638Y-65855985D01*
X103892037Y-65855819D01*
X103874135Y-65798652D01*
X103892617Y-65731271D01*
X103894997Y-65727567D01*
X103896311Y-65725602D01*
X103908083Y-65666418D01*
X103908083Y-65526450D01*
X103896311Y-65467266D01*
X103851466Y-65400151D01*
X103784351Y-65355306D01*
X103725167Y-65343534D01*
X102910199Y-65343534D01*
X102895514Y-65346455D01*
X102851013Y-65355306D01*
X102845281Y-65359137D01*
X102824289Y-65365709D01*
X102805197Y-65376642D01*
X102779833Y-65379628D01*
X102778603Y-65380014D01*
X102777990Y-65379845D01*
X102776392Y-65380034D01*
X102337431Y-65380034D01*
X102270392Y-65360349D01*
X102249750Y-65343715D01*
X101010469Y-64104434D01*
X100978375Y-64048845D01*
X100972036Y-64025187D01*
X100912410Y-63921913D01*
X100828087Y-63837590D01*
X100776450Y-63807777D01*
X100724814Y-63777964D01*
X100631271Y-63752900D01*
X100609625Y-63747100D01*
X100490375Y-63747100D01*
X100375185Y-63777964D01*
X100271913Y-63837590D01*
X100271910Y-63837592D01*
X100212222Y-63897281D01*
X100150899Y-63930766D01*
X100124541Y-63933600D01*
X99225997Y-63933600D01*
X99158958Y-63913915D01*
X99138316Y-63897281D01*
X98954218Y-63713183D01*
X98920733Y-63651860D01*
X98917899Y-63625502D01*
X98917899Y-63314945D01*
X98915590Y-63303334D01*
X98909028Y-63270342D01*
X98875234Y-63219766D01*
X98875232Y-63219765D01*
X98870898Y-63213278D01*
X98865246Y-63195229D01*
X98855023Y-63179321D01*
X98850571Y-63148363D01*
X98850020Y-63146601D01*
X98850000Y-63144386D01*
X98850000Y-62955614D01*
X98869685Y-62888575D01*
X98870898Y-62886723D01*
X98875621Y-62879655D01*
X98909028Y-62829658D01*
X98909028Y-62829657D01*
X98915813Y-62819503D01*
X98919513Y-62821975D01*
X98948382Y-62786198D01*
X99014691Y-62764176D01*
X99019037Y-62764100D01*
X99216222Y-62764100D01*
X99283261Y-62783785D01*
X99329016Y-62836589D01*
X99337839Y-62863909D01*
X99340971Y-62879655D01*
X99340973Y-62879661D01*
X99374765Y-62930233D01*
X99374766Y-62930234D01*
X99425342Y-62964028D01*
X99425343Y-62964028D01*
X99425345Y-62964029D01*
X99447642Y-62968464D01*
X99469943Y-62972900D01*
X100030056Y-62972899D01*
X100074658Y-62964028D01*
X100125234Y-62930234D01*
X100147236Y-62897305D01*
X100200844Y-62852502D01*
X100270168Y-62843792D01*
X100333197Y-62873945D01*
X100338018Y-62878515D01*
X100421913Y-62962410D01*
X100511348Y-63014046D01*
X100515087Y-63016205D01*
X100525187Y-63022036D01*
X100640375Y-63052900D01*
X100640377Y-63052900D01*
X100759623Y-63052900D01*
X100759625Y-63052900D01*
X100874813Y-63022036D01*
X100884913Y-63016205D01*
X100889338Y-63013649D01*
X100934899Y-62987344D01*
X101002798Y-62970871D01*
X101068826Y-62993722D01*
X101112017Y-63048643D01*
X101120900Y-63094731D01*
X101120900Y-63572440D01*
X101128079Y-63589771D01*
X101155778Y-63656644D01*
X102489790Y-64990656D01*
X102489795Y-64990658D01*
X102547110Y-65014399D01*
X102547111Y-65014399D01*
X102573991Y-65025533D01*
X102573992Y-65025533D01*
X102573994Y-65025534D01*
X102573995Y-65025534D01*
X102665135Y-65025534D01*
X102797312Y-65025534D01*
X102830262Y-65032088D01*
X102838286Y-65032499D01*
X102840571Y-65034138D01*
X102844766Y-65034973D01*
X102851011Y-65037559D01*
X102851015Y-65037562D01*
X102910199Y-65049334D01*
X102910200Y-65049334D01*
X103725166Y-65049334D01*
X103725167Y-65049334D01*
X103784351Y-65037562D01*
X103851466Y-64992717D01*
X103896311Y-64925602D01*
X103908083Y-64866418D01*
X103908083Y-64726450D01*
X103896311Y-64667266D01*
X103895015Y-64665326D01*
X103893489Y-64660455D01*
X103891638Y-64655985D01*
X103892037Y-64655819D01*
X103874135Y-64598652D01*
X103892617Y-64531271D01*
X103894997Y-64527567D01*
X103896311Y-64525602D01*
X103908083Y-64466418D01*
X103908083Y-64326450D01*
X103896311Y-64267266D01*
X103895015Y-64265326D01*
X103893489Y-64260455D01*
X103891638Y-64255985D01*
X103892037Y-64255819D01*
X103874135Y-64198652D01*
X103892617Y-64131271D01*
X103894997Y-64127567D01*
X103896311Y-64125602D01*
X103908083Y-64066418D01*
X103908083Y-63883100D01*
X103791801Y-63766818D01*
X103791794Y-63766812D01*
X103791793Y-63766811D01*
X103752683Y-63750612D01*
X103735597Y-63743535D01*
X103735599Y-63743535D01*
X103735594Y-63743534D01*
X103735587Y-63743534D01*
X102918893Y-63743534D01*
X102889452Y-63734889D01*
X102859466Y-63728366D01*
X102854450Y-63724611D01*
X102851854Y-63723849D01*
X102831212Y-63707215D01*
X102728219Y-63604222D01*
X102694734Y-63542899D01*
X102691900Y-63516541D01*
X102691900Y-62585369D01*
X102711585Y-62518330D01*
X102764389Y-62472575D01*
X102830195Y-62462196D01*
X102836254Y-62462899D01*
X102836264Y-62462899D01*
X102836266Y-62462900D01*
X102836267Y-62462900D01*
X103203733Y-62462900D01*
X103203734Y-62462900D01*
X103228221Y-62460059D01*
X103328396Y-62415828D01*
X103405828Y-62338396D01*
X103450059Y-62238221D01*
X103452900Y-62213734D01*
X103452900Y-61786266D01*
X103450059Y-61761779D01*
X103449323Y-61760113D01*
X103417693Y-61688477D01*
X103405828Y-61661604D01*
X103328396Y-61584172D01*
X103328391Y-61584167D01*
X103326816Y-61583088D01*
X103324613Y-61580389D01*
X103321281Y-61577057D01*
X103315697Y-61574507D01*
X103300455Y-61550790D01*
X103282637Y-61528959D01*
X103280898Y-61520358D01*
X103277923Y-61515729D01*
X103272900Y-61480794D01*
X103272900Y-61369204D01*
X103292585Y-61302165D01*
X103326828Y-61266901D01*
X103328388Y-61265831D01*
X103328396Y-61265828D01*
X103405828Y-61188396D01*
X103450059Y-61088221D01*
X103452900Y-61063734D01*
X103452900Y-60636266D01*
X103450059Y-60611779D01*
X103448365Y-60607943D01*
X103415695Y-60533951D01*
X103405828Y-60511604D01*
X103328396Y-60434172D01*
X103328391Y-60434167D01*
X103326816Y-60433088D01*
X103324613Y-60430389D01*
X103321281Y-60427057D01*
X103315697Y-60424507D01*
X103300455Y-60400790D01*
X103282637Y-60378959D01*
X103280898Y-60370358D01*
X103277923Y-60365729D01*
X103272900Y-60330794D01*
X103272900Y-60248959D01*
X103292585Y-60181920D01*
X103309219Y-60161278D01*
X103333840Y-60136657D01*
X103372410Y-60098087D01*
X103432036Y-59994813D01*
X103462900Y-59879625D01*
X103462900Y-59760375D01*
X103432036Y-59645187D01*
X103372410Y-59541913D01*
X103288087Y-59457590D01*
X103202563Y-59408212D01*
X103184814Y-59397964D01*
X103125521Y-59382077D01*
X103069625Y-59367100D01*
X102950375Y-59367100D01*
X102835185Y-59397964D01*
X102731913Y-59457590D01*
X102731910Y-59457592D01*
X102647592Y-59541910D01*
X102647590Y-59541913D01*
X102587964Y-59645185D01*
X102566529Y-59725185D01*
X102557100Y-59760375D01*
X102557100Y-59879625D01*
X102569211Y-59924826D01*
X102587964Y-59994814D01*
X102604482Y-60023423D01*
X102647590Y-60098087D01*
X102647592Y-60098089D01*
X102730781Y-60181278D01*
X102745484Y-60208205D01*
X102762077Y-60234024D01*
X102762968Y-60240224D01*
X102764266Y-60242601D01*
X102767100Y-60268959D01*
X102767100Y-60330794D01*
X102747415Y-60397833D01*
X102713184Y-60433088D01*
X102711608Y-60434167D01*
X102634171Y-60511604D01*
X102629058Y-60523186D01*
X102583973Y-60576562D01*
X102517186Y-60597090D01*
X102515624Y-60597100D01*
X102284376Y-60597100D01*
X102217337Y-60577415D01*
X102171582Y-60524611D01*
X102170942Y-60523186D01*
X102165828Y-60511604D01*
X102088397Y-60434173D01*
X102088396Y-60434172D01*
X102088393Y-60434170D01*
X102088392Y-60434170D01*
X101988222Y-60389941D01*
X101963735Y-60387100D01*
X101963734Y-60387100D01*
X101596266Y-60387100D01*
X101596264Y-60387100D01*
X101571778Y-60389941D01*
X101571776Y-60389941D01*
X101471607Y-60434170D01*
X101471602Y-60434173D01*
X101387681Y-60518095D01*
X101326358Y-60551580D01*
X101256666Y-60546596D01*
X101212319Y-60518095D01*
X101128397Y-60434173D01*
X101128396Y-60434172D01*
X101128393Y-60434170D01*
X101128392Y-60434170D01*
X101028222Y-60389941D01*
X101003735Y-60387100D01*
X101003734Y-60387100D01*
X100636266Y-60387100D01*
X100636264Y-60387100D01*
X100611778Y-60389941D01*
X100611776Y-60389941D01*
X100511607Y-60434170D01*
X100511602Y-60434173D01*
X100434173Y-60511602D01*
X100434169Y-60511608D01*
X100424304Y-60533951D01*
X100379218Y-60587327D01*
X100312432Y-60607854D01*
X100245150Y-60589015D01*
X100198733Y-60536792D01*
X100197464Y-60534014D01*
X100186631Y-60509479D01*
X100110521Y-60433369D01*
X100095603Y-60426782D01*
X100012058Y-60389893D01*
X99987985Y-60387100D01*
X99987984Y-60387100D01*
X99632016Y-60387100D01*
X99632014Y-60387100D01*
X99607942Y-60389893D01*
X99607940Y-60389893D01*
X99509478Y-60433369D01*
X99433369Y-60509478D01*
X99389893Y-60607940D01*
X99389893Y-60607942D01*
X99387100Y-60632014D01*
X99387100Y-61087985D01*
X99389893Y-61112057D01*
X99389893Y-61112059D01*
X99433369Y-61210521D01*
X99509479Y-61286631D01*
X99607943Y-61330107D01*
X99632016Y-61332900D01*
X99632017Y-61332900D01*
X99987983Y-61332900D01*
X99987984Y-61332900D01*
X100012057Y-61330107D01*
X100110521Y-61286631D01*
X100186631Y-61210521D01*
X100201852Y-61176048D01*
X100246935Y-61122674D01*
X100313720Y-61102145D01*
X100381003Y-61120982D01*
X100427420Y-61173205D01*
X100428719Y-61176048D01*
X100434169Y-61188391D01*
X100434170Y-61188392D01*
X100434172Y-61188396D01*
X100511604Y-61265828D01*
X100611779Y-61310059D01*
X100636266Y-61312900D01*
X100907541Y-61312900D01*
X100974580Y-61332585D01*
X100995222Y-61349219D01*
X101134442Y-61488438D01*
X101268579Y-61622575D01*
X101333025Y-61687021D01*
X101381529Y-61707112D01*
X101394319Y-61716845D01*
X101405888Y-61732557D01*
X101421083Y-61744802D01*
X101426179Y-61760113D01*
X101435747Y-61773107D01*
X101436985Y-61792580D01*
X101443148Y-61811096D01*
X101439177Y-61827054D01*
X101440181Y-61842836D01*
X101431263Y-61858865D01*
X101429259Y-61866920D01*
X101431076Y-61867673D01*
X101427963Y-61875188D01*
X101414071Y-61927033D01*
X101377706Y-61986693D01*
X101314858Y-62017221D01*
X101245483Y-62008926D01*
X101206616Y-61982619D01*
X100949777Y-61725780D01*
X100949775Y-61725778D01*
X100879667Y-61696739D01*
X100865571Y-61690900D01*
X100865570Y-61690900D01*
X98974000Y-61690900D01*
X98906961Y-61671215D01*
X98861206Y-61618411D01*
X98850000Y-61566900D01*
X98850000Y-61150000D01*
X97594703Y-61150000D01*
X97527664Y-61130315D01*
X97481909Y-61077511D01*
X97471965Y-61008353D01*
X97500990Y-60944797D01*
X97532700Y-60918614D01*
X97578087Y-60892410D01*
X97662410Y-60808087D01*
X97722036Y-60704813D01*
X97752900Y-60589625D01*
X97752900Y-60470375D01*
X97722036Y-60355187D01*
X97662410Y-60251913D01*
X97578087Y-60167590D01*
X97500496Y-60122792D01*
X97474814Y-60107964D01*
X97370668Y-60080059D01*
X97359625Y-60077100D01*
X97240375Y-60077100D01*
X97125185Y-60107964D01*
X97021913Y-60167590D01*
X97021910Y-60167592D01*
X96937592Y-60251910D01*
X96937590Y-60251913D01*
X96877964Y-60355185D01*
X96856802Y-60434167D01*
X96847100Y-60470375D01*
X96847100Y-60589625D01*
X96862532Y-60647219D01*
X96877964Y-60704814D01*
X96892289Y-60729624D01*
X96937590Y-60808087D01*
X97021913Y-60892410D01*
X97067298Y-60918613D01*
X97115513Y-60969181D01*
X97128735Y-61037788D01*
X97102767Y-61102653D01*
X97045852Y-61143180D01*
X97005297Y-61150000D01*
X95620878Y-61150000D01*
X95553839Y-61130315D01*
X95508084Y-61077511D01*
X95498140Y-61008353D01*
X95527165Y-60944797D01*
X95533197Y-60938319D01*
X96228916Y-60242601D01*
X97204298Y-59267219D01*
X97265621Y-59233734D01*
X97291979Y-59230900D01*
X101412415Y-59230900D01*
X101412417Y-59230901D01*
X101513027Y-59230901D01*
X101551528Y-59214952D01*
X101605979Y-59192399D01*
X101677121Y-59121257D01*
X101677121Y-59121254D01*
X101689036Y-59109340D01*
X101689039Y-59109335D01*
X102487999Y-58310375D01*
X104257100Y-58310375D01*
X104257100Y-58429624D01*
X104287964Y-58544814D01*
X104301522Y-58568296D01*
X104347590Y-58648087D01*
X104431913Y-58732410D01*
X104535187Y-58792036D01*
X104650375Y-58822900D01*
X104650377Y-58822900D01*
X104769623Y-58822900D01*
X104769625Y-58822900D01*
X104884813Y-58792036D01*
X104988087Y-58732410D01*
X105072410Y-58648087D01*
X105132036Y-58544813D01*
X105162900Y-58429625D01*
X105162900Y-58310375D01*
X105132036Y-58195187D01*
X105130136Y-58191897D01*
X105112701Y-58161699D01*
X105072410Y-58091913D01*
X104988087Y-58007590D01*
X104910799Y-57962967D01*
X104884814Y-57947964D01*
X104827219Y-57932532D01*
X104769625Y-57917100D01*
X104650375Y-57917100D01*
X104535185Y-57947964D01*
X104431913Y-58007590D01*
X104431910Y-58007592D01*
X104347592Y-58091910D01*
X104347590Y-58091913D01*
X104287964Y-58195185D01*
X104257100Y-58310375D01*
X102487999Y-58310375D01*
X103943253Y-56855122D01*
X103943257Y-56855121D01*
X104014399Y-56783979D01*
X104040688Y-56720511D01*
X104052901Y-56691027D01*
X104052901Y-56590417D01*
X104052901Y-56580428D01*
X104052900Y-56580414D01*
X104052900Y-54963333D01*
X104072585Y-54896294D01*
X104125389Y-54850539D01*
X104176896Y-54839333D01*
X104287223Y-54839333D01*
X104354261Y-54859018D01*
X104400016Y-54911822D01*
X104409960Y-54980980D01*
X104394609Y-55025333D01*
X104383148Y-55045183D01*
X104383148Y-55045184D01*
X104383147Y-55045186D01*
X104383147Y-55045187D01*
X104381958Y-55049624D01*
X104352283Y-55160375D01*
X104352283Y-55279624D01*
X104383147Y-55394814D01*
X104403655Y-55430334D01*
X104442773Y-55498087D01*
X104527096Y-55582410D01*
X104630370Y-55642036D01*
X104745558Y-55672900D01*
X104745560Y-55672900D01*
X104864806Y-55672900D01*
X104864808Y-55672900D01*
X104979996Y-55642036D01*
X105083270Y-55582410D01*
X105167593Y-55498087D01*
X105227219Y-55394813D01*
X105258083Y-55279625D01*
X105258083Y-55160375D01*
X105227219Y-55045187D01*
X105215756Y-55025333D01*
X105214742Y-55021155D01*
X105211838Y-55017987D01*
X105206580Y-54987513D01*
X105199283Y-54957436D01*
X105200689Y-54953370D01*
X105199959Y-54949135D01*
X105212013Y-54920650D01*
X105222134Y-54891408D01*
X105225514Y-54888749D01*
X105227190Y-54884790D01*
X105252740Y-54867337D01*
X105277054Y-54848217D01*
X105282338Y-54847121D01*
X105284885Y-54845382D01*
X105309490Y-54841491D01*
X105319665Y-54839382D01*
X105321395Y-54839333D01*
X105510239Y-54839333D01*
X105541249Y-54833165D01*
X105551702Y-54832872D01*
X105560563Y-54835206D01*
X105579372Y-54835206D01*
X105589319Y-54837184D01*
X105600126Y-54839334D01*
X105952083Y-54839333D01*
X106019122Y-54859017D01*
X106064877Y-54911821D01*
X106076083Y-54963333D01*
X106076083Y-56470751D01*
X106076084Y-56470756D01*
X106110958Y-56554952D01*
X106110959Y-56554954D01*
X106110961Y-56554958D01*
X106110962Y-56554959D01*
X106110963Y-56554960D01*
X106306373Y-56750370D01*
X106339858Y-56811693D01*
X106338467Y-56870144D01*
X106316513Y-56952078D01*
X106307100Y-56987209D01*
X106307100Y-57132791D01*
X106344779Y-57273411D01*
X106344780Y-57273412D01*
X106344780Y-57273413D01*
X106417567Y-57399485D01*
X106417569Y-57399488D01*
X106417570Y-57399489D01*
X106520511Y-57502430D01*
X106646589Y-57575221D01*
X106787209Y-57612900D01*
X106787211Y-57612900D01*
X106932788Y-57612900D01*
X106932791Y-57612900D01*
X107073411Y-57575221D01*
X107199489Y-57502430D01*
X107302430Y-57399489D01*
X107375221Y-57273411D01*
X107412900Y-57132791D01*
X107412900Y-56987209D01*
X107375221Y-56846589D01*
X107302430Y-56720511D01*
X107199489Y-56617570D01*
X107199488Y-56617569D01*
X107199485Y-56617567D01*
X107073413Y-56544780D01*
X107073412Y-56544779D01*
X107073411Y-56544779D01*
X106932791Y-56507100D01*
X106787209Y-56507100D01*
X106787202Y-56507100D01*
X106780567Y-56507973D01*
X106776804Y-56507385D01*
X106773236Y-56508717D01*
X106742548Y-56502041D01*
X106711533Y-56497202D01*
X106707604Y-56494439D01*
X106704964Y-56493865D01*
X106676714Y-56472717D01*
X106570600Y-56366603D01*
X106537117Y-56305282D01*
X106534283Y-56278924D01*
X106534283Y-55327209D01*
X108877100Y-55327209D01*
X108877100Y-55472791D01*
X108914779Y-55613411D01*
X108914780Y-55613412D01*
X108914780Y-55613413D01*
X108987567Y-55739485D01*
X108987569Y-55739488D01*
X108987570Y-55739489D01*
X109090511Y-55842430D01*
X109090512Y-55842431D01*
X109090514Y-55842432D01*
X109134181Y-55867643D01*
X109216589Y-55915221D01*
X109357209Y-55952900D01*
X109357211Y-55952900D01*
X109502788Y-55952900D01*
X109502791Y-55952900D01*
X109643411Y-55915221D01*
X109769489Y-55842430D01*
X109872430Y-55739489D01*
X109945221Y-55613411D01*
X109982900Y-55472791D01*
X109982900Y-55327209D01*
X109945221Y-55186589D01*
X109872430Y-55060511D01*
X109769489Y-54957570D01*
X109769488Y-54957569D01*
X109769485Y-54957567D01*
X109643413Y-54884780D01*
X109643412Y-54884779D01*
X109643411Y-54884779D01*
X109502791Y-54847100D01*
X109357209Y-54847100D01*
X109216589Y-54884779D01*
X109216587Y-54884780D01*
X109216586Y-54884780D01*
X109090514Y-54957567D01*
X109090509Y-54957571D01*
X108987571Y-55060509D01*
X108987567Y-55060514D01*
X108914780Y-55186586D01*
X108914780Y-55186587D01*
X108914779Y-55186589D01*
X108877100Y-55327209D01*
X106534283Y-55327209D01*
X106534283Y-54910477D01*
X106553968Y-54843438D01*
X106556575Y-54839544D01*
X106569949Y-54820366D01*
X106605417Y-54796668D01*
X106639211Y-54746092D01*
X106646178Y-54711064D01*
X106661025Y-54689777D01*
X106668851Y-54683497D01*
X106673501Y-54674608D01*
X106695642Y-54661999D01*
X106715520Y-54646050D01*
X106725499Y-54644998D01*
X106734217Y-54640034D01*
X106780431Y-54639208D01*
X106785005Y-54638727D01*
X106785773Y-54639113D01*
X106786925Y-54639093D01*
X106826317Y-54646930D01*
X106829993Y-54646930D01*
X106830047Y-54646934D01*
X106839291Y-54646934D01*
X106905155Y-54646934D01*
X106971047Y-54646938D01*
X106971062Y-54646934D01*
X107789291Y-54646934D01*
X107955155Y-54646934D01*
X108021075Y-54646934D01*
X108028923Y-54646934D01*
X108029617Y-54646887D01*
X108033992Y-54646888D01*
X108188640Y-54616136D01*
X108334318Y-54555807D01*
X108465427Y-54468217D01*
X108576930Y-54356733D01*
X108664542Y-54225639D01*
X108686935Y-54171591D01*
X108724896Y-54079974D01*
X108724896Y-54079973D01*
X108724897Y-54079971D01*
X108755674Y-53925329D01*
X108755675Y-53912354D01*
X108755683Y-53912326D01*
X108755683Y-53846377D01*
X108755691Y-53780599D01*
X108755690Y-53780595D01*
X108755691Y-53772589D01*
X108755683Y-53772451D01*
X108755683Y-52770934D01*
X108775368Y-52703895D01*
X108828172Y-52658140D01*
X108879683Y-52646934D01*
X114930683Y-52646934D01*
X114997722Y-52666619D01*
X115043477Y-52719423D01*
X115054683Y-52770934D01*
X115054683Y-55272489D01*
X115054680Y-55280578D01*
X115054675Y-55280599D01*
X115054676Y-55293375D01*
X115054676Y-55295160D01*
X115054660Y-55295214D01*
X115054675Y-55425328D01*
X115054675Y-55425329D01*
X115068028Y-55492428D01*
X115082514Y-55565219D01*
X115085450Y-55579969D01*
X115085450Y-55579971D01*
X115145796Y-55725632D01*
X115145797Y-55725634D01*
X115145799Y-55725638D01*
X115233405Y-55856735D01*
X115233407Y-55856737D01*
X115233408Y-55856738D01*
X115233410Y-55856741D01*
X115329426Y-55952750D01*
X115344901Y-55968224D01*
X115476003Y-56055822D01*
X115621674Y-56116164D01*
X115776317Y-56146930D01*
X115780000Y-56146930D01*
X115789279Y-56146930D01*
X115789291Y-56146934D01*
X115855154Y-56146934D01*
X115855157Y-56146934D01*
X115921047Y-56146938D01*
X115921051Y-56146936D01*
X115929099Y-56146937D01*
X115929162Y-56146934D01*
X115930683Y-56146934D01*
X115997722Y-56166619D01*
X116043477Y-56219423D01*
X116054683Y-56270934D01*
X116054683Y-70636676D01*
X116034998Y-70703715D01*
X115982194Y-70749470D01*
X115913036Y-70759414D01*
X115849480Y-70730389D01*
X115843002Y-70724357D01*
X115734969Y-70616324D01*
X115563003Y-70491385D01*
X115373597Y-70394878D01*
X115373596Y-70394877D01*
X115373595Y-70394877D01*
X115171426Y-70329188D01*
X115171424Y-70329187D01*
X115171423Y-70329187D01*
X115010140Y-70303642D01*
X114961470Y-70295934D01*
X114748896Y-70295934D01*
X114700225Y-70303642D01*
X114538943Y-70329187D01*
X114336768Y-70394878D01*
X114147362Y-70491385D01*
X113975396Y-70616324D01*
X113825073Y-70766647D01*
X113700134Y-70938613D01*
X113603627Y-71128019D01*
X113537936Y-71330194D01*
X113504683Y-71540147D01*
X113504683Y-71752720D01*
X113529960Y-71912316D01*
X113537937Y-71962677D01*
X113602015Y-72159889D01*
X113603627Y-72164848D01*
X113700134Y-72354254D01*
X113825073Y-72526220D01*
X113975396Y-72676543D01*
X114147362Y-72801482D01*
X114147364Y-72801483D01*
X114147367Y-72801485D01*
X114336771Y-72897991D01*
X114538940Y-72963680D01*
X114748896Y-72996934D01*
X114748897Y-72996934D01*
X114961469Y-72996934D01*
X114961470Y-72996934D01*
X115171426Y-72963680D01*
X115373595Y-72897991D01*
X115562999Y-72801485D01*
X115584972Y-72785520D01*
X115734969Y-72676543D01*
X115734971Y-72676540D01*
X115734975Y-72676538D01*
X115843002Y-72568511D01*
X115904325Y-72535026D01*
X115974017Y-72540010D01*
X116029950Y-72581882D01*
X116054367Y-72647346D01*
X116054683Y-72656192D01*
X116054683Y-81521934D01*
X116034998Y-81588973D01*
X115982194Y-81634728D01*
X115930683Y-81645934D01*
X91179683Y-81645934D01*
X91112644Y-81626249D01*
X91066889Y-81573445D01*
X91055683Y-81521934D01*
X91055683Y-72656192D01*
X91075368Y-72589153D01*
X91128172Y-72543398D01*
X91197330Y-72533454D01*
X91260886Y-72562479D01*
X91267364Y-72568511D01*
X91375396Y-72676543D01*
X91547362Y-72801482D01*
X91547364Y-72801483D01*
X91547367Y-72801485D01*
X91736771Y-72897991D01*
X91938940Y-72963680D01*
X92148896Y-72996934D01*
X92148897Y-72996934D01*
X92361469Y-72996934D01*
X92361470Y-72996934D01*
X92571426Y-72963680D01*
X92773595Y-72897991D01*
X92962999Y-72801485D01*
X92984972Y-72785520D01*
X93134969Y-72676543D01*
X93134971Y-72676540D01*
X93134975Y-72676538D01*
X93285287Y-72526226D01*
X93285289Y-72526222D01*
X93285292Y-72526220D01*
X93410231Y-72354254D01*
X93410230Y-72354254D01*
X93410234Y-72354250D01*
X93506740Y-72164846D01*
X93572429Y-71962677D01*
X93605683Y-71752721D01*
X93605683Y-71540147D01*
X93572429Y-71330191D01*
X93506740Y-71128022D01*
X93410234Y-70938618D01*
X93410232Y-70938615D01*
X93410231Y-70938613D01*
X93285292Y-70766647D01*
X93134969Y-70616324D01*
X92963003Y-70491385D01*
X92773597Y-70394878D01*
X92773596Y-70394877D01*
X92773595Y-70394877D01*
X92571426Y-70329188D01*
X92571424Y-70329187D01*
X92571423Y-70329187D01*
X92410140Y-70303642D01*
X92361470Y-70295934D01*
X92148896Y-70295934D01*
X92100225Y-70303642D01*
X91938943Y-70329187D01*
X91736768Y-70394878D01*
X91547362Y-70491385D01*
X91375396Y-70616324D01*
X91375392Y-70616328D01*
X91267364Y-70724357D01*
X91206041Y-70757842D01*
X91136349Y-70752858D01*
X91080416Y-70710986D01*
X91055999Y-70645522D01*
X91055683Y-70636676D01*
X91055683Y-68337209D01*
X92647100Y-68337209D01*
X92647100Y-68482791D01*
X92684779Y-68623411D01*
X92684780Y-68623412D01*
X92684780Y-68623413D01*
X92757567Y-68749485D01*
X92757569Y-68749488D01*
X92757570Y-68749489D01*
X92860511Y-68852430D01*
X92860512Y-68852431D01*
X92860514Y-68852432D01*
X92884739Y-68866418D01*
X92986589Y-68925221D01*
X93127209Y-68962900D01*
X93127211Y-68962900D01*
X93272788Y-68962900D01*
X93272791Y-68962900D01*
X93413411Y-68925221D01*
X93539489Y-68852430D01*
X93642430Y-68749489D01*
X93715221Y-68623411D01*
X93752900Y-68482791D01*
X93752900Y-68337209D01*
X93715221Y-68196589D01*
X93642430Y-68070511D01*
X93539489Y-67967570D01*
X93539488Y-67967569D01*
X93539485Y-67967567D01*
X93413413Y-67894780D01*
X93413412Y-67894779D01*
X93413411Y-67894779D01*
X93272791Y-67857100D01*
X93127209Y-67857100D01*
X92986589Y-67894779D01*
X92986587Y-67894780D01*
X92986586Y-67894780D01*
X92860514Y-67967567D01*
X92860509Y-67967571D01*
X92757571Y-68070509D01*
X92757567Y-68070514D01*
X92684780Y-68196586D01*
X92684780Y-68196587D01*
X92684779Y-68196589D01*
X92647100Y-68337209D01*
X91055683Y-68337209D01*
X91055683Y-67007209D01*
X91697100Y-67007209D01*
X91697100Y-67152791D01*
X91734779Y-67293411D01*
X91734780Y-67293412D01*
X91734780Y-67293413D01*
X91807567Y-67419485D01*
X91807569Y-67419488D01*
X91807570Y-67419489D01*
X91910511Y-67522430D01*
X91910512Y-67522431D01*
X91910514Y-67522432D01*
X91973550Y-67558825D01*
X92036589Y-67595221D01*
X92177209Y-67632900D01*
X92177211Y-67632900D01*
X92322788Y-67632900D01*
X92322791Y-67632900D01*
X92463411Y-67595221D01*
X92589489Y-67522430D01*
X92692430Y-67419489D01*
X92765221Y-67293411D01*
X92802900Y-67152791D01*
X92802900Y-67007209D01*
X92765221Y-66866589D01*
X92712237Y-66774818D01*
X92692432Y-66740514D01*
X92692428Y-66740509D01*
X92589490Y-66637571D01*
X92589485Y-66637567D01*
X92463413Y-66564780D01*
X92463412Y-66564779D01*
X92463411Y-66564779D01*
X92322791Y-66527100D01*
X92177209Y-66527100D01*
X92036589Y-66564779D01*
X92036587Y-66564780D01*
X92036586Y-66564780D01*
X91910514Y-66637567D01*
X91910509Y-66637571D01*
X91807571Y-66740509D01*
X91807567Y-66740514D01*
X91734780Y-66866586D01*
X91734780Y-66866587D01*
X91734779Y-66866589D01*
X91697100Y-67007209D01*
X91055683Y-67007209D01*
X91055683Y-62818286D01*
X91722100Y-62818286D01*
X91722100Y-63381713D01*
X91737041Y-63476050D01*
X91737042Y-63476053D01*
X91737043Y-63476055D01*
X91794984Y-63589771D01*
X91794985Y-63589772D01*
X91794988Y-63589776D01*
X91885223Y-63680011D01*
X91885227Y-63680014D01*
X91885229Y-63680016D01*
X91998945Y-63737957D01*
X91998947Y-63737957D01*
X91998949Y-63737958D01*
X92093287Y-63752900D01*
X92093292Y-63752900D01*
X92196100Y-63752900D01*
X92263139Y-63772585D01*
X92308894Y-63825389D01*
X92320100Y-63876900D01*
X92320100Y-64451575D01*
X92300415Y-64518614D01*
X92266025Y-64551404D01*
X92266960Y-64552622D01*
X92260508Y-64557572D01*
X92157571Y-64660509D01*
X92157567Y-64660514D01*
X92084780Y-64786586D01*
X92084780Y-64786587D01*
X92084779Y-64786589D01*
X92047100Y-64927209D01*
X92047100Y-65072791D01*
X92084779Y-65213411D01*
X92084780Y-65213412D01*
X92084780Y-65213413D01*
X92157567Y-65339485D01*
X92157569Y-65339488D01*
X92157570Y-65339489D01*
X92260511Y-65442430D01*
X92260512Y-65442431D01*
X92260514Y-65442432D01*
X92323550Y-65478825D01*
X92386589Y-65515221D01*
X92527209Y-65552900D01*
X92527211Y-65552900D01*
X92672788Y-65552900D01*
X92672791Y-65552900D01*
X92813411Y-65515221D01*
X92939489Y-65442430D01*
X93042430Y-65339489D01*
X93115221Y-65213411D01*
X93152900Y-65072791D01*
X93152900Y-64927209D01*
X93115221Y-64786589D01*
X93060432Y-64691692D01*
X93042432Y-64660514D01*
X93042428Y-64660509D01*
X92939491Y-64557572D01*
X92939489Y-64557570D01*
X92939486Y-64557568D01*
X92933040Y-64552622D01*
X92934295Y-64550986D01*
X92893684Y-64508395D01*
X92879900Y-64451575D01*
X92879900Y-63876900D01*
X92899585Y-63809861D01*
X92952389Y-63764106D01*
X93003900Y-63752900D01*
X93106713Y-63752900D01*
X93201050Y-63737958D01*
X93201050Y-63737957D01*
X93201055Y-63737957D01*
X93314771Y-63680016D01*
X93405016Y-63589771D01*
X93462957Y-63476055D01*
X93462958Y-63476050D01*
X93477900Y-63381713D01*
X93477900Y-62818286D01*
X93462958Y-62723949D01*
X93462957Y-62723947D01*
X93462957Y-62723945D01*
X93405016Y-62610229D01*
X93405014Y-62610227D01*
X93405011Y-62610223D01*
X93314776Y-62519988D01*
X93314772Y-62519985D01*
X93314771Y-62519984D01*
X93201055Y-62462043D01*
X93201053Y-62462042D01*
X93201050Y-62462041D01*
X93106713Y-62447100D01*
X93106708Y-62447100D01*
X92093292Y-62447100D01*
X92093287Y-62447100D01*
X91998949Y-62462041D01*
X91885227Y-62519985D01*
X91885223Y-62519988D01*
X91794988Y-62610223D01*
X91794985Y-62610227D01*
X91737041Y-62723949D01*
X91722100Y-62818286D01*
X91055683Y-62818286D01*
X91055683Y-56270934D01*
X91058228Y-56262265D01*
X91056940Y-56253325D01*
X91067917Y-56229267D01*
X91075368Y-56203895D01*
X91082194Y-56197979D01*
X91085945Y-56189761D01*
X91108187Y-56175456D01*
X91128172Y-56158140D01*
X91138666Y-56155855D01*
X91144711Y-56151968D01*
X91179567Y-56146950D01*
X91179644Y-56146934D01*
X91255155Y-56146934D01*
X91321075Y-56146934D01*
X91321239Y-56146889D01*
X91327908Y-56146887D01*
X91329578Y-56146887D01*
X91329585Y-56146889D01*
X91329613Y-56146887D01*
X91333992Y-56146888D01*
X91488640Y-56116136D01*
X91634318Y-56055807D01*
X91765427Y-55968217D01*
X91876930Y-55856733D01*
X91964542Y-55725639D01*
X91996217Y-55649191D01*
X92024896Y-55579974D01*
X92024896Y-55579973D01*
X92024897Y-55579971D01*
X92055674Y-55425329D01*
X92055675Y-55412354D01*
X92055683Y-55412326D01*
X92055683Y-55346377D01*
X92055691Y-55280599D01*
X92055690Y-55280595D01*
X92055691Y-55272589D01*
X92055683Y-55272451D01*
X92055683Y-52770934D01*
X92075368Y-52703895D01*
X92128172Y-52658140D01*
X92179683Y-52646934D01*
X93066592Y-52646934D01*
X93133631Y-52666619D01*
G37*
%TD.AperFunction*%
%TD*%
M02*
