%TF.GenerationSoftware,KiCad,Pcbnew,9.0.4*%
%TF.CreationDate,2025-09-18T11:34:16+02:00*%
%TF.ProjectId,rp2350_gpio_card,72703233-3530-45f6-9770-696f5f636172,X1*%
%TF.SameCoordinates,Original*%
%TF.FileFunction,Legend,Top*%
%TF.FilePolarity,Positive*%
%FSLAX46Y46*%
G04 Gerber Fmt 4.6, Leading zero omitted, Abs format (unit mm)*
G04 Created by KiCad (PCBNEW 9.0.4) date 2025-09-18 11:34:16*
%MOMM*%
%LPD*%
G01*
G04 APERTURE LIST*
G04 Aperture macros list*
%AMRoundRect*
0 Rectangle with rounded corners*
0 $1 Rounding radius*
0 $2 $3 $4 $5 $6 $7 $8 $9 X,Y pos of 4 corners*
0 Add a 4 corners polygon primitive as box body*
4,1,4,$2,$3,$4,$5,$6,$7,$8,$9,$2,$3,0*
0 Add four circle primitives for the rounded corners*
1,1,$1+$1,$2,$3*
1,1,$1+$1,$4,$5*
1,1,$1+$1,$6,$7*
1,1,$1+$1,$8,$9*
0 Add four rect primitives between the rounded corners*
20,1,$1+$1,$2,$3,$4,$5,0*
20,1,$1+$1,$4,$5,$6,$7,0*
20,1,$1+$1,$6,$7,$8,$9,0*
20,1,$1+$1,$8,$9,$2,$3,0*%
%AMFreePoly0*
4,1,18,-0.437500,0.050000,-0.433694,0.069134,-0.422855,0.085355,-0.406634,0.096194,-0.387500,0.100000,0.387500,0.100000,0.437500,0.050000,0.437500,-0.050000,0.433694,-0.069134,0.422855,-0.085355,0.406634,-0.096194,0.387500,-0.100000,-0.387500,-0.100000,-0.406634,-0.096194,-0.422855,-0.085355,-0.433694,-0.069134,-0.437500,-0.050000,-0.437500,0.050000,-0.437500,0.050000,$1*%
%AMFreePoly1*
4,1,18,-0.437500,0.050000,-0.433694,0.069134,-0.422855,0.085355,-0.406634,0.096194,-0.387500,0.100000,0.387500,0.100000,0.406634,0.096194,0.422855,0.085355,0.433694,0.069134,0.437500,0.050000,0.437500,-0.050000,0.387500,-0.100000,-0.387500,-0.100000,-0.406634,-0.096194,-0.422855,-0.085355,-0.433694,-0.069134,-0.437500,-0.050000,-0.437500,0.050000,-0.437500,0.050000,$1*%
%AMFreePoly2*
4,1,18,-0.100000,0.387500,-0.050000,0.437500,0.050000,0.437500,0.069134,0.433694,0.085355,0.422855,0.096194,0.406634,0.100000,0.387500,0.100000,-0.387500,0.096194,-0.406634,0.085355,-0.422855,0.069134,-0.433694,0.050000,-0.437500,-0.050000,-0.437500,-0.069134,-0.433694,-0.085355,-0.422855,-0.096194,-0.406634,-0.100000,-0.387500,-0.100000,0.387500,-0.100000,0.387500,$1*%
%AMFreePoly3*
4,1,18,-0.100000,0.387500,-0.096194,0.406634,-0.085355,0.422855,-0.069134,0.433694,-0.050000,0.437500,0.050000,0.437500,0.100000,0.387500,0.100000,-0.387500,0.096194,-0.406634,0.085355,-0.422855,0.069134,-0.433694,0.050000,-0.437500,-0.050000,-0.437500,-0.069134,-0.433694,-0.085355,-0.422855,-0.096194,-0.406634,-0.100000,-0.387500,-0.100000,0.387500,-0.100000,0.387500,$1*%
%AMFreePoly4*
4,1,18,-0.437500,0.050000,-0.433694,0.069134,-0.422855,0.085355,-0.406634,0.096194,-0.387500,0.100000,0.387500,0.100000,0.406634,0.096194,0.422855,0.085355,0.433694,0.069134,0.437500,0.050000,0.437500,-0.050000,0.433694,-0.069134,0.422855,-0.085355,0.406634,-0.096194,0.387500,-0.100000,-0.387500,-0.100000,-0.437500,-0.050000,-0.437500,0.050000,-0.437500,0.050000,$1*%
%AMFreePoly5*
4,1,18,-0.437500,0.050000,-0.387500,0.100000,0.387500,0.100000,0.406634,0.096194,0.422855,0.085355,0.433694,0.069134,0.437500,0.050000,0.437500,-0.050000,0.433694,-0.069134,0.422855,-0.085355,0.406634,-0.096194,0.387500,-0.100000,-0.387500,-0.100000,-0.406634,-0.096194,-0.422855,-0.085355,-0.433694,-0.069134,-0.437500,-0.050000,-0.437500,0.050000,-0.437500,0.050000,$1*%
%AMFreePoly6*
4,1,18,-0.100000,0.387500,-0.096194,0.406634,-0.085355,0.422855,-0.069134,0.433694,-0.050000,0.437500,0.050000,0.437500,0.069134,0.433694,0.085355,0.422855,0.096194,0.406634,0.100000,0.387500,0.100000,-0.387500,0.050000,-0.437500,-0.050000,-0.437500,-0.069134,-0.433694,-0.085355,-0.422855,-0.096194,-0.406634,-0.100000,-0.387500,-0.100000,0.387500,-0.100000,0.387500,$1*%
%AMFreePoly7*
4,1,18,-0.100000,0.387500,-0.096194,0.406634,-0.085355,0.422855,-0.069134,0.433694,-0.050000,0.437500,0.050000,0.437500,0.069134,0.433694,0.085355,0.422855,0.096194,0.406634,0.100000,0.387500,0.100000,-0.387500,0.096194,-0.406634,0.085355,-0.422855,0.069134,-0.433694,0.050000,-0.437500,-0.050000,-0.437500,-0.100000,-0.387500,-0.100000,0.387500,-0.100000,0.387500,$1*%
G04 Aperture macros list end*
%ADD10C,0.067397*%
%ADD11C,0.000000*%
%ADD12C,0.067349*%
%ADD13C,0.067351*%
%ADD14C,0.125000*%
%ADD15C,0.201600*%
%ADD16C,0.062500*%
%ADD17C,0.101600*%
%ADD18C,0.070000*%
%ADD19C,0.120000*%
%ADD20C,0.191421*%
%ADD21RoundRect,0.200000X0.200000X0.275000X-0.200000X0.275000X-0.200000X-0.275000X0.200000X-0.275000X0*%
%ADD22R,0.380000X1.000000*%
%ADD23R,0.700000X1.150000*%
%ADD24C,2.200000*%
%ADD25RoundRect,0.135000X0.185000X-0.135000X0.185000X0.135000X-0.185000X0.135000X-0.185000X-0.135000X0*%
%ADD26RoundRect,0.250000X0.475000X-0.250000X0.475000X0.250000X-0.475000X0.250000X-0.475000X-0.250000X0*%
%ADD27RoundRect,0.135000X-0.185000X0.135000X-0.185000X-0.135000X0.185000X-0.135000X0.185000X0.135000X0*%
%ADD28RoundRect,0.250000X0.450000X0.350000X-0.450000X0.350000X-0.450000X-0.350000X0.450000X-0.350000X0*%
%ADD29R,0.530000X0.470000*%
%ADD30RoundRect,0.140000X-0.140000X-0.170000X0.140000X-0.170000X0.140000X0.170000X-0.140000X0.170000X0*%
%ADD31RoundRect,0.250000X-0.250000X-0.475000X0.250000X-0.475000X0.250000X0.475000X-0.250000X0.475000X0*%
%ADD32RoundRect,0.140000X0.140000X0.170000X-0.140000X0.170000X-0.140000X-0.170000X0.140000X-0.170000X0*%
%ADD33RoundRect,0.250000X-0.250000X1.000000X-0.250000X-1.000000X0.250000X-1.000000X0.250000X1.000000X0*%
%ADD34RoundRect,0.135000X-0.135000X-0.185000X0.135000X-0.185000X0.135000X0.185000X-0.135000X0.185000X0*%
%ADD35RoundRect,0.150000X-0.150000X0.512500X-0.150000X-0.512500X0.150000X-0.512500X0.150000X0.512500X0*%
%ADD36RoundRect,0.140000X0.170000X-0.140000X0.170000X0.140000X-0.170000X0.140000X-0.170000X-0.140000X0*%
%ADD37RoundRect,0.250000X-0.475000X0.250000X-0.475000X-0.250000X0.475000X-0.250000X0.475000X0.250000X0*%
%ADD38RoundRect,0.125000X0.125000X-0.250000X0.125000X0.250000X-0.125000X0.250000X-0.125000X-0.250000X0*%
%ADD39R,4.300000X3.400000*%
%ADD40RoundRect,0.135000X0.135000X0.185000X-0.135000X0.185000X-0.135000X-0.185000X0.135000X-0.185000X0*%
%ADD41FreePoly0,90.000000*%
%ADD42RoundRect,0.050000X0.050000X-0.387500X0.050000X0.387500X-0.050000X0.387500X-0.050000X-0.387500X0*%
%ADD43FreePoly1,90.000000*%
%ADD44FreePoly2,90.000000*%
%ADD45RoundRect,0.050000X0.387500X-0.050000X0.387500X0.050000X-0.387500X0.050000X-0.387500X-0.050000X0*%
%ADD46FreePoly3,90.000000*%
%ADD47FreePoly4,90.000000*%
%ADD48FreePoly5,90.000000*%
%ADD49FreePoly6,90.000000*%
%ADD50FreePoly7,90.000000*%
%ADD51RoundRect,0.153000X1.547000X1.547000X-1.547000X1.547000X-1.547000X-1.547000X1.547000X-1.547000X0*%
%ADD52R,1.700000X0.700000*%
G04 APERTURE END LIST*
D10*
X108830298Y-57221235D02*
X108974117Y-56700678D01*
X109208195Y-56700678D01*
X108972133Y-57457463D01*
X108687471Y-57457463D01*
X108451409Y-56700678D01*
X108685487Y-56700678D01*
X108830298Y-57221235D01*
D11*
G36*
X109162357Y-57868051D02*
G01*
X109163169Y-57868113D01*
X109163969Y-57868215D01*
X109164756Y-57868355D01*
X109165529Y-57868534D01*
X109166288Y-57868749D01*
X109167031Y-57869001D01*
X109167757Y-57869287D01*
X109168465Y-57869607D01*
X109169154Y-57869960D01*
X109169824Y-57870345D01*
X109170473Y-57870761D01*
X109171099Y-57871207D01*
X109171703Y-57871681D01*
X109172284Y-57872184D01*
X109172839Y-57872713D01*
X109173368Y-57873268D01*
X109173871Y-57873848D01*
X109174345Y-57874452D01*
X109174791Y-57875079D01*
X109175207Y-57875728D01*
X109175592Y-57876397D01*
X109175945Y-57877087D01*
X109176265Y-57877795D01*
X109176551Y-57878521D01*
X109176803Y-57879264D01*
X109177018Y-57880022D01*
X109177197Y-57880796D01*
X109177337Y-57881583D01*
X109177439Y-57882383D01*
X109177501Y-57883195D01*
X109177522Y-57884018D01*
X109177522Y-58155230D01*
X109177501Y-58156052D01*
X109177439Y-58156864D01*
X109177337Y-58157664D01*
X109177197Y-58158452D01*
X109177018Y-58159225D01*
X109176803Y-58159984D01*
X109176551Y-58160727D01*
X109176265Y-58161453D01*
X109175945Y-58162161D01*
X109175592Y-58162850D01*
X109175207Y-58163520D01*
X109174791Y-58164168D01*
X109174345Y-58164795D01*
X109173871Y-58165399D01*
X109173368Y-58165979D01*
X109172839Y-58166534D01*
X109172284Y-58167064D01*
X109171703Y-58167566D01*
X109171099Y-58168041D01*
X109170473Y-58168487D01*
X109169824Y-58168902D01*
X109169154Y-58169287D01*
X109168465Y-58169640D01*
X109167757Y-58169961D01*
X109167031Y-58170247D01*
X109166288Y-58170498D01*
X109165529Y-58170714D01*
X109164756Y-58170892D01*
X109163969Y-58171033D01*
X109163169Y-58171134D01*
X109162357Y-58171196D01*
X109161534Y-58171217D01*
X109046799Y-58171217D01*
X109045976Y-58171196D01*
X109045164Y-58171134D01*
X109044364Y-58171033D01*
X109043577Y-58170892D01*
X109042803Y-58170714D01*
X109042045Y-58170498D01*
X109041302Y-58170247D01*
X109040576Y-58169961D01*
X109039868Y-58169640D01*
X109039178Y-58169287D01*
X109038509Y-58168902D01*
X109037860Y-58168487D01*
X109037233Y-58168041D01*
X109036630Y-58167566D01*
X109036049Y-58167064D01*
X109035494Y-58166534D01*
X109034965Y-58165979D01*
X109034462Y-58165399D01*
X109033988Y-58164795D01*
X109033542Y-58164168D01*
X109033126Y-58163520D01*
X109032741Y-58162850D01*
X109032388Y-58162161D01*
X109032068Y-58161453D01*
X109031782Y-58160727D01*
X109031530Y-58159984D01*
X109031315Y-58159225D01*
X109031137Y-58158452D01*
X109030996Y-58157664D01*
X109030894Y-58156864D01*
X109030833Y-58156052D01*
X109030812Y-58155230D01*
X109030812Y-57884018D01*
X109030833Y-57883195D01*
X109030894Y-57882383D01*
X109030996Y-57881583D01*
X109031137Y-57880796D01*
X109031315Y-57880022D01*
X109031530Y-57879264D01*
X109031782Y-57878521D01*
X109032068Y-57877795D01*
X109032388Y-57877087D01*
X109032741Y-57876397D01*
X109033126Y-57875728D01*
X109033542Y-57875079D01*
X109033988Y-57874452D01*
X109034462Y-57873848D01*
X109034965Y-57873268D01*
X109035494Y-57872713D01*
X109036049Y-57872184D01*
X109036630Y-57871681D01*
X109037233Y-57871207D01*
X109037860Y-57870761D01*
X109038509Y-57870345D01*
X109039178Y-57869960D01*
X109039868Y-57869607D01*
X109040576Y-57869287D01*
X109041302Y-57869001D01*
X109042045Y-57868749D01*
X109042803Y-57868534D01*
X109043577Y-57868355D01*
X109044364Y-57868215D01*
X109045164Y-57868113D01*
X109045976Y-57868051D01*
X109046799Y-57868031D01*
X109161534Y-57868031D01*
X109162357Y-57868051D01*
G37*
G36*
X105161345Y-57677182D02*
G01*
X104926396Y-57677637D01*
X104926396Y-56483914D01*
X105161345Y-56483460D01*
X105161345Y-57677182D01*
G37*
D12*
X109430569Y-56216848D02*
X109444587Y-56217914D01*
X109458401Y-56219669D01*
X109471994Y-56222096D01*
X109485348Y-56225178D01*
X109498447Y-56228898D01*
X109511272Y-56233238D01*
X109523807Y-56238180D01*
X109536034Y-56243708D01*
X109547935Y-56249803D01*
X109559495Y-56256450D01*
X109570694Y-56263629D01*
X109581516Y-56271325D01*
X109591943Y-56279519D01*
X109601959Y-56288195D01*
X109611545Y-56297335D01*
X109620685Y-56306921D01*
X109629360Y-56316936D01*
X109637555Y-56327364D01*
X109645250Y-56338186D01*
X109652430Y-56349385D01*
X109659076Y-56360944D01*
X109665172Y-56372846D01*
X109670700Y-56385073D01*
X109675642Y-56397607D01*
X109679982Y-56410433D01*
X109683701Y-56423531D01*
X109686783Y-56436886D01*
X109689211Y-56450478D01*
X109690966Y-56464292D01*
X109692032Y-56478310D01*
X109692391Y-56492515D01*
X109692391Y-57665625D01*
X109692032Y-57679829D01*
X109690966Y-57693847D01*
X109689211Y-57707661D01*
X109686783Y-57721254D01*
X109683701Y-57734608D01*
X109679982Y-57747707D01*
X109675642Y-57760532D01*
X109670700Y-57773067D01*
X109665172Y-57785294D01*
X109659076Y-57797195D01*
X109652430Y-57808754D01*
X109645250Y-57819954D01*
X109637555Y-57830776D01*
X109629360Y-57841203D01*
X109620685Y-57851219D01*
X109611545Y-57860805D01*
X109601959Y-57869944D01*
X109591943Y-57878620D01*
X109581516Y-57886814D01*
X109570694Y-57894510D01*
X109559495Y-57901690D01*
X109547935Y-57908336D01*
X109536034Y-57914432D01*
X109523807Y-57919959D01*
X109511272Y-57924902D01*
X109498447Y-57929241D01*
X109485348Y-57932961D01*
X109471994Y-57936043D01*
X109458401Y-57938471D01*
X109444587Y-57940226D01*
X109430569Y-57941292D01*
X109416365Y-57941651D01*
X108243238Y-57941651D01*
X108229034Y-57941292D01*
X108215016Y-57940226D01*
X108201202Y-57938471D01*
X108187610Y-57936043D01*
X108174255Y-57932961D01*
X108161157Y-57929241D01*
X108148331Y-57924902D01*
X108135797Y-57919959D01*
X108123570Y-57914432D01*
X108111668Y-57908336D01*
X108100109Y-57901690D01*
X108088910Y-57894510D01*
X108078088Y-57886814D01*
X108067660Y-57878620D01*
X108057645Y-57869944D01*
X108048058Y-57860805D01*
X108038919Y-57851219D01*
X108030243Y-57841203D01*
X108022049Y-57830776D01*
X108014353Y-57819954D01*
X108007173Y-57808754D01*
X108000527Y-57797195D01*
X107994431Y-57785294D01*
X107988904Y-57773067D01*
X107983961Y-57760532D01*
X107979622Y-57747707D01*
X107975902Y-57734608D01*
X107972820Y-57721254D01*
X107970393Y-57707661D01*
X107968637Y-57693847D01*
X107967571Y-57679829D01*
X107967212Y-57665625D01*
X107967212Y-56492515D01*
X107967571Y-56478310D01*
X107968637Y-56464292D01*
X107970393Y-56450478D01*
X107972820Y-56436886D01*
X107975902Y-56423531D01*
X107979622Y-56410433D01*
X107983961Y-56397607D01*
X107988904Y-56385073D01*
X107994431Y-56372846D01*
X108000527Y-56360944D01*
X108007173Y-56349385D01*
X108014353Y-56338186D01*
X108022049Y-56327364D01*
X108030243Y-56316936D01*
X108038919Y-56306921D01*
X108048058Y-56297335D01*
X108057645Y-56288195D01*
X108067660Y-56279519D01*
X108078088Y-56271325D01*
X108088910Y-56263629D01*
X108100109Y-56256450D01*
X108111668Y-56249803D01*
X108123570Y-56243708D01*
X108135797Y-56238180D01*
X108148331Y-56233238D01*
X108161157Y-56228898D01*
X108174255Y-56225178D01*
X108187610Y-56222096D01*
X108201202Y-56219669D01*
X108215016Y-56217914D01*
X108229034Y-56216848D01*
X108243238Y-56216488D01*
X109416365Y-56216488D01*
X109430569Y-56216848D01*
D11*
G36*
X108024264Y-56999128D02*
G01*
X108025076Y-56999190D01*
X108025876Y-56999292D01*
X108026663Y-56999432D01*
X108027436Y-56999611D01*
X108028195Y-56999826D01*
X108028938Y-57000078D01*
X108029664Y-57000364D01*
X108030372Y-57000684D01*
X108031061Y-57001037D01*
X108031731Y-57001422D01*
X108032379Y-57001838D01*
X108033006Y-57002284D01*
X108033610Y-57002758D01*
X108034190Y-57003261D01*
X108034745Y-57003790D01*
X108035275Y-57004345D01*
X108035777Y-57004925D01*
X108036252Y-57005529D01*
X108036697Y-57006156D01*
X108037113Y-57006805D01*
X108037498Y-57007474D01*
X108037851Y-57008164D01*
X108038171Y-57008872D01*
X108038458Y-57009598D01*
X108038709Y-57010340D01*
X108038924Y-57011099D01*
X108039103Y-57011873D01*
X108039244Y-57012660D01*
X108039345Y-57013460D01*
X108039407Y-57014272D01*
X108039428Y-57015094D01*
X108039428Y-57129831D01*
X108039407Y-57130653D01*
X108039345Y-57131465D01*
X108039244Y-57132265D01*
X108039103Y-57133052D01*
X108038924Y-57133826D01*
X108038709Y-57134584D01*
X108038458Y-57135327D01*
X108038171Y-57136053D01*
X108037851Y-57136761D01*
X108037498Y-57137451D01*
X108037113Y-57138120D01*
X108036697Y-57138769D01*
X108036252Y-57139396D01*
X108035777Y-57140000D01*
X108035275Y-57140580D01*
X108034745Y-57141135D01*
X108034190Y-57141664D01*
X108033610Y-57142167D01*
X108033006Y-57142641D01*
X108032379Y-57143087D01*
X108031731Y-57143503D01*
X108031061Y-57143888D01*
X108030372Y-57144241D01*
X108029664Y-57144561D01*
X108028938Y-57144847D01*
X108028195Y-57145099D01*
X108027436Y-57145314D01*
X108026663Y-57145493D01*
X108025876Y-57145633D01*
X108025076Y-57145735D01*
X108024264Y-57145797D01*
X108023441Y-57145817D01*
X107752214Y-57145817D01*
X107751392Y-57145797D01*
X107750580Y-57145735D01*
X107749780Y-57145633D01*
X107748992Y-57145493D01*
X107748219Y-57145314D01*
X107747460Y-57145099D01*
X107746717Y-57144847D01*
X107745991Y-57144561D01*
X107745283Y-57144241D01*
X107744594Y-57143888D01*
X107743924Y-57143503D01*
X107743276Y-57143087D01*
X107742649Y-57142641D01*
X107742045Y-57142167D01*
X107741465Y-57141664D01*
X107740910Y-57141135D01*
X107740380Y-57140580D01*
X107739878Y-57140000D01*
X107739403Y-57139396D01*
X107738958Y-57138769D01*
X107738542Y-57138120D01*
X107738157Y-57137451D01*
X107737804Y-57136761D01*
X107737484Y-57136053D01*
X107737197Y-57135327D01*
X107736946Y-57134584D01*
X107736731Y-57133826D01*
X107736552Y-57133052D01*
X107736412Y-57132265D01*
X107736310Y-57131465D01*
X107736248Y-57130653D01*
X107736227Y-57129831D01*
X107736227Y-57015094D01*
X107736248Y-57014272D01*
X107736310Y-57013460D01*
X107736412Y-57012660D01*
X107736552Y-57011873D01*
X107736731Y-57011099D01*
X107736946Y-57010340D01*
X107737197Y-57009598D01*
X107737484Y-57008872D01*
X107737804Y-57008164D01*
X107738157Y-57007474D01*
X107738542Y-57006805D01*
X107738958Y-57006156D01*
X107739403Y-57005529D01*
X107739878Y-57004925D01*
X107740380Y-57004345D01*
X107740910Y-57003790D01*
X107741465Y-57003261D01*
X107742045Y-57002758D01*
X107742649Y-57002284D01*
X107743276Y-57001838D01*
X107743924Y-57001422D01*
X107744594Y-57001037D01*
X107745283Y-57000684D01*
X107745991Y-57000364D01*
X107746717Y-57000078D01*
X107747460Y-56999826D01*
X107748219Y-56999611D01*
X107748992Y-56999432D01*
X107749780Y-56999292D01*
X107750580Y-56999190D01*
X107751392Y-56999128D01*
X107752214Y-56999108D01*
X108023441Y-56999108D01*
X108024264Y-56999128D01*
G37*
G36*
X104713109Y-57678050D02*
G01*
X104479827Y-57678501D01*
X104479827Y-56855069D01*
X104181558Y-57679079D01*
X103978269Y-57679472D01*
X103680000Y-56860000D01*
X103680000Y-57680050D01*
X103445051Y-57680505D01*
X103445051Y-56500309D01*
X103729989Y-56499757D01*
X104083245Y-57386756D01*
X104429837Y-56498401D01*
X104713109Y-56497853D01*
X104713109Y-57678050D01*
G37*
G36*
X108027389Y-57280100D02*
G01*
X108028201Y-57280162D01*
X108029001Y-57280263D01*
X108029788Y-57280404D01*
X108030562Y-57280582D01*
X108031320Y-57280798D01*
X108032063Y-57281049D01*
X108032789Y-57281336D01*
X108033497Y-57281656D01*
X108034187Y-57282009D01*
X108034856Y-57282394D01*
X108035505Y-57282810D01*
X108036131Y-57283255D01*
X108036735Y-57283730D01*
X108037315Y-57284232D01*
X108037871Y-57284762D01*
X108038400Y-57285317D01*
X108038903Y-57285897D01*
X108039377Y-57286501D01*
X108039823Y-57287128D01*
X108040239Y-57287776D01*
X108040624Y-57288446D01*
X108040977Y-57289135D01*
X108041297Y-57289843D01*
X108041583Y-57290569D01*
X108041834Y-57291312D01*
X108042050Y-57292071D01*
X108042228Y-57292844D01*
X108042369Y-57293631D01*
X108042471Y-57294431D01*
X108042532Y-57295243D01*
X108042553Y-57296066D01*
X108042553Y-57410802D01*
X108042532Y-57411625D01*
X108042471Y-57412437D01*
X108042369Y-57413237D01*
X108042228Y-57414024D01*
X108042050Y-57414797D01*
X108041834Y-57415556D01*
X108041583Y-57416299D01*
X108041297Y-57417025D01*
X108040977Y-57417733D01*
X108040624Y-57418422D01*
X108040239Y-57419092D01*
X108039823Y-57419740D01*
X108039377Y-57420367D01*
X108038903Y-57420971D01*
X108038400Y-57421551D01*
X108037871Y-57422107D01*
X108037315Y-57422636D01*
X108036735Y-57423138D01*
X108036131Y-57423613D01*
X108035505Y-57424059D01*
X108034856Y-57424474D01*
X108034187Y-57424859D01*
X108033497Y-57425212D01*
X108032789Y-57425533D01*
X108032063Y-57425819D01*
X108031320Y-57426070D01*
X108030562Y-57426286D01*
X108029788Y-57426464D01*
X108029001Y-57426605D01*
X108028201Y-57426706D01*
X108027389Y-57426768D01*
X108026566Y-57426789D01*
X107755340Y-57426789D01*
X107754517Y-57426768D01*
X107753705Y-57426706D01*
X107752905Y-57426605D01*
X107752118Y-57426464D01*
X107751344Y-57426286D01*
X107750586Y-57426070D01*
X107749843Y-57425819D01*
X107749117Y-57425533D01*
X107748409Y-57425212D01*
X107747719Y-57424859D01*
X107747050Y-57424474D01*
X107746401Y-57424059D01*
X107745774Y-57423613D01*
X107745170Y-57423138D01*
X107744590Y-57422636D01*
X107744035Y-57422107D01*
X107743506Y-57421551D01*
X107743003Y-57420971D01*
X107742529Y-57420367D01*
X107742083Y-57419740D01*
X107741667Y-57419092D01*
X107741282Y-57418422D01*
X107740929Y-57417733D01*
X107740609Y-57417025D01*
X107740323Y-57416299D01*
X107740072Y-57415556D01*
X107739856Y-57414797D01*
X107739678Y-57414024D01*
X107739537Y-57413237D01*
X107739435Y-57412437D01*
X107739374Y-57411625D01*
X107739353Y-57410802D01*
X107739353Y-57296066D01*
X107739374Y-57295243D01*
X107739435Y-57294431D01*
X107739537Y-57293631D01*
X107739678Y-57292844D01*
X107739856Y-57292071D01*
X107740072Y-57291312D01*
X107740323Y-57290569D01*
X107740609Y-57289843D01*
X107740929Y-57289135D01*
X107741282Y-57288446D01*
X107741667Y-57287776D01*
X107742083Y-57287128D01*
X107742529Y-57286501D01*
X107743003Y-57285897D01*
X107743506Y-57285317D01*
X107744035Y-57284762D01*
X107744590Y-57284232D01*
X107745170Y-57283730D01*
X107745774Y-57283255D01*
X107746401Y-57282810D01*
X107747050Y-57282394D01*
X107747719Y-57282009D01*
X107748409Y-57281656D01*
X107749117Y-57281336D01*
X107749843Y-57281049D01*
X107750586Y-57280798D01*
X107751344Y-57280582D01*
X107752118Y-57280404D01*
X107752905Y-57280263D01*
X107753705Y-57280162D01*
X107754517Y-57280100D01*
X107755340Y-57280079D01*
X108026566Y-57280079D01*
X108027389Y-57280100D01*
G37*
G36*
X101973404Y-56473080D02*
G01*
X101995834Y-56474106D01*
X102017665Y-56475848D01*
X102038897Y-56478303D01*
X102059531Y-56481473D01*
X102079566Y-56485358D01*
X102099002Y-56489957D01*
X102117839Y-56495271D01*
X102136077Y-56501299D01*
X102153716Y-56508041D01*
X102170757Y-56515498D01*
X102187199Y-56523669D01*
X102203042Y-56532555D01*
X102218286Y-56542156D01*
X102232931Y-56552471D01*
X102246977Y-56563500D01*
X102260555Y-56575124D01*
X102273378Y-56587226D01*
X102285445Y-56599804D01*
X102296758Y-56612859D01*
X102307316Y-56626392D01*
X102317118Y-56640401D01*
X102326166Y-56654888D01*
X102334458Y-56669852D01*
X102341996Y-56685292D01*
X102348778Y-56701210D01*
X102354805Y-56717604D01*
X102360078Y-56734476D01*
X102364595Y-56751824D01*
X102368357Y-56769650D01*
X102371364Y-56787953D01*
X102373616Y-56806732D01*
X102120338Y-56807222D01*
X102118958Y-56799286D01*
X102117318Y-56791535D01*
X102115417Y-56783970D01*
X102113256Y-56776590D01*
X102110835Y-56769395D01*
X102108153Y-56762386D01*
X102105211Y-56755562D01*
X102102009Y-56748924D01*
X102098546Y-56742471D01*
X102094823Y-56736204D01*
X102090839Y-56730122D01*
X102086595Y-56724226D01*
X102082091Y-56718515D01*
X102077327Y-56712989D01*
X102072302Y-56707649D01*
X102067016Y-56702494D01*
X102061477Y-56697386D01*
X102055691Y-56692609D01*
X102049657Y-56688162D01*
X102043376Y-56684046D01*
X102036847Y-56680261D01*
X102030071Y-56676807D01*
X102023048Y-56673683D01*
X102015777Y-56670890D01*
X102008259Y-56668428D01*
X102000494Y-56666296D01*
X101992482Y-56664495D01*
X101984222Y-56663025D01*
X101975714Y-56661886D01*
X101966960Y-56661077D01*
X101957958Y-56660599D01*
X101948708Y-56660452D01*
X101940683Y-56660606D01*
X101932852Y-56661038D01*
X101925217Y-56661746D01*
X101917778Y-56662731D01*
X101910533Y-56663994D01*
X101903484Y-56665533D01*
X101896630Y-56667349D01*
X101889971Y-56669443D01*
X101883508Y-56671813D01*
X101877239Y-56674461D01*
X101871167Y-56677385D01*
X101865289Y-56680587D01*
X101859607Y-56684065D01*
X101854119Y-56687821D01*
X101848828Y-56691853D01*
X101843731Y-56696163D01*
X101838888Y-56700525D01*
X101834358Y-56705137D01*
X101830140Y-56710000D01*
X101826235Y-56715113D01*
X101822642Y-56720476D01*
X101819361Y-56726090D01*
X101816393Y-56731954D01*
X101813738Y-56738068D01*
X101811394Y-56744433D01*
X101809364Y-56751049D01*
X101807645Y-56757914D01*
X101806239Y-56765030D01*
X101805146Y-56772397D01*
X101804365Y-56780014D01*
X101803896Y-56787881D01*
X101803740Y-56795999D01*
X101803857Y-56802485D01*
X101804208Y-56808838D01*
X101804794Y-56815059D01*
X101805614Y-56821147D01*
X101806669Y-56827102D01*
X101807958Y-56832925D01*
X101809481Y-56838616D01*
X101811238Y-56844173D01*
X101813230Y-56849599D01*
X101815456Y-56854891D01*
X101817916Y-56860051D01*
X101820611Y-56865079D01*
X101823540Y-56869974D01*
X101826704Y-56874736D01*
X101830101Y-56879366D01*
X101833733Y-56883863D01*
X101837749Y-56888036D01*
X101841883Y-56892116D01*
X101846133Y-56896104D01*
X101850501Y-56899999D01*
X101854985Y-56903801D01*
X101859587Y-56907511D01*
X101864306Y-56911128D01*
X101869142Y-56914652D01*
X101874096Y-56918084D01*
X101879166Y-56921422D01*
X101884354Y-56924669D01*
X101889659Y-56927822D01*
X101895081Y-56930883D01*
X101900620Y-56933851D01*
X101906276Y-56936726D01*
X101912049Y-56939509D01*
X101924651Y-56945059D01*
X101938294Y-56950766D01*
X101952978Y-56956629D01*
X101968704Y-56962649D01*
X101985471Y-56968825D01*
X102003280Y-56975157D01*
X102022130Y-56981646D01*
X102042021Y-56988292D01*
X102069672Y-56998304D01*
X102095968Y-57008160D01*
X102120911Y-57017861D01*
X102144499Y-57027405D01*
X102166734Y-57036794D01*
X102187615Y-57046026D01*
X102207142Y-57055103D01*
X102225315Y-57064024D01*
X102234186Y-57068584D01*
X102242889Y-57073422D01*
X102251422Y-57078537D01*
X102259786Y-57083930D01*
X102267981Y-57089601D01*
X102276007Y-57095550D01*
X102283863Y-57101776D01*
X102291550Y-57108280D01*
X102299068Y-57115062D01*
X102306417Y-57122122D01*
X102313596Y-57129459D01*
X102320606Y-57137074D01*
X102327447Y-57144967D01*
X102334119Y-57153137D01*
X102340622Y-57161585D01*
X102346955Y-57170311D01*
X102353008Y-57179348D01*
X102358671Y-57188728D01*
X102363944Y-57198454D01*
X102368825Y-57208523D01*
X102373316Y-57218937D01*
X102377417Y-57229694D01*
X102381127Y-57240797D01*
X102384447Y-57252243D01*
X102387376Y-57264033D01*
X102389914Y-57276168D01*
X102392062Y-57288647D01*
X102393820Y-57301471D01*
X102395186Y-57314638D01*
X102396163Y-57328150D01*
X102396749Y-57342006D01*
X102396944Y-57356206D01*
X102396769Y-57367564D01*
X102396241Y-57378819D01*
X102395363Y-57389970D01*
X102394133Y-57401015D01*
X102392551Y-57411956D01*
X102390618Y-57422791D01*
X102388333Y-57433522D01*
X102385697Y-57444148D01*
X102382710Y-57454668D01*
X102379370Y-57465084D01*
X102375680Y-57475394D01*
X102371638Y-57485600D01*
X102367244Y-57495701D01*
X102362499Y-57505696D01*
X102357403Y-57515587D01*
X102351955Y-57525372D01*
X102346162Y-57534782D01*
X102340030Y-57543968D01*
X102333560Y-57552930D01*
X102326752Y-57561668D01*
X102319605Y-57570182D01*
X102312120Y-57578473D01*
X102304296Y-57586539D01*
X102296133Y-57594381D01*
X102287633Y-57602000D01*
X102278794Y-57609395D01*
X102269616Y-57616566D01*
X102260100Y-57623513D01*
X102250245Y-57630236D01*
X102240052Y-57636735D01*
X102229520Y-57643010D01*
X102218650Y-57649062D01*
X102207461Y-57654612D01*
X102195973Y-57659806D01*
X102184185Y-57664643D01*
X102172098Y-57669125D01*
X102159711Y-57673250D01*
X102147025Y-57677020D01*
X102134040Y-57680433D01*
X102120755Y-57683491D01*
X102107171Y-57686192D01*
X102093287Y-57688537D01*
X102079104Y-57690526D01*
X102064621Y-57692159D01*
X102049839Y-57693436D01*
X102034758Y-57694357D01*
X102019377Y-57694921D01*
X102003697Y-57695130D01*
X101988180Y-57694995D01*
X101972871Y-57694529D01*
X101957770Y-57693733D01*
X101942877Y-57692606D01*
X101928193Y-57691148D01*
X101913717Y-57689360D01*
X101899449Y-57687241D01*
X101885389Y-57684791D01*
X101871538Y-57682011D01*
X101857895Y-57678900D01*
X101844461Y-57675459D01*
X101831235Y-57671687D01*
X101818216Y-57667584D01*
X101805407Y-57663150D01*
X101792805Y-57658386D01*
X101780412Y-57653292D01*
X101768273Y-57647675D01*
X101756433Y-57641767D01*
X101744893Y-57635568D01*
X101733652Y-57629077D01*
X101722710Y-57622296D01*
X101712068Y-57615223D01*
X101701725Y-57607859D01*
X101691682Y-57600203D01*
X101681938Y-57592257D01*
X101672493Y-57584019D01*
X101663348Y-57575490D01*
X101654502Y-57566670D01*
X101645956Y-57557559D01*
X101637709Y-57548156D01*
X101629761Y-57538463D01*
X101622113Y-57528478D01*
X101615018Y-57518241D01*
X101608314Y-57507792D01*
X101602000Y-57497131D01*
X101596077Y-57486257D01*
X101590545Y-57475172D01*
X101585402Y-57463874D01*
X101580651Y-57452365D01*
X101576290Y-57440643D01*
X101572319Y-57428709D01*
X101568739Y-57416564D01*
X101565550Y-57404206D01*
X101562751Y-57391636D01*
X101560343Y-57378854D01*
X101558325Y-57365860D01*
X101556698Y-57352653D01*
X101555461Y-57339235D01*
X101805407Y-57338751D01*
X101806605Y-57347745D01*
X101808115Y-57356552D01*
X101809937Y-57365175D01*
X101812072Y-57373612D01*
X101814519Y-57381863D01*
X101817279Y-57389929D01*
X101820351Y-57397809D01*
X101823736Y-57405503D01*
X101827433Y-57413012D01*
X101831443Y-57420336D01*
X101835765Y-57427474D01*
X101840399Y-57434426D01*
X101845346Y-57441193D01*
X101850605Y-57447774D01*
X101856177Y-57454170D01*
X101862061Y-57460380D01*
X101868433Y-57466101D01*
X101875053Y-57471451D01*
X101881920Y-57476431D01*
X101889034Y-57481041D01*
X101896396Y-57485280D01*
X101904005Y-57489149D01*
X101911861Y-57492647D01*
X101919965Y-57495775D01*
X101928316Y-57498533D01*
X101936915Y-57500921D01*
X101945760Y-57502938D01*
X101954853Y-57504584D01*
X101964194Y-57505861D01*
X101973782Y-57506767D01*
X101983617Y-57507302D01*
X101993699Y-57507468D01*
X102002727Y-57507299D01*
X102011482Y-57506826D01*
X102019963Y-57506050D01*
X102028171Y-57504971D01*
X102036106Y-57503589D01*
X102043767Y-57501903D01*
X102051154Y-57499914D01*
X102058269Y-57497622D01*
X102065110Y-57495026D01*
X102071677Y-57492127D01*
X102077972Y-57488925D01*
X102083992Y-57485419D01*
X102089740Y-57481610D01*
X102095214Y-57477498D01*
X102100415Y-57473082D01*
X102105342Y-57468363D01*
X102110185Y-57463196D01*
X102114715Y-57457857D01*
X102118933Y-57452347D01*
X102122838Y-57446666D01*
X102126431Y-57440814D01*
X102129711Y-57434791D01*
X102132680Y-57428596D01*
X102135335Y-57422231D01*
X102137678Y-57415695D01*
X102139709Y-57408987D01*
X102141428Y-57402108D01*
X102142834Y-57395058D01*
X102143927Y-57387837D01*
X102144708Y-57380445D01*
X102145177Y-57372881D01*
X102145333Y-57365147D01*
X102145209Y-57358252D01*
X102144838Y-57351516D01*
X102144220Y-57344939D01*
X102143354Y-57338520D01*
X102142241Y-57332261D01*
X102140881Y-57326161D01*
X102139273Y-57320220D01*
X102137418Y-57314438D01*
X102135316Y-57308814D01*
X102132966Y-57303350D01*
X102130369Y-57298045D01*
X102127524Y-57292898D01*
X102124433Y-57287911D01*
X102121093Y-57283082D01*
X102117507Y-57278413D01*
X102113673Y-57273902D01*
X102109651Y-57269319D01*
X102105498Y-57264856D01*
X102101215Y-57260512D01*
X102096802Y-57256287D01*
X102092258Y-57252181D01*
X102087585Y-57248194D01*
X102082781Y-57244326D01*
X102077848Y-57240577D01*
X102072783Y-57236948D01*
X102067589Y-57233438D01*
X102062265Y-57230047D01*
X102056810Y-57226775D01*
X102051226Y-57223622D01*
X102045511Y-57220589D01*
X102039666Y-57217674D01*
X102033690Y-57214879D01*
X102021037Y-57209303D01*
X102007238Y-57203517D01*
X101992293Y-57197523D01*
X101976203Y-57191319D01*
X101958967Y-57184906D01*
X101940586Y-57178283D01*
X101921059Y-57171452D01*
X101900386Y-57164412D01*
X101873517Y-57155191D01*
X101847897Y-57146020D01*
X101823528Y-57136900D01*
X101800408Y-57127830D01*
X101778538Y-57118811D01*
X101757917Y-57109842D01*
X101738546Y-57100924D01*
X101720425Y-57092055D01*
X101711755Y-57087297D01*
X101703241Y-57082287D01*
X101694884Y-57077026D01*
X101686682Y-57071513D01*
X101678637Y-57065750D01*
X101670748Y-57059735D01*
X101663016Y-57053469D01*
X101655439Y-57046951D01*
X101648019Y-57040182D01*
X101640755Y-57033162D01*
X101633647Y-57025891D01*
X101626695Y-57018368D01*
X101619900Y-57010594D01*
X101613261Y-57002569D01*
X101606778Y-56994293D01*
X101600451Y-56985765D01*
X101594599Y-56976946D01*
X101589125Y-56967796D01*
X101584029Y-56958315D01*
X101579310Y-56948503D01*
X101574968Y-56938360D01*
X101571004Y-56927886D01*
X101567418Y-56917081D01*
X101564209Y-56905945D01*
X101561378Y-56894478D01*
X101558924Y-56882680D01*
X101556847Y-56870551D01*
X101555148Y-56858091D01*
X101553827Y-56845300D01*
X101552883Y-56832178D01*
X101552317Y-56818725D01*
X101552128Y-56804941D01*
X101552551Y-56785965D01*
X101553821Y-56767502D01*
X101555936Y-56749553D01*
X101558898Y-56732117D01*
X101562705Y-56715195D01*
X101567359Y-56698786D01*
X101572859Y-56682891D01*
X101579206Y-56667509D01*
X101586398Y-56652641D01*
X101594437Y-56638287D01*
X101603322Y-56624446D01*
X101613053Y-56611118D01*
X101623630Y-56598304D01*
X101635053Y-56586004D01*
X101647322Y-56574217D01*
X101660438Y-56562944D01*
X101674458Y-56552065D01*
X101689026Y-56541885D01*
X101704139Y-56532404D01*
X101719800Y-56523622D01*
X101736008Y-56515540D01*
X101752762Y-56508156D01*
X101770063Y-56501472D01*
X101787910Y-56495486D01*
X101806305Y-56490199D01*
X101825246Y-56485612D01*
X101844734Y-56481724D01*
X101864768Y-56478534D01*
X101885350Y-56476044D01*
X101906478Y-56474253D01*
X101928153Y-56473161D01*
X101950375Y-56472768D01*
X101973404Y-56473080D01*
G37*
G36*
X103271757Y-56676491D02*
G01*
X102805191Y-56677392D01*
X102805191Y-56986813D01*
X103221767Y-56986008D01*
X103221767Y-57168616D01*
X102805191Y-57169422D01*
X102805191Y-57490679D01*
X103271756Y-57489776D01*
X103271756Y-57680840D01*
X102570242Y-57682198D01*
X102570242Y-56488476D01*
X103271757Y-56487117D01*
X103271757Y-56676491D01*
G37*
G36*
X109908211Y-56999128D02*
G01*
X109909023Y-56999190D01*
X109909823Y-56999291D01*
X109910611Y-56999432D01*
X109911384Y-56999610D01*
X109912143Y-56999826D01*
X109912886Y-57000077D01*
X109913612Y-57000363D01*
X109914320Y-57000683D01*
X109915009Y-57001037D01*
X109915679Y-57001421D01*
X109916327Y-57001837D01*
X109916954Y-57002283D01*
X109917558Y-57002758D01*
X109918138Y-57003260D01*
X109918693Y-57003789D01*
X109919223Y-57004345D01*
X109919725Y-57004925D01*
X109920200Y-57005529D01*
X109920646Y-57006155D01*
X109921061Y-57006804D01*
X109921446Y-57007474D01*
X109921799Y-57008163D01*
X109922120Y-57008871D01*
X109922406Y-57009597D01*
X109922657Y-57010340D01*
X109922873Y-57011099D01*
X109923051Y-57011872D01*
X109923192Y-57012659D01*
X109923293Y-57013459D01*
X109923355Y-57014271D01*
X109923376Y-57015094D01*
X109923376Y-57129830D01*
X109923355Y-57130653D01*
X109923293Y-57131465D01*
X109923192Y-57132265D01*
X109923051Y-57133052D01*
X109922873Y-57133825D01*
X109922657Y-57134584D01*
X109922406Y-57135327D01*
X109922120Y-57136053D01*
X109921799Y-57136761D01*
X109921446Y-57137450D01*
X109921061Y-57138120D01*
X109920646Y-57138768D01*
X109920200Y-57139395D01*
X109919725Y-57139999D01*
X109919223Y-57140579D01*
X109918693Y-57141134D01*
X109918138Y-57141664D01*
X109917558Y-57142166D01*
X109916954Y-57142641D01*
X109916327Y-57143086D01*
X109915679Y-57143502D01*
X109915009Y-57143887D01*
X109914320Y-57144240D01*
X109913612Y-57144560D01*
X109912886Y-57144847D01*
X109912143Y-57145098D01*
X109911384Y-57145313D01*
X109910611Y-57145492D01*
X109909823Y-57145633D01*
X109909023Y-57145734D01*
X109908211Y-57145796D01*
X109907389Y-57145817D01*
X109636176Y-57145817D01*
X109635353Y-57145796D01*
X109634542Y-57145734D01*
X109633742Y-57145633D01*
X109632954Y-57145492D01*
X109632181Y-57145313D01*
X109631422Y-57145098D01*
X109630679Y-57144847D01*
X109629953Y-57144560D01*
X109629245Y-57144240D01*
X109628556Y-57143887D01*
X109627886Y-57143502D01*
X109627238Y-57143086D01*
X109626611Y-57142641D01*
X109626007Y-57142166D01*
X109625427Y-57141664D01*
X109624872Y-57141134D01*
X109624342Y-57140579D01*
X109623840Y-57139999D01*
X109623365Y-57139395D01*
X109622920Y-57138768D01*
X109622504Y-57138120D01*
X109622119Y-57137450D01*
X109621766Y-57136761D01*
X109621446Y-57136053D01*
X109621159Y-57135327D01*
X109620908Y-57134584D01*
X109620693Y-57133825D01*
X109620514Y-57133052D01*
X109620374Y-57132265D01*
X109620272Y-57131465D01*
X109620210Y-57130653D01*
X109620189Y-57129830D01*
X109620189Y-57015094D01*
X109620210Y-57014271D01*
X109620272Y-57013459D01*
X109620374Y-57012659D01*
X109620514Y-57011872D01*
X109620693Y-57011099D01*
X109620908Y-57010340D01*
X109621159Y-57009597D01*
X109621446Y-57008871D01*
X109621766Y-57008163D01*
X109622119Y-57007474D01*
X109622504Y-57006804D01*
X109622920Y-57006155D01*
X109623365Y-57005529D01*
X109623840Y-57004925D01*
X109624342Y-57004345D01*
X109624872Y-57003789D01*
X109625427Y-57003260D01*
X109626007Y-57002758D01*
X109626611Y-57002283D01*
X109627238Y-57001837D01*
X109627886Y-57001421D01*
X109628556Y-57001037D01*
X109629245Y-57000683D01*
X109629953Y-57000363D01*
X109630679Y-57000077D01*
X109631422Y-56999826D01*
X109632181Y-56999610D01*
X109632954Y-56999432D01*
X109633742Y-56999291D01*
X109634542Y-56999190D01*
X109635353Y-56999128D01*
X109636176Y-56999107D01*
X109907389Y-56999107D01*
X109908211Y-56999128D01*
G37*
G36*
X109162351Y-55986944D02*
G01*
X109163163Y-55987006D01*
X109163963Y-55987107D01*
X109164750Y-55987248D01*
X109165524Y-55987426D01*
X109166282Y-55987642D01*
X109167025Y-55987893D01*
X109167751Y-55988179D01*
X109168459Y-55988500D01*
X109169149Y-55988853D01*
X109169818Y-55989237D01*
X109170467Y-55989653D01*
X109171094Y-55990099D01*
X109171697Y-55990574D01*
X109172278Y-55991076D01*
X109172833Y-55991605D01*
X109173362Y-55992161D01*
X109173865Y-55992741D01*
X109174339Y-55993345D01*
X109174785Y-55993971D01*
X109175201Y-55994620D01*
X109175586Y-55995290D01*
X109175939Y-55995979D01*
X109176259Y-55996687D01*
X109176545Y-55997413D01*
X109176797Y-55998156D01*
X109177012Y-55998914D01*
X109177190Y-55999688D01*
X109177331Y-56000475D01*
X109177433Y-56001275D01*
X109177494Y-56002087D01*
X109177515Y-56002910D01*
X109177515Y-56274136D01*
X109177494Y-56274959D01*
X109177433Y-56275771D01*
X109177331Y-56276571D01*
X109177190Y-56277358D01*
X109177012Y-56278132D01*
X109176797Y-56278890D01*
X109176545Y-56279633D01*
X109176259Y-56280359D01*
X109175939Y-56281067D01*
X109175586Y-56281757D01*
X109175201Y-56282426D01*
X109174785Y-56283075D01*
X109174339Y-56283702D01*
X109173865Y-56284306D01*
X109173362Y-56284886D01*
X109172833Y-56285441D01*
X109172278Y-56285970D01*
X109171697Y-56286473D01*
X109171094Y-56286947D01*
X109170467Y-56287393D01*
X109169818Y-56287809D01*
X109169149Y-56288194D01*
X109168459Y-56288547D01*
X109167751Y-56288867D01*
X109167025Y-56289153D01*
X109166282Y-56289405D01*
X109165524Y-56289620D01*
X109164750Y-56289799D01*
X109163963Y-56289939D01*
X109163163Y-56290041D01*
X109162351Y-56290103D01*
X109161528Y-56290123D01*
X109046792Y-56290123D01*
X109045970Y-56290103D01*
X109045158Y-56290041D01*
X109044358Y-56289939D01*
X109043570Y-56289799D01*
X109042797Y-56289620D01*
X109042038Y-56289405D01*
X109041296Y-56289153D01*
X109040570Y-56288867D01*
X109039861Y-56288547D01*
X109039172Y-56288194D01*
X109038503Y-56287809D01*
X109037854Y-56287393D01*
X109037227Y-56286947D01*
X109036623Y-56286473D01*
X109036043Y-56285970D01*
X109035488Y-56285441D01*
X109034959Y-56284886D01*
X109034456Y-56284306D01*
X109033981Y-56283702D01*
X109033536Y-56283075D01*
X109033120Y-56282426D01*
X109032735Y-56281757D01*
X109032382Y-56281067D01*
X109032062Y-56280359D01*
X109031776Y-56279633D01*
X109031524Y-56278890D01*
X109031309Y-56278132D01*
X109031130Y-56277358D01*
X109030990Y-56276571D01*
X109030888Y-56275771D01*
X109030826Y-56274959D01*
X109030805Y-56274136D01*
X109030805Y-56002910D01*
X109030826Y-56002087D01*
X109030888Y-56001275D01*
X109030990Y-56000475D01*
X109031130Y-55999688D01*
X109031309Y-55998914D01*
X109031524Y-55998156D01*
X109031776Y-55997413D01*
X109032062Y-55996687D01*
X109032382Y-55995979D01*
X109032735Y-55995290D01*
X109033120Y-55994620D01*
X109033536Y-55993971D01*
X109033981Y-55993345D01*
X109034456Y-55992741D01*
X109034959Y-55992161D01*
X109035488Y-55991605D01*
X109036043Y-55991076D01*
X109036623Y-55990574D01*
X109037227Y-55990099D01*
X109037854Y-55989653D01*
X109038503Y-55989237D01*
X109039172Y-55988853D01*
X109039861Y-55988500D01*
X109040570Y-55988179D01*
X109041296Y-55987893D01*
X109042038Y-55987642D01*
X109042797Y-55987426D01*
X109043570Y-55987248D01*
X109044358Y-55987107D01*
X109045158Y-55987006D01*
X109045970Y-55986944D01*
X109046792Y-55986923D01*
X109161528Y-55986923D01*
X109162351Y-55986944D01*
G37*
D13*
X106174457Y-56670872D02*
X105849527Y-56671500D01*
X105849527Y-57675849D01*
X105614578Y-57676305D01*
X105614578Y-56671955D01*
X105291315Y-56672581D01*
X105291315Y-56483208D01*
X106174457Y-56481498D01*
X106174457Y-56670872D01*
D11*
G36*
X108613627Y-55988642D02*
G01*
X108614439Y-55988704D01*
X108615239Y-55988806D01*
X108616027Y-55988946D01*
X108616800Y-55989125D01*
X108617559Y-55989340D01*
X108618302Y-55989591D01*
X108619028Y-55989878D01*
X108619736Y-55990198D01*
X108620425Y-55990551D01*
X108621095Y-55990936D01*
X108621743Y-55991352D01*
X108622370Y-55991797D01*
X108622974Y-55992272D01*
X108623554Y-55992774D01*
X108624109Y-55993304D01*
X108624639Y-55993859D01*
X108625141Y-55994439D01*
X108625616Y-55995043D01*
X108626061Y-55995670D01*
X108626477Y-55996318D01*
X108626862Y-55996988D01*
X108627215Y-55997677D01*
X108627535Y-55998385D01*
X108627822Y-55999111D01*
X108628073Y-55999854D01*
X108628288Y-56000613D01*
X108628467Y-56001386D01*
X108628607Y-56002174D01*
X108628709Y-56002974D01*
X108628771Y-56003785D01*
X108628792Y-56004608D01*
X108628792Y-56275835D01*
X108628771Y-56276657D01*
X108628709Y-56277469D01*
X108628607Y-56278269D01*
X108628467Y-56279057D01*
X108628288Y-56279830D01*
X108628073Y-56280589D01*
X108627822Y-56281332D01*
X108627535Y-56282058D01*
X108627215Y-56282766D01*
X108626862Y-56283455D01*
X108626477Y-56284125D01*
X108626061Y-56284773D01*
X108625616Y-56285400D01*
X108625141Y-56286004D01*
X108624639Y-56286584D01*
X108624109Y-56287139D01*
X108623554Y-56287669D01*
X108622974Y-56288171D01*
X108622370Y-56288646D01*
X108621743Y-56289091D01*
X108621095Y-56289507D01*
X108620425Y-56289892D01*
X108619736Y-56290245D01*
X108619028Y-56290565D01*
X108618302Y-56290852D01*
X108617559Y-56291103D01*
X108616800Y-56291318D01*
X108616027Y-56291497D01*
X108615239Y-56291637D01*
X108614439Y-56291739D01*
X108613627Y-56291801D01*
X108612805Y-56291822D01*
X108498069Y-56291822D01*
X108497246Y-56291801D01*
X108496434Y-56291739D01*
X108495634Y-56291637D01*
X108494847Y-56291497D01*
X108494073Y-56291318D01*
X108493315Y-56291103D01*
X108492572Y-56290852D01*
X108491846Y-56290565D01*
X108491138Y-56290245D01*
X108490448Y-56289892D01*
X108489779Y-56289507D01*
X108489130Y-56289091D01*
X108488504Y-56288646D01*
X108487900Y-56288171D01*
X108487320Y-56287669D01*
X108486764Y-56287139D01*
X108486235Y-56286584D01*
X108485732Y-56286004D01*
X108485258Y-56285400D01*
X108484812Y-56284773D01*
X108484396Y-56284125D01*
X108484011Y-56283455D01*
X108483658Y-56282766D01*
X108483338Y-56282058D01*
X108483052Y-56281332D01*
X108482801Y-56280589D01*
X108482585Y-56279830D01*
X108482407Y-56279057D01*
X108482266Y-56278269D01*
X108482164Y-56277469D01*
X108482103Y-56276657D01*
X108482082Y-56275835D01*
X108482082Y-56004608D01*
X108482103Y-56003785D01*
X108482164Y-56002974D01*
X108482266Y-56002174D01*
X108482407Y-56001386D01*
X108482585Y-56000613D01*
X108482801Y-55999854D01*
X108483052Y-55999111D01*
X108483338Y-55998385D01*
X108483658Y-55997677D01*
X108484011Y-55996988D01*
X108484396Y-55996318D01*
X108484812Y-55995670D01*
X108485258Y-55995043D01*
X108485732Y-55994439D01*
X108486235Y-55993859D01*
X108486764Y-55993304D01*
X108487320Y-55992774D01*
X108487900Y-55992272D01*
X108488504Y-55991797D01*
X108489130Y-55991352D01*
X108489779Y-55990936D01*
X108490448Y-55990551D01*
X108491138Y-55990198D01*
X108491846Y-55989878D01*
X108492572Y-55989591D01*
X108493315Y-55989340D01*
X108494073Y-55989125D01*
X108494847Y-55988946D01*
X108495634Y-55988806D01*
X108496434Y-55988704D01*
X108497246Y-55988642D01*
X108498069Y-55988621D01*
X108612805Y-55988621D01*
X108613627Y-55988642D01*
G37*
G36*
X108894590Y-57869479D02*
G01*
X108895402Y-57869541D01*
X108896202Y-57869642D01*
X108896989Y-57869783D01*
X108897763Y-57869961D01*
X108898521Y-57870177D01*
X108899264Y-57870428D01*
X108899990Y-57870714D01*
X108900698Y-57871034D01*
X108901387Y-57871387D01*
X108902057Y-57871772D01*
X108902705Y-57872188D01*
X108903332Y-57872634D01*
X108903936Y-57873108D01*
X108904516Y-57873611D01*
X108905071Y-57874140D01*
X108905600Y-57874695D01*
X108906103Y-57875275D01*
X108906577Y-57875879D01*
X108907023Y-57876506D01*
X108907439Y-57877155D01*
X108907824Y-57877824D01*
X108908177Y-57878513D01*
X108908497Y-57879222D01*
X108908783Y-57879948D01*
X108909035Y-57880690D01*
X108909250Y-57881449D01*
X108909428Y-57882222D01*
X108909569Y-57883010D01*
X108909671Y-57883810D01*
X108909732Y-57884621D01*
X108909753Y-57885444D01*
X108909753Y-58156658D01*
X108909732Y-58157481D01*
X108909671Y-58158293D01*
X108909569Y-58159093D01*
X108909428Y-58159880D01*
X108909250Y-58160653D01*
X108909035Y-58161412D01*
X108908783Y-58162155D01*
X108908497Y-58162881D01*
X108908177Y-58163589D01*
X108907824Y-58164278D01*
X108907439Y-58164948D01*
X108907023Y-58165596D01*
X108906577Y-58166223D01*
X108906103Y-58166827D01*
X108905600Y-58167407D01*
X108905071Y-58167962D01*
X108904516Y-58168491D01*
X108903936Y-58168994D01*
X108903332Y-58169468D01*
X108902705Y-58169914D01*
X108902057Y-58170330D01*
X108901387Y-58170715D01*
X108900698Y-58171068D01*
X108899990Y-58171388D01*
X108899264Y-58171674D01*
X108898521Y-58171926D01*
X108897763Y-58172141D01*
X108896989Y-58172319D01*
X108896202Y-58172460D01*
X108895402Y-58172562D01*
X108894590Y-58172623D01*
X108893768Y-58172644D01*
X108779040Y-58172644D01*
X108778217Y-58172623D01*
X108777406Y-58172562D01*
X108776606Y-58172460D01*
X108775818Y-58172319D01*
X108775045Y-58172141D01*
X108774286Y-58171926D01*
X108773544Y-58171674D01*
X108772818Y-58171388D01*
X108772110Y-58171068D01*
X108771420Y-58170715D01*
X108770751Y-58170330D01*
X108770102Y-58169914D01*
X108769476Y-58169468D01*
X108768872Y-58168994D01*
X108768292Y-58168491D01*
X108767736Y-58167962D01*
X108767207Y-58167407D01*
X108766705Y-58166827D01*
X108766230Y-58166223D01*
X108765784Y-58165596D01*
X108765369Y-58164948D01*
X108764984Y-58164278D01*
X108764631Y-58163589D01*
X108764311Y-58162881D01*
X108764024Y-58162155D01*
X108763773Y-58161412D01*
X108763558Y-58160653D01*
X108763379Y-58159880D01*
X108763239Y-58159093D01*
X108763137Y-58158293D01*
X108763075Y-58157481D01*
X108763054Y-58156658D01*
X108763054Y-57885444D01*
X108763075Y-57884621D01*
X108763137Y-57883810D01*
X108763239Y-57883010D01*
X108763379Y-57882222D01*
X108763558Y-57881449D01*
X108763773Y-57880690D01*
X108764024Y-57879948D01*
X108764311Y-57879222D01*
X108764631Y-57878513D01*
X108764984Y-57877824D01*
X108765369Y-57877155D01*
X108765784Y-57876506D01*
X108766230Y-57875879D01*
X108766705Y-57875275D01*
X108767207Y-57874695D01*
X108767736Y-57874140D01*
X108768292Y-57873611D01*
X108768872Y-57873108D01*
X108769476Y-57872634D01*
X108770102Y-57872188D01*
X108770751Y-57871772D01*
X108771420Y-57871387D01*
X108772110Y-57871034D01*
X108772818Y-57870714D01*
X108773544Y-57870428D01*
X108774286Y-57870177D01*
X108775045Y-57869961D01*
X108775818Y-57869783D01*
X108776606Y-57869642D01*
X108777406Y-57869541D01*
X108778217Y-57869479D01*
X108779040Y-57869458D01*
X108893768Y-57869458D01*
X108894590Y-57869479D01*
G37*
G36*
X109905086Y-57280087D02*
G01*
X109905898Y-57280149D01*
X109906698Y-57280250D01*
X109907485Y-57280391D01*
X109908258Y-57280569D01*
X109909017Y-57280785D01*
X109909760Y-57281036D01*
X109910486Y-57281322D01*
X109911194Y-57281643D01*
X109911883Y-57281996D01*
X109912553Y-57282381D01*
X109913201Y-57282797D01*
X109913828Y-57283242D01*
X109914432Y-57283717D01*
X109915012Y-57284219D01*
X109915567Y-57284749D01*
X109916097Y-57285304D01*
X109916599Y-57285884D01*
X109917074Y-57286488D01*
X109917520Y-57287115D01*
X109917935Y-57287764D01*
X109918320Y-57288433D01*
X109918673Y-57289122D01*
X109918994Y-57289831D01*
X109919280Y-57290557D01*
X109919531Y-57291299D01*
X109919747Y-57292058D01*
X109919925Y-57292832D01*
X109920066Y-57293619D01*
X109920167Y-57294419D01*
X109920229Y-57295231D01*
X109920250Y-57296053D01*
X109920250Y-57410789D01*
X109920229Y-57411612D01*
X109920167Y-57412424D01*
X109920066Y-57413224D01*
X109919925Y-57414011D01*
X109919747Y-57414784D01*
X109919531Y-57415543D01*
X109919280Y-57416286D01*
X109918994Y-57417012D01*
X109918673Y-57417720D01*
X109918320Y-57418409D01*
X109917935Y-57419079D01*
X109917520Y-57419727D01*
X109917074Y-57420354D01*
X109916599Y-57420958D01*
X109916097Y-57421538D01*
X109915567Y-57422093D01*
X109915012Y-57422623D01*
X109914432Y-57423125D01*
X109913828Y-57423600D01*
X109913201Y-57424045D01*
X109912553Y-57424461D01*
X109911883Y-57424846D01*
X109911194Y-57425199D01*
X109910486Y-57425519D01*
X109909760Y-57425806D01*
X109909017Y-57426057D01*
X109908258Y-57426273D01*
X109907485Y-57426451D01*
X109906698Y-57426592D01*
X109905898Y-57426693D01*
X109905086Y-57426755D01*
X109904263Y-57426776D01*
X109633051Y-57426776D01*
X109632228Y-57426755D01*
X109631416Y-57426693D01*
X109630616Y-57426592D01*
X109629829Y-57426451D01*
X109629055Y-57426273D01*
X109628297Y-57426057D01*
X109627554Y-57425806D01*
X109626828Y-57425519D01*
X109626120Y-57425199D01*
X109625431Y-57424846D01*
X109624761Y-57424461D01*
X109624112Y-57424045D01*
X109623486Y-57423600D01*
X109622882Y-57423125D01*
X109622302Y-57422623D01*
X109621746Y-57422093D01*
X109621217Y-57421538D01*
X109620715Y-57420958D01*
X109620240Y-57420354D01*
X109619794Y-57419727D01*
X109619378Y-57419079D01*
X109618993Y-57418409D01*
X109618640Y-57417720D01*
X109618320Y-57417012D01*
X109618034Y-57416286D01*
X109617783Y-57415543D01*
X109617567Y-57414784D01*
X109617389Y-57414011D01*
X109617248Y-57413224D01*
X109617146Y-57412424D01*
X109617085Y-57411612D01*
X109617064Y-57410789D01*
X109617064Y-57296053D01*
X109617085Y-57295231D01*
X109617146Y-57294419D01*
X109617248Y-57293619D01*
X109617389Y-57292832D01*
X109617567Y-57292058D01*
X109617783Y-57291299D01*
X109618034Y-57290557D01*
X109618320Y-57289831D01*
X109618640Y-57289122D01*
X109618993Y-57288433D01*
X109619378Y-57287764D01*
X109619794Y-57287115D01*
X109620240Y-57286488D01*
X109620715Y-57285884D01*
X109621217Y-57285304D01*
X109621746Y-57284749D01*
X109622302Y-57284219D01*
X109622882Y-57283717D01*
X109623486Y-57283242D01*
X109624112Y-57282797D01*
X109624761Y-57282381D01*
X109625431Y-57281996D01*
X109626120Y-57281643D01*
X109626828Y-57281322D01*
X109627554Y-57281036D01*
X109628297Y-57280785D01*
X109629055Y-57280569D01*
X109629829Y-57280391D01*
X109630616Y-57280250D01*
X109631416Y-57280149D01*
X109632228Y-57280087D01*
X109633051Y-57280066D01*
X109904263Y-57280066D01*
X109905086Y-57280087D01*
G37*
G36*
X108025691Y-56731376D02*
G01*
X108026503Y-56731438D01*
X108027303Y-56731540D01*
X108028090Y-56731680D01*
X108028863Y-56731859D01*
X108029622Y-56732074D01*
X108030365Y-56732326D01*
X108031091Y-56732612D01*
X108031799Y-56732932D01*
X108032488Y-56733285D01*
X108033158Y-56733670D01*
X108033806Y-56734086D01*
X108034433Y-56734532D01*
X108035037Y-56735006D01*
X108035617Y-56735509D01*
X108036172Y-56736038D01*
X108036702Y-56736593D01*
X108037204Y-56737173D01*
X108037679Y-56737777D01*
X108038125Y-56738404D01*
X108038540Y-56739053D01*
X108038925Y-56739722D01*
X108039278Y-56740412D01*
X108039599Y-56741120D01*
X108039885Y-56741846D01*
X108040136Y-56742589D01*
X108040352Y-56743347D01*
X108040530Y-56744121D01*
X108040671Y-56744908D01*
X108040772Y-56745708D01*
X108040834Y-56746520D01*
X108040855Y-56747342D01*
X108040855Y-56862079D01*
X108040834Y-56862901D01*
X108040772Y-56863713D01*
X108040671Y-56864513D01*
X108040530Y-56865300D01*
X108040352Y-56866074D01*
X108040136Y-56866833D01*
X108039885Y-56867575D01*
X108039599Y-56868301D01*
X108039278Y-56869009D01*
X108038925Y-56869699D01*
X108038540Y-56870368D01*
X108038125Y-56871017D01*
X108037679Y-56871644D01*
X108037204Y-56872248D01*
X108036702Y-56872828D01*
X108036172Y-56873383D01*
X108035617Y-56873912D01*
X108035037Y-56874415D01*
X108034433Y-56874889D01*
X108033806Y-56875335D01*
X108033158Y-56875751D01*
X108032488Y-56876136D01*
X108031799Y-56876489D01*
X108031091Y-56876809D01*
X108030365Y-56877095D01*
X108029622Y-56877347D01*
X108028863Y-56877562D01*
X108028090Y-56877741D01*
X108027303Y-56877881D01*
X108026503Y-56877983D01*
X108025691Y-56878045D01*
X108024868Y-56878065D01*
X107753641Y-56878065D01*
X107752819Y-56878045D01*
X107752007Y-56877983D01*
X107751207Y-56877881D01*
X107750419Y-56877741D01*
X107749646Y-56877562D01*
X107748887Y-56877347D01*
X107748144Y-56877095D01*
X107747418Y-56876809D01*
X107746710Y-56876489D01*
X107746021Y-56876136D01*
X107745351Y-56875751D01*
X107744703Y-56875335D01*
X107744076Y-56874889D01*
X107743472Y-56874415D01*
X107742892Y-56873912D01*
X107742337Y-56873383D01*
X107741807Y-56872828D01*
X107741305Y-56872248D01*
X107740830Y-56871644D01*
X107740385Y-56871017D01*
X107739969Y-56870368D01*
X107739584Y-56869699D01*
X107739231Y-56869009D01*
X107738911Y-56868301D01*
X107738625Y-56867575D01*
X107738373Y-56866833D01*
X107738158Y-56866074D01*
X107737979Y-56865300D01*
X107737839Y-56864513D01*
X107737737Y-56863713D01*
X107737675Y-56862901D01*
X107737655Y-56862079D01*
X107737655Y-56747342D01*
X107737675Y-56746520D01*
X107737737Y-56745708D01*
X107737839Y-56744908D01*
X107737979Y-56744121D01*
X107738158Y-56743347D01*
X107738373Y-56742589D01*
X107738625Y-56741846D01*
X107738911Y-56741120D01*
X107739231Y-56740412D01*
X107739584Y-56739722D01*
X107739969Y-56739053D01*
X107740385Y-56738404D01*
X107740830Y-56737777D01*
X107741305Y-56737173D01*
X107741807Y-56736593D01*
X107742337Y-56736038D01*
X107742892Y-56735509D01*
X107743472Y-56735006D01*
X107744076Y-56734532D01*
X107744703Y-56734086D01*
X107745351Y-56733670D01*
X107746021Y-56733285D01*
X107746710Y-56732932D01*
X107747418Y-56732612D01*
X107748144Y-56732326D01*
X107748887Y-56732074D01*
X107749646Y-56731859D01*
X107750419Y-56731680D01*
X107751207Y-56731540D01*
X107752007Y-56731438D01*
X107752819Y-56731376D01*
X107753641Y-56731356D01*
X108024868Y-56731356D01*
X108025691Y-56731376D01*
G37*
G36*
X108894599Y-55985517D02*
G01*
X108895411Y-55985579D01*
X108896211Y-55985680D01*
X108896999Y-55985821D01*
X108897772Y-55985999D01*
X108898531Y-55986215D01*
X108899273Y-55986466D01*
X108899999Y-55986752D01*
X108900708Y-55987072D01*
X108901397Y-55987425D01*
X108902066Y-55987810D01*
X108902715Y-55988226D01*
X108903342Y-55988672D01*
X108903946Y-55989147D01*
X108904526Y-55989649D01*
X108905081Y-55990178D01*
X108905610Y-55990734D01*
X108906113Y-55991314D01*
X108906588Y-55991918D01*
X108907033Y-55992544D01*
X108907449Y-55993193D01*
X108907834Y-55993862D01*
X108908187Y-55994552D01*
X108908507Y-55995260D01*
X108908793Y-55995986D01*
X108909045Y-55996729D01*
X108909260Y-55997487D01*
X108909439Y-55998261D01*
X108909579Y-55999048D01*
X108909681Y-55999848D01*
X108909743Y-56000660D01*
X108909764Y-56001483D01*
X108909764Y-56272709D01*
X108909743Y-56273532D01*
X108909681Y-56274344D01*
X108909579Y-56275144D01*
X108909439Y-56275931D01*
X108909260Y-56276705D01*
X108909045Y-56277463D01*
X108908793Y-56278206D01*
X108908507Y-56278932D01*
X108908187Y-56279640D01*
X108907834Y-56280330D01*
X108907449Y-56280999D01*
X108907033Y-56281648D01*
X108906588Y-56282275D01*
X108906113Y-56282879D01*
X108905610Y-56283459D01*
X108905081Y-56284014D01*
X108904526Y-56284543D01*
X108903946Y-56285046D01*
X108903342Y-56285520D01*
X108902715Y-56285966D01*
X108902066Y-56286382D01*
X108901397Y-56286767D01*
X108900708Y-56287120D01*
X108899999Y-56287440D01*
X108899273Y-56287726D01*
X108898531Y-56287978D01*
X108897772Y-56288193D01*
X108896999Y-56288371D01*
X108896211Y-56288512D01*
X108895411Y-56288614D01*
X108894599Y-56288675D01*
X108893777Y-56288696D01*
X108779041Y-56288696D01*
X108778218Y-56288675D01*
X108777406Y-56288614D01*
X108776606Y-56288512D01*
X108775819Y-56288371D01*
X108775045Y-56288193D01*
X108774287Y-56287978D01*
X108773544Y-56287726D01*
X108772818Y-56287440D01*
X108772110Y-56287120D01*
X108771420Y-56286767D01*
X108770751Y-56286382D01*
X108770102Y-56285966D01*
X108769475Y-56285520D01*
X108768872Y-56285046D01*
X108768291Y-56284543D01*
X108767736Y-56284014D01*
X108767207Y-56283459D01*
X108766704Y-56282879D01*
X108766230Y-56282275D01*
X108765784Y-56281648D01*
X108765368Y-56280999D01*
X108764983Y-56280330D01*
X108764630Y-56279640D01*
X108764310Y-56278932D01*
X108764024Y-56278206D01*
X108763772Y-56277463D01*
X108763557Y-56276705D01*
X108763379Y-56275931D01*
X108763238Y-56275144D01*
X108763136Y-56274344D01*
X108763075Y-56273532D01*
X108763054Y-56272709D01*
X108763054Y-56001483D01*
X108763075Y-56000660D01*
X108763136Y-55999848D01*
X108763238Y-55999048D01*
X108763379Y-55998261D01*
X108763557Y-55997487D01*
X108763772Y-55996729D01*
X108764024Y-55995986D01*
X108764310Y-55995260D01*
X108764630Y-55994552D01*
X108764983Y-55993862D01*
X108765368Y-55993193D01*
X108765784Y-55992544D01*
X108766230Y-55991918D01*
X108766704Y-55991314D01*
X108767207Y-55990734D01*
X108767736Y-55990178D01*
X108768291Y-55989649D01*
X108768872Y-55989147D01*
X108769475Y-55988672D01*
X108770102Y-55988226D01*
X108770751Y-55987810D01*
X108771420Y-55987425D01*
X108772110Y-55987072D01*
X108772818Y-55986752D01*
X108773544Y-55986466D01*
X108774287Y-55986215D01*
X108775045Y-55985999D01*
X108775819Y-55985821D01*
X108776606Y-55985680D01*
X108777406Y-55985579D01*
X108778218Y-55985517D01*
X108779041Y-55985496D01*
X108893777Y-55985496D01*
X108894599Y-55985517D01*
G37*
D12*
X109199579Y-56426582D02*
X109214736Y-56427734D01*
X109229673Y-56429632D01*
X109244370Y-56432257D01*
X109258810Y-56435590D01*
X109272973Y-56439612D01*
X109286840Y-56444304D01*
X109300394Y-56449648D01*
X109313614Y-56455625D01*
X109326483Y-56462216D01*
X109338982Y-56469402D01*
X109351091Y-56477165D01*
X109362792Y-56485486D01*
X109374067Y-56494347D01*
X109384897Y-56503727D01*
X109395262Y-56513610D01*
X109405144Y-56523975D01*
X109414525Y-56534804D01*
X109423385Y-56546079D01*
X109431706Y-56557781D01*
X109439469Y-56569890D01*
X109446656Y-56582389D01*
X109453247Y-56595257D01*
X109459224Y-56608478D01*
X109464568Y-56622031D01*
X109469260Y-56635899D01*
X109473282Y-56650062D01*
X109476615Y-56664502D01*
X109479239Y-56679199D01*
X109481137Y-56694136D01*
X109482290Y-56709293D01*
X109482678Y-56724651D01*
X109482678Y-57433489D01*
X109482290Y-57448847D01*
X109481137Y-57464004D01*
X109479239Y-57478941D01*
X109476615Y-57493638D01*
X109473282Y-57508078D01*
X109469260Y-57522241D01*
X109464568Y-57536108D01*
X109459224Y-57549662D01*
X109453247Y-57562882D01*
X109446656Y-57575751D01*
X109439469Y-57588250D01*
X109431706Y-57600359D01*
X109423385Y-57612060D01*
X109414525Y-57623335D01*
X109405144Y-57634165D01*
X109395262Y-57644530D01*
X109384897Y-57654412D01*
X109374067Y-57663793D01*
X109362792Y-57672653D01*
X109351091Y-57680974D01*
X109338982Y-57688737D01*
X109326483Y-57695924D01*
X109313614Y-57702515D01*
X109300394Y-57708492D01*
X109286840Y-57713836D01*
X109272973Y-57718528D01*
X109258810Y-57722550D01*
X109244370Y-57725882D01*
X109229673Y-57728507D01*
X109214736Y-57730405D01*
X109199579Y-57731558D01*
X109184221Y-57731946D01*
X108475383Y-57731946D01*
X108460024Y-57731558D01*
X108444868Y-57730405D01*
X108429931Y-57728507D01*
X108415234Y-57725882D01*
X108400794Y-57722550D01*
X108386631Y-57718528D01*
X108372763Y-57713836D01*
X108359210Y-57708492D01*
X108345990Y-57702515D01*
X108333121Y-57695924D01*
X108320622Y-57688737D01*
X108308513Y-57680974D01*
X108296811Y-57672653D01*
X108285537Y-57663793D01*
X108274707Y-57654412D01*
X108264342Y-57644530D01*
X108254460Y-57634165D01*
X108245079Y-57623335D01*
X108236219Y-57612060D01*
X108227898Y-57600359D01*
X108220134Y-57588250D01*
X108212948Y-57575751D01*
X108206357Y-57562882D01*
X108200380Y-57549662D01*
X108195036Y-57536108D01*
X108190344Y-57522241D01*
X108186322Y-57508078D01*
X108182989Y-57493638D01*
X108180365Y-57478941D01*
X108178467Y-57464004D01*
X108177314Y-57448847D01*
X108176926Y-57433489D01*
X108176926Y-56724651D01*
X108177314Y-56709293D01*
X108178467Y-56694136D01*
X108180365Y-56679199D01*
X108182989Y-56664502D01*
X108186322Y-56650062D01*
X108190344Y-56635899D01*
X108195036Y-56622031D01*
X108200380Y-56608478D01*
X108206357Y-56595257D01*
X108212948Y-56582389D01*
X108220134Y-56569890D01*
X108227898Y-56557781D01*
X108236219Y-56546079D01*
X108245079Y-56534804D01*
X108254460Y-56523975D01*
X108264342Y-56513610D01*
X108274707Y-56503727D01*
X108285537Y-56494347D01*
X108296811Y-56485486D01*
X108308513Y-56477165D01*
X108320622Y-56469402D01*
X108333121Y-56462216D01*
X108345990Y-56455625D01*
X108359210Y-56449648D01*
X108372763Y-56444304D01*
X108386631Y-56439612D01*
X108400794Y-56435590D01*
X108415234Y-56432257D01*
X108429931Y-56429632D01*
X108444868Y-56427734D01*
X108460024Y-56426582D01*
X108475383Y-56426193D01*
X109184221Y-56426193D01*
X109199579Y-56426582D01*
D11*
G36*
X108613640Y-57866353D02*
G01*
X108614452Y-57866415D01*
X108615252Y-57866517D01*
X108616039Y-57866657D01*
X108616813Y-57866836D01*
X108617571Y-57867051D01*
X108618314Y-57867303D01*
X108619040Y-57867589D01*
X108619748Y-57867909D01*
X108620438Y-57868262D01*
X108621107Y-57868647D01*
X108621756Y-57869063D01*
X108622383Y-57869509D01*
X108622987Y-57869983D01*
X108623567Y-57870486D01*
X108624122Y-57871015D01*
X108624651Y-57871570D01*
X108625154Y-57872150D01*
X108625629Y-57872754D01*
X108626074Y-57873381D01*
X108626490Y-57874030D01*
X108626875Y-57874699D01*
X108627228Y-57875388D01*
X108627548Y-57876097D01*
X108627835Y-57876823D01*
X108628086Y-57877565D01*
X108628301Y-57878324D01*
X108628480Y-57879098D01*
X108628621Y-57879885D01*
X108628722Y-57880685D01*
X108628784Y-57881497D01*
X108628805Y-57882320D01*
X108628805Y-58153532D01*
X108628784Y-58154354D01*
X108628722Y-58155166D01*
X108628621Y-58155966D01*
X108628480Y-58156754D01*
X108628301Y-58157527D01*
X108628086Y-58158286D01*
X108627835Y-58159029D01*
X108627548Y-58159755D01*
X108627228Y-58160463D01*
X108626875Y-58161152D01*
X108626490Y-58161822D01*
X108626074Y-58162470D01*
X108625629Y-58163097D01*
X108625154Y-58163701D01*
X108624651Y-58164281D01*
X108624122Y-58164836D01*
X108623567Y-58165366D01*
X108622987Y-58165868D01*
X108622383Y-58166343D01*
X108621756Y-58166788D01*
X108621107Y-58167204D01*
X108620438Y-58167589D01*
X108619748Y-58167942D01*
X108619040Y-58168262D01*
X108618314Y-58168549D01*
X108617571Y-58168800D01*
X108616813Y-58169015D01*
X108616039Y-58169194D01*
X108615252Y-58169334D01*
X108614452Y-58169436D01*
X108613640Y-58169498D01*
X108612817Y-58169519D01*
X108498082Y-58169519D01*
X108497259Y-58169498D01*
X108496447Y-58169436D01*
X108495647Y-58169334D01*
X108494860Y-58169194D01*
X108494087Y-58169015D01*
X108493328Y-58168800D01*
X108492585Y-58168549D01*
X108491859Y-58168262D01*
X108491151Y-58167942D01*
X108490462Y-58167589D01*
X108489792Y-58167204D01*
X108489144Y-58166788D01*
X108488517Y-58166343D01*
X108487913Y-58165868D01*
X108487333Y-58165366D01*
X108486777Y-58164836D01*
X108486248Y-58164281D01*
X108485746Y-58163701D01*
X108485271Y-58163097D01*
X108484825Y-58162470D01*
X108484409Y-58161822D01*
X108484025Y-58161152D01*
X108483671Y-58160463D01*
X108483351Y-58159755D01*
X108483065Y-58159029D01*
X108482814Y-58158286D01*
X108482598Y-58157527D01*
X108482420Y-58156754D01*
X108482279Y-58155966D01*
X108482178Y-58155166D01*
X108482116Y-58154354D01*
X108482095Y-58153532D01*
X108482095Y-57882320D01*
X108482116Y-57881497D01*
X108482178Y-57880685D01*
X108482279Y-57879885D01*
X108482420Y-57879098D01*
X108482598Y-57878324D01*
X108482814Y-57877565D01*
X108483065Y-57876823D01*
X108483351Y-57876097D01*
X108483671Y-57875388D01*
X108484025Y-57874699D01*
X108484409Y-57874030D01*
X108484825Y-57873381D01*
X108485271Y-57872754D01*
X108485746Y-57872150D01*
X108486248Y-57871570D01*
X108486777Y-57871015D01*
X108487333Y-57870486D01*
X108487913Y-57869983D01*
X108488517Y-57869509D01*
X108489144Y-57869063D01*
X108489792Y-57868647D01*
X108490462Y-57868262D01*
X108491151Y-57867909D01*
X108491859Y-57867589D01*
X108492585Y-57867303D01*
X108493328Y-57867051D01*
X108494087Y-57866836D01*
X108494860Y-57866657D01*
X108495647Y-57866517D01*
X108496447Y-57866415D01*
X108497259Y-57866353D01*
X108498082Y-57866333D01*
X108612817Y-57866333D01*
X108613640Y-57866353D01*
G37*
G36*
X109906784Y-56731370D02*
G01*
X109907596Y-56731432D01*
X109908396Y-56731534D01*
X109909183Y-56731674D01*
X109909957Y-56731853D01*
X109910715Y-56732068D01*
X109911458Y-56732320D01*
X109912184Y-56732606D01*
X109912892Y-56732926D01*
X109913582Y-56733279D01*
X109914251Y-56733664D01*
X109914900Y-56734080D01*
X109915527Y-56734526D01*
X109916130Y-56735000D01*
X109916711Y-56735503D01*
X109917266Y-56736032D01*
X109917795Y-56736587D01*
X109918298Y-56737167D01*
X109918772Y-56737771D01*
X109919218Y-56738398D01*
X109919634Y-56739047D01*
X109920019Y-56739716D01*
X109920372Y-56740406D01*
X109920692Y-56741114D01*
X109920978Y-56741840D01*
X109921230Y-56742583D01*
X109921445Y-56743341D01*
X109921623Y-56744115D01*
X109921764Y-56744902D01*
X109921866Y-56745702D01*
X109921927Y-56746514D01*
X109921948Y-56747337D01*
X109921948Y-56862072D01*
X109921927Y-56862895D01*
X109921866Y-56863707D01*
X109921764Y-56864507D01*
X109921623Y-56865294D01*
X109921445Y-56866068D01*
X109921230Y-56866826D01*
X109920978Y-56867569D01*
X109920692Y-56868295D01*
X109920372Y-56869003D01*
X109920019Y-56869692D01*
X109919634Y-56870362D01*
X109919218Y-56871011D01*
X109918772Y-56871637D01*
X109918298Y-56872241D01*
X109917795Y-56872821D01*
X109917266Y-56873377D01*
X109916711Y-56873906D01*
X109916130Y-56874408D01*
X109915527Y-56874883D01*
X109914900Y-56875329D01*
X109914251Y-56875745D01*
X109913582Y-56876130D01*
X109912892Y-56876483D01*
X109912184Y-56876803D01*
X109911458Y-56877089D01*
X109910715Y-56877340D01*
X109909957Y-56877556D01*
X109909183Y-56877734D01*
X109908396Y-56877875D01*
X109907596Y-56877977D01*
X109906784Y-56878038D01*
X109905961Y-56878059D01*
X109634749Y-56878059D01*
X109633926Y-56878038D01*
X109633114Y-56877977D01*
X109632314Y-56877875D01*
X109631527Y-56877734D01*
X109630754Y-56877556D01*
X109629995Y-56877340D01*
X109629252Y-56877089D01*
X109628526Y-56876803D01*
X109627818Y-56876483D01*
X109627128Y-56876130D01*
X109626459Y-56875745D01*
X109625810Y-56875329D01*
X109625184Y-56874883D01*
X109624580Y-56874408D01*
X109623999Y-56873906D01*
X109623444Y-56873377D01*
X109622915Y-56872821D01*
X109622412Y-56872241D01*
X109621938Y-56871637D01*
X109621492Y-56871011D01*
X109621076Y-56870362D01*
X109620691Y-56869692D01*
X109620338Y-56869003D01*
X109620018Y-56868295D01*
X109619732Y-56867569D01*
X109619480Y-56866826D01*
X109619265Y-56866068D01*
X109619086Y-56865294D01*
X109618946Y-56864507D01*
X109618844Y-56863707D01*
X109618782Y-56862895D01*
X109618762Y-56862072D01*
X109618762Y-56747337D01*
X109618782Y-56746514D01*
X109618844Y-56745702D01*
X109618946Y-56744902D01*
X109619086Y-56744115D01*
X109619265Y-56743341D01*
X109619480Y-56742583D01*
X109619732Y-56741840D01*
X109620018Y-56741114D01*
X109620338Y-56740406D01*
X109620691Y-56739716D01*
X109621076Y-56739047D01*
X109621492Y-56738398D01*
X109621938Y-56737771D01*
X109622412Y-56737167D01*
X109622915Y-56736587D01*
X109623444Y-56736032D01*
X109623999Y-56735503D01*
X109624580Y-56735000D01*
X109625184Y-56734526D01*
X109625810Y-56734080D01*
X109626459Y-56733664D01*
X109627128Y-56733279D01*
X109627818Y-56732926D01*
X109628526Y-56732606D01*
X109629252Y-56732320D01*
X109629995Y-56732068D01*
X109630754Y-56731853D01*
X109631527Y-56731674D01*
X109632314Y-56731534D01*
X109633114Y-56731432D01*
X109633926Y-56731370D01*
X109634749Y-56731349D01*
X109905961Y-56731349D01*
X109906784Y-56731370D01*
G37*
D13*
X106855977Y-56463270D02*
X106876473Y-56463534D01*
X106896723Y-56464407D01*
X106916725Y-56465887D01*
X106936480Y-56467975D01*
X106955987Y-56470672D01*
X106975248Y-56473977D01*
X106994260Y-56477890D01*
X107013026Y-56482411D01*
X107031544Y-56487540D01*
X107049815Y-56493277D01*
X107067838Y-56499622D01*
X107085615Y-56506576D01*
X107103143Y-56514137D01*
X107120425Y-56522307D01*
X107137459Y-56531085D01*
X107154246Y-56540471D01*
X107170889Y-56550405D01*
X107187077Y-56560829D01*
X107202809Y-56571743D01*
X107218086Y-56583146D01*
X107232907Y-56595039D01*
X107247272Y-56607422D01*
X107261182Y-56620294D01*
X107274636Y-56633656D01*
X107287635Y-56647507D01*
X107300177Y-56661848D01*
X107312265Y-56676679D01*
X107323896Y-56691999D01*
X107335072Y-56707809D01*
X107345793Y-56724109D01*
X107356057Y-56740898D01*
X107365866Y-56758176D01*
X107375350Y-56775634D01*
X107384222Y-56793384D01*
X107392482Y-56811426D01*
X107400130Y-56829759D01*
X107407166Y-56848384D01*
X107413591Y-56867301D01*
X107419403Y-56886510D01*
X107424604Y-56906011D01*
X107429193Y-56925803D01*
X107433170Y-56945887D01*
X107436535Y-56966263D01*
X107439288Y-56986931D01*
X107441430Y-57007890D01*
X107442959Y-57029141D01*
X107443877Y-57050684D01*
X107444183Y-57072519D01*
X107443877Y-57094362D01*
X107442959Y-57115928D01*
X107441430Y-57137218D01*
X107439288Y-57158232D01*
X107436535Y-57178970D01*
X107433170Y-57199432D01*
X107429193Y-57219617D01*
X107424604Y-57239526D01*
X107419403Y-57259159D01*
X107413591Y-57278515D01*
X107407166Y-57297596D01*
X107400130Y-57316400D01*
X107392482Y-57334928D01*
X107384222Y-57353180D01*
X107375350Y-57371155D01*
X107365866Y-57388854D01*
X107356057Y-57406171D01*
X107345793Y-57423001D01*
X107335072Y-57439342D01*
X107323896Y-57455195D01*
X107312265Y-57470561D01*
X107300177Y-57485438D01*
X107287635Y-57499828D01*
X107274636Y-57513730D01*
X107261182Y-57527144D01*
X107247272Y-57540070D01*
X107232907Y-57552508D01*
X107218086Y-57564458D01*
X107202809Y-57575921D01*
X107187077Y-57586895D01*
X107170889Y-57597382D01*
X107154246Y-57607380D01*
X107137459Y-57616831D01*
X107120425Y-57625675D01*
X107103143Y-57633912D01*
X107085615Y-57641542D01*
X107067838Y-57648564D01*
X107049815Y-57654979D01*
X107031544Y-57660787D01*
X107013026Y-57665988D01*
X106994260Y-57670582D01*
X106975248Y-57674568D01*
X106955987Y-57677948D01*
X106936480Y-57680720D01*
X106916725Y-57682885D01*
X106896723Y-57684443D01*
X106876473Y-57685393D01*
X106855977Y-57685737D01*
X106835473Y-57685473D01*
X106815204Y-57684601D01*
X106795169Y-57683120D01*
X106775369Y-57681032D01*
X106755803Y-57678335D01*
X106736471Y-57675030D01*
X106717373Y-57671118D01*
X106698510Y-57666597D01*
X106679881Y-57661468D01*
X106661487Y-57655731D01*
X106643327Y-57649386D01*
X106625401Y-57642432D01*
X106607709Y-57634871D01*
X106590252Y-57626702D01*
X106573029Y-57617924D01*
X106556041Y-57608538D01*
X106539592Y-57598604D01*
X106523574Y-57588180D01*
X106507985Y-57577266D01*
X106492826Y-57565862D01*
X106478096Y-57553969D01*
X106463796Y-57541587D01*
X106449925Y-57528714D01*
X106436484Y-57515352D01*
X106423472Y-57501501D01*
X106410891Y-57487160D01*
X106398738Y-57472329D01*
X106387016Y-57457009D01*
X106375722Y-57441199D01*
X106364859Y-57424900D01*
X106354425Y-57408111D01*
X106344420Y-57390832D01*
X106335139Y-57373169D01*
X106326456Y-57355228D01*
X106318371Y-57337007D01*
X106310886Y-57318509D01*
X106304000Y-57299731D01*
X106297712Y-57280676D01*
X106292023Y-57261341D01*
X106286933Y-57241728D01*
X106282442Y-57221836D01*
X106278550Y-57201666D01*
X106275256Y-57181217D01*
X106272561Y-57160490D01*
X106270465Y-57139484D01*
X106268968Y-57118200D01*
X106268070Y-57096637D01*
X106267771Y-57074795D01*
X106267777Y-57074331D01*
X106507719Y-57074331D01*
X106507888Y-57089013D01*
X106508396Y-57103470D01*
X106509242Y-57117701D01*
X106510427Y-57131707D01*
X106511950Y-57145489D01*
X106513811Y-57159045D01*
X106516011Y-57172375D01*
X106518550Y-57185481D01*
X106521427Y-57198361D01*
X106524642Y-57211016D01*
X106528196Y-57223446D01*
X106532088Y-57235651D01*
X106536319Y-57247631D01*
X106540888Y-57259385D01*
X106545796Y-57270914D01*
X106551042Y-57282218D01*
X106556796Y-57293039D01*
X106562811Y-57303542D01*
X106569085Y-57313728D01*
X106575620Y-57323596D01*
X106582416Y-57333146D01*
X106589472Y-57342379D01*
X106596788Y-57351295D01*
X106604364Y-57359892D01*
X106612201Y-57368173D01*
X106620298Y-57376136D01*
X106628656Y-57383781D01*
X106637274Y-57391109D01*
X106646152Y-57398119D01*
X106655291Y-57404812D01*
X106664690Y-57411188D01*
X106674349Y-57417246D01*
X106684236Y-57422960D01*
X106694319Y-57428304D01*
X106704596Y-57433277D01*
X106715069Y-57437880D01*
X106725738Y-57442113D01*
X106736601Y-57445976D01*
X106747660Y-57449468D01*
X106758914Y-57452590D01*
X106770364Y-57455342D01*
X106782008Y-57457723D01*
X106793848Y-57459735D01*
X106805883Y-57461376D01*
X106818114Y-57462647D01*
X106830539Y-57463547D01*
X106843160Y-57464078D01*
X106855977Y-57464238D01*
X106868793Y-57464028D01*
X106881414Y-57463449D01*
X106893839Y-57462500D01*
X106906070Y-57461182D01*
X106918105Y-57459494D01*
X106929945Y-57457437D01*
X106941589Y-57455010D01*
X106953039Y-57452214D01*
X106964293Y-57449048D01*
X106975351Y-57445513D01*
X106986215Y-57441609D01*
X106996883Y-57437334D01*
X107007356Y-57432691D01*
X107017634Y-57427677D01*
X107027716Y-57422295D01*
X107037603Y-57416542D01*
X107047256Y-57410447D01*
X107056636Y-57404036D01*
X107065742Y-57397308D01*
X107074574Y-57390263D01*
X107083134Y-57382902D01*
X107091420Y-57375225D01*
X107099432Y-57367231D01*
X107107171Y-57358920D01*
X107114637Y-57350293D01*
X107121830Y-57341349D01*
X107128749Y-57332089D01*
X107135394Y-57322512D01*
X107141767Y-57312619D01*
X107147866Y-57302410D01*
X107153691Y-57291883D01*
X107159243Y-57281041D01*
X107164691Y-57269716D01*
X107169788Y-57258168D01*
X107174533Y-57246395D01*
X107178927Y-57234399D01*
X107182969Y-57222179D01*
X107186659Y-57209735D01*
X107189998Y-57197067D01*
X107192986Y-57184176D01*
X107195622Y-57171060D01*
X107197907Y-57157721D01*
X107199840Y-57144157D01*
X107201422Y-57130370D01*
X107202652Y-57116359D01*
X107203530Y-57102124D01*
X107204058Y-57087665D01*
X107204233Y-57072983D01*
X107204058Y-57058307D01*
X107203530Y-57043870D01*
X107202652Y-57029672D01*
X107201422Y-57015712D01*
X107199840Y-57001990D01*
X107197907Y-56988507D01*
X107195622Y-56975262D01*
X107192986Y-56962256D01*
X107189998Y-56949488D01*
X107186659Y-56936959D01*
X107182969Y-56924668D01*
X107178927Y-56912615D01*
X107174533Y-56900801D01*
X107169788Y-56889226D01*
X107164691Y-56877889D01*
X107159243Y-56866790D01*
X107153691Y-56855764D01*
X107147866Y-56845069D01*
X107141767Y-56834704D01*
X107135394Y-56824671D01*
X107128749Y-56814968D01*
X107121830Y-56805596D01*
X107114637Y-56796555D01*
X107107171Y-56787844D01*
X107099432Y-56779464D01*
X107091420Y-56771415D01*
X107083134Y-56763697D01*
X107074574Y-56756309D01*
X107065742Y-56749253D01*
X107056636Y-56742527D01*
X107047256Y-56736132D01*
X107037603Y-56730067D01*
X107027716Y-56724354D01*
X107017634Y-56719010D01*
X107007356Y-56714037D01*
X106996883Y-56709434D01*
X106986215Y-56705201D01*
X106975351Y-56701339D01*
X106964292Y-56697846D01*
X106953038Y-56694724D01*
X106941589Y-56691973D01*
X106929944Y-56689591D01*
X106918104Y-56687580D01*
X106906069Y-56685938D01*
X106893839Y-56684668D01*
X106881413Y-56683767D01*
X106868793Y-56683237D01*
X106855977Y-56683077D01*
X106843160Y-56683286D01*
X106830539Y-56683866D01*
X106818113Y-56684814D01*
X106805883Y-56686132D01*
X106793848Y-56687820D01*
X106782008Y-56689877D01*
X106770363Y-56692304D01*
X106758914Y-56695100D01*
X106747660Y-56698266D01*
X106736601Y-56701801D01*
X106725738Y-56705706D01*
X106715069Y-56709980D01*
X106704596Y-56714624D01*
X106694319Y-56719637D01*
X106684236Y-56725019D01*
X106674349Y-56730771D01*
X106664690Y-56736873D01*
X106655291Y-56743304D01*
X106646152Y-56750065D01*
X106637274Y-56757156D01*
X106628656Y-56764577D01*
X106620298Y-56772327D01*
X106612201Y-56780407D01*
X106604364Y-56788817D01*
X106596788Y-56797557D01*
X106589472Y-56806626D01*
X106582416Y-56816026D01*
X106575620Y-56825754D01*
X106569085Y-56835813D01*
X106562811Y-56846201D01*
X106556796Y-56856920D01*
X106551042Y-56867967D01*
X106545796Y-56879087D01*
X106540888Y-56890443D01*
X106536319Y-56902037D01*
X106532088Y-56913867D01*
X106528196Y-56925935D01*
X106524642Y-56938240D01*
X106521427Y-56950782D01*
X106518550Y-56963561D01*
X106516011Y-56976577D01*
X106513811Y-56989831D01*
X106511950Y-57003321D01*
X106510427Y-57017049D01*
X106509242Y-57031014D01*
X106508396Y-57045216D01*
X106507888Y-57059655D01*
X106507719Y-57074331D01*
X106267777Y-57074331D01*
X106268070Y-57052959D01*
X106268968Y-57031413D01*
X106270465Y-57010156D01*
X106272561Y-56989188D01*
X106275256Y-56968510D01*
X106278550Y-56948121D01*
X106282442Y-56928022D01*
X106286933Y-56908212D01*
X106292023Y-56888692D01*
X106297712Y-56869461D01*
X106304000Y-56850519D01*
X106310886Y-56831867D01*
X106318371Y-56813505D01*
X106326456Y-56795432D01*
X106335139Y-56777648D01*
X106344420Y-56760154D01*
X106354425Y-56742836D01*
X106364859Y-56726007D01*
X106375722Y-56709665D01*
X106387016Y-56693812D01*
X106398738Y-56678446D01*
X106410891Y-56663568D01*
X106423472Y-56649178D01*
X106436484Y-56635276D01*
X106449925Y-56621863D01*
X106463796Y-56608937D01*
X106478096Y-56596499D01*
X106492826Y-56584548D01*
X106507985Y-56573086D01*
X106523574Y-56562112D01*
X106539592Y-56551626D01*
X106556041Y-56541628D01*
X106573029Y-56532176D01*
X106590252Y-56523332D01*
X106607709Y-56515095D01*
X106625401Y-56507465D01*
X106643327Y-56500443D01*
X106661487Y-56494027D01*
X106679881Y-56488219D01*
X106698510Y-56483018D01*
X106717373Y-56478424D01*
X106736471Y-56474438D01*
X106755803Y-56471058D01*
X106775369Y-56468286D01*
X106795169Y-56466121D01*
X106815204Y-56464563D01*
X106835473Y-56463612D01*
X106855977Y-56463269D01*
X106855977Y-56463270D01*
D14*
X103631759Y-74101175D02*
X103298426Y-73624984D01*
X103060331Y-74101175D02*
X103060331Y-73101175D01*
X103060331Y-73101175D02*
X103441283Y-73101175D01*
X103441283Y-73101175D02*
X103536521Y-73148794D01*
X103536521Y-73148794D02*
X103584140Y-73196413D01*
X103584140Y-73196413D02*
X103631759Y-73291651D01*
X103631759Y-73291651D02*
X103631759Y-73434508D01*
X103631759Y-73434508D02*
X103584140Y-73529746D01*
X103584140Y-73529746D02*
X103536521Y-73577365D01*
X103536521Y-73577365D02*
X103441283Y-73624984D01*
X103441283Y-73624984D02*
X103060331Y-73624984D01*
X104060331Y-74101175D02*
X104060331Y-73101175D01*
X104060331Y-73101175D02*
X104441283Y-73101175D01*
X104441283Y-73101175D02*
X104536521Y-73148794D01*
X104536521Y-73148794D02*
X104584140Y-73196413D01*
X104584140Y-73196413D02*
X104631759Y-73291651D01*
X104631759Y-73291651D02*
X104631759Y-73434508D01*
X104631759Y-73434508D02*
X104584140Y-73529746D01*
X104584140Y-73529746D02*
X104536521Y-73577365D01*
X104536521Y-73577365D02*
X104441283Y-73624984D01*
X104441283Y-73624984D02*
X104060331Y-73624984D01*
X105012712Y-73196413D02*
X105060331Y-73148794D01*
X105060331Y-73148794D02*
X105155569Y-73101175D01*
X105155569Y-73101175D02*
X105393664Y-73101175D01*
X105393664Y-73101175D02*
X105488902Y-73148794D01*
X105488902Y-73148794D02*
X105536521Y-73196413D01*
X105536521Y-73196413D02*
X105584140Y-73291651D01*
X105584140Y-73291651D02*
X105584140Y-73386889D01*
X105584140Y-73386889D02*
X105536521Y-73529746D01*
X105536521Y-73529746D02*
X104965093Y-74101175D01*
X104965093Y-74101175D02*
X105584140Y-74101175D01*
X105917474Y-73101175D02*
X106536521Y-73101175D01*
X106536521Y-73101175D02*
X106203188Y-73482127D01*
X106203188Y-73482127D02*
X106346045Y-73482127D01*
X106346045Y-73482127D02*
X106441283Y-73529746D01*
X106441283Y-73529746D02*
X106488902Y-73577365D01*
X106488902Y-73577365D02*
X106536521Y-73672603D01*
X106536521Y-73672603D02*
X106536521Y-73910698D01*
X106536521Y-73910698D02*
X106488902Y-74005936D01*
X106488902Y-74005936D02*
X106441283Y-74053556D01*
X106441283Y-74053556D02*
X106346045Y-74101175D01*
X106346045Y-74101175D02*
X106060331Y-74101175D01*
X106060331Y-74101175D02*
X105965093Y-74053556D01*
X105965093Y-74053556D02*
X105917474Y-74005936D01*
X107441283Y-73101175D02*
X106965093Y-73101175D01*
X106965093Y-73101175D02*
X106917474Y-73577365D01*
X106917474Y-73577365D02*
X106965093Y-73529746D01*
X106965093Y-73529746D02*
X107060331Y-73482127D01*
X107060331Y-73482127D02*
X107298426Y-73482127D01*
X107298426Y-73482127D02*
X107393664Y-73529746D01*
X107393664Y-73529746D02*
X107441283Y-73577365D01*
X107441283Y-73577365D02*
X107488902Y-73672603D01*
X107488902Y-73672603D02*
X107488902Y-73910698D01*
X107488902Y-73910698D02*
X107441283Y-74005936D01*
X107441283Y-74005936D02*
X107393664Y-74053556D01*
X107393664Y-74053556D02*
X107298426Y-74101175D01*
X107298426Y-74101175D02*
X107060331Y-74101175D01*
X107060331Y-74101175D02*
X106965093Y-74053556D01*
X106965093Y-74053556D02*
X106917474Y-74005936D01*
X108107950Y-73101175D02*
X108203188Y-73101175D01*
X108203188Y-73101175D02*
X108298426Y-73148794D01*
X108298426Y-73148794D02*
X108346045Y-73196413D01*
X108346045Y-73196413D02*
X108393664Y-73291651D01*
X108393664Y-73291651D02*
X108441283Y-73482127D01*
X108441283Y-73482127D02*
X108441283Y-73720222D01*
X108441283Y-73720222D02*
X108393664Y-73910698D01*
X108393664Y-73910698D02*
X108346045Y-74005936D01*
X108346045Y-74005936D02*
X108298426Y-74053556D01*
X108298426Y-74053556D02*
X108203188Y-74101175D01*
X108203188Y-74101175D02*
X108107950Y-74101175D01*
X108107950Y-74101175D02*
X108012712Y-74053556D01*
X108012712Y-74053556D02*
X107965093Y-74005936D01*
X107965093Y-74005936D02*
X107917474Y-73910698D01*
X107917474Y-73910698D02*
X107869855Y-73720222D01*
X107869855Y-73720222D02*
X107869855Y-73482127D01*
X107869855Y-73482127D02*
X107917474Y-73291651D01*
X107917474Y-73291651D02*
X107965093Y-73196413D01*
X107965093Y-73196413D02*
X108012712Y-73148794D01*
X108012712Y-73148794D02*
X108107950Y-73101175D01*
X110155569Y-73148794D02*
X110060331Y-73101175D01*
X110060331Y-73101175D02*
X109917474Y-73101175D01*
X109917474Y-73101175D02*
X109774617Y-73148794D01*
X109774617Y-73148794D02*
X109679379Y-73244032D01*
X109679379Y-73244032D02*
X109631760Y-73339270D01*
X109631760Y-73339270D02*
X109584141Y-73529746D01*
X109584141Y-73529746D02*
X109584141Y-73672603D01*
X109584141Y-73672603D02*
X109631760Y-73863079D01*
X109631760Y-73863079D02*
X109679379Y-73958317D01*
X109679379Y-73958317D02*
X109774617Y-74053556D01*
X109774617Y-74053556D02*
X109917474Y-74101175D01*
X109917474Y-74101175D02*
X110012712Y-74101175D01*
X110012712Y-74101175D02*
X110155569Y-74053556D01*
X110155569Y-74053556D02*
X110203188Y-74005936D01*
X110203188Y-74005936D02*
X110203188Y-73672603D01*
X110203188Y-73672603D02*
X110012712Y-73672603D01*
X110631760Y-74101175D02*
X110631760Y-73101175D01*
X110631760Y-73101175D02*
X111012712Y-73101175D01*
X111012712Y-73101175D02*
X111107950Y-73148794D01*
X111107950Y-73148794D02*
X111155569Y-73196413D01*
X111155569Y-73196413D02*
X111203188Y-73291651D01*
X111203188Y-73291651D02*
X111203188Y-73434508D01*
X111203188Y-73434508D02*
X111155569Y-73529746D01*
X111155569Y-73529746D02*
X111107950Y-73577365D01*
X111107950Y-73577365D02*
X111012712Y-73624984D01*
X111012712Y-73624984D02*
X110631760Y-73624984D01*
X111631760Y-74101175D02*
X111631760Y-73101175D01*
X112298426Y-73101175D02*
X112488902Y-73101175D01*
X112488902Y-73101175D02*
X112584140Y-73148794D01*
X112584140Y-73148794D02*
X112679378Y-73244032D01*
X112679378Y-73244032D02*
X112726997Y-73434508D01*
X112726997Y-73434508D02*
X112726997Y-73767841D01*
X112726997Y-73767841D02*
X112679378Y-73958317D01*
X112679378Y-73958317D02*
X112584140Y-74053556D01*
X112584140Y-74053556D02*
X112488902Y-74101175D01*
X112488902Y-74101175D02*
X112298426Y-74101175D01*
X112298426Y-74101175D02*
X112203188Y-74053556D01*
X112203188Y-74053556D02*
X112107950Y-73958317D01*
X112107950Y-73958317D02*
X112060331Y-73767841D01*
X112060331Y-73767841D02*
X112060331Y-73434508D01*
X112060331Y-73434508D02*
X112107950Y-73244032D01*
X112107950Y-73244032D02*
X112203188Y-73148794D01*
X112203188Y-73148794D02*
X112298426Y-73101175D01*
X103060331Y-75187309D02*
X103393664Y-75187309D01*
X103536521Y-75711119D02*
X103060331Y-75711119D01*
X103060331Y-75711119D02*
X103060331Y-74711119D01*
X103060331Y-74711119D02*
X103536521Y-74711119D01*
X103869855Y-74711119D02*
X104536521Y-75711119D01*
X104536521Y-74711119D02*
X103869855Y-75711119D01*
X104917474Y-75711119D02*
X104917474Y-74711119D01*
X104917474Y-74711119D02*
X105298426Y-74711119D01*
X105298426Y-74711119D02*
X105393664Y-74758738D01*
X105393664Y-74758738D02*
X105441283Y-74806357D01*
X105441283Y-74806357D02*
X105488902Y-74901595D01*
X105488902Y-74901595D02*
X105488902Y-75044452D01*
X105488902Y-75044452D02*
X105441283Y-75139690D01*
X105441283Y-75139690D02*
X105393664Y-75187309D01*
X105393664Y-75187309D02*
X105298426Y-75234928D01*
X105298426Y-75234928D02*
X104917474Y-75234928D01*
X105869855Y-75425404D02*
X106346045Y-75425404D01*
X105774617Y-75711119D02*
X106107950Y-74711119D01*
X106107950Y-74711119D02*
X106441283Y-75711119D01*
X106774617Y-75711119D02*
X106774617Y-74711119D01*
X106774617Y-74711119D02*
X107346045Y-75711119D01*
X107346045Y-75711119D02*
X107346045Y-74711119D01*
X107774617Y-75663500D02*
X107917474Y-75711119D01*
X107917474Y-75711119D02*
X108155569Y-75711119D01*
X108155569Y-75711119D02*
X108250807Y-75663500D01*
X108250807Y-75663500D02*
X108298426Y-75615880D01*
X108298426Y-75615880D02*
X108346045Y-75520642D01*
X108346045Y-75520642D02*
X108346045Y-75425404D01*
X108346045Y-75425404D02*
X108298426Y-75330166D01*
X108298426Y-75330166D02*
X108250807Y-75282547D01*
X108250807Y-75282547D02*
X108155569Y-75234928D01*
X108155569Y-75234928D02*
X107965093Y-75187309D01*
X107965093Y-75187309D02*
X107869855Y-75139690D01*
X107869855Y-75139690D02*
X107822236Y-75092071D01*
X107822236Y-75092071D02*
X107774617Y-74996833D01*
X107774617Y-74996833D02*
X107774617Y-74901595D01*
X107774617Y-74901595D02*
X107822236Y-74806357D01*
X107822236Y-74806357D02*
X107869855Y-74758738D01*
X107869855Y-74758738D02*
X107965093Y-74711119D01*
X107965093Y-74711119D02*
X108203188Y-74711119D01*
X108203188Y-74711119D02*
X108346045Y-74758738D01*
X108774617Y-75711119D02*
X108774617Y-74711119D01*
X109441283Y-74711119D02*
X109631759Y-74711119D01*
X109631759Y-74711119D02*
X109726997Y-74758738D01*
X109726997Y-74758738D02*
X109822235Y-74853976D01*
X109822235Y-74853976D02*
X109869854Y-75044452D01*
X109869854Y-75044452D02*
X109869854Y-75377785D01*
X109869854Y-75377785D02*
X109822235Y-75568261D01*
X109822235Y-75568261D02*
X109726997Y-75663500D01*
X109726997Y-75663500D02*
X109631759Y-75711119D01*
X109631759Y-75711119D02*
X109441283Y-75711119D01*
X109441283Y-75711119D02*
X109346045Y-75663500D01*
X109346045Y-75663500D02*
X109250807Y-75568261D01*
X109250807Y-75568261D02*
X109203188Y-75377785D01*
X109203188Y-75377785D02*
X109203188Y-75044452D01*
X109203188Y-75044452D02*
X109250807Y-74853976D01*
X109250807Y-74853976D02*
X109346045Y-74758738D01*
X109346045Y-74758738D02*
X109441283Y-74711119D01*
X110298426Y-75711119D02*
X110298426Y-74711119D01*
X110298426Y-74711119D02*
X110869854Y-75711119D01*
X110869854Y-75711119D02*
X110869854Y-74711119D01*
X112679378Y-75615880D02*
X112631759Y-75663500D01*
X112631759Y-75663500D02*
X112488902Y-75711119D01*
X112488902Y-75711119D02*
X112393664Y-75711119D01*
X112393664Y-75711119D02*
X112250807Y-75663500D01*
X112250807Y-75663500D02*
X112155569Y-75568261D01*
X112155569Y-75568261D02*
X112107950Y-75473023D01*
X112107950Y-75473023D02*
X112060331Y-75282547D01*
X112060331Y-75282547D02*
X112060331Y-75139690D01*
X112060331Y-75139690D02*
X112107950Y-74949214D01*
X112107950Y-74949214D02*
X112155569Y-74853976D01*
X112155569Y-74853976D02*
X112250807Y-74758738D01*
X112250807Y-74758738D02*
X112393664Y-74711119D01*
X112393664Y-74711119D02*
X112488902Y-74711119D01*
X112488902Y-74711119D02*
X112631759Y-74758738D01*
X112631759Y-74758738D02*
X112679378Y-74806357D01*
X113060331Y-75425404D02*
X113536521Y-75425404D01*
X112965093Y-75711119D02*
X113298426Y-74711119D01*
X113298426Y-74711119D02*
X113631759Y-75711119D01*
X114536521Y-75711119D02*
X114203188Y-75234928D01*
X113965093Y-75711119D02*
X113965093Y-74711119D01*
X113965093Y-74711119D02*
X114346045Y-74711119D01*
X114346045Y-74711119D02*
X114441283Y-74758738D01*
X114441283Y-74758738D02*
X114488902Y-74806357D01*
X114488902Y-74806357D02*
X114536521Y-74901595D01*
X114536521Y-74901595D02*
X114536521Y-75044452D01*
X114536521Y-75044452D02*
X114488902Y-75139690D01*
X114488902Y-75139690D02*
X114441283Y-75187309D01*
X114441283Y-75187309D02*
X114346045Y-75234928D01*
X114346045Y-75234928D02*
X113965093Y-75234928D01*
X114965093Y-75711119D02*
X114965093Y-74711119D01*
X114965093Y-74711119D02*
X115203188Y-74711119D01*
X115203188Y-74711119D02*
X115346045Y-74758738D01*
X115346045Y-74758738D02*
X115441283Y-74853976D01*
X115441283Y-74853976D02*
X115488902Y-74949214D01*
X115488902Y-74949214D02*
X115536521Y-75139690D01*
X115536521Y-75139690D02*
X115536521Y-75282547D01*
X115536521Y-75282547D02*
X115488902Y-75473023D01*
X115488902Y-75473023D02*
X115441283Y-75568261D01*
X115441283Y-75568261D02*
X115346045Y-75663500D01*
X115346045Y-75663500D02*
X115203188Y-75711119D01*
X115203188Y-75711119D02*
X114965093Y-75711119D01*
D15*
G36*
X100256446Y-77979046D02*
G01*
X99215514Y-77979046D01*
X99215514Y-76747470D01*
X99326625Y-76747470D01*
X99326625Y-76786800D01*
X99341676Y-76823136D01*
X99369487Y-76850947D01*
X99405823Y-76865998D01*
X99425488Y-76867935D01*
X99822395Y-76867935D01*
X99635342Y-77081710D01*
X99629265Y-77090210D01*
X99627390Y-77092086D01*
X99626653Y-77093865D01*
X99623851Y-77097785D01*
X99618606Y-77113292D01*
X99612339Y-77128422D01*
X99612339Y-77131821D01*
X99611250Y-77135041D01*
X99612339Y-77151377D01*
X99612339Y-77167752D01*
X99613639Y-77170892D01*
X99613866Y-77174285D01*
X99621124Y-77188961D01*
X99627390Y-77204088D01*
X99629794Y-77206492D01*
X99631301Y-77209539D01*
X99643620Y-77220318D01*
X99655201Y-77231899D01*
X99658342Y-77233200D01*
X99660900Y-77235438D01*
X99676407Y-77240682D01*
X99691537Y-77246950D01*
X99696332Y-77247422D01*
X99698156Y-77248039D01*
X99700802Y-77247862D01*
X99711202Y-77248887D01*
X99830264Y-77248887D01*
X99889587Y-77278548D01*
X99914073Y-77303035D01*
X99943735Y-77362358D01*
X99943735Y-77552863D01*
X99914073Y-77612185D01*
X99889585Y-77636674D01*
X99830264Y-77666335D01*
X99592140Y-77666335D01*
X99532818Y-77636674D01*
X99496765Y-77600620D01*
X99481490Y-77588085D01*
X99445154Y-77573033D01*
X99405824Y-77573033D01*
X99369487Y-77588083D01*
X99341677Y-77615894D01*
X99326625Y-77652230D01*
X99326625Y-77691560D01*
X99341675Y-77727897D01*
X99354211Y-77743172D01*
X99401830Y-77790792D01*
X99409561Y-77797136D01*
X99411305Y-77799147D01*
X99414337Y-77801055D01*
X99417105Y-77803327D01*
X99419562Y-77804344D01*
X99428028Y-77809674D01*
X99523266Y-77857293D01*
X99541721Y-77864355D01*
X99545333Y-77864611D01*
X99548680Y-77865998D01*
X99568345Y-77867935D01*
X99854059Y-77867935D01*
X99873724Y-77865998D01*
X99877070Y-77864611D01*
X99880683Y-77864355D01*
X99899138Y-77857293D01*
X99994376Y-77809674D01*
X100002841Y-77804344D01*
X100005299Y-77803327D01*
X100008066Y-77801055D01*
X100011099Y-77799147D01*
X100012842Y-77797136D01*
X100020574Y-77790792D01*
X100068193Y-77743172D01*
X100074537Y-77735441D01*
X100076547Y-77733698D01*
X100078455Y-77730666D01*
X100080728Y-77727897D01*
X100081746Y-77725438D01*
X100087074Y-77716975D01*
X100134693Y-77621737D01*
X100141755Y-77603282D01*
X100142011Y-77599669D01*
X100143398Y-77596323D01*
X100145335Y-77576658D01*
X100145335Y-77338563D01*
X100143398Y-77318898D01*
X100142011Y-77315551D01*
X100141755Y-77311939D01*
X100134693Y-77293484D01*
X100087074Y-77198246D01*
X100081747Y-77189784D01*
X100080728Y-77187323D01*
X100078453Y-77184551D01*
X100076547Y-77181523D01*
X100074538Y-77179780D01*
X100068192Y-77172048D01*
X100020573Y-77124430D01*
X100012843Y-77118086D01*
X100011099Y-77116075D01*
X100008066Y-77114166D01*
X100005298Y-77111894D01*
X100002839Y-77110875D01*
X99994376Y-77105548D01*
X99916454Y-77066587D01*
X100120395Y-76833512D01*
X100126473Y-76825009D01*
X100128347Y-76823136D01*
X100129082Y-76821359D01*
X100131887Y-76817437D01*
X100137133Y-76801924D01*
X100143398Y-76786800D01*
X100143398Y-76783400D01*
X100144487Y-76780180D01*
X100143398Y-76763843D01*
X100143398Y-76747470D01*
X100142097Y-76744329D01*
X100141871Y-76740937D01*
X100134611Y-76726257D01*
X100128347Y-76711134D01*
X100125943Y-76708730D01*
X100124436Y-76705682D01*
X100112108Y-76694895D01*
X100100536Y-76683323D01*
X100097396Y-76682022D01*
X100094837Y-76679783D01*
X100079322Y-76674535D01*
X100064200Y-76668272D01*
X100059404Y-76667799D01*
X100057581Y-76667183D01*
X100054934Y-76667359D01*
X100044535Y-76666335D01*
X99425488Y-76666335D01*
X99405823Y-76668272D01*
X99369487Y-76683323D01*
X99341676Y-76711134D01*
X99326625Y-76747470D01*
X99215514Y-76747470D01*
X99215514Y-76555224D01*
X100256446Y-76555224D01*
X100256446Y-77979046D01*
G37*
G36*
X102752128Y-77977109D02*
G01*
X101711988Y-77977109D01*
X101711988Y-77421194D01*
X101823099Y-77421194D01*
X101824244Y-77437305D01*
X101824244Y-77453466D01*
X101825630Y-77456812D01*
X101825887Y-77460425D01*
X101833111Y-77474874D01*
X101839295Y-77489802D01*
X101841856Y-77492363D01*
X101843476Y-77495603D01*
X101855683Y-77506190D01*
X101867106Y-77517613D01*
X101870451Y-77518998D01*
X101873188Y-77521372D01*
X101888513Y-77526480D01*
X101903442Y-77532664D01*
X101908584Y-77533170D01*
X101910500Y-77533809D01*
X101913152Y-77533620D01*
X101923107Y-77534601D01*
X102298497Y-77534601D01*
X102298497Y-77767135D01*
X102300434Y-77786800D01*
X102315485Y-77823136D01*
X102343296Y-77850947D01*
X102379632Y-77865998D01*
X102418962Y-77865998D01*
X102455298Y-77850947D01*
X102483109Y-77823136D01*
X102498160Y-77786800D01*
X102500097Y-77767135D01*
X102500097Y-77534601D01*
X102542154Y-77534601D01*
X102561819Y-77532664D01*
X102598155Y-77517613D01*
X102625966Y-77489802D01*
X102641017Y-77453466D01*
X102641017Y-77414136D01*
X102625966Y-77377800D01*
X102598155Y-77349989D01*
X102561819Y-77334938D01*
X102542154Y-77333001D01*
X102500097Y-77333001D01*
X102500097Y-77100468D01*
X102498160Y-77080803D01*
X102483109Y-77044467D01*
X102455298Y-77016656D01*
X102418962Y-77001605D01*
X102379632Y-77001605D01*
X102343296Y-77016656D01*
X102315485Y-77044467D01*
X102300434Y-77080803D01*
X102298497Y-77100468D01*
X102298497Y-77333001D01*
X102062959Y-77333001D01*
X102256829Y-76751392D01*
X102261210Y-76732124D01*
X102258422Y-76692893D01*
X102240833Y-76657715D01*
X102211121Y-76631945D01*
X102173809Y-76619508D01*
X102134578Y-76622296D01*
X102099400Y-76639886D01*
X102073631Y-76669597D01*
X102065575Y-76687641D01*
X101827480Y-77401925D01*
X101825263Y-77411675D01*
X101824244Y-77414136D01*
X101824244Y-77416157D01*
X101823099Y-77421194D01*
X101711988Y-77421194D01*
X101711988Y-76508397D01*
X102752128Y-76508397D01*
X102752128Y-77977109D01*
G37*
G36*
X110402360Y-77977341D02*
G01*
X109315514Y-77977341D01*
X109315514Y-76747470D01*
X109426625Y-76747470D01*
X109426625Y-76786800D01*
X109441676Y-76823136D01*
X109469487Y-76850947D01*
X109505823Y-76865998D01*
X109525488Y-76867935D01*
X110039287Y-76867935D01*
X109670933Y-77727428D01*
X109664967Y-77746266D01*
X109664488Y-77785593D01*
X109679095Y-77822111D01*
X109706564Y-77850258D01*
X109742714Y-77865751D01*
X109782041Y-77866230D01*
X109818559Y-77851623D01*
X109846706Y-77824154D01*
X109856233Y-77806842D01*
X110284804Y-76806842D01*
X110290770Y-76788004D01*
X110290777Y-76787377D01*
X110291017Y-76786800D01*
X110291017Y-76767724D01*
X110291249Y-76748677D01*
X110291017Y-76748097D01*
X110291017Y-76747470D01*
X110283707Y-76729822D01*
X110276642Y-76712160D01*
X110276205Y-76711713D01*
X110275966Y-76711134D01*
X110262482Y-76697650D01*
X110249173Y-76684012D01*
X110248597Y-76683765D01*
X110248155Y-76683323D01*
X110230518Y-76676017D01*
X110213023Y-76668520D01*
X110212399Y-76668512D01*
X110211819Y-76668272D01*
X110192154Y-76666335D01*
X109525488Y-76666335D01*
X109505823Y-76668272D01*
X109469487Y-76683323D01*
X109441676Y-76711134D01*
X109426625Y-76747470D01*
X109315514Y-76747470D01*
X109315514Y-76555224D01*
X110402360Y-76555224D01*
X110402360Y-77977341D01*
G37*
G36*
X105306446Y-77979046D02*
G01*
X104311667Y-77979046D01*
X104311667Y-77253055D01*
X104422778Y-77253055D01*
X104424244Y-77257913D01*
X104424244Y-77262990D01*
X104429884Y-77276606D01*
X104434139Y-77290708D01*
X104437351Y-77294635D01*
X104439295Y-77299326D01*
X104449713Y-77309744D01*
X104459044Y-77321149D01*
X104463518Y-77323549D01*
X104467106Y-77327137D01*
X104480713Y-77332773D01*
X104493702Y-77339741D01*
X104498753Y-77340246D01*
X104503442Y-77342188D01*
X104518175Y-77342188D01*
X104532837Y-77343654D01*
X104537696Y-77342188D01*
X104542772Y-77342188D01*
X104556388Y-77336547D01*
X104570490Y-77332293D01*
X104574417Y-77329080D01*
X104579108Y-77327137D01*
X104594383Y-77314601D01*
X104630436Y-77278548D01*
X104689759Y-77248887D01*
X104880264Y-77248887D01*
X104939587Y-77278548D01*
X104964073Y-77303035D01*
X104993735Y-77362358D01*
X104993735Y-77552863D01*
X104964073Y-77612185D01*
X104939585Y-77636674D01*
X104880264Y-77666335D01*
X104689759Y-77666335D01*
X104630437Y-77636674D01*
X104594384Y-77600620D01*
X104579109Y-77588085D01*
X104542773Y-77573033D01*
X104503443Y-77573033D01*
X104467106Y-77588083D01*
X104439296Y-77615894D01*
X104424244Y-77652230D01*
X104424244Y-77691560D01*
X104439294Y-77727897D01*
X104451830Y-77743172D01*
X104499449Y-77790792D01*
X104507180Y-77797136D01*
X104508924Y-77799147D01*
X104511956Y-77801055D01*
X104514724Y-77803327D01*
X104517181Y-77804344D01*
X104525647Y-77809674D01*
X104620885Y-77857293D01*
X104639340Y-77864355D01*
X104642952Y-77864611D01*
X104646299Y-77865998D01*
X104665964Y-77867935D01*
X104904059Y-77867935D01*
X104923724Y-77865998D01*
X104927070Y-77864611D01*
X104930683Y-77864355D01*
X104949138Y-77857293D01*
X105044376Y-77809674D01*
X105052841Y-77804344D01*
X105055299Y-77803327D01*
X105058066Y-77801055D01*
X105061099Y-77799147D01*
X105062842Y-77797136D01*
X105070574Y-77790792D01*
X105118193Y-77743172D01*
X105124537Y-77735441D01*
X105126547Y-77733698D01*
X105128455Y-77730666D01*
X105130728Y-77727897D01*
X105131746Y-77725438D01*
X105137074Y-77716975D01*
X105184693Y-77621737D01*
X105191755Y-77603282D01*
X105192011Y-77599669D01*
X105193398Y-77596323D01*
X105195335Y-77576658D01*
X105195335Y-77338563D01*
X105193398Y-77318898D01*
X105192011Y-77315551D01*
X105191755Y-77311939D01*
X105184693Y-77293484D01*
X105137074Y-77198246D01*
X105131747Y-77189784D01*
X105130728Y-77187323D01*
X105128453Y-77184551D01*
X105126547Y-77181523D01*
X105124538Y-77179780D01*
X105118192Y-77172048D01*
X105070573Y-77124430D01*
X105062843Y-77118086D01*
X105061099Y-77116075D01*
X105058066Y-77114166D01*
X105055298Y-77111894D01*
X105052839Y-77110875D01*
X105044376Y-77105548D01*
X104949138Y-77057929D01*
X104930683Y-77050867D01*
X104927070Y-77050610D01*
X104923724Y-77049224D01*
X104904059Y-77047287D01*
X104665964Y-77047287D01*
X104646299Y-77049224D01*
X104643712Y-77050295D01*
X104661949Y-76867935D01*
X105046916Y-76867935D01*
X105066581Y-76865998D01*
X105102917Y-76850947D01*
X105130728Y-76823136D01*
X105145779Y-76786800D01*
X105145779Y-76747470D01*
X105130728Y-76711134D01*
X105102917Y-76683323D01*
X105066581Y-76668272D01*
X105046916Y-76666335D01*
X104570726Y-76666335D01*
X104563451Y-76667051D01*
X104560996Y-76666806D01*
X104558597Y-76667529D01*
X104551061Y-76668272D01*
X104537444Y-76673912D01*
X104523343Y-76678167D01*
X104519415Y-76681379D01*
X104514725Y-76683323D01*
X104504306Y-76693741D01*
X104492902Y-76703072D01*
X104490501Y-76707546D01*
X104486914Y-76711134D01*
X104481277Y-76724741D01*
X104474310Y-76737730D01*
X104472821Y-76745156D01*
X104471863Y-76747470D01*
X104471863Y-76749936D01*
X104470426Y-76757105D01*
X104422807Y-77233295D01*
X104422778Y-77253055D01*
X104311667Y-77253055D01*
X104311667Y-76555224D01*
X105306446Y-76555224D01*
X105306446Y-77979046D01*
G37*
G36*
X107439587Y-77278548D02*
G01*
X107464073Y-77303035D01*
X107493735Y-77362358D01*
X107493735Y-77552863D01*
X107464073Y-77612185D01*
X107439585Y-77636674D01*
X107380264Y-77666335D01*
X107237378Y-77666335D01*
X107178056Y-77636674D01*
X107153568Y-77612185D01*
X107123907Y-77552863D01*
X107123907Y-77362358D01*
X107153568Y-77303034D01*
X107178055Y-77278548D01*
X107237378Y-77248887D01*
X107380264Y-77248887D01*
X107439587Y-77278548D01*
G37*
G36*
X107806446Y-77979046D02*
G01*
X106811196Y-77979046D01*
X106811196Y-77195706D01*
X106922307Y-77195706D01*
X106922307Y-77576658D01*
X106924244Y-77596323D01*
X106925630Y-77599669D01*
X106925887Y-77603282D01*
X106932949Y-77621737D01*
X106980568Y-77716975D01*
X106985892Y-77725434D01*
X106986913Y-77727897D01*
X106989189Y-77730670D01*
X106991095Y-77733698D01*
X106993102Y-77735439D01*
X106999449Y-77743172D01*
X107047068Y-77790792D01*
X107054799Y-77797136D01*
X107056543Y-77799147D01*
X107059575Y-77801055D01*
X107062343Y-77803327D01*
X107064800Y-77804344D01*
X107073266Y-77809674D01*
X107168504Y-77857293D01*
X107186959Y-77864355D01*
X107190571Y-77864611D01*
X107193918Y-77865998D01*
X107213583Y-77867935D01*
X107404059Y-77867935D01*
X107423724Y-77865998D01*
X107427070Y-77864611D01*
X107430683Y-77864355D01*
X107449138Y-77857293D01*
X107544376Y-77809674D01*
X107552841Y-77804344D01*
X107555299Y-77803327D01*
X107558066Y-77801055D01*
X107561099Y-77799147D01*
X107562842Y-77797136D01*
X107570574Y-77790792D01*
X107618193Y-77743172D01*
X107624537Y-77735441D01*
X107626547Y-77733698D01*
X107628455Y-77730666D01*
X107630728Y-77727897D01*
X107631746Y-77725438D01*
X107637074Y-77716975D01*
X107684693Y-77621737D01*
X107691755Y-77603282D01*
X107692011Y-77599669D01*
X107693398Y-77596323D01*
X107695335Y-77576658D01*
X107695335Y-77338563D01*
X107693398Y-77318898D01*
X107692011Y-77315551D01*
X107691755Y-77311939D01*
X107684693Y-77293484D01*
X107637074Y-77198246D01*
X107631747Y-77189784D01*
X107630728Y-77187323D01*
X107628453Y-77184551D01*
X107626547Y-77181523D01*
X107624538Y-77179780D01*
X107618192Y-77172048D01*
X107570573Y-77124430D01*
X107562843Y-77118086D01*
X107561099Y-77116075D01*
X107558066Y-77114166D01*
X107555298Y-77111894D01*
X107552839Y-77110875D01*
X107544376Y-77105548D01*
X107449138Y-77057929D01*
X107430683Y-77050867D01*
X107427070Y-77050610D01*
X107423724Y-77049224D01*
X107404059Y-77047287D01*
X107213583Y-77047287D01*
X107193918Y-77049224D01*
X107190571Y-77050610D01*
X107186959Y-77050867D01*
X107168504Y-77057929D01*
X107160446Y-77061958D01*
X107164281Y-77046618D01*
X107244300Y-76926588D01*
X107273293Y-76897596D01*
X107332616Y-76867935D01*
X107499297Y-76867935D01*
X107518962Y-76865998D01*
X107555298Y-76850947D01*
X107583109Y-76823136D01*
X107598160Y-76786800D01*
X107598160Y-76747470D01*
X107583109Y-76711134D01*
X107555298Y-76683323D01*
X107518962Y-76668272D01*
X107499297Y-76666335D01*
X107308821Y-76666335D01*
X107289156Y-76668272D01*
X107285809Y-76669658D01*
X107282197Y-76669915D01*
X107263742Y-76676977D01*
X107168504Y-76724596D01*
X107160042Y-76729922D01*
X107157581Y-76730942D01*
X107154809Y-76733216D01*
X107151781Y-76735123D01*
X107150038Y-76737131D01*
X107142306Y-76743478D01*
X107094688Y-76791097D01*
X107094644Y-76791149D01*
X107094613Y-76791171D01*
X107087914Y-76799350D01*
X107082152Y-76806372D01*
X107082139Y-76806402D01*
X107082093Y-76806459D01*
X106986855Y-76949316D01*
X106981065Y-76960175D01*
X106979584Y-76962175D01*
X106978739Y-76964538D01*
X106977559Y-76966753D01*
X106977075Y-76969195D01*
X106972936Y-76980783D01*
X106925317Y-77171258D01*
X106924812Y-77174668D01*
X106924244Y-77176041D01*
X106923514Y-77183443D01*
X106922426Y-77190806D01*
X106922644Y-77192276D01*
X106922307Y-77195706D01*
X106811196Y-77195706D01*
X106811196Y-76555224D01*
X107806446Y-76555224D01*
X107806446Y-77979046D01*
G37*
G36*
X92191968Y-76897596D02*
G01*
X92216454Y-76922083D01*
X92251809Y-76992793D01*
X92293735Y-77160494D01*
X92293735Y-77373774D01*
X92251809Y-77541475D01*
X92216454Y-77612185D01*
X92191966Y-77636674D01*
X92132645Y-77666335D01*
X92084997Y-77666335D01*
X92025675Y-77636674D01*
X92001187Y-77612185D01*
X91965832Y-77541476D01*
X91923907Y-77373774D01*
X91923907Y-77160495D01*
X91965832Y-76992793D01*
X92001187Y-76922082D01*
X92025674Y-76897596D01*
X92084997Y-76867935D01*
X92132645Y-76867935D01*
X92191968Y-76897596D01*
G37*
G36*
X92606446Y-77979046D02*
G01*
X91611196Y-77979046D01*
X91611196Y-77148087D01*
X91722307Y-77148087D01*
X91722307Y-77386182D01*
X91722644Y-77389611D01*
X91722426Y-77391082D01*
X91723514Y-77398444D01*
X91724244Y-77405847D01*
X91724812Y-77407219D01*
X91725317Y-77410630D01*
X91772936Y-77601105D01*
X91773454Y-77602556D01*
X91773506Y-77603282D01*
X91776636Y-77611463D01*
X91779584Y-77619713D01*
X91780017Y-77620297D01*
X91780568Y-77621737D01*
X91828187Y-77716975D01*
X91833511Y-77725434D01*
X91834532Y-77727897D01*
X91836808Y-77730670D01*
X91838714Y-77733698D01*
X91840721Y-77735439D01*
X91847068Y-77743172D01*
X91894687Y-77790792D01*
X91902418Y-77797136D01*
X91904162Y-77799147D01*
X91907194Y-77801055D01*
X91909962Y-77803327D01*
X91912419Y-77804344D01*
X91920885Y-77809674D01*
X92016123Y-77857293D01*
X92034578Y-77864355D01*
X92038190Y-77864611D01*
X92041537Y-77865998D01*
X92061202Y-77867935D01*
X92156440Y-77867935D01*
X92176105Y-77865998D01*
X92179451Y-77864611D01*
X92183064Y-77864355D01*
X92201519Y-77857293D01*
X92296757Y-77809674D01*
X92305222Y-77804344D01*
X92307680Y-77803327D01*
X92310447Y-77801055D01*
X92313480Y-77799147D01*
X92315223Y-77797136D01*
X92322955Y-77790792D01*
X92370574Y-77743172D01*
X92376918Y-77735441D01*
X92378928Y-77733698D01*
X92380836Y-77730666D01*
X92383109Y-77727897D01*
X92384127Y-77725438D01*
X92389455Y-77716975D01*
X92437074Y-77621737D01*
X92437623Y-77620299D01*
X92438058Y-77619714D01*
X92441010Y-77611449D01*
X92444136Y-77603282D01*
X92444187Y-77602557D01*
X92444706Y-77601106D01*
X92492325Y-77410630D01*
X92492829Y-77407219D01*
X92493398Y-77405847D01*
X92494127Y-77398444D01*
X92495216Y-77391082D01*
X92494997Y-77389611D01*
X92495335Y-77386182D01*
X92495335Y-77148087D01*
X92494997Y-77144657D01*
X92495216Y-77143187D01*
X92494127Y-77135824D01*
X92493398Y-77128422D01*
X92492829Y-77127049D01*
X92492325Y-77123639D01*
X92444706Y-76933163D01*
X92444187Y-76931711D01*
X92444136Y-76930987D01*
X92441010Y-76922819D01*
X92438058Y-76914555D01*
X92437623Y-76913969D01*
X92437074Y-76912532D01*
X92389455Y-76817294D01*
X92384128Y-76808832D01*
X92383109Y-76806371D01*
X92380834Y-76803599D01*
X92378928Y-76800571D01*
X92376919Y-76798828D01*
X92370573Y-76791096D01*
X92322954Y-76743478D01*
X92315224Y-76737134D01*
X92313480Y-76735123D01*
X92310447Y-76733214D01*
X92307679Y-76730942D01*
X92305220Y-76729923D01*
X92296757Y-76724596D01*
X92201519Y-76676977D01*
X92183064Y-76669915D01*
X92179451Y-76669658D01*
X92176105Y-76668272D01*
X92156440Y-76666335D01*
X92061202Y-76666335D01*
X92041537Y-76668272D01*
X92038190Y-76669658D01*
X92034578Y-76669915D01*
X92016123Y-76676977D01*
X91920885Y-76724596D01*
X91912423Y-76729922D01*
X91909962Y-76730942D01*
X91907190Y-76733216D01*
X91904162Y-76735123D01*
X91902419Y-76737131D01*
X91894687Y-76743478D01*
X91847069Y-76791097D01*
X91840725Y-76798826D01*
X91838714Y-76800571D01*
X91836805Y-76803603D01*
X91834533Y-76806372D01*
X91833514Y-76808830D01*
X91828187Y-76817294D01*
X91780568Y-76912532D01*
X91780017Y-76913971D01*
X91779584Y-76914556D01*
X91776636Y-76922805D01*
X91773506Y-76930987D01*
X91773454Y-76931712D01*
X91772936Y-76933164D01*
X91725317Y-77123639D01*
X91724812Y-77127049D01*
X91724244Y-77128422D01*
X91723514Y-77135824D01*
X91722426Y-77143187D01*
X91722644Y-77144657D01*
X91722307Y-77148087D01*
X91611196Y-77148087D01*
X91611196Y-76555224D01*
X92606446Y-76555224D01*
X92606446Y-77979046D01*
G37*
G36*
X95154509Y-77979046D02*
G01*
X94161988Y-77979046D01*
X94161988Y-77040242D01*
X94273099Y-77040242D01*
X94275887Y-77079473D01*
X94293476Y-77114651D01*
X94323188Y-77140420D01*
X94360500Y-77152857D01*
X94399731Y-77150069D01*
X94418186Y-77143007D01*
X94513424Y-77095388D01*
X94521887Y-77090060D01*
X94524346Y-77089042D01*
X94527114Y-77086769D01*
X94530147Y-77084861D01*
X94531891Y-77082849D01*
X94539621Y-77076506D01*
X94558021Y-77058106D01*
X94558021Y-77666335D01*
X94373107Y-77666335D01*
X94353442Y-77668272D01*
X94317106Y-77683323D01*
X94289295Y-77711134D01*
X94274244Y-77747470D01*
X94274244Y-77786800D01*
X94289295Y-77823136D01*
X94317106Y-77850947D01*
X94353442Y-77865998D01*
X94373107Y-77867935D01*
X94944535Y-77867935D01*
X94964200Y-77865998D01*
X95000536Y-77850947D01*
X95028347Y-77823136D01*
X95043398Y-77786800D01*
X95043398Y-77747470D01*
X95028347Y-77711134D01*
X95000536Y-77683323D01*
X94964200Y-77668272D01*
X94944535Y-77666335D01*
X94759621Y-77666335D01*
X94759621Y-76767135D01*
X94759614Y-76767064D01*
X94759621Y-76767030D01*
X94759600Y-76766928D01*
X94757684Y-76747470D01*
X94753864Y-76738248D01*
X94751907Y-76728463D01*
X94746412Y-76720257D01*
X94742633Y-76711134D01*
X94735577Y-76704078D01*
X94730023Y-76695784D01*
X94721803Y-76690304D01*
X94714822Y-76683323D01*
X94705602Y-76679504D01*
X94697298Y-76673968D01*
X94687610Y-76672051D01*
X94678486Y-76668272D01*
X94668507Y-76668272D01*
X94658716Y-76666335D01*
X94649032Y-76668272D01*
X94639156Y-76668272D01*
X94629934Y-76672091D01*
X94620149Y-76674049D01*
X94611943Y-76679543D01*
X94602820Y-76683323D01*
X94595764Y-76690378D01*
X94587470Y-76695933D01*
X94575076Y-76711066D01*
X94575009Y-76711134D01*
X94574996Y-76711164D01*
X94574950Y-76711221D01*
X94485246Y-76845777D01*
X94408636Y-76922387D01*
X94328028Y-76962691D01*
X94311305Y-76973218D01*
X94285536Y-77002930D01*
X94273099Y-77040242D01*
X94161988Y-77040242D01*
X94161988Y-76555224D01*
X95154509Y-76555224D01*
X95154509Y-77979046D01*
G37*
G36*
X115137206Y-76897596D02*
G01*
X115161692Y-76922083D01*
X115191354Y-76981406D01*
X115191354Y-77076673D01*
X115161692Y-77135995D01*
X115137206Y-77160482D01*
X115077883Y-77190144D01*
X114821526Y-77190144D01*
X114821526Y-76867935D01*
X115077883Y-76867935D01*
X115137206Y-76897596D01*
G37*
G36*
X115504065Y-77979022D02*
G01*
X114508815Y-77979022D01*
X114508815Y-76767135D01*
X114619926Y-76767135D01*
X114619926Y-77767135D01*
X114621863Y-77786800D01*
X114636914Y-77823136D01*
X114664725Y-77850947D01*
X114701061Y-77865998D01*
X114740391Y-77865998D01*
X114776727Y-77850947D01*
X114804538Y-77823136D01*
X114819589Y-77786800D01*
X114821526Y-77767135D01*
X114821526Y-77391744D01*
X114906338Y-77391744D01*
X115209575Y-77824940D01*
X115222439Y-77839940D01*
X115255607Y-77861076D01*
X115294339Y-77867911D01*
X115332738Y-77859404D01*
X115364958Y-77836850D01*
X115386095Y-77803682D01*
X115392930Y-77764950D01*
X115384423Y-77726551D01*
X115374733Y-77709330D01*
X115145350Y-77381640D01*
X115146757Y-77381102D01*
X115241995Y-77333483D01*
X115250458Y-77328155D01*
X115252917Y-77327137D01*
X115255685Y-77324864D01*
X115258718Y-77322956D01*
X115260462Y-77320944D01*
X115268192Y-77314601D01*
X115315811Y-77266983D01*
X115322157Y-77259250D01*
X115324166Y-77257508D01*
X115326072Y-77254479D01*
X115328347Y-77251708D01*
X115329366Y-77249246D01*
X115334693Y-77240785D01*
X115382312Y-77145547D01*
X115389374Y-77127092D01*
X115389630Y-77123479D01*
X115391017Y-77120133D01*
X115392954Y-77100468D01*
X115392954Y-76957611D01*
X115391017Y-76937946D01*
X115389630Y-76934599D01*
X115389374Y-76930987D01*
X115382312Y-76912532D01*
X115334693Y-76817294D01*
X115329366Y-76808832D01*
X115328347Y-76806371D01*
X115326072Y-76803599D01*
X115324166Y-76800571D01*
X115322157Y-76798828D01*
X115315811Y-76791096D01*
X115268192Y-76743478D01*
X115260462Y-76737134D01*
X115258718Y-76735123D01*
X115255685Y-76733214D01*
X115252917Y-76730942D01*
X115250458Y-76729923D01*
X115241995Y-76724596D01*
X115146757Y-76676977D01*
X115128302Y-76669915D01*
X115124689Y-76669658D01*
X115121343Y-76668272D01*
X115101678Y-76666335D01*
X114720726Y-76666335D01*
X114701061Y-76668272D01*
X114664725Y-76683323D01*
X114636914Y-76711134D01*
X114621863Y-76747470D01*
X114619926Y-76767135D01*
X114508815Y-76767135D01*
X114508815Y-76555224D01*
X115504065Y-76555224D01*
X115504065Y-77979022D01*
G37*
G36*
X97756446Y-77979046D02*
G01*
X96715514Y-77979046D01*
X96715514Y-77747470D01*
X96826625Y-77747470D01*
X96826625Y-77786800D01*
X96841676Y-77823137D01*
X96856951Y-77838411D01*
X96869487Y-77850947D01*
X96905823Y-77865998D01*
X96925488Y-77867935D01*
X97544535Y-77867935D01*
X97564200Y-77865998D01*
X97600536Y-77850947D01*
X97628347Y-77823136D01*
X97643398Y-77786800D01*
X97643398Y-77747470D01*
X97628347Y-77711134D01*
X97600536Y-77683323D01*
X97564200Y-77668272D01*
X97544535Y-77666335D01*
X97168840Y-77666335D01*
X97568192Y-77266982D01*
X97580728Y-77251707D01*
X97582113Y-77248361D01*
X97584487Y-77245625D01*
X97592543Y-77227582D01*
X97640162Y-77084725D01*
X97642379Y-77074973D01*
X97643398Y-77072514D01*
X97643749Y-77068947D01*
X97644543Y-77065457D01*
X97644354Y-77062803D01*
X97645335Y-77052849D01*
X97645335Y-76957611D01*
X97643398Y-76937946D01*
X97642011Y-76934599D01*
X97641755Y-76930987D01*
X97634693Y-76912532D01*
X97587074Y-76817294D01*
X97581747Y-76808832D01*
X97580728Y-76806371D01*
X97578453Y-76803599D01*
X97576547Y-76800571D01*
X97574538Y-76798828D01*
X97568192Y-76791096D01*
X97520573Y-76743478D01*
X97512843Y-76737134D01*
X97511099Y-76735123D01*
X97508066Y-76733214D01*
X97505298Y-76730942D01*
X97502839Y-76729923D01*
X97494376Y-76724596D01*
X97399138Y-76676977D01*
X97380683Y-76669915D01*
X97377070Y-76669658D01*
X97373724Y-76668272D01*
X97354059Y-76666335D01*
X97115964Y-76666335D01*
X97096299Y-76668272D01*
X97092952Y-76669658D01*
X97089340Y-76669915D01*
X97070885Y-76676977D01*
X96975647Y-76724596D01*
X96967185Y-76729922D01*
X96964724Y-76730942D01*
X96961952Y-76733216D01*
X96958924Y-76735123D01*
X96957181Y-76737131D01*
X96949449Y-76743478D01*
X96901831Y-76791097D01*
X96889295Y-76806372D01*
X96874244Y-76842708D01*
X96874244Y-76882038D01*
X96889295Y-76918374D01*
X96917106Y-76946185D01*
X96953442Y-76961236D01*
X96992772Y-76961236D01*
X97029108Y-76946185D01*
X97044383Y-76933649D01*
X97080436Y-76897596D01*
X97139759Y-76867935D01*
X97330264Y-76867935D01*
X97389587Y-76897596D01*
X97414073Y-76922083D01*
X97443735Y-76981406D01*
X97443735Y-77036492D01*
X97408813Y-77141256D01*
X96854212Y-77695859D01*
X96841676Y-77711134D01*
X96826625Y-77747470D01*
X96715514Y-77747470D01*
X96715514Y-76555224D01*
X97756446Y-76555224D01*
X97756446Y-77979046D01*
G37*
G36*
X114009271Y-77979046D02*
G01*
X111016750Y-77979046D01*
X111016750Y-76779742D01*
X111127861Y-76779742D01*
X111132242Y-76799011D01*
X111465575Y-77799010D01*
X111473631Y-77817054D01*
X111478349Y-77822494D01*
X111481571Y-77828937D01*
X111491121Y-77837220D01*
X111499400Y-77846765D01*
X111505839Y-77849984D01*
X111511283Y-77854706D01*
X111523275Y-77858703D01*
X111534578Y-77864355D01*
X111541762Y-77864865D01*
X111548595Y-77867143D01*
X111561202Y-77866247D01*
X111573809Y-77867143D01*
X111580641Y-77864865D01*
X111587826Y-77864355D01*
X111599130Y-77858702D01*
X111611121Y-77854706D01*
X111616562Y-77849986D01*
X111623004Y-77846766D01*
X111631284Y-77837217D01*
X111640833Y-77828937D01*
X111644053Y-77822495D01*
X111648773Y-77817054D01*
X111656829Y-77799011D01*
X111857930Y-77195706D01*
X112079450Y-77195706D01*
X112079450Y-77338563D01*
X112079787Y-77341992D01*
X112079569Y-77343463D01*
X112080657Y-77350825D01*
X112081387Y-77358228D01*
X112081955Y-77359600D01*
X112082460Y-77363011D01*
X112130079Y-77553486D01*
X112130597Y-77554937D01*
X112130649Y-77555663D01*
X112133779Y-77563844D01*
X112136727Y-77572094D01*
X112137160Y-77572678D01*
X112137711Y-77574118D01*
X112185330Y-77669356D01*
X112190657Y-77677819D01*
X112191676Y-77680278D01*
X112193948Y-77683047D01*
X112195857Y-77686079D01*
X112197866Y-77687821D01*
X112204211Y-77695553D01*
X112299450Y-77790792D01*
X112314724Y-77803328D01*
X112318071Y-77804714D01*
X112320807Y-77807087D01*
X112338850Y-77815143D01*
X112481707Y-77862762D01*
X112491458Y-77864979D01*
X112493918Y-77865998D01*
X112497484Y-77866349D01*
X112500975Y-77867143D01*
X112503628Y-77866954D01*
X112513583Y-77867935D01*
X112608821Y-77867935D01*
X112618775Y-77866954D01*
X112621428Y-77867143D01*
X112624918Y-77866349D01*
X112628486Y-77865998D01*
X112630946Y-77864978D01*
X112640697Y-77862762D01*
X112783553Y-77815143D01*
X112801597Y-77807087D01*
X112804334Y-77804712D01*
X112807680Y-77803327D01*
X112822955Y-77790792D01*
X112870574Y-77743172D01*
X112883109Y-77727897D01*
X112898160Y-77691560D01*
X112898159Y-77652230D01*
X112883108Y-77615894D01*
X112855297Y-77588084D01*
X112818961Y-77573033D01*
X112779631Y-77573034D01*
X112743295Y-77588085D01*
X112728020Y-77600620D01*
X112697226Y-77631414D01*
X112592464Y-77666335D01*
X112529939Y-77666335D01*
X112425177Y-77631414D01*
X112358330Y-77564566D01*
X112322975Y-77493857D01*
X112281050Y-77326155D01*
X112281050Y-77208114D01*
X112284152Y-77195706D01*
X113079450Y-77195706D01*
X113079450Y-77338563D01*
X113079787Y-77341992D01*
X113079569Y-77343463D01*
X113080657Y-77350825D01*
X113081387Y-77358228D01*
X113081955Y-77359600D01*
X113082460Y-77363011D01*
X113130079Y-77553486D01*
X113130597Y-77554937D01*
X113130649Y-77555663D01*
X113133779Y-77563844D01*
X113136727Y-77572094D01*
X113137160Y-77572678D01*
X113137711Y-77574118D01*
X113185330Y-77669356D01*
X113190657Y-77677819D01*
X113191676Y-77680278D01*
X113193948Y-77683047D01*
X113195857Y-77686079D01*
X113197866Y-77687821D01*
X113204211Y-77695553D01*
X113299450Y-77790792D01*
X113314724Y-77803328D01*
X113318071Y-77804714D01*
X113320807Y-77807087D01*
X113338850Y-77815143D01*
X113481707Y-77862762D01*
X113491458Y-77864979D01*
X113493918Y-77865998D01*
X113497484Y-77866349D01*
X113500975Y-77867143D01*
X113503628Y-77866954D01*
X113513583Y-77867935D01*
X113608821Y-77867935D01*
X113618775Y-77866954D01*
X113621428Y-77867143D01*
X113624918Y-77866349D01*
X113628486Y-77865998D01*
X113630946Y-77864978D01*
X113640697Y-77862762D01*
X113783553Y-77815143D01*
X113801597Y-77807087D01*
X113804334Y-77804712D01*
X113807680Y-77803327D01*
X113822955Y-77790792D01*
X113870574Y-77743172D01*
X113883109Y-77727897D01*
X113898160Y-77691560D01*
X113898159Y-77652230D01*
X113883108Y-77615894D01*
X113855297Y-77588084D01*
X113818961Y-77573033D01*
X113779631Y-77573034D01*
X113743295Y-77588085D01*
X113728020Y-77600620D01*
X113697226Y-77631414D01*
X113592464Y-77666335D01*
X113529939Y-77666335D01*
X113425177Y-77631414D01*
X113358330Y-77564566D01*
X113322975Y-77493857D01*
X113281050Y-77326155D01*
X113281050Y-77208114D01*
X113322975Y-77040412D01*
X113358331Y-76969701D01*
X113425175Y-76902856D01*
X113529939Y-76867935D01*
X113592464Y-76867935D01*
X113697227Y-76902856D01*
X113728020Y-76933649D01*
X113743295Y-76946185D01*
X113779631Y-76961235D01*
X113818962Y-76961235D01*
X113855298Y-76946185D01*
X113883109Y-76918374D01*
X113898159Y-76882038D01*
X113898159Y-76842707D01*
X113883109Y-76806371D01*
X113870573Y-76791096D01*
X113822954Y-76743478D01*
X113807679Y-76730942D01*
X113804333Y-76729556D01*
X113801597Y-76727183D01*
X113783553Y-76719127D01*
X113640697Y-76671508D01*
X113630946Y-76669291D01*
X113628486Y-76668272D01*
X113624918Y-76667920D01*
X113621428Y-76667127D01*
X113618775Y-76667315D01*
X113608821Y-76666335D01*
X113513583Y-76666335D01*
X113503628Y-76667315D01*
X113500975Y-76667127D01*
X113497484Y-76667920D01*
X113493918Y-76668272D01*
X113491458Y-76669290D01*
X113481707Y-76671508D01*
X113338850Y-76719127D01*
X113320807Y-76727183D01*
X113318070Y-76729556D01*
X113314725Y-76730942D01*
X113299450Y-76743478D01*
X113204212Y-76838716D01*
X113197868Y-76846445D01*
X113195857Y-76848190D01*
X113193948Y-76851222D01*
X113191676Y-76853991D01*
X113190657Y-76856449D01*
X113185330Y-76864913D01*
X113137711Y-76960151D01*
X113137160Y-76961590D01*
X113136727Y-76962175D01*
X113133779Y-76970424D01*
X113130649Y-76978606D01*
X113130597Y-76979331D01*
X113130079Y-76980783D01*
X113082460Y-77171258D01*
X113081955Y-77174668D01*
X113081387Y-77176041D01*
X113080657Y-77183443D01*
X113079569Y-77190806D01*
X113079787Y-77192276D01*
X113079450Y-77195706D01*
X112284152Y-77195706D01*
X112322975Y-77040412D01*
X112358331Y-76969701D01*
X112425175Y-76902856D01*
X112529939Y-76867935D01*
X112592464Y-76867935D01*
X112697227Y-76902856D01*
X112728020Y-76933649D01*
X112743295Y-76946185D01*
X112779631Y-76961235D01*
X112818962Y-76961235D01*
X112855298Y-76946185D01*
X112883109Y-76918374D01*
X112898159Y-76882038D01*
X112898159Y-76842707D01*
X112883109Y-76806371D01*
X112870573Y-76791096D01*
X112822954Y-76743478D01*
X112807679Y-76730942D01*
X112804333Y-76729556D01*
X112801597Y-76727183D01*
X112783553Y-76719127D01*
X112640697Y-76671508D01*
X112630946Y-76669291D01*
X112628486Y-76668272D01*
X112624918Y-76667920D01*
X112621428Y-76667127D01*
X112618775Y-76667315D01*
X112608821Y-76666335D01*
X112513583Y-76666335D01*
X112503628Y-76667315D01*
X112500975Y-76667127D01*
X112497484Y-76667920D01*
X112493918Y-76668272D01*
X112491458Y-76669290D01*
X112481707Y-76671508D01*
X112338850Y-76719127D01*
X112320807Y-76727183D01*
X112318070Y-76729556D01*
X112314725Y-76730942D01*
X112299450Y-76743478D01*
X112204212Y-76838716D01*
X112197868Y-76846445D01*
X112195857Y-76848190D01*
X112193948Y-76851222D01*
X112191676Y-76853991D01*
X112190657Y-76856449D01*
X112185330Y-76864913D01*
X112137711Y-76960151D01*
X112137160Y-76961590D01*
X112136727Y-76962175D01*
X112133779Y-76970424D01*
X112130649Y-76978606D01*
X112130597Y-76979331D01*
X112130079Y-76980783D01*
X112082460Y-77171258D01*
X112081955Y-77174668D01*
X112081387Y-77176041D01*
X112080657Y-77183443D01*
X112079569Y-77190806D01*
X112079787Y-77192276D01*
X112079450Y-77195706D01*
X111857930Y-77195706D01*
X111990162Y-76799011D01*
X111994543Y-76779743D01*
X111991755Y-76740512D01*
X111974166Y-76705333D01*
X111944454Y-76679564D01*
X111907142Y-76667127D01*
X111867911Y-76669915D01*
X111832733Y-76687505D01*
X111806964Y-76717216D01*
X111798908Y-76735260D01*
X111561202Y-77448377D01*
X111323496Y-76735259D01*
X111315440Y-76717216D01*
X111289671Y-76687504D01*
X111254493Y-76669915D01*
X111215262Y-76667127D01*
X111177950Y-76679564D01*
X111148238Y-76705333D01*
X111130649Y-76740511D01*
X111127861Y-76779742D01*
X111016750Y-76779742D01*
X111016750Y-76555224D01*
X114009271Y-76555224D01*
X114009271Y-77979046D01*
G37*
D16*
X99616666Y-56628059D02*
X99450000Y-56389964D01*
X99330952Y-56628059D02*
X99330952Y-56128059D01*
X99330952Y-56128059D02*
X99521428Y-56128059D01*
X99521428Y-56128059D02*
X99569047Y-56151869D01*
X99569047Y-56151869D02*
X99592857Y-56175678D01*
X99592857Y-56175678D02*
X99616666Y-56223297D01*
X99616666Y-56223297D02*
X99616666Y-56294726D01*
X99616666Y-56294726D02*
X99592857Y-56342345D01*
X99592857Y-56342345D02*
X99569047Y-56366154D01*
X99569047Y-56366154D02*
X99521428Y-56389964D01*
X99521428Y-56389964D02*
X99330952Y-56389964D01*
X100045238Y-56294726D02*
X100045238Y-56628059D01*
X99926190Y-56104250D02*
X99807143Y-56461392D01*
X99807143Y-56461392D02*
X100116666Y-56461392D01*
D17*
X103123988Y-55464978D02*
X103123988Y-54880778D01*
X103123988Y-54880778D02*
X103346540Y-54880778D01*
X103346540Y-54880778D02*
X103402178Y-54908597D01*
X103402178Y-54908597D02*
X103429997Y-54936416D01*
X103429997Y-54936416D02*
X103457816Y-54992054D01*
X103457816Y-54992054D02*
X103457816Y-55075511D01*
X103457816Y-55075511D02*
X103429997Y-55131149D01*
X103429997Y-55131149D02*
X103402178Y-55158968D01*
X103402178Y-55158968D02*
X103346540Y-55186787D01*
X103346540Y-55186787D02*
X103123988Y-55186787D01*
X104014197Y-55464978D02*
X103680369Y-55464978D01*
X103847283Y-55464978D02*
X103847283Y-54880778D01*
X103847283Y-54880778D02*
X103791645Y-54964235D01*
X103791645Y-54964235D02*
X103736007Y-55019873D01*
X103736007Y-55019873D02*
X103680369Y-55047692D01*
D16*
X115378059Y-65683333D02*
X115139964Y-65849999D01*
X115378059Y-65969047D02*
X114878059Y-65969047D01*
X114878059Y-65969047D02*
X114878059Y-65778571D01*
X114878059Y-65778571D02*
X114901869Y-65730952D01*
X114901869Y-65730952D02*
X114925678Y-65707142D01*
X114925678Y-65707142D02*
X114973297Y-65683333D01*
X114973297Y-65683333D02*
X115044726Y-65683333D01*
X115044726Y-65683333D02*
X115092345Y-65707142D01*
X115092345Y-65707142D02*
X115116154Y-65730952D01*
X115116154Y-65730952D02*
X115139964Y-65778571D01*
X115139964Y-65778571D02*
X115139964Y-65969047D01*
X115092345Y-65397618D02*
X115068535Y-65445237D01*
X115068535Y-65445237D02*
X115044726Y-65469047D01*
X115044726Y-65469047D02*
X114997107Y-65492856D01*
X114997107Y-65492856D02*
X114973297Y-65492856D01*
X114973297Y-65492856D02*
X114925678Y-65469047D01*
X114925678Y-65469047D02*
X114901869Y-65445237D01*
X114901869Y-65445237D02*
X114878059Y-65397618D01*
X114878059Y-65397618D02*
X114878059Y-65302380D01*
X114878059Y-65302380D02*
X114901869Y-65254761D01*
X114901869Y-65254761D02*
X114925678Y-65230952D01*
X114925678Y-65230952D02*
X114973297Y-65207142D01*
X114973297Y-65207142D02*
X114997107Y-65207142D01*
X114997107Y-65207142D02*
X115044726Y-65230952D01*
X115044726Y-65230952D02*
X115068535Y-65254761D01*
X115068535Y-65254761D02*
X115092345Y-65302380D01*
X115092345Y-65302380D02*
X115092345Y-65397618D01*
X115092345Y-65397618D02*
X115116154Y-65445237D01*
X115116154Y-65445237D02*
X115139964Y-65469047D01*
X115139964Y-65469047D02*
X115187583Y-65492856D01*
X115187583Y-65492856D02*
X115282821Y-65492856D01*
X115282821Y-65492856D02*
X115330440Y-65469047D01*
X115330440Y-65469047D02*
X115354250Y-65445237D01*
X115354250Y-65445237D02*
X115378059Y-65397618D01*
X115378059Y-65397618D02*
X115378059Y-65302380D01*
X115378059Y-65302380D02*
X115354250Y-65254761D01*
X115354250Y-65254761D02*
X115330440Y-65230952D01*
X115330440Y-65230952D02*
X115282821Y-65207142D01*
X115282821Y-65207142D02*
X115187583Y-65207142D01*
X115187583Y-65207142D02*
X115139964Y-65230952D01*
X115139964Y-65230952D02*
X115116154Y-65254761D01*
X115116154Y-65254761D02*
X115092345Y-65302380D01*
X92780440Y-54521428D02*
X92804250Y-54545237D01*
X92804250Y-54545237D02*
X92828059Y-54616666D01*
X92828059Y-54616666D02*
X92828059Y-54664285D01*
X92828059Y-54664285D02*
X92804250Y-54735713D01*
X92804250Y-54735713D02*
X92756630Y-54783332D01*
X92756630Y-54783332D02*
X92709011Y-54807142D01*
X92709011Y-54807142D02*
X92613773Y-54830951D01*
X92613773Y-54830951D02*
X92542345Y-54830951D01*
X92542345Y-54830951D02*
X92447107Y-54807142D01*
X92447107Y-54807142D02*
X92399488Y-54783332D01*
X92399488Y-54783332D02*
X92351869Y-54735713D01*
X92351869Y-54735713D02*
X92328059Y-54664285D01*
X92328059Y-54664285D02*
X92328059Y-54616666D01*
X92328059Y-54616666D02*
X92351869Y-54545237D01*
X92351869Y-54545237D02*
X92375678Y-54521428D01*
X92828059Y-54045237D02*
X92828059Y-54330951D01*
X92828059Y-54188094D02*
X92328059Y-54188094D01*
X92328059Y-54188094D02*
X92399488Y-54235713D01*
X92399488Y-54235713D02*
X92447107Y-54283332D01*
X92447107Y-54283332D02*
X92470916Y-54330951D01*
X92828059Y-53807142D02*
X92828059Y-53711904D01*
X92828059Y-53711904D02*
X92804250Y-53664285D01*
X92804250Y-53664285D02*
X92780440Y-53640476D01*
X92780440Y-53640476D02*
X92709011Y-53592857D01*
X92709011Y-53592857D02*
X92613773Y-53569047D01*
X92613773Y-53569047D02*
X92423297Y-53569047D01*
X92423297Y-53569047D02*
X92375678Y-53592857D01*
X92375678Y-53592857D02*
X92351869Y-53616666D01*
X92351869Y-53616666D02*
X92328059Y-53664285D01*
X92328059Y-53664285D02*
X92328059Y-53759523D01*
X92328059Y-53759523D02*
X92351869Y-53807142D01*
X92351869Y-53807142D02*
X92375678Y-53830952D01*
X92375678Y-53830952D02*
X92423297Y-53854761D01*
X92423297Y-53854761D02*
X92542345Y-53854761D01*
X92542345Y-53854761D02*
X92589964Y-53830952D01*
X92589964Y-53830952D02*
X92613773Y-53807142D01*
X92613773Y-53807142D02*
X92637583Y-53759523D01*
X92637583Y-53759523D02*
X92637583Y-53664285D01*
X92637583Y-53664285D02*
X92613773Y-53616666D01*
X92613773Y-53616666D02*
X92589964Y-53592857D01*
X92589964Y-53592857D02*
X92542345Y-53569047D01*
D18*
X94927669Y-69383333D02*
X94689574Y-69549999D01*
X94927669Y-69669047D02*
X94427669Y-69669047D01*
X94427669Y-69669047D02*
X94427669Y-69478571D01*
X94427669Y-69478571D02*
X94451479Y-69430952D01*
X94451479Y-69430952D02*
X94475288Y-69407142D01*
X94475288Y-69407142D02*
X94522907Y-69383333D01*
X94522907Y-69383333D02*
X94594336Y-69383333D01*
X94594336Y-69383333D02*
X94641955Y-69407142D01*
X94641955Y-69407142D02*
X94665764Y-69430952D01*
X94665764Y-69430952D02*
X94689574Y-69478571D01*
X94689574Y-69478571D02*
X94689574Y-69669047D01*
X94427669Y-68930952D02*
X94427669Y-69169047D01*
X94427669Y-69169047D02*
X94665764Y-69192856D01*
X94665764Y-69192856D02*
X94641955Y-69169047D01*
X94641955Y-69169047D02*
X94618145Y-69121428D01*
X94618145Y-69121428D02*
X94618145Y-69002380D01*
X94618145Y-69002380D02*
X94641955Y-68954761D01*
X94641955Y-68954761D02*
X94665764Y-68930952D01*
X94665764Y-68930952D02*
X94713383Y-68907142D01*
X94713383Y-68907142D02*
X94832431Y-68907142D01*
X94832431Y-68907142D02*
X94880050Y-68930952D01*
X94880050Y-68930952D02*
X94903860Y-68954761D01*
X94903860Y-68954761D02*
X94927669Y-69002380D01*
X94927669Y-69002380D02*
X94927669Y-69121428D01*
X94927669Y-69121428D02*
X94903860Y-69169047D01*
X94903860Y-69169047D02*
X94880050Y-69192856D01*
D16*
X115639964Y-61788094D02*
X115878059Y-61788094D01*
X115378059Y-61954760D02*
X115639964Y-61788094D01*
X115639964Y-61788094D02*
X115378059Y-61621427D01*
X115878059Y-61192856D02*
X115878059Y-61478570D01*
X115878059Y-61335713D02*
X115378059Y-61335713D01*
X115378059Y-61335713D02*
X115449488Y-61383332D01*
X115449488Y-61383332D02*
X115497107Y-61430951D01*
X115497107Y-61430951D02*
X115520916Y-61478570D01*
X99666666Y-61980440D02*
X99642857Y-62004250D01*
X99642857Y-62004250D02*
X99571428Y-62028059D01*
X99571428Y-62028059D02*
X99523809Y-62028059D01*
X99523809Y-62028059D02*
X99452381Y-62004250D01*
X99452381Y-62004250D02*
X99404762Y-61956630D01*
X99404762Y-61956630D02*
X99380952Y-61909011D01*
X99380952Y-61909011D02*
X99357143Y-61813773D01*
X99357143Y-61813773D02*
X99357143Y-61742345D01*
X99357143Y-61742345D02*
X99380952Y-61647107D01*
X99380952Y-61647107D02*
X99404762Y-61599488D01*
X99404762Y-61599488D02*
X99452381Y-61551869D01*
X99452381Y-61551869D02*
X99523809Y-61528059D01*
X99523809Y-61528059D02*
X99571428Y-61528059D01*
X99571428Y-61528059D02*
X99642857Y-61551869D01*
X99642857Y-61551869D02*
X99666666Y-61575678D01*
X100142857Y-62028059D02*
X99857143Y-62028059D01*
X100000000Y-62028059D02*
X100000000Y-61528059D01*
X100000000Y-61528059D02*
X99952381Y-61599488D01*
X99952381Y-61599488D02*
X99904762Y-61647107D01*
X99904762Y-61647107D02*
X99857143Y-61670916D01*
X104616666Y-71680440D02*
X104592857Y-71704250D01*
X104592857Y-71704250D02*
X104521428Y-71728059D01*
X104521428Y-71728059D02*
X104473809Y-71728059D01*
X104473809Y-71728059D02*
X104402381Y-71704250D01*
X104402381Y-71704250D02*
X104354762Y-71656630D01*
X104354762Y-71656630D02*
X104330952Y-71609011D01*
X104330952Y-71609011D02*
X104307143Y-71513773D01*
X104307143Y-71513773D02*
X104307143Y-71442345D01*
X104307143Y-71442345D02*
X104330952Y-71347107D01*
X104330952Y-71347107D02*
X104354762Y-71299488D01*
X104354762Y-71299488D02*
X104402381Y-71251869D01*
X104402381Y-71251869D02*
X104473809Y-71228059D01*
X104473809Y-71228059D02*
X104521428Y-71228059D01*
X104521428Y-71228059D02*
X104592857Y-71251869D01*
X104592857Y-71251869D02*
X104616666Y-71275678D01*
X104854762Y-71728059D02*
X104950000Y-71728059D01*
X104950000Y-71728059D02*
X104997619Y-71704250D01*
X104997619Y-71704250D02*
X105021428Y-71680440D01*
X105021428Y-71680440D02*
X105069047Y-71609011D01*
X105069047Y-71609011D02*
X105092857Y-71513773D01*
X105092857Y-71513773D02*
X105092857Y-71323297D01*
X105092857Y-71323297D02*
X105069047Y-71275678D01*
X105069047Y-71275678D02*
X105045238Y-71251869D01*
X105045238Y-71251869D02*
X104997619Y-71228059D01*
X104997619Y-71228059D02*
X104902381Y-71228059D01*
X104902381Y-71228059D02*
X104854762Y-71251869D01*
X104854762Y-71251869D02*
X104830952Y-71275678D01*
X104830952Y-71275678D02*
X104807143Y-71323297D01*
X104807143Y-71323297D02*
X104807143Y-71442345D01*
X104807143Y-71442345D02*
X104830952Y-71489964D01*
X104830952Y-71489964D02*
X104854762Y-71513773D01*
X104854762Y-71513773D02*
X104902381Y-71537583D01*
X104902381Y-71537583D02*
X104997619Y-71537583D01*
X104997619Y-71537583D02*
X105045238Y-71513773D01*
X105045238Y-71513773D02*
X105069047Y-71489964D01*
X105069047Y-71489964D02*
X105092857Y-71442345D01*
X112141483Y-54734006D02*
X112117674Y-54757816D01*
X112117674Y-54757816D02*
X112046245Y-54781625D01*
X112046245Y-54781625D02*
X111998626Y-54781625D01*
X111998626Y-54781625D02*
X111927198Y-54757816D01*
X111927198Y-54757816D02*
X111879579Y-54710196D01*
X111879579Y-54710196D02*
X111855769Y-54662577D01*
X111855769Y-54662577D02*
X111831960Y-54567339D01*
X111831960Y-54567339D02*
X111831960Y-54495911D01*
X111831960Y-54495911D02*
X111855769Y-54400673D01*
X111855769Y-54400673D02*
X111879579Y-54353054D01*
X111879579Y-54353054D02*
X111927198Y-54305435D01*
X111927198Y-54305435D02*
X111998626Y-54281625D01*
X111998626Y-54281625D02*
X112046245Y-54281625D01*
X112046245Y-54281625D02*
X112117674Y-54305435D01*
X112117674Y-54305435D02*
X112141483Y-54329244D01*
X112331960Y-54329244D02*
X112355769Y-54305435D01*
X112355769Y-54305435D02*
X112403388Y-54281625D01*
X112403388Y-54281625D02*
X112522436Y-54281625D01*
X112522436Y-54281625D02*
X112570055Y-54305435D01*
X112570055Y-54305435D02*
X112593864Y-54329244D01*
X112593864Y-54329244D02*
X112617674Y-54376863D01*
X112617674Y-54376863D02*
X112617674Y-54424482D01*
X112617674Y-54424482D02*
X112593864Y-54495911D01*
X112593864Y-54495911D02*
X112308150Y-54781625D01*
X112308150Y-54781625D02*
X112617674Y-54781625D01*
X105953388Y-61880440D02*
X105929579Y-61904250D01*
X105929579Y-61904250D02*
X105858150Y-61928059D01*
X105858150Y-61928059D02*
X105810531Y-61928059D01*
X105810531Y-61928059D02*
X105739103Y-61904250D01*
X105739103Y-61904250D02*
X105691484Y-61856630D01*
X105691484Y-61856630D02*
X105667674Y-61809011D01*
X105667674Y-61809011D02*
X105643865Y-61713773D01*
X105643865Y-61713773D02*
X105643865Y-61642345D01*
X105643865Y-61642345D02*
X105667674Y-61547107D01*
X105667674Y-61547107D02*
X105691484Y-61499488D01*
X105691484Y-61499488D02*
X105739103Y-61451869D01*
X105739103Y-61451869D02*
X105810531Y-61428059D01*
X105810531Y-61428059D02*
X105858150Y-61428059D01*
X105858150Y-61428059D02*
X105929579Y-61451869D01*
X105929579Y-61451869D02*
X105953388Y-61475678D01*
X106429579Y-61928059D02*
X106143865Y-61928059D01*
X106286722Y-61928059D02*
X106286722Y-61428059D01*
X106286722Y-61428059D02*
X106239103Y-61499488D01*
X106239103Y-61499488D02*
X106191484Y-61547107D01*
X106191484Y-61547107D02*
X106143865Y-61570916D01*
X106739102Y-61428059D02*
X106786721Y-61428059D01*
X106786721Y-61428059D02*
X106834340Y-61451869D01*
X106834340Y-61451869D02*
X106858150Y-61475678D01*
X106858150Y-61475678D02*
X106881959Y-61523297D01*
X106881959Y-61523297D02*
X106905769Y-61618535D01*
X106905769Y-61618535D02*
X106905769Y-61737583D01*
X106905769Y-61737583D02*
X106881959Y-61832821D01*
X106881959Y-61832821D02*
X106858150Y-61880440D01*
X106858150Y-61880440D02*
X106834340Y-61904250D01*
X106834340Y-61904250D02*
X106786721Y-61928059D01*
X106786721Y-61928059D02*
X106739102Y-61928059D01*
X106739102Y-61928059D02*
X106691483Y-61904250D01*
X106691483Y-61904250D02*
X106667674Y-61880440D01*
X106667674Y-61880440D02*
X106643864Y-61832821D01*
X106643864Y-61832821D02*
X106620055Y-61737583D01*
X106620055Y-61737583D02*
X106620055Y-61618535D01*
X106620055Y-61618535D02*
X106643864Y-61523297D01*
X106643864Y-61523297D02*
X106667674Y-61475678D01*
X106667674Y-61475678D02*
X106691483Y-61451869D01*
X106691483Y-61451869D02*
X106739102Y-61428059D01*
D18*
X104190050Y-59941428D02*
X104213860Y-59965237D01*
X104213860Y-59965237D02*
X104237669Y-60036666D01*
X104237669Y-60036666D02*
X104237669Y-60084285D01*
X104237669Y-60084285D02*
X104213860Y-60155713D01*
X104213860Y-60155713D02*
X104166240Y-60203332D01*
X104166240Y-60203332D02*
X104118621Y-60227142D01*
X104118621Y-60227142D02*
X104023383Y-60250951D01*
X104023383Y-60250951D02*
X103951955Y-60250951D01*
X103951955Y-60250951D02*
X103856717Y-60227142D01*
X103856717Y-60227142D02*
X103809098Y-60203332D01*
X103809098Y-60203332D02*
X103761479Y-60155713D01*
X103761479Y-60155713D02*
X103737669Y-60084285D01*
X103737669Y-60084285D02*
X103737669Y-60036666D01*
X103737669Y-60036666D02*
X103761479Y-59965237D01*
X103761479Y-59965237D02*
X103785288Y-59941428D01*
X104237669Y-59465237D02*
X104237669Y-59750951D01*
X104237669Y-59608094D02*
X103737669Y-59608094D01*
X103737669Y-59608094D02*
X103809098Y-59655713D01*
X103809098Y-59655713D02*
X103856717Y-59703332D01*
X103856717Y-59703332D02*
X103880526Y-59750951D01*
X103737669Y-59298571D02*
X103737669Y-58965238D01*
X103737669Y-58965238D02*
X104237669Y-59179523D01*
D16*
X104746666Y-62180440D02*
X104722857Y-62204250D01*
X104722857Y-62204250D02*
X104651428Y-62228059D01*
X104651428Y-62228059D02*
X104603809Y-62228059D01*
X104603809Y-62228059D02*
X104532381Y-62204250D01*
X104532381Y-62204250D02*
X104484762Y-62156630D01*
X104484762Y-62156630D02*
X104460952Y-62109011D01*
X104460952Y-62109011D02*
X104437143Y-62013773D01*
X104437143Y-62013773D02*
X104437143Y-61942345D01*
X104437143Y-61942345D02*
X104460952Y-61847107D01*
X104460952Y-61847107D02*
X104484762Y-61799488D01*
X104484762Y-61799488D02*
X104532381Y-61751869D01*
X104532381Y-61751869D02*
X104603809Y-61728059D01*
X104603809Y-61728059D02*
X104651428Y-61728059D01*
X104651428Y-61728059D02*
X104722857Y-61751869D01*
X104722857Y-61751869D02*
X104746666Y-61775678D01*
X105032381Y-61942345D02*
X104984762Y-61918535D01*
X104984762Y-61918535D02*
X104960952Y-61894726D01*
X104960952Y-61894726D02*
X104937143Y-61847107D01*
X104937143Y-61847107D02*
X104937143Y-61823297D01*
X104937143Y-61823297D02*
X104960952Y-61775678D01*
X104960952Y-61775678D02*
X104984762Y-61751869D01*
X104984762Y-61751869D02*
X105032381Y-61728059D01*
X105032381Y-61728059D02*
X105127619Y-61728059D01*
X105127619Y-61728059D02*
X105175238Y-61751869D01*
X105175238Y-61751869D02*
X105199047Y-61775678D01*
X105199047Y-61775678D02*
X105222857Y-61823297D01*
X105222857Y-61823297D02*
X105222857Y-61847107D01*
X105222857Y-61847107D02*
X105199047Y-61894726D01*
X105199047Y-61894726D02*
X105175238Y-61918535D01*
X105175238Y-61918535D02*
X105127619Y-61942345D01*
X105127619Y-61942345D02*
X105032381Y-61942345D01*
X105032381Y-61942345D02*
X104984762Y-61966154D01*
X104984762Y-61966154D02*
X104960952Y-61989964D01*
X104960952Y-61989964D02*
X104937143Y-62037583D01*
X104937143Y-62037583D02*
X104937143Y-62132821D01*
X104937143Y-62132821D02*
X104960952Y-62180440D01*
X104960952Y-62180440D02*
X104984762Y-62204250D01*
X104984762Y-62204250D02*
X105032381Y-62228059D01*
X105032381Y-62228059D02*
X105127619Y-62228059D01*
X105127619Y-62228059D02*
X105175238Y-62204250D01*
X105175238Y-62204250D02*
X105199047Y-62180440D01*
X105199047Y-62180440D02*
X105222857Y-62132821D01*
X105222857Y-62132821D02*
X105222857Y-62037583D01*
X105222857Y-62037583D02*
X105199047Y-61989964D01*
X105199047Y-61989964D02*
X105175238Y-61966154D01*
X105175238Y-61966154D02*
X105127619Y-61942345D01*
X98416666Y-61980440D02*
X98392857Y-62004250D01*
X98392857Y-62004250D02*
X98321428Y-62028059D01*
X98321428Y-62028059D02*
X98273809Y-62028059D01*
X98273809Y-62028059D02*
X98202381Y-62004250D01*
X98202381Y-62004250D02*
X98154762Y-61956630D01*
X98154762Y-61956630D02*
X98130952Y-61909011D01*
X98130952Y-61909011D02*
X98107143Y-61813773D01*
X98107143Y-61813773D02*
X98107143Y-61742345D01*
X98107143Y-61742345D02*
X98130952Y-61647107D01*
X98130952Y-61647107D02*
X98154762Y-61599488D01*
X98154762Y-61599488D02*
X98202381Y-61551869D01*
X98202381Y-61551869D02*
X98273809Y-61528059D01*
X98273809Y-61528059D02*
X98321428Y-61528059D01*
X98321428Y-61528059D02*
X98392857Y-61551869D01*
X98392857Y-61551869D02*
X98416666Y-61575678D01*
X98583333Y-61528059D02*
X98892857Y-61528059D01*
X98892857Y-61528059D02*
X98726190Y-61718535D01*
X98726190Y-61718535D02*
X98797619Y-61718535D01*
X98797619Y-61718535D02*
X98845238Y-61742345D01*
X98845238Y-61742345D02*
X98869047Y-61766154D01*
X98869047Y-61766154D02*
X98892857Y-61813773D01*
X98892857Y-61813773D02*
X98892857Y-61932821D01*
X98892857Y-61932821D02*
X98869047Y-61980440D01*
X98869047Y-61980440D02*
X98845238Y-62004250D01*
X98845238Y-62004250D02*
X98797619Y-62028059D01*
X98797619Y-62028059D02*
X98654762Y-62028059D01*
X98654762Y-62028059D02*
X98607143Y-62004250D01*
X98607143Y-62004250D02*
X98583333Y-61980440D01*
X101286666Y-60170440D02*
X101262857Y-60194250D01*
X101262857Y-60194250D02*
X101191428Y-60218059D01*
X101191428Y-60218059D02*
X101143809Y-60218059D01*
X101143809Y-60218059D02*
X101072381Y-60194250D01*
X101072381Y-60194250D02*
X101024762Y-60146630D01*
X101024762Y-60146630D02*
X101000952Y-60099011D01*
X101000952Y-60099011D02*
X100977143Y-60003773D01*
X100977143Y-60003773D02*
X100977143Y-59932345D01*
X100977143Y-59932345D02*
X101000952Y-59837107D01*
X101000952Y-59837107D02*
X101024762Y-59789488D01*
X101024762Y-59789488D02*
X101072381Y-59741869D01*
X101072381Y-59741869D02*
X101143809Y-59718059D01*
X101143809Y-59718059D02*
X101191428Y-59718059D01*
X101191428Y-59718059D02*
X101262857Y-59741869D01*
X101262857Y-59741869D02*
X101286666Y-59765678D01*
X101739047Y-59718059D02*
X101500952Y-59718059D01*
X101500952Y-59718059D02*
X101477143Y-59956154D01*
X101477143Y-59956154D02*
X101500952Y-59932345D01*
X101500952Y-59932345D02*
X101548571Y-59908535D01*
X101548571Y-59908535D02*
X101667619Y-59908535D01*
X101667619Y-59908535D02*
X101715238Y-59932345D01*
X101715238Y-59932345D02*
X101739047Y-59956154D01*
X101739047Y-59956154D02*
X101762857Y-60003773D01*
X101762857Y-60003773D02*
X101762857Y-60122821D01*
X101762857Y-60122821D02*
X101739047Y-60170440D01*
X101739047Y-60170440D02*
X101715238Y-60194250D01*
X101715238Y-60194250D02*
X101667619Y-60218059D01*
X101667619Y-60218059D02*
X101548571Y-60218059D01*
X101548571Y-60218059D02*
X101500952Y-60194250D01*
X101500952Y-60194250D02*
X101477143Y-60170440D01*
X100466666Y-64978059D02*
X100300000Y-64739964D01*
X100180952Y-64978059D02*
X100180952Y-64478059D01*
X100180952Y-64478059D02*
X100371428Y-64478059D01*
X100371428Y-64478059D02*
X100419047Y-64501869D01*
X100419047Y-64501869D02*
X100442857Y-64525678D01*
X100442857Y-64525678D02*
X100466666Y-64573297D01*
X100466666Y-64573297D02*
X100466666Y-64644726D01*
X100466666Y-64644726D02*
X100442857Y-64692345D01*
X100442857Y-64692345D02*
X100419047Y-64716154D01*
X100419047Y-64716154D02*
X100371428Y-64739964D01*
X100371428Y-64739964D02*
X100180952Y-64739964D01*
X100633333Y-64478059D02*
X100942857Y-64478059D01*
X100942857Y-64478059D02*
X100776190Y-64668535D01*
X100776190Y-64668535D02*
X100847619Y-64668535D01*
X100847619Y-64668535D02*
X100895238Y-64692345D01*
X100895238Y-64692345D02*
X100919047Y-64716154D01*
X100919047Y-64716154D02*
X100942857Y-64763773D01*
X100942857Y-64763773D02*
X100942857Y-64882821D01*
X100942857Y-64882821D02*
X100919047Y-64930440D01*
X100919047Y-64930440D02*
X100895238Y-64954250D01*
X100895238Y-64954250D02*
X100847619Y-64978059D01*
X100847619Y-64978059D02*
X100704762Y-64978059D01*
X100704762Y-64978059D02*
X100657143Y-64954250D01*
X100657143Y-64954250D02*
X100633333Y-64930440D01*
X91819047Y-55728059D02*
X91819047Y-56132821D01*
X91819047Y-56132821D02*
X91842857Y-56180440D01*
X91842857Y-56180440D02*
X91866666Y-56204250D01*
X91866666Y-56204250D02*
X91914285Y-56228059D01*
X91914285Y-56228059D02*
X92009523Y-56228059D01*
X92009523Y-56228059D02*
X92057142Y-56204250D01*
X92057142Y-56204250D02*
X92080952Y-56180440D01*
X92080952Y-56180440D02*
X92104761Y-56132821D01*
X92104761Y-56132821D02*
X92104761Y-55728059D01*
X92557143Y-55894726D02*
X92557143Y-56228059D01*
X92438095Y-55704250D02*
X92319048Y-56061392D01*
X92319048Y-56061392D02*
X92628571Y-56061392D01*
X99226666Y-60208059D02*
X99060000Y-59969964D01*
X98940952Y-60208059D02*
X98940952Y-59708059D01*
X98940952Y-59708059D02*
X99131428Y-59708059D01*
X99131428Y-59708059D02*
X99179047Y-59731869D01*
X99179047Y-59731869D02*
X99202857Y-59755678D01*
X99202857Y-59755678D02*
X99226666Y-59803297D01*
X99226666Y-59803297D02*
X99226666Y-59874726D01*
X99226666Y-59874726D02*
X99202857Y-59922345D01*
X99202857Y-59922345D02*
X99179047Y-59946154D01*
X99179047Y-59946154D02*
X99131428Y-59969964D01*
X99131428Y-59969964D02*
X98940952Y-59969964D01*
X99702857Y-60208059D02*
X99417143Y-60208059D01*
X99560000Y-60208059D02*
X99560000Y-59708059D01*
X99560000Y-59708059D02*
X99512381Y-59779488D01*
X99512381Y-59779488D02*
X99464762Y-59827107D01*
X99464762Y-59827107D02*
X99417143Y-59850916D01*
D18*
X94516666Y-75177669D02*
X94350000Y-74939574D01*
X94230952Y-75177669D02*
X94230952Y-74677669D01*
X94230952Y-74677669D02*
X94421428Y-74677669D01*
X94421428Y-74677669D02*
X94469047Y-74701479D01*
X94469047Y-74701479D02*
X94492857Y-74725288D01*
X94492857Y-74725288D02*
X94516666Y-74772907D01*
X94516666Y-74772907D02*
X94516666Y-74844336D01*
X94516666Y-74844336D02*
X94492857Y-74891955D01*
X94492857Y-74891955D02*
X94469047Y-74915764D01*
X94469047Y-74915764D02*
X94421428Y-74939574D01*
X94421428Y-74939574D02*
X94230952Y-74939574D01*
X94683333Y-74677669D02*
X95016666Y-74677669D01*
X95016666Y-74677669D02*
X94802381Y-75177669D01*
D16*
X115415623Y-58367862D02*
X115439433Y-58391671D01*
X115439433Y-58391671D02*
X115463242Y-58463100D01*
X115463242Y-58463100D02*
X115463242Y-58510719D01*
X115463242Y-58510719D02*
X115439433Y-58582147D01*
X115439433Y-58582147D02*
X115391813Y-58629766D01*
X115391813Y-58629766D02*
X115344194Y-58653576D01*
X115344194Y-58653576D02*
X115248956Y-58677385D01*
X115248956Y-58677385D02*
X115177528Y-58677385D01*
X115177528Y-58677385D02*
X115082290Y-58653576D01*
X115082290Y-58653576D02*
X115034671Y-58629766D01*
X115034671Y-58629766D02*
X114987052Y-58582147D01*
X114987052Y-58582147D02*
X114963242Y-58510719D01*
X114963242Y-58510719D02*
X114963242Y-58463100D01*
X114963242Y-58463100D02*
X114987052Y-58391671D01*
X114987052Y-58391671D02*
X115010861Y-58367862D01*
X115463242Y-57891671D02*
X115463242Y-58177385D01*
X115463242Y-58034528D02*
X114963242Y-58034528D01*
X114963242Y-58034528D02*
X115034671Y-58082147D01*
X115034671Y-58082147D02*
X115082290Y-58129766D01*
X115082290Y-58129766D02*
X115106099Y-58177385D01*
X114963242Y-57439291D02*
X114963242Y-57677386D01*
X114963242Y-57677386D02*
X115201337Y-57701195D01*
X115201337Y-57701195D02*
X115177528Y-57677386D01*
X115177528Y-57677386D02*
X115153718Y-57629767D01*
X115153718Y-57629767D02*
X115153718Y-57510719D01*
X115153718Y-57510719D02*
X115177528Y-57463100D01*
X115177528Y-57463100D02*
X115201337Y-57439291D01*
X115201337Y-57439291D02*
X115248956Y-57415481D01*
X115248956Y-57415481D02*
X115368004Y-57415481D01*
X115368004Y-57415481D02*
X115415623Y-57439291D01*
X115415623Y-57439291D02*
X115439433Y-57463100D01*
X115439433Y-57463100D02*
X115463242Y-57510719D01*
X115463242Y-57510719D02*
X115463242Y-57629767D01*
X115463242Y-57629767D02*
X115439433Y-57677386D01*
X115439433Y-57677386D02*
X115415623Y-57701195D01*
X100416666Y-65928059D02*
X100250000Y-65689964D01*
X100130952Y-65928059D02*
X100130952Y-65428059D01*
X100130952Y-65428059D02*
X100321428Y-65428059D01*
X100321428Y-65428059D02*
X100369047Y-65451869D01*
X100369047Y-65451869D02*
X100392857Y-65475678D01*
X100392857Y-65475678D02*
X100416666Y-65523297D01*
X100416666Y-65523297D02*
X100416666Y-65594726D01*
X100416666Y-65594726D02*
X100392857Y-65642345D01*
X100392857Y-65642345D02*
X100369047Y-65666154D01*
X100369047Y-65666154D02*
X100321428Y-65689964D01*
X100321428Y-65689964D02*
X100130952Y-65689964D01*
X100607143Y-65475678D02*
X100630952Y-65451869D01*
X100630952Y-65451869D02*
X100678571Y-65428059D01*
X100678571Y-65428059D02*
X100797619Y-65428059D01*
X100797619Y-65428059D02*
X100845238Y-65451869D01*
X100845238Y-65451869D02*
X100869047Y-65475678D01*
X100869047Y-65475678D02*
X100892857Y-65523297D01*
X100892857Y-65523297D02*
X100892857Y-65570916D01*
X100892857Y-65570916D02*
X100869047Y-65642345D01*
X100869047Y-65642345D02*
X100583333Y-65928059D01*
X100583333Y-65928059D02*
X100892857Y-65928059D01*
X92278571Y-64430440D02*
X92254762Y-64454250D01*
X92254762Y-64454250D02*
X92183333Y-64478059D01*
X92183333Y-64478059D02*
X92135714Y-64478059D01*
X92135714Y-64478059D02*
X92064286Y-64454250D01*
X92064286Y-64454250D02*
X92016667Y-64406630D01*
X92016667Y-64406630D02*
X91992857Y-64359011D01*
X91992857Y-64359011D02*
X91969048Y-64263773D01*
X91969048Y-64263773D02*
X91969048Y-64192345D01*
X91969048Y-64192345D02*
X91992857Y-64097107D01*
X91992857Y-64097107D02*
X92016667Y-64049488D01*
X92016667Y-64049488D02*
X92064286Y-64001869D01*
X92064286Y-64001869D02*
X92135714Y-63978059D01*
X92135714Y-63978059D02*
X92183333Y-63978059D01*
X92183333Y-63978059D02*
X92254762Y-64001869D01*
X92254762Y-64001869D02*
X92278571Y-64025678D01*
X92469048Y-64025678D02*
X92492857Y-64001869D01*
X92492857Y-64001869D02*
X92540476Y-63978059D01*
X92540476Y-63978059D02*
X92659524Y-63978059D01*
X92659524Y-63978059D02*
X92707143Y-64001869D01*
X92707143Y-64001869D02*
X92730952Y-64025678D01*
X92730952Y-64025678D02*
X92754762Y-64073297D01*
X92754762Y-64073297D02*
X92754762Y-64120916D01*
X92754762Y-64120916D02*
X92730952Y-64192345D01*
X92730952Y-64192345D02*
X92445238Y-64478059D01*
X92445238Y-64478059D02*
X92754762Y-64478059D01*
X93230952Y-64478059D02*
X92945238Y-64478059D01*
X93088095Y-64478059D02*
X93088095Y-63978059D01*
X93088095Y-63978059D02*
X93040476Y-64049488D01*
X93040476Y-64049488D02*
X92992857Y-64097107D01*
X92992857Y-64097107D02*
X92945238Y-64120916D01*
X111598571Y-65210440D02*
X111574762Y-65234250D01*
X111574762Y-65234250D02*
X111503333Y-65258059D01*
X111503333Y-65258059D02*
X111455714Y-65258059D01*
X111455714Y-65258059D02*
X111384286Y-65234250D01*
X111384286Y-65234250D02*
X111336667Y-65186630D01*
X111336667Y-65186630D02*
X111312857Y-65139011D01*
X111312857Y-65139011D02*
X111289048Y-65043773D01*
X111289048Y-65043773D02*
X111289048Y-64972345D01*
X111289048Y-64972345D02*
X111312857Y-64877107D01*
X111312857Y-64877107D02*
X111336667Y-64829488D01*
X111336667Y-64829488D02*
X111384286Y-64781869D01*
X111384286Y-64781869D02*
X111455714Y-64758059D01*
X111455714Y-64758059D02*
X111503333Y-64758059D01*
X111503333Y-64758059D02*
X111574762Y-64781869D01*
X111574762Y-64781869D02*
X111598571Y-64805678D01*
X112074762Y-65258059D02*
X111789048Y-65258059D01*
X111931905Y-65258059D02*
X111931905Y-64758059D01*
X111931905Y-64758059D02*
X111884286Y-64829488D01*
X111884286Y-64829488D02*
X111836667Y-64877107D01*
X111836667Y-64877107D02*
X111789048Y-64900916D01*
X112265238Y-64805678D02*
X112289047Y-64781869D01*
X112289047Y-64781869D02*
X112336666Y-64758059D01*
X112336666Y-64758059D02*
X112455714Y-64758059D01*
X112455714Y-64758059D02*
X112503333Y-64781869D01*
X112503333Y-64781869D02*
X112527142Y-64805678D01*
X112527142Y-64805678D02*
X112550952Y-64853297D01*
X112550952Y-64853297D02*
X112550952Y-64900916D01*
X112550952Y-64900916D02*
X112527142Y-64972345D01*
X112527142Y-64972345D02*
X112241428Y-65258059D01*
X112241428Y-65258059D02*
X112550952Y-65258059D01*
X109921849Y-59080440D02*
X109898040Y-59104250D01*
X109898040Y-59104250D02*
X109826611Y-59128059D01*
X109826611Y-59128059D02*
X109778992Y-59128059D01*
X109778992Y-59128059D02*
X109707564Y-59104250D01*
X109707564Y-59104250D02*
X109659945Y-59056630D01*
X109659945Y-59056630D02*
X109636135Y-59009011D01*
X109636135Y-59009011D02*
X109612326Y-58913773D01*
X109612326Y-58913773D02*
X109612326Y-58842345D01*
X109612326Y-58842345D02*
X109636135Y-58747107D01*
X109636135Y-58747107D02*
X109659945Y-58699488D01*
X109659945Y-58699488D02*
X109707564Y-58651869D01*
X109707564Y-58651869D02*
X109778992Y-58628059D01*
X109778992Y-58628059D02*
X109826611Y-58628059D01*
X109826611Y-58628059D02*
X109898040Y-58651869D01*
X109898040Y-58651869D02*
X109921849Y-58675678D01*
X110350421Y-58794726D02*
X110350421Y-59128059D01*
X110231373Y-58604250D02*
X110112326Y-58961392D01*
X110112326Y-58961392D02*
X110421849Y-58961392D01*
X95769047Y-66028059D02*
X95769047Y-66432821D01*
X95769047Y-66432821D02*
X95792857Y-66480440D01*
X95792857Y-66480440D02*
X95816666Y-66504250D01*
X95816666Y-66504250D02*
X95864285Y-66528059D01*
X95864285Y-66528059D02*
X95959523Y-66528059D01*
X95959523Y-66528059D02*
X96007142Y-66504250D01*
X96007142Y-66504250D02*
X96030952Y-66480440D01*
X96030952Y-66480440D02*
X96054761Y-66432821D01*
X96054761Y-66432821D02*
X96054761Y-66028059D01*
X96269048Y-66075678D02*
X96292857Y-66051869D01*
X96292857Y-66051869D02*
X96340476Y-66028059D01*
X96340476Y-66028059D02*
X96459524Y-66028059D01*
X96459524Y-66028059D02*
X96507143Y-66051869D01*
X96507143Y-66051869D02*
X96530952Y-66075678D01*
X96530952Y-66075678D02*
X96554762Y-66123297D01*
X96554762Y-66123297D02*
X96554762Y-66170916D01*
X96554762Y-66170916D02*
X96530952Y-66242345D01*
X96530952Y-66242345D02*
X96245238Y-66528059D01*
X96245238Y-66528059D02*
X96554762Y-66528059D01*
X108916666Y-59080440D02*
X108892857Y-59104250D01*
X108892857Y-59104250D02*
X108821428Y-59128059D01*
X108821428Y-59128059D02*
X108773809Y-59128059D01*
X108773809Y-59128059D02*
X108702381Y-59104250D01*
X108702381Y-59104250D02*
X108654762Y-59056630D01*
X108654762Y-59056630D02*
X108630952Y-59009011D01*
X108630952Y-59009011D02*
X108607143Y-58913773D01*
X108607143Y-58913773D02*
X108607143Y-58842345D01*
X108607143Y-58842345D02*
X108630952Y-58747107D01*
X108630952Y-58747107D02*
X108654762Y-58699488D01*
X108654762Y-58699488D02*
X108702381Y-58651869D01*
X108702381Y-58651869D02*
X108773809Y-58628059D01*
X108773809Y-58628059D02*
X108821428Y-58628059D01*
X108821428Y-58628059D02*
X108892857Y-58651869D01*
X108892857Y-58651869D02*
X108916666Y-58675678D01*
X109345238Y-58628059D02*
X109250000Y-58628059D01*
X109250000Y-58628059D02*
X109202381Y-58651869D01*
X109202381Y-58651869D02*
X109178571Y-58675678D01*
X109178571Y-58675678D02*
X109130952Y-58747107D01*
X109130952Y-58747107D02*
X109107143Y-58842345D01*
X109107143Y-58842345D02*
X109107143Y-59032821D01*
X109107143Y-59032821D02*
X109130952Y-59080440D01*
X109130952Y-59080440D02*
X109154762Y-59104250D01*
X109154762Y-59104250D02*
X109202381Y-59128059D01*
X109202381Y-59128059D02*
X109297619Y-59128059D01*
X109297619Y-59128059D02*
X109345238Y-59104250D01*
X109345238Y-59104250D02*
X109369047Y-59080440D01*
X109369047Y-59080440D02*
X109392857Y-59032821D01*
X109392857Y-59032821D02*
X109392857Y-58913773D01*
X109392857Y-58913773D02*
X109369047Y-58866154D01*
X109369047Y-58866154D02*
X109345238Y-58842345D01*
X109345238Y-58842345D02*
X109297619Y-58818535D01*
X109297619Y-58818535D02*
X109202381Y-58818535D01*
X109202381Y-58818535D02*
X109154762Y-58842345D01*
X109154762Y-58842345D02*
X109130952Y-58866154D01*
X109130952Y-58866154D02*
X109107143Y-58913773D01*
X107891483Y-59080440D02*
X107867674Y-59104250D01*
X107867674Y-59104250D02*
X107796245Y-59128059D01*
X107796245Y-59128059D02*
X107748626Y-59128059D01*
X107748626Y-59128059D02*
X107677198Y-59104250D01*
X107677198Y-59104250D02*
X107629579Y-59056630D01*
X107629579Y-59056630D02*
X107605769Y-59009011D01*
X107605769Y-59009011D02*
X107581960Y-58913773D01*
X107581960Y-58913773D02*
X107581960Y-58842345D01*
X107581960Y-58842345D02*
X107605769Y-58747107D01*
X107605769Y-58747107D02*
X107629579Y-58699488D01*
X107629579Y-58699488D02*
X107677198Y-58651869D01*
X107677198Y-58651869D02*
X107748626Y-58628059D01*
X107748626Y-58628059D02*
X107796245Y-58628059D01*
X107796245Y-58628059D02*
X107867674Y-58651869D01*
X107867674Y-58651869D02*
X107891483Y-58675678D01*
X108058150Y-58628059D02*
X108391483Y-58628059D01*
X108391483Y-58628059D02*
X108177198Y-59128059D01*
D18*
X112678571Y-67624867D02*
X112654762Y-67648677D01*
X112654762Y-67648677D02*
X112583333Y-67672486D01*
X112583333Y-67672486D02*
X112535714Y-67672486D01*
X112535714Y-67672486D02*
X112464286Y-67648677D01*
X112464286Y-67648677D02*
X112416667Y-67601057D01*
X112416667Y-67601057D02*
X112392857Y-67553438D01*
X112392857Y-67553438D02*
X112369048Y-67458200D01*
X112369048Y-67458200D02*
X112369048Y-67386772D01*
X112369048Y-67386772D02*
X112392857Y-67291534D01*
X112392857Y-67291534D02*
X112416667Y-67243915D01*
X112416667Y-67243915D02*
X112464286Y-67196296D01*
X112464286Y-67196296D02*
X112535714Y-67172486D01*
X112535714Y-67172486D02*
X112583333Y-67172486D01*
X112583333Y-67172486D02*
X112654762Y-67196296D01*
X112654762Y-67196296D02*
X112678571Y-67220105D01*
X113154762Y-67672486D02*
X112869048Y-67672486D01*
X113011905Y-67672486D02*
X113011905Y-67172486D01*
X113011905Y-67172486D02*
X112964286Y-67243915D01*
X112964286Y-67243915D02*
X112916667Y-67291534D01*
X112916667Y-67291534D02*
X112869048Y-67315343D01*
X113321428Y-67172486D02*
X113630952Y-67172486D01*
X113630952Y-67172486D02*
X113464285Y-67362962D01*
X113464285Y-67362962D02*
X113535714Y-67362962D01*
X113535714Y-67362962D02*
X113583333Y-67386772D01*
X113583333Y-67386772D02*
X113607142Y-67410581D01*
X113607142Y-67410581D02*
X113630952Y-67458200D01*
X113630952Y-67458200D02*
X113630952Y-67577248D01*
X113630952Y-67577248D02*
X113607142Y-67624867D01*
X113607142Y-67624867D02*
X113583333Y-67648677D01*
X113583333Y-67648677D02*
X113535714Y-67672486D01*
X113535714Y-67672486D02*
X113392857Y-67672486D01*
X113392857Y-67672486D02*
X113345238Y-67648677D01*
X113345238Y-67648677D02*
X113321428Y-67624867D01*
X96516666Y-75177669D02*
X96350000Y-74939574D01*
X96230952Y-75177669D02*
X96230952Y-74677669D01*
X96230952Y-74677669D02*
X96421428Y-74677669D01*
X96421428Y-74677669D02*
X96469047Y-74701479D01*
X96469047Y-74701479D02*
X96492857Y-74725288D01*
X96492857Y-74725288D02*
X96516666Y-74772907D01*
X96516666Y-74772907D02*
X96516666Y-74844336D01*
X96516666Y-74844336D02*
X96492857Y-74891955D01*
X96492857Y-74891955D02*
X96469047Y-74915764D01*
X96469047Y-74915764D02*
X96421428Y-74939574D01*
X96421428Y-74939574D02*
X96230952Y-74939574D01*
X96945238Y-74677669D02*
X96850000Y-74677669D01*
X96850000Y-74677669D02*
X96802381Y-74701479D01*
X96802381Y-74701479D02*
X96778571Y-74725288D01*
X96778571Y-74725288D02*
X96730952Y-74796717D01*
X96730952Y-74796717D02*
X96707143Y-74891955D01*
X96707143Y-74891955D02*
X96707143Y-75082431D01*
X96707143Y-75082431D02*
X96730952Y-75130050D01*
X96730952Y-75130050D02*
X96754762Y-75153860D01*
X96754762Y-75153860D02*
X96802381Y-75177669D01*
X96802381Y-75177669D02*
X96897619Y-75177669D01*
X96897619Y-75177669D02*
X96945238Y-75153860D01*
X96945238Y-75153860D02*
X96969047Y-75130050D01*
X96969047Y-75130050D02*
X96992857Y-75082431D01*
X96992857Y-75082431D02*
X96992857Y-74963383D01*
X96992857Y-74963383D02*
X96969047Y-74915764D01*
X96969047Y-74915764D02*
X96945238Y-74891955D01*
X96945238Y-74891955D02*
X96897619Y-74868145D01*
X96897619Y-74868145D02*
X96802381Y-74868145D01*
X96802381Y-74868145D02*
X96754762Y-74891955D01*
X96754762Y-74891955D02*
X96730952Y-74915764D01*
X96730952Y-74915764D02*
X96707143Y-74963383D01*
D16*
X112678571Y-66980440D02*
X112654762Y-67004250D01*
X112654762Y-67004250D02*
X112583333Y-67028059D01*
X112583333Y-67028059D02*
X112535714Y-67028059D01*
X112535714Y-67028059D02*
X112464286Y-67004250D01*
X112464286Y-67004250D02*
X112416667Y-66956630D01*
X112416667Y-66956630D02*
X112392857Y-66909011D01*
X112392857Y-66909011D02*
X112369048Y-66813773D01*
X112369048Y-66813773D02*
X112369048Y-66742345D01*
X112369048Y-66742345D02*
X112392857Y-66647107D01*
X112392857Y-66647107D02*
X112416667Y-66599488D01*
X112416667Y-66599488D02*
X112464286Y-66551869D01*
X112464286Y-66551869D02*
X112535714Y-66528059D01*
X112535714Y-66528059D02*
X112583333Y-66528059D01*
X112583333Y-66528059D02*
X112654762Y-66551869D01*
X112654762Y-66551869D02*
X112678571Y-66575678D01*
X113154762Y-67028059D02*
X112869048Y-67028059D01*
X113011905Y-67028059D02*
X113011905Y-66528059D01*
X113011905Y-66528059D02*
X112964286Y-66599488D01*
X112964286Y-66599488D02*
X112916667Y-66647107D01*
X112916667Y-66647107D02*
X112869048Y-66670916D01*
X113583333Y-66694726D02*
X113583333Y-67028059D01*
X113464285Y-66504250D02*
X113345238Y-66861392D01*
X113345238Y-66861392D02*
X113654761Y-66861392D01*
X115380440Y-64521428D02*
X115404250Y-64545237D01*
X115404250Y-64545237D02*
X115428059Y-64616666D01*
X115428059Y-64616666D02*
X115428059Y-64664285D01*
X115428059Y-64664285D02*
X115404250Y-64735713D01*
X115404250Y-64735713D02*
X115356630Y-64783332D01*
X115356630Y-64783332D02*
X115309011Y-64807142D01*
X115309011Y-64807142D02*
X115213773Y-64830951D01*
X115213773Y-64830951D02*
X115142345Y-64830951D01*
X115142345Y-64830951D02*
X115047107Y-64807142D01*
X115047107Y-64807142D02*
X114999488Y-64783332D01*
X114999488Y-64783332D02*
X114951869Y-64735713D01*
X114951869Y-64735713D02*
X114928059Y-64664285D01*
X114928059Y-64664285D02*
X114928059Y-64616666D01*
X114928059Y-64616666D02*
X114951869Y-64545237D01*
X114951869Y-64545237D02*
X114975678Y-64521428D01*
X115428059Y-64045237D02*
X115428059Y-64330951D01*
X115428059Y-64188094D02*
X114928059Y-64188094D01*
X114928059Y-64188094D02*
X114999488Y-64235713D01*
X114999488Y-64235713D02*
X115047107Y-64283332D01*
X115047107Y-64283332D02*
X115070916Y-64330951D01*
X114928059Y-63616666D02*
X114928059Y-63711904D01*
X114928059Y-63711904D02*
X114951869Y-63759523D01*
X114951869Y-63759523D02*
X114975678Y-63783333D01*
X114975678Y-63783333D02*
X115047107Y-63830952D01*
X115047107Y-63830952D02*
X115142345Y-63854761D01*
X115142345Y-63854761D02*
X115332821Y-63854761D01*
X115332821Y-63854761D02*
X115380440Y-63830952D01*
X115380440Y-63830952D02*
X115404250Y-63807142D01*
X115404250Y-63807142D02*
X115428059Y-63759523D01*
X115428059Y-63759523D02*
X115428059Y-63664285D01*
X115428059Y-63664285D02*
X115404250Y-63616666D01*
X115404250Y-63616666D02*
X115380440Y-63592857D01*
X115380440Y-63592857D02*
X115332821Y-63569047D01*
X115332821Y-63569047D02*
X115213773Y-63569047D01*
X115213773Y-63569047D02*
X115166154Y-63592857D01*
X115166154Y-63592857D02*
X115142345Y-63616666D01*
X115142345Y-63616666D02*
X115118535Y-63664285D01*
X115118535Y-63664285D02*
X115118535Y-63759523D01*
X115118535Y-63759523D02*
X115142345Y-63807142D01*
X115142345Y-63807142D02*
X115166154Y-63830952D01*
X115166154Y-63830952D02*
X115213773Y-63854761D01*
X111019047Y-69778059D02*
X111019047Y-70182821D01*
X111019047Y-70182821D02*
X111042857Y-70230440D01*
X111042857Y-70230440D02*
X111066666Y-70254250D01*
X111066666Y-70254250D02*
X111114285Y-70278059D01*
X111114285Y-70278059D02*
X111209523Y-70278059D01*
X111209523Y-70278059D02*
X111257142Y-70254250D01*
X111257142Y-70254250D02*
X111280952Y-70230440D01*
X111280952Y-70230440D02*
X111304761Y-70182821D01*
X111304761Y-70182821D02*
X111304761Y-69778059D01*
X111804762Y-70278059D02*
X111519048Y-70278059D01*
X111661905Y-70278059D02*
X111661905Y-69778059D01*
X111661905Y-69778059D02*
X111614286Y-69849488D01*
X111614286Y-69849488D02*
X111566667Y-69897107D01*
X111566667Y-69897107D02*
X111519048Y-69920916D01*
X95106721Y-62878059D02*
X94868626Y-62878059D01*
X94868626Y-62878059D02*
X94868626Y-62378059D01*
X95535293Y-62878059D02*
X95249579Y-62878059D01*
X95392436Y-62878059D02*
X95392436Y-62378059D01*
X95392436Y-62378059D02*
X95344817Y-62449488D01*
X95344817Y-62449488D02*
X95297198Y-62497107D01*
X95297198Y-62497107D02*
X95249579Y-62520916D01*
D19*
%TO.C,R4*%
X99942441Y-57023934D02*
X99467925Y-57023934D01*
X99942441Y-58068934D02*
X99467925Y-58068934D01*
%TO.C,R8*%
X113920000Y-65753641D02*
X113920000Y-65446359D01*
X114680000Y-65753641D02*
X114680000Y-65446359D01*
%TO.C,C19*%
X93320183Y-54357686D02*
X93320183Y-53835182D01*
X94790183Y-54357686D02*
X94790183Y-53835182D01*
%TO.C,R5*%
X94320000Y-67746359D02*
X94320000Y-68053641D01*
X95080000Y-67746359D02*
X95080000Y-68053641D01*
%TO.C,Y1*%
X115195183Y-59866434D02*
X111075183Y-59866434D01*
X115195183Y-63286434D02*
X115195183Y-59866434D01*
%TO.C,C9*%
X103152164Y-71120000D02*
X103367836Y-71120000D01*
X103152164Y-71840000D02*
X103367836Y-71840000D01*
%TO.C,C2*%
X111968748Y-55265000D02*
X112491252Y-55265000D01*
X111968748Y-56735000D02*
X112491252Y-56735000D01*
%TO.C,C10*%
X107772164Y-61286434D02*
X107987836Y-61286434D01*
X107772164Y-62006434D02*
X107987836Y-62006434D01*
%TO.C,C17*%
X103607836Y-60490000D02*
X103392164Y-60490000D01*
X103607836Y-61210000D02*
X103392164Y-61210000D01*
%TO.C,J2*%
X116275183Y-79940000D02*
X115805183Y-79600000D01*
X116275183Y-79260000D01*
X116275183Y-79940000D01*
G36*
X116275183Y-79940000D02*
G01*
X115805183Y-79600000D01*
X116275183Y-79260000D01*
X116275183Y-79940000D01*
G37*
%TO.C,C8*%
X103607836Y-61640000D02*
X103392164Y-61640000D01*
X103607836Y-62360000D02*
X103392164Y-62360000D01*
%TO.C,C5*%
X101192164Y-60490000D02*
X101407836Y-60490000D01*
X101192164Y-61210000D02*
X101407836Y-61210000D01*
%TO.C,R3*%
X98946359Y-64370000D02*
X99253641Y-64370000D01*
X98946359Y-65130000D02*
X99253641Y-65130000D01*
%TO.C,U4*%
X91557683Y-58346434D02*
X91557683Y-57546434D01*
X91557683Y-58346434D02*
X91557683Y-59146434D01*
X94677683Y-58346434D02*
X94677683Y-57546434D01*
X94677683Y-58346434D02*
X94677683Y-59146434D01*
X94957683Y-57286434D02*
X94627683Y-57046434D01*
X94957683Y-56806434D01*
X94957683Y-57286434D01*
G36*
X94957683Y-57286434D02*
G01*
X94627683Y-57046434D01*
X94957683Y-56806434D01*
X94957683Y-57286434D01*
G37*
%TO.C,R1*%
X99146359Y-60480000D02*
X99453641Y-60480000D01*
X99146359Y-61240000D02*
X99453641Y-61240000D01*
%TO.C,R7*%
X94446359Y-73820000D02*
X94753641Y-73820000D01*
X94446359Y-74580000D02*
X94753641Y-74580000D01*
%TO.C,C15*%
X113875183Y-58154270D02*
X113875183Y-57938598D01*
X114595183Y-58154270D02*
X114595183Y-57938598D01*
%TO.C,R2*%
X98946359Y-65320000D02*
X99253641Y-65320000D01*
X98946359Y-66080000D02*
X99253641Y-66080000D01*
%TO.C,C21*%
X91865000Y-61888748D02*
X91865000Y-62411252D01*
X93335000Y-61888748D02*
X93335000Y-62411252D01*
%TO.C,C12*%
X111812164Y-63800000D02*
X112027836Y-63800000D01*
X111812164Y-64520000D02*
X112027836Y-64520000D01*
%TO.C,C4*%
X109645183Y-60204270D02*
X109645183Y-59988598D01*
X110365183Y-60204270D02*
X110365183Y-59988598D01*
%TO.C,U2*%
X95395183Y-72986434D02*
X95395183Y-66996434D01*
X100615183Y-72996434D02*
X100615183Y-66996434D01*
X95695183Y-73706434D02*
X95215183Y-73226434D01*
X95695183Y-73226434D01*
X95695183Y-73706434D01*
G36*
X95695183Y-73706434D02*
G01*
X95215183Y-73226434D01*
X95695183Y-73226434D01*
X95695183Y-73706434D01*
G37*
%TO.C,C6*%
X108640000Y-60237836D02*
X108640000Y-60022164D01*
X109360000Y-60237836D02*
X109360000Y-60022164D01*
%TO.C,C7*%
X107620000Y-60227836D02*
X107620000Y-60012164D01*
X108340000Y-60227836D02*
X108340000Y-60012164D01*
%TO.C,C13*%
X112922164Y-67890000D02*
X113137836Y-67890000D01*
X112922164Y-68610000D02*
X113137836Y-68610000D01*
%TO.C,R6*%
X96763641Y-73820000D02*
X96456359Y-73820000D01*
X96763641Y-74580000D02*
X96456359Y-74580000D01*
%TO.C,C14*%
X112740000Y-65570000D02*
X112955672Y-65570000D01*
X112740000Y-66290000D02*
X112955672Y-66290000D01*
%TO.C,C16*%
X113777347Y-63596434D02*
X113993019Y-63596434D01*
X113777347Y-64316434D02*
X113993019Y-64316434D01*
%TO.C,U1*%
X103145183Y-63186434D02*
X103595183Y-63186434D01*
X103145183Y-63636434D02*
X103145183Y-63186434D01*
X103145183Y-69956434D02*
X103145183Y-70406434D01*
X110365183Y-63186434D02*
X109915183Y-63186434D01*
X110365183Y-63636434D02*
X110365183Y-63186434D01*
X110365183Y-69956434D02*
X110365183Y-70406434D01*
X110365183Y-70406434D02*
X109915183Y-70406434D01*
%TO.C,L1*%
D20*
X95503921Y-63750000D02*
G75*
G02*
X95312501Y-63750000I-95710J0D01*
G01*
X95312501Y-63750000D02*
G75*
G02*
X95503921Y-63750000I95710J0D01*
G01*
%TD*%
%LPC*%
D21*
%TO.C,R4*%
X100530183Y-57546434D03*
X98880183Y-57546434D03*
%TD*%
D22*
%TO.C,P1*%
X100805183Y-54186434D03*
X101305183Y-54186434D03*
X101805183Y-54186434D03*
X102305183Y-54186434D03*
X102805183Y-54186434D03*
X103305183Y-54186434D03*
X103805183Y-54186434D03*
X104305183Y-54186434D03*
X104805183Y-54186434D03*
X105305183Y-54186434D03*
X105805183Y-54186434D03*
X106305183Y-54186434D03*
D23*
X100135183Y-55026434D03*
%TD*%
D24*
%TO.C,H1*%
X92255183Y-71646434D03*
%TD*%
%TO.C,H2*%
X114855183Y-71646434D03*
%TD*%
D25*
%TO.C,R8*%
X114300000Y-66110000D03*
X114300000Y-65090000D03*
%TD*%
D26*
%TO.C,C19*%
X94055183Y-55046434D03*
X94055183Y-53146434D03*
%TD*%
D27*
%TO.C,R5*%
X94700000Y-67390000D03*
X94700000Y-68410000D03*
%TD*%
D28*
%TO.C,Y1*%
X114235183Y-60726434D03*
X112035183Y-60726434D03*
X112035183Y-62426434D03*
X114235183Y-62426434D03*
%TD*%
D29*
%TO.C,C1*%
X99750000Y-63615000D03*
X99750000Y-62585000D03*
%TD*%
D30*
%TO.C,C9*%
X102780000Y-71480000D03*
X103740000Y-71480000D03*
%TD*%
D31*
%TO.C,C2*%
X111280000Y-56000000D03*
X113180000Y-56000000D03*
%TD*%
D30*
%TO.C,C10*%
X107400000Y-61646434D03*
X108360000Y-61646434D03*
%TD*%
D32*
%TO.C,C17*%
X103980000Y-60850000D03*
X103020000Y-60850000D03*
%TD*%
D33*
%TO.C,J2*%
X114985183Y-79600000D03*
X112445183Y-79600000D03*
X109905183Y-79600000D03*
X107365183Y-79600000D03*
X104825183Y-79600000D03*
X102285183Y-79600000D03*
X99745183Y-79600000D03*
X97205183Y-79600000D03*
X94665183Y-79600000D03*
X92125183Y-79600000D03*
%TD*%
D32*
%TO.C,C8*%
X103980000Y-62000000D03*
X103020000Y-62000000D03*
%TD*%
D29*
%TO.C,C3*%
X98500000Y-63565000D03*
X98500000Y-62535000D03*
%TD*%
D30*
%TO.C,C5*%
X100820000Y-60850000D03*
X101780000Y-60850000D03*
%TD*%
D34*
%TO.C,R3*%
X98590000Y-64750000D03*
X99610000Y-64750000D03*
%TD*%
D35*
%TO.C,U4*%
X94067683Y-57208934D03*
X93117683Y-57208934D03*
X92167683Y-57208934D03*
X92167683Y-59483934D03*
X94067683Y-59483934D03*
%TD*%
D34*
%TO.C,R1*%
X98790000Y-60860000D03*
X99810000Y-60860000D03*
%TD*%
%TO.C,R7*%
X94090000Y-74200000D03*
X95110000Y-74200000D03*
%TD*%
D36*
%TO.C,C15*%
X114235183Y-58526434D03*
X114235183Y-57566434D03*
%TD*%
D34*
%TO.C,R2*%
X98590000Y-65700000D03*
X99610000Y-65700000D03*
%TD*%
D37*
%TO.C,C21*%
X92600000Y-61200000D03*
X92600000Y-63100000D03*
%TD*%
D30*
%TO.C,C12*%
X111440000Y-64160000D03*
X112400000Y-64160000D03*
%TD*%
D36*
%TO.C,C4*%
X110005183Y-60576434D03*
X110005183Y-59616434D03*
%TD*%
D38*
%TO.C,U2*%
X96100183Y-72696434D03*
X97370183Y-72696434D03*
X98640183Y-72696434D03*
X99910183Y-72696434D03*
X99910183Y-67296434D03*
X98640183Y-67296434D03*
X97370183Y-67296434D03*
X96100183Y-67296434D03*
D39*
X98005183Y-69996434D03*
%TD*%
D36*
%TO.C,C6*%
X109000000Y-60610000D03*
X109000000Y-59650000D03*
%TD*%
%TO.C,C7*%
X107980000Y-60600000D03*
X107980000Y-59640000D03*
%TD*%
D30*
%TO.C,C13*%
X112550000Y-68250000D03*
X113510000Y-68250000D03*
%TD*%
D40*
%TO.C,R6*%
X97120000Y-74200000D03*
X96100000Y-74200000D03*
%TD*%
D30*
%TO.C,C14*%
X112367836Y-65930000D03*
X113327836Y-65930000D03*
%TD*%
%TO.C,C16*%
X113405183Y-63956434D03*
X114365183Y-63956434D03*
%TD*%
D41*
%TO.C,U1*%
X103955183Y-70233934D03*
D42*
X104355183Y-70233934D03*
X104755183Y-70233934D03*
X105155183Y-70233934D03*
X105555183Y-70233934D03*
X105955183Y-70233934D03*
X106355183Y-70233934D03*
X106755183Y-70233934D03*
X107155183Y-70233934D03*
X107555183Y-70233934D03*
X107955183Y-70233934D03*
X108355183Y-70233934D03*
X108755183Y-70233934D03*
X109155183Y-70233934D03*
D43*
X109555183Y-70233934D03*
D44*
X110192683Y-69596434D03*
D45*
X110192683Y-69196434D03*
X110192683Y-68796434D03*
X110192683Y-68396434D03*
X110192683Y-67996434D03*
X110192683Y-67596434D03*
X110192683Y-67196434D03*
X110192683Y-66796434D03*
X110192683Y-66396434D03*
X110192683Y-65996434D03*
X110192683Y-65596434D03*
X110192683Y-65196434D03*
X110192683Y-64796434D03*
X110192683Y-64396434D03*
D46*
X110192683Y-63996434D03*
D47*
X109555183Y-63358934D03*
D42*
X109155183Y-63358934D03*
X108755183Y-63358934D03*
X108355183Y-63358934D03*
X107955183Y-63358934D03*
X107555183Y-63358934D03*
X107155183Y-63358934D03*
X106755183Y-63358934D03*
X106355183Y-63358934D03*
X105955183Y-63358934D03*
X105555183Y-63358934D03*
X105155183Y-63358934D03*
X104755183Y-63358934D03*
X104355183Y-63358934D03*
D48*
X103955183Y-63358934D03*
D49*
X103317683Y-63996434D03*
D45*
X103317683Y-64396434D03*
X103317683Y-64796434D03*
X103317683Y-65196434D03*
X103317683Y-65596434D03*
X103317683Y-65996434D03*
X103317683Y-66396434D03*
X103317683Y-66796434D03*
X103317683Y-67196434D03*
X103317683Y-67596434D03*
X103317683Y-67996434D03*
X103317683Y-68396434D03*
X103317683Y-68796434D03*
X103317683Y-69196434D03*
D50*
X103317683Y-69596434D03*
D51*
X106755183Y-66796434D03*
%TD*%
D52*
%TO.C,L1*%
X96708211Y-63550000D03*
X96708211Y-62150000D03*
%TD*%
%LPD*%
M02*
