%TF.GenerationSoftware,KiCad,Pcbnew,9.0.4*%
%TF.CreationDate,2025-09-10T10:40:01+02:00*%
%TF.ProjectId,rp2350_gpio_card,72703233-3530-45f6-9770-696f5f636172,X1*%
%TF.SameCoordinates,Original*%
%TF.FileFunction,Legend,Top*%
%TF.FilePolarity,Positive*%
%FSLAX46Y46*%
G04 Gerber Fmt 4.6, Leading zero omitted, Abs format (unit mm)*
G04 Created by KiCad (PCBNEW 9.0.4) date 2025-09-10 10:40:01*
%MOMM*%
%LPD*%
G01*
G04 APERTURE LIST*
%ADD10C,0.067397*%
%ADD11C,0.000000*%
%ADD12C,0.067349*%
%ADD13C,0.067351*%
%ADD14C,0.125000*%
%ADD15C,0.201600*%
%ADD16C,0.062500*%
%ADD17C,0.101600*%
%ADD18C,0.070000*%
%ADD19C,0.120000*%
%ADD20C,0.191421*%
G04 APERTURE END LIST*
D10*
X104400298Y-59361235D02*
X104544117Y-58840678D01*
X104778195Y-58840678D01*
X104542133Y-59597463D01*
X104257471Y-59597463D01*
X104021409Y-58840678D01*
X104255487Y-58840678D01*
X104400298Y-59361235D01*
D11*
G36*
X104732357Y-60008051D02*
G01*
X104733169Y-60008113D01*
X104733969Y-60008215D01*
X104734756Y-60008355D01*
X104735529Y-60008534D01*
X104736288Y-60008749D01*
X104737031Y-60009001D01*
X104737757Y-60009287D01*
X104738465Y-60009607D01*
X104739154Y-60009960D01*
X104739824Y-60010345D01*
X104740473Y-60010761D01*
X104741099Y-60011207D01*
X104741703Y-60011681D01*
X104742284Y-60012184D01*
X104742839Y-60012713D01*
X104743368Y-60013268D01*
X104743871Y-60013848D01*
X104744345Y-60014452D01*
X104744791Y-60015079D01*
X104745207Y-60015728D01*
X104745592Y-60016397D01*
X104745945Y-60017087D01*
X104746265Y-60017795D01*
X104746551Y-60018521D01*
X104746803Y-60019264D01*
X104747018Y-60020022D01*
X104747197Y-60020796D01*
X104747337Y-60021583D01*
X104747439Y-60022383D01*
X104747501Y-60023195D01*
X104747522Y-60024018D01*
X104747522Y-60295230D01*
X104747501Y-60296052D01*
X104747439Y-60296864D01*
X104747337Y-60297664D01*
X104747197Y-60298452D01*
X104747018Y-60299225D01*
X104746803Y-60299984D01*
X104746551Y-60300727D01*
X104746265Y-60301453D01*
X104745945Y-60302161D01*
X104745592Y-60302850D01*
X104745207Y-60303520D01*
X104744791Y-60304168D01*
X104744345Y-60304795D01*
X104743871Y-60305399D01*
X104743368Y-60305979D01*
X104742839Y-60306534D01*
X104742284Y-60307064D01*
X104741703Y-60307566D01*
X104741099Y-60308041D01*
X104740473Y-60308487D01*
X104739824Y-60308902D01*
X104739154Y-60309287D01*
X104738465Y-60309640D01*
X104737757Y-60309961D01*
X104737031Y-60310247D01*
X104736288Y-60310498D01*
X104735529Y-60310714D01*
X104734756Y-60310892D01*
X104733969Y-60311033D01*
X104733169Y-60311134D01*
X104732357Y-60311196D01*
X104731534Y-60311217D01*
X104616799Y-60311217D01*
X104615976Y-60311196D01*
X104615164Y-60311134D01*
X104614364Y-60311033D01*
X104613577Y-60310892D01*
X104612803Y-60310714D01*
X104612045Y-60310498D01*
X104611302Y-60310247D01*
X104610576Y-60309961D01*
X104609868Y-60309640D01*
X104609178Y-60309287D01*
X104608509Y-60308902D01*
X104607860Y-60308487D01*
X104607233Y-60308041D01*
X104606630Y-60307566D01*
X104606049Y-60307064D01*
X104605494Y-60306534D01*
X104604965Y-60305979D01*
X104604462Y-60305399D01*
X104603988Y-60304795D01*
X104603542Y-60304168D01*
X104603126Y-60303520D01*
X104602741Y-60302850D01*
X104602388Y-60302161D01*
X104602068Y-60301453D01*
X104601782Y-60300727D01*
X104601530Y-60299984D01*
X104601315Y-60299225D01*
X104601137Y-60298452D01*
X104600996Y-60297664D01*
X104600894Y-60296864D01*
X104600833Y-60296052D01*
X104600812Y-60295230D01*
X104600812Y-60024018D01*
X104600833Y-60023195D01*
X104600894Y-60022383D01*
X104600996Y-60021583D01*
X104601137Y-60020796D01*
X104601315Y-60020022D01*
X104601530Y-60019264D01*
X104601782Y-60018521D01*
X104602068Y-60017795D01*
X104602388Y-60017087D01*
X104602741Y-60016397D01*
X104603126Y-60015728D01*
X104603542Y-60015079D01*
X104603988Y-60014452D01*
X104604462Y-60013848D01*
X104604965Y-60013268D01*
X104605494Y-60012713D01*
X104606049Y-60012184D01*
X104606630Y-60011681D01*
X104607233Y-60011207D01*
X104607860Y-60010761D01*
X104608509Y-60010345D01*
X104609178Y-60009960D01*
X104609868Y-60009607D01*
X104610576Y-60009287D01*
X104611302Y-60009001D01*
X104612045Y-60008749D01*
X104612803Y-60008534D01*
X104613577Y-60008355D01*
X104614364Y-60008215D01*
X104615164Y-60008113D01*
X104615976Y-60008051D01*
X104616799Y-60008031D01*
X104731534Y-60008031D01*
X104732357Y-60008051D01*
G37*
G36*
X100731345Y-59817182D02*
G01*
X100496396Y-59817637D01*
X100496396Y-58623914D01*
X100731345Y-58623460D01*
X100731345Y-59817182D01*
G37*
D12*
X105000569Y-58356848D02*
X105014587Y-58357914D01*
X105028401Y-58359669D01*
X105041994Y-58362096D01*
X105055348Y-58365178D01*
X105068447Y-58368898D01*
X105081272Y-58373238D01*
X105093807Y-58378180D01*
X105106034Y-58383708D01*
X105117935Y-58389803D01*
X105129495Y-58396450D01*
X105140694Y-58403629D01*
X105151516Y-58411325D01*
X105161943Y-58419519D01*
X105171959Y-58428195D01*
X105181545Y-58437335D01*
X105190685Y-58446921D01*
X105199360Y-58456936D01*
X105207555Y-58467364D01*
X105215250Y-58478186D01*
X105222430Y-58489385D01*
X105229076Y-58500944D01*
X105235172Y-58512846D01*
X105240700Y-58525073D01*
X105245642Y-58537607D01*
X105249982Y-58550433D01*
X105253701Y-58563531D01*
X105256783Y-58576886D01*
X105259211Y-58590478D01*
X105260966Y-58604292D01*
X105262032Y-58618310D01*
X105262391Y-58632515D01*
X105262391Y-59805625D01*
X105262032Y-59819829D01*
X105260966Y-59833847D01*
X105259211Y-59847661D01*
X105256783Y-59861254D01*
X105253701Y-59874608D01*
X105249982Y-59887707D01*
X105245642Y-59900532D01*
X105240700Y-59913067D01*
X105235172Y-59925294D01*
X105229076Y-59937195D01*
X105222430Y-59948754D01*
X105215250Y-59959954D01*
X105207555Y-59970776D01*
X105199360Y-59981203D01*
X105190685Y-59991219D01*
X105181545Y-60000805D01*
X105171959Y-60009944D01*
X105161943Y-60018620D01*
X105151516Y-60026814D01*
X105140694Y-60034510D01*
X105129495Y-60041690D01*
X105117935Y-60048336D01*
X105106034Y-60054432D01*
X105093807Y-60059959D01*
X105081272Y-60064902D01*
X105068447Y-60069241D01*
X105055348Y-60072961D01*
X105041994Y-60076043D01*
X105028401Y-60078471D01*
X105014587Y-60080226D01*
X105000569Y-60081292D01*
X104986365Y-60081651D01*
X103813238Y-60081651D01*
X103799034Y-60081292D01*
X103785016Y-60080226D01*
X103771202Y-60078471D01*
X103757610Y-60076043D01*
X103744255Y-60072961D01*
X103731157Y-60069241D01*
X103718331Y-60064902D01*
X103705797Y-60059959D01*
X103693570Y-60054432D01*
X103681668Y-60048336D01*
X103670109Y-60041690D01*
X103658910Y-60034510D01*
X103648088Y-60026814D01*
X103637660Y-60018620D01*
X103627645Y-60009944D01*
X103618058Y-60000805D01*
X103608919Y-59991219D01*
X103600243Y-59981203D01*
X103592049Y-59970776D01*
X103584353Y-59959954D01*
X103577173Y-59948754D01*
X103570527Y-59937195D01*
X103564431Y-59925294D01*
X103558904Y-59913067D01*
X103553961Y-59900532D01*
X103549622Y-59887707D01*
X103545902Y-59874608D01*
X103542820Y-59861254D01*
X103540393Y-59847661D01*
X103538637Y-59833847D01*
X103537571Y-59819829D01*
X103537212Y-59805625D01*
X103537212Y-58632515D01*
X103537571Y-58618310D01*
X103538637Y-58604292D01*
X103540393Y-58590478D01*
X103542820Y-58576886D01*
X103545902Y-58563531D01*
X103549622Y-58550433D01*
X103553961Y-58537607D01*
X103558904Y-58525073D01*
X103564431Y-58512846D01*
X103570527Y-58500944D01*
X103577173Y-58489385D01*
X103584353Y-58478186D01*
X103592049Y-58467364D01*
X103600243Y-58456936D01*
X103608919Y-58446921D01*
X103618058Y-58437335D01*
X103627645Y-58428195D01*
X103637660Y-58419519D01*
X103648088Y-58411325D01*
X103658910Y-58403629D01*
X103670109Y-58396450D01*
X103681668Y-58389803D01*
X103693570Y-58383708D01*
X103705797Y-58378180D01*
X103718331Y-58373238D01*
X103731157Y-58368898D01*
X103744255Y-58365178D01*
X103757610Y-58362096D01*
X103771202Y-58359669D01*
X103785016Y-58357914D01*
X103799034Y-58356848D01*
X103813238Y-58356488D01*
X104986365Y-58356488D01*
X105000569Y-58356848D01*
D11*
G36*
X103594264Y-59139128D02*
G01*
X103595076Y-59139190D01*
X103595876Y-59139292D01*
X103596663Y-59139432D01*
X103597436Y-59139611D01*
X103598195Y-59139826D01*
X103598938Y-59140078D01*
X103599664Y-59140364D01*
X103600372Y-59140684D01*
X103601061Y-59141037D01*
X103601731Y-59141422D01*
X103602379Y-59141838D01*
X103603006Y-59142284D01*
X103603610Y-59142758D01*
X103604190Y-59143261D01*
X103604745Y-59143790D01*
X103605275Y-59144345D01*
X103605777Y-59144925D01*
X103606252Y-59145529D01*
X103606697Y-59146156D01*
X103607113Y-59146805D01*
X103607498Y-59147474D01*
X103607851Y-59148164D01*
X103608171Y-59148872D01*
X103608458Y-59149598D01*
X103608709Y-59150340D01*
X103608924Y-59151099D01*
X103609103Y-59151873D01*
X103609244Y-59152660D01*
X103609345Y-59153460D01*
X103609407Y-59154272D01*
X103609428Y-59155094D01*
X103609428Y-59269831D01*
X103609407Y-59270653D01*
X103609345Y-59271465D01*
X103609244Y-59272265D01*
X103609103Y-59273052D01*
X103608924Y-59273826D01*
X103608709Y-59274584D01*
X103608458Y-59275327D01*
X103608171Y-59276053D01*
X103607851Y-59276761D01*
X103607498Y-59277451D01*
X103607113Y-59278120D01*
X103606697Y-59278769D01*
X103606252Y-59279396D01*
X103605777Y-59280000D01*
X103605275Y-59280580D01*
X103604745Y-59281135D01*
X103604190Y-59281664D01*
X103603610Y-59282167D01*
X103603006Y-59282641D01*
X103602379Y-59283087D01*
X103601731Y-59283503D01*
X103601061Y-59283888D01*
X103600372Y-59284241D01*
X103599664Y-59284561D01*
X103598938Y-59284847D01*
X103598195Y-59285099D01*
X103597436Y-59285314D01*
X103596663Y-59285493D01*
X103595876Y-59285633D01*
X103595076Y-59285735D01*
X103594264Y-59285797D01*
X103593441Y-59285817D01*
X103322214Y-59285817D01*
X103321392Y-59285797D01*
X103320580Y-59285735D01*
X103319780Y-59285633D01*
X103318992Y-59285493D01*
X103318219Y-59285314D01*
X103317460Y-59285099D01*
X103316717Y-59284847D01*
X103315991Y-59284561D01*
X103315283Y-59284241D01*
X103314594Y-59283888D01*
X103313924Y-59283503D01*
X103313276Y-59283087D01*
X103312649Y-59282641D01*
X103312045Y-59282167D01*
X103311465Y-59281664D01*
X103310910Y-59281135D01*
X103310380Y-59280580D01*
X103309878Y-59280000D01*
X103309403Y-59279396D01*
X103308958Y-59278769D01*
X103308542Y-59278120D01*
X103308157Y-59277451D01*
X103307804Y-59276761D01*
X103307484Y-59276053D01*
X103307197Y-59275327D01*
X103306946Y-59274584D01*
X103306731Y-59273826D01*
X103306552Y-59273052D01*
X103306412Y-59272265D01*
X103306310Y-59271465D01*
X103306248Y-59270653D01*
X103306227Y-59269831D01*
X103306227Y-59155094D01*
X103306248Y-59154272D01*
X103306310Y-59153460D01*
X103306412Y-59152660D01*
X103306552Y-59151873D01*
X103306731Y-59151099D01*
X103306946Y-59150340D01*
X103307197Y-59149598D01*
X103307484Y-59148872D01*
X103307804Y-59148164D01*
X103308157Y-59147474D01*
X103308542Y-59146805D01*
X103308958Y-59146156D01*
X103309403Y-59145529D01*
X103309878Y-59144925D01*
X103310380Y-59144345D01*
X103310910Y-59143790D01*
X103311465Y-59143261D01*
X103312045Y-59142758D01*
X103312649Y-59142284D01*
X103313276Y-59141838D01*
X103313924Y-59141422D01*
X103314594Y-59141037D01*
X103315283Y-59140684D01*
X103315991Y-59140364D01*
X103316717Y-59140078D01*
X103317460Y-59139826D01*
X103318219Y-59139611D01*
X103318992Y-59139432D01*
X103319780Y-59139292D01*
X103320580Y-59139190D01*
X103321392Y-59139128D01*
X103322214Y-59139108D01*
X103593441Y-59139108D01*
X103594264Y-59139128D01*
G37*
G36*
X100283109Y-59818050D02*
G01*
X100049827Y-59818501D01*
X100049827Y-58995069D01*
X99751558Y-59819079D01*
X99548269Y-59819472D01*
X99250000Y-59000000D01*
X99250000Y-59820050D01*
X99015051Y-59820505D01*
X99015051Y-58640309D01*
X99299989Y-58639757D01*
X99653245Y-59526756D01*
X99999837Y-58638401D01*
X100283109Y-58637853D01*
X100283109Y-59818050D01*
G37*
G36*
X103597389Y-59420100D02*
G01*
X103598201Y-59420162D01*
X103599001Y-59420263D01*
X103599788Y-59420404D01*
X103600562Y-59420582D01*
X103601320Y-59420798D01*
X103602063Y-59421049D01*
X103602789Y-59421336D01*
X103603497Y-59421656D01*
X103604187Y-59422009D01*
X103604856Y-59422394D01*
X103605505Y-59422810D01*
X103606131Y-59423255D01*
X103606735Y-59423730D01*
X103607315Y-59424232D01*
X103607871Y-59424762D01*
X103608400Y-59425317D01*
X103608903Y-59425897D01*
X103609377Y-59426501D01*
X103609823Y-59427128D01*
X103610239Y-59427776D01*
X103610624Y-59428446D01*
X103610977Y-59429135D01*
X103611297Y-59429843D01*
X103611583Y-59430569D01*
X103611834Y-59431312D01*
X103612050Y-59432071D01*
X103612228Y-59432844D01*
X103612369Y-59433631D01*
X103612471Y-59434431D01*
X103612532Y-59435243D01*
X103612553Y-59436066D01*
X103612553Y-59550802D01*
X103612532Y-59551625D01*
X103612471Y-59552437D01*
X103612369Y-59553237D01*
X103612228Y-59554024D01*
X103612050Y-59554797D01*
X103611834Y-59555556D01*
X103611583Y-59556299D01*
X103611297Y-59557025D01*
X103610977Y-59557733D01*
X103610624Y-59558422D01*
X103610239Y-59559092D01*
X103609823Y-59559740D01*
X103609377Y-59560367D01*
X103608903Y-59560971D01*
X103608400Y-59561551D01*
X103607871Y-59562107D01*
X103607315Y-59562636D01*
X103606735Y-59563138D01*
X103606131Y-59563613D01*
X103605505Y-59564059D01*
X103604856Y-59564474D01*
X103604187Y-59564859D01*
X103603497Y-59565212D01*
X103602789Y-59565533D01*
X103602063Y-59565819D01*
X103601320Y-59566070D01*
X103600562Y-59566286D01*
X103599788Y-59566464D01*
X103599001Y-59566605D01*
X103598201Y-59566706D01*
X103597389Y-59566768D01*
X103596566Y-59566789D01*
X103325340Y-59566789D01*
X103324517Y-59566768D01*
X103323705Y-59566706D01*
X103322905Y-59566605D01*
X103322118Y-59566464D01*
X103321344Y-59566286D01*
X103320586Y-59566070D01*
X103319843Y-59565819D01*
X103319117Y-59565533D01*
X103318409Y-59565212D01*
X103317719Y-59564859D01*
X103317050Y-59564474D01*
X103316401Y-59564059D01*
X103315774Y-59563613D01*
X103315170Y-59563138D01*
X103314590Y-59562636D01*
X103314035Y-59562107D01*
X103313506Y-59561551D01*
X103313003Y-59560971D01*
X103312529Y-59560367D01*
X103312083Y-59559740D01*
X103311667Y-59559092D01*
X103311282Y-59558422D01*
X103310929Y-59557733D01*
X103310609Y-59557025D01*
X103310323Y-59556299D01*
X103310072Y-59555556D01*
X103309856Y-59554797D01*
X103309678Y-59554024D01*
X103309537Y-59553237D01*
X103309435Y-59552437D01*
X103309374Y-59551625D01*
X103309353Y-59550802D01*
X103309353Y-59436066D01*
X103309374Y-59435243D01*
X103309435Y-59434431D01*
X103309537Y-59433631D01*
X103309678Y-59432844D01*
X103309856Y-59432071D01*
X103310072Y-59431312D01*
X103310323Y-59430569D01*
X103310609Y-59429843D01*
X103310929Y-59429135D01*
X103311282Y-59428446D01*
X103311667Y-59427776D01*
X103312083Y-59427128D01*
X103312529Y-59426501D01*
X103313003Y-59425897D01*
X103313506Y-59425317D01*
X103314035Y-59424762D01*
X103314590Y-59424232D01*
X103315170Y-59423730D01*
X103315774Y-59423255D01*
X103316401Y-59422810D01*
X103317050Y-59422394D01*
X103317719Y-59422009D01*
X103318409Y-59421656D01*
X103319117Y-59421336D01*
X103319843Y-59421049D01*
X103320586Y-59420798D01*
X103321344Y-59420582D01*
X103322118Y-59420404D01*
X103322905Y-59420263D01*
X103323705Y-59420162D01*
X103324517Y-59420100D01*
X103325340Y-59420079D01*
X103596566Y-59420079D01*
X103597389Y-59420100D01*
G37*
G36*
X97543404Y-58613080D02*
G01*
X97565834Y-58614106D01*
X97587665Y-58615848D01*
X97608897Y-58618303D01*
X97629531Y-58621473D01*
X97649566Y-58625358D01*
X97669002Y-58629957D01*
X97687839Y-58635271D01*
X97706077Y-58641299D01*
X97723716Y-58648041D01*
X97740757Y-58655498D01*
X97757199Y-58663669D01*
X97773042Y-58672555D01*
X97788286Y-58682156D01*
X97802931Y-58692471D01*
X97816977Y-58703500D01*
X97830555Y-58715124D01*
X97843378Y-58727226D01*
X97855445Y-58739804D01*
X97866758Y-58752859D01*
X97877316Y-58766392D01*
X97887118Y-58780401D01*
X97896166Y-58794888D01*
X97904458Y-58809852D01*
X97911996Y-58825292D01*
X97918778Y-58841210D01*
X97924805Y-58857604D01*
X97930078Y-58874476D01*
X97934595Y-58891824D01*
X97938357Y-58909650D01*
X97941364Y-58927953D01*
X97943616Y-58946732D01*
X97690338Y-58947222D01*
X97688958Y-58939286D01*
X97687318Y-58931535D01*
X97685417Y-58923970D01*
X97683256Y-58916590D01*
X97680835Y-58909395D01*
X97678153Y-58902386D01*
X97675211Y-58895562D01*
X97672009Y-58888924D01*
X97668546Y-58882471D01*
X97664823Y-58876204D01*
X97660839Y-58870122D01*
X97656595Y-58864226D01*
X97652091Y-58858515D01*
X97647327Y-58852989D01*
X97642302Y-58847649D01*
X97637016Y-58842494D01*
X97631477Y-58837386D01*
X97625691Y-58832609D01*
X97619657Y-58828162D01*
X97613376Y-58824046D01*
X97606847Y-58820261D01*
X97600071Y-58816807D01*
X97593048Y-58813683D01*
X97585777Y-58810890D01*
X97578259Y-58808428D01*
X97570494Y-58806296D01*
X97562482Y-58804495D01*
X97554222Y-58803025D01*
X97545714Y-58801886D01*
X97536960Y-58801077D01*
X97527958Y-58800599D01*
X97518708Y-58800452D01*
X97510683Y-58800606D01*
X97502852Y-58801038D01*
X97495217Y-58801746D01*
X97487778Y-58802731D01*
X97480533Y-58803994D01*
X97473484Y-58805533D01*
X97466630Y-58807349D01*
X97459971Y-58809443D01*
X97453508Y-58811813D01*
X97447239Y-58814461D01*
X97441167Y-58817385D01*
X97435289Y-58820587D01*
X97429607Y-58824065D01*
X97424119Y-58827821D01*
X97418828Y-58831853D01*
X97413731Y-58836163D01*
X97408888Y-58840525D01*
X97404358Y-58845137D01*
X97400140Y-58850000D01*
X97396235Y-58855113D01*
X97392642Y-58860476D01*
X97389361Y-58866090D01*
X97386393Y-58871954D01*
X97383738Y-58878068D01*
X97381394Y-58884433D01*
X97379364Y-58891049D01*
X97377645Y-58897914D01*
X97376239Y-58905030D01*
X97375146Y-58912397D01*
X97374365Y-58920014D01*
X97373896Y-58927881D01*
X97373740Y-58935999D01*
X97373857Y-58942485D01*
X97374208Y-58948838D01*
X97374794Y-58955059D01*
X97375614Y-58961147D01*
X97376669Y-58967102D01*
X97377958Y-58972925D01*
X97379481Y-58978616D01*
X97381238Y-58984173D01*
X97383230Y-58989599D01*
X97385456Y-58994891D01*
X97387916Y-59000051D01*
X97390611Y-59005079D01*
X97393540Y-59009974D01*
X97396704Y-59014736D01*
X97400101Y-59019366D01*
X97403733Y-59023863D01*
X97407749Y-59028036D01*
X97411883Y-59032116D01*
X97416133Y-59036104D01*
X97420501Y-59039999D01*
X97424985Y-59043801D01*
X97429587Y-59047511D01*
X97434306Y-59051128D01*
X97439142Y-59054652D01*
X97444096Y-59058084D01*
X97449166Y-59061422D01*
X97454354Y-59064669D01*
X97459659Y-59067822D01*
X97465081Y-59070883D01*
X97470620Y-59073851D01*
X97476276Y-59076726D01*
X97482049Y-59079509D01*
X97494651Y-59085059D01*
X97508294Y-59090766D01*
X97522978Y-59096629D01*
X97538704Y-59102649D01*
X97555471Y-59108825D01*
X97573280Y-59115157D01*
X97592130Y-59121646D01*
X97612021Y-59128292D01*
X97639672Y-59138304D01*
X97665968Y-59148160D01*
X97690911Y-59157861D01*
X97714499Y-59167405D01*
X97736734Y-59176794D01*
X97757615Y-59186026D01*
X97777142Y-59195103D01*
X97795315Y-59204024D01*
X97804186Y-59208584D01*
X97812889Y-59213422D01*
X97821422Y-59218537D01*
X97829786Y-59223930D01*
X97837981Y-59229601D01*
X97846007Y-59235550D01*
X97853863Y-59241776D01*
X97861550Y-59248280D01*
X97869068Y-59255062D01*
X97876417Y-59262122D01*
X97883596Y-59269459D01*
X97890606Y-59277074D01*
X97897447Y-59284967D01*
X97904119Y-59293137D01*
X97910622Y-59301585D01*
X97916955Y-59310311D01*
X97923008Y-59319348D01*
X97928671Y-59328728D01*
X97933944Y-59338454D01*
X97938825Y-59348523D01*
X97943316Y-59358937D01*
X97947417Y-59369694D01*
X97951127Y-59380797D01*
X97954447Y-59392243D01*
X97957376Y-59404033D01*
X97959914Y-59416168D01*
X97962062Y-59428647D01*
X97963820Y-59441471D01*
X97965186Y-59454638D01*
X97966163Y-59468150D01*
X97966749Y-59482006D01*
X97966944Y-59496206D01*
X97966769Y-59507564D01*
X97966241Y-59518819D01*
X97965363Y-59529970D01*
X97964133Y-59541015D01*
X97962551Y-59551956D01*
X97960618Y-59562791D01*
X97958333Y-59573522D01*
X97955697Y-59584148D01*
X97952710Y-59594668D01*
X97949370Y-59605084D01*
X97945680Y-59615394D01*
X97941638Y-59625600D01*
X97937244Y-59635701D01*
X97932499Y-59645696D01*
X97927403Y-59655587D01*
X97921955Y-59665372D01*
X97916162Y-59674782D01*
X97910030Y-59683968D01*
X97903560Y-59692930D01*
X97896752Y-59701668D01*
X97889605Y-59710182D01*
X97882120Y-59718473D01*
X97874296Y-59726539D01*
X97866133Y-59734381D01*
X97857633Y-59742000D01*
X97848794Y-59749395D01*
X97839616Y-59756566D01*
X97830100Y-59763513D01*
X97820245Y-59770236D01*
X97810052Y-59776735D01*
X97799520Y-59783010D01*
X97788650Y-59789062D01*
X97777461Y-59794612D01*
X97765973Y-59799806D01*
X97754185Y-59804643D01*
X97742098Y-59809125D01*
X97729711Y-59813250D01*
X97717025Y-59817020D01*
X97704040Y-59820433D01*
X97690755Y-59823491D01*
X97677171Y-59826192D01*
X97663287Y-59828537D01*
X97649104Y-59830526D01*
X97634621Y-59832159D01*
X97619839Y-59833436D01*
X97604758Y-59834357D01*
X97589377Y-59834921D01*
X97573697Y-59835130D01*
X97558180Y-59834995D01*
X97542871Y-59834529D01*
X97527770Y-59833733D01*
X97512877Y-59832606D01*
X97498193Y-59831148D01*
X97483717Y-59829360D01*
X97469449Y-59827241D01*
X97455389Y-59824791D01*
X97441538Y-59822011D01*
X97427895Y-59818900D01*
X97414461Y-59815459D01*
X97401235Y-59811687D01*
X97388216Y-59807584D01*
X97375407Y-59803150D01*
X97362805Y-59798386D01*
X97350412Y-59793292D01*
X97338273Y-59787675D01*
X97326433Y-59781767D01*
X97314893Y-59775568D01*
X97303652Y-59769077D01*
X97292710Y-59762296D01*
X97282068Y-59755223D01*
X97271725Y-59747859D01*
X97261682Y-59740203D01*
X97251938Y-59732257D01*
X97242493Y-59724019D01*
X97233348Y-59715490D01*
X97224502Y-59706670D01*
X97215956Y-59697559D01*
X97207709Y-59688156D01*
X97199761Y-59678463D01*
X97192113Y-59668478D01*
X97185018Y-59658241D01*
X97178314Y-59647792D01*
X97172000Y-59637131D01*
X97166077Y-59626257D01*
X97160545Y-59615172D01*
X97155402Y-59603874D01*
X97150651Y-59592365D01*
X97146290Y-59580643D01*
X97142319Y-59568709D01*
X97138739Y-59556564D01*
X97135550Y-59544206D01*
X97132751Y-59531636D01*
X97130343Y-59518854D01*
X97128325Y-59505860D01*
X97126698Y-59492653D01*
X97125461Y-59479235D01*
X97375407Y-59478751D01*
X97376605Y-59487745D01*
X97378115Y-59496552D01*
X97379937Y-59505175D01*
X97382072Y-59513612D01*
X97384519Y-59521863D01*
X97387279Y-59529929D01*
X97390351Y-59537809D01*
X97393736Y-59545503D01*
X97397433Y-59553012D01*
X97401443Y-59560336D01*
X97405765Y-59567474D01*
X97410399Y-59574426D01*
X97415346Y-59581193D01*
X97420605Y-59587774D01*
X97426177Y-59594170D01*
X97432061Y-59600380D01*
X97438433Y-59606101D01*
X97445053Y-59611451D01*
X97451920Y-59616431D01*
X97459034Y-59621041D01*
X97466396Y-59625280D01*
X97474005Y-59629149D01*
X97481861Y-59632647D01*
X97489965Y-59635775D01*
X97498316Y-59638533D01*
X97506915Y-59640921D01*
X97515760Y-59642938D01*
X97524853Y-59644584D01*
X97534194Y-59645861D01*
X97543782Y-59646767D01*
X97553617Y-59647302D01*
X97563699Y-59647468D01*
X97572727Y-59647299D01*
X97581482Y-59646826D01*
X97589963Y-59646050D01*
X97598171Y-59644971D01*
X97606106Y-59643589D01*
X97613767Y-59641903D01*
X97621154Y-59639914D01*
X97628269Y-59637622D01*
X97635110Y-59635026D01*
X97641677Y-59632127D01*
X97647972Y-59628925D01*
X97653992Y-59625419D01*
X97659740Y-59621610D01*
X97665214Y-59617498D01*
X97670415Y-59613082D01*
X97675342Y-59608363D01*
X97680185Y-59603196D01*
X97684715Y-59597857D01*
X97688933Y-59592347D01*
X97692838Y-59586666D01*
X97696431Y-59580814D01*
X97699711Y-59574791D01*
X97702680Y-59568596D01*
X97705335Y-59562231D01*
X97707678Y-59555695D01*
X97709709Y-59548987D01*
X97711428Y-59542108D01*
X97712834Y-59535058D01*
X97713927Y-59527837D01*
X97714708Y-59520445D01*
X97715177Y-59512881D01*
X97715333Y-59505147D01*
X97715209Y-59498252D01*
X97714838Y-59491516D01*
X97714220Y-59484939D01*
X97713354Y-59478520D01*
X97712241Y-59472261D01*
X97710881Y-59466161D01*
X97709273Y-59460220D01*
X97707418Y-59454438D01*
X97705316Y-59448814D01*
X97702966Y-59443350D01*
X97700369Y-59438045D01*
X97697524Y-59432898D01*
X97694433Y-59427911D01*
X97691093Y-59423082D01*
X97687507Y-59418413D01*
X97683673Y-59413902D01*
X97679651Y-59409319D01*
X97675498Y-59404856D01*
X97671215Y-59400512D01*
X97666802Y-59396287D01*
X97662258Y-59392181D01*
X97657585Y-59388194D01*
X97652781Y-59384326D01*
X97647848Y-59380577D01*
X97642783Y-59376948D01*
X97637589Y-59373438D01*
X97632265Y-59370047D01*
X97626810Y-59366775D01*
X97621226Y-59363622D01*
X97615511Y-59360589D01*
X97609666Y-59357674D01*
X97603690Y-59354879D01*
X97591037Y-59349303D01*
X97577238Y-59343517D01*
X97562293Y-59337523D01*
X97546203Y-59331319D01*
X97528967Y-59324906D01*
X97510586Y-59318283D01*
X97491059Y-59311452D01*
X97470386Y-59304412D01*
X97443517Y-59295191D01*
X97417897Y-59286020D01*
X97393528Y-59276900D01*
X97370408Y-59267830D01*
X97348538Y-59258811D01*
X97327917Y-59249842D01*
X97308546Y-59240924D01*
X97290425Y-59232055D01*
X97281755Y-59227297D01*
X97273241Y-59222287D01*
X97264884Y-59217026D01*
X97256682Y-59211513D01*
X97248637Y-59205750D01*
X97240748Y-59199735D01*
X97233016Y-59193469D01*
X97225439Y-59186951D01*
X97218019Y-59180182D01*
X97210755Y-59173162D01*
X97203647Y-59165891D01*
X97196695Y-59158368D01*
X97189900Y-59150594D01*
X97183261Y-59142569D01*
X97176778Y-59134293D01*
X97170451Y-59125765D01*
X97164599Y-59116946D01*
X97159125Y-59107796D01*
X97154029Y-59098315D01*
X97149310Y-59088503D01*
X97144968Y-59078360D01*
X97141004Y-59067886D01*
X97137418Y-59057081D01*
X97134209Y-59045945D01*
X97131378Y-59034478D01*
X97128924Y-59022680D01*
X97126847Y-59010551D01*
X97125148Y-58998091D01*
X97123827Y-58985300D01*
X97122883Y-58972178D01*
X97122317Y-58958725D01*
X97122128Y-58944941D01*
X97122551Y-58925965D01*
X97123821Y-58907502D01*
X97125936Y-58889553D01*
X97128898Y-58872117D01*
X97132705Y-58855195D01*
X97137359Y-58838786D01*
X97142859Y-58822891D01*
X97149206Y-58807509D01*
X97156398Y-58792641D01*
X97164437Y-58778287D01*
X97173322Y-58764446D01*
X97183053Y-58751118D01*
X97193630Y-58738304D01*
X97205053Y-58726004D01*
X97217322Y-58714217D01*
X97230438Y-58702944D01*
X97244458Y-58692065D01*
X97259026Y-58681885D01*
X97274139Y-58672404D01*
X97289800Y-58663622D01*
X97306008Y-58655540D01*
X97322762Y-58648156D01*
X97340063Y-58641472D01*
X97357910Y-58635486D01*
X97376305Y-58630199D01*
X97395246Y-58625612D01*
X97414734Y-58621724D01*
X97434768Y-58618534D01*
X97455350Y-58616044D01*
X97476478Y-58614253D01*
X97498153Y-58613161D01*
X97520375Y-58612768D01*
X97543404Y-58613080D01*
G37*
G36*
X98841757Y-58816491D02*
G01*
X98375191Y-58817392D01*
X98375191Y-59126813D01*
X98791767Y-59126008D01*
X98791767Y-59308616D01*
X98375191Y-59309422D01*
X98375191Y-59630679D01*
X98841756Y-59629776D01*
X98841756Y-59820840D01*
X98140242Y-59822198D01*
X98140242Y-58628476D01*
X98841757Y-58627117D01*
X98841757Y-58816491D01*
G37*
G36*
X105478211Y-59139128D02*
G01*
X105479023Y-59139190D01*
X105479823Y-59139291D01*
X105480611Y-59139432D01*
X105481384Y-59139610D01*
X105482143Y-59139826D01*
X105482886Y-59140077D01*
X105483612Y-59140363D01*
X105484320Y-59140683D01*
X105485009Y-59141037D01*
X105485679Y-59141421D01*
X105486327Y-59141837D01*
X105486954Y-59142283D01*
X105487558Y-59142758D01*
X105488138Y-59143260D01*
X105488693Y-59143789D01*
X105489223Y-59144345D01*
X105489725Y-59144925D01*
X105490200Y-59145529D01*
X105490646Y-59146155D01*
X105491061Y-59146804D01*
X105491446Y-59147474D01*
X105491799Y-59148163D01*
X105492120Y-59148871D01*
X105492406Y-59149597D01*
X105492657Y-59150340D01*
X105492873Y-59151099D01*
X105493051Y-59151872D01*
X105493192Y-59152659D01*
X105493293Y-59153459D01*
X105493355Y-59154271D01*
X105493376Y-59155094D01*
X105493376Y-59269830D01*
X105493355Y-59270653D01*
X105493293Y-59271465D01*
X105493192Y-59272265D01*
X105493051Y-59273052D01*
X105492873Y-59273825D01*
X105492657Y-59274584D01*
X105492406Y-59275327D01*
X105492120Y-59276053D01*
X105491799Y-59276761D01*
X105491446Y-59277450D01*
X105491061Y-59278120D01*
X105490646Y-59278768D01*
X105490200Y-59279395D01*
X105489725Y-59279999D01*
X105489223Y-59280579D01*
X105488693Y-59281134D01*
X105488138Y-59281664D01*
X105487558Y-59282166D01*
X105486954Y-59282641D01*
X105486327Y-59283086D01*
X105485679Y-59283502D01*
X105485009Y-59283887D01*
X105484320Y-59284240D01*
X105483612Y-59284560D01*
X105482886Y-59284847D01*
X105482143Y-59285098D01*
X105481384Y-59285313D01*
X105480611Y-59285492D01*
X105479823Y-59285633D01*
X105479023Y-59285734D01*
X105478211Y-59285796D01*
X105477389Y-59285817D01*
X105206176Y-59285817D01*
X105205353Y-59285796D01*
X105204542Y-59285734D01*
X105203742Y-59285633D01*
X105202954Y-59285492D01*
X105202181Y-59285313D01*
X105201422Y-59285098D01*
X105200679Y-59284847D01*
X105199953Y-59284560D01*
X105199245Y-59284240D01*
X105198556Y-59283887D01*
X105197886Y-59283502D01*
X105197238Y-59283086D01*
X105196611Y-59282641D01*
X105196007Y-59282166D01*
X105195427Y-59281664D01*
X105194872Y-59281134D01*
X105194342Y-59280579D01*
X105193840Y-59279999D01*
X105193365Y-59279395D01*
X105192920Y-59278768D01*
X105192504Y-59278120D01*
X105192119Y-59277450D01*
X105191766Y-59276761D01*
X105191446Y-59276053D01*
X105191159Y-59275327D01*
X105190908Y-59274584D01*
X105190693Y-59273825D01*
X105190514Y-59273052D01*
X105190374Y-59272265D01*
X105190272Y-59271465D01*
X105190210Y-59270653D01*
X105190189Y-59269830D01*
X105190189Y-59155094D01*
X105190210Y-59154271D01*
X105190272Y-59153459D01*
X105190374Y-59152659D01*
X105190514Y-59151872D01*
X105190693Y-59151099D01*
X105190908Y-59150340D01*
X105191159Y-59149597D01*
X105191446Y-59148871D01*
X105191766Y-59148163D01*
X105192119Y-59147474D01*
X105192504Y-59146804D01*
X105192920Y-59146155D01*
X105193365Y-59145529D01*
X105193840Y-59144925D01*
X105194342Y-59144345D01*
X105194872Y-59143789D01*
X105195427Y-59143260D01*
X105196007Y-59142758D01*
X105196611Y-59142283D01*
X105197238Y-59141837D01*
X105197886Y-59141421D01*
X105198556Y-59141037D01*
X105199245Y-59140683D01*
X105199953Y-59140363D01*
X105200679Y-59140077D01*
X105201422Y-59139826D01*
X105202181Y-59139610D01*
X105202954Y-59139432D01*
X105203742Y-59139291D01*
X105204542Y-59139190D01*
X105205353Y-59139128D01*
X105206176Y-59139107D01*
X105477389Y-59139107D01*
X105478211Y-59139128D01*
G37*
G36*
X104732351Y-58126944D02*
G01*
X104733163Y-58127006D01*
X104733963Y-58127107D01*
X104734750Y-58127248D01*
X104735524Y-58127426D01*
X104736282Y-58127642D01*
X104737025Y-58127893D01*
X104737751Y-58128179D01*
X104738459Y-58128500D01*
X104739149Y-58128853D01*
X104739818Y-58129237D01*
X104740467Y-58129653D01*
X104741094Y-58130099D01*
X104741697Y-58130574D01*
X104742278Y-58131076D01*
X104742833Y-58131605D01*
X104743362Y-58132161D01*
X104743865Y-58132741D01*
X104744339Y-58133345D01*
X104744785Y-58133971D01*
X104745201Y-58134620D01*
X104745586Y-58135290D01*
X104745939Y-58135979D01*
X104746259Y-58136687D01*
X104746545Y-58137413D01*
X104746797Y-58138156D01*
X104747012Y-58138914D01*
X104747190Y-58139688D01*
X104747331Y-58140475D01*
X104747433Y-58141275D01*
X104747494Y-58142087D01*
X104747515Y-58142910D01*
X104747515Y-58414136D01*
X104747494Y-58414959D01*
X104747433Y-58415771D01*
X104747331Y-58416571D01*
X104747190Y-58417358D01*
X104747012Y-58418132D01*
X104746797Y-58418890D01*
X104746545Y-58419633D01*
X104746259Y-58420359D01*
X104745939Y-58421067D01*
X104745586Y-58421757D01*
X104745201Y-58422426D01*
X104744785Y-58423075D01*
X104744339Y-58423702D01*
X104743865Y-58424306D01*
X104743362Y-58424886D01*
X104742833Y-58425441D01*
X104742278Y-58425970D01*
X104741697Y-58426473D01*
X104741094Y-58426947D01*
X104740467Y-58427393D01*
X104739818Y-58427809D01*
X104739149Y-58428194D01*
X104738459Y-58428547D01*
X104737751Y-58428867D01*
X104737025Y-58429153D01*
X104736282Y-58429405D01*
X104735524Y-58429620D01*
X104734750Y-58429799D01*
X104733963Y-58429939D01*
X104733163Y-58430041D01*
X104732351Y-58430103D01*
X104731528Y-58430123D01*
X104616792Y-58430123D01*
X104615970Y-58430103D01*
X104615158Y-58430041D01*
X104614358Y-58429939D01*
X104613570Y-58429799D01*
X104612797Y-58429620D01*
X104612038Y-58429405D01*
X104611296Y-58429153D01*
X104610570Y-58428867D01*
X104609861Y-58428547D01*
X104609172Y-58428194D01*
X104608503Y-58427809D01*
X104607854Y-58427393D01*
X104607227Y-58426947D01*
X104606623Y-58426473D01*
X104606043Y-58425970D01*
X104605488Y-58425441D01*
X104604959Y-58424886D01*
X104604456Y-58424306D01*
X104603981Y-58423702D01*
X104603536Y-58423075D01*
X104603120Y-58422426D01*
X104602735Y-58421757D01*
X104602382Y-58421067D01*
X104602062Y-58420359D01*
X104601776Y-58419633D01*
X104601524Y-58418890D01*
X104601309Y-58418132D01*
X104601130Y-58417358D01*
X104600990Y-58416571D01*
X104600888Y-58415771D01*
X104600826Y-58414959D01*
X104600805Y-58414136D01*
X104600805Y-58142910D01*
X104600826Y-58142087D01*
X104600888Y-58141275D01*
X104600990Y-58140475D01*
X104601130Y-58139688D01*
X104601309Y-58138914D01*
X104601524Y-58138156D01*
X104601776Y-58137413D01*
X104602062Y-58136687D01*
X104602382Y-58135979D01*
X104602735Y-58135290D01*
X104603120Y-58134620D01*
X104603536Y-58133971D01*
X104603981Y-58133345D01*
X104604456Y-58132741D01*
X104604959Y-58132161D01*
X104605488Y-58131605D01*
X104606043Y-58131076D01*
X104606623Y-58130574D01*
X104607227Y-58130099D01*
X104607854Y-58129653D01*
X104608503Y-58129237D01*
X104609172Y-58128853D01*
X104609861Y-58128500D01*
X104610570Y-58128179D01*
X104611296Y-58127893D01*
X104612038Y-58127642D01*
X104612797Y-58127426D01*
X104613570Y-58127248D01*
X104614358Y-58127107D01*
X104615158Y-58127006D01*
X104615970Y-58126944D01*
X104616792Y-58126923D01*
X104731528Y-58126923D01*
X104732351Y-58126944D01*
G37*
D13*
X101744457Y-58810872D02*
X101419527Y-58811500D01*
X101419527Y-59815849D01*
X101184578Y-59816305D01*
X101184578Y-58811955D01*
X100861315Y-58812581D01*
X100861315Y-58623208D01*
X101744457Y-58621498D01*
X101744457Y-58810872D01*
D11*
G36*
X104183627Y-58128642D02*
G01*
X104184439Y-58128704D01*
X104185239Y-58128806D01*
X104186027Y-58128946D01*
X104186800Y-58129125D01*
X104187559Y-58129340D01*
X104188302Y-58129591D01*
X104189028Y-58129878D01*
X104189736Y-58130198D01*
X104190425Y-58130551D01*
X104191095Y-58130936D01*
X104191743Y-58131352D01*
X104192370Y-58131797D01*
X104192974Y-58132272D01*
X104193554Y-58132774D01*
X104194109Y-58133304D01*
X104194639Y-58133859D01*
X104195141Y-58134439D01*
X104195616Y-58135043D01*
X104196061Y-58135670D01*
X104196477Y-58136318D01*
X104196862Y-58136988D01*
X104197215Y-58137677D01*
X104197535Y-58138385D01*
X104197822Y-58139111D01*
X104198073Y-58139854D01*
X104198288Y-58140613D01*
X104198467Y-58141386D01*
X104198607Y-58142174D01*
X104198709Y-58142974D01*
X104198771Y-58143785D01*
X104198792Y-58144608D01*
X104198792Y-58415835D01*
X104198771Y-58416657D01*
X104198709Y-58417469D01*
X104198607Y-58418269D01*
X104198467Y-58419057D01*
X104198288Y-58419830D01*
X104198073Y-58420589D01*
X104197822Y-58421332D01*
X104197535Y-58422058D01*
X104197215Y-58422766D01*
X104196862Y-58423455D01*
X104196477Y-58424125D01*
X104196061Y-58424773D01*
X104195616Y-58425400D01*
X104195141Y-58426004D01*
X104194639Y-58426584D01*
X104194109Y-58427139D01*
X104193554Y-58427669D01*
X104192974Y-58428171D01*
X104192370Y-58428646D01*
X104191743Y-58429091D01*
X104191095Y-58429507D01*
X104190425Y-58429892D01*
X104189736Y-58430245D01*
X104189028Y-58430565D01*
X104188302Y-58430852D01*
X104187559Y-58431103D01*
X104186800Y-58431318D01*
X104186027Y-58431497D01*
X104185239Y-58431637D01*
X104184439Y-58431739D01*
X104183627Y-58431801D01*
X104182805Y-58431822D01*
X104068069Y-58431822D01*
X104067246Y-58431801D01*
X104066434Y-58431739D01*
X104065634Y-58431637D01*
X104064847Y-58431497D01*
X104064073Y-58431318D01*
X104063315Y-58431103D01*
X104062572Y-58430852D01*
X104061846Y-58430565D01*
X104061138Y-58430245D01*
X104060448Y-58429892D01*
X104059779Y-58429507D01*
X104059130Y-58429091D01*
X104058504Y-58428646D01*
X104057900Y-58428171D01*
X104057320Y-58427669D01*
X104056764Y-58427139D01*
X104056235Y-58426584D01*
X104055732Y-58426004D01*
X104055258Y-58425400D01*
X104054812Y-58424773D01*
X104054396Y-58424125D01*
X104054011Y-58423455D01*
X104053658Y-58422766D01*
X104053338Y-58422058D01*
X104053052Y-58421332D01*
X104052801Y-58420589D01*
X104052585Y-58419830D01*
X104052407Y-58419057D01*
X104052266Y-58418269D01*
X104052164Y-58417469D01*
X104052103Y-58416657D01*
X104052082Y-58415835D01*
X104052082Y-58144608D01*
X104052103Y-58143785D01*
X104052164Y-58142974D01*
X104052266Y-58142174D01*
X104052407Y-58141386D01*
X104052585Y-58140613D01*
X104052801Y-58139854D01*
X104053052Y-58139111D01*
X104053338Y-58138385D01*
X104053658Y-58137677D01*
X104054011Y-58136988D01*
X104054396Y-58136318D01*
X104054812Y-58135670D01*
X104055258Y-58135043D01*
X104055732Y-58134439D01*
X104056235Y-58133859D01*
X104056764Y-58133304D01*
X104057320Y-58132774D01*
X104057900Y-58132272D01*
X104058504Y-58131797D01*
X104059130Y-58131352D01*
X104059779Y-58130936D01*
X104060448Y-58130551D01*
X104061138Y-58130198D01*
X104061846Y-58129878D01*
X104062572Y-58129591D01*
X104063315Y-58129340D01*
X104064073Y-58129125D01*
X104064847Y-58128946D01*
X104065634Y-58128806D01*
X104066434Y-58128704D01*
X104067246Y-58128642D01*
X104068069Y-58128621D01*
X104182805Y-58128621D01*
X104183627Y-58128642D01*
G37*
G36*
X104464590Y-60009479D02*
G01*
X104465402Y-60009541D01*
X104466202Y-60009642D01*
X104466989Y-60009783D01*
X104467763Y-60009961D01*
X104468521Y-60010177D01*
X104469264Y-60010428D01*
X104469990Y-60010714D01*
X104470698Y-60011034D01*
X104471387Y-60011387D01*
X104472057Y-60011772D01*
X104472705Y-60012188D01*
X104473332Y-60012634D01*
X104473936Y-60013108D01*
X104474516Y-60013611D01*
X104475071Y-60014140D01*
X104475600Y-60014695D01*
X104476103Y-60015275D01*
X104476577Y-60015879D01*
X104477023Y-60016506D01*
X104477439Y-60017155D01*
X104477824Y-60017824D01*
X104478177Y-60018513D01*
X104478497Y-60019222D01*
X104478783Y-60019948D01*
X104479035Y-60020690D01*
X104479250Y-60021449D01*
X104479428Y-60022222D01*
X104479569Y-60023010D01*
X104479671Y-60023810D01*
X104479732Y-60024621D01*
X104479753Y-60025444D01*
X104479753Y-60296658D01*
X104479732Y-60297481D01*
X104479671Y-60298293D01*
X104479569Y-60299093D01*
X104479428Y-60299880D01*
X104479250Y-60300653D01*
X104479035Y-60301412D01*
X104478783Y-60302155D01*
X104478497Y-60302881D01*
X104478177Y-60303589D01*
X104477824Y-60304278D01*
X104477439Y-60304948D01*
X104477023Y-60305596D01*
X104476577Y-60306223D01*
X104476103Y-60306827D01*
X104475600Y-60307407D01*
X104475071Y-60307962D01*
X104474516Y-60308491D01*
X104473936Y-60308994D01*
X104473332Y-60309468D01*
X104472705Y-60309914D01*
X104472057Y-60310330D01*
X104471387Y-60310715D01*
X104470698Y-60311068D01*
X104469990Y-60311388D01*
X104469264Y-60311674D01*
X104468521Y-60311926D01*
X104467763Y-60312141D01*
X104466989Y-60312319D01*
X104466202Y-60312460D01*
X104465402Y-60312562D01*
X104464590Y-60312623D01*
X104463768Y-60312644D01*
X104349040Y-60312644D01*
X104348217Y-60312623D01*
X104347406Y-60312562D01*
X104346606Y-60312460D01*
X104345818Y-60312319D01*
X104345045Y-60312141D01*
X104344286Y-60311926D01*
X104343544Y-60311674D01*
X104342818Y-60311388D01*
X104342110Y-60311068D01*
X104341420Y-60310715D01*
X104340751Y-60310330D01*
X104340102Y-60309914D01*
X104339476Y-60309468D01*
X104338872Y-60308994D01*
X104338292Y-60308491D01*
X104337736Y-60307962D01*
X104337207Y-60307407D01*
X104336705Y-60306827D01*
X104336230Y-60306223D01*
X104335784Y-60305596D01*
X104335369Y-60304948D01*
X104334984Y-60304278D01*
X104334631Y-60303589D01*
X104334311Y-60302881D01*
X104334024Y-60302155D01*
X104333773Y-60301412D01*
X104333558Y-60300653D01*
X104333379Y-60299880D01*
X104333239Y-60299093D01*
X104333137Y-60298293D01*
X104333075Y-60297481D01*
X104333054Y-60296658D01*
X104333054Y-60025444D01*
X104333075Y-60024621D01*
X104333137Y-60023810D01*
X104333239Y-60023010D01*
X104333379Y-60022222D01*
X104333558Y-60021449D01*
X104333773Y-60020690D01*
X104334024Y-60019948D01*
X104334311Y-60019222D01*
X104334631Y-60018513D01*
X104334984Y-60017824D01*
X104335369Y-60017155D01*
X104335784Y-60016506D01*
X104336230Y-60015879D01*
X104336705Y-60015275D01*
X104337207Y-60014695D01*
X104337736Y-60014140D01*
X104338292Y-60013611D01*
X104338872Y-60013108D01*
X104339476Y-60012634D01*
X104340102Y-60012188D01*
X104340751Y-60011772D01*
X104341420Y-60011387D01*
X104342110Y-60011034D01*
X104342818Y-60010714D01*
X104343544Y-60010428D01*
X104344286Y-60010177D01*
X104345045Y-60009961D01*
X104345818Y-60009783D01*
X104346606Y-60009642D01*
X104347406Y-60009541D01*
X104348217Y-60009479D01*
X104349040Y-60009458D01*
X104463768Y-60009458D01*
X104464590Y-60009479D01*
G37*
G36*
X105475086Y-59420087D02*
G01*
X105475898Y-59420149D01*
X105476698Y-59420250D01*
X105477485Y-59420391D01*
X105478258Y-59420569D01*
X105479017Y-59420785D01*
X105479760Y-59421036D01*
X105480486Y-59421322D01*
X105481194Y-59421643D01*
X105481883Y-59421996D01*
X105482553Y-59422381D01*
X105483201Y-59422797D01*
X105483828Y-59423242D01*
X105484432Y-59423717D01*
X105485012Y-59424219D01*
X105485567Y-59424749D01*
X105486097Y-59425304D01*
X105486599Y-59425884D01*
X105487074Y-59426488D01*
X105487520Y-59427115D01*
X105487935Y-59427764D01*
X105488320Y-59428433D01*
X105488673Y-59429122D01*
X105488994Y-59429831D01*
X105489280Y-59430557D01*
X105489531Y-59431299D01*
X105489747Y-59432058D01*
X105489925Y-59432832D01*
X105490066Y-59433619D01*
X105490167Y-59434419D01*
X105490229Y-59435231D01*
X105490250Y-59436053D01*
X105490250Y-59550789D01*
X105490229Y-59551612D01*
X105490167Y-59552424D01*
X105490066Y-59553224D01*
X105489925Y-59554011D01*
X105489747Y-59554784D01*
X105489531Y-59555543D01*
X105489280Y-59556286D01*
X105488994Y-59557012D01*
X105488673Y-59557720D01*
X105488320Y-59558409D01*
X105487935Y-59559079D01*
X105487520Y-59559727D01*
X105487074Y-59560354D01*
X105486599Y-59560958D01*
X105486097Y-59561538D01*
X105485567Y-59562093D01*
X105485012Y-59562623D01*
X105484432Y-59563125D01*
X105483828Y-59563600D01*
X105483201Y-59564045D01*
X105482553Y-59564461D01*
X105481883Y-59564846D01*
X105481194Y-59565199D01*
X105480486Y-59565519D01*
X105479760Y-59565806D01*
X105479017Y-59566057D01*
X105478258Y-59566273D01*
X105477485Y-59566451D01*
X105476698Y-59566592D01*
X105475898Y-59566693D01*
X105475086Y-59566755D01*
X105474263Y-59566776D01*
X105203051Y-59566776D01*
X105202228Y-59566755D01*
X105201416Y-59566693D01*
X105200616Y-59566592D01*
X105199829Y-59566451D01*
X105199055Y-59566273D01*
X105198297Y-59566057D01*
X105197554Y-59565806D01*
X105196828Y-59565519D01*
X105196120Y-59565199D01*
X105195431Y-59564846D01*
X105194761Y-59564461D01*
X105194112Y-59564045D01*
X105193486Y-59563600D01*
X105192882Y-59563125D01*
X105192302Y-59562623D01*
X105191746Y-59562093D01*
X105191217Y-59561538D01*
X105190715Y-59560958D01*
X105190240Y-59560354D01*
X105189794Y-59559727D01*
X105189378Y-59559079D01*
X105188993Y-59558409D01*
X105188640Y-59557720D01*
X105188320Y-59557012D01*
X105188034Y-59556286D01*
X105187783Y-59555543D01*
X105187567Y-59554784D01*
X105187389Y-59554011D01*
X105187248Y-59553224D01*
X105187146Y-59552424D01*
X105187085Y-59551612D01*
X105187064Y-59550789D01*
X105187064Y-59436053D01*
X105187085Y-59435231D01*
X105187146Y-59434419D01*
X105187248Y-59433619D01*
X105187389Y-59432832D01*
X105187567Y-59432058D01*
X105187783Y-59431299D01*
X105188034Y-59430557D01*
X105188320Y-59429831D01*
X105188640Y-59429122D01*
X105188993Y-59428433D01*
X105189378Y-59427764D01*
X105189794Y-59427115D01*
X105190240Y-59426488D01*
X105190715Y-59425884D01*
X105191217Y-59425304D01*
X105191746Y-59424749D01*
X105192302Y-59424219D01*
X105192882Y-59423717D01*
X105193486Y-59423242D01*
X105194112Y-59422797D01*
X105194761Y-59422381D01*
X105195431Y-59421996D01*
X105196120Y-59421643D01*
X105196828Y-59421322D01*
X105197554Y-59421036D01*
X105198297Y-59420785D01*
X105199055Y-59420569D01*
X105199829Y-59420391D01*
X105200616Y-59420250D01*
X105201416Y-59420149D01*
X105202228Y-59420087D01*
X105203051Y-59420066D01*
X105474263Y-59420066D01*
X105475086Y-59420087D01*
G37*
G36*
X103595691Y-58871376D02*
G01*
X103596503Y-58871438D01*
X103597303Y-58871540D01*
X103598090Y-58871680D01*
X103598863Y-58871859D01*
X103599622Y-58872074D01*
X103600365Y-58872326D01*
X103601091Y-58872612D01*
X103601799Y-58872932D01*
X103602488Y-58873285D01*
X103603158Y-58873670D01*
X103603806Y-58874086D01*
X103604433Y-58874532D01*
X103605037Y-58875006D01*
X103605617Y-58875509D01*
X103606172Y-58876038D01*
X103606702Y-58876593D01*
X103607204Y-58877173D01*
X103607679Y-58877777D01*
X103608125Y-58878404D01*
X103608540Y-58879053D01*
X103608925Y-58879722D01*
X103609278Y-58880412D01*
X103609599Y-58881120D01*
X103609885Y-58881846D01*
X103610136Y-58882589D01*
X103610352Y-58883347D01*
X103610530Y-58884121D01*
X103610671Y-58884908D01*
X103610772Y-58885708D01*
X103610834Y-58886520D01*
X103610855Y-58887342D01*
X103610855Y-59002079D01*
X103610834Y-59002901D01*
X103610772Y-59003713D01*
X103610671Y-59004513D01*
X103610530Y-59005300D01*
X103610352Y-59006074D01*
X103610136Y-59006833D01*
X103609885Y-59007575D01*
X103609599Y-59008301D01*
X103609278Y-59009009D01*
X103608925Y-59009699D01*
X103608540Y-59010368D01*
X103608125Y-59011017D01*
X103607679Y-59011644D01*
X103607204Y-59012248D01*
X103606702Y-59012828D01*
X103606172Y-59013383D01*
X103605617Y-59013912D01*
X103605037Y-59014415D01*
X103604433Y-59014889D01*
X103603806Y-59015335D01*
X103603158Y-59015751D01*
X103602488Y-59016136D01*
X103601799Y-59016489D01*
X103601091Y-59016809D01*
X103600365Y-59017095D01*
X103599622Y-59017347D01*
X103598863Y-59017562D01*
X103598090Y-59017741D01*
X103597303Y-59017881D01*
X103596503Y-59017983D01*
X103595691Y-59018045D01*
X103594868Y-59018065D01*
X103323641Y-59018065D01*
X103322819Y-59018045D01*
X103322007Y-59017983D01*
X103321207Y-59017881D01*
X103320419Y-59017741D01*
X103319646Y-59017562D01*
X103318887Y-59017347D01*
X103318144Y-59017095D01*
X103317418Y-59016809D01*
X103316710Y-59016489D01*
X103316021Y-59016136D01*
X103315351Y-59015751D01*
X103314703Y-59015335D01*
X103314076Y-59014889D01*
X103313472Y-59014415D01*
X103312892Y-59013912D01*
X103312337Y-59013383D01*
X103311807Y-59012828D01*
X103311305Y-59012248D01*
X103310830Y-59011644D01*
X103310385Y-59011017D01*
X103309969Y-59010368D01*
X103309584Y-59009699D01*
X103309231Y-59009009D01*
X103308911Y-59008301D01*
X103308625Y-59007575D01*
X103308373Y-59006833D01*
X103308158Y-59006074D01*
X103307979Y-59005300D01*
X103307839Y-59004513D01*
X103307737Y-59003713D01*
X103307675Y-59002901D01*
X103307655Y-59002079D01*
X103307655Y-58887342D01*
X103307675Y-58886520D01*
X103307737Y-58885708D01*
X103307839Y-58884908D01*
X103307979Y-58884121D01*
X103308158Y-58883347D01*
X103308373Y-58882589D01*
X103308625Y-58881846D01*
X103308911Y-58881120D01*
X103309231Y-58880412D01*
X103309584Y-58879722D01*
X103309969Y-58879053D01*
X103310385Y-58878404D01*
X103310830Y-58877777D01*
X103311305Y-58877173D01*
X103311807Y-58876593D01*
X103312337Y-58876038D01*
X103312892Y-58875509D01*
X103313472Y-58875006D01*
X103314076Y-58874532D01*
X103314703Y-58874086D01*
X103315351Y-58873670D01*
X103316021Y-58873285D01*
X103316710Y-58872932D01*
X103317418Y-58872612D01*
X103318144Y-58872326D01*
X103318887Y-58872074D01*
X103319646Y-58871859D01*
X103320419Y-58871680D01*
X103321207Y-58871540D01*
X103322007Y-58871438D01*
X103322819Y-58871376D01*
X103323641Y-58871356D01*
X103594868Y-58871356D01*
X103595691Y-58871376D01*
G37*
G36*
X104464599Y-58125517D02*
G01*
X104465411Y-58125579D01*
X104466211Y-58125680D01*
X104466999Y-58125821D01*
X104467772Y-58125999D01*
X104468531Y-58126215D01*
X104469273Y-58126466D01*
X104469999Y-58126752D01*
X104470708Y-58127072D01*
X104471397Y-58127425D01*
X104472066Y-58127810D01*
X104472715Y-58128226D01*
X104473342Y-58128672D01*
X104473946Y-58129147D01*
X104474526Y-58129649D01*
X104475081Y-58130178D01*
X104475610Y-58130734D01*
X104476113Y-58131314D01*
X104476588Y-58131918D01*
X104477033Y-58132544D01*
X104477449Y-58133193D01*
X104477834Y-58133862D01*
X104478187Y-58134552D01*
X104478507Y-58135260D01*
X104478793Y-58135986D01*
X104479045Y-58136729D01*
X104479260Y-58137487D01*
X104479439Y-58138261D01*
X104479579Y-58139048D01*
X104479681Y-58139848D01*
X104479743Y-58140660D01*
X104479764Y-58141483D01*
X104479764Y-58412709D01*
X104479743Y-58413532D01*
X104479681Y-58414344D01*
X104479579Y-58415144D01*
X104479439Y-58415931D01*
X104479260Y-58416705D01*
X104479045Y-58417463D01*
X104478793Y-58418206D01*
X104478507Y-58418932D01*
X104478187Y-58419640D01*
X104477834Y-58420330D01*
X104477449Y-58420999D01*
X104477033Y-58421648D01*
X104476588Y-58422275D01*
X104476113Y-58422879D01*
X104475610Y-58423459D01*
X104475081Y-58424014D01*
X104474526Y-58424543D01*
X104473946Y-58425046D01*
X104473342Y-58425520D01*
X104472715Y-58425966D01*
X104472066Y-58426382D01*
X104471397Y-58426767D01*
X104470708Y-58427120D01*
X104469999Y-58427440D01*
X104469273Y-58427726D01*
X104468531Y-58427978D01*
X104467772Y-58428193D01*
X104466999Y-58428371D01*
X104466211Y-58428512D01*
X104465411Y-58428614D01*
X104464599Y-58428675D01*
X104463777Y-58428696D01*
X104349041Y-58428696D01*
X104348218Y-58428675D01*
X104347406Y-58428614D01*
X104346606Y-58428512D01*
X104345819Y-58428371D01*
X104345045Y-58428193D01*
X104344287Y-58427978D01*
X104343544Y-58427726D01*
X104342818Y-58427440D01*
X104342110Y-58427120D01*
X104341420Y-58426767D01*
X104340751Y-58426382D01*
X104340102Y-58425966D01*
X104339475Y-58425520D01*
X104338872Y-58425046D01*
X104338291Y-58424543D01*
X104337736Y-58424014D01*
X104337207Y-58423459D01*
X104336704Y-58422879D01*
X104336230Y-58422275D01*
X104335784Y-58421648D01*
X104335368Y-58420999D01*
X104334983Y-58420330D01*
X104334630Y-58419640D01*
X104334310Y-58418932D01*
X104334024Y-58418206D01*
X104333772Y-58417463D01*
X104333557Y-58416705D01*
X104333379Y-58415931D01*
X104333238Y-58415144D01*
X104333136Y-58414344D01*
X104333075Y-58413532D01*
X104333054Y-58412709D01*
X104333054Y-58141483D01*
X104333075Y-58140660D01*
X104333136Y-58139848D01*
X104333238Y-58139048D01*
X104333379Y-58138261D01*
X104333557Y-58137487D01*
X104333772Y-58136729D01*
X104334024Y-58135986D01*
X104334310Y-58135260D01*
X104334630Y-58134552D01*
X104334983Y-58133862D01*
X104335368Y-58133193D01*
X104335784Y-58132544D01*
X104336230Y-58131918D01*
X104336704Y-58131314D01*
X104337207Y-58130734D01*
X104337736Y-58130178D01*
X104338291Y-58129649D01*
X104338872Y-58129147D01*
X104339475Y-58128672D01*
X104340102Y-58128226D01*
X104340751Y-58127810D01*
X104341420Y-58127425D01*
X104342110Y-58127072D01*
X104342818Y-58126752D01*
X104343544Y-58126466D01*
X104344287Y-58126215D01*
X104345045Y-58125999D01*
X104345819Y-58125821D01*
X104346606Y-58125680D01*
X104347406Y-58125579D01*
X104348218Y-58125517D01*
X104349041Y-58125496D01*
X104463777Y-58125496D01*
X104464599Y-58125517D01*
G37*
D12*
X104769579Y-58566582D02*
X104784736Y-58567734D01*
X104799673Y-58569632D01*
X104814370Y-58572257D01*
X104828810Y-58575590D01*
X104842973Y-58579612D01*
X104856840Y-58584304D01*
X104870394Y-58589648D01*
X104883614Y-58595625D01*
X104896483Y-58602216D01*
X104908982Y-58609402D01*
X104921091Y-58617165D01*
X104932792Y-58625486D01*
X104944067Y-58634347D01*
X104954897Y-58643727D01*
X104965262Y-58653610D01*
X104975144Y-58663975D01*
X104984525Y-58674804D01*
X104993385Y-58686079D01*
X105001706Y-58697781D01*
X105009469Y-58709890D01*
X105016656Y-58722389D01*
X105023247Y-58735257D01*
X105029224Y-58748478D01*
X105034568Y-58762031D01*
X105039260Y-58775899D01*
X105043282Y-58790062D01*
X105046615Y-58804502D01*
X105049239Y-58819199D01*
X105051137Y-58834136D01*
X105052290Y-58849293D01*
X105052678Y-58864651D01*
X105052678Y-59573489D01*
X105052290Y-59588847D01*
X105051137Y-59604004D01*
X105049239Y-59618941D01*
X105046615Y-59633638D01*
X105043282Y-59648078D01*
X105039260Y-59662241D01*
X105034568Y-59676108D01*
X105029224Y-59689662D01*
X105023247Y-59702882D01*
X105016656Y-59715751D01*
X105009469Y-59728250D01*
X105001706Y-59740359D01*
X104993385Y-59752060D01*
X104984525Y-59763335D01*
X104975144Y-59774165D01*
X104965262Y-59784530D01*
X104954897Y-59794412D01*
X104944067Y-59803793D01*
X104932792Y-59812653D01*
X104921091Y-59820974D01*
X104908982Y-59828737D01*
X104896483Y-59835924D01*
X104883614Y-59842515D01*
X104870394Y-59848492D01*
X104856840Y-59853836D01*
X104842973Y-59858528D01*
X104828810Y-59862550D01*
X104814370Y-59865882D01*
X104799673Y-59868507D01*
X104784736Y-59870405D01*
X104769579Y-59871558D01*
X104754221Y-59871946D01*
X104045383Y-59871946D01*
X104030024Y-59871558D01*
X104014868Y-59870405D01*
X103999931Y-59868507D01*
X103985234Y-59865882D01*
X103970794Y-59862550D01*
X103956631Y-59858528D01*
X103942763Y-59853836D01*
X103929210Y-59848492D01*
X103915990Y-59842515D01*
X103903121Y-59835924D01*
X103890622Y-59828737D01*
X103878513Y-59820974D01*
X103866811Y-59812653D01*
X103855537Y-59803793D01*
X103844707Y-59794412D01*
X103834342Y-59784530D01*
X103824460Y-59774165D01*
X103815079Y-59763335D01*
X103806219Y-59752060D01*
X103797898Y-59740359D01*
X103790134Y-59728250D01*
X103782948Y-59715751D01*
X103776357Y-59702882D01*
X103770380Y-59689662D01*
X103765036Y-59676108D01*
X103760344Y-59662241D01*
X103756322Y-59648078D01*
X103752989Y-59633638D01*
X103750365Y-59618941D01*
X103748467Y-59604004D01*
X103747314Y-59588847D01*
X103746926Y-59573489D01*
X103746926Y-58864651D01*
X103747314Y-58849293D01*
X103748467Y-58834136D01*
X103750365Y-58819199D01*
X103752989Y-58804502D01*
X103756322Y-58790062D01*
X103760344Y-58775899D01*
X103765036Y-58762031D01*
X103770380Y-58748478D01*
X103776357Y-58735257D01*
X103782948Y-58722389D01*
X103790134Y-58709890D01*
X103797898Y-58697781D01*
X103806219Y-58686079D01*
X103815079Y-58674804D01*
X103824460Y-58663975D01*
X103834342Y-58653610D01*
X103844707Y-58643727D01*
X103855537Y-58634347D01*
X103866811Y-58625486D01*
X103878513Y-58617165D01*
X103890622Y-58609402D01*
X103903121Y-58602216D01*
X103915990Y-58595625D01*
X103929210Y-58589648D01*
X103942763Y-58584304D01*
X103956631Y-58579612D01*
X103970794Y-58575590D01*
X103985234Y-58572257D01*
X103999931Y-58569632D01*
X104014868Y-58567734D01*
X104030024Y-58566582D01*
X104045383Y-58566193D01*
X104754221Y-58566193D01*
X104769579Y-58566582D01*
D11*
G36*
X104183640Y-60006353D02*
G01*
X104184452Y-60006415D01*
X104185252Y-60006517D01*
X104186039Y-60006657D01*
X104186813Y-60006836D01*
X104187571Y-60007051D01*
X104188314Y-60007303D01*
X104189040Y-60007589D01*
X104189748Y-60007909D01*
X104190438Y-60008262D01*
X104191107Y-60008647D01*
X104191756Y-60009063D01*
X104192383Y-60009509D01*
X104192987Y-60009983D01*
X104193567Y-60010486D01*
X104194122Y-60011015D01*
X104194651Y-60011570D01*
X104195154Y-60012150D01*
X104195629Y-60012754D01*
X104196074Y-60013381D01*
X104196490Y-60014030D01*
X104196875Y-60014699D01*
X104197228Y-60015388D01*
X104197548Y-60016097D01*
X104197835Y-60016823D01*
X104198086Y-60017565D01*
X104198301Y-60018324D01*
X104198480Y-60019098D01*
X104198621Y-60019885D01*
X104198722Y-60020685D01*
X104198784Y-60021497D01*
X104198805Y-60022320D01*
X104198805Y-60293532D01*
X104198784Y-60294354D01*
X104198722Y-60295166D01*
X104198621Y-60295966D01*
X104198480Y-60296754D01*
X104198301Y-60297527D01*
X104198086Y-60298286D01*
X104197835Y-60299029D01*
X104197548Y-60299755D01*
X104197228Y-60300463D01*
X104196875Y-60301152D01*
X104196490Y-60301822D01*
X104196074Y-60302470D01*
X104195629Y-60303097D01*
X104195154Y-60303701D01*
X104194651Y-60304281D01*
X104194122Y-60304836D01*
X104193567Y-60305366D01*
X104192987Y-60305868D01*
X104192383Y-60306343D01*
X104191756Y-60306788D01*
X104191107Y-60307204D01*
X104190438Y-60307589D01*
X104189748Y-60307942D01*
X104189040Y-60308262D01*
X104188314Y-60308549D01*
X104187571Y-60308800D01*
X104186813Y-60309015D01*
X104186039Y-60309194D01*
X104185252Y-60309334D01*
X104184452Y-60309436D01*
X104183640Y-60309498D01*
X104182817Y-60309519D01*
X104068082Y-60309519D01*
X104067259Y-60309498D01*
X104066447Y-60309436D01*
X104065647Y-60309334D01*
X104064860Y-60309194D01*
X104064087Y-60309015D01*
X104063328Y-60308800D01*
X104062585Y-60308549D01*
X104061859Y-60308262D01*
X104061151Y-60307942D01*
X104060462Y-60307589D01*
X104059792Y-60307204D01*
X104059144Y-60306788D01*
X104058517Y-60306343D01*
X104057913Y-60305868D01*
X104057333Y-60305366D01*
X104056777Y-60304836D01*
X104056248Y-60304281D01*
X104055746Y-60303701D01*
X104055271Y-60303097D01*
X104054825Y-60302470D01*
X104054409Y-60301822D01*
X104054025Y-60301152D01*
X104053671Y-60300463D01*
X104053351Y-60299755D01*
X104053065Y-60299029D01*
X104052814Y-60298286D01*
X104052598Y-60297527D01*
X104052420Y-60296754D01*
X104052279Y-60295966D01*
X104052178Y-60295166D01*
X104052116Y-60294354D01*
X104052095Y-60293532D01*
X104052095Y-60022320D01*
X104052116Y-60021497D01*
X104052178Y-60020685D01*
X104052279Y-60019885D01*
X104052420Y-60019098D01*
X104052598Y-60018324D01*
X104052814Y-60017565D01*
X104053065Y-60016823D01*
X104053351Y-60016097D01*
X104053671Y-60015388D01*
X104054025Y-60014699D01*
X104054409Y-60014030D01*
X104054825Y-60013381D01*
X104055271Y-60012754D01*
X104055746Y-60012150D01*
X104056248Y-60011570D01*
X104056777Y-60011015D01*
X104057333Y-60010486D01*
X104057913Y-60009983D01*
X104058517Y-60009509D01*
X104059144Y-60009063D01*
X104059792Y-60008647D01*
X104060462Y-60008262D01*
X104061151Y-60007909D01*
X104061859Y-60007589D01*
X104062585Y-60007303D01*
X104063328Y-60007051D01*
X104064087Y-60006836D01*
X104064860Y-60006657D01*
X104065647Y-60006517D01*
X104066447Y-60006415D01*
X104067259Y-60006353D01*
X104068082Y-60006333D01*
X104182817Y-60006333D01*
X104183640Y-60006353D01*
G37*
G36*
X105476784Y-58871370D02*
G01*
X105477596Y-58871432D01*
X105478396Y-58871534D01*
X105479183Y-58871674D01*
X105479957Y-58871853D01*
X105480715Y-58872068D01*
X105481458Y-58872320D01*
X105482184Y-58872606D01*
X105482892Y-58872926D01*
X105483582Y-58873279D01*
X105484251Y-58873664D01*
X105484900Y-58874080D01*
X105485527Y-58874526D01*
X105486130Y-58875000D01*
X105486711Y-58875503D01*
X105487266Y-58876032D01*
X105487795Y-58876587D01*
X105488298Y-58877167D01*
X105488772Y-58877771D01*
X105489218Y-58878398D01*
X105489634Y-58879047D01*
X105490019Y-58879716D01*
X105490372Y-58880406D01*
X105490692Y-58881114D01*
X105490978Y-58881840D01*
X105491230Y-58882583D01*
X105491445Y-58883341D01*
X105491623Y-58884115D01*
X105491764Y-58884902D01*
X105491866Y-58885702D01*
X105491927Y-58886514D01*
X105491948Y-58887337D01*
X105491948Y-59002072D01*
X105491927Y-59002895D01*
X105491866Y-59003707D01*
X105491764Y-59004507D01*
X105491623Y-59005294D01*
X105491445Y-59006068D01*
X105491230Y-59006826D01*
X105490978Y-59007569D01*
X105490692Y-59008295D01*
X105490372Y-59009003D01*
X105490019Y-59009692D01*
X105489634Y-59010362D01*
X105489218Y-59011011D01*
X105488772Y-59011637D01*
X105488298Y-59012241D01*
X105487795Y-59012821D01*
X105487266Y-59013377D01*
X105486711Y-59013906D01*
X105486130Y-59014408D01*
X105485527Y-59014883D01*
X105484900Y-59015329D01*
X105484251Y-59015745D01*
X105483582Y-59016130D01*
X105482892Y-59016483D01*
X105482184Y-59016803D01*
X105481458Y-59017089D01*
X105480715Y-59017340D01*
X105479957Y-59017556D01*
X105479183Y-59017734D01*
X105478396Y-59017875D01*
X105477596Y-59017977D01*
X105476784Y-59018038D01*
X105475961Y-59018059D01*
X105204749Y-59018059D01*
X105203926Y-59018038D01*
X105203114Y-59017977D01*
X105202314Y-59017875D01*
X105201527Y-59017734D01*
X105200754Y-59017556D01*
X105199995Y-59017340D01*
X105199252Y-59017089D01*
X105198526Y-59016803D01*
X105197818Y-59016483D01*
X105197128Y-59016130D01*
X105196459Y-59015745D01*
X105195810Y-59015329D01*
X105195184Y-59014883D01*
X105194580Y-59014408D01*
X105193999Y-59013906D01*
X105193444Y-59013377D01*
X105192915Y-59012821D01*
X105192412Y-59012241D01*
X105191938Y-59011637D01*
X105191492Y-59011011D01*
X105191076Y-59010362D01*
X105190691Y-59009692D01*
X105190338Y-59009003D01*
X105190018Y-59008295D01*
X105189732Y-59007569D01*
X105189480Y-59006826D01*
X105189265Y-59006068D01*
X105189086Y-59005294D01*
X105188946Y-59004507D01*
X105188844Y-59003707D01*
X105188782Y-59002895D01*
X105188762Y-59002072D01*
X105188762Y-58887337D01*
X105188782Y-58886514D01*
X105188844Y-58885702D01*
X105188946Y-58884902D01*
X105189086Y-58884115D01*
X105189265Y-58883341D01*
X105189480Y-58882583D01*
X105189732Y-58881840D01*
X105190018Y-58881114D01*
X105190338Y-58880406D01*
X105190691Y-58879716D01*
X105191076Y-58879047D01*
X105191492Y-58878398D01*
X105191938Y-58877771D01*
X105192412Y-58877167D01*
X105192915Y-58876587D01*
X105193444Y-58876032D01*
X105193999Y-58875503D01*
X105194580Y-58875000D01*
X105195184Y-58874526D01*
X105195810Y-58874080D01*
X105196459Y-58873664D01*
X105197128Y-58873279D01*
X105197818Y-58872926D01*
X105198526Y-58872606D01*
X105199252Y-58872320D01*
X105199995Y-58872068D01*
X105200754Y-58871853D01*
X105201527Y-58871674D01*
X105202314Y-58871534D01*
X105203114Y-58871432D01*
X105203926Y-58871370D01*
X105204749Y-58871349D01*
X105475961Y-58871349D01*
X105476784Y-58871370D01*
G37*
D13*
X102425977Y-58603270D02*
X102446473Y-58603534D01*
X102466723Y-58604407D01*
X102486725Y-58605887D01*
X102506480Y-58607975D01*
X102525987Y-58610672D01*
X102545248Y-58613977D01*
X102564260Y-58617890D01*
X102583026Y-58622411D01*
X102601544Y-58627540D01*
X102619815Y-58633277D01*
X102637838Y-58639622D01*
X102655615Y-58646576D01*
X102673143Y-58654137D01*
X102690425Y-58662307D01*
X102707459Y-58671085D01*
X102724246Y-58680471D01*
X102740889Y-58690405D01*
X102757077Y-58700829D01*
X102772809Y-58711743D01*
X102788086Y-58723146D01*
X102802907Y-58735039D01*
X102817272Y-58747422D01*
X102831182Y-58760294D01*
X102844636Y-58773656D01*
X102857635Y-58787507D01*
X102870177Y-58801848D01*
X102882265Y-58816679D01*
X102893896Y-58831999D01*
X102905072Y-58847809D01*
X102915793Y-58864109D01*
X102926057Y-58880898D01*
X102935866Y-58898176D01*
X102945350Y-58915634D01*
X102954222Y-58933384D01*
X102962482Y-58951426D01*
X102970130Y-58969759D01*
X102977166Y-58988384D01*
X102983591Y-59007301D01*
X102989403Y-59026510D01*
X102994604Y-59046011D01*
X102999193Y-59065803D01*
X103003170Y-59085887D01*
X103006535Y-59106263D01*
X103009288Y-59126931D01*
X103011430Y-59147890D01*
X103012959Y-59169141D01*
X103013877Y-59190684D01*
X103014183Y-59212519D01*
X103013877Y-59234362D01*
X103012959Y-59255928D01*
X103011430Y-59277218D01*
X103009288Y-59298232D01*
X103006535Y-59318970D01*
X103003170Y-59339432D01*
X102999193Y-59359617D01*
X102994604Y-59379526D01*
X102989403Y-59399159D01*
X102983591Y-59418515D01*
X102977166Y-59437596D01*
X102970130Y-59456400D01*
X102962482Y-59474928D01*
X102954222Y-59493180D01*
X102945350Y-59511155D01*
X102935866Y-59528854D01*
X102926057Y-59546171D01*
X102915793Y-59563001D01*
X102905072Y-59579342D01*
X102893896Y-59595195D01*
X102882265Y-59610561D01*
X102870177Y-59625438D01*
X102857635Y-59639828D01*
X102844636Y-59653730D01*
X102831182Y-59667144D01*
X102817272Y-59680070D01*
X102802907Y-59692508D01*
X102788086Y-59704458D01*
X102772809Y-59715921D01*
X102757077Y-59726895D01*
X102740889Y-59737382D01*
X102724246Y-59747380D01*
X102707459Y-59756831D01*
X102690425Y-59765675D01*
X102673143Y-59773912D01*
X102655615Y-59781542D01*
X102637838Y-59788564D01*
X102619815Y-59794979D01*
X102601544Y-59800787D01*
X102583026Y-59805988D01*
X102564260Y-59810582D01*
X102545248Y-59814568D01*
X102525987Y-59817948D01*
X102506480Y-59820720D01*
X102486725Y-59822885D01*
X102466723Y-59824443D01*
X102446473Y-59825393D01*
X102425977Y-59825737D01*
X102405473Y-59825473D01*
X102385204Y-59824601D01*
X102365169Y-59823120D01*
X102345369Y-59821032D01*
X102325803Y-59818335D01*
X102306471Y-59815030D01*
X102287373Y-59811118D01*
X102268510Y-59806597D01*
X102249881Y-59801468D01*
X102231487Y-59795731D01*
X102213327Y-59789386D01*
X102195401Y-59782432D01*
X102177709Y-59774871D01*
X102160252Y-59766702D01*
X102143029Y-59757924D01*
X102126041Y-59748538D01*
X102109592Y-59738604D01*
X102093574Y-59728180D01*
X102077985Y-59717266D01*
X102062826Y-59705862D01*
X102048096Y-59693969D01*
X102033796Y-59681587D01*
X102019925Y-59668714D01*
X102006484Y-59655352D01*
X101993472Y-59641501D01*
X101980891Y-59627160D01*
X101968738Y-59612329D01*
X101957016Y-59597009D01*
X101945722Y-59581199D01*
X101934859Y-59564900D01*
X101924425Y-59548111D01*
X101914420Y-59530832D01*
X101905139Y-59513169D01*
X101896456Y-59495228D01*
X101888371Y-59477007D01*
X101880886Y-59458509D01*
X101874000Y-59439731D01*
X101867712Y-59420676D01*
X101862023Y-59401341D01*
X101856933Y-59381728D01*
X101852442Y-59361836D01*
X101848550Y-59341666D01*
X101845256Y-59321217D01*
X101842561Y-59300490D01*
X101840465Y-59279484D01*
X101838968Y-59258200D01*
X101838070Y-59236637D01*
X101837771Y-59214795D01*
X101837777Y-59214331D01*
X102077719Y-59214331D01*
X102077888Y-59229013D01*
X102078396Y-59243470D01*
X102079242Y-59257701D01*
X102080427Y-59271707D01*
X102081950Y-59285489D01*
X102083811Y-59299045D01*
X102086011Y-59312375D01*
X102088550Y-59325481D01*
X102091427Y-59338361D01*
X102094642Y-59351016D01*
X102098196Y-59363446D01*
X102102088Y-59375651D01*
X102106319Y-59387631D01*
X102110888Y-59399385D01*
X102115796Y-59410914D01*
X102121042Y-59422218D01*
X102126796Y-59433039D01*
X102132811Y-59443542D01*
X102139085Y-59453728D01*
X102145620Y-59463596D01*
X102152416Y-59473146D01*
X102159472Y-59482379D01*
X102166788Y-59491295D01*
X102174364Y-59499892D01*
X102182201Y-59508173D01*
X102190298Y-59516136D01*
X102198656Y-59523781D01*
X102207274Y-59531109D01*
X102216152Y-59538119D01*
X102225291Y-59544812D01*
X102234690Y-59551188D01*
X102244349Y-59557246D01*
X102254236Y-59562960D01*
X102264319Y-59568304D01*
X102274596Y-59573277D01*
X102285069Y-59577880D01*
X102295738Y-59582113D01*
X102306601Y-59585976D01*
X102317660Y-59589468D01*
X102328914Y-59592590D01*
X102340364Y-59595342D01*
X102352008Y-59597723D01*
X102363848Y-59599735D01*
X102375883Y-59601376D01*
X102388114Y-59602647D01*
X102400539Y-59603547D01*
X102413160Y-59604078D01*
X102425977Y-59604238D01*
X102438793Y-59604028D01*
X102451414Y-59603449D01*
X102463839Y-59602500D01*
X102476070Y-59601182D01*
X102488105Y-59599494D01*
X102499945Y-59597437D01*
X102511589Y-59595010D01*
X102523039Y-59592214D01*
X102534293Y-59589048D01*
X102545351Y-59585513D01*
X102556215Y-59581609D01*
X102566883Y-59577334D01*
X102577356Y-59572691D01*
X102587634Y-59567677D01*
X102597716Y-59562295D01*
X102607603Y-59556542D01*
X102617256Y-59550447D01*
X102626636Y-59544036D01*
X102635742Y-59537308D01*
X102644574Y-59530263D01*
X102653134Y-59522902D01*
X102661420Y-59515225D01*
X102669432Y-59507231D01*
X102677171Y-59498920D01*
X102684637Y-59490293D01*
X102691830Y-59481349D01*
X102698749Y-59472089D01*
X102705394Y-59462512D01*
X102711767Y-59452619D01*
X102717866Y-59442410D01*
X102723691Y-59431883D01*
X102729243Y-59421041D01*
X102734691Y-59409716D01*
X102739788Y-59398168D01*
X102744533Y-59386395D01*
X102748927Y-59374399D01*
X102752969Y-59362179D01*
X102756659Y-59349735D01*
X102759998Y-59337067D01*
X102762986Y-59324176D01*
X102765622Y-59311060D01*
X102767907Y-59297721D01*
X102769840Y-59284157D01*
X102771422Y-59270370D01*
X102772652Y-59256359D01*
X102773530Y-59242124D01*
X102774058Y-59227665D01*
X102774233Y-59212983D01*
X102774058Y-59198307D01*
X102773530Y-59183870D01*
X102772652Y-59169672D01*
X102771422Y-59155712D01*
X102769840Y-59141990D01*
X102767907Y-59128507D01*
X102765622Y-59115262D01*
X102762986Y-59102256D01*
X102759998Y-59089488D01*
X102756659Y-59076959D01*
X102752969Y-59064668D01*
X102748927Y-59052615D01*
X102744533Y-59040801D01*
X102739788Y-59029226D01*
X102734691Y-59017889D01*
X102729243Y-59006790D01*
X102723691Y-58995764D01*
X102717866Y-58985069D01*
X102711767Y-58974704D01*
X102705394Y-58964671D01*
X102698749Y-58954968D01*
X102691830Y-58945596D01*
X102684637Y-58936555D01*
X102677171Y-58927844D01*
X102669432Y-58919464D01*
X102661420Y-58911415D01*
X102653134Y-58903697D01*
X102644574Y-58896309D01*
X102635742Y-58889253D01*
X102626636Y-58882527D01*
X102617256Y-58876132D01*
X102607603Y-58870067D01*
X102597716Y-58864354D01*
X102587634Y-58859010D01*
X102577356Y-58854037D01*
X102566883Y-58849434D01*
X102556215Y-58845201D01*
X102545351Y-58841339D01*
X102534292Y-58837846D01*
X102523038Y-58834724D01*
X102511589Y-58831973D01*
X102499944Y-58829591D01*
X102488104Y-58827580D01*
X102476069Y-58825938D01*
X102463839Y-58824668D01*
X102451413Y-58823767D01*
X102438793Y-58823237D01*
X102425977Y-58823077D01*
X102413160Y-58823286D01*
X102400539Y-58823866D01*
X102388113Y-58824814D01*
X102375883Y-58826132D01*
X102363848Y-58827820D01*
X102352008Y-58829877D01*
X102340363Y-58832304D01*
X102328914Y-58835100D01*
X102317660Y-58838266D01*
X102306601Y-58841801D01*
X102295738Y-58845706D01*
X102285069Y-58849980D01*
X102274596Y-58854624D01*
X102264319Y-58859637D01*
X102254236Y-58865019D01*
X102244349Y-58870771D01*
X102234690Y-58876873D01*
X102225291Y-58883304D01*
X102216152Y-58890065D01*
X102207274Y-58897156D01*
X102198656Y-58904577D01*
X102190298Y-58912327D01*
X102182201Y-58920407D01*
X102174364Y-58928817D01*
X102166788Y-58937557D01*
X102159472Y-58946626D01*
X102152416Y-58956026D01*
X102145620Y-58965754D01*
X102139085Y-58975813D01*
X102132811Y-58986201D01*
X102126796Y-58996920D01*
X102121042Y-59007967D01*
X102115796Y-59019087D01*
X102110888Y-59030443D01*
X102106319Y-59042037D01*
X102102088Y-59053867D01*
X102098196Y-59065935D01*
X102094642Y-59078240D01*
X102091427Y-59090782D01*
X102088550Y-59103561D01*
X102086011Y-59116577D01*
X102083811Y-59129831D01*
X102081950Y-59143321D01*
X102080427Y-59157049D01*
X102079242Y-59171014D01*
X102078396Y-59185216D01*
X102077888Y-59199655D01*
X102077719Y-59214331D01*
X101837777Y-59214331D01*
X101838070Y-59192959D01*
X101838968Y-59171413D01*
X101840465Y-59150156D01*
X101842561Y-59129188D01*
X101845256Y-59108510D01*
X101848550Y-59088121D01*
X101852442Y-59068022D01*
X101856933Y-59048212D01*
X101862023Y-59028692D01*
X101867712Y-59009461D01*
X101874000Y-58990519D01*
X101880886Y-58971867D01*
X101888371Y-58953505D01*
X101896456Y-58935432D01*
X101905139Y-58917648D01*
X101914420Y-58900154D01*
X101924425Y-58882836D01*
X101934859Y-58866007D01*
X101945722Y-58849665D01*
X101957016Y-58833812D01*
X101968738Y-58818446D01*
X101980891Y-58803568D01*
X101993472Y-58789178D01*
X102006484Y-58775276D01*
X102019925Y-58761863D01*
X102033796Y-58748937D01*
X102048096Y-58736499D01*
X102062826Y-58724548D01*
X102077985Y-58713086D01*
X102093574Y-58702112D01*
X102109592Y-58691626D01*
X102126041Y-58681628D01*
X102143029Y-58672176D01*
X102160252Y-58663332D01*
X102177709Y-58655095D01*
X102195401Y-58647465D01*
X102213327Y-58640443D01*
X102231487Y-58634027D01*
X102249881Y-58628219D01*
X102268510Y-58623018D01*
X102287373Y-58618424D01*
X102306471Y-58614438D01*
X102325803Y-58611058D01*
X102345369Y-58608286D01*
X102365169Y-58606121D01*
X102385204Y-58604563D01*
X102405473Y-58603612D01*
X102425977Y-58603269D01*
X102425977Y-58603270D01*
D14*
X103391759Y-72611175D02*
X103058426Y-72134984D01*
X102820331Y-72611175D02*
X102820331Y-71611175D01*
X102820331Y-71611175D02*
X103201283Y-71611175D01*
X103201283Y-71611175D02*
X103296521Y-71658794D01*
X103296521Y-71658794D02*
X103344140Y-71706413D01*
X103344140Y-71706413D02*
X103391759Y-71801651D01*
X103391759Y-71801651D02*
X103391759Y-71944508D01*
X103391759Y-71944508D02*
X103344140Y-72039746D01*
X103344140Y-72039746D02*
X103296521Y-72087365D01*
X103296521Y-72087365D02*
X103201283Y-72134984D01*
X103201283Y-72134984D02*
X102820331Y-72134984D01*
X103820331Y-72611175D02*
X103820331Y-71611175D01*
X103820331Y-71611175D02*
X104201283Y-71611175D01*
X104201283Y-71611175D02*
X104296521Y-71658794D01*
X104296521Y-71658794D02*
X104344140Y-71706413D01*
X104344140Y-71706413D02*
X104391759Y-71801651D01*
X104391759Y-71801651D02*
X104391759Y-71944508D01*
X104391759Y-71944508D02*
X104344140Y-72039746D01*
X104344140Y-72039746D02*
X104296521Y-72087365D01*
X104296521Y-72087365D02*
X104201283Y-72134984D01*
X104201283Y-72134984D02*
X103820331Y-72134984D01*
X104772712Y-71706413D02*
X104820331Y-71658794D01*
X104820331Y-71658794D02*
X104915569Y-71611175D01*
X104915569Y-71611175D02*
X105153664Y-71611175D01*
X105153664Y-71611175D02*
X105248902Y-71658794D01*
X105248902Y-71658794D02*
X105296521Y-71706413D01*
X105296521Y-71706413D02*
X105344140Y-71801651D01*
X105344140Y-71801651D02*
X105344140Y-71896889D01*
X105344140Y-71896889D02*
X105296521Y-72039746D01*
X105296521Y-72039746D02*
X104725093Y-72611175D01*
X104725093Y-72611175D02*
X105344140Y-72611175D01*
X105677474Y-71611175D02*
X106296521Y-71611175D01*
X106296521Y-71611175D02*
X105963188Y-71992127D01*
X105963188Y-71992127D02*
X106106045Y-71992127D01*
X106106045Y-71992127D02*
X106201283Y-72039746D01*
X106201283Y-72039746D02*
X106248902Y-72087365D01*
X106248902Y-72087365D02*
X106296521Y-72182603D01*
X106296521Y-72182603D02*
X106296521Y-72420698D01*
X106296521Y-72420698D02*
X106248902Y-72515936D01*
X106248902Y-72515936D02*
X106201283Y-72563556D01*
X106201283Y-72563556D02*
X106106045Y-72611175D01*
X106106045Y-72611175D02*
X105820331Y-72611175D01*
X105820331Y-72611175D02*
X105725093Y-72563556D01*
X105725093Y-72563556D02*
X105677474Y-72515936D01*
X107201283Y-71611175D02*
X106725093Y-71611175D01*
X106725093Y-71611175D02*
X106677474Y-72087365D01*
X106677474Y-72087365D02*
X106725093Y-72039746D01*
X106725093Y-72039746D02*
X106820331Y-71992127D01*
X106820331Y-71992127D02*
X107058426Y-71992127D01*
X107058426Y-71992127D02*
X107153664Y-72039746D01*
X107153664Y-72039746D02*
X107201283Y-72087365D01*
X107201283Y-72087365D02*
X107248902Y-72182603D01*
X107248902Y-72182603D02*
X107248902Y-72420698D01*
X107248902Y-72420698D02*
X107201283Y-72515936D01*
X107201283Y-72515936D02*
X107153664Y-72563556D01*
X107153664Y-72563556D02*
X107058426Y-72611175D01*
X107058426Y-72611175D02*
X106820331Y-72611175D01*
X106820331Y-72611175D02*
X106725093Y-72563556D01*
X106725093Y-72563556D02*
X106677474Y-72515936D01*
X107867950Y-71611175D02*
X107963188Y-71611175D01*
X107963188Y-71611175D02*
X108058426Y-71658794D01*
X108058426Y-71658794D02*
X108106045Y-71706413D01*
X108106045Y-71706413D02*
X108153664Y-71801651D01*
X108153664Y-71801651D02*
X108201283Y-71992127D01*
X108201283Y-71992127D02*
X108201283Y-72230222D01*
X108201283Y-72230222D02*
X108153664Y-72420698D01*
X108153664Y-72420698D02*
X108106045Y-72515936D01*
X108106045Y-72515936D02*
X108058426Y-72563556D01*
X108058426Y-72563556D02*
X107963188Y-72611175D01*
X107963188Y-72611175D02*
X107867950Y-72611175D01*
X107867950Y-72611175D02*
X107772712Y-72563556D01*
X107772712Y-72563556D02*
X107725093Y-72515936D01*
X107725093Y-72515936D02*
X107677474Y-72420698D01*
X107677474Y-72420698D02*
X107629855Y-72230222D01*
X107629855Y-72230222D02*
X107629855Y-71992127D01*
X107629855Y-71992127D02*
X107677474Y-71801651D01*
X107677474Y-71801651D02*
X107725093Y-71706413D01*
X107725093Y-71706413D02*
X107772712Y-71658794D01*
X107772712Y-71658794D02*
X107867950Y-71611175D01*
X109915569Y-71658794D02*
X109820331Y-71611175D01*
X109820331Y-71611175D02*
X109677474Y-71611175D01*
X109677474Y-71611175D02*
X109534617Y-71658794D01*
X109534617Y-71658794D02*
X109439379Y-71754032D01*
X109439379Y-71754032D02*
X109391760Y-71849270D01*
X109391760Y-71849270D02*
X109344141Y-72039746D01*
X109344141Y-72039746D02*
X109344141Y-72182603D01*
X109344141Y-72182603D02*
X109391760Y-72373079D01*
X109391760Y-72373079D02*
X109439379Y-72468317D01*
X109439379Y-72468317D02*
X109534617Y-72563556D01*
X109534617Y-72563556D02*
X109677474Y-72611175D01*
X109677474Y-72611175D02*
X109772712Y-72611175D01*
X109772712Y-72611175D02*
X109915569Y-72563556D01*
X109915569Y-72563556D02*
X109963188Y-72515936D01*
X109963188Y-72515936D02*
X109963188Y-72182603D01*
X109963188Y-72182603D02*
X109772712Y-72182603D01*
X110391760Y-72611175D02*
X110391760Y-71611175D01*
X110391760Y-71611175D02*
X110772712Y-71611175D01*
X110772712Y-71611175D02*
X110867950Y-71658794D01*
X110867950Y-71658794D02*
X110915569Y-71706413D01*
X110915569Y-71706413D02*
X110963188Y-71801651D01*
X110963188Y-71801651D02*
X110963188Y-71944508D01*
X110963188Y-71944508D02*
X110915569Y-72039746D01*
X110915569Y-72039746D02*
X110867950Y-72087365D01*
X110867950Y-72087365D02*
X110772712Y-72134984D01*
X110772712Y-72134984D02*
X110391760Y-72134984D01*
X111391760Y-72611175D02*
X111391760Y-71611175D01*
X112058426Y-71611175D02*
X112248902Y-71611175D01*
X112248902Y-71611175D02*
X112344140Y-71658794D01*
X112344140Y-71658794D02*
X112439378Y-71754032D01*
X112439378Y-71754032D02*
X112486997Y-71944508D01*
X112486997Y-71944508D02*
X112486997Y-72277841D01*
X112486997Y-72277841D02*
X112439378Y-72468317D01*
X112439378Y-72468317D02*
X112344140Y-72563556D01*
X112344140Y-72563556D02*
X112248902Y-72611175D01*
X112248902Y-72611175D02*
X112058426Y-72611175D01*
X112058426Y-72611175D02*
X111963188Y-72563556D01*
X111963188Y-72563556D02*
X111867950Y-72468317D01*
X111867950Y-72468317D02*
X111820331Y-72277841D01*
X111820331Y-72277841D02*
X111820331Y-71944508D01*
X111820331Y-71944508D02*
X111867950Y-71754032D01*
X111867950Y-71754032D02*
X111963188Y-71658794D01*
X111963188Y-71658794D02*
X112058426Y-71611175D01*
X102820331Y-73697309D02*
X103153664Y-73697309D01*
X103296521Y-74221119D02*
X102820331Y-74221119D01*
X102820331Y-74221119D02*
X102820331Y-73221119D01*
X102820331Y-73221119D02*
X103296521Y-73221119D01*
X103629855Y-73221119D02*
X104296521Y-74221119D01*
X104296521Y-73221119D02*
X103629855Y-74221119D01*
X104677474Y-74221119D02*
X104677474Y-73221119D01*
X104677474Y-73221119D02*
X105058426Y-73221119D01*
X105058426Y-73221119D02*
X105153664Y-73268738D01*
X105153664Y-73268738D02*
X105201283Y-73316357D01*
X105201283Y-73316357D02*
X105248902Y-73411595D01*
X105248902Y-73411595D02*
X105248902Y-73554452D01*
X105248902Y-73554452D02*
X105201283Y-73649690D01*
X105201283Y-73649690D02*
X105153664Y-73697309D01*
X105153664Y-73697309D02*
X105058426Y-73744928D01*
X105058426Y-73744928D02*
X104677474Y-73744928D01*
X105629855Y-73935404D02*
X106106045Y-73935404D01*
X105534617Y-74221119D02*
X105867950Y-73221119D01*
X105867950Y-73221119D02*
X106201283Y-74221119D01*
X106534617Y-74221119D02*
X106534617Y-73221119D01*
X106534617Y-73221119D02*
X107106045Y-74221119D01*
X107106045Y-74221119D02*
X107106045Y-73221119D01*
X107534617Y-74173500D02*
X107677474Y-74221119D01*
X107677474Y-74221119D02*
X107915569Y-74221119D01*
X107915569Y-74221119D02*
X108010807Y-74173500D01*
X108010807Y-74173500D02*
X108058426Y-74125880D01*
X108058426Y-74125880D02*
X108106045Y-74030642D01*
X108106045Y-74030642D02*
X108106045Y-73935404D01*
X108106045Y-73935404D02*
X108058426Y-73840166D01*
X108058426Y-73840166D02*
X108010807Y-73792547D01*
X108010807Y-73792547D02*
X107915569Y-73744928D01*
X107915569Y-73744928D02*
X107725093Y-73697309D01*
X107725093Y-73697309D02*
X107629855Y-73649690D01*
X107629855Y-73649690D02*
X107582236Y-73602071D01*
X107582236Y-73602071D02*
X107534617Y-73506833D01*
X107534617Y-73506833D02*
X107534617Y-73411595D01*
X107534617Y-73411595D02*
X107582236Y-73316357D01*
X107582236Y-73316357D02*
X107629855Y-73268738D01*
X107629855Y-73268738D02*
X107725093Y-73221119D01*
X107725093Y-73221119D02*
X107963188Y-73221119D01*
X107963188Y-73221119D02*
X108106045Y-73268738D01*
X108534617Y-74221119D02*
X108534617Y-73221119D01*
X109201283Y-73221119D02*
X109391759Y-73221119D01*
X109391759Y-73221119D02*
X109486997Y-73268738D01*
X109486997Y-73268738D02*
X109582235Y-73363976D01*
X109582235Y-73363976D02*
X109629854Y-73554452D01*
X109629854Y-73554452D02*
X109629854Y-73887785D01*
X109629854Y-73887785D02*
X109582235Y-74078261D01*
X109582235Y-74078261D02*
X109486997Y-74173500D01*
X109486997Y-74173500D02*
X109391759Y-74221119D01*
X109391759Y-74221119D02*
X109201283Y-74221119D01*
X109201283Y-74221119D02*
X109106045Y-74173500D01*
X109106045Y-74173500D02*
X109010807Y-74078261D01*
X109010807Y-74078261D02*
X108963188Y-73887785D01*
X108963188Y-73887785D02*
X108963188Y-73554452D01*
X108963188Y-73554452D02*
X109010807Y-73363976D01*
X109010807Y-73363976D02*
X109106045Y-73268738D01*
X109106045Y-73268738D02*
X109201283Y-73221119D01*
X110058426Y-74221119D02*
X110058426Y-73221119D01*
X110058426Y-73221119D02*
X110629854Y-74221119D01*
X110629854Y-74221119D02*
X110629854Y-73221119D01*
X112439378Y-74125880D02*
X112391759Y-74173500D01*
X112391759Y-74173500D02*
X112248902Y-74221119D01*
X112248902Y-74221119D02*
X112153664Y-74221119D01*
X112153664Y-74221119D02*
X112010807Y-74173500D01*
X112010807Y-74173500D02*
X111915569Y-74078261D01*
X111915569Y-74078261D02*
X111867950Y-73983023D01*
X111867950Y-73983023D02*
X111820331Y-73792547D01*
X111820331Y-73792547D02*
X111820331Y-73649690D01*
X111820331Y-73649690D02*
X111867950Y-73459214D01*
X111867950Y-73459214D02*
X111915569Y-73363976D01*
X111915569Y-73363976D02*
X112010807Y-73268738D01*
X112010807Y-73268738D02*
X112153664Y-73221119D01*
X112153664Y-73221119D02*
X112248902Y-73221119D01*
X112248902Y-73221119D02*
X112391759Y-73268738D01*
X112391759Y-73268738D02*
X112439378Y-73316357D01*
X112820331Y-73935404D02*
X113296521Y-73935404D01*
X112725093Y-74221119D02*
X113058426Y-73221119D01*
X113058426Y-73221119D02*
X113391759Y-74221119D01*
X114296521Y-74221119D02*
X113963188Y-73744928D01*
X113725093Y-74221119D02*
X113725093Y-73221119D01*
X113725093Y-73221119D02*
X114106045Y-73221119D01*
X114106045Y-73221119D02*
X114201283Y-73268738D01*
X114201283Y-73268738D02*
X114248902Y-73316357D01*
X114248902Y-73316357D02*
X114296521Y-73411595D01*
X114296521Y-73411595D02*
X114296521Y-73554452D01*
X114296521Y-73554452D02*
X114248902Y-73649690D01*
X114248902Y-73649690D02*
X114201283Y-73697309D01*
X114201283Y-73697309D02*
X114106045Y-73744928D01*
X114106045Y-73744928D02*
X113725093Y-73744928D01*
X114725093Y-74221119D02*
X114725093Y-73221119D01*
X114725093Y-73221119D02*
X114963188Y-73221119D01*
X114963188Y-73221119D02*
X115106045Y-73268738D01*
X115106045Y-73268738D02*
X115201283Y-73363976D01*
X115201283Y-73363976D02*
X115248902Y-73459214D01*
X115248902Y-73459214D02*
X115296521Y-73649690D01*
X115296521Y-73649690D02*
X115296521Y-73792547D01*
X115296521Y-73792547D02*
X115248902Y-73983023D01*
X115248902Y-73983023D02*
X115201283Y-74078261D01*
X115201283Y-74078261D02*
X115106045Y-74173500D01*
X115106045Y-74173500D02*
X114963188Y-74221119D01*
X114963188Y-74221119D02*
X114725093Y-74221119D01*
D15*
G36*
X100256446Y-77979046D02*
G01*
X99215514Y-77979046D01*
X99215514Y-76747470D01*
X99326625Y-76747470D01*
X99326625Y-76786800D01*
X99341676Y-76823136D01*
X99369487Y-76850947D01*
X99405823Y-76865998D01*
X99425488Y-76867935D01*
X99822395Y-76867935D01*
X99635342Y-77081710D01*
X99629265Y-77090210D01*
X99627390Y-77092086D01*
X99626653Y-77093865D01*
X99623851Y-77097785D01*
X99618606Y-77113292D01*
X99612339Y-77128422D01*
X99612339Y-77131821D01*
X99611250Y-77135041D01*
X99612339Y-77151377D01*
X99612339Y-77167752D01*
X99613639Y-77170892D01*
X99613866Y-77174285D01*
X99621124Y-77188961D01*
X99627390Y-77204088D01*
X99629794Y-77206492D01*
X99631301Y-77209539D01*
X99643620Y-77220318D01*
X99655201Y-77231899D01*
X99658342Y-77233200D01*
X99660900Y-77235438D01*
X99676407Y-77240682D01*
X99691537Y-77246950D01*
X99696332Y-77247422D01*
X99698156Y-77248039D01*
X99700802Y-77247862D01*
X99711202Y-77248887D01*
X99830264Y-77248887D01*
X99889587Y-77278548D01*
X99914073Y-77303035D01*
X99943735Y-77362358D01*
X99943735Y-77552863D01*
X99914073Y-77612185D01*
X99889585Y-77636674D01*
X99830264Y-77666335D01*
X99592140Y-77666335D01*
X99532818Y-77636674D01*
X99496765Y-77600620D01*
X99481490Y-77588085D01*
X99445154Y-77573033D01*
X99405824Y-77573033D01*
X99369487Y-77588083D01*
X99341677Y-77615894D01*
X99326625Y-77652230D01*
X99326625Y-77691560D01*
X99341675Y-77727897D01*
X99354211Y-77743172D01*
X99401830Y-77790792D01*
X99409561Y-77797136D01*
X99411305Y-77799147D01*
X99414337Y-77801055D01*
X99417105Y-77803327D01*
X99419562Y-77804344D01*
X99428028Y-77809674D01*
X99523266Y-77857293D01*
X99541721Y-77864355D01*
X99545333Y-77864611D01*
X99548680Y-77865998D01*
X99568345Y-77867935D01*
X99854059Y-77867935D01*
X99873724Y-77865998D01*
X99877070Y-77864611D01*
X99880683Y-77864355D01*
X99899138Y-77857293D01*
X99994376Y-77809674D01*
X100002841Y-77804344D01*
X100005299Y-77803327D01*
X100008066Y-77801055D01*
X100011099Y-77799147D01*
X100012842Y-77797136D01*
X100020574Y-77790792D01*
X100068193Y-77743172D01*
X100074537Y-77735441D01*
X100076547Y-77733698D01*
X100078455Y-77730666D01*
X100080728Y-77727897D01*
X100081746Y-77725438D01*
X100087074Y-77716975D01*
X100134693Y-77621737D01*
X100141755Y-77603282D01*
X100142011Y-77599669D01*
X100143398Y-77596323D01*
X100145335Y-77576658D01*
X100145335Y-77338563D01*
X100143398Y-77318898D01*
X100142011Y-77315551D01*
X100141755Y-77311939D01*
X100134693Y-77293484D01*
X100087074Y-77198246D01*
X100081747Y-77189784D01*
X100080728Y-77187323D01*
X100078453Y-77184551D01*
X100076547Y-77181523D01*
X100074538Y-77179780D01*
X100068192Y-77172048D01*
X100020573Y-77124430D01*
X100012843Y-77118086D01*
X100011099Y-77116075D01*
X100008066Y-77114166D01*
X100005298Y-77111894D01*
X100002839Y-77110875D01*
X99994376Y-77105548D01*
X99916454Y-77066587D01*
X100120395Y-76833512D01*
X100126473Y-76825009D01*
X100128347Y-76823136D01*
X100129082Y-76821359D01*
X100131887Y-76817437D01*
X100137133Y-76801924D01*
X100143398Y-76786800D01*
X100143398Y-76783400D01*
X100144487Y-76780180D01*
X100143398Y-76763843D01*
X100143398Y-76747470D01*
X100142097Y-76744329D01*
X100141871Y-76740937D01*
X100134611Y-76726257D01*
X100128347Y-76711134D01*
X100125943Y-76708730D01*
X100124436Y-76705682D01*
X100112108Y-76694895D01*
X100100536Y-76683323D01*
X100097396Y-76682022D01*
X100094837Y-76679783D01*
X100079322Y-76674535D01*
X100064200Y-76668272D01*
X100059404Y-76667799D01*
X100057581Y-76667183D01*
X100054934Y-76667359D01*
X100044535Y-76666335D01*
X99425488Y-76666335D01*
X99405823Y-76668272D01*
X99369487Y-76683323D01*
X99341676Y-76711134D01*
X99326625Y-76747470D01*
X99215514Y-76747470D01*
X99215514Y-76555224D01*
X100256446Y-76555224D01*
X100256446Y-77979046D01*
G37*
G36*
X102752128Y-77977109D02*
G01*
X101711988Y-77977109D01*
X101711988Y-77421194D01*
X101823099Y-77421194D01*
X101824244Y-77437305D01*
X101824244Y-77453466D01*
X101825630Y-77456812D01*
X101825887Y-77460425D01*
X101833111Y-77474874D01*
X101839295Y-77489802D01*
X101841856Y-77492363D01*
X101843476Y-77495603D01*
X101855683Y-77506190D01*
X101867106Y-77517613D01*
X101870451Y-77518998D01*
X101873188Y-77521372D01*
X101888513Y-77526480D01*
X101903442Y-77532664D01*
X101908584Y-77533170D01*
X101910500Y-77533809D01*
X101913152Y-77533620D01*
X101923107Y-77534601D01*
X102298497Y-77534601D01*
X102298497Y-77767135D01*
X102300434Y-77786800D01*
X102315485Y-77823136D01*
X102343296Y-77850947D01*
X102379632Y-77865998D01*
X102418962Y-77865998D01*
X102455298Y-77850947D01*
X102483109Y-77823136D01*
X102498160Y-77786800D01*
X102500097Y-77767135D01*
X102500097Y-77534601D01*
X102542154Y-77534601D01*
X102561819Y-77532664D01*
X102598155Y-77517613D01*
X102625966Y-77489802D01*
X102641017Y-77453466D01*
X102641017Y-77414136D01*
X102625966Y-77377800D01*
X102598155Y-77349989D01*
X102561819Y-77334938D01*
X102542154Y-77333001D01*
X102500097Y-77333001D01*
X102500097Y-77100468D01*
X102498160Y-77080803D01*
X102483109Y-77044467D01*
X102455298Y-77016656D01*
X102418962Y-77001605D01*
X102379632Y-77001605D01*
X102343296Y-77016656D01*
X102315485Y-77044467D01*
X102300434Y-77080803D01*
X102298497Y-77100468D01*
X102298497Y-77333001D01*
X102062959Y-77333001D01*
X102256829Y-76751392D01*
X102261210Y-76732124D01*
X102258422Y-76692893D01*
X102240833Y-76657715D01*
X102211121Y-76631945D01*
X102173809Y-76619508D01*
X102134578Y-76622296D01*
X102099400Y-76639886D01*
X102073631Y-76669597D01*
X102065575Y-76687641D01*
X101827480Y-77401925D01*
X101825263Y-77411675D01*
X101824244Y-77414136D01*
X101824244Y-77416157D01*
X101823099Y-77421194D01*
X101711988Y-77421194D01*
X101711988Y-76508397D01*
X102752128Y-76508397D01*
X102752128Y-77977109D01*
G37*
G36*
X110402360Y-77977341D02*
G01*
X109315514Y-77977341D01*
X109315514Y-76747470D01*
X109426625Y-76747470D01*
X109426625Y-76786800D01*
X109441676Y-76823136D01*
X109469487Y-76850947D01*
X109505823Y-76865998D01*
X109525488Y-76867935D01*
X110039287Y-76867935D01*
X109670933Y-77727428D01*
X109664967Y-77746266D01*
X109664488Y-77785593D01*
X109679095Y-77822111D01*
X109706564Y-77850258D01*
X109742714Y-77865751D01*
X109782041Y-77866230D01*
X109818559Y-77851623D01*
X109846706Y-77824154D01*
X109856233Y-77806842D01*
X110284804Y-76806842D01*
X110290770Y-76788004D01*
X110290777Y-76787377D01*
X110291017Y-76786800D01*
X110291017Y-76767724D01*
X110291249Y-76748677D01*
X110291017Y-76748097D01*
X110291017Y-76747470D01*
X110283707Y-76729822D01*
X110276642Y-76712160D01*
X110276205Y-76711713D01*
X110275966Y-76711134D01*
X110262482Y-76697650D01*
X110249173Y-76684012D01*
X110248597Y-76683765D01*
X110248155Y-76683323D01*
X110230518Y-76676017D01*
X110213023Y-76668520D01*
X110212399Y-76668512D01*
X110211819Y-76668272D01*
X110192154Y-76666335D01*
X109525488Y-76666335D01*
X109505823Y-76668272D01*
X109469487Y-76683323D01*
X109441676Y-76711134D01*
X109426625Y-76747470D01*
X109315514Y-76747470D01*
X109315514Y-76555224D01*
X110402360Y-76555224D01*
X110402360Y-77977341D01*
G37*
G36*
X105306446Y-77979046D02*
G01*
X104311667Y-77979046D01*
X104311667Y-77253055D01*
X104422778Y-77253055D01*
X104424244Y-77257913D01*
X104424244Y-77262990D01*
X104429884Y-77276606D01*
X104434139Y-77290708D01*
X104437351Y-77294635D01*
X104439295Y-77299326D01*
X104449713Y-77309744D01*
X104459044Y-77321149D01*
X104463518Y-77323549D01*
X104467106Y-77327137D01*
X104480713Y-77332773D01*
X104493702Y-77339741D01*
X104498753Y-77340246D01*
X104503442Y-77342188D01*
X104518175Y-77342188D01*
X104532837Y-77343654D01*
X104537696Y-77342188D01*
X104542772Y-77342188D01*
X104556388Y-77336547D01*
X104570490Y-77332293D01*
X104574417Y-77329080D01*
X104579108Y-77327137D01*
X104594383Y-77314601D01*
X104630436Y-77278548D01*
X104689759Y-77248887D01*
X104880264Y-77248887D01*
X104939587Y-77278548D01*
X104964073Y-77303035D01*
X104993735Y-77362358D01*
X104993735Y-77552863D01*
X104964073Y-77612185D01*
X104939585Y-77636674D01*
X104880264Y-77666335D01*
X104689759Y-77666335D01*
X104630437Y-77636674D01*
X104594384Y-77600620D01*
X104579109Y-77588085D01*
X104542773Y-77573033D01*
X104503443Y-77573033D01*
X104467106Y-77588083D01*
X104439296Y-77615894D01*
X104424244Y-77652230D01*
X104424244Y-77691560D01*
X104439294Y-77727897D01*
X104451830Y-77743172D01*
X104499449Y-77790792D01*
X104507180Y-77797136D01*
X104508924Y-77799147D01*
X104511956Y-77801055D01*
X104514724Y-77803327D01*
X104517181Y-77804344D01*
X104525647Y-77809674D01*
X104620885Y-77857293D01*
X104639340Y-77864355D01*
X104642952Y-77864611D01*
X104646299Y-77865998D01*
X104665964Y-77867935D01*
X104904059Y-77867935D01*
X104923724Y-77865998D01*
X104927070Y-77864611D01*
X104930683Y-77864355D01*
X104949138Y-77857293D01*
X105044376Y-77809674D01*
X105052841Y-77804344D01*
X105055299Y-77803327D01*
X105058066Y-77801055D01*
X105061099Y-77799147D01*
X105062842Y-77797136D01*
X105070574Y-77790792D01*
X105118193Y-77743172D01*
X105124537Y-77735441D01*
X105126547Y-77733698D01*
X105128455Y-77730666D01*
X105130728Y-77727897D01*
X105131746Y-77725438D01*
X105137074Y-77716975D01*
X105184693Y-77621737D01*
X105191755Y-77603282D01*
X105192011Y-77599669D01*
X105193398Y-77596323D01*
X105195335Y-77576658D01*
X105195335Y-77338563D01*
X105193398Y-77318898D01*
X105192011Y-77315551D01*
X105191755Y-77311939D01*
X105184693Y-77293484D01*
X105137074Y-77198246D01*
X105131747Y-77189784D01*
X105130728Y-77187323D01*
X105128453Y-77184551D01*
X105126547Y-77181523D01*
X105124538Y-77179780D01*
X105118192Y-77172048D01*
X105070573Y-77124430D01*
X105062843Y-77118086D01*
X105061099Y-77116075D01*
X105058066Y-77114166D01*
X105055298Y-77111894D01*
X105052839Y-77110875D01*
X105044376Y-77105548D01*
X104949138Y-77057929D01*
X104930683Y-77050867D01*
X104927070Y-77050610D01*
X104923724Y-77049224D01*
X104904059Y-77047287D01*
X104665964Y-77047287D01*
X104646299Y-77049224D01*
X104643712Y-77050295D01*
X104661949Y-76867935D01*
X105046916Y-76867935D01*
X105066581Y-76865998D01*
X105102917Y-76850947D01*
X105130728Y-76823136D01*
X105145779Y-76786800D01*
X105145779Y-76747470D01*
X105130728Y-76711134D01*
X105102917Y-76683323D01*
X105066581Y-76668272D01*
X105046916Y-76666335D01*
X104570726Y-76666335D01*
X104563451Y-76667051D01*
X104560996Y-76666806D01*
X104558597Y-76667529D01*
X104551061Y-76668272D01*
X104537444Y-76673912D01*
X104523343Y-76678167D01*
X104519415Y-76681379D01*
X104514725Y-76683323D01*
X104504306Y-76693741D01*
X104492902Y-76703072D01*
X104490501Y-76707546D01*
X104486914Y-76711134D01*
X104481277Y-76724741D01*
X104474310Y-76737730D01*
X104472821Y-76745156D01*
X104471863Y-76747470D01*
X104471863Y-76749936D01*
X104470426Y-76757105D01*
X104422807Y-77233295D01*
X104422778Y-77253055D01*
X104311667Y-77253055D01*
X104311667Y-76555224D01*
X105306446Y-76555224D01*
X105306446Y-77979046D01*
G37*
G36*
X107439587Y-77278548D02*
G01*
X107464073Y-77303035D01*
X107493735Y-77362358D01*
X107493735Y-77552863D01*
X107464073Y-77612185D01*
X107439585Y-77636674D01*
X107380264Y-77666335D01*
X107237378Y-77666335D01*
X107178056Y-77636674D01*
X107153568Y-77612185D01*
X107123907Y-77552863D01*
X107123907Y-77362358D01*
X107153568Y-77303034D01*
X107178055Y-77278548D01*
X107237378Y-77248887D01*
X107380264Y-77248887D01*
X107439587Y-77278548D01*
G37*
G36*
X107806446Y-77979046D02*
G01*
X106811196Y-77979046D01*
X106811196Y-77195706D01*
X106922307Y-77195706D01*
X106922307Y-77576658D01*
X106924244Y-77596323D01*
X106925630Y-77599669D01*
X106925887Y-77603282D01*
X106932949Y-77621737D01*
X106980568Y-77716975D01*
X106985892Y-77725434D01*
X106986913Y-77727897D01*
X106989189Y-77730670D01*
X106991095Y-77733698D01*
X106993102Y-77735439D01*
X106999449Y-77743172D01*
X107047068Y-77790792D01*
X107054799Y-77797136D01*
X107056543Y-77799147D01*
X107059575Y-77801055D01*
X107062343Y-77803327D01*
X107064800Y-77804344D01*
X107073266Y-77809674D01*
X107168504Y-77857293D01*
X107186959Y-77864355D01*
X107190571Y-77864611D01*
X107193918Y-77865998D01*
X107213583Y-77867935D01*
X107404059Y-77867935D01*
X107423724Y-77865998D01*
X107427070Y-77864611D01*
X107430683Y-77864355D01*
X107449138Y-77857293D01*
X107544376Y-77809674D01*
X107552841Y-77804344D01*
X107555299Y-77803327D01*
X107558066Y-77801055D01*
X107561099Y-77799147D01*
X107562842Y-77797136D01*
X107570574Y-77790792D01*
X107618193Y-77743172D01*
X107624537Y-77735441D01*
X107626547Y-77733698D01*
X107628455Y-77730666D01*
X107630728Y-77727897D01*
X107631746Y-77725438D01*
X107637074Y-77716975D01*
X107684693Y-77621737D01*
X107691755Y-77603282D01*
X107692011Y-77599669D01*
X107693398Y-77596323D01*
X107695335Y-77576658D01*
X107695335Y-77338563D01*
X107693398Y-77318898D01*
X107692011Y-77315551D01*
X107691755Y-77311939D01*
X107684693Y-77293484D01*
X107637074Y-77198246D01*
X107631747Y-77189784D01*
X107630728Y-77187323D01*
X107628453Y-77184551D01*
X107626547Y-77181523D01*
X107624538Y-77179780D01*
X107618192Y-77172048D01*
X107570573Y-77124430D01*
X107562843Y-77118086D01*
X107561099Y-77116075D01*
X107558066Y-77114166D01*
X107555298Y-77111894D01*
X107552839Y-77110875D01*
X107544376Y-77105548D01*
X107449138Y-77057929D01*
X107430683Y-77050867D01*
X107427070Y-77050610D01*
X107423724Y-77049224D01*
X107404059Y-77047287D01*
X107213583Y-77047287D01*
X107193918Y-77049224D01*
X107190571Y-77050610D01*
X107186959Y-77050867D01*
X107168504Y-77057929D01*
X107160446Y-77061958D01*
X107164281Y-77046618D01*
X107244300Y-76926588D01*
X107273293Y-76897596D01*
X107332616Y-76867935D01*
X107499297Y-76867935D01*
X107518962Y-76865998D01*
X107555298Y-76850947D01*
X107583109Y-76823136D01*
X107598160Y-76786800D01*
X107598160Y-76747470D01*
X107583109Y-76711134D01*
X107555298Y-76683323D01*
X107518962Y-76668272D01*
X107499297Y-76666335D01*
X107308821Y-76666335D01*
X107289156Y-76668272D01*
X107285809Y-76669658D01*
X107282197Y-76669915D01*
X107263742Y-76676977D01*
X107168504Y-76724596D01*
X107160042Y-76729922D01*
X107157581Y-76730942D01*
X107154809Y-76733216D01*
X107151781Y-76735123D01*
X107150038Y-76737131D01*
X107142306Y-76743478D01*
X107094688Y-76791097D01*
X107094644Y-76791149D01*
X107094613Y-76791171D01*
X107087914Y-76799350D01*
X107082152Y-76806372D01*
X107082139Y-76806402D01*
X107082093Y-76806459D01*
X106986855Y-76949316D01*
X106981065Y-76960175D01*
X106979584Y-76962175D01*
X106978739Y-76964538D01*
X106977559Y-76966753D01*
X106977075Y-76969195D01*
X106972936Y-76980783D01*
X106925317Y-77171258D01*
X106924812Y-77174668D01*
X106924244Y-77176041D01*
X106923514Y-77183443D01*
X106922426Y-77190806D01*
X106922644Y-77192276D01*
X106922307Y-77195706D01*
X106811196Y-77195706D01*
X106811196Y-76555224D01*
X107806446Y-76555224D01*
X107806446Y-77979046D01*
G37*
G36*
X92191968Y-76897596D02*
G01*
X92216454Y-76922083D01*
X92251809Y-76992793D01*
X92293735Y-77160494D01*
X92293735Y-77373774D01*
X92251809Y-77541475D01*
X92216454Y-77612185D01*
X92191966Y-77636674D01*
X92132645Y-77666335D01*
X92084997Y-77666335D01*
X92025675Y-77636674D01*
X92001187Y-77612185D01*
X91965832Y-77541476D01*
X91923907Y-77373774D01*
X91923907Y-77160495D01*
X91965832Y-76992793D01*
X92001187Y-76922082D01*
X92025674Y-76897596D01*
X92084997Y-76867935D01*
X92132645Y-76867935D01*
X92191968Y-76897596D01*
G37*
G36*
X92606446Y-77979046D02*
G01*
X91611196Y-77979046D01*
X91611196Y-77148087D01*
X91722307Y-77148087D01*
X91722307Y-77386182D01*
X91722644Y-77389611D01*
X91722426Y-77391082D01*
X91723514Y-77398444D01*
X91724244Y-77405847D01*
X91724812Y-77407219D01*
X91725317Y-77410630D01*
X91772936Y-77601105D01*
X91773454Y-77602556D01*
X91773506Y-77603282D01*
X91776636Y-77611463D01*
X91779584Y-77619713D01*
X91780017Y-77620297D01*
X91780568Y-77621737D01*
X91828187Y-77716975D01*
X91833511Y-77725434D01*
X91834532Y-77727897D01*
X91836808Y-77730670D01*
X91838714Y-77733698D01*
X91840721Y-77735439D01*
X91847068Y-77743172D01*
X91894687Y-77790792D01*
X91902418Y-77797136D01*
X91904162Y-77799147D01*
X91907194Y-77801055D01*
X91909962Y-77803327D01*
X91912419Y-77804344D01*
X91920885Y-77809674D01*
X92016123Y-77857293D01*
X92034578Y-77864355D01*
X92038190Y-77864611D01*
X92041537Y-77865998D01*
X92061202Y-77867935D01*
X92156440Y-77867935D01*
X92176105Y-77865998D01*
X92179451Y-77864611D01*
X92183064Y-77864355D01*
X92201519Y-77857293D01*
X92296757Y-77809674D01*
X92305222Y-77804344D01*
X92307680Y-77803327D01*
X92310447Y-77801055D01*
X92313480Y-77799147D01*
X92315223Y-77797136D01*
X92322955Y-77790792D01*
X92370574Y-77743172D01*
X92376918Y-77735441D01*
X92378928Y-77733698D01*
X92380836Y-77730666D01*
X92383109Y-77727897D01*
X92384127Y-77725438D01*
X92389455Y-77716975D01*
X92437074Y-77621737D01*
X92437623Y-77620299D01*
X92438058Y-77619714D01*
X92441010Y-77611449D01*
X92444136Y-77603282D01*
X92444187Y-77602557D01*
X92444706Y-77601106D01*
X92492325Y-77410630D01*
X92492829Y-77407219D01*
X92493398Y-77405847D01*
X92494127Y-77398444D01*
X92495216Y-77391082D01*
X92494997Y-77389611D01*
X92495335Y-77386182D01*
X92495335Y-77148087D01*
X92494997Y-77144657D01*
X92495216Y-77143187D01*
X92494127Y-77135824D01*
X92493398Y-77128422D01*
X92492829Y-77127049D01*
X92492325Y-77123639D01*
X92444706Y-76933163D01*
X92444187Y-76931711D01*
X92444136Y-76930987D01*
X92441010Y-76922819D01*
X92438058Y-76914555D01*
X92437623Y-76913969D01*
X92437074Y-76912532D01*
X92389455Y-76817294D01*
X92384128Y-76808832D01*
X92383109Y-76806371D01*
X92380834Y-76803599D01*
X92378928Y-76800571D01*
X92376919Y-76798828D01*
X92370573Y-76791096D01*
X92322954Y-76743478D01*
X92315224Y-76737134D01*
X92313480Y-76735123D01*
X92310447Y-76733214D01*
X92307679Y-76730942D01*
X92305220Y-76729923D01*
X92296757Y-76724596D01*
X92201519Y-76676977D01*
X92183064Y-76669915D01*
X92179451Y-76669658D01*
X92176105Y-76668272D01*
X92156440Y-76666335D01*
X92061202Y-76666335D01*
X92041537Y-76668272D01*
X92038190Y-76669658D01*
X92034578Y-76669915D01*
X92016123Y-76676977D01*
X91920885Y-76724596D01*
X91912423Y-76729922D01*
X91909962Y-76730942D01*
X91907190Y-76733216D01*
X91904162Y-76735123D01*
X91902419Y-76737131D01*
X91894687Y-76743478D01*
X91847069Y-76791097D01*
X91840725Y-76798826D01*
X91838714Y-76800571D01*
X91836805Y-76803603D01*
X91834533Y-76806372D01*
X91833514Y-76808830D01*
X91828187Y-76817294D01*
X91780568Y-76912532D01*
X91780017Y-76913971D01*
X91779584Y-76914556D01*
X91776636Y-76922805D01*
X91773506Y-76930987D01*
X91773454Y-76931712D01*
X91772936Y-76933164D01*
X91725317Y-77123639D01*
X91724812Y-77127049D01*
X91724244Y-77128422D01*
X91723514Y-77135824D01*
X91722426Y-77143187D01*
X91722644Y-77144657D01*
X91722307Y-77148087D01*
X91611196Y-77148087D01*
X91611196Y-76555224D01*
X92606446Y-76555224D01*
X92606446Y-77979046D01*
G37*
G36*
X95154509Y-77979046D02*
G01*
X94161988Y-77979046D01*
X94161988Y-77040242D01*
X94273099Y-77040242D01*
X94275887Y-77079473D01*
X94293476Y-77114651D01*
X94323188Y-77140420D01*
X94360500Y-77152857D01*
X94399731Y-77150069D01*
X94418186Y-77143007D01*
X94513424Y-77095388D01*
X94521887Y-77090060D01*
X94524346Y-77089042D01*
X94527114Y-77086769D01*
X94530147Y-77084861D01*
X94531891Y-77082849D01*
X94539621Y-77076506D01*
X94558021Y-77058106D01*
X94558021Y-77666335D01*
X94373107Y-77666335D01*
X94353442Y-77668272D01*
X94317106Y-77683323D01*
X94289295Y-77711134D01*
X94274244Y-77747470D01*
X94274244Y-77786800D01*
X94289295Y-77823136D01*
X94317106Y-77850947D01*
X94353442Y-77865998D01*
X94373107Y-77867935D01*
X94944535Y-77867935D01*
X94964200Y-77865998D01*
X95000536Y-77850947D01*
X95028347Y-77823136D01*
X95043398Y-77786800D01*
X95043398Y-77747470D01*
X95028347Y-77711134D01*
X95000536Y-77683323D01*
X94964200Y-77668272D01*
X94944535Y-77666335D01*
X94759621Y-77666335D01*
X94759621Y-76767135D01*
X94759614Y-76767064D01*
X94759621Y-76767030D01*
X94759600Y-76766928D01*
X94757684Y-76747470D01*
X94753864Y-76738248D01*
X94751907Y-76728463D01*
X94746412Y-76720257D01*
X94742633Y-76711134D01*
X94735577Y-76704078D01*
X94730023Y-76695784D01*
X94721803Y-76690304D01*
X94714822Y-76683323D01*
X94705602Y-76679504D01*
X94697298Y-76673968D01*
X94687610Y-76672051D01*
X94678486Y-76668272D01*
X94668507Y-76668272D01*
X94658716Y-76666335D01*
X94649032Y-76668272D01*
X94639156Y-76668272D01*
X94629934Y-76672091D01*
X94620149Y-76674049D01*
X94611943Y-76679543D01*
X94602820Y-76683323D01*
X94595764Y-76690378D01*
X94587470Y-76695933D01*
X94575076Y-76711066D01*
X94575009Y-76711134D01*
X94574996Y-76711164D01*
X94574950Y-76711221D01*
X94485246Y-76845777D01*
X94408636Y-76922387D01*
X94328028Y-76962691D01*
X94311305Y-76973218D01*
X94285536Y-77002930D01*
X94273099Y-77040242D01*
X94161988Y-77040242D01*
X94161988Y-76555224D01*
X95154509Y-76555224D01*
X95154509Y-77979046D01*
G37*
G36*
X115137206Y-76897596D02*
G01*
X115161692Y-76922083D01*
X115191354Y-76981406D01*
X115191354Y-77076673D01*
X115161692Y-77135995D01*
X115137206Y-77160482D01*
X115077883Y-77190144D01*
X114821526Y-77190144D01*
X114821526Y-76867935D01*
X115077883Y-76867935D01*
X115137206Y-76897596D01*
G37*
G36*
X115504065Y-77979022D02*
G01*
X114508815Y-77979022D01*
X114508815Y-76767135D01*
X114619926Y-76767135D01*
X114619926Y-77767135D01*
X114621863Y-77786800D01*
X114636914Y-77823136D01*
X114664725Y-77850947D01*
X114701061Y-77865998D01*
X114740391Y-77865998D01*
X114776727Y-77850947D01*
X114804538Y-77823136D01*
X114819589Y-77786800D01*
X114821526Y-77767135D01*
X114821526Y-77391744D01*
X114906338Y-77391744D01*
X115209575Y-77824940D01*
X115222439Y-77839940D01*
X115255607Y-77861076D01*
X115294339Y-77867911D01*
X115332738Y-77859404D01*
X115364958Y-77836850D01*
X115386095Y-77803682D01*
X115392930Y-77764950D01*
X115384423Y-77726551D01*
X115374733Y-77709330D01*
X115145350Y-77381640D01*
X115146757Y-77381102D01*
X115241995Y-77333483D01*
X115250458Y-77328155D01*
X115252917Y-77327137D01*
X115255685Y-77324864D01*
X115258718Y-77322956D01*
X115260462Y-77320944D01*
X115268192Y-77314601D01*
X115315811Y-77266983D01*
X115322157Y-77259250D01*
X115324166Y-77257508D01*
X115326072Y-77254479D01*
X115328347Y-77251708D01*
X115329366Y-77249246D01*
X115334693Y-77240785D01*
X115382312Y-77145547D01*
X115389374Y-77127092D01*
X115389630Y-77123479D01*
X115391017Y-77120133D01*
X115392954Y-77100468D01*
X115392954Y-76957611D01*
X115391017Y-76937946D01*
X115389630Y-76934599D01*
X115389374Y-76930987D01*
X115382312Y-76912532D01*
X115334693Y-76817294D01*
X115329366Y-76808832D01*
X115328347Y-76806371D01*
X115326072Y-76803599D01*
X115324166Y-76800571D01*
X115322157Y-76798828D01*
X115315811Y-76791096D01*
X115268192Y-76743478D01*
X115260462Y-76737134D01*
X115258718Y-76735123D01*
X115255685Y-76733214D01*
X115252917Y-76730942D01*
X115250458Y-76729923D01*
X115241995Y-76724596D01*
X115146757Y-76676977D01*
X115128302Y-76669915D01*
X115124689Y-76669658D01*
X115121343Y-76668272D01*
X115101678Y-76666335D01*
X114720726Y-76666335D01*
X114701061Y-76668272D01*
X114664725Y-76683323D01*
X114636914Y-76711134D01*
X114621863Y-76747470D01*
X114619926Y-76767135D01*
X114508815Y-76767135D01*
X114508815Y-76555224D01*
X115504065Y-76555224D01*
X115504065Y-77979022D01*
G37*
G36*
X97756446Y-77979046D02*
G01*
X96715514Y-77979046D01*
X96715514Y-77747470D01*
X96826625Y-77747470D01*
X96826625Y-77786800D01*
X96841676Y-77823137D01*
X96856951Y-77838411D01*
X96869487Y-77850947D01*
X96905823Y-77865998D01*
X96925488Y-77867935D01*
X97544535Y-77867935D01*
X97564200Y-77865998D01*
X97600536Y-77850947D01*
X97628347Y-77823136D01*
X97643398Y-77786800D01*
X97643398Y-77747470D01*
X97628347Y-77711134D01*
X97600536Y-77683323D01*
X97564200Y-77668272D01*
X97544535Y-77666335D01*
X97168840Y-77666335D01*
X97568192Y-77266982D01*
X97580728Y-77251707D01*
X97582113Y-77248361D01*
X97584487Y-77245625D01*
X97592543Y-77227582D01*
X97640162Y-77084725D01*
X97642379Y-77074973D01*
X97643398Y-77072514D01*
X97643749Y-77068947D01*
X97644543Y-77065457D01*
X97644354Y-77062803D01*
X97645335Y-77052849D01*
X97645335Y-76957611D01*
X97643398Y-76937946D01*
X97642011Y-76934599D01*
X97641755Y-76930987D01*
X97634693Y-76912532D01*
X97587074Y-76817294D01*
X97581747Y-76808832D01*
X97580728Y-76806371D01*
X97578453Y-76803599D01*
X97576547Y-76800571D01*
X97574538Y-76798828D01*
X97568192Y-76791096D01*
X97520573Y-76743478D01*
X97512843Y-76737134D01*
X97511099Y-76735123D01*
X97508066Y-76733214D01*
X97505298Y-76730942D01*
X97502839Y-76729923D01*
X97494376Y-76724596D01*
X97399138Y-76676977D01*
X97380683Y-76669915D01*
X97377070Y-76669658D01*
X97373724Y-76668272D01*
X97354059Y-76666335D01*
X97115964Y-76666335D01*
X97096299Y-76668272D01*
X97092952Y-76669658D01*
X97089340Y-76669915D01*
X97070885Y-76676977D01*
X96975647Y-76724596D01*
X96967185Y-76729922D01*
X96964724Y-76730942D01*
X96961952Y-76733216D01*
X96958924Y-76735123D01*
X96957181Y-76737131D01*
X96949449Y-76743478D01*
X96901831Y-76791097D01*
X96889295Y-76806372D01*
X96874244Y-76842708D01*
X96874244Y-76882038D01*
X96889295Y-76918374D01*
X96917106Y-76946185D01*
X96953442Y-76961236D01*
X96992772Y-76961236D01*
X97029108Y-76946185D01*
X97044383Y-76933649D01*
X97080436Y-76897596D01*
X97139759Y-76867935D01*
X97330264Y-76867935D01*
X97389587Y-76897596D01*
X97414073Y-76922083D01*
X97443735Y-76981406D01*
X97443735Y-77036492D01*
X97408813Y-77141256D01*
X96854212Y-77695859D01*
X96841676Y-77711134D01*
X96826625Y-77747470D01*
X96715514Y-77747470D01*
X96715514Y-76555224D01*
X97756446Y-76555224D01*
X97756446Y-77979046D01*
G37*
G36*
X114009271Y-77979046D02*
G01*
X111016750Y-77979046D01*
X111016750Y-76779742D01*
X111127861Y-76779742D01*
X111132242Y-76799011D01*
X111465575Y-77799010D01*
X111473631Y-77817054D01*
X111478349Y-77822494D01*
X111481571Y-77828937D01*
X111491121Y-77837220D01*
X111499400Y-77846765D01*
X111505839Y-77849984D01*
X111511283Y-77854706D01*
X111523275Y-77858703D01*
X111534578Y-77864355D01*
X111541762Y-77864865D01*
X111548595Y-77867143D01*
X111561202Y-77866247D01*
X111573809Y-77867143D01*
X111580641Y-77864865D01*
X111587826Y-77864355D01*
X111599130Y-77858702D01*
X111611121Y-77854706D01*
X111616562Y-77849986D01*
X111623004Y-77846766D01*
X111631284Y-77837217D01*
X111640833Y-77828937D01*
X111644053Y-77822495D01*
X111648773Y-77817054D01*
X111656829Y-77799011D01*
X111857930Y-77195706D01*
X112079450Y-77195706D01*
X112079450Y-77338563D01*
X112079787Y-77341992D01*
X112079569Y-77343463D01*
X112080657Y-77350825D01*
X112081387Y-77358228D01*
X112081955Y-77359600D01*
X112082460Y-77363011D01*
X112130079Y-77553486D01*
X112130597Y-77554937D01*
X112130649Y-77555663D01*
X112133779Y-77563844D01*
X112136727Y-77572094D01*
X112137160Y-77572678D01*
X112137711Y-77574118D01*
X112185330Y-77669356D01*
X112190657Y-77677819D01*
X112191676Y-77680278D01*
X112193948Y-77683047D01*
X112195857Y-77686079D01*
X112197866Y-77687821D01*
X112204211Y-77695553D01*
X112299450Y-77790792D01*
X112314724Y-77803328D01*
X112318071Y-77804714D01*
X112320807Y-77807087D01*
X112338850Y-77815143D01*
X112481707Y-77862762D01*
X112491458Y-77864979D01*
X112493918Y-77865998D01*
X112497484Y-77866349D01*
X112500975Y-77867143D01*
X112503628Y-77866954D01*
X112513583Y-77867935D01*
X112608821Y-77867935D01*
X112618775Y-77866954D01*
X112621428Y-77867143D01*
X112624918Y-77866349D01*
X112628486Y-77865998D01*
X112630946Y-77864978D01*
X112640697Y-77862762D01*
X112783553Y-77815143D01*
X112801597Y-77807087D01*
X112804334Y-77804712D01*
X112807680Y-77803327D01*
X112822955Y-77790792D01*
X112870574Y-77743172D01*
X112883109Y-77727897D01*
X112898160Y-77691560D01*
X112898159Y-77652230D01*
X112883108Y-77615894D01*
X112855297Y-77588084D01*
X112818961Y-77573033D01*
X112779631Y-77573034D01*
X112743295Y-77588085D01*
X112728020Y-77600620D01*
X112697226Y-77631414D01*
X112592464Y-77666335D01*
X112529939Y-77666335D01*
X112425177Y-77631414D01*
X112358330Y-77564566D01*
X112322975Y-77493857D01*
X112281050Y-77326155D01*
X112281050Y-77208114D01*
X112284152Y-77195706D01*
X113079450Y-77195706D01*
X113079450Y-77338563D01*
X113079787Y-77341992D01*
X113079569Y-77343463D01*
X113080657Y-77350825D01*
X113081387Y-77358228D01*
X113081955Y-77359600D01*
X113082460Y-77363011D01*
X113130079Y-77553486D01*
X113130597Y-77554937D01*
X113130649Y-77555663D01*
X113133779Y-77563844D01*
X113136727Y-77572094D01*
X113137160Y-77572678D01*
X113137711Y-77574118D01*
X113185330Y-77669356D01*
X113190657Y-77677819D01*
X113191676Y-77680278D01*
X113193948Y-77683047D01*
X113195857Y-77686079D01*
X113197866Y-77687821D01*
X113204211Y-77695553D01*
X113299450Y-77790792D01*
X113314724Y-77803328D01*
X113318071Y-77804714D01*
X113320807Y-77807087D01*
X113338850Y-77815143D01*
X113481707Y-77862762D01*
X113491458Y-77864979D01*
X113493918Y-77865998D01*
X113497484Y-77866349D01*
X113500975Y-77867143D01*
X113503628Y-77866954D01*
X113513583Y-77867935D01*
X113608821Y-77867935D01*
X113618775Y-77866954D01*
X113621428Y-77867143D01*
X113624918Y-77866349D01*
X113628486Y-77865998D01*
X113630946Y-77864978D01*
X113640697Y-77862762D01*
X113783553Y-77815143D01*
X113801597Y-77807087D01*
X113804334Y-77804712D01*
X113807680Y-77803327D01*
X113822955Y-77790792D01*
X113870574Y-77743172D01*
X113883109Y-77727897D01*
X113898160Y-77691560D01*
X113898159Y-77652230D01*
X113883108Y-77615894D01*
X113855297Y-77588084D01*
X113818961Y-77573033D01*
X113779631Y-77573034D01*
X113743295Y-77588085D01*
X113728020Y-77600620D01*
X113697226Y-77631414D01*
X113592464Y-77666335D01*
X113529939Y-77666335D01*
X113425177Y-77631414D01*
X113358330Y-77564566D01*
X113322975Y-77493857D01*
X113281050Y-77326155D01*
X113281050Y-77208114D01*
X113322975Y-77040412D01*
X113358331Y-76969701D01*
X113425175Y-76902856D01*
X113529939Y-76867935D01*
X113592464Y-76867935D01*
X113697227Y-76902856D01*
X113728020Y-76933649D01*
X113743295Y-76946185D01*
X113779631Y-76961235D01*
X113818962Y-76961235D01*
X113855298Y-76946185D01*
X113883109Y-76918374D01*
X113898159Y-76882038D01*
X113898159Y-76842707D01*
X113883109Y-76806371D01*
X113870573Y-76791096D01*
X113822954Y-76743478D01*
X113807679Y-76730942D01*
X113804333Y-76729556D01*
X113801597Y-76727183D01*
X113783553Y-76719127D01*
X113640697Y-76671508D01*
X113630946Y-76669291D01*
X113628486Y-76668272D01*
X113624918Y-76667920D01*
X113621428Y-76667127D01*
X113618775Y-76667315D01*
X113608821Y-76666335D01*
X113513583Y-76666335D01*
X113503628Y-76667315D01*
X113500975Y-76667127D01*
X113497484Y-76667920D01*
X113493918Y-76668272D01*
X113491458Y-76669290D01*
X113481707Y-76671508D01*
X113338850Y-76719127D01*
X113320807Y-76727183D01*
X113318070Y-76729556D01*
X113314725Y-76730942D01*
X113299450Y-76743478D01*
X113204212Y-76838716D01*
X113197868Y-76846445D01*
X113195857Y-76848190D01*
X113193948Y-76851222D01*
X113191676Y-76853991D01*
X113190657Y-76856449D01*
X113185330Y-76864913D01*
X113137711Y-76960151D01*
X113137160Y-76961590D01*
X113136727Y-76962175D01*
X113133779Y-76970424D01*
X113130649Y-76978606D01*
X113130597Y-76979331D01*
X113130079Y-76980783D01*
X113082460Y-77171258D01*
X113081955Y-77174668D01*
X113081387Y-77176041D01*
X113080657Y-77183443D01*
X113079569Y-77190806D01*
X113079787Y-77192276D01*
X113079450Y-77195706D01*
X112284152Y-77195706D01*
X112322975Y-77040412D01*
X112358331Y-76969701D01*
X112425175Y-76902856D01*
X112529939Y-76867935D01*
X112592464Y-76867935D01*
X112697227Y-76902856D01*
X112728020Y-76933649D01*
X112743295Y-76946185D01*
X112779631Y-76961235D01*
X112818962Y-76961235D01*
X112855298Y-76946185D01*
X112883109Y-76918374D01*
X112898159Y-76882038D01*
X112898159Y-76842707D01*
X112883109Y-76806371D01*
X112870573Y-76791096D01*
X112822954Y-76743478D01*
X112807679Y-76730942D01*
X112804333Y-76729556D01*
X112801597Y-76727183D01*
X112783553Y-76719127D01*
X112640697Y-76671508D01*
X112630946Y-76669291D01*
X112628486Y-76668272D01*
X112624918Y-76667920D01*
X112621428Y-76667127D01*
X112618775Y-76667315D01*
X112608821Y-76666335D01*
X112513583Y-76666335D01*
X112503628Y-76667315D01*
X112500975Y-76667127D01*
X112497484Y-76667920D01*
X112493918Y-76668272D01*
X112491458Y-76669290D01*
X112481707Y-76671508D01*
X112338850Y-76719127D01*
X112320807Y-76727183D01*
X112318070Y-76729556D01*
X112314725Y-76730942D01*
X112299450Y-76743478D01*
X112204212Y-76838716D01*
X112197868Y-76846445D01*
X112195857Y-76848190D01*
X112193948Y-76851222D01*
X112191676Y-76853991D01*
X112190657Y-76856449D01*
X112185330Y-76864913D01*
X112137711Y-76960151D01*
X112137160Y-76961590D01*
X112136727Y-76962175D01*
X112133779Y-76970424D01*
X112130649Y-76978606D01*
X112130597Y-76979331D01*
X112130079Y-76980783D01*
X112082460Y-77171258D01*
X112081955Y-77174668D01*
X112081387Y-77176041D01*
X112080657Y-77183443D01*
X112079569Y-77190806D01*
X112079787Y-77192276D01*
X112079450Y-77195706D01*
X111857930Y-77195706D01*
X111990162Y-76799011D01*
X111994543Y-76779743D01*
X111991755Y-76740512D01*
X111974166Y-76705333D01*
X111944454Y-76679564D01*
X111907142Y-76667127D01*
X111867911Y-76669915D01*
X111832733Y-76687505D01*
X111806964Y-76717216D01*
X111798908Y-76735260D01*
X111561202Y-77448377D01*
X111323496Y-76735259D01*
X111315440Y-76717216D01*
X111289671Y-76687504D01*
X111254493Y-76669915D01*
X111215262Y-76667127D01*
X111177950Y-76679564D01*
X111148238Y-76705333D01*
X111130649Y-76740511D01*
X111127861Y-76779742D01*
X111016750Y-76779742D01*
X111016750Y-76555224D01*
X114009271Y-76555224D01*
X114009271Y-77979046D01*
G37*
D16*
X99616666Y-56628059D02*
X99450000Y-56389964D01*
X99330952Y-56628059D02*
X99330952Y-56128059D01*
X99330952Y-56128059D02*
X99521428Y-56128059D01*
X99521428Y-56128059D02*
X99569047Y-56151869D01*
X99569047Y-56151869D02*
X99592857Y-56175678D01*
X99592857Y-56175678D02*
X99616666Y-56223297D01*
X99616666Y-56223297D02*
X99616666Y-56294726D01*
X99616666Y-56294726D02*
X99592857Y-56342345D01*
X99592857Y-56342345D02*
X99569047Y-56366154D01*
X99569047Y-56366154D02*
X99521428Y-56389964D01*
X99521428Y-56389964D02*
X99330952Y-56389964D01*
X100045238Y-56294726D02*
X100045238Y-56628059D01*
X99926190Y-56104250D02*
X99807143Y-56461392D01*
X99807143Y-56461392D02*
X100116666Y-56461392D01*
D17*
X103123988Y-55464978D02*
X103123988Y-54880778D01*
X103123988Y-54880778D02*
X103346540Y-54880778D01*
X103346540Y-54880778D02*
X103402178Y-54908597D01*
X103402178Y-54908597D02*
X103429997Y-54936416D01*
X103429997Y-54936416D02*
X103457816Y-54992054D01*
X103457816Y-54992054D02*
X103457816Y-55075511D01*
X103457816Y-55075511D02*
X103429997Y-55131149D01*
X103429997Y-55131149D02*
X103402178Y-55158968D01*
X103402178Y-55158968D02*
X103346540Y-55186787D01*
X103346540Y-55186787D02*
X103123988Y-55186787D01*
X104014197Y-55464978D02*
X103680369Y-55464978D01*
X103847283Y-55464978D02*
X103847283Y-54880778D01*
X103847283Y-54880778D02*
X103791645Y-54964235D01*
X103791645Y-54964235D02*
X103736007Y-55019873D01*
X103736007Y-55019873D02*
X103680369Y-55047692D01*
D16*
X115378059Y-65683333D02*
X115139964Y-65849999D01*
X115378059Y-65969047D02*
X114878059Y-65969047D01*
X114878059Y-65969047D02*
X114878059Y-65778571D01*
X114878059Y-65778571D02*
X114901869Y-65730952D01*
X114901869Y-65730952D02*
X114925678Y-65707142D01*
X114925678Y-65707142D02*
X114973297Y-65683333D01*
X114973297Y-65683333D02*
X115044726Y-65683333D01*
X115044726Y-65683333D02*
X115092345Y-65707142D01*
X115092345Y-65707142D02*
X115116154Y-65730952D01*
X115116154Y-65730952D02*
X115139964Y-65778571D01*
X115139964Y-65778571D02*
X115139964Y-65969047D01*
X115092345Y-65397618D02*
X115068535Y-65445237D01*
X115068535Y-65445237D02*
X115044726Y-65469047D01*
X115044726Y-65469047D02*
X114997107Y-65492856D01*
X114997107Y-65492856D02*
X114973297Y-65492856D01*
X114973297Y-65492856D02*
X114925678Y-65469047D01*
X114925678Y-65469047D02*
X114901869Y-65445237D01*
X114901869Y-65445237D02*
X114878059Y-65397618D01*
X114878059Y-65397618D02*
X114878059Y-65302380D01*
X114878059Y-65302380D02*
X114901869Y-65254761D01*
X114901869Y-65254761D02*
X114925678Y-65230952D01*
X114925678Y-65230952D02*
X114973297Y-65207142D01*
X114973297Y-65207142D02*
X114997107Y-65207142D01*
X114997107Y-65207142D02*
X115044726Y-65230952D01*
X115044726Y-65230952D02*
X115068535Y-65254761D01*
X115068535Y-65254761D02*
X115092345Y-65302380D01*
X115092345Y-65302380D02*
X115092345Y-65397618D01*
X115092345Y-65397618D02*
X115116154Y-65445237D01*
X115116154Y-65445237D02*
X115139964Y-65469047D01*
X115139964Y-65469047D02*
X115187583Y-65492856D01*
X115187583Y-65492856D02*
X115282821Y-65492856D01*
X115282821Y-65492856D02*
X115330440Y-65469047D01*
X115330440Y-65469047D02*
X115354250Y-65445237D01*
X115354250Y-65445237D02*
X115378059Y-65397618D01*
X115378059Y-65397618D02*
X115378059Y-65302380D01*
X115378059Y-65302380D02*
X115354250Y-65254761D01*
X115354250Y-65254761D02*
X115330440Y-65230952D01*
X115330440Y-65230952D02*
X115282821Y-65207142D01*
X115282821Y-65207142D02*
X115187583Y-65207142D01*
X115187583Y-65207142D02*
X115139964Y-65230952D01*
X115139964Y-65230952D02*
X115116154Y-65254761D01*
X115116154Y-65254761D02*
X115092345Y-65302380D01*
X92780440Y-54521428D02*
X92804250Y-54545237D01*
X92804250Y-54545237D02*
X92828059Y-54616666D01*
X92828059Y-54616666D02*
X92828059Y-54664285D01*
X92828059Y-54664285D02*
X92804250Y-54735713D01*
X92804250Y-54735713D02*
X92756630Y-54783332D01*
X92756630Y-54783332D02*
X92709011Y-54807142D01*
X92709011Y-54807142D02*
X92613773Y-54830951D01*
X92613773Y-54830951D02*
X92542345Y-54830951D01*
X92542345Y-54830951D02*
X92447107Y-54807142D01*
X92447107Y-54807142D02*
X92399488Y-54783332D01*
X92399488Y-54783332D02*
X92351869Y-54735713D01*
X92351869Y-54735713D02*
X92328059Y-54664285D01*
X92328059Y-54664285D02*
X92328059Y-54616666D01*
X92328059Y-54616666D02*
X92351869Y-54545237D01*
X92351869Y-54545237D02*
X92375678Y-54521428D01*
X92828059Y-54045237D02*
X92828059Y-54330951D01*
X92828059Y-54188094D02*
X92328059Y-54188094D01*
X92328059Y-54188094D02*
X92399488Y-54235713D01*
X92399488Y-54235713D02*
X92447107Y-54283332D01*
X92447107Y-54283332D02*
X92470916Y-54330951D01*
X92828059Y-53807142D02*
X92828059Y-53711904D01*
X92828059Y-53711904D02*
X92804250Y-53664285D01*
X92804250Y-53664285D02*
X92780440Y-53640476D01*
X92780440Y-53640476D02*
X92709011Y-53592857D01*
X92709011Y-53592857D02*
X92613773Y-53569047D01*
X92613773Y-53569047D02*
X92423297Y-53569047D01*
X92423297Y-53569047D02*
X92375678Y-53592857D01*
X92375678Y-53592857D02*
X92351869Y-53616666D01*
X92351869Y-53616666D02*
X92328059Y-53664285D01*
X92328059Y-53664285D02*
X92328059Y-53759523D01*
X92328059Y-53759523D02*
X92351869Y-53807142D01*
X92351869Y-53807142D02*
X92375678Y-53830952D01*
X92375678Y-53830952D02*
X92423297Y-53854761D01*
X92423297Y-53854761D02*
X92542345Y-53854761D01*
X92542345Y-53854761D02*
X92589964Y-53830952D01*
X92589964Y-53830952D02*
X92613773Y-53807142D01*
X92613773Y-53807142D02*
X92637583Y-53759523D01*
X92637583Y-53759523D02*
X92637583Y-53664285D01*
X92637583Y-53664285D02*
X92613773Y-53616666D01*
X92613773Y-53616666D02*
X92589964Y-53592857D01*
X92589964Y-53592857D02*
X92542345Y-53569047D01*
D18*
X94927669Y-69383333D02*
X94689574Y-69549999D01*
X94927669Y-69669047D02*
X94427669Y-69669047D01*
X94427669Y-69669047D02*
X94427669Y-69478571D01*
X94427669Y-69478571D02*
X94451479Y-69430952D01*
X94451479Y-69430952D02*
X94475288Y-69407142D01*
X94475288Y-69407142D02*
X94522907Y-69383333D01*
X94522907Y-69383333D02*
X94594336Y-69383333D01*
X94594336Y-69383333D02*
X94641955Y-69407142D01*
X94641955Y-69407142D02*
X94665764Y-69430952D01*
X94665764Y-69430952D02*
X94689574Y-69478571D01*
X94689574Y-69478571D02*
X94689574Y-69669047D01*
X94427669Y-68930952D02*
X94427669Y-69169047D01*
X94427669Y-69169047D02*
X94665764Y-69192856D01*
X94665764Y-69192856D02*
X94641955Y-69169047D01*
X94641955Y-69169047D02*
X94618145Y-69121428D01*
X94618145Y-69121428D02*
X94618145Y-69002380D01*
X94618145Y-69002380D02*
X94641955Y-68954761D01*
X94641955Y-68954761D02*
X94665764Y-68930952D01*
X94665764Y-68930952D02*
X94713383Y-68907142D01*
X94713383Y-68907142D02*
X94832431Y-68907142D01*
X94832431Y-68907142D02*
X94880050Y-68930952D01*
X94880050Y-68930952D02*
X94903860Y-68954761D01*
X94903860Y-68954761D02*
X94927669Y-69002380D01*
X94927669Y-69002380D02*
X94927669Y-69121428D01*
X94927669Y-69121428D02*
X94903860Y-69169047D01*
X94903860Y-69169047D02*
X94880050Y-69192856D01*
D16*
X115639964Y-61788094D02*
X115878059Y-61788094D01*
X115378059Y-61954760D02*
X115639964Y-61788094D01*
X115639964Y-61788094D02*
X115378059Y-61621427D01*
X115878059Y-61192856D02*
X115878059Y-61478570D01*
X115878059Y-61335713D02*
X115378059Y-61335713D01*
X115378059Y-61335713D02*
X115449488Y-61383332D01*
X115449488Y-61383332D02*
X115497107Y-61430951D01*
X115497107Y-61430951D02*
X115520916Y-61478570D01*
X99830440Y-61433333D02*
X99854250Y-61457142D01*
X99854250Y-61457142D02*
X99878059Y-61528571D01*
X99878059Y-61528571D02*
X99878059Y-61576190D01*
X99878059Y-61576190D02*
X99854250Y-61647618D01*
X99854250Y-61647618D02*
X99806630Y-61695237D01*
X99806630Y-61695237D02*
X99759011Y-61719047D01*
X99759011Y-61719047D02*
X99663773Y-61742856D01*
X99663773Y-61742856D02*
X99592345Y-61742856D01*
X99592345Y-61742856D02*
X99497107Y-61719047D01*
X99497107Y-61719047D02*
X99449488Y-61695237D01*
X99449488Y-61695237D02*
X99401869Y-61647618D01*
X99401869Y-61647618D02*
X99378059Y-61576190D01*
X99378059Y-61576190D02*
X99378059Y-61528571D01*
X99378059Y-61528571D02*
X99401869Y-61457142D01*
X99401869Y-61457142D02*
X99425678Y-61433333D01*
X99878059Y-60957142D02*
X99878059Y-61242856D01*
X99878059Y-61099999D02*
X99378059Y-61099999D01*
X99378059Y-61099999D02*
X99449488Y-61147618D01*
X99449488Y-61147618D02*
X99497107Y-61195237D01*
X99497107Y-61195237D02*
X99520916Y-61242856D01*
X106916666Y-58730440D02*
X106892857Y-58754250D01*
X106892857Y-58754250D02*
X106821428Y-58778059D01*
X106821428Y-58778059D02*
X106773809Y-58778059D01*
X106773809Y-58778059D02*
X106702381Y-58754250D01*
X106702381Y-58754250D02*
X106654762Y-58706630D01*
X106654762Y-58706630D02*
X106630952Y-58659011D01*
X106630952Y-58659011D02*
X106607143Y-58563773D01*
X106607143Y-58563773D02*
X106607143Y-58492345D01*
X106607143Y-58492345D02*
X106630952Y-58397107D01*
X106630952Y-58397107D02*
X106654762Y-58349488D01*
X106654762Y-58349488D02*
X106702381Y-58301869D01*
X106702381Y-58301869D02*
X106773809Y-58278059D01*
X106773809Y-58278059D02*
X106821428Y-58278059D01*
X106821428Y-58278059D02*
X106892857Y-58301869D01*
X106892857Y-58301869D02*
X106916666Y-58325678D01*
X107154762Y-58778059D02*
X107250000Y-58778059D01*
X107250000Y-58778059D02*
X107297619Y-58754250D01*
X107297619Y-58754250D02*
X107321428Y-58730440D01*
X107321428Y-58730440D02*
X107369047Y-58659011D01*
X107369047Y-58659011D02*
X107392857Y-58563773D01*
X107392857Y-58563773D02*
X107392857Y-58373297D01*
X107392857Y-58373297D02*
X107369047Y-58325678D01*
X107369047Y-58325678D02*
X107345238Y-58301869D01*
X107345238Y-58301869D02*
X107297619Y-58278059D01*
X107297619Y-58278059D02*
X107202381Y-58278059D01*
X107202381Y-58278059D02*
X107154762Y-58301869D01*
X107154762Y-58301869D02*
X107130952Y-58325678D01*
X107130952Y-58325678D02*
X107107143Y-58373297D01*
X107107143Y-58373297D02*
X107107143Y-58492345D01*
X107107143Y-58492345D02*
X107130952Y-58539964D01*
X107130952Y-58539964D02*
X107154762Y-58563773D01*
X107154762Y-58563773D02*
X107202381Y-58587583D01*
X107202381Y-58587583D02*
X107297619Y-58587583D01*
X107297619Y-58587583D02*
X107345238Y-58563773D01*
X107345238Y-58563773D02*
X107369047Y-58539964D01*
X107369047Y-58539964D02*
X107392857Y-58492345D01*
X110716666Y-55480440D02*
X110692857Y-55504250D01*
X110692857Y-55504250D02*
X110621428Y-55528059D01*
X110621428Y-55528059D02*
X110573809Y-55528059D01*
X110573809Y-55528059D02*
X110502381Y-55504250D01*
X110502381Y-55504250D02*
X110454762Y-55456630D01*
X110454762Y-55456630D02*
X110430952Y-55409011D01*
X110430952Y-55409011D02*
X110407143Y-55313773D01*
X110407143Y-55313773D02*
X110407143Y-55242345D01*
X110407143Y-55242345D02*
X110430952Y-55147107D01*
X110430952Y-55147107D02*
X110454762Y-55099488D01*
X110454762Y-55099488D02*
X110502381Y-55051869D01*
X110502381Y-55051869D02*
X110573809Y-55028059D01*
X110573809Y-55028059D02*
X110621428Y-55028059D01*
X110621428Y-55028059D02*
X110692857Y-55051869D01*
X110692857Y-55051869D02*
X110716666Y-55075678D01*
X110907143Y-55075678D02*
X110930952Y-55051869D01*
X110930952Y-55051869D02*
X110978571Y-55028059D01*
X110978571Y-55028059D02*
X111097619Y-55028059D01*
X111097619Y-55028059D02*
X111145238Y-55051869D01*
X111145238Y-55051869D02*
X111169047Y-55075678D01*
X111169047Y-55075678D02*
X111192857Y-55123297D01*
X111192857Y-55123297D02*
X111192857Y-55170916D01*
X111192857Y-55170916D02*
X111169047Y-55242345D01*
X111169047Y-55242345D02*
X110883333Y-55528059D01*
X110883333Y-55528059D02*
X111192857Y-55528059D01*
X106628571Y-61880440D02*
X106604762Y-61904250D01*
X106604762Y-61904250D02*
X106533333Y-61928059D01*
X106533333Y-61928059D02*
X106485714Y-61928059D01*
X106485714Y-61928059D02*
X106414286Y-61904250D01*
X106414286Y-61904250D02*
X106366667Y-61856630D01*
X106366667Y-61856630D02*
X106342857Y-61809011D01*
X106342857Y-61809011D02*
X106319048Y-61713773D01*
X106319048Y-61713773D02*
X106319048Y-61642345D01*
X106319048Y-61642345D02*
X106342857Y-61547107D01*
X106342857Y-61547107D02*
X106366667Y-61499488D01*
X106366667Y-61499488D02*
X106414286Y-61451869D01*
X106414286Y-61451869D02*
X106485714Y-61428059D01*
X106485714Y-61428059D02*
X106533333Y-61428059D01*
X106533333Y-61428059D02*
X106604762Y-61451869D01*
X106604762Y-61451869D02*
X106628571Y-61475678D01*
X107104762Y-61928059D02*
X106819048Y-61928059D01*
X106961905Y-61928059D02*
X106961905Y-61428059D01*
X106961905Y-61428059D02*
X106914286Y-61499488D01*
X106914286Y-61499488D02*
X106866667Y-61547107D01*
X106866667Y-61547107D02*
X106819048Y-61570916D01*
X107414285Y-61428059D02*
X107461904Y-61428059D01*
X107461904Y-61428059D02*
X107509523Y-61451869D01*
X107509523Y-61451869D02*
X107533333Y-61475678D01*
X107533333Y-61475678D02*
X107557142Y-61523297D01*
X107557142Y-61523297D02*
X107580952Y-61618535D01*
X107580952Y-61618535D02*
X107580952Y-61737583D01*
X107580952Y-61737583D02*
X107557142Y-61832821D01*
X107557142Y-61832821D02*
X107533333Y-61880440D01*
X107533333Y-61880440D02*
X107509523Y-61904250D01*
X107509523Y-61904250D02*
X107461904Y-61928059D01*
X107461904Y-61928059D02*
X107414285Y-61928059D01*
X107414285Y-61928059D02*
X107366666Y-61904250D01*
X107366666Y-61904250D02*
X107342857Y-61880440D01*
X107342857Y-61880440D02*
X107319047Y-61832821D01*
X107319047Y-61832821D02*
X107295238Y-61737583D01*
X107295238Y-61737583D02*
X107295238Y-61618535D01*
X107295238Y-61618535D02*
X107319047Y-61523297D01*
X107319047Y-61523297D02*
X107342857Y-61475678D01*
X107342857Y-61475678D02*
X107366666Y-61451869D01*
X107366666Y-61451869D02*
X107414285Y-61428059D01*
D18*
X93780050Y-69871428D02*
X93803860Y-69895237D01*
X93803860Y-69895237D02*
X93827669Y-69966666D01*
X93827669Y-69966666D02*
X93827669Y-70014285D01*
X93827669Y-70014285D02*
X93803860Y-70085713D01*
X93803860Y-70085713D02*
X93756240Y-70133332D01*
X93756240Y-70133332D02*
X93708621Y-70157142D01*
X93708621Y-70157142D02*
X93613383Y-70180951D01*
X93613383Y-70180951D02*
X93541955Y-70180951D01*
X93541955Y-70180951D02*
X93446717Y-70157142D01*
X93446717Y-70157142D02*
X93399098Y-70133332D01*
X93399098Y-70133332D02*
X93351479Y-70085713D01*
X93351479Y-70085713D02*
X93327669Y-70014285D01*
X93327669Y-70014285D02*
X93327669Y-69966666D01*
X93327669Y-69966666D02*
X93351479Y-69895237D01*
X93351479Y-69895237D02*
X93375288Y-69871428D01*
X93827669Y-69395237D02*
X93827669Y-69680951D01*
X93827669Y-69538094D02*
X93327669Y-69538094D01*
X93327669Y-69538094D02*
X93399098Y-69585713D01*
X93399098Y-69585713D02*
X93446717Y-69633332D01*
X93446717Y-69633332D02*
X93470526Y-69680951D01*
X93327669Y-69228571D02*
X93327669Y-68895238D01*
X93327669Y-68895238D02*
X93827669Y-69109523D01*
D16*
X103746666Y-61390440D02*
X103722857Y-61414250D01*
X103722857Y-61414250D02*
X103651428Y-61438059D01*
X103651428Y-61438059D02*
X103603809Y-61438059D01*
X103603809Y-61438059D02*
X103532381Y-61414250D01*
X103532381Y-61414250D02*
X103484762Y-61366630D01*
X103484762Y-61366630D02*
X103460952Y-61319011D01*
X103460952Y-61319011D02*
X103437143Y-61223773D01*
X103437143Y-61223773D02*
X103437143Y-61152345D01*
X103437143Y-61152345D02*
X103460952Y-61057107D01*
X103460952Y-61057107D02*
X103484762Y-61009488D01*
X103484762Y-61009488D02*
X103532381Y-60961869D01*
X103532381Y-60961869D02*
X103603809Y-60938059D01*
X103603809Y-60938059D02*
X103651428Y-60938059D01*
X103651428Y-60938059D02*
X103722857Y-60961869D01*
X103722857Y-60961869D02*
X103746666Y-60985678D01*
X104032381Y-61152345D02*
X103984762Y-61128535D01*
X103984762Y-61128535D02*
X103960952Y-61104726D01*
X103960952Y-61104726D02*
X103937143Y-61057107D01*
X103937143Y-61057107D02*
X103937143Y-61033297D01*
X103937143Y-61033297D02*
X103960952Y-60985678D01*
X103960952Y-60985678D02*
X103984762Y-60961869D01*
X103984762Y-60961869D02*
X104032381Y-60938059D01*
X104032381Y-60938059D02*
X104127619Y-60938059D01*
X104127619Y-60938059D02*
X104175238Y-60961869D01*
X104175238Y-60961869D02*
X104199047Y-60985678D01*
X104199047Y-60985678D02*
X104222857Y-61033297D01*
X104222857Y-61033297D02*
X104222857Y-61057107D01*
X104222857Y-61057107D02*
X104199047Y-61104726D01*
X104199047Y-61104726D02*
X104175238Y-61128535D01*
X104175238Y-61128535D02*
X104127619Y-61152345D01*
X104127619Y-61152345D02*
X104032381Y-61152345D01*
X104032381Y-61152345D02*
X103984762Y-61176154D01*
X103984762Y-61176154D02*
X103960952Y-61199964D01*
X103960952Y-61199964D02*
X103937143Y-61247583D01*
X103937143Y-61247583D02*
X103937143Y-61342821D01*
X103937143Y-61342821D02*
X103960952Y-61390440D01*
X103960952Y-61390440D02*
X103984762Y-61414250D01*
X103984762Y-61414250D02*
X104032381Y-61438059D01*
X104032381Y-61438059D02*
X104127619Y-61438059D01*
X104127619Y-61438059D02*
X104175238Y-61414250D01*
X104175238Y-61414250D02*
X104199047Y-61390440D01*
X104199047Y-61390440D02*
X104222857Y-61342821D01*
X104222857Y-61342821D02*
X104222857Y-61247583D01*
X104222857Y-61247583D02*
X104199047Y-61199964D01*
X104199047Y-61199964D02*
X104175238Y-61176154D01*
X104175238Y-61176154D02*
X104127619Y-61152345D01*
X98180440Y-61333333D02*
X98204250Y-61357142D01*
X98204250Y-61357142D02*
X98228059Y-61428571D01*
X98228059Y-61428571D02*
X98228059Y-61476190D01*
X98228059Y-61476190D02*
X98204250Y-61547618D01*
X98204250Y-61547618D02*
X98156630Y-61595237D01*
X98156630Y-61595237D02*
X98109011Y-61619047D01*
X98109011Y-61619047D02*
X98013773Y-61642856D01*
X98013773Y-61642856D02*
X97942345Y-61642856D01*
X97942345Y-61642856D02*
X97847107Y-61619047D01*
X97847107Y-61619047D02*
X97799488Y-61595237D01*
X97799488Y-61595237D02*
X97751869Y-61547618D01*
X97751869Y-61547618D02*
X97728059Y-61476190D01*
X97728059Y-61476190D02*
X97728059Y-61428571D01*
X97728059Y-61428571D02*
X97751869Y-61357142D01*
X97751869Y-61357142D02*
X97775678Y-61333333D01*
X97728059Y-61166666D02*
X97728059Y-60857142D01*
X97728059Y-60857142D02*
X97918535Y-61023809D01*
X97918535Y-61023809D02*
X97918535Y-60952380D01*
X97918535Y-60952380D02*
X97942345Y-60904761D01*
X97942345Y-60904761D02*
X97966154Y-60880952D01*
X97966154Y-60880952D02*
X98013773Y-60857142D01*
X98013773Y-60857142D02*
X98132821Y-60857142D01*
X98132821Y-60857142D02*
X98180440Y-60880952D01*
X98180440Y-60880952D02*
X98204250Y-60904761D01*
X98204250Y-60904761D02*
X98228059Y-60952380D01*
X98228059Y-60952380D02*
X98228059Y-61095237D01*
X98228059Y-61095237D02*
X98204250Y-61142856D01*
X98204250Y-61142856D02*
X98180440Y-61166666D01*
X101296666Y-61885440D02*
X101272857Y-61909250D01*
X101272857Y-61909250D02*
X101201428Y-61933059D01*
X101201428Y-61933059D02*
X101153809Y-61933059D01*
X101153809Y-61933059D02*
X101082381Y-61909250D01*
X101082381Y-61909250D02*
X101034762Y-61861630D01*
X101034762Y-61861630D02*
X101010952Y-61814011D01*
X101010952Y-61814011D02*
X100987143Y-61718773D01*
X100987143Y-61718773D02*
X100987143Y-61647345D01*
X100987143Y-61647345D02*
X101010952Y-61552107D01*
X101010952Y-61552107D02*
X101034762Y-61504488D01*
X101034762Y-61504488D02*
X101082381Y-61456869D01*
X101082381Y-61456869D02*
X101153809Y-61433059D01*
X101153809Y-61433059D02*
X101201428Y-61433059D01*
X101201428Y-61433059D02*
X101272857Y-61456869D01*
X101272857Y-61456869D02*
X101296666Y-61480678D01*
X101749047Y-61433059D02*
X101510952Y-61433059D01*
X101510952Y-61433059D02*
X101487143Y-61671154D01*
X101487143Y-61671154D02*
X101510952Y-61647345D01*
X101510952Y-61647345D02*
X101558571Y-61623535D01*
X101558571Y-61623535D02*
X101677619Y-61623535D01*
X101677619Y-61623535D02*
X101725238Y-61647345D01*
X101725238Y-61647345D02*
X101749047Y-61671154D01*
X101749047Y-61671154D02*
X101772857Y-61718773D01*
X101772857Y-61718773D02*
X101772857Y-61837821D01*
X101772857Y-61837821D02*
X101749047Y-61885440D01*
X101749047Y-61885440D02*
X101725238Y-61909250D01*
X101725238Y-61909250D02*
X101677619Y-61933059D01*
X101677619Y-61933059D02*
X101558571Y-61933059D01*
X101558571Y-61933059D02*
X101510952Y-61909250D01*
X101510952Y-61909250D02*
X101487143Y-61885440D01*
X100466666Y-64978059D02*
X100300000Y-64739964D01*
X100180952Y-64978059D02*
X100180952Y-64478059D01*
X100180952Y-64478059D02*
X100371428Y-64478059D01*
X100371428Y-64478059D02*
X100419047Y-64501869D01*
X100419047Y-64501869D02*
X100442857Y-64525678D01*
X100442857Y-64525678D02*
X100466666Y-64573297D01*
X100466666Y-64573297D02*
X100466666Y-64644726D01*
X100466666Y-64644726D02*
X100442857Y-64692345D01*
X100442857Y-64692345D02*
X100419047Y-64716154D01*
X100419047Y-64716154D02*
X100371428Y-64739964D01*
X100371428Y-64739964D02*
X100180952Y-64739964D01*
X100633333Y-64478059D02*
X100942857Y-64478059D01*
X100942857Y-64478059D02*
X100776190Y-64668535D01*
X100776190Y-64668535D02*
X100847619Y-64668535D01*
X100847619Y-64668535D02*
X100895238Y-64692345D01*
X100895238Y-64692345D02*
X100919047Y-64716154D01*
X100919047Y-64716154D02*
X100942857Y-64763773D01*
X100942857Y-64763773D02*
X100942857Y-64882821D01*
X100942857Y-64882821D02*
X100919047Y-64930440D01*
X100919047Y-64930440D02*
X100895238Y-64954250D01*
X100895238Y-64954250D02*
X100847619Y-64978059D01*
X100847619Y-64978059D02*
X100704762Y-64978059D01*
X100704762Y-64978059D02*
X100657143Y-64954250D01*
X100657143Y-64954250D02*
X100633333Y-64930440D01*
X91819047Y-55728059D02*
X91819047Y-56132821D01*
X91819047Y-56132821D02*
X91842857Y-56180440D01*
X91842857Y-56180440D02*
X91866666Y-56204250D01*
X91866666Y-56204250D02*
X91914285Y-56228059D01*
X91914285Y-56228059D02*
X92009523Y-56228059D01*
X92009523Y-56228059D02*
X92057142Y-56204250D01*
X92057142Y-56204250D02*
X92080952Y-56180440D01*
X92080952Y-56180440D02*
X92104761Y-56132821D01*
X92104761Y-56132821D02*
X92104761Y-55728059D01*
X92557143Y-55894726D02*
X92557143Y-56228059D01*
X92438095Y-55704250D02*
X92319048Y-56061392D01*
X92319048Y-56061392D02*
X92628571Y-56061392D01*
X99016666Y-61928059D02*
X98850000Y-61689964D01*
X98730952Y-61928059D02*
X98730952Y-61428059D01*
X98730952Y-61428059D02*
X98921428Y-61428059D01*
X98921428Y-61428059D02*
X98969047Y-61451869D01*
X98969047Y-61451869D02*
X98992857Y-61475678D01*
X98992857Y-61475678D02*
X99016666Y-61523297D01*
X99016666Y-61523297D02*
X99016666Y-61594726D01*
X99016666Y-61594726D02*
X98992857Y-61642345D01*
X98992857Y-61642345D02*
X98969047Y-61666154D01*
X98969047Y-61666154D02*
X98921428Y-61689964D01*
X98921428Y-61689964D02*
X98730952Y-61689964D01*
X99492857Y-61928059D02*
X99207143Y-61928059D01*
X99350000Y-61928059D02*
X99350000Y-61428059D01*
X99350000Y-61428059D02*
X99302381Y-61499488D01*
X99302381Y-61499488D02*
X99254762Y-61547107D01*
X99254762Y-61547107D02*
X99207143Y-61570916D01*
D18*
X94516666Y-75177669D02*
X94350000Y-74939574D01*
X94230952Y-75177669D02*
X94230952Y-74677669D01*
X94230952Y-74677669D02*
X94421428Y-74677669D01*
X94421428Y-74677669D02*
X94469047Y-74701479D01*
X94469047Y-74701479D02*
X94492857Y-74725288D01*
X94492857Y-74725288D02*
X94516666Y-74772907D01*
X94516666Y-74772907D02*
X94516666Y-74844336D01*
X94516666Y-74844336D02*
X94492857Y-74891955D01*
X94492857Y-74891955D02*
X94469047Y-74915764D01*
X94469047Y-74915764D02*
X94421428Y-74939574D01*
X94421428Y-74939574D02*
X94230952Y-74939574D01*
X94683333Y-74677669D02*
X95016666Y-74677669D01*
X95016666Y-74677669D02*
X94802381Y-75177669D01*
D16*
X115415623Y-58367862D02*
X115439433Y-58391671D01*
X115439433Y-58391671D02*
X115463242Y-58463100D01*
X115463242Y-58463100D02*
X115463242Y-58510719D01*
X115463242Y-58510719D02*
X115439433Y-58582147D01*
X115439433Y-58582147D02*
X115391813Y-58629766D01*
X115391813Y-58629766D02*
X115344194Y-58653576D01*
X115344194Y-58653576D02*
X115248956Y-58677385D01*
X115248956Y-58677385D02*
X115177528Y-58677385D01*
X115177528Y-58677385D02*
X115082290Y-58653576D01*
X115082290Y-58653576D02*
X115034671Y-58629766D01*
X115034671Y-58629766D02*
X114987052Y-58582147D01*
X114987052Y-58582147D02*
X114963242Y-58510719D01*
X114963242Y-58510719D02*
X114963242Y-58463100D01*
X114963242Y-58463100D02*
X114987052Y-58391671D01*
X114987052Y-58391671D02*
X115010861Y-58367862D01*
X115463242Y-57891671D02*
X115463242Y-58177385D01*
X115463242Y-58034528D02*
X114963242Y-58034528D01*
X114963242Y-58034528D02*
X115034671Y-58082147D01*
X115034671Y-58082147D02*
X115082290Y-58129766D01*
X115082290Y-58129766D02*
X115106099Y-58177385D01*
X114963242Y-57439291D02*
X114963242Y-57677386D01*
X114963242Y-57677386D02*
X115201337Y-57701195D01*
X115201337Y-57701195D02*
X115177528Y-57677386D01*
X115177528Y-57677386D02*
X115153718Y-57629767D01*
X115153718Y-57629767D02*
X115153718Y-57510719D01*
X115153718Y-57510719D02*
X115177528Y-57463100D01*
X115177528Y-57463100D02*
X115201337Y-57439291D01*
X115201337Y-57439291D02*
X115248956Y-57415481D01*
X115248956Y-57415481D02*
X115368004Y-57415481D01*
X115368004Y-57415481D02*
X115415623Y-57439291D01*
X115415623Y-57439291D02*
X115439433Y-57463100D01*
X115439433Y-57463100D02*
X115463242Y-57510719D01*
X115463242Y-57510719D02*
X115463242Y-57629767D01*
X115463242Y-57629767D02*
X115439433Y-57677386D01*
X115439433Y-57677386D02*
X115415623Y-57701195D01*
X100416666Y-65928059D02*
X100250000Y-65689964D01*
X100130952Y-65928059D02*
X100130952Y-65428059D01*
X100130952Y-65428059D02*
X100321428Y-65428059D01*
X100321428Y-65428059D02*
X100369047Y-65451869D01*
X100369047Y-65451869D02*
X100392857Y-65475678D01*
X100392857Y-65475678D02*
X100416666Y-65523297D01*
X100416666Y-65523297D02*
X100416666Y-65594726D01*
X100416666Y-65594726D02*
X100392857Y-65642345D01*
X100392857Y-65642345D02*
X100369047Y-65666154D01*
X100369047Y-65666154D02*
X100321428Y-65689964D01*
X100321428Y-65689964D02*
X100130952Y-65689964D01*
X100607143Y-65475678D02*
X100630952Y-65451869D01*
X100630952Y-65451869D02*
X100678571Y-65428059D01*
X100678571Y-65428059D02*
X100797619Y-65428059D01*
X100797619Y-65428059D02*
X100845238Y-65451869D01*
X100845238Y-65451869D02*
X100869047Y-65475678D01*
X100869047Y-65475678D02*
X100892857Y-65523297D01*
X100892857Y-65523297D02*
X100892857Y-65570916D01*
X100892857Y-65570916D02*
X100869047Y-65642345D01*
X100869047Y-65642345D02*
X100583333Y-65928059D01*
X100583333Y-65928059D02*
X100892857Y-65928059D01*
X95678571Y-56680440D02*
X95654762Y-56704250D01*
X95654762Y-56704250D02*
X95583333Y-56728059D01*
X95583333Y-56728059D02*
X95535714Y-56728059D01*
X95535714Y-56728059D02*
X95464286Y-56704250D01*
X95464286Y-56704250D02*
X95416667Y-56656630D01*
X95416667Y-56656630D02*
X95392857Y-56609011D01*
X95392857Y-56609011D02*
X95369048Y-56513773D01*
X95369048Y-56513773D02*
X95369048Y-56442345D01*
X95369048Y-56442345D02*
X95392857Y-56347107D01*
X95392857Y-56347107D02*
X95416667Y-56299488D01*
X95416667Y-56299488D02*
X95464286Y-56251869D01*
X95464286Y-56251869D02*
X95535714Y-56228059D01*
X95535714Y-56228059D02*
X95583333Y-56228059D01*
X95583333Y-56228059D02*
X95654762Y-56251869D01*
X95654762Y-56251869D02*
X95678571Y-56275678D01*
X95869048Y-56275678D02*
X95892857Y-56251869D01*
X95892857Y-56251869D02*
X95940476Y-56228059D01*
X95940476Y-56228059D02*
X96059524Y-56228059D01*
X96059524Y-56228059D02*
X96107143Y-56251869D01*
X96107143Y-56251869D02*
X96130952Y-56275678D01*
X96130952Y-56275678D02*
X96154762Y-56323297D01*
X96154762Y-56323297D02*
X96154762Y-56370916D01*
X96154762Y-56370916D02*
X96130952Y-56442345D01*
X96130952Y-56442345D02*
X95845238Y-56728059D01*
X95845238Y-56728059D02*
X96154762Y-56728059D01*
X96630952Y-56728059D02*
X96345238Y-56728059D01*
X96488095Y-56728059D02*
X96488095Y-56228059D01*
X96488095Y-56228059D02*
X96440476Y-56299488D01*
X96440476Y-56299488D02*
X96392857Y-56347107D01*
X96392857Y-56347107D02*
X96345238Y-56370916D01*
X113828571Y-67680440D02*
X113804762Y-67704250D01*
X113804762Y-67704250D02*
X113733333Y-67728059D01*
X113733333Y-67728059D02*
X113685714Y-67728059D01*
X113685714Y-67728059D02*
X113614286Y-67704250D01*
X113614286Y-67704250D02*
X113566667Y-67656630D01*
X113566667Y-67656630D02*
X113542857Y-67609011D01*
X113542857Y-67609011D02*
X113519048Y-67513773D01*
X113519048Y-67513773D02*
X113519048Y-67442345D01*
X113519048Y-67442345D02*
X113542857Y-67347107D01*
X113542857Y-67347107D02*
X113566667Y-67299488D01*
X113566667Y-67299488D02*
X113614286Y-67251869D01*
X113614286Y-67251869D02*
X113685714Y-67228059D01*
X113685714Y-67228059D02*
X113733333Y-67228059D01*
X113733333Y-67228059D02*
X113804762Y-67251869D01*
X113804762Y-67251869D02*
X113828571Y-67275678D01*
X114304762Y-67728059D02*
X114019048Y-67728059D01*
X114161905Y-67728059D02*
X114161905Y-67228059D01*
X114161905Y-67228059D02*
X114114286Y-67299488D01*
X114114286Y-67299488D02*
X114066667Y-67347107D01*
X114066667Y-67347107D02*
X114019048Y-67370916D01*
X114495238Y-67275678D02*
X114519047Y-67251869D01*
X114519047Y-67251869D02*
X114566666Y-67228059D01*
X114566666Y-67228059D02*
X114685714Y-67228059D01*
X114685714Y-67228059D02*
X114733333Y-67251869D01*
X114733333Y-67251869D02*
X114757142Y-67275678D01*
X114757142Y-67275678D02*
X114780952Y-67323297D01*
X114780952Y-67323297D02*
X114780952Y-67370916D01*
X114780952Y-67370916D02*
X114757142Y-67442345D01*
X114757142Y-67442345D02*
X114471428Y-67728059D01*
X114471428Y-67728059D02*
X114780952Y-67728059D01*
X110185623Y-58733333D02*
X110209433Y-58757142D01*
X110209433Y-58757142D02*
X110233242Y-58828571D01*
X110233242Y-58828571D02*
X110233242Y-58876190D01*
X110233242Y-58876190D02*
X110209433Y-58947618D01*
X110209433Y-58947618D02*
X110161813Y-58995237D01*
X110161813Y-58995237D02*
X110114194Y-59019047D01*
X110114194Y-59019047D02*
X110018956Y-59042856D01*
X110018956Y-59042856D02*
X109947528Y-59042856D01*
X109947528Y-59042856D02*
X109852290Y-59019047D01*
X109852290Y-59019047D02*
X109804671Y-58995237D01*
X109804671Y-58995237D02*
X109757052Y-58947618D01*
X109757052Y-58947618D02*
X109733242Y-58876190D01*
X109733242Y-58876190D02*
X109733242Y-58828571D01*
X109733242Y-58828571D02*
X109757052Y-58757142D01*
X109757052Y-58757142D02*
X109780861Y-58733333D01*
X109899909Y-58304761D02*
X110233242Y-58304761D01*
X109709433Y-58423809D02*
X110066575Y-58542856D01*
X110066575Y-58542856D02*
X110066575Y-58233333D01*
X95769047Y-66028059D02*
X95769047Y-66432821D01*
X95769047Y-66432821D02*
X95792857Y-66480440D01*
X95792857Y-66480440D02*
X95816666Y-66504250D01*
X95816666Y-66504250D02*
X95864285Y-66528059D01*
X95864285Y-66528059D02*
X95959523Y-66528059D01*
X95959523Y-66528059D02*
X96007142Y-66504250D01*
X96007142Y-66504250D02*
X96030952Y-66480440D01*
X96030952Y-66480440D02*
X96054761Y-66432821D01*
X96054761Y-66432821D02*
X96054761Y-66028059D01*
X96269048Y-66075678D02*
X96292857Y-66051869D01*
X96292857Y-66051869D02*
X96340476Y-66028059D01*
X96340476Y-66028059D02*
X96459524Y-66028059D01*
X96459524Y-66028059D02*
X96507143Y-66051869D01*
X96507143Y-66051869D02*
X96530952Y-66075678D01*
X96530952Y-66075678D02*
X96554762Y-66123297D01*
X96554762Y-66123297D02*
X96554762Y-66170916D01*
X96554762Y-66170916D02*
X96530952Y-66242345D01*
X96530952Y-66242345D02*
X96245238Y-66528059D01*
X96245238Y-66528059D02*
X96554762Y-66528059D01*
X109175257Y-58766899D02*
X109199067Y-58790708D01*
X109199067Y-58790708D02*
X109222876Y-58862137D01*
X109222876Y-58862137D02*
X109222876Y-58909756D01*
X109222876Y-58909756D02*
X109199067Y-58981184D01*
X109199067Y-58981184D02*
X109151447Y-59028803D01*
X109151447Y-59028803D02*
X109103828Y-59052613D01*
X109103828Y-59052613D02*
X109008590Y-59076422D01*
X109008590Y-59076422D02*
X108937162Y-59076422D01*
X108937162Y-59076422D02*
X108841924Y-59052613D01*
X108841924Y-59052613D02*
X108794305Y-59028803D01*
X108794305Y-59028803D02*
X108746686Y-58981184D01*
X108746686Y-58981184D02*
X108722876Y-58909756D01*
X108722876Y-58909756D02*
X108722876Y-58862137D01*
X108722876Y-58862137D02*
X108746686Y-58790708D01*
X108746686Y-58790708D02*
X108770495Y-58766899D01*
X108722876Y-58338327D02*
X108722876Y-58433565D01*
X108722876Y-58433565D02*
X108746686Y-58481184D01*
X108746686Y-58481184D02*
X108770495Y-58504994D01*
X108770495Y-58504994D02*
X108841924Y-58552613D01*
X108841924Y-58552613D02*
X108937162Y-58576422D01*
X108937162Y-58576422D02*
X109127638Y-58576422D01*
X109127638Y-58576422D02*
X109175257Y-58552613D01*
X109175257Y-58552613D02*
X109199067Y-58528803D01*
X109199067Y-58528803D02*
X109222876Y-58481184D01*
X109222876Y-58481184D02*
X109222876Y-58385946D01*
X109222876Y-58385946D02*
X109199067Y-58338327D01*
X109199067Y-58338327D02*
X109175257Y-58314518D01*
X109175257Y-58314518D02*
X109127638Y-58290708D01*
X109127638Y-58290708D02*
X109008590Y-58290708D01*
X109008590Y-58290708D02*
X108960971Y-58314518D01*
X108960971Y-58314518D02*
X108937162Y-58338327D01*
X108937162Y-58338327D02*
X108913352Y-58385946D01*
X108913352Y-58385946D02*
X108913352Y-58481184D01*
X108913352Y-58481184D02*
X108937162Y-58528803D01*
X108937162Y-58528803D02*
X108960971Y-58552613D01*
X108960971Y-58552613D02*
X109008590Y-58576422D01*
X108155257Y-58756899D02*
X108179067Y-58780708D01*
X108179067Y-58780708D02*
X108202876Y-58852137D01*
X108202876Y-58852137D02*
X108202876Y-58899756D01*
X108202876Y-58899756D02*
X108179067Y-58971184D01*
X108179067Y-58971184D02*
X108131447Y-59018803D01*
X108131447Y-59018803D02*
X108083828Y-59042613D01*
X108083828Y-59042613D02*
X107988590Y-59066422D01*
X107988590Y-59066422D02*
X107917162Y-59066422D01*
X107917162Y-59066422D02*
X107821924Y-59042613D01*
X107821924Y-59042613D02*
X107774305Y-59018803D01*
X107774305Y-59018803D02*
X107726686Y-58971184D01*
X107726686Y-58971184D02*
X107702876Y-58899756D01*
X107702876Y-58899756D02*
X107702876Y-58852137D01*
X107702876Y-58852137D02*
X107726686Y-58780708D01*
X107726686Y-58780708D02*
X107750495Y-58756899D01*
X107702876Y-58590232D02*
X107702876Y-58256899D01*
X107702876Y-58256899D02*
X108202876Y-58471184D01*
D18*
X111830050Y-75910026D02*
X111853860Y-75933835D01*
X111853860Y-75933835D02*
X111877669Y-76005264D01*
X111877669Y-76005264D02*
X111877669Y-76052883D01*
X111877669Y-76052883D02*
X111853860Y-76124311D01*
X111853860Y-76124311D02*
X111806240Y-76171930D01*
X111806240Y-76171930D02*
X111758621Y-76195740D01*
X111758621Y-76195740D02*
X111663383Y-76219549D01*
X111663383Y-76219549D02*
X111591955Y-76219549D01*
X111591955Y-76219549D02*
X111496717Y-76195740D01*
X111496717Y-76195740D02*
X111449098Y-76171930D01*
X111449098Y-76171930D02*
X111401479Y-76124311D01*
X111401479Y-76124311D02*
X111377669Y-76052883D01*
X111377669Y-76052883D02*
X111377669Y-76005264D01*
X111377669Y-76005264D02*
X111401479Y-75933835D01*
X111401479Y-75933835D02*
X111425288Y-75910026D01*
X111877669Y-75433835D02*
X111877669Y-75719549D01*
X111877669Y-75576692D02*
X111377669Y-75576692D01*
X111377669Y-75576692D02*
X111449098Y-75624311D01*
X111449098Y-75624311D02*
X111496717Y-75671930D01*
X111496717Y-75671930D02*
X111520526Y-75719549D01*
X111377669Y-75267169D02*
X111377669Y-74957645D01*
X111377669Y-74957645D02*
X111568145Y-75124312D01*
X111568145Y-75124312D02*
X111568145Y-75052883D01*
X111568145Y-75052883D02*
X111591955Y-75005264D01*
X111591955Y-75005264D02*
X111615764Y-74981455D01*
X111615764Y-74981455D02*
X111663383Y-74957645D01*
X111663383Y-74957645D02*
X111782431Y-74957645D01*
X111782431Y-74957645D02*
X111830050Y-74981455D01*
X111830050Y-74981455D02*
X111853860Y-75005264D01*
X111853860Y-75005264D02*
X111877669Y-75052883D01*
X111877669Y-75052883D02*
X111877669Y-75195740D01*
X111877669Y-75195740D02*
X111853860Y-75243359D01*
X111853860Y-75243359D02*
X111830050Y-75267169D01*
X96516666Y-75177669D02*
X96350000Y-74939574D01*
X96230952Y-75177669D02*
X96230952Y-74677669D01*
X96230952Y-74677669D02*
X96421428Y-74677669D01*
X96421428Y-74677669D02*
X96469047Y-74701479D01*
X96469047Y-74701479D02*
X96492857Y-74725288D01*
X96492857Y-74725288D02*
X96516666Y-74772907D01*
X96516666Y-74772907D02*
X96516666Y-74844336D01*
X96516666Y-74844336D02*
X96492857Y-74891955D01*
X96492857Y-74891955D02*
X96469047Y-74915764D01*
X96469047Y-74915764D02*
X96421428Y-74939574D01*
X96421428Y-74939574D02*
X96230952Y-74939574D01*
X96945238Y-74677669D02*
X96850000Y-74677669D01*
X96850000Y-74677669D02*
X96802381Y-74701479D01*
X96802381Y-74701479D02*
X96778571Y-74725288D01*
X96778571Y-74725288D02*
X96730952Y-74796717D01*
X96730952Y-74796717D02*
X96707143Y-74891955D01*
X96707143Y-74891955D02*
X96707143Y-75082431D01*
X96707143Y-75082431D02*
X96730952Y-75130050D01*
X96730952Y-75130050D02*
X96754762Y-75153860D01*
X96754762Y-75153860D02*
X96802381Y-75177669D01*
X96802381Y-75177669D02*
X96897619Y-75177669D01*
X96897619Y-75177669D02*
X96945238Y-75153860D01*
X96945238Y-75153860D02*
X96969047Y-75130050D01*
X96969047Y-75130050D02*
X96992857Y-75082431D01*
X96992857Y-75082431D02*
X96992857Y-74963383D01*
X96992857Y-74963383D02*
X96969047Y-74915764D01*
X96969047Y-74915764D02*
X96945238Y-74891955D01*
X96945238Y-74891955D02*
X96897619Y-74868145D01*
X96897619Y-74868145D02*
X96802381Y-74868145D01*
X96802381Y-74868145D02*
X96754762Y-74891955D01*
X96754762Y-74891955D02*
X96730952Y-74915764D01*
X96730952Y-74915764D02*
X96707143Y-74963383D01*
D16*
X106678571Y-55980440D02*
X106654762Y-56004250D01*
X106654762Y-56004250D02*
X106583333Y-56028059D01*
X106583333Y-56028059D02*
X106535714Y-56028059D01*
X106535714Y-56028059D02*
X106464286Y-56004250D01*
X106464286Y-56004250D02*
X106416667Y-55956630D01*
X106416667Y-55956630D02*
X106392857Y-55909011D01*
X106392857Y-55909011D02*
X106369048Y-55813773D01*
X106369048Y-55813773D02*
X106369048Y-55742345D01*
X106369048Y-55742345D02*
X106392857Y-55647107D01*
X106392857Y-55647107D02*
X106416667Y-55599488D01*
X106416667Y-55599488D02*
X106464286Y-55551869D01*
X106464286Y-55551869D02*
X106535714Y-55528059D01*
X106535714Y-55528059D02*
X106583333Y-55528059D01*
X106583333Y-55528059D02*
X106654762Y-55551869D01*
X106654762Y-55551869D02*
X106678571Y-55575678D01*
X107154762Y-56028059D02*
X106869048Y-56028059D01*
X107011905Y-56028059D02*
X107011905Y-55528059D01*
X107011905Y-55528059D02*
X106964286Y-55599488D01*
X106964286Y-55599488D02*
X106916667Y-55647107D01*
X106916667Y-55647107D02*
X106869048Y-55670916D01*
X107583333Y-55694726D02*
X107583333Y-56028059D01*
X107464285Y-55504250D02*
X107345238Y-55861392D01*
X107345238Y-55861392D02*
X107654761Y-55861392D01*
X111878571Y-64130440D02*
X111854762Y-64154250D01*
X111854762Y-64154250D02*
X111783333Y-64178059D01*
X111783333Y-64178059D02*
X111735714Y-64178059D01*
X111735714Y-64178059D02*
X111664286Y-64154250D01*
X111664286Y-64154250D02*
X111616667Y-64106630D01*
X111616667Y-64106630D02*
X111592857Y-64059011D01*
X111592857Y-64059011D02*
X111569048Y-63963773D01*
X111569048Y-63963773D02*
X111569048Y-63892345D01*
X111569048Y-63892345D02*
X111592857Y-63797107D01*
X111592857Y-63797107D02*
X111616667Y-63749488D01*
X111616667Y-63749488D02*
X111664286Y-63701869D01*
X111664286Y-63701869D02*
X111735714Y-63678059D01*
X111735714Y-63678059D02*
X111783333Y-63678059D01*
X111783333Y-63678059D02*
X111854762Y-63701869D01*
X111854762Y-63701869D02*
X111878571Y-63725678D01*
X112354762Y-64178059D02*
X112069048Y-64178059D01*
X112211905Y-64178059D02*
X112211905Y-63678059D01*
X112211905Y-63678059D02*
X112164286Y-63749488D01*
X112164286Y-63749488D02*
X112116667Y-63797107D01*
X112116667Y-63797107D02*
X112069048Y-63820916D01*
X112783333Y-63678059D02*
X112688095Y-63678059D01*
X112688095Y-63678059D02*
X112640476Y-63701869D01*
X112640476Y-63701869D02*
X112616666Y-63725678D01*
X112616666Y-63725678D02*
X112569047Y-63797107D01*
X112569047Y-63797107D02*
X112545238Y-63892345D01*
X112545238Y-63892345D02*
X112545238Y-64082821D01*
X112545238Y-64082821D02*
X112569047Y-64130440D01*
X112569047Y-64130440D02*
X112592857Y-64154250D01*
X112592857Y-64154250D02*
X112640476Y-64178059D01*
X112640476Y-64178059D02*
X112735714Y-64178059D01*
X112735714Y-64178059D02*
X112783333Y-64154250D01*
X112783333Y-64154250D02*
X112807142Y-64130440D01*
X112807142Y-64130440D02*
X112830952Y-64082821D01*
X112830952Y-64082821D02*
X112830952Y-63963773D01*
X112830952Y-63963773D02*
X112807142Y-63916154D01*
X112807142Y-63916154D02*
X112783333Y-63892345D01*
X112783333Y-63892345D02*
X112735714Y-63868535D01*
X112735714Y-63868535D02*
X112640476Y-63868535D01*
X112640476Y-63868535D02*
X112592857Y-63892345D01*
X112592857Y-63892345D02*
X112569047Y-63916154D01*
X112569047Y-63916154D02*
X112545238Y-63963773D01*
X111019047Y-69778059D02*
X111019047Y-70182821D01*
X111019047Y-70182821D02*
X111042857Y-70230440D01*
X111042857Y-70230440D02*
X111066666Y-70254250D01*
X111066666Y-70254250D02*
X111114285Y-70278059D01*
X111114285Y-70278059D02*
X111209523Y-70278059D01*
X111209523Y-70278059D02*
X111257142Y-70254250D01*
X111257142Y-70254250D02*
X111280952Y-70230440D01*
X111280952Y-70230440D02*
X111304761Y-70182821D01*
X111304761Y-70182821D02*
X111304761Y-69778059D01*
X111804762Y-70278059D02*
X111519048Y-70278059D01*
X111661905Y-70278059D02*
X111661905Y-69778059D01*
X111661905Y-69778059D02*
X111614286Y-69849488D01*
X111614286Y-69849488D02*
X111566667Y-69897107D01*
X111566667Y-69897107D02*
X111519048Y-69920916D01*
X95106721Y-62878059D02*
X94868626Y-62878059D01*
X94868626Y-62878059D02*
X94868626Y-62378059D01*
X95535293Y-62878059D02*
X95249579Y-62878059D01*
X95392436Y-62878059D02*
X95392436Y-62378059D01*
X95392436Y-62378059D02*
X95344817Y-62449488D01*
X95344817Y-62449488D02*
X95297198Y-62497107D01*
X95297198Y-62497107D02*
X95249579Y-62520916D01*
D19*
%TO.C,R4*%
X99942441Y-57023934D02*
X99467925Y-57023934D01*
X99942441Y-58068934D02*
X99467925Y-58068934D01*
%TO.C,R8*%
X113920000Y-65753641D02*
X113920000Y-65446359D01*
X114680000Y-65753641D02*
X114680000Y-65446359D01*
%TO.C,C19*%
X93320183Y-54357686D02*
X93320183Y-53835182D01*
X94790183Y-54357686D02*
X94790183Y-53835182D01*
%TO.C,R5*%
X94320000Y-67746359D02*
X94320000Y-68053641D01*
X95080000Y-67746359D02*
X95080000Y-68053641D01*
%TO.C,Y1*%
X115195183Y-59866434D02*
X111075183Y-59866434D01*
X115195183Y-63286434D02*
X115195183Y-59866434D01*
%TO.C,C9*%
X107107836Y-57340000D02*
X106892164Y-57340000D01*
X107107836Y-58060000D02*
X106892164Y-58060000D01*
%TO.C,C2*%
X110543931Y-56011434D02*
X111066435Y-56011434D01*
X110543931Y-57481434D02*
X111066435Y-57481434D01*
%TO.C,C10*%
X108447347Y-61286434D02*
X108663019Y-61286434D01*
X108447347Y-62006434D02*
X108663019Y-62006434D01*
%TO.C,C17*%
X93240000Y-67792164D02*
X93240000Y-68007836D01*
X93960000Y-67792164D02*
X93960000Y-68007836D01*
%TO.C,J2*%
X116275183Y-79940000D02*
X115805183Y-79600000D01*
X116275183Y-79260000D01*
X116275183Y-79940000D01*
G36*
X116275183Y-79940000D02*
G01*
X115805183Y-79600000D01*
X116275183Y-79260000D01*
X116275183Y-79940000D01*
G37*
%TO.C,C8*%
X103607836Y-61640000D02*
X103392164Y-61640000D01*
X103607836Y-62360000D02*
X103392164Y-62360000D01*
%TO.C,C5*%
X101192164Y-60490000D02*
X101407836Y-60490000D01*
X101192164Y-61210000D02*
X101407836Y-61210000D01*
%TO.C,R3*%
X98946359Y-64370000D02*
X99253641Y-64370000D01*
X98946359Y-65130000D02*
X99253641Y-65130000D01*
%TO.C,U4*%
X91557683Y-58346434D02*
X91557683Y-57546434D01*
X91557683Y-58346434D02*
X91557683Y-59146434D01*
X94677683Y-58346434D02*
X94677683Y-57546434D01*
X94677683Y-58346434D02*
X94677683Y-59146434D01*
X94957683Y-57286434D02*
X94627683Y-57046434D01*
X94957683Y-56806434D01*
X94957683Y-57286434D01*
G36*
X94957683Y-57286434D02*
G01*
X94627683Y-57046434D01*
X94957683Y-56806434D01*
X94957683Y-57286434D01*
G37*
%TO.C,R1*%
X99096359Y-60470000D02*
X99403641Y-60470000D01*
X99096359Y-61230000D02*
X99403641Y-61230000D01*
%TO.C,R7*%
X94446359Y-73820000D02*
X94753641Y-73820000D01*
X94446359Y-74580000D02*
X94753641Y-74580000D01*
%TO.C,C15*%
X113875183Y-58154270D02*
X113875183Y-57938598D01*
X114595183Y-58154270D02*
X114595183Y-57938598D01*
%TO.C,R2*%
X98946359Y-65320000D02*
X99253641Y-65320000D01*
X98946359Y-66080000D02*
X99253641Y-66080000D01*
%TO.C,C21*%
X95270183Y-58757686D02*
X95270183Y-58235182D01*
X96740183Y-58757686D02*
X96740183Y-58235182D01*
%TO.C,C12*%
X114092164Y-67940000D02*
X114307836Y-67940000D01*
X114092164Y-68660000D02*
X114307836Y-68660000D01*
%TO.C,C4*%
X109645183Y-60204270D02*
X109645183Y-59988598D01*
X110365183Y-60204270D02*
X110365183Y-59988598D01*
%TO.C,U2*%
X95395183Y-72986434D02*
X95395183Y-66996434D01*
X100615183Y-72996434D02*
X100615183Y-66996434D01*
X95695183Y-73706434D02*
X95215183Y-73226434D01*
X95695183Y-73226434D01*
X95695183Y-73706434D01*
G36*
X95695183Y-73706434D02*
G01*
X95215183Y-73226434D01*
X95695183Y-73226434D01*
X95695183Y-73706434D01*
G37*
%TO.C,C6*%
X108640000Y-60237836D02*
X108640000Y-60022164D01*
X109360000Y-60237836D02*
X109360000Y-60022164D01*
%TO.C,C7*%
X107620000Y-60227836D02*
X107620000Y-60012164D01*
X108340000Y-60227836D02*
X108340000Y-60012164D01*
%TO.C,C13*%
X112095183Y-75804270D02*
X112095183Y-75588598D01*
X112815183Y-75804270D02*
X112815183Y-75588598D01*
%TO.C,R6*%
X96763641Y-73820000D02*
X96456359Y-73820000D01*
X96763641Y-74580000D02*
X96456359Y-74580000D01*
%TO.C,C14*%
X107107836Y-56340000D02*
X106892164Y-56340000D01*
X107107836Y-57060000D02*
X106892164Y-57060000D01*
%TO.C,C16*%
X113777347Y-63596434D02*
X113993019Y-63596434D01*
X113777347Y-64316434D02*
X113993019Y-64316434D01*
%TO.C,U1*%
X103145183Y-63186434D02*
X103595183Y-63186434D01*
X103145183Y-63636434D02*
X103145183Y-63186434D01*
X103145183Y-69956434D02*
X103145183Y-70406434D01*
X110365183Y-63186434D02*
X109915183Y-63186434D01*
X110365183Y-63636434D02*
X110365183Y-63186434D01*
X110365183Y-69956434D02*
X110365183Y-70406434D01*
X110365183Y-70406434D02*
X109915183Y-70406434D01*
%TO.C,L1*%
D20*
X95503921Y-63750000D02*
G75*
G02*
X95312501Y-63750000I-95710J0D01*
G01*
X95312501Y-63750000D02*
G75*
G02*
X95503921Y-63750000I95710J0D01*
G01*
%TD*%
M02*
