%TF.GenerationSoftware,KiCad,Pcbnew,9.0.4*%
%TF.CreationDate,2025-09-10T10:40:01+02:00*%
%TF.ProjectId,rp2350_gpio_card,72703233-3530-45f6-9770-696f5f636172,X1*%
%TF.SameCoordinates,Original*%
%TF.FileFunction,Copper,L4,Bot*%
%TF.FilePolarity,Positive*%
%FSLAX46Y46*%
G04 Gerber Fmt 4.6, Leading zero omitted, Abs format (unit mm)*
G04 Created by KiCad (PCBNEW 9.0.4) date 2025-09-10 10:40:01*
%MOMM*%
%LPD*%
G01*
G04 APERTURE LIST*
G04 Aperture macros list*
%AMRoundRect*
0 Rectangle with rounded corners*
0 $1 Rounding radius*
0 $2 $3 $4 $5 $6 $7 $8 $9 X,Y pos of 4 corners*
0 Add a 4 corners polygon primitive as box body*
4,1,4,$2,$3,$4,$5,$6,$7,$8,$9,$2,$3,0*
0 Add four circle primitives for the rounded corners*
1,1,$1+$1,$2,$3*
1,1,$1+$1,$4,$5*
1,1,$1+$1,$6,$7*
1,1,$1+$1,$8,$9*
0 Add four rect primitives between the rounded corners*
20,1,$1+$1,$2,$3,$4,$5,0*
20,1,$1+$1,$4,$5,$6,$7,0*
20,1,$1+$1,$6,$7,$8,$9,0*
20,1,$1+$1,$8,$9,$2,$3,0*%
G04 Aperture macros list end*
%TA.AperFunction,SMDPad,CuDef*%
%ADD10R,0.380000X1.000000*%
%TD*%
%TA.AperFunction,SMDPad,CuDef*%
%ADD11R,0.700000X1.150000*%
%TD*%
%TA.AperFunction,ComponentPad*%
%ADD12C,0.600000*%
%TD*%
%TA.AperFunction,SMDPad,CuDef*%
%ADD13RoundRect,0.250000X-0.250000X1.000000X-0.250000X-1.000000X0.250000X-1.000000X0.250000X1.000000X0*%
%TD*%
%TA.AperFunction,ViaPad*%
%ADD14C,0.800000*%
%TD*%
%TA.AperFunction,ViaPad*%
%ADD15C,0.600000*%
%TD*%
%TA.AperFunction,Conductor*%
%ADD16C,0.152400*%
%TD*%
%TA.AperFunction,Conductor*%
%ADD17C,0.200000*%
%TD*%
G04 APERTURE END LIST*
D10*
%TO.P,P1,B1,GND*%
%TO.N,GND*%
X106305183Y-54186434D03*
%TO.P,P1,B2*%
%TO.N,N/C*%
X105805183Y-54186434D03*
%TO.P,P1,B3*%
X105305183Y-54186434D03*
%TO.P,P1,B4,VBUS*%
%TO.N,VBUS*%
X104805183Y-54186434D03*
%TO.P,P1,B5,VCONN*%
%TO.N,unconnected-(P1-VCONN-PadB5)*%
X104305183Y-54186434D03*
%TO.P,P1,B8*%
%TO.N,N/C*%
X102805183Y-54186434D03*
%TO.P,P1,B9,VBUS*%
%TO.N,VBUS*%
X102305183Y-54186434D03*
%TO.P,P1,B10*%
%TO.N,N/C*%
X101805183Y-54186434D03*
%TO.P,P1,B11*%
X101305183Y-54186434D03*
%TO.P,P1,B12,GND*%
%TO.N,GND*%
X100805183Y-54186434D03*
D11*
%TO.P,P1,S1,SHIELD*%
X106975183Y-55026434D03*
%TD*%
D12*
%TO.P,U1,61,GND*%
%TO.N,GND*%
X105380183Y-68171434D03*
X106755183Y-68171434D03*
X108130183Y-68171434D03*
X105380183Y-66796434D03*
X106755183Y-66796434D03*
X108130183Y-66796434D03*
X105380183Y-65421434D03*
X106755183Y-65421434D03*
X108130183Y-65421434D03*
%TD*%
D13*
%TO.P,J1,1,Pin_1*%
%TO.N,/QSPI_SS*%
X92125183Y-79600000D03*
%TO.P,J1,2,Pin_2*%
%TO.N,/GPIO9*%
X94665183Y-79600000D03*
%TO.P,J1,3,Pin_3*%
%TO.N,/GPIO10*%
X97205183Y-79600000D03*
%TO.P,J1,4,Pin_4*%
%TO.N,/GPIO11*%
X99745183Y-79600000D03*
%TO.P,J1,5,Pin_5*%
%TO.N,/GPIO12*%
X102285183Y-79600000D03*
%TO.P,J1,6,Pin_6*%
%TO.N,/GPIO13*%
X104825183Y-79600000D03*
%TO.P,J1,7,Pin_7*%
%TO.N,GND*%
X107365183Y-79600000D03*
%TO.P,J1,8,Pin_8*%
%TO.N,/GPIO27_ADC1*%
X109905183Y-79600000D03*
%TO.P,J1,9,Pin_9*%
%TO.N,/GPIO28_ADC2*%
X112445183Y-79600000D03*
%TO.P,J1,10,Pin_10*%
%TO.N,/GPIO29_ADC3*%
X114985183Y-79600000D03*
%TD*%
D14*
%TO.N,+1V1*%
X110100000Y-61500000D03*
D15*
X100550000Y-64200000D03*
D14*
%TO.N,VBUS*%
X104800000Y-55700000D03*
X98800000Y-56246434D03*
%TO.N,+3.3V*%
X112700000Y-68272634D03*
X112700000Y-65100000D03*
%TO.N,/GPIO27_ADC1*%
X106685028Y-60729793D03*
%TO.N,/GPIO29_ADC3*%
X104755183Y-60700000D03*
%TO.N,/GPIO11*%
X110555183Y-72771434D03*
%TO.N,/QSPI_SS*%
X102130183Y-70996434D03*
%TO.N,/RUN*%
X111500000Y-66300000D03*
X111500000Y-68272634D03*
%TO.N,/GPIO10*%
X109680183Y-72196434D03*
%TO.N,/GPIO9*%
X108755502Y-71815683D03*
%TO.N,/GPIO28_ADC2*%
X106005183Y-59996434D03*
%TO.N,/GPIO0*%
X103601588Y-72897192D03*
X93100000Y-76400000D03*
D15*
%TO.N,/USB_D+*%
X94750000Y-65750000D03*
D14*
X101600000Y-58300000D03*
D15*
%TO.N,/USB_D-*%
X94450000Y-64800000D03*
D14*
X103200000Y-57900000D03*
%TO.N,/GPIO13*%
X111055183Y-74896434D03*
%TO.N,/GPIO12*%
X110405183Y-74046434D03*
%TO.N,GND*%
X97900000Y-55050000D03*
X105400000Y-57700000D03*
X113180183Y-57596434D03*
X98005183Y-69996434D03*
D15*
X101850000Y-62050000D03*
D14*
X103000000Y-60800000D03*
X113800000Y-76100000D03*
D15*
X115300000Y-67200000D03*
D14*
X105900000Y-55400000D03*
X92200000Y-68400000D03*
D15*
X100700000Y-62600000D03*
D14*
X97630183Y-57546434D03*
%TD*%
D16*
%TO.N,+1V1*%
X109300000Y-62300000D02*
X110100000Y-61500000D01*
X100550000Y-64150000D02*
X100550000Y-64200000D01*
X102407200Y-62300000D02*
X102400000Y-62300000D01*
X102407200Y-62300000D02*
X109300000Y-62300000D01*
X102400000Y-62300000D02*
X100550000Y-64150000D01*
X102407200Y-62300800D02*
X102407200Y-62300000D01*
D17*
%TO.N,VBUS*%
X102200000Y-56800000D02*
X101700000Y-56300000D01*
X102300000Y-55189634D02*
X102305183Y-55194817D01*
X103742294Y-56800000D02*
X102200000Y-56800000D01*
D16*
X104805183Y-54186434D02*
X104805183Y-55694817D01*
X102305183Y-54186434D02*
X102305183Y-54994817D01*
X104800000Y-55700000D02*
X104800000Y-55742294D01*
X104805183Y-55694817D02*
X104800000Y-55700000D01*
D17*
X98853566Y-56300000D02*
X98800000Y-56246434D01*
D16*
X102305183Y-54994817D02*
X102300000Y-55000000D01*
D17*
X101700000Y-56300000D02*
X98853566Y-56300000D01*
X102305183Y-55194817D02*
X101200000Y-56300000D01*
X102300000Y-55000000D02*
X102300000Y-55189634D01*
X104800000Y-55742294D02*
X103742294Y-56800000D01*
D16*
%TO.N,+3.3V*%
X112700000Y-68272634D02*
X112700000Y-65100000D01*
%TO.N,/GPIO27_ADC1*%
X106682383Y-60726940D02*
X106685028Y-60729585D01*
X106685028Y-60729585D02*
X106685028Y-60729793D01*
X107405183Y-58696434D02*
X106682383Y-59419234D01*
X109905183Y-77471434D02*
X111800000Y-75576617D01*
X111800000Y-75576617D02*
X111800000Y-70200000D01*
X109905183Y-80196434D02*
X109905183Y-77471434D01*
X113994383Y-62135634D02*
X110555183Y-58696434D01*
X113994383Y-68005617D02*
X113994383Y-62135634D01*
X111800000Y-70200000D02*
X113994383Y-68005617D01*
X110555183Y-58696434D02*
X107405183Y-58696434D01*
X106682383Y-59419234D02*
X106682383Y-60726940D01*
%TO.N,/GPIO29_ADC3*%
X111505183Y-57746434D02*
X114555183Y-60796434D01*
X112400000Y-70411288D02*
X112400000Y-73241251D01*
X104755183Y-59546434D02*
X106555183Y-57746434D01*
X112400000Y-73241251D02*
X114985183Y-75826434D01*
X106555183Y-57746434D02*
X111505183Y-57746434D01*
X114985183Y-75826434D02*
X114985183Y-80196434D01*
X114555183Y-60796434D02*
X114555183Y-68256105D01*
X104755183Y-60700000D02*
X104755183Y-59546434D01*
X114555183Y-68256105D02*
X112400000Y-70411288D01*
%TO.N,/GPIO11*%
X104906966Y-73693034D02*
X102403566Y-76196434D01*
X99745183Y-77006434D02*
X99745183Y-80196434D01*
X102403566Y-76196434D02*
X100555183Y-76196434D01*
X100555183Y-76196434D02*
X99745183Y-77006434D01*
X109633583Y-73693034D02*
X104906966Y-73693034D01*
X110555183Y-72771434D02*
X109633583Y-73693034D01*
%TO.N,/QSPI_SS*%
X93993911Y-73800000D02*
X92125183Y-75668728D01*
X101076617Y-73800000D02*
X93993911Y-73800000D01*
X92125183Y-75668728D02*
X92125183Y-80196434D01*
X102130183Y-72746434D02*
X101076617Y-73800000D01*
X102130183Y-70996434D02*
X102130183Y-72746434D01*
%TO.N,/RUN*%
X111500000Y-66300000D02*
X111500000Y-68272634D01*
%TO.N,/GPIO10*%
X97205183Y-76746434D02*
X97205183Y-80196434D01*
X109680183Y-72196434D02*
X109680183Y-72205729D01*
X109680183Y-72205729D02*
X108789478Y-73096434D01*
X108789478Y-73096434D02*
X105028720Y-73096434D01*
X105028720Y-73096434D02*
X102282120Y-75843034D01*
X98108583Y-75843034D02*
X97205183Y-76746434D01*
X102282120Y-75843034D02*
X98108583Y-75843034D01*
%TO.N,/GPIO9*%
X101955289Y-75500000D02*
X96201617Y-75500000D01*
X94665183Y-77036434D02*
X94665183Y-80196434D01*
X104855289Y-72600000D02*
X101955289Y-75500000D01*
X108755502Y-71815683D02*
X107971185Y-72600000D01*
X107971185Y-72600000D02*
X104855289Y-72600000D01*
X96201617Y-75500000D02*
X94665183Y-77036434D01*
%TO.N,/GPIO28_ADC2*%
X107150113Y-58146434D02*
X111255183Y-58146434D01*
X112119600Y-73510851D02*
X112445183Y-73836434D01*
X111255183Y-58146434D02*
X114274783Y-61166034D01*
X106005183Y-59291364D02*
X107150113Y-58146434D01*
X112445183Y-73836434D02*
X112445183Y-80196434D01*
X112119600Y-70295143D02*
X112119600Y-73510851D01*
X114274783Y-68139959D02*
X112119600Y-70295143D01*
X114274783Y-61166034D02*
X114274783Y-68139959D01*
X106005183Y-59996434D02*
X106005183Y-59291364D01*
%TO.N,/GPIO0*%
X103601588Y-72897192D02*
X102221946Y-74276834D01*
X102221946Y-74276834D02*
X95223166Y-74276834D01*
X95223166Y-74276834D02*
X93100000Y-76400000D01*
D17*
%TO.N,/USB_D+*%
X92100000Y-61700000D02*
X93050000Y-60750000D01*
X93050000Y-60750000D02*
X99150000Y-60750000D01*
X94750000Y-65750000D02*
X93100000Y-65750000D01*
X99150000Y-60750000D02*
X101600000Y-58300000D01*
X92100000Y-64750000D02*
X92100000Y-61700000D01*
X93100000Y-65750000D02*
X92100000Y-64750000D01*
%TO.N,/USB_D-*%
X94450000Y-64800000D02*
X93400000Y-64800000D01*
X93500000Y-61300000D02*
X99800000Y-61300000D01*
X92750000Y-62050000D02*
X93500000Y-61300000D01*
X93400000Y-64800000D02*
X92750000Y-64150000D01*
X103200000Y-57900000D02*
X103200000Y-57908329D01*
X92750000Y-64150000D02*
X92750000Y-62050000D01*
X99800000Y-61300000D02*
X103200000Y-57900000D01*
D16*
%TO.N,/GPIO13*%
X104825183Y-76726434D02*
X104825183Y-80196434D01*
X106655183Y-74896434D02*
X104825183Y-76726434D01*
X111055183Y-74896434D02*
X106655183Y-74896434D01*
%TO.N,/GPIO12*%
X102285183Y-80196434D02*
X102285183Y-76816434D01*
X102285183Y-76816434D02*
X105055183Y-74046434D01*
X110405183Y-74046434D02*
X105055183Y-74046434D01*
%TO.N,GND*%
X106305183Y-54356434D02*
X106975183Y-55026434D01*
X106305183Y-54186434D02*
X106305183Y-54356434D01*
%TD*%
%TA.AperFunction,Conductor*%
%TO.N,GND*%
G36*
X98297722Y-52666619D02*
G01*
X98343477Y-52719423D01*
X98354683Y-52770934D01*
X98354683Y-53772451D01*
X98354674Y-53772589D01*
X98354676Y-53795111D01*
X98354660Y-53795165D01*
X98354675Y-53925328D01*
X98354675Y-53925329D01*
X98385450Y-54079969D01*
X98385450Y-54079971D01*
X98445796Y-54225632D01*
X98445797Y-54225634D01*
X98445799Y-54225638D01*
X98533405Y-54356735D01*
X98533407Y-54356737D01*
X98533408Y-54356738D01*
X98533410Y-54356741D01*
X98629169Y-54452493D01*
X98644901Y-54468224D01*
X98776003Y-54555822D01*
X98921674Y-54616164D01*
X99076317Y-54646930D01*
X99080000Y-54646930D01*
X99089279Y-54646930D01*
X99089291Y-54646934D01*
X99155154Y-54646934D01*
X99155157Y-54646934D01*
X99221047Y-54646938D01*
X99221051Y-54646936D01*
X99229099Y-54646937D01*
X99229162Y-54646934D01*
X99994411Y-54646934D01*
X100061450Y-54666619D01*
X100107205Y-54719423D01*
X100117700Y-54757678D01*
X100121584Y-54793806D01*
X100121586Y-54793813D01*
X100171828Y-54928520D01*
X100171832Y-54928527D01*
X100257992Y-55043621D01*
X100257995Y-55043624D01*
X100373089Y-55129784D01*
X100373096Y-55129788D01*
X100507803Y-55180030D01*
X100507810Y-55180032D01*
X100567338Y-55186433D01*
X100567355Y-55186434D01*
X100615183Y-55186434D01*
X100615183Y-54601472D01*
X100615732Y-54599600D01*
X100615240Y-54597714D01*
X100625536Y-54566211D01*
X100634868Y-54534433D01*
X100636532Y-54532569D01*
X100636947Y-54531302D01*
X100643044Y-54525280D01*
X100660858Y-54505341D01*
X100665411Y-54501630D01*
X100715427Y-54468217D01*
X100755076Y-54428574D01*
X100759958Y-54424597D01*
X100786579Y-54413401D01*
X100811933Y-54399560D01*
X100818394Y-54400022D01*
X100824364Y-54397512D01*
X100852811Y-54402486D01*
X100881624Y-54404549D01*
X100886809Y-54408431D01*
X100893190Y-54409547D01*
X100914433Y-54429113D01*
X100937555Y-54446424D01*
X100939818Y-54452493D01*
X100944582Y-54456881D01*
X100951874Y-54484823D01*
X100961968Y-54511890D01*
X100962283Y-54520727D01*
X100962283Y-54701488D01*
X100971155Y-54746091D01*
X100971155Y-54746093D01*
X100974283Y-54750773D01*
X100995163Y-54817449D01*
X100995183Y-54819666D01*
X100995183Y-55186434D01*
X101043011Y-55186434D01*
X101043027Y-55186433D01*
X101102555Y-55180032D01*
X101102562Y-55180030D01*
X101237269Y-55129788D01*
X101237276Y-55129784D01*
X101352370Y-55043624D01*
X101352373Y-55043621D01*
X101438533Y-54928527D01*
X101443785Y-54914446D01*
X101485655Y-54858511D01*
X101551118Y-54834091D01*
X101584164Y-54836158D01*
X101600126Y-54839334D01*
X101923100Y-54839333D01*
X101931786Y-54841883D01*
X101940747Y-54840595D01*
X101964783Y-54851572D01*
X101990139Y-54859017D01*
X101996067Y-54865859D01*
X102004303Y-54869620D01*
X102018589Y-54891851D01*
X102035894Y-54911821D01*
X102038181Y-54922336D01*
X102042077Y-54928398D01*
X102047100Y-54963333D01*
X102047100Y-55043884D01*
X102027415Y-55110923D01*
X102010781Y-55131565D01*
X101131565Y-56010781D01*
X101070242Y-56044266D01*
X101043884Y-56047100D01*
X99394940Y-56047100D01*
X99327901Y-56027415D01*
X99287553Y-55985100D01*
X99242432Y-55906948D01*
X99242428Y-55906943D01*
X99139490Y-55804005D01*
X99139485Y-55804001D01*
X99013413Y-55731214D01*
X99013412Y-55731213D01*
X99013411Y-55731213D01*
X98872791Y-55693534D01*
X98727209Y-55693534D01*
X98586589Y-55731213D01*
X98586587Y-55731214D01*
X98586586Y-55731214D01*
X98460514Y-55804001D01*
X98460509Y-55804005D01*
X98357571Y-55906943D01*
X98357567Y-55906948D01*
X98284780Y-56033020D01*
X98284780Y-56033021D01*
X98284779Y-56033023D01*
X98247100Y-56173643D01*
X98247100Y-56319225D01*
X98284779Y-56459845D01*
X98284780Y-56459846D01*
X98284780Y-56459847D01*
X98357567Y-56585919D01*
X98357569Y-56585922D01*
X98357570Y-56585923D01*
X98460511Y-56688864D01*
X98586589Y-56761655D01*
X98727209Y-56799334D01*
X98727211Y-56799334D01*
X98872788Y-56799334D01*
X98872791Y-56799334D01*
X99013411Y-56761655D01*
X99139489Y-56688864D01*
X99239134Y-56589219D01*
X99300457Y-56555734D01*
X99326815Y-56552900D01*
X101149693Y-56552900D01*
X101149695Y-56552901D01*
X101250305Y-56552901D01*
X101250307Y-56552900D01*
X101543884Y-56552900D01*
X101610923Y-56572585D01*
X101631565Y-56589219D01*
X101978527Y-56936181D01*
X101978540Y-56936196D01*
X101985601Y-56943257D01*
X102056743Y-57014399D01*
X102111193Y-57036952D01*
X102149695Y-57052901D01*
X102250305Y-57052901D01*
X102250307Y-57052900D01*
X103677547Y-57052900D01*
X103677555Y-57052901D01*
X103691989Y-57052901D01*
X103792599Y-57052901D01*
X103819823Y-57041623D01*
X103831101Y-57036952D01*
X103831103Y-57036950D01*
X103885551Y-57014399D01*
X103956693Y-56943257D01*
X103956693Y-56943254D01*
X103968608Y-56931340D01*
X103968611Y-56931335D01*
X104613366Y-56286580D01*
X104674687Y-56253097D01*
X104718847Y-56254154D01*
X104719152Y-56251839D01*
X104727208Y-56252899D01*
X104727209Y-56252900D01*
X104727210Y-56252900D01*
X104872788Y-56252900D01*
X104872791Y-56252900D01*
X105013411Y-56215221D01*
X105139489Y-56142430D01*
X105242430Y-56039489D01*
X105315221Y-55913411D01*
X105352900Y-55772791D01*
X105352900Y-55627209D01*
X105315221Y-55486589D01*
X105242430Y-55360511D01*
X105139489Y-55257570D01*
X105103896Y-55237020D01*
X105096281Y-55232623D01*
X105087998Y-55223936D01*
X105077080Y-55218950D01*
X105064333Y-55199115D01*
X105048067Y-55182055D01*
X105044851Y-55168801D01*
X105039306Y-55160172D01*
X105034283Y-55125237D01*
X105034283Y-54963333D01*
X105053968Y-54896294D01*
X105106772Y-54850539D01*
X105158279Y-54839333D01*
X105510239Y-54839333D01*
X105526205Y-54836157D01*
X105595794Y-54842383D01*
X105650972Y-54885245D01*
X105666577Y-54914439D01*
X105671831Y-54928525D01*
X105671831Y-54928526D01*
X105757992Y-55043621D01*
X105757995Y-55043624D01*
X105873089Y-55129784D01*
X105873096Y-55129788D01*
X106007803Y-55180030D01*
X106007802Y-55180030D01*
X106014438Y-55180744D01*
X106078989Y-55207482D01*
X106118837Y-55264875D01*
X106125183Y-55304034D01*
X106125183Y-55649278D01*
X106131584Y-55708806D01*
X106131586Y-55708813D01*
X106181828Y-55843520D01*
X106181832Y-55843527D01*
X106267992Y-55958621D01*
X106267995Y-55958624D01*
X106383089Y-56044784D01*
X106383096Y-56044788D01*
X106517803Y-56095030D01*
X106517810Y-56095032D01*
X106577338Y-56101433D01*
X106577355Y-56101434D01*
X106725183Y-56101434D01*
X107225183Y-56101434D01*
X107373011Y-56101434D01*
X107373027Y-56101433D01*
X107432555Y-56095032D01*
X107432562Y-56095030D01*
X107567269Y-56044788D01*
X107567276Y-56044784D01*
X107682370Y-55958624D01*
X107682373Y-55958621D01*
X107768533Y-55843527D01*
X107768537Y-55843520D01*
X107818779Y-55708813D01*
X107818781Y-55708806D01*
X107825182Y-55649278D01*
X107825183Y-55649261D01*
X107825183Y-55276434D01*
X107225183Y-55276434D01*
X107225183Y-56101434D01*
X106725183Y-56101434D01*
X106725183Y-55150434D01*
X106744868Y-55083395D01*
X106797672Y-55037640D01*
X106849183Y-55026434D01*
X106975183Y-55026434D01*
X106975183Y-54900434D01*
X106994868Y-54833395D01*
X107047672Y-54787640D01*
X107099183Y-54776434D01*
X107825183Y-54776434D01*
X107825183Y-54770934D01*
X107827723Y-54762282D01*
X107826435Y-54753359D01*
X107837413Y-54729282D01*
X107844868Y-54703895D01*
X107851681Y-54697990D01*
X107855423Y-54689786D01*
X107877677Y-54675465D01*
X107897672Y-54658140D01*
X107908148Y-54655857D01*
X107914179Y-54651977D01*
X107948970Y-54646964D01*
X107949111Y-54646934D01*
X107955155Y-54646934D01*
X108021075Y-54646934D01*
X108021231Y-54646891D01*
X108028561Y-54646887D01*
X108029545Y-54646887D01*
X108029558Y-54646891D01*
X108029615Y-54646887D01*
X108033992Y-54646888D01*
X108188640Y-54616136D01*
X108334318Y-54555807D01*
X108465427Y-54468217D01*
X108576930Y-54356733D01*
X108664542Y-54225639D01*
X108712264Y-54110461D01*
X108724896Y-54079974D01*
X108724896Y-54079973D01*
X108724897Y-54079971D01*
X108755674Y-53925329D01*
X108755675Y-53912354D01*
X108755683Y-53912326D01*
X108755683Y-53846377D01*
X108755691Y-53780599D01*
X108755690Y-53780595D01*
X108755691Y-53772589D01*
X108755683Y-53772451D01*
X108755683Y-52770934D01*
X108775368Y-52703895D01*
X108828172Y-52658140D01*
X108879683Y-52646934D01*
X114930683Y-52646934D01*
X114997722Y-52666619D01*
X115043477Y-52719423D01*
X115054683Y-52770934D01*
X115054683Y-55272489D01*
X115054680Y-55280578D01*
X115054675Y-55280599D01*
X115054676Y-55293375D01*
X115054676Y-55295160D01*
X115054660Y-55295214D01*
X115054675Y-55425328D01*
X115054675Y-55425329D01*
X115085450Y-55579969D01*
X115085450Y-55579971D01*
X115145796Y-55725632D01*
X115145797Y-55725634D01*
X115145799Y-55725638D01*
X115233405Y-55856735D01*
X115233407Y-55856737D01*
X115233408Y-55856738D01*
X115233410Y-55856741D01*
X115330022Y-55953346D01*
X115344901Y-55968224D01*
X115476003Y-56055822D01*
X115621674Y-56116164D01*
X115776317Y-56146930D01*
X115780000Y-56146930D01*
X115789279Y-56146930D01*
X115789291Y-56146934D01*
X115855154Y-56146934D01*
X115855157Y-56146934D01*
X115921047Y-56146938D01*
X115921051Y-56146936D01*
X115929099Y-56146937D01*
X115929162Y-56146934D01*
X115930683Y-56146934D01*
X115997722Y-56166619D01*
X116043477Y-56219423D01*
X116054683Y-56270934D01*
X116054683Y-70636676D01*
X116034998Y-70703715D01*
X115982194Y-70749470D01*
X115913036Y-70759414D01*
X115849480Y-70730389D01*
X115843002Y-70724357D01*
X115734969Y-70616324D01*
X115563003Y-70491385D01*
X115373597Y-70394878D01*
X115373596Y-70394877D01*
X115373595Y-70394877D01*
X115171426Y-70329188D01*
X115171424Y-70329187D01*
X115171423Y-70329187D01*
X115010140Y-70303642D01*
X114961470Y-70295934D01*
X114748896Y-70295934D01*
X114700225Y-70303642D01*
X114538943Y-70329187D01*
X114336768Y-70394878D01*
X114147362Y-70491385D01*
X113975396Y-70616324D01*
X113825073Y-70766647D01*
X113700134Y-70938613D01*
X113603627Y-71128019D01*
X113537936Y-71330194D01*
X113509909Y-71507149D01*
X113504683Y-71540147D01*
X113504683Y-71752721D01*
X113510001Y-71786296D01*
X113534732Y-71942445D01*
X113537937Y-71962677D01*
X113590268Y-72123736D01*
X113603627Y-72164848D01*
X113700134Y-72354254D01*
X113825073Y-72526220D01*
X113975396Y-72676543D01*
X114147362Y-72801482D01*
X114147364Y-72801483D01*
X114147367Y-72801485D01*
X114336771Y-72897991D01*
X114538940Y-72963680D01*
X114748896Y-72996934D01*
X114748897Y-72996934D01*
X114961469Y-72996934D01*
X114961470Y-72996934D01*
X115171426Y-72963680D01*
X115373595Y-72897991D01*
X115562999Y-72801485D01*
X115593454Y-72779358D01*
X115734969Y-72676543D01*
X115734971Y-72676540D01*
X115734975Y-72676538D01*
X115843002Y-72568511D01*
X115904325Y-72535026D01*
X115974017Y-72540010D01*
X116029950Y-72581882D01*
X116054367Y-72647346D01*
X116054683Y-72656192D01*
X116054683Y-81521934D01*
X116034998Y-81588973D01*
X115982194Y-81634728D01*
X115930683Y-81645934D01*
X91179683Y-81645934D01*
X91112644Y-81626249D01*
X91066889Y-81573445D01*
X91055683Y-81521934D01*
X91055683Y-78568286D01*
X91472283Y-78568286D01*
X91472283Y-80631713D01*
X91487224Y-80726050D01*
X91487225Y-80726053D01*
X91487226Y-80726055D01*
X91500801Y-80752697D01*
X91545168Y-80839772D01*
X91545171Y-80839776D01*
X91635406Y-80930011D01*
X91635410Y-80930014D01*
X91635412Y-80930016D01*
X91749128Y-80987957D01*
X91749130Y-80987957D01*
X91749132Y-80987958D01*
X91843470Y-81002900D01*
X91843475Y-81002900D01*
X92406896Y-81002900D01*
X92501233Y-80987958D01*
X92501233Y-80987957D01*
X92501238Y-80987957D01*
X92614954Y-80930016D01*
X92705199Y-80839771D01*
X92763140Y-80726055D01*
X92763141Y-80726050D01*
X92778083Y-80631713D01*
X92778083Y-78568286D01*
X92763141Y-78473949D01*
X92763140Y-78473947D01*
X92763140Y-78473945D01*
X92705199Y-78360229D01*
X92705197Y-78360227D01*
X92705194Y-78360223D01*
X92614959Y-78269988D01*
X92614955Y-78269985D01*
X92614954Y-78269984D01*
X92501238Y-78212043D01*
X92501237Y-78212042D01*
X92501234Y-78212041D01*
X92458884Y-78205334D01*
X92395750Y-78175404D01*
X92358819Y-78116093D01*
X92354283Y-78082861D01*
X92354283Y-76676954D01*
X92373968Y-76609915D01*
X92426772Y-76564160D01*
X92495930Y-76554216D01*
X92559486Y-76583241D01*
X92585669Y-76614953D01*
X92586654Y-76616658D01*
X92657567Y-76739485D01*
X92657570Y-76739489D01*
X92760511Y-76842430D01*
X92760512Y-76842431D01*
X92760514Y-76842432D01*
X92819799Y-76876660D01*
X92886589Y-76915221D01*
X93027209Y-76952900D01*
X93027211Y-76952900D01*
X93172788Y-76952900D01*
X93172791Y-76952900D01*
X93313411Y-76915221D01*
X93439489Y-76842430D01*
X93542430Y-76739489D01*
X93615221Y-76613411D01*
X93652900Y-76472791D01*
X93652900Y-76327209D01*
X93638438Y-76273236D01*
X93640101Y-76203387D01*
X93670530Y-76153465D01*
X95281744Y-74542253D01*
X95343067Y-74508768D01*
X95369425Y-74505934D01*
X102267515Y-74505934D01*
X102267516Y-74505934D01*
X102267517Y-74505934D01*
X102292179Y-74495718D01*
X102302464Y-74491457D01*
X102337151Y-74487731D01*
X102371917Y-74483992D01*
X102371924Y-74483995D01*
X102371931Y-74483995D01*
X102399741Y-74497918D01*
X102434398Y-74515264D01*
X102434402Y-74515271D01*
X102434408Y-74515274D01*
X102449871Y-74541341D01*
X102470053Y-74575352D01*
X102470052Y-74575360D01*
X102470056Y-74575366D01*
X102468807Y-74610273D01*
X102467562Y-74645177D01*
X102467558Y-74645183D01*
X102467558Y-74645191D01*
X102467515Y-74645251D01*
X102437587Y-74693704D01*
X101896711Y-75234581D01*
X101835388Y-75268066D01*
X101809030Y-75270900D01*
X96156045Y-75270900D01*
X96138607Y-75278123D01*
X96121168Y-75285347D01*
X96071842Y-75305778D01*
X96071841Y-75305779D01*
X94470963Y-76906656D01*
X94470960Y-76906661D01*
X94451809Y-76952898D01*
X94451808Y-76952901D01*
X94436083Y-76990862D01*
X94436083Y-78082861D01*
X94416398Y-78149900D01*
X94363594Y-78195655D01*
X94331482Y-78205334D01*
X94289131Y-78212041D01*
X94175410Y-78269985D01*
X94175406Y-78269988D01*
X94085171Y-78360223D01*
X94085168Y-78360227D01*
X94027224Y-78473949D01*
X94012283Y-78568286D01*
X94012283Y-80631713D01*
X94027224Y-80726050D01*
X94027225Y-80726053D01*
X94027226Y-80726055D01*
X94040801Y-80752697D01*
X94085168Y-80839772D01*
X94085171Y-80839776D01*
X94175406Y-80930011D01*
X94175410Y-80930014D01*
X94175412Y-80930016D01*
X94289128Y-80987957D01*
X94289130Y-80987957D01*
X94289132Y-80987958D01*
X94383470Y-81002900D01*
X94383475Y-81002900D01*
X94946896Y-81002900D01*
X95041233Y-80987958D01*
X95041233Y-80987957D01*
X95041238Y-80987957D01*
X95154954Y-80930016D01*
X95245199Y-80839771D01*
X95303140Y-80726055D01*
X95303141Y-80726050D01*
X95318083Y-80631713D01*
X95318083Y-78568286D01*
X95303141Y-78473949D01*
X95303140Y-78473947D01*
X95303140Y-78473945D01*
X95245199Y-78360229D01*
X95245197Y-78360227D01*
X95245194Y-78360223D01*
X95154959Y-78269988D01*
X95154955Y-78269985D01*
X95154954Y-78269984D01*
X95041238Y-78212043D01*
X95041237Y-78212042D01*
X95041234Y-78212041D01*
X94998884Y-78205334D01*
X94935750Y-78175404D01*
X94898819Y-78116093D01*
X94894283Y-78082861D01*
X94894283Y-77182692D01*
X94913968Y-77115653D01*
X94930602Y-77095011D01*
X96260194Y-75765419D01*
X96321517Y-75731934D01*
X96347875Y-75729100D01*
X97599159Y-75729100D01*
X97666198Y-75748785D01*
X97711953Y-75801589D01*
X97721897Y-75870747D01*
X97692872Y-75934303D01*
X97686840Y-75940781D01*
X97010962Y-76616656D01*
X97010961Y-76616658D01*
X96986296Y-76676203D01*
X96976083Y-76700862D01*
X96976083Y-78082861D01*
X96956398Y-78149900D01*
X96903594Y-78195655D01*
X96871482Y-78205334D01*
X96829131Y-78212041D01*
X96715410Y-78269985D01*
X96715406Y-78269988D01*
X96625171Y-78360223D01*
X96625168Y-78360227D01*
X96567224Y-78473949D01*
X96552283Y-78568286D01*
X96552283Y-80631713D01*
X96567224Y-80726050D01*
X96567225Y-80726053D01*
X96567226Y-80726055D01*
X96580801Y-80752697D01*
X96625168Y-80839772D01*
X96625171Y-80839776D01*
X96715406Y-80930011D01*
X96715410Y-80930014D01*
X96715412Y-80930016D01*
X96829128Y-80987957D01*
X96829130Y-80987957D01*
X96829132Y-80987958D01*
X96923470Y-81002900D01*
X96923475Y-81002900D01*
X97486896Y-81002900D01*
X97581233Y-80987958D01*
X97581233Y-80987957D01*
X97581238Y-80987957D01*
X97694954Y-80930016D01*
X97785199Y-80839771D01*
X97843140Y-80726055D01*
X97843141Y-80726050D01*
X97858083Y-80631713D01*
X97858083Y-78568286D01*
X97843141Y-78473949D01*
X97843140Y-78473947D01*
X97843140Y-78473945D01*
X97785199Y-78360229D01*
X97785197Y-78360227D01*
X97785194Y-78360223D01*
X97694959Y-78269988D01*
X97694955Y-78269985D01*
X97694954Y-78269984D01*
X97581238Y-78212043D01*
X97581237Y-78212042D01*
X97581234Y-78212041D01*
X97538884Y-78205334D01*
X97475750Y-78175404D01*
X97438819Y-78116093D01*
X97434283Y-78082861D01*
X97434283Y-76892692D01*
X97453968Y-76825653D01*
X97470602Y-76805011D01*
X98167160Y-76108453D01*
X98228483Y-76074968D01*
X98254841Y-76072134D01*
X100056124Y-76072134D01*
X100123163Y-76091819D01*
X100168918Y-76144623D01*
X100178862Y-76213781D01*
X100149837Y-76277337D01*
X100143805Y-76283815D01*
X99550962Y-76876657D01*
X99550960Y-76876660D01*
X99526296Y-76936203D01*
X99516083Y-76960862D01*
X99516083Y-78082861D01*
X99496398Y-78149900D01*
X99443594Y-78195655D01*
X99411482Y-78205334D01*
X99369131Y-78212041D01*
X99255410Y-78269985D01*
X99255406Y-78269988D01*
X99165171Y-78360223D01*
X99165168Y-78360227D01*
X99107224Y-78473949D01*
X99092283Y-78568286D01*
X99092283Y-80631713D01*
X99107224Y-80726050D01*
X99107225Y-80726053D01*
X99107226Y-80726055D01*
X99120801Y-80752697D01*
X99165168Y-80839772D01*
X99165171Y-80839776D01*
X99255406Y-80930011D01*
X99255410Y-80930014D01*
X99255412Y-80930016D01*
X99369128Y-80987957D01*
X99369130Y-80987957D01*
X99369132Y-80987958D01*
X99463470Y-81002900D01*
X99463475Y-81002900D01*
X100026896Y-81002900D01*
X100121233Y-80987958D01*
X100121233Y-80987957D01*
X100121238Y-80987957D01*
X100234954Y-80930016D01*
X100325199Y-80839771D01*
X100383140Y-80726055D01*
X100383141Y-80726050D01*
X100398083Y-80631713D01*
X100398083Y-78568286D01*
X100383141Y-78473949D01*
X100383140Y-78473947D01*
X100383140Y-78473945D01*
X100325199Y-78360229D01*
X100325197Y-78360227D01*
X100325194Y-78360223D01*
X100234959Y-78269988D01*
X100234955Y-78269985D01*
X100234954Y-78269984D01*
X100121238Y-78212043D01*
X100121237Y-78212042D01*
X100121234Y-78212041D01*
X100078884Y-78205334D01*
X100015750Y-78175404D01*
X99978819Y-78116093D01*
X99974283Y-78082861D01*
X99974283Y-77152693D01*
X99993968Y-77085654D01*
X100010602Y-77065012D01*
X100613761Y-76461853D01*
X100675084Y-76428368D01*
X100701442Y-76425534D01*
X102052724Y-76425534D01*
X102119763Y-76445219D01*
X102165518Y-76498023D01*
X102175462Y-76567181D01*
X102154826Y-76619898D01*
X102148405Y-76629214D01*
X102090961Y-76686659D01*
X102069079Y-76739489D01*
X102064062Y-76751599D01*
X102064060Y-76751603D01*
X102056083Y-76770862D01*
X102056083Y-78082861D01*
X102036398Y-78149900D01*
X101983594Y-78195655D01*
X101951482Y-78205334D01*
X101909131Y-78212041D01*
X101795410Y-78269985D01*
X101795406Y-78269988D01*
X101705171Y-78360223D01*
X101705168Y-78360227D01*
X101647224Y-78473949D01*
X101632283Y-78568286D01*
X101632283Y-80631713D01*
X101647224Y-80726050D01*
X101647225Y-80726053D01*
X101647226Y-80726055D01*
X101660801Y-80752697D01*
X101705168Y-80839772D01*
X101705171Y-80839776D01*
X101795406Y-80930011D01*
X101795410Y-80930014D01*
X101795412Y-80930016D01*
X101909128Y-80987957D01*
X101909130Y-80987957D01*
X101909132Y-80987958D01*
X102003470Y-81002900D01*
X102003475Y-81002900D01*
X102566896Y-81002900D01*
X102661233Y-80987958D01*
X102661233Y-80987957D01*
X102661238Y-80987957D01*
X102774954Y-80930016D01*
X102865199Y-80839771D01*
X102923140Y-80726055D01*
X102923141Y-80726050D01*
X102938083Y-80631713D01*
X102938083Y-78568286D01*
X102923141Y-78473949D01*
X102923140Y-78473947D01*
X102923140Y-78473945D01*
X102865199Y-78360229D01*
X102865197Y-78360227D01*
X102865194Y-78360223D01*
X102774959Y-78269988D01*
X102774955Y-78269985D01*
X102774954Y-78269984D01*
X102661238Y-78212043D01*
X102661237Y-78212042D01*
X102661234Y-78212041D01*
X102618884Y-78205334D01*
X102555750Y-78175404D01*
X102518819Y-78116093D01*
X102514283Y-78082861D01*
X102514283Y-76962692D01*
X102533968Y-76895653D01*
X102550602Y-76875011D01*
X105113760Y-74311853D01*
X105175083Y-74278368D01*
X105201441Y-74275534D01*
X109827429Y-74275534D01*
X109894468Y-74295219D01*
X109923492Y-74321125D01*
X109929813Y-74328869D01*
X109962753Y-74385923D01*
X110036912Y-74460082D01*
X110040865Y-74464925D01*
X110052104Y-74491586D01*
X110065968Y-74516976D01*
X110065509Y-74523386D01*
X110068006Y-74529308D01*
X110063047Y-74557809D01*
X110060984Y-74586668D01*
X110057132Y-74591813D01*
X110056031Y-74598144D01*
X110036447Y-74619443D01*
X110019112Y-74642601D01*
X110013092Y-74644846D01*
X110008742Y-74649578D01*
X109980751Y-74656908D01*
X109953648Y-74667018D01*
X109944802Y-74667334D01*
X106609611Y-74667334D01*
X106592173Y-74674557D01*
X106574734Y-74681781D01*
X106525408Y-74702212D01*
X106525407Y-74702213D01*
X104630963Y-76596656D01*
X104630961Y-76596658D01*
X104630961Y-76596659D01*
X104621336Y-76619898D01*
X104617525Y-76629098D01*
X104617524Y-76629101D01*
X104596083Y-76680862D01*
X104596083Y-78082861D01*
X104576398Y-78149900D01*
X104523594Y-78195655D01*
X104491482Y-78205334D01*
X104449131Y-78212041D01*
X104335410Y-78269985D01*
X104335406Y-78269988D01*
X104245171Y-78360223D01*
X104245168Y-78360227D01*
X104187224Y-78473949D01*
X104172283Y-78568286D01*
X104172283Y-80631713D01*
X104187224Y-80726050D01*
X104187225Y-80726053D01*
X104187226Y-80726055D01*
X104200801Y-80752697D01*
X104245168Y-80839772D01*
X104245171Y-80839776D01*
X104335406Y-80930011D01*
X104335410Y-80930014D01*
X104335412Y-80930016D01*
X104449128Y-80987957D01*
X104449130Y-80987957D01*
X104449132Y-80987958D01*
X104543470Y-81002900D01*
X104543475Y-81002900D01*
X105106896Y-81002900D01*
X105201233Y-80987958D01*
X105201233Y-80987957D01*
X105201238Y-80987957D01*
X105314954Y-80930016D01*
X105405199Y-80839771D01*
X105463140Y-80726055D01*
X105463141Y-80726050D01*
X105475189Y-80649986D01*
X106365184Y-80649986D01*
X106375677Y-80752697D01*
X106430824Y-80919119D01*
X106430826Y-80919124D01*
X106522867Y-81068345D01*
X106646837Y-81192315D01*
X106796058Y-81284356D01*
X106796063Y-81284358D01*
X106962485Y-81339505D01*
X106962492Y-81339506D01*
X107065202Y-81349999D01*
X107615183Y-81349999D01*
X107665155Y-81349999D01*
X107665169Y-81349998D01*
X107767880Y-81339505D01*
X107934302Y-81284358D01*
X107934307Y-81284356D01*
X108083528Y-81192315D01*
X108207498Y-81068345D01*
X108299539Y-80919124D01*
X108299541Y-80919119D01*
X108354688Y-80752697D01*
X108354689Y-80752690D01*
X108365182Y-80649986D01*
X108365183Y-80649973D01*
X108365183Y-79850000D01*
X107615183Y-79850000D01*
X107615183Y-81349999D01*
X107065202Y-81349999D01*
X107115182Y-81349998D01*
X107115183Y-81349998D01*
X107115183Y-79850000D01*
X106365184Y-79850000D01*
X106365184Y-80649986D01*
X105475189Y-80649986D01*
X105478083Y-80631713D01*
X105478083Y-78568287D01*
X105477763Y-78566268D01*
X105477763Y-78566266D01*
X105477762Y-78566262D01*
X105475188Y-78550013D01*
X106365183Y-78550013D01*
X106365183Y-79350000D01*
X107115183Y-79350000D01*
X107615183Y-79350000D01*
X108365182Y-79350000D01*
X108365182Y-78550028D01*
X108365181Y-78550013D01*
X108354688Y-78447302D01*
X108299541Y-78280880D01*
X108299539Y-78280875D01*
X108207498Y-78131654D01*
X108083528Y-78007684D01*
X107934307Y-77915643D01*
X107934302Y-77915641D01*
X107767880Y-77860494D01*
X107767873Y-77860493D01*
X107665169Y-77850000D01*
X107615183Y-77850000D01*
X107615183Y-79350000D01*
X107115183Y-79350000D01*
X107115183Y-77850000D01*
X107115182Y-77849999D01*
X107065212Y-77850000D01*
X107065194Y-77850001D01*
X106962485Y-77860494D01*
X106796063Y-77915641D01*
X106796058Y-77915643D01*
X106646837Y-78007684D01*
X106522867Y-78131654D01*
X106430826Y-78280875D01*
X106430824Y-78280880D01*
X106375677Y-78447302D01*
X106375676Y-78447309D01*
X106365183Y-78550013D01*
X105475188Y-78550013D01*
X105463141Y-78473949D01*
X105463140Y-78473947D01*
X105463140Y-78473945D01*
X105405199Y-78360229D01*
X105405197Y-78360227D01*
X105405194Y-78360223D01*
X105314959Y-78269988D01*
X105314955Y-78269985D01*
X105314954Y-78269984D01*
X105201238Y-78212043D01*
X105201237Y-78212042D01*
X105201234Y-78212041D01*
X105158884Y-78205334D01*
X105095750Y-78175404D01*
X105058819Y-78116093D01*
X105054283Y-78082861D01*
X105054283Y-76872692D01*
X105073968Y-76805653D01*
X105090602Y-76785011D01*
X106713760Y-75161853D01*
X106775083Y-75128368D01*
X106801441Y-75125534D01*
X110477429Y-75125534D01*
X110544468Y-75145219D01*
X110584815Y-75187533D01*
X110612753Y-75235923D01*
X110715694Y-75338864D01*
X110841772Y-75411655D01*
X110982392Y-75449334D01*
X110982394Y-75449334D01*
X111127971Y-75449334D01*
X111127974Y-75449334D01*
X111268594Y-75411655D01*
X111333949Y-75373922D01*
X111401847Y-75357450D01*
X111467874Y-75380302D01*
X111511064Y-75435223D01*
X111517706Y-75504777D01*
X111485690Y-75566879D01*
X111483628Y-75568991D01*
X109710962Y-77341657D01*
X109710960Y-77341660D01*
X109686296Y-77401203D01*
X109676083Y-77425862D01*
X109676083Y-78082861D01*
X109656398Y-78149900D01*
X109603594Y-78195655D01*
X109571482Y-78205334D01*
X109529131Y-78212041D01*
X109415410Y-78269985D01*
X109415406Y-78269988D01*
X109325171Y-78360223D01*
X109325168Y-78360227D01*
X109267224Y-78473949D01*
X109252283Y-78568286D01*
X109252283Y-80631713D01*
X109267224Y-80726050D01*
X109267225Y-80726053D01*
X109267226Y-80726055D01*
X109280801Y-80752697D01*
X109325168Y-80839772D01*
X109325171Y-80839776D01*
X109415406Y-80930011D01*
X109415410Y-80930014D01*
X109415412Y-80930016D01*
X109529128Y-80987957D01*
X109529130Y-80987957D01*
X109529132Y-80987958D01*
X109623470Y-81002900D01*
X109623475Y-81002900D01*
X110186896Y-81002900D01*
X110281233Y-80987958D01*
X110281233Y-80987957D01*
X110281238Y-80987957D01*
X110394954Y-80930016D01*
X110485199Y-80839771D01*
X110543140Y-80726055D01*
X110543141Y-80726050D01*
X110558083Y-80631713D01*
X110558083Y-78568286D01*
X110543141Y-78473949D01*
X110543140Y-78473947D01*
X110543140Y-78473945D01*
X110485199Y-78360229D01*
X110485197Y-78360227D01*
X110485194Y-78360223D01*
X110394959Y-78269988D01*
X110394955Y-78269985D01*
X110394954Y-78269984D01*
X110281238Y-78212043D01*
X110281237Y-78212042D01*
X110281234Y-78212041D01*
X110238884Y-78205334D01*
X110175750Y-78175404D01*
X110138819Y-78116093D01*
X110134283Y-78082861D01*
X110134283Y-77617693D01*
X110153968Y-77550654D01*
X110170602Y-77530012D01*
X112002858Y-75697756D01*
X112005517Y-75700415D01*
X112042588Y-75669433D01*
X112111912Y-75660722D01*
X112174941Y-75690873D01*
X112211663Y-75750315D01*
X112216083Y-75783126D01*
X112216083Y-78082861D01*
X112196398Y-78149900D01*
X112143594Y-78195655D01*
X112111482Y-78205334D01*
X112069131Y-78212041D01*
X111955410Y-78269985D01*
X111955406Y-78269988D01*
X111865171Y-78360223D01*
X111865168Y-78360227D01*
X111807224Y-78473949D01*
X111792283Y-78568286D01*
X111792283Y-80631713D01*
X111807224Y-80726050D01*
X111807225Y-80726053D01*
X111807226Y-80726055D01*
X111820801Y-80752697D01*
X111865168Y-80839772D01*
X111865171Y-80839776D01*
X111955406Y-80930011D01*
X111955410Y-80930014D01*
X111955412Y-80930016D01*
X112069128Y-80987957D01*
X112069130Y-80987957D01*
X112069132Y-80987958D01*
X112163470Y-81002900D01*
X112163475Y-81002900D01*
X112726896Y-81002900D01*
X112821233Y-80987958D01*
X112821233Y-80987957D01*
X112821238Y-80987957D01*
X112934954Y-80930016D01*
X113025199Y-80839771D01*
X113083140Y-80726055D01*
X113083141Y-80726050D01*
X113098083Y-80631713D01*
X113098083Y-78568286D01*
X113083141Y-78473949D01*
X113083140Y-78473947D01*
X113083140Y-78473945D01*
X113025199Y-78360229D01*
X113025197Y-78360227D01*
X113025194Y-78360223D01*
X112934959Y-78269988D01*
X112934955Y-78269985D01*
X112934954Y-78269984D01*
X112821238Y-78212043D01*
X112821237Y-78212042D01*
X112821234Y-78212041D01*
X112778884Y-78205334D01*
X112715750Y-78175404D01*
X112678819Y-78116093D01*
X112674283Y-78082861D01*
X112674283Y-74138893D01*
X112693968Y-74071854D01*
X112746772Y-74026099D01*
X112815930Y-74016155D01*
X112879486Y-74045180D01*
X112885964Y-74051212D01*
X114719764Y-75885012D01*
X114753249Y-75946335D01*
X114756083Y-75972693D01*
X114756083Y-78082861D01*
X114736398Y-78149900D01*
X114683594Y-78195655D01*
X114651482Y-78205334D01*
X114609131Y-78212041D01*
X114495410Y-78269985D01*
X114495406Y-78269988D01*
X114405171Y-78360223D01*
X114405168Y-78360227D01*
X114347224Y-78473949D01*
X114332283Y-78568286D01*
X114332283Y-80631713D01*
X114347224Y-80726050D01*
X114347225Y-80726053D01*
X114347226Y-80726055D01*
X114360801Y-80752697D01*
X114405168Y-80839772D01*
X114405171Y-80839776D01*
X114495406Y-80930011D01*
X114495410Y-80930014D01*
X114495412Y-80930016D01*
X114609128Y-80987957D01*
X114609130Y-80987957D01*
X114609132Y-80987958D01*
X114703470Y-81002900D01*
X114703475Y-81002900D01*
X115266896Y-81002900D01*
X115361233Y-80987958D01*
X115361233Y-80987957D01*
X115361238Y-80987957D01*
X115474954Y-80930016D01*
X115565199Y-80839771D01*
X115623140Y-80726055D01*
X115623141Y-80726050D01*
X115638083Y-80631713D01*
X115638083Y-78568286D01*
X115623141Y-78473949D01*
X115623140Y-78473947D01*
X115623140Y-78473945D01*
X115565199Y-78360229D01*
X115565197Y-78360227D01*
X115565194Y-78360223D01*
X115474959Y-78269988D01*
X115474955Y-78269985D01*
X115474954Y-78269984D01*
X115361238Y-78212043D01*
X115361237Y-78212042D01*
X115361234Y-78212041D01*
X115318884Y-78205334D01*
X115255750Y-78175404D01*
X115218819Y-78116093D01*
X115214283Y-78082861D01*
X115214283Y-75780864D01*
X115214283Y-75780863D01*
X115192842Y-75729100D01*
X115179405Y-75696659D01*
X112665419Y-73182673D01*
X112631934Y-73121350D01*
X112629100Y-73094992D01*
X112629100Y-70557547D01*
X112648785Y-70490508D01*
X112665419Y-70469866D01*
X113065062Y-70070223D01*
X114749405Y-68385880D01*
X114784283Y-68301675D01*
X114784283Y-68210535D01*
X114784283Y-60750863D01*
X114749404Y-60666659D01*
X114684958Y-60602213D01*
X111634958Y-57552212D01*
X111575416Y-57527549D01*
X111575415Y-57527548D01*
X111550754Y-57517334D01*
X106509612Y-57517334D01*
X106509611Y-57517334D01*
X106425407Y-57552213D01*
X104560960Y-59416659D01*
X104548385Y-59447018D01*
X104541019Y-59464804D01*
X104541019Y-59464805D01*
X104526083Y-59500861D01*
X104526083Y-60122245D01*
X104506398Y-60189284D01*
X104464085Y-60229631D01*
X104415692Y-60257571D01*
X104312754Y-60360509D01*
X104312750Y-60360514D01*
X104239963Y-60486586D01*
X104239963Y-60486587D01*
X104239962Y-60486589D01*
X104202283Y-60627209D01*
X104202283Y-60772791D01*
X104239962Y-60913411D01*
X104239963Y-60913412D01*
X104239963Y-60913413D01*
X104312750Y-61039485D01*
X104312752Y-61039488D01*
X104312753Y-61039489D01*
X104415694Y-61142430D01*
X104415695Y-61142431D01*
X104415697Y-61142432D01*
X104478733Y-61178825D01*
X104541772Y-61215221D01*
X104682392Y-61252900D01*
X104682394Y-61252900D01*
X104827971Y-61252900D01*
X104827974Y-61252900D01*
X104968594Y-61215221D01*
X105094672Y-61142430D01*
X105197613Y-61039489D01*
X105270404Y-60913411D01*
X105308083Y-60772791D01*
X105308083Y-60627209D01*
X105270404Y-60486589D01*
X105197613Y-60360511D01*
X105094672Y-60257570D01*
X105072390Y-60244705D01*
X105046281Y-60229631D01*
X104998066Y-60179063D01*
X104984283Y-60122245D01*
X104984283Y-59692692D01*
X105003968Y-59625653D01*
X105020602Y-59605011D01*
X105288679Y-59336934D01*
X105619338Y-59006274D01*
X105680659Y-58972791D01*
X105750350Y-58977775D01*
X105806284Y-59019646D01*
X105830701Y-59085111D01*
X105819646Y-59145829D01*
X105813605Y-59158944D01*
X105810961Y-59161589D01*
X105799138Y-59190134D01*
X105798221Y-59192346D01*
X105798219Y-59192352D01*
X105776083Y-59245792D01*
X105776083Y-59418679D01*
X105756398Y-59485718D01*
X105714085Y-59526065D01*
X105665692Y-59554005D01*
X105562754Y-59656943D01*
X105562750Y-59656948D01*
X105489963Y-59783020D01*
X105489963Y-59783021D01*
X105489962Y-59783023D01*
X105452283Y-59923643D01*
X105452283Y-60069225D01*
X105489962Y-60209845D01*
X105489963Y-60209846D01*
X105489963Y-60209847D01*
X105562750Y-60335919D01*
X105562752Y-60335922D01*
X105562753Y-60335923D01*
X105665694Y-60438864D01*
X105791772Y-60511655D01*
X105932392Y-60549334D01*
X105932394Y-60549334D01*
X106008128Y-60549334D01*
X106075167Y-60569019D01*
X106120922Y-60621823D01*
X106132128Y-60673334D01*
X106132128Y-60802584D01*
X106169807Y-60943204D01*
X106169808Y-60943205D01*
X106169808Y-60943206D01*
X106242595Y-61069278D01*
X106242597Y-61069281D01*
X106242598Y-61069282D01*
X106345539Y-61172223D01*
X106471617Y-61245014D01*
X106612237Y-61282693D01*
X106612239Y-61282693D01*
X106757816Y-61282693D01*
X106757819Y-61282693D01*
X106898439Y-61245014D01*
X107024517Y-61172223D01*
X107127458Y-61069282D01*
X107200249Y-60943204D01*
X107237928Y-60802584D01*
X107237928Y-60657002D01*
X107200249Y-60516382D01*
X107127458Y-60390304D01*
X107024517Y-60287363D01*
X107012408Y-60280372D01*
X106973481Y-60257896D01*
X106925266Y-60207328D01*
X106911483Y-60150510D01*
X106911483Y-59565492D01*
X106931168Y-59498453D01*
X106947802Y-59477811D01*
X107463760Y-58961853D01*
X107525083Y-58928368D01*
X107551441Y-58925534D01*
X110408924Y-58925534D01*
X110475963Y-58945219D01*
X110496605Y-58961853D01*
X113728964Y-62194212D01*
X113762449Y-62255535D01*
X113765283Y-62281893D01*
X113765283Y-67859357D01*
X113745598Y-67926396D01*
X113728964Y-67947038D01*
X113451948Y-68224054D01*
X113390625Y-68257539D01*
X113320933Y-68252555D01*
X113265000Y-68210683D01*
X113244493Y-68168468D01*
X113215221Y-68059223D01*
X113142430Y-67933145D01*
X113039489Y-67830204D01*
X113017207Y-67817339D01*
X112991098Y-67802265D01*
X112942883Y-67751697D01*
X112929100Y-67694879D01*
X112929100Y-65677754D01*
X112948785Y-65610715D01*
X112991100Y-65570366D01*
X113039489Y-65542430D01*
X113142430Y-65439489D01*
X113215221Y-65313411D01*
X113252900Y-65172791D01*
X113252900Y-65027209D01*
X113215221Y-64886589D01*
X113142430Y-64760511D01*
X113039489Y-64657570D01*
X113039488Y-64657569D01*
X113039485Y-64657567D01*
X112913413Y-64584780D01*
X112913412Y-64584779D01*
X112913411Y-64584779D01*
X112772791Y-64547100D01*
X112627209Y-64547100D01*
X112486589Y-64584779D01*
X112486587Y-64584780D01*
X112486586Y-64584780D01*
X112360514Y-64657567D01*
X112360509Y-64657571D01*
X112257571Y-64760509D01*
X112257567Y-64760514D01*
X112184780Y-64886586D01*
X112184780Y-64886587D01*
X112184779Y-64886589D01*
X112147100Y-65027209D01*
X112147100Y-65172791D01*
X112184779Y-65313411D01*
X112184780Y-65313412D01*
X112184780Y-65313413D01*
X112257567Y-65439485D01*
X112257569Y-65439488D01*
X112257570Y-65439489D01*
X112360511Y-65542430D01*
X112408899Y-65570366D01*
X112457115Y-65620933D01*
X112470900Y-65677754D01*
X112470900Y-67694879D01*
X112451215Y-67761918D01*
X112408902Y-67802265D01*
X112360509Y-67830205D01*
X112257571Y-67933143D01*
X112257567Y-67933148D01*
X112207387Y-68020064D01*
X112156820Y-68068280D01*
X112088213Y-68081503D01*
X112023348Y-68055535D01*
X111992613Y-68020064D01*
X111942432Y-67933148D01*
X111942428Y-67933143D01*
X111839490Y-67830205D01*
X111839489Y-67830204D01*
X111817207Y-67817339D01*
X111791098Y-67802265D01*
X111742883Y-67751697D01*
X111729100Y-67694879D01*
X111729100Y-66877754D01*
X111748785Y-66810715D01*
X111791100Y-66770366D01*
X111839489Y-66742430D01*
X111942430Y-66639489D01*
X112015221Y-66513411D01*
X112052900Y-66372791D01*
X112052900Y-66227209D01*
X112015221Y-66086589D01*
X111942430Y-65960511D01*
X111839489Y-65857570D01*
X111839488Y-65857569D01*
X111839485Y-65857567D01*
X111713413Y-65784780D01*
X111713412Y-65784779D01*
X111713411Y-65784779D01*
X111572791Y-65747100D01*
X111427209Y-65747100D01*
X111286589Y-65784779D01*
X111286587Y-65784780D01*
X111286586Y-65784780D01*
X111160514Y-65857567D01*
X111160509Y-65857571D01*
X111057571Y-65960509D01*
X111057567Y-65960514D01*
X110984780Y-66086586D01*
X110984780Y-66086587D01*
X110984779Y-66086589D01*
X110947100Y-66227209D01*
X110947100Y-66372791D01*
X110984779Y-66513411D01*
X110984780Y-66513412D01*
X110984780Y-66513413D01*
X111057567Y-66639485D01*
X111057569Y-66639488D01*
X111057570Y-66639489D01*
X111160511Y-66742430D01*
X111208899Y-66770366D01*
X111257115Y-66820933D01*
X111270900Y-66877754D01*
X111270900Y-67694879D01*
X111251215Y-67761918D01*
X111208902Y-67802265D01*
X111160509Y-67830205D01*
X111057571Y-67933143D01*
X111057567Y-67933148D01*
X110984780Y-68059220D01*
X110984780Y-68059221D01*
X110984779Y-68059223D01*
X110947100Y-68199843D01*
X110947100Y-68345425D01*
X110984779Y-68486045D01*
X110984780Y-68486046D01*
X110984780Y-68486047D01*
X111057567Y-68612119D01*
X111057569Y-68612122D01*
X111057570Y-68612123D01*
X111160511Y-68715064D01*
X111286589Y-68787855D01*
X111427209Y-68825534D01*
X111427211Y-68825534D01*
X111572788Y-68825534D01*
X111572791Y-68825534D01*
X111713411Y-68787855D01*
X111839489Y-68715064D01*
X111942430Y-68612123D01*
X111992613Y-68525204D01*
X112043179Y-68476988D01*
X112111786Y-68463764D01*
X112176651Y-68489732D01*
X112207387Y-68525204D01*
X112257565Y-68612116D01*
X112257569Y-68612121D01*
X112257570Y-68612123D01*
X112360511Y-68715064D01*
X112486589Y-68787855D01*
X112595833Y-68817127D01*
X112655492Y-68853491D01*
X112686021Y-68916338D01*
X112677726Y-68985714D01*
X112651419Y-69024582D01*
X111605779Y-70070223D01*
X111605777Y-70070226D01*
X111581113Y-70129769D01*
X111570900Y-70154428D01*
X111570900Y-74340974D01*
X111551215Y-74408013D01*
X111498411Y-74453768D01*
X111429253Y-74463712D01*
X111384901Y-74448362D01*
X111268594Y-74381213D01*
X111258465Y-74378499D01*
X111127974Y-74343534D01*
X111059579Y-74343534D01*
X110992540Y-74323849D01*
X110946785Y-74271045D01*
X110936841Y-74201887D01*
X110939801Y-74187453D01*
X110958083Y-74119225D01*
X110958083Y-73973643D01*
X110920404Y-73833023D01*
X110847613Y-73706945D01*
X110744672Y-73604004D01*
X110744671Y-73604003D01*
X110744668Y-73604001D01*
X110636081Y-73541309D01*
X110587866Y-73490742D01*
X110574642Y-73422135D01*
X110600610Y-73357271D01*
X110657524Y-73316742D01*
X110665957Y-73314156D01*
X110768594Y-73286655D01*
X110894672Y-73213864D01*
X110997613Y-73110923D01*
X111070404Y-72984845D01*
X111108083Y-72844225D01*
X111108083Y-72698643D01*
X111070404Y-72558023D01*
X111010787Y-72454763D01*
X110997615Y-72431948D01*
X110997611Y-72431943D01*
X110894673Y-72329005D01*
X110894668Y-72329001D01*
X110768596Y-72256214D01*
X110768595Y-72256213D01*
X110768594Y-72256213D01*
X110627974Y-72218534D01*
X110482392Y-72218534D01*
X110389176Y-72243511D01*
X110319326Y-72241848D01*
X110261464Y-72202685D01*
X110233960Y-72138457D01*
X110233083Y-72123736D01*
X110233083Y-72123645D01*
X110233083Y-72123643D01*
X110195404Y-71983023D01*
X110122613Y-71856945D01*
X110019672Y-71754004D01*
X110019671Y-71754003D01*
X110019668Y-71754001D01*
X109893596Y-71681214D01*
X109893595Y-71681213D01*
X109893594Y-71681213D01*
X109752974Y-71643534D01*
X109607392Y-71643534D01*
X109466772Y-71681213D01*
X109466770Y-71681214D01*
X109466769Y-71681214D01*
X109455253Y-71687863D01*
X109387352Y-71704333D01*
X109321326Y-71681479D01*
X109278137Y-71626557D01*
X109273481Y-71612566D01*
X109270723Y-71602273D01*
X109270721Y-71602270D01*
X109197932Y-71476194D01*
X109094991Y-71373253D01*
X109094990Y-71373252D01*
X109094987Y-71373250D01*
X108968915Y-71300463D01*
X108968914Y-71300462D01*
X108968913Y-71300462D01*
X108828293Y-71262783D01*
X108682711Y-71262783D01*
X108542091Y-71300462D01*
X108542089Y-71300463D01*
X108542088Y-71300463D01*
X108416016Y-71373250D01*
X108416011Y-71373254D01*
X108313073Y-71476192D01*
X108313069Y-71476197D01*
X108240282Y-71602269D01*
X108240282Y-71602270D01*
X108240281Y-71602272D01*
X108202602Y-71742892D01*
X108202602Y-71742894D01*
X108202602Y-71888475D01*
X108217063Y-71942445D01*
X108215400Y-72012294D01*
X108184969Y-72062218D01*
X107912607Y-72334581D01*
X107851284Y-72368066D01*
X107824926Y-72370900D01*
X104809717Y-72370900D01*
X104782991Y-72381971D01*
X104782991Y-72381970D01*
X104725516Y-72405777D01*
X104725512Y-72405780D01*
X104338562Y-72792729D01*
X104277239Y-72826214D01*
X104207547Y-72821230D01*
X104151614Y-72779358D01*
X104131107Y-72737144D01*
X104116809Y-72683781D01*
X104050258Y-72568511D01*
X104044020Y-72557706D01*
X104044016Y-72557701D01*
X103941078Y-72454763D01*
X103941073Y-72454759D01*
X103815001Y-72381972D01*
X103815000Y-72381971D01*
X103814999Y-72381971D01*
X103674379Y-72344292D01*
X103528797Y-72344292D01*
X103388177Y-72381971D01*
X103388175Y-72381972D01*
X103388174Y-72381972D01*
X103262102Y-72454759D01*
X103262097Y-72454763D01*
X103159159Y-72557701D01*
X103159155Y-72557706D01*
X103086368Y-72683778D01*
X103086368Y-72683779D01*
X103086367Y-72683781D01*
X103048688Y-72824401D01*
X103048688Y-72824403D01*
X103048688Y-72969984D01*
X103063149Y-73023954D01*
X103061486Y-73093803D01*
X103031055Y-73143727D01*
X102163368Y-74011415D01*
X102102045Y-74044900D01*
X102075687Y-74047734D01*
X101452242Y-74047734D01*
X101385203Y-74028049D01*
X101339448Y-73975245D01*
X101329504Y-73906087D01*
X101358529Y-73842531D01*
X101364561Y-73836053D01*
X102324402Y-72876211D01*
X102324403Y-72876210D01*
X102324402Y-72876210D01*
X102324404Y-72876209D01*
X102343237Y-72830743D01*
X102359283Y-72792005D01*
X102359283Y-71574188D01*
X102378968Y-71507149D01*
X102421283Y-71466800D01*
X102469672Y-71438864D01*
X102572613Y-71335923D01*
X102645404Y-71209845D01*
X102683083Y-71069225D01*
X102683083Y-70923643D01*
X102645404Y-70783023D01*
X102572613Y-70656945D01*
X102469672Y-70554004D01*
X102469671Y-70554003D01*
X102469668Y-70554001D01*
X102343596Y-70481214D01*
X102343595Y-70481213D01*
X102343594Y-70481213D01*
X102202974Y-70443534D01*
X102057392Y-70443534D01*
X101916772Y-70481213D01*
X101916770Y-70481214D01*
X101916769Y-70481214D01*
X101790697Y-70554001D01*
X101790692Y-70554005D01*
X101687754Y-70656943D01*
X101687750Y-70656948D01*
X101614963Y-70783020D01*
X101614963Y-70783021D01*
X101614962Y-70783023D01*
X101577283Y-70923643D01*
X101577283Y-71069225D01*
X101614962Y-71209845D01*
X101614963Y-71209846D01*
X101614963Y-71209847D01*
X101687750Y-71335919D01*
X101687752Y-71335922D01*
X101687753Y-71335923D01*
X101790694Y-71438864D01*
X101839082Y-71466800D01*
X101887298Y-71517367D01*
X101901083Y-71574188D01*
X101901083Y-72600175D01*
X101881398Y-72667214D01*
X101864764Y-72687856D01*
X101018039Y-73534581D01*
X100956716Y-73568066D01*
X100930358Y-73570900D01*
X93948339Y-73570900D01*
X93887904Y-73595934D01*
X93887903Y-73595933D01*
X93864137Y-73605778D01*
X93864134Y-73605780D01*
X91930960Y-75538953D01*
X91919394Y-75566879D01*
X91906779Y-75597334D01*
X91906779Y-75597335D01*
X91896083Y-75623155D01*
X91896083Y-78082861D01*
X91876398Y-78149900D01*
X91823594Y-78195655D01*
X91791482Y-78205334D01*
X91749131Y-78212041D01*
X91635410Y-78269985D01*
X91635406Y-78269988D01*
X91545171Y-78360223D01*
X91545168Y-78360227D01*
X91487224Y-78473949D01*
X91472283Y-78568286D01*
X91055683Y-78568286D01*
X91055683Y-72656192D01*
X91075368Y-72589153D01*
X91128172Y-72543398D01*
X91197330Y-72533454D01*
X91260886Y-72562479D01*
X91267364Y-72568511D01*
X91375396Y-72676543D01*
X91547362Y-72801482D01*
X91547364Y-72801483D01*
X91547367Y-72801485D01*
X91736771Y-72897991D01*
X91938940Y-72963680D01*
X92148896Y-72996934D01*
X92148897Y-72996934D01*
X92361469Y-72996934D01*
X92361470Y-72996934D01*
X92571426Y-72963680D01*
X92773595Y-72897991D01*
X92962999Y-72801485D01*
X92993454Y-72779358D01*
X93134969Y-72676543D01*
X93134971Y-72676540D01*
X93134975Y-72676538D01*
X93285287Y-72526226D01*
X93285289Y-72526222D01*
X93285292Y-72526220D01*
X93410231Y-72354254D01*
X93410230Y-72354254D01*
X93410234Y-72354250D01*
X93506740Y-72164846D01*
X93572429Y-71962677D01*
X93605683Y-71752721D01*
X93605683Y-71540147D01*
X93572429Y-71330191D01*
X93506740Y-71128022D01*
X93410234Y-70938618D01*
X93410232Y-70938615D01*
X93410231Y-70938613D01*
X93285292Y-70766647D01*
X93134969Y-70616324D01*
X92963003Y-70491385D01*
X92773597Y-70394878D01*
X92773596Y-70394877D01*
X92773595Y-70394877D01*
X92571426Y-70329188D01*
X92571424Y-70329187D01*
X92571423Y-70329187D01*
X92410140Y-70303642D01*
X92361470Y-70295934D01*
X92148896Y-70295934D01*
X92100225Y-70303642D01*
X91938943Y-70329187D01*
X91736768Y-70394878D01*
X91547362Y-70491385D01*
X91375396Y-70616324D01*
X91375392Y-70616328D01*
X91267364Y-70724357D01*
X91206041Y-70757842D01*
X91136349Y-70752858D01*
X91080416Y-70710986D01*
X91055999Y-70645522D01*
X91055683Y-70636676D01*
X91055683Y-61649693D01*
X91847099Y-61649693D01*
X91847099Y-61649695D01*
X91847099Y-61750305D01*
X91847099Y-61750306D01*
X91847100Y-61764743D01*
X91847100Y-64689692D01*
X91847099Y-64689706D01*
X91847099Y-64800307D01*
X91863046Y-64838806D01*
X91863048Y-64838808D01*
X91885600Y-64893256D01*
X91966947Y-64974603D01*
X91966956Y-64974610D01*
X92885600Y-65893255D01*
X92885601Y-65893257D01*
X92956743Y-65964399D01*
X92983968Y-65975675D01*
X93049695Y-66002901D01*
X93049696Y-66002901D01*
X93164739Y-66002901D01*
X93164747Y-66002900D01*
X94311041Y-66002900D01*
X94378080Y-66022585D01*
X94398722Y-66039219D01*
X94471913Y-66112410D01*
X94575187Y-66172036D01*
X94690375Y-66202900D01*
X94690377Y-66202900D01*
X94809623Y-66202900D01*
X94809625Y-66202900D01*
X94924813Y-66172036D01*
X95028087Y-66112410D01*
X95112410Y-66028087D01*
X95172036Y-65924813D01*
X95202900Y-65809625D01*
X95202900Y-65690375D01*
X95172036Y-65575187D01*
X95112410Y-65471913D01*
X95028087Y-65387590D01*
X94924813Y-65327964D01*
X94846545Y-65306992D01*
X94786886Y-65270628D01*
X94756357Y-65207781D01*
X94764652Y-65138405D01*
X94790955Y-65099541D01*
X94812410Y-65078087D01*
X94872036Y-64974813D01*
X94902900Y-64859625D01*
X94902900Y-64740375D01*
X94872036Y-64625187D01*
X94812410Y-64521913D01*
X94728087Y-64437590D01*
X94643365Y-64388675D01*
X94624814Y-64377964D01*
X94542098Y-64355801D01*
X94509625Y-64347100D01*
X94390375Y-64347100D01*
X94275185Y-64377964D01*
X94171913Y-64437590D01*
X94171910Y-64437592D01*
X94098722Y-64510781D01*
X94037399Y-64544266D01*
X94011041Y-64547100D01*
X93556116Y-64547100D01*
X93489077Y-64527415D01*
X93468435Y-64510781D01*
X93098029Y-64140375D01*
X100097100Y-64140375D01*
X100097100Y-64259624D01*
X100127964Y-64374814D01*
X100129783Y-64377964D01*
X100187590Y-64478087D01*
X100271913Y-64562410D01*
X100375187Y-64622036D01*
X100490375Y-64652900D01*
X100490377Y-64652900D01*
X100609623Y-64652900D01*
X100609625Y-64652900D01*
X100724813Y-64622036D01*
X100828087Y-64562410D01*
X100912410Y-64478087D01*
X100972036Y-64374813D01*
X101002900Y-64259625D01*
X101002900Y-64140375D01*
X100996222Y-64115452D01*
X100997885Y-64045604D01*
X101028314Y-63995681D01*
X102458578Y-62565419D01*
X102519901Y-62531934D01*
X102546259Y-62529100D01*
X109345569Y-62529100D01*
X109345570Y-62529100D01*
X109345571Y-62529100D01*
X109370233Y-62518884D01*
X109429775Y-62494222D01*
X109853463Y-62070531D01*
X109914786Y-62037047D01*
X109973236Y-62038437D01*
X110027209Y-62052900D01*
X110027211Y-62052900D01*
X110172788Y-62052900D01*
X110172791Y-62052900D01*
X110313411Y-62015221D01*
X110439489Y-61942430D01*
X110542430Y-61839489D01*
X110615221Y-61713411D01*
X110652900Y-61572791D01*
X110652900Y-61427209D01*
X110615221Y-61286589D01*
X110542430Y-61160511D01*
X110439489Y-61057570D01*
X110439488Y-61057569D01*
X110439485Y-61057567D01*
X110313413Y-60984780D01*
X110313412Y-60984779D01*
X110313411Y-60984779D01*
X110172791Y-60947100D01*
X110027209Y-60947100D01*
X109886589Y-60984779D01*
X109886587Y-60984780D01*
X109886586Y-60984780D01*
X109760514Y-61057567D01*
X109760509Y-61057571D01*
X109657571Y-61160509D01*
X109657567Y-61160514D01*
X109584780Y-61286586D01*
X109584780Y-61286587D01*
X109584779Y-61286589D01*
X109547100Y-61427209D01*
X109547100Y-61427211D01*
X109547100Y-61572792D01*
X109561561Y-61626762D01*
X109559898Y-61696611D01*
X109529467Y-61746535D01*
X109241422Y-62034581D01*
X109180099Y-62068066D01*
X109153741Y-62070900D01*
X102354428Y-62070900D01*
X102329768Y-62081112D01*
X102329769Y-62081113D01*
X102270226Y-62105777D01*
X102270223Y-62105779D01*
X100665221Y-63710781D01*
X100603898Y-63744266D01*
X100577540Y-63747100D01*
X100490375Y-63747100D01*
X100375185Y-63777964D01*
X100271913Y-63837590D01*
X100271910Y-63837592D01*
X100187592Y-63921910D01*
X100187590Y-63921913D01*
X100127964Y-64025185D01*
X100097100Y-64140375D01*
X93098029Y-64140375D01*
X93039219Y-64081565D01*
X93005734Y-64020242D01*
X93002900Y-63993884D01*
X93002900Y-62206116D01*
X93022585Y-62139077D01*
X93039219Y-62118435D01*
X93568435Y-61589219D01*
X93629758Y-61555734D01*
X93656116Y-61552900D01*
X99749693Y-61552900D01*
X99749695Y-61552901D01*
X99850305Y-61552901D01*
X99888806Y-61536952D01*
X99943257Y-61514399D01*
X100014399Y-61443257D01*
X100014399Y-61443254D01*
X100026314Y-61431340D01*
X100026317Y-61431335D01*
X102980010Y-58477642D01*
X103041331Y-58444159D01*
X103099781Y-58445550D01*
X103127209Y-58452900D01*
X103127211Y-58452900D01*
X103272788Y-58452900D01*
X103272791Y-58452900D01*
X103413411Y-58415221D01*
X103539489Y-58342430D01*
X103642430Y-58239489D01*
X103715221Y-58113411D01*
X103752900Y-57972791D01*
X103752900Y-57827209D01*
X103715221Y-57686589D01*
X103642430Y-57560511D01*
X103539489Y-57457570D01*
X103539488Y-57457569D01*
X103539485Y-57457567D01*
X103413413Y-57384780D01*
X103413412Y-57384779D01*
X103413411Y-57384779D01*
X103272791Y-57347100D01*
X103127209Y-57347100D01*
X102986589Y-57384779D01*
X102986587Y-57384780D01*
X102986586Y-57384780D01*
X102860514Y-57457567D01*
X102860509Y-57457571D01*
X102757571Y-57560509D01*
X102757567Y-57560514D01*
X102684780Y-57686586D01*
X102684780Y-57686587D01*
X102684779Y-57686589D01*
X102647100Y-57827209D01*
X102647100Y-57972791D01*
X102647835Y-57975534D01*
X102654449Y-58000219D01*
X102652784Y-58070069D01*
X102622354Y-58119990D01*
X102364581Y-58377764D01*
X102303258Y-58411249D01*
X102233567Y-58406265D01*
X102177633Y-58364394D01*
X102153216Y-58298929D01*
X102152900Y-58290083D01*
X102152900Y-58227211D01*
X102152900Y-58227209D01*
X102115221Y-58086589D01*
X102042430Y-57960511D01*
X101939489Y-57857570D01*
X101939488Y-57857569D01*
X101939485Y-57857567D01*
X101813413Y-57784780D01*
X101813412Y-57784779D01*
X101813411Y-57784779D01*
X101672791Y-57747100D01*
X101527209Y-57747100D01*
X101386589Y-57784779D01*
X101386587Y-57784780D01*
X101386586Y-57784780D01*
X101260514Y-57857567D01*
X101260509Y-57857571D01*
X101157571Y-57960509D01*
X101157567Y-57960514D01*
X101084780Y-58086586D01*
X101084780Y-58086587D01*
X101084779Y-58086589D01*
X101047100Y-58227209D01*
X101047100Y-58372791D01*
X101053109Y-58395219D01*
X101054449Y-58400219D01*
X101052784Y-58470069D01*
X101022354Y-58519990D01*
X99081565Y-60460781D01*
X99020242Y-60494266D01*
X98993884Y-60497100D01*
X93100307Y-60497100D01*
X93100305Y-60497099D01*
X92999695Y-60497099D01*
X92964555Y-60511655D01*
X92948887Y-60518144D01*
X92948885Y-60518145D01*
X92906745Y-60535600D01*
X92906743Y-60535601D01*
X91961084Y-61481260D01*
X91961073Y-61481269D01*
X91961074Y-61481270D01*
X91885600Y-61556743D01*
X91863047Y-61611193D01*
X91847099Y-61649693D01*
X91055683Y-61649693D01*
X91055683Y-56270934D01*
X91058228Y-56262265D01*
X91056940Y-56253325D01*
X91067917Y-56229267D01*
X91075368Y-56203895D01*
X91082194Y-56197979D01*
X91085945Y-56189761D01*
X91108187Y-56175456D01*
X91128172Y-56158140D01*
X91138666Y-56155855D01*
X91144711Y-56151968D01*
X91179567Y-56146950D01*
X91179644Y-56146934D01*
X91255155Y-56146934D01*
X91321075Y-56146934D01*
X91321239Y-56146889D01*
X91327908Y-56146887D01*
X91329578Y-56146887D01*
X91329585Y-56146889D01*
X91329613Y-56146887D01*
X91333992Y-56146888D01*
X91488640Y-56116136D01*
X91634318Y-56055807D01*
X91765427Y-55968217D01*
X91876930Y-55856733D01*
X91964542Y-55725639D01*
X92024897Y-55579971D01*
X92055674Y-55425329D01*
X92055675Y-55412354D01*
X92055683Y-55412326D01*
X92055683Y-55346377D01*
X92055691Y-55280599D01*
X92055690Y-55280595D01*
X92055691Y-55272589D01*
X92055683Y-55272451D01*
X92055683Y-52770934D01*
X92075368Y-52703895D01*
X92128172Y-52658140D01*
X92179683Y-52646934D01*
X98230683Y-52646934D01*
X98297722Y-52666619D01*
G37*
%TD.AperFunction*%
%TD*%
M02*
